<?xml version="1.0" standalone="no"?>
<!DOCTYPE svg PUBLIC "-//W3C//DTD SVG 1.1//EN" "http://www.w3.org/Graphics/SVG/1.1/DTD/svg11.dtd" >
<svg xmlns="http://www.w3.org/2000/svg" xmlns:xlink="http://www.w3.org/1999/xlink" version="1.1">
<metadata>
Created by FontForge 20170731 at Fri Apr 27 14:24:32 2018
 By Aleksey,,,
Copyright (c) 2018 by www.pharmadepot.ge. All rights reserved.
</metadata>
<defs>
<font id="PharmadepotNusL-BoldItalic" horiz-adv-x="0" >
  <font-face 
    font-family="Pharmadepot Nus L"
    font-weight="700"
    font-style="italic"
    font-stretch="normal"
    units-per-em="1000"
    panose-1="2 0 0 0 0 0 0 0 0 0"
    ascent="800"
    descent="-200"
    x-height="520"
    cap-height="704"
    bbox="-14 -290 1144 950"
    underline-thickness="50"
    underline-position="-150"
    unicode-range="U+000D-2122"
  />
<missing-glyph horiz-adv-x="442" 
d="M242 687h250l-201 -942h-250zM64 -236h212l192 904h-212zM241 -213h-134l10 46l58 34h-51l10 46h64l-62 71l97 74l62 -73l-92 -72h65l-10 -47l-64 -32h57zM424 647l-10 -46h-47l-5 -24h47l-10 -47h-134l10 47h43l5 24h-82l49 46h134zM267 140h-32l15 70h11
q32 0 46.5 -14.5t14.5 -36.5q0 -17 -7 -31.5t-18.5 -25.5t-27 -17.5t-32.5 -6.5q-28 0 -43.5 14t-15.5 37q0 25 14.5 44t36.5 30l8 -41q-15 -9 -15 -21q0 -14 25 -14q11 0 21 4.5t10 18.5q0 8 -6 10zM375 415h-134l11 53q12 55 61 55q36 0 36 -30v-9t-2 -10l-11 -11h49z
M355 324h-58l-84 -41l11 53l33 12l-28 12l11 53l68 -41h58zM334 225h-134l10 47h88l9 42h46zM229 -38l9 39h-41l-9 -39h41zM290 463h18l1 4v3q0 8 -6 8q-11 0 -12 -11z" />
    <glyph glyph-name=".notdef" horiz-adv-x="442" 
d="M242 687h250l-201 -942h-250zM64 -236h212l192 904h-212zM241 -213h-134l10 46l58 34h-51l10 46h64l-62 71l97 74l62 -73l-92 -72h65l-10 -47l-64 -32h57zM424 647l-10 -46h-47l-5 -24h47l-10 -47h-134l10 47h43l5 24h-82l49 46h134zM267 140h-32l15 70h11
q32 0 46.5 -14.5t14.5 -36.5q0 -17 -7 -31.5t-18.5 -25.5t-27 -17.5t-32.5 -6.5q-28 0 -43.5 14t-15.5 37q0 25 14.5 44t36.5 30l8 -41q-15 -9 -15 -21q0 -14 25 -14q11 0 21 4.5t10 18.5q0 8 -6 10zM375 415h-134l11 53q12 55 61 55q36 0 36 -30v-9t-2 -10l-11 -11h49z
M355 324h-58l-84 -41l11 53l33 12l-28 12l11 53l68 -41h58zM334 225h-134l10 47h88l9 42h46zM229 -38l9 39h-41l-9 -39h41zM290 463h18l1 4v3q0 8 -6 8q-11 0 -12 -11z" />
    <glyph glyph-name=".null" 
 />
    <glyph glyph-name="nonmarkingreturn" unicode="&#xd;" 
 />
    <glyph glyph-name="space" unicode=" " horiz-adv-x="410" 
 />
    <glyph glyph-name="exclam" unicode="!" horiz-adv-x="213" 
d="M190 186h-98l110 518h98zM49 0l22 105h105l-22 -105h-105z" />
    <glyph glyph-name="quotedbl" unicode="&#x22;" horiz-adv-x="375" 
d="M327 525l40 187h100l-40 -187h-100zM164 525l40 187h100l-40 -187h-100z" />
    <glyph glyph-name="numbersign" unicode="#" horiz-adv-x="653" 
d="M581 418q-12 -32 -22 -56.5t-21 -56.5h84l-18 -85h-98l-81 -220h-95l80 220h-129l-80 -220h-96l80 220h-83l18 85h97q12 31 22 56t22 57h-87l19 87h98l78 208h96l-78 -208h130l78 208h94l-77 -208h82l-19 -87h-94zM356 418l-44 -113h130l43 113h-129z" />
    <glyph glyph-name="dollar" unicode="$" horiz-adv-x="626" 
d="M602 201q-9 -44 -31 -79t-55 -61.5t-75.5 -42.5t-91.5 -21l-15 -70h-82l14 67q-64 5 -110.5 29.5t-84.5 73.5l80 66q30 -38 63.5 -56t75.5 -22l49 233q-41 0 -71 12.5t-50.5 33t-30.5 47t-10 55.5q0 51 19 94t52 75.5t77 53.5t95 27l12 58h82l-12 -57q54 -5 92 -25.5
t74 -59.5l-78 -64q-23 25 -47.5 41t-62.5 20l-48 -227l18 -4q85 -19 121.5 -54.5t36.5 -92.5q0 -23 -6 -50zM506 199q3 15 3 27q0 22 -8.5 36.5t-22.5 23.5t-31.5 14t-34.5 8l-47 -223q52 8 91.5 37.5t49.5 76.5zM405 629q-27 -4 -50.5 -16t-41 -29.5t-27.5 -40.5t-10 -50
q0 -19 7 -32.5t19 -23.5t27 -16t30 -10z" />
    <glyph glyph-name="percent" unicode="%" horiz-adv-x="832" 
d="M790 135q-7 -32 -23 -58.5t-39.5 -45t-51.5 -28.5t-59 -10q-54 0 -85 28.5t-31 78.5q0 19 4 35l22 102q14 65 61.5 103.5t110.5 38.5q53 0 85 -29t32 -79q0 -8 -1 -16.5t-3 -17.5zM442 475q-7 -32 -23 -58t-39.5 -44.5t-51.5 -28.5t-59 -10q-54 0 -85 28.5t-31 78.5
q0 8 1 16.5t3 17.5l22 102q14 65 61.5 103.5t110.5 38.5q53 0 85 -29t32 -79q0 -8 -1 -16.5t-3 -17.5zM284 0h-84l485 712h84zM732 235q3 13 3 26q0 22 -12.5 34.5t-38.5 12.5q-34 0 -53.5 -19t-26.5 -54l-20 -98q-3 -15 -3 -26q0 -22 12 -34t39 -12q33 0 53 19.5t27 52.5z
M385 575q3 12 3 24q0 23 -12.5 35.5t-39.5 12.5q-35 0 -53.5 -19t-25.5 -53l-21 -98q-3 -12 -3 -23q0 -49 52 -49q34 0 52.5 19.5t26.5 52.5z" />
    <glyph glyph-name="ampersand" unicode="&#x26;" horiz-adv-x="722" 
d="M545 0l-43 70q-15 -11 -36 -24t-48.5 -24.5t-61 -19.5t-72.5 -8q-91 0 -141 43.5t-50 117.5q0 52 17 91.5t44.5 70t62 54t70.5 44.5q-15 24 -28 52.5t-13 62.5q0 39 16.5 73t44.5 59.5t64 40.5t75 15q61 0 97 -34.5t36 -88.5q0 -37 -13 -65.5t-34.5 -51t-51 -41
t-62.5 -35.5q31 -51 59 -95t60 -95q10 13 18.5 28t15.5 32.5t13 39t12 49.5h93q-16 -70 -41.5 -125.5t-65.5 -97.5q19 -31 43 -70t43 -68h-123zM330 350q-26 -15 -50.5 -32t-44 -37.5t-31.5 -46t-12 -56.5q0 -44 29.5 -70t80.5 -26q35 0 72.5 11t85.5 45zM483 561q1 5 1 15
q0 25 -15 40.5t-41 15.5q-17 0 -32 -6.5t-26.5 -18.5t-18.5 -27.5t-7 -33.5q0 -16 7.5 -34t25.5 -47l10 5h-1q35 20 62.5 40.5t34.5 50.5z" />
    <glyph glyph-name="quotesingle" unicode="'" horiz-adv-x="207" 
d="M169 525l40 187h88l-40 -187h-88z" />
    <glyph glyph-name="parenleft" unicode="(" horiz-adv-x="260" 
d="M108 -191l-10 14q-31 39 -43.5 68.5t-12.5 59.5q0 28 7 57l114 537q6 27 14 49t22 43t36.5 43.5t55.5 49.5l15 13l50 -63q-19 -15 -35.5 -29t-29 -30t-22 -35.5t-15.5 -46.5l-112 -526q-2 -11 -3.5 -21t-1.5 -19q0 -33 13.5 -54.5t33.5 -46.5z" />
    <glyph glyph-name="parenright" unicode=")" horiz-adv-x="260" 
d="M268 743l10 -14q32 -39 44 -68t12 -60q0 -13 -2 -27t-5 -30l-114 -537q-6 -26 -14 -48t-22 -43.5t-36 -44t-55 -49.5l-16 -13l-50 63q19 15 35.5 29t29 30t22 35.5t15.5 46.5l112 526q4 20 4 40q0 33 -13 54.5t-33 46.5z" />
    <glyph glyph-name="asterisk" unicode="*" horiz-adv-x="468" 
d="M458 405l-89 64l-26 -124h-76l26 124l-117 -64l-26 68l118 58l-93 59l54 67l88 -64l26 124h75l-27 -125l120 65l24 -67l-119 -59l95 -58z" />
    <glyph glyph-name="plus" unicode="+" horiz-adv-x="546" 
d="M377 303l-36 -170h-88l36 170h-170l19 89h170l36 168h88l-36 -168h169l-19 -89h-169z" />
    <glyph glyph-name="comma" unicode="," horiz-adv-x="234" 
d="M62 49q5 26 27.5 44.5t48.5 18.5q23 0 37 -14.5t14 -36.5q0 -4 -2 -14l-68 -162h-66l46 102q-17 5 -27.5 18.5t-10.5 31.5q0 8 1 12z" />
    <glyph glyph-name="hyphen" unicode="-" horiz-adv-x="402" 
d="M102 228l19 88h288l-19 -88h-288z" />
    <glyph glyph-name="period" unicode="." horiz-adv-x="222" 
d="M62 50q6 26 28.5 44.5t48.5 18.5q23 0 37 -14t14 -35q0 -15 -6.5 -29t-17.5 -24.5t-25 -17t-29 -6.5q-23 0 -37 14t-14 36q0 8 1 13z" />
    <glyph glyph-name="slash" unicode="/" horiz-adv-x="448" 
d="M95 -151h-92l466 856h92z" />
    <glyph glyph-name="zero" unicode="0" horiz-adv-x="527" 
d="M519 189q-10 -45 -35.5 -82.5t-61 -64t-77.5 -41t-84 -14.5q-38 0 -70.5 11t-56.5 32t-37.5 50.5t-13.5 65.5q0 11 1.5 21.5t3.5 21.5l68 322q9 45 35 82.5t61.5 63.5t77.5 40.5t85 14.5q37 0 69.5 -11t56.5 -32t37.5 -50t13.5 -65q0 -11 -1.5 -21.5t-3.5 -21.5zM493 507
q3 13 3 27q0 42 -27 67.5t-72 25.5q-26 0 -50.5 -9t-45 -25t-34.5 -38t-19 -48l-66 -314q-3 -15 -3 -27q0 -42 27 -67.5t73 -25.5q25 0 49.5 9t44.5 25t34 38t20 48z" />
    <glyph glyph-name="one" unicode="1" horiz-adv-x="293" 
d="M152 0l125 589q-37 -27 -78 -57t-74 -56l23 111l160 118h86l-149 -705h-93z" />
    <glyph glyph-name="two" unicode="2" horiz-adv-x="474" 
d="M36 0l16 76l346 344h-1q31 30 45.5 60t14.5 65q0 38 -22 60t-65 22q-44 0 -82 -26.5t-51 -86.5l-14 -66h-92l14 66q9 43 31 79.5t54 62.5t72 41t86 15q78 0 121 -39.5t43 -108.5q0 -30 -6 -55.5t-18 -49t-29.5 -45.5t-40.5 -45l-286 -284h284l-18 -85h-402z" />
    <glyph glyph-name="three" unicode="3" horiz-adv-x="501" 
d="M506 193q-11 -50 -36 -88.5t-59.5 -64.5t-76 -39.5t-86.5 -13.5q-38 0 -70.5 9.5t-56 29.5t-36.5 50t-13 71q0 11 1 22t3 23h93q-1 -7 -1.5 -13t-0.5 -12q0 -51 29 -73t70 -22q30 0 57 11t48 32t33.5 51t12.5 67q0 41 -24 64t-77 23h-42l18 85h42q61 0 99 35.5t38 102.5
q0 42 -24.5 63t-62.5 21q-50 0 -86 -31t-52 -84h-93q13 47 38 84.5t58 63t72 39t81 13.5q77 0 120.5 -40.5t43.5 -109.5t-31 -119t-84 -77q61 -33 61 -115q0 -27 -6 -58z" />
    <glyph glyph-name="four" unicode="4" horiz-adv-x="515" 
d="M433 156l-33 -156h-93l33 156h-283l18 88l347 460h107l-347 -463h176l41 196h93l-41 -196h91l-18 -85h-91z" />
    <glyph glyph-name="five" unicode="5" horiz-adv-x="494" 
d="M509 242q-9 -42 -29 -87.5t-53 -82.5t-80.5 -61t-111.5 -24q-43 0 -76 12.5t-55 34t-33 51.5t-11 66q0 17 3 35h93q-1 -5 -1 -8.5v-7.5q0 -45 26 -71t72 -26q49 0 81.5 26t52 62t27 73.5t7.5 60.5q0 60 -30 87t-70 27q-36 0 -68 -21.5t-54 -60.5h-89l80 377h372l-18 -85
h-279l-36 -170q30 24 60.5 35t64.5 11q32 0 61.5 -9.5t52.5 -30.5t36.5 -54t13.5 -79q0 -37 -9 -80z" />
    <glyph glyph-name="six" unicode="6" horiz-adv-x="503" 
d="M468 704l-169 -256q15 4 29.5 5t25.5 1q37 0 68.5 -11t54.5 -31.5t35.5 -49t12.5 -64.5q0 -11 -1.5 -22t-3.5 -23l-13 -64q-9 -45 -35 -82.5t-61 -64t-77 -41t-84 -14.5q-38 0 -70.5 11t-56.5 32t-38 50.5t-14 66.5q0 17 5 42l13 64q1 5 5.5 17t11 27t15.5 31t18 30
l227 346h102zM426 249q3 13 3 27q0 41 -26.5 67t-71.5 26q-26 0 -51 -9t-45 -25.5t-34.5 -38.5t-19.5 -47l-11 -56q-3 -14 -3 -27q0 -42 27.5 -67.5t73.5 -25.5q25 0 49.5 9t44.5 25t34 38t19 48z" />
    <glyph glyph-name="seven" unicode="7" horiz-adv-x="453" 
d="M186 0h-97l372 626h-212l-23 -106h-92l39 184h405l-16 -74z" />
    <glyph glyph-name="eight" unicode="8" horiz-adv-x="501" 
d="M507 201q-10 -46 -34.5 -85.5t-59.5 -68t-77.5 -44.5t-87.5 -16q-39 0 -71.5 12t-55.5 34t-35.5 52.5t-12.5 67.5q0 38 11 70.5t29 59.5t42.5 48.5t51.5 37.5q-26 20 -40 44.5t-14 59.5q0 51 21 94.5t55.5 75.5t79.5 50.5t93 18.5q37 0 67.5 -11t52 -31t33 -47.5
t11.5 -61.5q0 -70 -33 -117t-82 -75q27 -22 44 -52t17 -71q0 -11 -1.5 -22t-3.5 -23zM415 202q3 13 3 28q0 42 -26.5 68.5t-71.5 26.5q-29 0 -56.5 -12t-48.5 -32.5t-34 -48t-13 -58.5q0 -43 26.5 -72t71.5 -29q25 0 49.5 10.5t45 28t35 41t19.5 49.5zM468 515q3 13 3 27
q0 38 -23 61.5t-64 23.5q-27 0 -51.5 -11t-43 -29.5t-30 -44t-11.5 -54.5q0 -38 23.5 -58.5t65.5 -20.5q48 0 84 28t47 78z" />
    <glyph glyph-name="nine" unicode="9" horiz-adv-x="503" 
d="M181 0l170 251q-15 -4 -29 -5t-25 -1q-38 0 -69.5 11t-54 31.5t-35.5 49.5t-13 65q0 19 5 44l14 64q10 45 35.5 82.5t60.5 63.5t77 40.5t85 14.5q37 0 69.5 -11t56.5 -32t38 -50.5t14 -65.5q0 -17 -5 -42l-14 -64q-1 -5 -5.5 -17.5t-11.5 -27.5t-15 -31t-17 -29
l-229 -341h-102zM224 450q-3 -15 -3 -27q0 -42 27 -67.5t73 -25.5q26 0 50 9t44 25t34 38t20 48l12 56q3 13 3 27q0 42 -27.5 67.5t-72.5 25.5q-26 0 -50.5 -9t-44 -25t-33.5 -38t-20 -48z" />
    <glyph glyph-name="colon" unicode=":" horiz-adv-x="222" 
d="M71 93q5 26 28 44.5t49 18.5q23 0 37 -14t14 -35q0 -15 -6.5 -29t-17.5 -24.5t-25 -17t-29 -6.5q-23 0 -37 14t-14 36q0 8 1 13zM133 383q5 26 27.5 44.5t48.5 18.5q23 0 37 -14.5t14 -35.5q0 -15 -6.5 -29t-17.5 -24.5t-25 -16.5t-28 -6q-23 0 -37.5 14t-14.5 35
q0 4 0.5 7t1.5 7z" />
    <glyph glyph-name="semicolon" unicode=";" horiz-adv-x="222" 
d="M62 49q5 26 27.5 44.5t48.5 18.5q23 0 37 -14.5t14 -36.5q0 -4 -2 -14l-68 -162h-66l46 102q-17 5 -27.5 18.5t-10.5 31.5q0 8 1 12zM133 383q5 26 27.5 44.5t48.5 18.5q23 0 37 -14.5t14 -35.5q0 -15 -6.5 -29t-17.5 -24.5t-25 -16.5t-28 -6q-23 0 -37.5 14t-14.5 35
q0 4 0.5 7t1.5 7z" />
    <glyph glyph-name="less" unicode="&#x3c;" horiz-adv-x="459" 
d="M103 233l17 78l381 175l-22 -102l-251 -112l204 -112l-22 -102z" />
    <glyph glyph-name="equal" unicode="=" horiz-adv-x="546" 
d="M135 377l18 88h427l-18 -88h-427zM100 213l18 87h427l-18 -87h-427z" />
    <glyph glyph-name="greater" unicode="&#x3e;" horiz-adv-x="459" 
d="M66 58l22 102l249 112l-202 112l22 102l307 -175l-17 -78z" />
    <glyph glyph-name="question" unicode="?" horiz-adv-x="458" 
d="M533 524q-4 -18 -12.5 -35t-27 -42t-50.5 -61.5t-83 -93.5q-11 -11 -18 -25.5t-9 -23.5l-19 -88h-93l19 89q6 30 19.5 52.5t33.5 45.5q39 43 65 71.5t42.5 47.5t25.5 30.5t12.5 20.5t4 16.5t0.5 18.5q0 35 -21 57t-59 22q-23 0 -44 -9t-37.5 -25t-28 -36.5t-16.5 -43.5
h-93q9 42 31.5 78.5t54.5 63.5t70.5 42.5t80.5 15.5q71 0 113.5 -40t42.5 -106q0 -22 -4 -42zM182 0l22 105h107l-22 -105h-107z" />
    <glyph glyph-name="at" unicode="@" horiz-adv-x="697" 
d="M540 0l7 36q-27 -20 -58 -31.5t-69 -11.5q-70 0 -107.5 34.5t-37.5 113.5q0 42 12 101q28 131 86.5 190t151.5 59q71 0 109 -43l10 46q4 19 4 39q0 48 -28 73t-81 25h-126q-60 0 -103.5 -34.5t-57.5 -102.5l-70 -327q-2 -12 -4 -22t-1 -18q0 -22 9.5 -38.5t32.5 -36.5
l-79 -65q-31 26 -44.5 50.5t-13.5 59.5q0 28 9 69l69 326q22 103 90 162t172 59h143q85 0 130.5 -42t45.5 -117q0 -31 -7 -62l-105 -493zM590 242q5 20 7.5 40t2.5 38q0 19 -4 35t-13.5 27.5t-25 18t-38.5 6.5q-42 0 -71 -24.5t-46.5 -61t-25 -79t-7.5 -79.5q0 -19 4 -35
t13 -27.5t24.5 -18t38.5 -6.5q34 0 58 14t40 37.5t26 53t17 61.5z" />
    <glyph glyph-name="A" unicode="A" horiz-adv-x="659" 
d="M451 578l-151 -271h190zM251 218l-123 -218h-92l396 705h92l99 -705h-94l-28 218h-250z" />
    <glyph glyph-name="B" unicode="B" horiz-adv-x="615" 
d="M282 626l-46 -216h189q30 0 55.5 11t44 29.5t29 42t10.5 48.5q0 36 -24 60.5t-69 24.5h-189zM219 332l-54 -254h207q33 0 60 14t46.5 36.5t30 49.5t10.5 53q0 45 -29 73t-81 28h-190zM205 704h286q79 0 123 -41t44 -105q0 -27 -8.5 -55t-24.5 -53t-38 -45t-50 -32
q41 -20 59.5 -52.5t18.5 -72.5q0 -42 -19 -86t-53 -80t-81 -59t-103 -23h-303z" />
    <glyph glyph-name="C" unicode="C" horiz-adv-x="666" 
d="M347 -13q-115 0 -176 69t-61 187q0 101 32 187t86 148.5t124.5 98t148.5 35.5q197 0 234 -214l-88 -37q-14 82 -53 123.5t-111 41.5q-57 0 -107.5 -28.5t-88.5 -78t-60 -115.5t-22 -141q0 -85 40 -137.5t120 -52.5q36 0 69.5 12t63 33.5t54.5 51.5t43 67l75 -37
q-65 -111 -144.5 -162t-178.5 -51z" />
    <glyph glyph-name="D" unicode="D" horiz-adv-x="650" 
d="M440 704q57 0 102.5 -19t77.5 -53.5t49 -83t17 -106.5q0 -93 -33.5 -173.5t-89 -140t-126.5 -94t-146 -34.5h-235l149 704h235zM583 352q8 40 8 73q0 43 -11.5 79.5t-33 63.5t-52.5 42.5t-70 15.5h-142l-117 -548h142q49 0 94 22.5t81.5 60t62.5 87.5t38 104z" />
    <glyph glyph-name="E" unicode="E" horiz-adv-x="516" 
d="M641 704l-16 -78h-343l-44 -204h293l-18 -85h-293l-55 -259h343l-16 -78h-436l149 704h436z" />
    <glyph glyph-name="F" unicode="F" horiz-adv-x="516" 
d="M641 704l-15 -73h-343l-47 -221h293l-16 -73h-293l-71 -337h-93l149 704h436z" />
    <glyph glyph-name="G" unicode="G" horiz-adv-x="685" 
d="M457 375h259l-79 -375h-67v71q-48 -40 -104.5 -62t-118.5 -22q-115 0 -176 69t-61 187q0 101 32 187t86 148.5t124.5 98t148.5 35.5q193 0 233 -205l-87 -42q-15 80 -53.5 120.5t-109.5 40.5q-56 0 -107 -28.5t-89 -77.5t-60.5 -114.5t-22.5 -140.5q0 -84 40.5 -135.5
t120.5 -51.5q53 0 93.5 15.5t70 43.5t50 66.5t32.5 85.5h-206z" />
    <glyph glyph-name="H" unicode="H" horiz-adv-x="593" 
d="M298 704l-57 -271h295l57 271h93l-149 -704h-93l75 355h-295l-75 -355h-93l149 704h93z" />
    <glyph glyph-name="I" unicode="I" horiz-adv-x="205" 
d="M298 704l-149 -704h-93l149 704h93z" />
    <glyph glyph-name="J" unicode="J" horiz-adv-x="500" 
d="M240 -13q-77 0 -117.5 36t-40.5 108q0 32 9 73l102 41l-6 -26q-7 -29 -7 -57q0 -40 18.5 -62t60.5 -22q55 0 89.5 38t48.5 103l103 486h93l-102 -482q-25 -115 -88 -175.5t-163 -60.5z" />
    <glyph glyph-name="K" unicode="K" horiz-adv-x="627" 
d="M294 378l-78 -60l-67 -318h-93l149 704h93l-59 -276l360 276h118l-343 -265l222 -439h-109z" />
    <glyph glyph-name="L" unicode="L" horiz-adv-x="439" 
d="M298 705l-133 -627h266l-16 -78h-359l149 705h93z" />
    <glyph glyph-name="M" unicode="M" horiz-adv-x="758" 
d="M400 121l346 584h105l-149 -705h-93l97 458l20 62l-306 -520h-90l-84 521v-63l-97 -458h-93l149 705h96z" />
    <glyph glyph-name="N" unicode="N" horiz-adv-x="624" 
d="M308 704l210 -580l-5 56l111 524h93l-149 -704h-108l-204 577v-71l-107 -506h-93l149 704h103z" />
    <glyph glyph-name="O" unicode="O" horiz-adv-x="710" 
d="M371 78q58 0 109 29t89.5 78.5t61 114.5t22.5 138q0 84 -42 136t-123 52q-57 0 -108 -28t-89.5 -76.5t-61.5 -114t-23 -140.5q0 -85 41.5 -137t123.5 -52zM122 352q18 82 54.5 148.5t87 113.5t112.5 72.5t130 25.5q58 0 103 -18t76 -51t47 -80t16 -105
q0 -104 -33.5 -190.5t-88.5 -149t-126.5 -97t-147.5 -34.5q-58 0 -103 18t-76 51.5t-47 81.5t-16 107q0 50 12 107z" />
    <glyph glyph-name="P" unicode="P" horiz-adv-x="546" 
d="M443 704q37 0 67.5 -13t52.5 -35.5t33.5 -53t11.5 -64.5q0 -45 -21.5 -88.5t-56.5 -78t-80.5 -56t-93.5 -21.5h-145l-62 -294h-93l149 704h238zM228 372h145q29 0 55 15.5t45 38.5t30 51t11 52q0 19 -6 36.5t-17 31t-27 21.5t-37 8h-145z" />
    <glyph glyph-name="Q" unicode="Q" horiz-adv-x="708" 
d="M501 223l51 -57q47 57 73 129t26 144q0 88 -44 137.5t-124 49.5q-57 0 -107.5 -28.5t-88 -78t-59.5 -115.5t-22 -142q0 -88 41 -136t114 -48q32 0 61.5 7t58.5 26l-75 76zM124 358q16 79 51.5 144.5t85 112t110.5 72t130 25.5q58 0 103.5 -18.5t77 -52t48 -81
t16.5 -105.5q0 -50 -11 -98t-30 -92.5t-44.5 -84.5t-54.5 -73l63 -64l-71 -63l-61 67q-46 -32 -95 -46t-100 -14q-54 0 -97 18t-72.5 51.5t-45.5 81t-16 107.5q0 55 13 113z" />
    <glyph glyph-name="R" unicode="R" horiz-adv-x="587" 
d="M563 0h-97l-115 329h-133l-69 -329h-93l149 704h253q40 0 73.5 -10.5t57.5 -30t37 -47.5t13 -62q0 -33 -13.5 -68t-39 -65.5t-61 -53.5t-78.5 -33zM235 407h160q36 0 64 12t46.5 31t28.5 42.5t10 45.5q0 37 -25.5 62.5t-76.5 25.5h-160z" />
    <glyph glyph-name="S" unicode="S" horiz-adv-x="593" 
d="M443 712q39 0 75 -10.5t63.5 -32t44 -54t16.5 -75.5v-16t-2 -17l-90 -44l7 33q1 5 1.5 11t0.5 11q0 23 -10 43t-28 34.5t-43 22.5t-55 8t-58.5 -7t-51.5 -22t-37 -38t-14 -54q0 -34 24.5 -54.5t61 -34.5t79 -26t79 -30t61 -46.5t24.5 -75.5q0 -62 -25.5 -108.5
t-67.5 -78.5t-95 -48t-108 -16q-41 0 -79 10t-67 31t-46.5 53t-17.5 76q0 7 0.5 14t1.5 15l100 52q-6 -30 -6 -54q0 -111 132 -111q42 0 76 12t57 31.5t35.5 44.5t12.5 52q0 33 -24.5 52t-60.5 31.5t-79 24t-79 30.5t-60.5 49t-24.5 81q0 57 24.5 100t64.5 72.5t89 44
t99 14.5z" />
    <glyph glyph-name="T" unicode="T" horiz-adv-x="535" 
d="M660 704l-16 -78h-192l-133 -626h-93l133 626h-202l16 78h487z" />
    <glyph glyph-name="U" unicode="U" horiz-adv-x="624" 
d="M298 704l-96 -450q-6 -27 -6 -52q0 -60 32.5 -94.5t94.5 -34.5q36 0 69.5 13t60.5 36.5t46.5 57t28.5 74.5l96 450h93l-95 -447q-13 -62 -43.5 -112t-72.5 -85t-93.5 -54t-107.5 -19q-96 0 -149.5 52t-53.5 144q0 17 1.5 35.5t6.5 38.5l95 447h93z" />
    <glyph glyph-name="V" unicode="V" horiz-adv-x="634" 
d="M265 705l78 -578q81 143 162.5 289t160.5 289h93l-396 -705h-92l-98 705h92z" />
    <glyph glyph-name="W" unicode="W" horiz-adv-x="865" 
d="M649 151l251 553h90l-324 -704h-117v542l-252 -542h-124v704h108v-554l253 554h115v-553z" />
    <glyph glyph-name="X" unicode="X" horiz-adv-x="650" 
d="M655 704h103l-305 -339l173 -365h-103l-137 289l-259 -289h-103l327 365q-38 81 -80.5 169.5t-80.5 169.5h103l125 -266z" />
    <glyph glyph-name="Y" unicode="Y" horiz-adv-x="628" 
d="M326 261l-153 443h99l115 -356l266 356h100l-334 -445l-55 -259h-93z" />
    <glyph glyph-name="Z" unicode="Z" horiz-adv-x="567" 
d="M677 705l-16 -79l-506 -548h404l-16 -78h-519l16 78l505 548h-371l16 79h487z" />
    <glyph glyph-name="bracketleft" unicode="[" horiz-adv-x="307" 
d="M408 704l-16 -78h-110l-152 -712h110l-16 -78h-203l184 868h203z" />
    <glyph glyph-name="backslash" unicode="\" horiz-adv-x="510" 
d="M289 705l190 -844h-88l-194 844h92z" />
    <glyph glyph-name="bracketright" unicode="]" horiz-adv-x="307" 
d="M13 -164l16 78h110l152 712h-110l16 78h203l-184 -868h-203z" />
    <glyph glyph-name="asciicircum" unicode="^" horiz-adv-x="563" 
d="M454 705l119 -373l-79 -48l-96 289l-69 -92l-75 -100t-73 -97l-60 48l278 373h55z" />
    <glyph glyph-name="underscore" unicode="_" horiz-adv-x="625" 
d="M555 -23l-18 -85h-505l18 85h505z" />
    <glyph glyph-name="grave" unicode="`" horiz-adv-x="302" 
d="M198 728h107l65 -173h-106z" />
    <glyph glyph-name="a" unicode="a" horiz-adv-x="573" 
d="M381 448q-63 0 -102.5 -28t-53.5 -85l-89 35q15 37 41 67t60.5 51t75.5 32.5t85 11.5q91 0 136 -34t45 -97q0 -11 -1.5 -22.5t-3.5 -23.5l-46 -217q-5 -22 -5 -30q0 -16 10 -20t33 -4l-17 -84h-34q-73 0 -82 48q-37 -29 -89 -44.5t-104 -15.5q-75 0 -120 31.5t-45 94.5
q0 23 10.5 51.5t33 55t59 47.5t87.5 29q49 8 90 15.5t71 17.5t47 23.5t17 34.5q0 26 -28.5 43t-80.5 17zM464 260q-25 -13 -59 -22.5t-67 -15.5t-60 -10t-39 -6q-33 -12 -53 -32.5t-20 -44.5q0 -28 25.5 -42.5t67.5 -14.5q30 0 60.5 6.5t57 20t46 34.5t25.5 51z" />
    <glyph glyph-name="b" unicode="b" horiz-adv-x="550" 
d="M298 704l-50 -238q32 32 72 49.5t80 17.5q77 0 121.5 -52t44.5 -139q0 -80 -26 -145.5t-67 -112t-92 -72t-101 -25.5q-41 0 -74.5 14.5t-53.5 41.5l-20 -43h-76l149 704h93zM375 447q-35 0 -67 -21.5t-56.5 -56t-39.5 -79.5t-15 -91q0 -56 25.5 -88.5t73.5 -32.5
q34 0 66 19t56 52t38.5 77t14.5 94q0 56 -24.5 91.5t-71.5 35.5z" />
    <glyph glyph-name="c" unicode="c" horiz-adv-x="522" 
d="M394 533q35 0 66 -10.5t54 -31.5t36.5 -51t13.5 -69l-90 -37q0 51 -26.5 82t-71.5 31q-39 0 -73.5 -21.5t-60 -56.5t-40.5 -80t-15 -92q0 -55 27.5 -87t82.5 -32q45 0 83 23.5t67 79.5l66 -42q-19 -37 -45.5 -65t-57.5 -47t-65 -29t-67 -10q-45 0 -79 14t-57.5 39.5
t-35.5 61.5t-12 79q0 73 25 137t66.5 111.5t95.5 75t113 27.5z" />
    <glyph glyph-name="d" unicode="d" horiz-adv-x="550" 
d="M643 704l-150 -708h-76l-1 47q-32 -27 -71.5 -41.5t-80.5 -14.5q-77 0 -123 52t-46 143q0 75 24 139t63.5 111.5t90 74t103.5 26.5q39 0 72.5 -17.5t51.5 -49.5l50 238h93zM365 447q-34 0 -66 -20.5t-57 -55t-40 -79.5t-15 -94q0 -55 25 -90t73 -35q33 0 65 19t56.5 52
t39.5 77.5t15 94.5q0 57 -24.5 94t-71.5 37z" />
    <glyph glyph-name="e" unicode="e" horiz-adv-x="550" 
d="M190 222q-1 -7 -1 -13v-12q0 -60 27.5 -92t73.5 -32q38 0 80 21.5t73 69.5l72 -40q-23 -30 -50.5 -55.5t-57.5 -43.5t-62 -28t-63 -10q-42 0 -76 14t-59 40.5t-38.5 63.5t-13.5 83q0 17 1.5 35t6.5 37q13 63 39.5 114t63 86t83.5 54t102 19q40 0 72.5 -13.5t55 -39
t34.5 -61.5t12 -81q0 -18 -1.5 -37.5t-6.5 -40.5l-8 -38h-359zM370 447q-25 0 -50 -9.5t-47.5 -28t-39.5 -44.5t-26 -59h267q3 16 3 31q0 25 -8.5 45.5t-23.5 35t-34.5 22t-40.5 7.5z" />
    <glyph glyph-name="f" unicode="f" horiz-adv-x="301" 
d="M196 520l9 42q14 67 53.5 104.5t106.5 37.5h53l-18 -87h-48q-20 0 -33.5 -12.5t-21.5 -47.5l-8 -37h90l-15 -73h-90l-95 -447h-93l95 447h-50l15 73h50z" />
    <glyph glyph-name="g" unicode="g" horiz-adv-x="550" 
d="M605 520l-121 -569q-8 -38 -31 -70.5t-56 -56t-75.5 -36.5t-89.5 -13q-78 0 -125.5 41t-53.5 106l92 37q1 -48 28.5 -77t75.5 -29q59 0 97.5 33t49.5 87l13 64q-30 -23 -68.5 -36.5t-76.5 -13.5q-78 0 -124 52t-46 144q0 75 24 138.5t63.5 110.5t90.5 73.5t104 26.5
q39 0 73 -17t52 -49l11 54h93zM365 447q-34 0 -66 -20.5t-57 -55t-40 -79.5t-15 -94q0 -55 25 -90t73 -35q33 0 65 19t57 52t40 77t15 94q0 57 -25 94.5t-72 37.5z" />
    <glyph glyph-name="h" unicode="h" horiz-adv-x="549" 
d="M298 704l-50 -234q30 29 69 46t84 17q37 0 67.5 -12t52.5 -33.5t33.5 -52t11.5 -66.5q0 -12 -1 -24.5t-4 -25.5l-67 -319h-93l63 301q2 11 3 21t1 19q0 49 -27 77.5t-75 28.5q-58 0 -99 -41t-55 -105l-63 -301h-93l149 704h93z" />
    <glyph glyph-name="i" unicode="i" horiz-adv-x="205" 
d="M259 520l-110 -520h-93l110 520h93zM195 655h93l-19 -88h-93z" />
    <glyph glyph-name="j" unicode="j" horiz-adv-x="291" 
d="M345 520l-126 -593q-14 -66 -60.5 -102.5t-109.5 -36.5h-48l-15 73h74q16 0 27 3.5t19 13.5t14.5 28.5t12.5 48.5l120 565h92zM374 658l-19 -91h-92l19 91h92z" />
    <glyph glyph-name="k" unicode="k" horiz-adv-x="511" 
d="M297 704l-81 -382l252 198h125l-274 -210l168 -310h-108l-135 249l-53 -44l-43 -205h-92l149 704h92z" />
    <glyph glyph-name="l" unicode="l" horiz-adv-x="204" 
d="M297 704l-149 -704h-92l149 704h92z" />
    <glyph glyph-name="m" unicode="m" horiz-adv-x="755" 
d="M141 0h-93l110 520h93l-13 -62q14 16 32 30t37.5 24t38.5 15.5t36 5.5q42 0 64.5 -20t36.5 -59q32 37 75 58t85 21q65 0 102.5 -42t37.5 -111q0 -27 -6 -55l-69 -325h-93l69 326q4 17 4 36q0 42 -21 63.5t-54 21.5q-42 0 -73 -32t-43 -89l-69 -326h-93l69 326q4 17 4 36
q0 42 -21 63.5t-54 21.5q-42 0 -76.5 -31t-46.5 -90z" />
    <glyph glyph-name="n" unicode="n" horiz-adv-x="557" 
d="M258 520l-13 -63q32 35 75.5 55.5t87.5 20.5q75 0 120.5 -44t45.5 -116q0 -11 -1 -23.5t-4 -25.5l-68 -324h-92l64 305q4 19 4 39q0 49 -27.5 76t-75.5 27q-59 0 -103.5 -39t-58.5 -103l-64 -305h-92l110 520h92z" />
    <glyph glyph-name="o" unicode="o" horiz-adv-x="553" 
d="M386 533q41 0 74.5 -14t57.5 -39.5t37 -62.5t13 -83q0 -78 -26 -142t-68 -109.5t-95.5 -70.5t-108.5 -25q-84 0 -130.5 50t-46.5 139q0 78 25 144t66 113t93.5 73.5t108.5 26.5zM466 257q8 38 8 66q0 58 -27.5 91t-78.5 33q-39 0 -72 -21.5t-57.5 -57.5t-38 -83
t-13.5 -97q0 -55 25 -85t77 -30q66 0 113 50t64 134z" />
    <glyph glyph-name="p" unicode="p" horiz-adv-x="550" 
d="M12 -203l154 723h84l-15 -73q35 40 79 63t82 23q77 0 123 -52t46 -143q0 -75 -24 -139t-63.5 -111.5t-90 -74t-103.5 -26.5q-41 0 -73.5 17t-50.5 49l-55 -256h-93zM295 73q34 0 65.5 20.5t56.5 54.5t40 79t15 95q0 55 -24.5 90t-72.5 35q-33 0 -65 -19.5t-57 -52.5
t-40 -77t-15 -94q0 -57 24.5 -94t72.5 -37z" />
    <glyph glyph-name="q" unicode="q" horiz-adv-x="542" 
d="M355 -212l57 265q-32 -32 -72.5 -49t-79.5 -17q-78 0 -123 52t-45 140q0 79 26.5 144.5t68 112t92.5 72t101 25.5q38 0 72 -19.5t54 -57.5l14 64h84l-156 -732h-93zM285 73q35 0 67 21.5t57 56.5t39.5 79.5t14.5 91.5q0 57 -25.5 91t-72.5 34q-35 0 -67 -20.5
t-56.5 -54.5t-39 -78.5t-14.5 -92.5q0 -57 24.5 -92.5t72.5 -35.5z" />
    <glyph glyph-name="r" unicode="r" horiz-adv-x="349" 
d="M250 520l-15 -71q15 16 37 31t49.5 26.5t58 18.5t61.5 7l-18 -85q-87 0 -145 -35t-76 -119l-62 -293h-92l110 520h92z" />
    <glyph glyph-name="s" unicode="s" horiz-adv-x="522" 
d="M375 533q85 0 130.5 -39t45.5 -111v-11l-97 -33q0 4 0.5 8t0.5 8q0 25 -8 43t-21.5 30t-31.5 18t-37 6t-38.5 -5t-35.5 -15.5t-26.5 -26t-10.5 -36.5q0 -31 32 -44t84 -24q81 -17 113 -47.5t32 -76.5q0 -45 -18.5 -80.5t-51 -59.5t-77 -37t-96.5 -13q-37 0 -70.5 8.5
t-59 26t-40.5 45t-15 65.5q0 6 0.5 12t1.5 12l94 28q-1 -5 -1.5 -10.5t-0.5 -10.5q0 -42 28 -66t74 -24q61 0 99.5 18.5t38.5 61.5q0 15 -8.5 25.5t-22 17t-29.5 11t-31 7.5q-33 6 -63.5 15.5t-54 25.5t-37.5 39t-14 56q0 7 2.5 23.5t10.5 37t22.5 42t39.5 39.5t61 29.5
t86 11.5z" />
    <glyph glyph-name="t" unicode="t" horiz-adv-x="344" 
d="M224 520l39 184h92l-39 -184h90l-15 -73h-90l-59 -274q-10 -44 -10 -68q0 -19 7.5 -25.5t24.5 -6.5h47l-15 -73h-55q-51 0 -77 25.5t-26 72.5q0 10 1.5 20.5t3.5 22.5l66 306h-66l15 73h66z" />
    <glyph glyph-name="u" unicode="u" horiz-adv-x="549" 
d="M404 0l10 51q-32 -27 -76.5 -45.5t-87.5 -18.5q-74 0 -116.5 41.5t-42.5 111.5q0 25 6 54l69 326h92l-65 -305q-5 -25 -5 -43q0 -47 25 -73t73 -26q59 0 102.5 37t57.5 105l65 305h92l-110 -520h-89z" />
    <glyph glyph-name="v" unicode="v" horiz-adv-x="549" 
d="M248 520l50 -410l225 410h100l-303 -520h-91l-83 520h102z" />
    <glyph glyph-name="w" unicode="w" horiz-adv-x="750" 
d="M246 520v-389l190 389h122v-389l185 389h93l-259 -520h-91l-27 398l-194 -398h-92l-39 520h112z" />
    <glyph glyph-name="x" unicode="x" horiz-adv-x="544" 
d="M130 0h-106l252 269l-126 251h107l86 -180l163 180h107l-231 -251l138 -269h-106l-102 194z" />
    <glyph glyph-name="y" unicode="y" horiz-adv-x="524" 
d="M102 -128q17 0 34 14t32 34.5t25.5 42.5t13.5 38q1 7 2 15t1 16q0 10 -1 15l-75 473h97l60 -388l229 388h90l-318 -544q-23 -39 -46.5 -73t-49 -60t-53.5 -40.5t-59 -14.5h-49l18 84h49z" />
    <glyph glyph-name="z" unicode="z" horiz-adv-x="459" 
d="M545 520l-15 -71l-389 -376h309l-15 -73h-411l16 76l384 371h-290l15 73h396z" />
    <glyph glyph-name="braceleft" unicode="{" horiz-adv-x="330" 
d="M103 263q15 5 29 17t25.5 27.5t20 33t12.5 35.5l43 198q29 130 124 130h74l-12 -56q-45 0 -67 -26t-32 -73l-41 -192q-9 -42 -23.5 -68t-40.5 -40q12 -10 18.5 -23.5t6.5 -33.5q0 -11 -2 -24t-5 -28l-44 -210q-2 -8 -3 -15t-1 -13q0 -30 18 -39t47 -9l-14 -66h-74
q-75 0 -75 77q0 22 6 51l43 205q3 15 3 31q0 29 -11 52t-31 31z" />
    <glyph glyph-name="bar" unicode="|" horiz-adv-x="200" 
d="M296 712l-181 -851h-93l181 851h93z" />
    <glyph glyph-name="braceright" unicode="}" horiz-adv-x="341" 
d="M331 235q-29 -10 -54 -43.5t-33 -70.5l-43 -205q-14 -65 -45.5 -96.5t-79.5 -31.5h-74l14 66q33 0 58.5 14t36.5 62l44 210q9 45 24 70t40 39q-24 17 -24 56q0 22 6 52l41 192q5 25 5 41q0 28 -14 43t-48 15l12 56h74q76 0 76 -80q0 -23 -6 -50l-43 -198q-3 -15 -3 -29
q0 -29 11 -52.5t31 -31.5z" />
    <glyph glyph-name="asciitilde" unicode="~" horiz-adv-x="608" 
d="M98 234q47 51 95 75t96 24q25 0 45.5 -10.5t39.5 -22.5t39 -22.5t44 -10.5q8 0 20.5 7t25 18t24.5 23.5t20 24.5l62 -54q-34 -48 -77.5 -77t-94.5 -29q-23 0 -45 10t-43.5 22t-42 22t-38.5 10q-17 0 -43.5 -17.5t-54.5 -51.5z" />
    <glyph glyph-name="exclamdown" unicode="&#xa1;" horiz-adv-x="214" 
d="M158 0h-94l110 519h83zM309 712l-22 -104h-129l45 104h106z" />
    <glyph glyph-name="cent" unicode="&#xa2;" horiz-adv-x="548" 
d="M463 629l-20 -94q28 -5 52.5 -17.5t42.5 -32t28 -46t10 -59.5q0 -19 -3 -38h-87q0 38 -16.5 65.5t-45.5 38.5l-78 -368q32 9 60 33.5t49 66.5h84q-13 -39 -35 -71t-50 -56t-60.5 -39t-65.5 -21l-16 -74h-93l16 76q-66 15 -100 66t-34 125q0 65 20 123.5t54.5 105t79.5 78
t95 42.5l20 96h93zM203 260q-7 -31 -7 -63q0 -41 14.5 -70.5t43.5 -43.5l76 359q-24 -10 -44 -28t-36.5 -42t-28.5 -52.5t-18 -59.5z" />
    <glyph glyph-name="sterling" unicode="&#xa3;" horiz-adv-x="555" 
d="M297 255l-39 -182h266l-15 -73h-359l54 255h-102l61 89h60l36 170q9 43 31 79.5t54 62.5t72 41t86 15q60 0 100.5 -27t57.5 -75l-89 -48q-10 30 -31 47t-56 17q-44 0 -81.5 -26.5t-50.5 -86.5l-36 -169h138l-60 -89h-97z" />
    <glyph glyph-name="currency" unicode="&#xa4;" horiz-adv-x="610" 
d="M74 110l107 88q-5 14 -8.5 29.5t-3.5 32.5q0 32 13.5 66.5t38.5 64.5l-69 87l79 65l69 -88q49 25 99 25q26 0 48 -7t42 -20l109 91l52 -66l-111 -92q9 -26 9 -54q0 -34 -13 -67.5t-37 -62.5l74 -92l-79 -65l-72 91q-24 -12 -51 -19.5t-52 -7.5q-24 0 -46 6t-40 19
l-107 -89zM299 372q-24 -20 -37 -46t-13 -52q0 -37 24 -61.5t62 -24.5q24 0 48 10.5t43 28.5t31 41t12 48q0 37 -25 62t-63 25q-21 0 -42.5 -8t-39.5 -23z" />
    <glyph glyph-name="yen" unicode="&#xa5;" horiz-adv-x="631" 
d="M110 67l18 87h172l10 46h-172l19 88h153l-140 416h98l112 -375l271 375h98l-315 -416h151l-19 -88h-163l-10 -46h163l-18 -87h-163l-14 -67h-93l14 67h-172z" />
    <glyph glyph-name="brokenbar" unicode="&#xa6;" horiz-adv-x="244" 
d="M125 240h92l-95 -445h-92zM223 704h92l-87 -412h-92z" />
    <glyph glyph-name="section" unicode="&#xa7;" horiz-adv-x="534" 
d="M435 518q8 17 13.5 33t5.5 30q0 24 -16.5 39t-39.5 15q-14 0 -29 -6.5t-27 -18.5t-19.5 -29.5t-7.5 -39.5q0 -19 11.5 -35.5t41.5 -40.5q38 -31 67 -56t48.5 -48t29.5 -46.5t10 -50.5q0 -29 -10.5 -59t-30 -56t-47.5 -45.5t-62 -26.5q19 -24 29 -55.5t10 -63.5
q0 -39 -16.5 -72t-44 -58t-62.5 -39t-71 -14q-35 0 -61.5 9.5t-43.5 25t-25.5 36t-8.5 42.5q0 21 7.5 45t15.5 44h99q-8 -18 -15.5 -38.5t-7.5 -35.5q0 -21 15 -35t40 -14q21 0 36.5 11t25.5 26t15 31.5t5 27.5q0 31 -21 56t-60 56q-26 20 -49 39t-40 39t-27 43t-10 52
q0 31 12 61t34 55.5t51.5 44.5t65.5 28q-26 23 -40 52t-14 58t14.5 60.5t41 57.5t62.5 43t79 17q63 0 98.5 -34.5t35.5 -87.5q0 -18 -4.5 -34t-12.5 -38h-96zM208 271q-2 -6 -2 -11.5v-10.5q0 -25 11.5 -45.5t29 -35t38.5 -22.5t39 -8q16 0 33.5 8t32.5 22.5t24.5 35
t9.5 46.5q0 24 -9.5 44.5t-24 35.5t-31.5 24t-33 9q-42 0 -75.5 -25t-42.5 -67z" />
    <glyph glyph-name="dieresis" unicode="&#xa8;" horiz-adv-x="434" 
d="M378 618q5 26 27.5 44.5t48.5 18.5q23 0 37 -14.5t14 -35.5q0 -15 -6.5 -29t-17.5 -24.5t-25 -16.5t-29 -6q-23 0 -36.5 14.5t-13.5 35.5q0 8 1 13zM185 618q5 26 27.5 44.5t48.5 18.5q23 0 37 -14.5t14 -35.5q0 -15 -6.5 -29t-17.5 -24.5t-25 -16.5t-29 -6
q-23 0 -36.5 14.5t-13.5 35.5q0 8 1 13z" />
    <glyph glyph-name="copyright" unicode="&#xa9;" horiz-adv-x="843" 
d="M124 317q15 72 54 133t93 106t119 70t133 25q58 0 107 -19t84 -53t54.5 -82t19.5 -105q0 -85 -35.5 -159.5t-93 -129.5t-130.5 -87t-148 -32q-59 0 -107.5 19t-83.5 53t-54.5 81.5t-19.5 104.5q0 18 1.5 36.5t6.5 38.5zM190 317q-7 -29 -7 -61q0 -46 15.5 -84.5t43 -66
t66.5 -43t86 -15.5q60 0 118 26t104 71t74 105t28 128q0 46 -15 85t-42.5 67t-66 44t-84.5 16q-54 0 -106.5 -21t-96 -57.5t-74.5 -86.5t-43 -107zM558 373q0 38 -21.5 59t-56.5 21q-31 0 -57.5 -15.5t-46 -41.5t-30.5 -60.5t-11 -72.5q0 -42 21 -66t64 -24q34 0 64 16
t52 59h83q-12 -36 -35.5 -64.5t-53.5 -48t-63 -30t-63 -10.5q-36 0 -65.5 12t-50.5 33.5t-32.5 51.5t-11.5 66q0 57 22 107t57.5 87t80.5 58t92 21q28 0 55.5 -9t48.5 -26t34 -42t13 -57q0 -6 -0.5 -12t-1.5 -12h-87z" />
    <glyph glyph-name="guillemotleft" unicode="&#xab;" horiz-adv-x="521" 
d="M328 335l-125 -83l90 -82l-21 -99l-169 155l11 54l235 153zM550 433l-22 -100l-124 -81l90 -82l-21 -97l-170 152l12 56z" />
    <glyph glyph-name="logicalnot" unicode="&#xac;" horiz-adv-x="600" 
d="M633 397l-47 -219h-84l29 136h-423l18 83h507z" />
    <glyph glyph-name="softhyphen" unicode="&#xad;" horiz-adv-x="422" 
d="M136 323h279l-22 -105h-279z" />
    <glyph glyph-name="registered" unicode="&#xae;" horiz-adv-x="833" 
d="M124 317q15 72 54 133t93 106t119 70t133 25q58 0 107 -19t84 -53t54.5 -82t19.5 -105q0 -85 -35.5 -159.5t-93 -129.5t-130.5 -87t-148 -32q-59 0 -107.5 19t-83.5 53t-54.5 81.5t-19.5 104.5q0 18 1.5 36.5t6.5 38.5zM198 317q-3 -15 -5 -30t-2 -29q0 -44 15 -81.5
t42 -64.5t65 -42t83 -15q49 0 96 17.5t87 49.5h-84l-78 143h-46l-31 -143h-85l86 403h174q28 0 50.5 -8.5t38.5 -23.5t25 -35t9 -42t-8.5 -45t-24.5 -42.5t-39 -34.5t-52 -22l76 -141q26 22 48 49t38 58.5t25 66t9 70.5q0 45 -14.5 82.5t-41.5 64.5t-64 42.5t-82 15.5
q-53 0 -103.5 -20.5t-92.5 -55.5t-72 -83.5t-42 -103.5zM385 334h74q43 0 68 21t25 45q0 20 -16.5 35t-51.5 15h-74z" />
    <glyph glyph-name="macron" unicode="&#xaf;" horiz-adv-x="448" 
 />
    <glyph glyph-name="degree" unicode="&#xb0;" horiz-adv-x="347" 
d="M324 723q-27 0 -45 -18.5t-18 -52.5q0 -38 40 -38q24 0 44 19t20 52q0 38 -41 38zM339 795q45 0 70 -25t25 -67q0 -36 -11.5 -65.5t-31.5 -50.5t-47 -32.5t-58 -11.5q-48 0 -71.5 23.5t-23.5 65.5q0 35 12 65t32 51.5t47 34t57 12.5z" />
    <glyph glyph-name="plusminus" unicode="&#xb1;" horiz-adv-x="590" 
d="M331 489q6 26 28.5 44.5t48.5 18.5q23 0 37 -14t14 -35q0 -15 -6.5 -29t-17.5 -24.5t-25 -17t-29 -6.5q-23 0 -37 14t-14 36q0 8 1 13zM118 298l18 85h470l-18 -85h-470zM269 193q5 26 27.5 44.5t48.5 18.5q23 0 37 -14.5t14 -35.5q0 -15 -7 -29t-18 -24.5t-25 -16.5
t-28 -6q-23 0 -37 14t-14 35q0 4 2 14z" />
    <glyph glyph-name="twosuperior" unicode="&#xb2;" horiz-adv-x="520" 
d="M138.378 332l8.6123 40.8574l186.241 184.934h-0.539062q16.6865 16.1279 24.4912 32.2559q7.80566 16.1279 7.80566 34.9434q0 20.4297 -11.8418 32.2559q-11.8428 11.8281 -34.9883 11.8281q-23.6836 0 -44.1377 -14.2471q-20.4541 -14.2461 -27.4521 -46.502
l-7.53516 -35.4814h-49.5205l7.53516 35.4814q4.84473 23.1162 16.6865 42.7393q11.8418 19.6221 29.0664 33.5996t38.7559 22.041q21.5303 8.06445 46.291 8.06445q41.9844 0 65.1299 -21.2354q23.1465 -21.2354 23.1465 -58.3291q0 -16.1279 -3.23047 -29.8369
q-3.22949 -13.708 -9.68848 -26.3418t-15.8789 -24.4609t-21.7998 -24.1924l-153.945 -152.678h152.869l-9.68945 -45.6953h-216.384z" />
    <glyph glyph-name="threesuperior" unicode="&#xb3;" horiz-adv-x="530" 
d="M365.16 437.415q-5.89551 -26.792 -19.293 -47.4209q-13.3965 -20.6299 -31.8848 -34.5605q-18.4883 -13.9316 -40.7275 -21.166q-22.2393 -7.2334 -46.3545 -7.2334q-20.3633 0 -37.7803 5.09082q-17.416 5.08984 -30.0098 15.8066q-12.5928 10.7168 -19.5596 26.791
q-6.9668 16.0752 -6.9668 38.0439q0 5.89453 0.536133 11.7881q0.536133 5.89453 1.60742 12.3242h49.8379q-0.536133 -3.75098 -0.803711 -6.96582q-0.268555 -3.21484 -0.268555 -6.42969q0 -27.3271 15.541 -39.1152t37.5127 -11.7881q16.0762 0 30.5449 5.89355
q14.4688 5.89453 25.7227 17.1465q11.2539 11.2529 17.9521 27.3271q6.69922 16.0752 6.69922 35.9004q0 21.9688 -12.8613 34.293t-41.2637 12.3242h-22.5068l9.64551 45.5449h22.5068q32.6895 0 53.0537 19.0225q20.3633 19.0215 20.3633 54.9219
q0 22.5049 -13.1289 33.7578q-13.1299 11.252 -33.4932 11.252q-26.7949 0 -46.0859 -16.6104q-19.293 -16.6113 -27.8672 -45.0098h-49.8369q6.96582 25.1836 20.3633 45.2773t31.082 33.7568q17.6846 13.6641 38.584 20.8975q20.8994 7.23438 43.4072 7.23438
q41.2627 0 64.5742 -21.7012q23.3105 -21.7012 23.3105 -58.6738q0 -36.9717 -16.6123 -63.7627q-16.6123 -26.792 -45.0146 -41.2588q32.6895 -17.6826 32.6895 -61.6201q0 -14.4678 -3.21484 -31.0781z" />
    <glyph glyph-name="acute" unicode="&#xb4;" horiz-adv-x="325" 
d="M275 555h-91l127 157h111z" />
    <glyph glyph-name="mu" unicode="&#xb5;" horiz-adv-x="580" 
d="M145 -179h-108l148 694h108l-60 -280q-9 -41 -9 -72q0 -91 77 -91q101 0 135 163l60 280h109l-82 -385q-3 -14 -3 -25t4.5 -17.5t18.5 -5.5l21 1l-17 -82l-47 -4q-2 0 -4 -0.5t-3 -0.5q-80 0 -92 43q-54 -58 -120 -58q-28 0 -51.5 11.5t-40.5 34.5z" />
    <glyph glyph-name="paragraph" unicode="&#xb6;" horiz-adv-x="544" 
d="M271 363q-54 6 -81 42t-27 86q0 45 16.5 84t44 68t63 45.5t73.5 16.5h270l-19 -90h-51l-165 -779h-85l165 779h-66l-165 -779h-85z" />
    <glyph glyph-name="periodcentered" unicode="&#xb7;" horiz-adv-x="287" 
d="M137 399h177l-37 -177h-177z" />
    <glyph glyph-name="onesuperior" unicode="&#xb9;" horiz-adv-x="325" 
d="M197.876 327l80.4902 318.479q-23.8252 -14.5996 -50.2256 -30.8203q-26.4014 -16.2217 -47.6504 -30.2803l14.8105 60.0195l103.027 63.8037h55.377l-95.9443 -381.201h-59.8848z" />
    <glyph glyph-name="ordmasculine" unicode="&#xba;" horiz-adv-x="579" 
d="M308.536 702.706q23 0 41.792 -7.8457q18.793 -7.8457 32.2568 -22.1367q13.4629 -14.291 20.7559 -35.0264q7.29199 -20.7363 7.29199 -46.5156q0 -43.7129 -14.585 -79.5801t-38.1465 -61.3662q-23.5605 -25.5 -53.5723 -39.5107q-30.0127 -14.0098 -60.8662 -14.0098
q-47.1221 0 -73.207 28.0205q-26.085 28.0215 -26.085 77.8994q0 43.7129 14.0244 80.7012t37.0234 63.3281q23 26.3398 52.4512 41.1914q29.4512 14.8506 60.8662 14.8506zM353.414 548.029q4.4873 21.2959 4.4873 36.9883q0 32.5039 -15.4268 50.998t-44.0361 18.4941
q-21.8779 0 -40.3896 -12.0488q-18.5127 -12.0488 -32.2568 -32.2246q-13.7432 -20.1758 -21.3164 -46.5156t-7.57324 -54.3613q0 -30.8232 14.0244 -47.6357t43.1943 -16.8125q37.0244 0 63.3906 28.0215q26.3652 28.0205 35.9023 75.0967z" />
    <glyph glyph-name="guillemotright" unicode="&#xbb;" horiz-adv-x="521" 
d="M316 281l-12 -56l-234 -152l21 97l124 82l-90 81l22 100zM348 433l169 -153l-11 -54l-235 -155l21 99l123 82l-88 83z" />
    <glyph glyph-name="onequarter" unicode="&#xbc;" horiz-adv-x="642" 
d="M203.814 335l66.46 311.863q-19.6719 -14.2959 -41.4707 -30.1797q-21.7988 -15.8848 -39.3438 -29.6514l12.2285 58.7725l85.0684 62.4785h45.7236l-79.2197 -373.283h-49.4463zM237.042 121.832h-58.1455l294.521 539.493h58.1455zM592.692 271.094l-17.582 -83.0938
h-49.5479l17.5811 83.0938h-150.775l9.58984 46.874l184.873 245.021h57.0078l-184.874 -246.619h93.7686l21.8438 104.4h49.5488l-21.8438 -104.4h48.4824l-9.58984 -45.2754h-48.4824z" />
    <glyph glyph-name="onehalf" unicode="&#xbd;" horiz-adv-x="1329" 
d="M425.47 150l8.65332 41.1777l187.128 186.382h-0.540039q16.7656 16.2549 24.6074 32.5088t7.8418 35.2178q0 20.5889 -11.8984 32.5088q-11.8975 11.9189 -35.1533 11.9189q-23.7969 0 -44.3486 -14.3574q-20.5518 -14.3584 -27.582 -46.8662l-7.57227 -35.7598
h-49.7568l7.57227 35.7598q4.86719 23.2979 16.7656 43.0732q11.8984 19.7764 29.2051 33.8633t38.9395 22.2139q21.6338 8.12695 46.5117 8.12695q42.1855 0 65.4414 -21.4014q23.2549 -21.4014 23.2549 -58.7861q0 -16.2539 -3.24414 -30.0703
q-3.24512 -13.8164 -9.73535 -26.5488t-15.9541 -24.6523q-9.46484 -11.9199 -21.9043 -24.3809l-154.678 -153.874h153.596l-9.73438 -46.0537h-217.415zM203.814 335l66.46 311.863q-19.6719 -14.2959 -41.4707 -30.1797q-21.7988 -15.8848 -39.3438 -29.6514
l12.2285 58.7725l85.0684 62.4785h45.7236l-79.2197 -373.283h-49.4463zM236.042 116.832h-58.1455l294.521 539.493h58.1455z" />
    <glyph glyph-name="threequarters" unicode="&#xbe;" horiz-adv-x="738" 
d="M380.751 438.885q-5.84277 -26.6543 -19.1211 -47.1777t-31.6016 -34.3838q-18.3242 -13.8604 -40.3662 -21.0566t-45.9424 -7.19629q-20.1826 0 -37.4443 5.06348q-17.2617 5.06445 -29.7432 15.7266q-12.4814 10.6611 -19.3867 26.6533
q-6.9043 15.9932 -6.9043 37.8496q0 5.86328 0.53125 11.7275t1.59277 12.2607h49.3955q-0.53125 -3.73145 -0.796875 -6.92969q-0.265625 -3.19922 -0.265625 -6.39746q0 -27.1865 15.4033 -38.915q15.4023 -11.7275 37.1787 -11.7275q15.9336 0 30.2744 5.86426
q14.3398 5.86328 25.4941 17.0586q11.1533 11.1943 17.792 27.1865q6.63965 15.9932 6.63965 35.7168q0 21.8564 -12.7471 34.1172t-40.8975 12.2607h-22.3066l9.56055 45.3115h22.3066q32.3994 0 52.582 18.9248q20.1826 18.9238 20.1826 54.6406
q0 22.3896 -13.0127 33.584q-13.0127 11.1953 -33.1953 11.1953q-26.5566 0 -45.6768 -16.5254q-19.1211 -16.5264 -27.6191 -44.7793h-49.3945q6.9043 25.0547 20.1826 45.0449q13.2783 19.9912 30.8057 33.585q17.5273 13.5928 38.2412 20.79
q20.7139 7.19629 43.0215 7.19629q40.8965 0 64.001 -21.5898q23.1035 -21.5898 23.1035 -58.3721q0 -36.7832 -16.4648 -63.4365q-16.4648 -26.6543 -44.6143 -41.0479q32.3984 -17.5918 32.3984 -61.3037q0 -14.3936 -3.18652 -30.9189zM325.042 121.832h-58.1455
l294.521 539.493h58.1455zM682.692 239.094l-17.582 -83.0938h-49.5479l17.5811 83.0938h-150.775l9.58984 46.874l184.873 245.021h57.0078l-184.874 -246.619h93.7686l21.8438 104.4h49.5488l-21.8438 -104.4h48.4824l-9.58984 -45.2754h-48.4824z" />
    <glyph glyph-name="questiondown" unicode="&#xbf;" horiz-adv-x="503" 
d="M92.0322 -30.9678q4 17.999 12.5 34.998q8.49902 16.999 26.998 41.9971t50.4971 61.4961t82.9941 93.4941q11 11 17.999 25.499q7 14.499 9 23.498l18.999 87.9951h92.9941l-18.999 -88.9951q-6 -29.998 -19.499 -52.4961q-13.499 -22.499 -33.498 -45.498
q-38.9971 -42.9971 -64.9961 -71.4951q-25.998 -28.498 -42.4971 -47.4971t-25.498 -30.498q-9 -11.5 -12.5 -20.499q-3.49902 -8.99902 -3.99902 -16.499q-0.5 -7.49902 -0.5 -18.499q0 -34.998 20.998 -56.9961q20.999 -21.999 58.9971 -21.999q22.998 0 43.9971 9
q20.999 8.99902 37.498 24.998t27.998 36.498q11.499 20.498 16.499 43.4971h92.9941q-8.99902 -41.9971 -31.498 -78.4951t-54.4971 -63.4961t-70.4951 -42.4971q-38.498 -15.5 -80.4951 -15.5q-70.9961 0 -113.493 39.998t-42.4971 105.993q0 21.999 3.99902 41.998z
M443.011 493l-21.998 -104.993h-106.994l21.999 104.993h106.993z" />
    <glyph glyph-name="Agrave" unicode="&#xc0;" horiz-adv-x="701" 
d="M467 578l-151 -271h190zM267 218l-123 -218h-92l396 705h92l99 -705h-94l-28 218h-250zM439 927h107l65 -173h-106z" />
    <glyph glyph-name="Aacute" unicode="&#xc1;" horiz-adv-x="701" 
d="M467 578l-151 -271h190zM267 218l-123 -218h-92l396 705h92l99 -705h-94l-28 218h-250zM493 754h-91l127 157h111z" />
    <glyph glyph-name="Acircumflex" unicode="&#xc2;" horiz-adv-x="701" 
d="M467 578l-151 -271h190zM267 218l-123 -218h-92l396 705h92l99 -705h-94l-28 218h-250zM575.864 925.181l83.7588 -160.519h-86.75l-35.8975 84.4346q-18.9453 -20.4131 -39.3867 -43.1455q-20.4404 -22.7324 -37.3916 -41.2891h-86.751l159.541 160.519h42.877z" />
    <glyph glyph-name="Atilde" unicode="&#xc3;" horiz-adv-x="645" 
d="M439 578l-151 -271h190zM239 218l-123 -218h-92l396 705h92l99 -705h-94l-28 218h-250zM291.822 784.113q36.6475 32.7305 72.9131 54.043q36.2656 21.3135 72.9131 21.3135q17.5605 0 34.3564 -7.6123q16.7969 -7.61133 32.8301 -17.5068h-0.762695
q16.0332 -9.13379 31.3027 -17.126t30.5391 -7.99219q6.1084 0 15.6514 5.32812q9.54395 5.32812 19.0879 13.7012q9.54297 8.37305 18.7051 17.8877t15.2695 18.6484l47.3369 -41.1035q-12.9795 -15.9844 -27.8672 -30.4463q-14.8887 -14.4629 -31.3037 -25.5
q-16.415 -11.0361 -34.7383 -17.8867q-18.3242 -6.85059 -37.4111 -6.85059q-17.5605 0 -34.3574 7.61133q-16.7959 7.6123 -33.2109 16.7461t-32.0664 16.7451q-15.6523 7.6123 -29.3945 7.6123q-12.9795 0 -33.2119 -13.3203q-20.2324 -13.3213 -41.6104 -39.2002z" />
    <glyph glyph-name="Adieresis" unicode="&#xc4;" horiz-adv-x="701" 
d="M467 578l-151 -271h190zM267 218l-123 -218h-92l396 705h92l99 -705h-94l-28 218h-250zM549 797q5 26 27.5 44.5t48.5 18.5q23 0 37 -14.5t14 -35.5q0 -15 -6.5 -29t-17.5 -24.5t-25 -16.5t-29 -6q-23 0 -36.5 14.5t-13.5 35.5q0 8 1 13zM356 797q5 26 27.5 44.5
t48.5 18.5q23 0 37 -14.5t14 -35.5q0 -15 -6.5 -29t-17.5 -24.5t-25 -16.5t-29 -6q-23 0 -36.5 14.5t-13.5 35.5q0 8 1 13z" />
    <glyph glyph-name="Aring" unicode="&#xc5;" horiz-adv-x="645" 
d="M439 578l-151 -271h190zM239 218l-123 -218h-92l396 705h92l99 -705h-94l-28 218h-250zM445 842q-1 -4 -1 -11q0 -17 11 -28t29 -11q10 0 21 5t19.5 13t14 18.5t5.5 22.5q0 17 -11 28t-28 11q-21 0 -38.5 -14t-21.5 -34zM395 842q4 21 16 39t28 31.5t36 21t41 7.5
q36 0 58 -22t22 -56q0 -24 -10.5 -46t-27.5 -38.5t-39 -26.5t-45 -10q-37 0 -59 22.5t-22 56.5v10.5t2 10.5z" />
    <glyph glyph-name="AE" unicode="&#xc6;" horiz-adv-x="1049" 
d="M1122 705l-16 -79h-340l-46 -216h290l-18 -85h-289l-54 -251h339l-15 -74h-445l46 218h-238l-190 -218h-98l620 705h454zM649 575l-235 -268h178z" />
    <glyph glyph-name="Egrave" unicode="&#xc8;" horiz-adv-x="555" 
d="M640 704l-16 -78h-343l-44 -204h293l-18 -85h-293l-55 -259h343l-16 -78h-436l149 704h436zM366 927h107l65 -173h-106z" />
    <glyph glyph-name="Eacute" unicode="&#xc9;" horiz-adv-x="555" 
d="M640 704l-16 -78h-343l-44 -204h293l-18 -85h-293l-55 -259h343l-16 -78h-436l149 704h436zM442 736h-91l127 157h111z" />
    <glyph glyph-name="Ecircumflex" unicode="&#xca;" horiz-adv-x="527" 
d="M640 704l-16 -78h-343l-44 -204h293l-18 -85h-293l-55 -259h343l-16 -78h-436l149 704h436zM479 925l84 -173h-87l-36 91q-19 -22 -39.5 -46.5t-37.5 -44.5h-87l160 173h43z" />
    <glyph glyph-name="Edieresis" unicode="&#xcb;" horiz-adv-x="527" 
d="M640 704l-16 -78h-343l-44 -204h293l-18 -85h-293l-55 -259h343l-16 -78h-436l149 704h436zM462 797q5 26 27.5 44.5t48.5 18.5q23 0 37 -14.5t14 -35.5q0 -15 -6.5 -29t-17.5 -24.5t-25 -16.5t-29 -6q-23 0 -36.5 14.5t-13.5 35.5q0 8 1 13zM269 797q5 26 27.5 44.5
t48.5 18.5q23 0 37 -14.5t14 -35.5q0 -15 -6.5 -29t-17.5 -24.5t-25 -16.5t-29 -6q-23 0 -36.5 14.5t-13.5 35.5q0 8 1 13z" />
    <glyph glyph-name="Igrave" unicode="&#xcc;" horiz-adv-x="192" 
d="M294 704l-149 -704h-93l149 704h93zM186 927h107l65 -173h-106z" />
    <glyph glyph-name="Iacute" unicode="&#xcd;" horiz-adv-x="192" 
d="M294 704l-149 -704h-93l149 704h93zM240 754h-91l127 157h111z" />
    <glyph glyph-name="Icircumflex" unicode="&#xce;" horiz-adv-x="200" 
d="M294 704l-149 -704h-93l149 704h93zM317 925l84 -173h-87l-36 91q-19 -22 -39.5 -46.5t-37.5 -44.5h-87l160 173h43z" />
    <glyph glyph-name="Idieresis" unicode="&#xcf;" horiz-adv-x="200" 
d="M294 704l-149 -704h-93l149 704h93zM300 797q5 26 27.5 44.5t48.5 18.5q23 0 37 -14.5t14 -35.5q0 -15 -6.5 -29t-17.5 -24.5t-25 -16.5t-29 -6q-23 0 -36.5 14.5t-13.5 35.5q0 8 1 13zM107 797q5 26 27.5 44.5t48.5 18.5q23 0 37 -14.5t14 -35.5q0 -15 -6.5 -29
t-17.5 -24.5t-25 -16.5t-29 -6q-23 0 -36.5 14.5t-13.5 35.5q0 8 1 13z" />
    <glyph glyph-name="Ntilde" unicode="&#xd1;" horiz-adv-x="633" 
d="M307 704l210 -580l-5 56l111 524h93l-149 -704h-108l-204 577v-71l-107 -506h-93l149 704h103zM275.245 746.629q37.3447 32.0898 74.3008 52.9854t74.3008 20.8955q17.8936 0 35.0107 -7.46191q17.1162 -7.46289 33.4541 -17.165h-0.77832
q16.3389 -8.95508 31.8994 -16.791q15.5596 -7.83594 31.1201 -7.83594q6.22461 0 15.9492 5.22363q9.72559 5.22461 19.4502 13.4336q9.72559 8.20898 19.0615 17.5371q9.33691 9.3291 15.5605 18.2842l48.2373 -40.2988q-13.2266 -15.6719 -28.3975 -29.8516
q-15.1719 -14.1787 -31.8994 -25q-16.7266 -10.8213 -35.3994 -17.5381q-18.6719 -6.71582 -38.123 -6.71582q-17.8936 0 -35.0098 7.46289q-17.1172 7.46289 -33.8438 16.418q-16.7275 8.95508 -32.6768 16.418t-29.9541 7.46289q-13.2256 0 -33.8438 -13.0605
q-20.6172 -13.0596 -42.4014 -38.4326z" />
    <glyph glyph-name="Ograve" unicode="&#xd2;" horiz-adv-x="729" 
d="M379 78q58 0 109 29t89.5 78.5t61 114.5t22.5 138q0 84 -42 136t-123 52q-57 0 -108 -28t-89.5 -76.5t-61.5 -114t-23 -140.5q0 -85 41.5 -137t123.5 -52zM130 352q18 82 54.5 148.5t87 113.5t112.5 72.5t130 25.5q58 0 103 -18t76 -51t47 -80t16 -105
q0 -104 -33.5 -190.5t-88.5 -149t-126.5 -97t-147.5 -34.5q-58 0 -103 18t-76 51.5t-47 81.5t-16 107q0 50 12 107zM453 927h107l65 -173h-106z" />
    <glyph glyph-name="Oacute" unicode="&#xd3;" horiz-adv-x="729" 
d="M379 78q58 0 109 29t89.5 78.5t61 114.5t22.5 138q0 84 -42 136t-123 52q-57 0 -108 -28t-89.5 -76.5t-61.5 -114t-23 -140.5q0 -85 41.5 -137t123.5 -52zM130 352q18 82 54.5 148.5t87 113.5t112.5 72.5t130 25.5q58 0 103 -18t76 -51t47 -80t16 -105
q0 -104 -33.5 -190.5t-88.5 -149t-126.5 -97t-147.5 -34.5q-58 0 -103 18t-76 51.5t-47 81.5t-16 107q0 50 12 107zM507 754h-91l127 157h111z" />
    <glyph glyph-name="Ocircumflex" unicode="&#xd4;" horiz-adv-x="738" 
d="M379 78q58 0 109 29t89.5 78.5t61 114.5t22.5 138q0 84 -42 136t-123 52q-57 0 -108 -28t-89.5 -76.5t-61.5 -114t-23 -140.5q0 -85 41.5 -137t123.5 -52zM130 352q18 82 54.5 148.5t87 113.5t112.5 72.5t130 25.5q58 0 103 -18t76 -51t47 -80t16 -105
q0 -104 -33.5 -190.5t-88.5 -149t-126.5 -97t-147.5 -34.5q-58 0 -103 18t-76 51.5t-47 81.5t-16 107q0 50 12 107zM584 925l84 -173h-87l-36 91q-19 -22 -39.5 -46.5t-37.5 -44.5h-87l160 173h43z" />
    <glyph glyph-name="Otilde" unicode="&#xd5;" horiz-adv-x="738" 
d="M379 78q58 0 109 29t89.5 78.5t61 114.5t22.5 138q0 84 -42 136t-123 52q-57 0 -108 -28t-89.5 -76.5t-61.5 -114t-23 -140.5q0 -85 41.5 -137t123.5 -52zM130 352q18 82 54.5 148.5t87 113.5t112.5 72.5t130 25.5q58 0 103 -18t76 -51t47 -80t16 -105
q0 -104 -33.5 -190.5t-88.5 -149t-126.5 -97t-147.5 -34.5q-58 0 -103 18t-76 51.5t-47 81.5t-16 107q0 50 12 107zM291 774q48 43 95.5 71t95.5 28q23 0 45 -10t43 -23h-1q21 -12 41 -22.5t40 -10.5q8 0 20.5 7t25 18t24.5 23.5t20 24.5l62 -54q-17 -21 -36.5 -40
t-41 -33.5t-45.5 -23.5t-49 -9q-23 0 -45 10t-43.5 22t-42 22t-38.5 10q-17 0 -43.5 -17.5t-54.5 -51.5z" />
    <glyph glyph-name="Odieresis" unicode="&#xd6;" horiz-adv-x="738" 
d="M379 78q58 0 109 29t89.5 78.5t61 114.5t22.5 138q0 84 -42 136t-123 52q-57 0 -108 -28t-89.5 -76.5t-61.5 -114t-23 -140.5q0 -85 41.5 -137t123.5 -52zM130 352q18 82 54.5 148.5t87 113.5t112.5 72.5t130 25.5q58 0 103 -18t76 -51t47 -80t16 -105
q0 -104 -33.5 -190.5t-88.5 -149t-126.5 -97t-147.5 -34.5q-58 0 -103 18t-76 51.5t-47 81.5t-16 107q0 50 12 107zM568 797q5 26 27.5 44.5t48.5 18.5q23 0 37 -14.5t14 -35.5q0 -15 -6.5 -29t-17.5 -24.5t-25 -16.5t-29 -6q-23 0 -36.5 14.5t-13.5 35.5q0 8 1 13zM375 797
q5 26 27.5 44.5t48.5 18.5q23 0 37 -14.5t14 -35.5q0 -15 -6.5 -29t-17.5 -24.5t-25 -16.5t-29 -6q-23 0 -36.5 14.5t-13.5 35.5q0 8 1 13z" />
    <glyph glyph-name="multiply" unicode="&#xd7;" horiz-adv-x="523" 
d="M246 294q-26 35 -55 70.5t-55 70.5l79 64l110 -140l170 140l51 -64l-170 -141l110 -140l-79 -65l-110 140l-170 -140l-51 65z" />
    <glyph glyph-name="Oslash" unicode="&#xd8;" horiz-adv-x="738" 
d="M379 78q58 0 109 29t89.5 78.5t61 114.5t22.5 138q0 84 -42 136t-123 52q-57 0 -108 -28t-89.5 -76.5t-61.5 -114t-23 -140.5q0 -85 41.5 -137t123.5 -52zM130 352q18 82 54.5 148.5t87 113.5t112.5 72.5t130 25.5q58 0 103 -18t76 -51t47 -80t16 -105
q0 -104 -33.5 -190.5t-88.5 -149t-126.5 -97t-147.5 -34.5q-58 0 -103 18t-76 51.5t-47 81.5t-16 107q0 50 12 107zM193 -151h-92l466 856h92z" />
    <glyph glyph-name="Ugrave" unicode="&#xd9;" horiz-adv-x="625" 
d="M297 704l-96 -450q-6 -27 -6 -52q0 -60 32.5 -94.5t94.5 -34.5q36 0 69.5 13t60.5 36.5t46.5 57t28.5 74.5l96 450h93l-95 -447q-13 -62 -43.5 -112t-72.5 -85t-93.5 -54t-107.5 -19q-96 0 -149.5 52t-53.5 144q0 17 1.5 35.5t6.5 38.5l95 447h93zM401 927h107l65 -173
h-106z" />
    <glyph glyph-name="Uacute" unicode="&#xda;" horiz-adv-x="625" 
d="M297 704l-96 -450q-6 -27 -6 -52q0 -60 32.5 -94.5t94.5 -34.5q36 0 69.5 13t60.5 36.5t46.5 57t28.5 74.5l96 450h93l-95 -447q-13 -62 -43.5 -112t-72.5 -85t-93.5 -54t-107.5 -19q-96 0 -149.5 52t-53.5 144q0 17 1.5 35.5t6.5 38.5l95 447h93zM455 754h-91l127 157
h111z" />
    <glyph glyph-name="Ucircumflex" unicode="&#xdb;" horiz-adv-x="633" 
d="M297 704l-96 -450q-6 -27 -6 -52q0 -60 32.5 -94.5t94.5 -34.5q36 0 69.5 13t60.5 36.5t46.5 57t28.5 74.5l96 450h93l-95 -447q-13 -62 -43.5 -112t-72.5 -85t-93.5 -54t-107.5 -19q-96 0 -149.5 52t-53.5 144q0 17 1.5 35.5t6.5 38.5l95 447h93zM532 925l84 -173h-87
l-36 91q-19 -22 -39.5 -46.5t-37.5 -44.5h-87l160 173h43z" />
    <glyph glyph-name="Udieresis" unicode="&#xdc;" horiz-adv-x="633" 
d="M297 704l-96 -450q-6 -27 -6 -52q0 -60 32.5 -94.5t94.5 -34.5q36 0 69.5 13t60.5 36.5t46.5 57t28.5 74.5l96 450h93l-95 -447q-13 -62 -43.5 -112t-72.5 -85t-93.5 -54t-107.5 -19q-96 0 -149.5 52t-53.5 144q0 17 1.5 35.5t6.5 38.5l95 447h93zM515 797
q5 26 27.5 44.5t48.5 18.5q23 0 37 -14.5t14 -35.5q0 -15 -6.5 -29t-17.5 -24.5t-25 -16.5t-29 -6q-23 0 -36.5 14.5t-13.5 35.5q0 8 1 13zM322 797q5 26 27.5 44.5t48.5 18.5q23 0 37 -14.5t14 -35.5q0 -15 -6.5 -29t-17.5 -24.5t-25 -16.5t-29 -6q-23 0 -36.5 14.5
t-13.5 35.5q0 8 1 13z" />
    <glyph glyph-name="Yacute" unicode="&#xdd;" horiz-adv-x="687" 
d="M351 261l-153 443h99l115 -356l266 356h100l-334 -445l-55 -259h-93zM486 754h-91l127 157h111z" />
    <glyph glyph-name="agrave" unicode="&#xe0;" horiz-adv-x="628" 
d="M361 728h107l65 -173h-106z" />
    <glyph glyph-name="aacute" unicode="&#xe1;" horiz-adv-x="628" 
d="M415 555h-91l127 157h111z" />
    <glyph glyph-name="acircumflex" unicode="&#xe2;" horiz-adv-x="628" 
d="M491 746l84 -173h-87l-36 91q-19 -22 -39.5 -46.5t-37.5 -44.5h-87l160 173h43z" />
    <glyph glyph-name="atilde" unicode="&#xe3;" horiz-adv-x="628" 
d="M235.229 619.098q36.8467 34.0137 73.3096 56.1621t73.3096 22.1484q17.6562 0 34.5439 -7.91016t33.0088 -18.1934h-0.767578q16.1201 -9.49219 31.4727 -17.7979t30.7061 -8.30566q6.14062 0 15.7363 5.53711t19.1904 14.2383q9.5957 8.70117 18.8076 18.5889
t15.3525 19.3799l47.5938 -42.7148q-13.0498 -16.6113 -28.0186 -31.6406t-31.4736 -26.499q-16.5039 -11.4697 -34.9277 -18.5889q-18.4229 -7.11914 -37.6143 -7.11914q-17.6553 0 -34.5439 7.91016q-16.8877 7.91016 -33.3916 17.4023q-16.5049 9.49219 -32.2412 17.4023
t-29.5537 7.91016q-13.0498 0 -33.3926 -13.8428t-41.8359 -40.7373z" />
    <glyph glyph-name="adieresis" unicode="&#xe4;" horiz-adv-x="628" 
d="M475 618q5 26 27.5 44.5t48.5 18.5q23 0 37 -14.5t14 -35.5q0 -15 -6.5 -29t-17.5 -24.5t-25 -16.5t-29 -6q-23 0 -36.5 14.5t-13.5 35.5q0 8 1 13zM282 618q5 26 27.5 44.5t48.5 18.5q23 0 37 -14.5t14 -35.5q0 -15 -6.5 -29t-17.5 -24.5t-25 -16.5t-29 -6
q-23 0 -36.5 14.5t-13.5 35.5q0 8 1 13z" />
    <glyph glyph-name="aring" unicode="&#xe5;" horiz-adv-x="628" 
d="M403 660q-1 -4 -1 -11q0 -17 11 -28t29 -11q10 0 21 5t19.5 13t14 18.5t5.5 22.5q0 17 -11 28t-28 11q-21 0 -38.5 -14t-21.5 -34zM353 660q4 21 16 39t28 31.5t36 21t41 7.5q36 0 58 -22t22 -56q0 -24 -10.5 -46t-27.5 -38.5t-39 -26.5t-45 -10q-37 0 -59 22.5t-22 56.5
v10.5t2 10.5z" />
    <glyph glyph-name="egrave" unicode="&#xe8;" horiz-adv-x="571" 
d="M198 222q-1 -7 -1 -13v-12q0 -60 27.5 -92t73.5 -32q38 0 80 21.5t73 69.5l72 -40q-23 -30 -50.5 -55.5t-57.5 -43.5t-62 -28t-63 -10q-42 0 -76 14t-59 40.5t-38.5 63.5t-13.5 83q0 17 1.5 35t6.5 37q13 63 39.5 114t63 86t83.5 54t102 19q40 0 72.5 -13.5t55 -39
t34.5 -61.5t12 -81q0 -18 -1.5 -37.5t-6.5 -40.5l-8 -38h-359zM378 447q-25 0 -50 -9.5t-47.5 -28t-39.5 -44.5t-26 -59h267q3 16 3 31q0 25 -8.5 45.5t-23.5 35t-34.5 22t-40.5 7.5zM332 728h107l65 -173h-106z" />
    <glyph glyph-name="eacute" unicode="&#xe9;" horiz-adv-x="571" 
d="M198 222q-1 -7 -1 -13v-12q0 -60 27.5 -92t73.5 -32q38 0 80 21.5t73 69.5l72 -40q-23 -30 -50.5 -55.5t-57.5 -43.5t-62 -28t-63 -10q-42 0 -76 14t-59 40.5t-38.5 63.5t-13.5 83q0 17 1.5 35t6.5 37q13 63 39.5 114t63 86t83.5 54t102 19q40 0 72.5 -13.5t55 -39
t34.5 -61.5t12 -81q0 -18 -1.5 -37.5t-6.5 -40.5l-8 -38h-359zM378 447q-25 0 -50 -9.5t-47.5 -28t-39.5 -44.5t-26 -59h267q3 16 3 31q0 25 -8.5 45.5t-23.5 35t-34.5 22t-40.5 7.5zM386 555h-91l127 157h111z" />
    <glyph glyph-name="ecircumflex" unicode="&#xea;" horiz-adv-x="571" 
d="M198 222q-1 -7 -1 -13v-12q0 -60 27.5 -92t73.5 -32q38 0 80 21.5t73 69.5l72 -40q-23 -30 -50.5 -55.5t-57.5 -43.5t-62 -28t-63 -10q-42 0 -76 14t-59 40.5t-38.5 63.5t-13.5 83q0 17 1.5 35t6.5 37q13 63 39.5 114t63 86t83.5 54t102 19q40 0 72.5 -13.5t55 -39
t34.5 -61.5t12 -81q0 -18 -1.5 -37.5t-6.5 -40.5l-8 -38h-359zM378 447q-25 0 -50 -9.5t-47.5 -28t-39.5 -44.5t-26 -59h267q3 16 3 31q0 25 -8.5 45.5t-23.5 35t-34.5 22t-40.5 7.5zM463 746l84 -173h-87l-36 91q-19 -22 -39.5 -46.5t-37.5 -44.5h-87l160 173h43z" />
    <glyph glyph-name="edieresis" unicode="&#xeb;" horiz-adv-x="571" 
d="M198 222q-1 -7 -1 -13v-12q0 -60 27.5 -92t73.5 -32q38 0 80 21.5t73 69.5l72 -40q-23 -30 -50.5 -55.5t-57.5 -43.5t-62 -28t-63 -10q-42 0 -76 14t-59 40.5t-38.5 63.5t-13.5 83q0 17 1.5 35t6.5 37q13 63 39.5 114t63 86t83.5 54t102 19q40 0 72.5 -13.5t55 -39
t34.5 -61.5t12 -81q0 -18 -1.5 -37.5t-6.5 -40.5l-8 -38h-359zM378 447q-25 0 -50 -9.5t-47.5 -28t-39.5 -44.5t-26 -59h267q3 16 3 31q0 25 -8.5 45.5t-23.5 35t-34.5 22t-40.5 7.5zM446 618q5 26 27.5 44.5t48.5 18.5q23 0 37 -14.5t14 -35.5q0 -15 -6.5 -29t-17.5 -24.5
t-25 -16.5t-29 -6q-23 0 -36.5 14.5t-13.5 35.5q0 8 1 13zM253 618q5 26 27.5 44.5t48.5 18.5q23 0 37 -14.5t14 -35.5q0 -15 -6.5 -29t-17.5 -24.5t-25 -16.5t-29 -6q-23 0 -36.5 14.5t-13.5 35.5q0 8 1 13z" />
    <glyph glyph-name="igrave" unicode="&#xec;" horiz-adv-x="192" 
d="M254 520l-110 -520h-92l110 520h92zM150 739h107l65 -173h-106z" />
    <glyph glyph-name="iacute" unicode="&#xed;" horiz-adv-x="192" 
d="M254 520l-110 -520h-92l110 520h92zM209 566h-91l127 157h111z" />
    <glyph glyph-name="icircumflex" unicode="&#xee;" horiz-adv-x="192" 
d="M253 520l-110 -520h-91l110 520h91zM284 757l84 -173h-87l-36 91q-19 -22 -39.5 -46.5t-37.5 -44.5h-87l160 173h43z" />
    <glyph glyph-name="idieresis" unicode="&#xef;" horiz-adv-x="192" 
d="M253 520l-110 -520h-91l110 520h91zM267 629q5 26 27.5 44.5t48.5 18.5q23 0 37 -14.5t14 -35.5q0 -15 -6.5 -29t-17.5 -24.5t-25 -16.5t-29 -6q-23 0 -36.5 14.5t-13.5 35.5q0 8 1 13zM74 629q5 26 27.5 44.5t48.5 18.5q23 0 37 -14.5t14 -35.5q0 -15 -6.5 -29
t-17.5 -24.5t-25 -16.5t-29 -6q-23 0 -36.5 14.5t-13.5 35.5q0 8 1 13z" />
    <glyph glyph-name="ntilde" unicode="&#xf1;" horiz-adv-x="553" 
d="M250 520l-13 -63q32 35 75.5 55.5t87.5 20.5q75 0 120.5 -44t45.5 -116q0 -11 -1 -23.5t-4 -25.5l-68 -324h-92l64 305q4 19 4 39q0 49 -27.5 76t-75.5 27q-59 0 -103.5 -39t-58.5 -103l-64 -305h-92l110 520h92zM217.449 636.355q37.4443 33.6934 74.498 55.6328
q37.0547 21.9404 74.499 21.9404q17.9424 0 35.1035 -7.83594q17.1621 -7.83594 33.5439 -18.0225h-0.779297q16.3818 -9.40234 31.9834 -17.6299t31.2031 -8.22754q6.24121 0 15.9922 5.48535q9.75098 5.48438 19.502 14.1045q9.75098 8.61914 19.1123 18.4131
q9.36133 9.79492 15.6016 19.1982l48.3662 -42.3135q-13.2617 -16.4551 -28.4736 -31.3428t-31.9834 -26.249q-16.7725 -11.3623 -35.4941 -18.4141q-18.7227 -7.05176 -38.2246 -7.05176q-17.9424 0 -35.1045 7.83496q-17.1611 7.83594 -33.9336 17.2393
q-16.7715 9.40234 -32.7637 17.2383t-30.0332 7.83594q-13.2617 0 -33.9346 -13.7129q-20.6719 -13.7129 -42.5146 -40.3535z" />
    <glyph glyph-name="ograve" unicode="&#xf2;" horiz-adv-x="570" 
d="M393 533q41 0 74.5 -14t57.5 -39.5t37 -62.5t13 -83q0 -78 -26 -142t-68 -109.5t-95.5 -70.5t-108.5 -25q-84 0 -130.5 50t-46.5 139q0 78 25 144t66 113t93.5 73.5t108.5 26.5zM473 257q8 38 8 66q0 58 -27.5 91t-78.5 33q-39 0 -72 -21.5t-57.5 -57.5t-38 -83
t-13.5 -97q0 -55 25 -85t77 -30q66 0 113 50t64 134zM332 728h107l65 -173h-106z" />
    <glyph glyph-name="oacute" unicode="&#xf3;" horiz-adv-x="570" 
d="M393 533q41 0 74.5 -14t57.5 -39.5t37 -62.5t13 -83q0 -78 -26 -142t-68 -109.5t-95.5 -70.5t-108.5 -25q-84 0 -130.5 50t-46.5 139q0 78 25 144t66 113t93.5 73.5t108.5 26.5zM473 257q8 38 8 66q0 58 -27.5 91t-78.5 33q-39 0 -72 -21.5t-57.5 -57.5t-38 -83
t-13.5 -97q0 -55 25 -85t77 -30q66 0 113 50t64 134zM405 555h-91l127 157h111z" />
    <glyph glyph-name="ocircumflex" unicode="&#xf4;" horiz-adv-x="570" 
d="M393 533q41 0 74.5 -14t57.5 -39.5t37 -62.5t13 -83q0 -78 -26 -142t-68 -109.5t-95.5 -70.5t-108.5 -25q-84 0 -130.5 50t-46.5 139q0 78 25 144t66 113t93.5 73.5t108.5 26.5zM473 257q8 38 8 66q0 58 -27.5 91t-78.5 33q-39 0 -72 -21.5t-57.5 -57.5t-38 -83
t-13.5 -97q0 -55 25 -85t77 -30q66 0 113 50t64 134zM462 746l84 -173h-87l-36 91q-19 -22 -39.5 -46.5t-37.5 -44.5h-87l160 173h43z" />
    <glyph glyph-name="otilde" unicode="&#xf5;" horiz-adv-x="579" 
d="M393 533q41 0 74.5 -14t57.5 -39.5t37 -62.5t13 -83q0 -78 -26 -142t-68 -109.5t-95.5 -70.5t-108.5 -25q-84 0 -130.5 50t-46.5 139q0 78 25 144t66 113t93.5 73.5t108.5 26.5zM473 257q8 38 8 66q0 58 -27.5 91t-78.5 33q-39 0 -72 -21.5t-57.5 -57.5t-38 -83
t-13.5 -97q0 -55 25 -85t77 -30q66 0 113 50t64 134zM211.652 625.581q37.5439 35.9395 74.6963 59.3428q37.1533 23.4023 74.6973 23.4023q17.9893 0 35.1973 -8.35742q17.208 -8.3584 33.6328 -19.2246h-0.782227q16.4258 -10.0293 32.0693 -18.8057
q15.6436 -8.77539 31.2861 -8.77539q6.25781 0 16.0352 5.85059q9.77637 5.85059 19.5537 15.0449q9.77734 9.19336 19.1631 19.6416q9.38574 10.4473 15.6436 20.4775l48.4941 -45.1348q-13.2969 -17.5518 -28.5488 -33.4326q-15.2529 -15.8799 -32.0693 -28
q-16.8164 -12.1191 -35.5879 -19.6416q-18.7725 -7.52148 -38.3262 -7.52148q-17.9902 0 -35.1973 8.35742q-17.208 8.3584 -34.0244 18.3887q-16.8164 10.0293 -32.8516 18.3877q-16.0342 8.3584 -30.1133 8.3584q-13.2969 0 -34.0244 -14.627
q-20.7266 -14.627 -42.6279 -43.0449z" />
    <glyph glyph-name="odieresis" unicode="&#xf6;" horiz-adv-x="579" 
d="M393 533q41 0 74.5 -14t57.5 -39.5t37 -62.5t13 -83q0 -78 -26 -142t-68 -109.5t-95.5 -70.5t-108.5 -25q-84 0 -130.5 50t-46.5 139q0 78 25 144t66 113t93.5 73.5t108.5 26.5zM473 257q8 38 8 66q0 58 -27.5 91t-78.5 33q-39 0 -72 -21.5t-57.5 -57.5t-38 -83
t-13.5 -97q0 -55 25 -85t77 -30q66 0 113 50t64 134zM450 618q5 26 27.5 44.5t48.5 18.5q23 0 37 -14.5t14 -35.5q0 -15 -6.5 -29t-17.5 -24.5t-25 -16.5t-29 -6q-23 0 -36.5 14.5t-13.5 35.5q0 8 1 13zM257 618q5 26 27.5 44.5t48.5 18.5q23 0 37 -14.5t14 -35.5
q0 -15 -6.5 -29t-17.5 -24.5t-25 -16.5t-29 -6q-23 0 -36.5 14.5t-13.5 35.5q0 8 1 13z" />
    <glyph glyph-name="divide" unicode="&#xf7;" horiz-adv-x="418" 
d="M139 402h304l-18 -85h-304zM244 453l24 114h114l-24 -114h-114zM182 162l24 114h114l-24 -114h-114z" />
    <glyph glyph-name="oslash" unicode="&#xf8;" horiz-adv-x="579" 
d="M205 -90h-91l58 104q-72 47 -72 158q0 79 25 145.5t66 114t93.5 74t108.5 26.5q31 0 55 -7l49 90h92l-70 -130q26 -26 40 -63.5t14 -85.5q0 -79 -25.5 -143.5t-67 -110t-94.5 -70t-109 -24.5h-14t-14 1zM375 448q-39 0 -72 -21.5t-57 -57t-37.5 -81.5t-13.5 -96
q0 -58 24 -91q48 89 93 171.5t93 171.5q-12 4 -30 4zM472 257q8 38 8 67q0 38 -12 67l-174 -319h2q66 0 112.5 50.5t63.5 134.5z" />
    <glyph glyph-name="ugrave" unicode="&#xf9;" horiz-adv-x="553" 
d="M404 0l10 51q-32 -27 -76.5 -45.5t-87.5 -18.5q-74 0 -116.5 41.5t-42.5 111.5q0 25 6 54l69 326h92l-65 -305q-5 -25 -5 -43q0 -47 25 -73t73 -26q59 0 102.5 37t57.5 105l65 305h92l-110 -520h-89zM308 728h107l65 -173h-106z" />
    <glyph glyph-name="uacute" unicode="&#xfa;" horiz-adv-x="553" 
d="M404 0l10 51q-32 -27 -76.5 -45.5t-87.5 -18.5q-74 0 -116.5 41.5t-42.5 111.5q0 25 6 54l69 326h92l-65 -305q-5 -25 -5 -43q0 -47 25 -73t73 -26q59 0 102.5 37t57.5 105l65 305h92l-110 -520h-89zM377 555h-91l127 157h111z" />
    <glyph glyph-name="ucircumflex" unicode="&#xfb;" horiz-adv-x="553" 
d="M404 0l10 51q-32 -27 -76.5 -45.5t-87.5 -18.5q-74 0 -116.5 41.5t-42.5 111.5q0 25 6 54l69 326h92l-65 -305q-5 -25 -5 -43q0 -47 25 -73t73 -26q59 0 102.5 37t57.5 105l65 305h92l-110 -520h-89zM454 746l84 -173h-87l-36 91q-19 -22 -39.5 -46.5t-37.5 -44.5h-87
l160 173h43z" />
    <glyph glyph-name="udieresis" unicode="&#xfc;" horiz-adv-x="561" 
d="M404 0l10 51q-32 -27 -76.5 -45.5t-87.5 -18.5q-74 0 -116.5 41.5t-42.5 111.5q0 25 6 54l69 326h92l-65 -305q-5 -25 -5 -43q0 -47 25 -73t73 -26q59 0 102.5 37t57.5 105l65 305h92l-110 -520h-89zM441 618q5 26 27.5 44.5t48.5 18.5q23 0 37 -14.5t14 -35.5
q0 -15 -6.5 -29t-17.5 -24.5t-25 -16.5t-29 -6q-23 0 -36.5 14.5t-13.5 35.5q0 8 1 13zM248 618q5 26 27.5 44.5t48.5 18.5q23 0 37 -14.5t14 -35.5q0 -15 -6.5 -29t-17.5 -24.5t-25 -16.5t-29 -6q-23 0 -36.5 14.5t-13.5 35.5q0 8 1 13z" />
    <glyph glyph-name="yacute" unicode="&#xfd;" horiz-adv-x="592" 
d="M130 -128q17 0 34 14t32 34.5t25.5 42.5t13.5 38q1 7 2 15t1 16q0 10 -1 15l-75 473h97l60 -388l229 388h90l-318 -544q-23 -39 -46.5 -73t-49 -60t-53.5 -40.5t-59 -14.5h-49l18 84h49zM427 555h-91l127 157h111z" />
    <glyph glyph-name="ydieresis" unicode="&#xff;" horiz-adv-x="548" 
d="M114 -128q17 0 34 14t32 34.5t25.5 42.5t13.5 38q1 7 2 15t1 16q0 10 -1 15l-75 473h97l60 -388l229 388h90l-318 -544q-23 -39 -46.5 -73t-49 -60t-53.5 -40.5t-59 -14.5h-49l18 84h49zM435 618q5 26 27.5 44.5t48.5 18.5q23 0 37 -14.5t14 -35.5q0 -15 -6.5 -29
t-17.5 -24.5t-25 -16.5t-29 -6q-23 0 -36.5 14.5t-13.5 35.5q0 8 1 13zM242 618q5 26 27.5 44.5t48.5 18.5q23 0 37 -14.5t14 -35.5q0 -15 -6.5 -29t-17.5 -24.5t-25 -16.5t-29 -6q-23 0 -36.5 14.5t-13.5 35.5q0 8 1 13z" />
    <glyph glyph-name="Abreve" unicode="&#x102;" horiz-adv-x="701" 
d="M467 578l-151 -271h190zM267 218l-123 -218h-92l396 705h92l99 -705h-94l-28 218h-250zM515 798q33 0 62 23t49 61h71q-32 -69 -83 -108.5t-113 -39.5q-60 0 -94.5 39.5t-36.5 108.5h70q3 -38 22.5 -61t52.5 -23z" />
    <glyph glyph-name="abreve" unicode="&#x103;" horiz-adv-x="628" 
d="M437 599q33 0 62 23t49 61h71q-32 -69 -83 -108.5t-113 -39.5q-60 0 -94.5 39.5t-36.5 108.5h70q3 -38 22.5 -61t52.5 -23z" />
    <glyph glyph-name="Cacute" unicode="&#x106;" horiz-adv-x="715" 
d="M355 -13q-115 0 -176 69t-61 187q0 101 32 187t86 148.5t124.5 98t148.5 35.5q197 0 234 -214l-88 -37q-14 82 -53 123.5t-111 41.5q-57 0 -107.5 -28.5t-88.5 -78t-60 -115.5t-22 -141q0 -85 40 -137.5t120 -52.5q36 0 69.5 12t63 33.5t54.5 51.5t43 67l75 -37
q-65 -111 -144.5 -162t-178.5 -51zM527 737h-91l127 157h111z" />
    <glyph glyph-name="cacute" unicode="&#x107;" horiz-adv-x="564" 
d="M402 533q35 0 66 -10.5t54 -31.5t36.5 -51t13.5 -69l-90 -37q0 51 -26.5 82t-71.5 31q-39 0 -73.5 -21.5t-60 -56.5t-40.5 -80t-15 -92q0 -55 27.5 -87t82.5 -32q45 0 83 23.5t67 79.5l66 -42q-19 -37 -45.5 -65t-57.5 -47t-65 -29t-67 -10q-45 0 -79 14t-57.5 39.5
t-35.5 61.5t-12 79q0 73 25 137t66.5 111.5t95.5 75t113 27.5zM383 555h-91l127 157h111z" />
    <glyph glyph-name="Ccaron" unicode="&#x10c;" horiz-adv-x="715" 
d="M355 -13q-115 0 -176 69t-61 187q0 101 32 187t86 148.5t124.5 98t148.5 35.5q197 0 234 -214l-88 -37q-14 82 -53 123.5t-111 41.5q-57 0 -107.5 -28.5t-88.5 -78t-60 -115.5t-22 -141q0 -85 40 -137.5t120 -52.5q36 0 69.5 12t63 33.5t54.5 51.5t43 67l75 -37
q-65 -111 -144.5 -162t-178.5 -51zM497 795l-88 155h87l39 -81l75 81h88l-157 -155h-44z" />
    <glyph glyph-name="ccaron" unicode="&#x10d;" horiz-adv-x="564" 
d="M402 533q35 0 66 -10.5t54 -31.5t36.5 -51t13.5 -69l-90 -37q0 51 -26.5 82t-71.5 31q-39 0 -73.5 -21.5t-60 -56.5t-40.5 -80t-15 -92q0 -55 27.5 -87t82.5 -32q45 0 83 23.5t67 79.5l66 -42q-19 -37 -45.5 -65t-57.5 -47t-65 -29t-67 -10q-45 0 -79 14t-57.5 39.5
t-35.5 61.5t-12 79q0 73 25 137t66.5 111.5t95.5 75t113 27.5zM379 596l-88 155h87l39 -81l75 81h88l-157 -155h-44z" />
    <glyph glyph-name="Dcaron" unicode="&#x10e;" horiz-adv-x="659" 
d="M440 704q57 0 102.5 -19t77.5 -53.5t49 -83t17 -106.5q0 -93 -33.5 -173.5t-89 -140t-126.5 -94t-146 -34.5h-235l149 704h235zM583 352q8 40 8 73q0 43 -11.5 79.5t-33 63.5t-52.5 42.5t-70 15.5h-142l-117 -548h142q49 0 94 22.5t81.5 60t62.5 87.5t38 104zM414 793
l-88 155h87l39 -81l75 81h88l-157 -155h-44z" />
    <glyph glyph-name="Ecaron" unicode="&#x11a;" horiz-adv-x="555" 
d="M640 704l-16 -78h-343l-44 -204h293l-18 -85h-293l-55 -259h343l-16 -78h-436l149 704h436zM420 788l-88 155h87l39 -81l75 81h88l-157 -155h-44z" />
    <glyph glyph-name="ecaron" unicode="&#x11b;" horiz-adv-x="571" 
d="M198 222q-1 -7 -1 -13v-12q0 -60 27.5 -92t73.5 -32q38 0 80 21.5t73 69.5l72 -40q-23 -30 -50.5 -55.5t-57.5 -43.5t-62 -28t-63 -10q-42 0 -76 14t-59 40.5t-38.5 63.5t-13.5 83q0 17 1.5 35t6.5 37q13 63 39.5 114t63 86t83.5 54t102 19q40 0 72.5 -13.5t55 -39
t34.5 -61.5t12 -81q0 -18 -1.5 -37.5t-6.5 -40.5l-8 -38h-359zM378 447q-25 0 -50 -9.5t-47.5 -28t-39.5 -44.5t-26 -59h267q3 16 3 31q0 25 -8.5 45.5t-23.5 35t-34.5 22t-40.5 7.5zM383 596l-88 155h87l39 -81l75 81h88l-157 -155h-44z" />
    <glyph glyph-name="Gbreve" unicode="&#x11e;" horiz-adv-x="715" 
d="M465 375h259l-79 -375h-67v71q-48 -40 -104.5 -62t-118.5 -22q-115 0 -176 69t-61 187q0 101 32 187t86 148.5t124.5 98t148.5 35.5q193 0 233 -205l-87 -42q-15 80 -53.5 120.5t-109.5 40.5q-56 0 -107 -28.5t-89 -77.5t-60.5 -114.5t-22.5 -140.5q0 -84 40.5 -135.5
t120.5 -51.5q53 0 93.5 15.5t70 43.5t50 66.5t32.5 85.5h-206zM518 778q33 0 62 23t49 61h71q-32 -69 -83 -108.5t-113 -39.5q-60 0 -94.5 39.5t-36.5 108.5h70q3 -38 22.5 -61t52.5 -23z" />
    <glyph glyph-name="gbreve" unicode="&#x11f;" horiz-adv-x="553" 
d="M604 520l-121 -569q-8 -38 -31 -70.5t-56 -56t-75.5 -36.5t-89.5 -13q-78 0 -125.5 41t-53.5 106l92 37q1 -48 28.5 -77t75.5 -29q59 0 97.5 33t49.5 87l13 64q-30 -23 -68.5 -36.5t-76.5 -13.5q-78 0 -124 52t-46 144q0 75 24 138.5t63.5 110.5t90.5 73.5t104 26.5
q39 0 73 -17t52 -49l11 54h93zM364 447q-34 0 -66 -20.5t-57 -55t-40 -79.5t-15 -94q0 -55 25 -90t73 -35q33 0 65 19t57 52t40 77t15 94q0 57 -25 94.5t-72 37.5zM425 633q33 0 62 23t49 61h71q-32 -69 -83 -108.5t-113 -39.5q-60 0 -94.5 39.5t-36.5 108.5h70
q3 -38 22.5 -61t52.5 -23z" />
    <glyph glyph-name="Idotaccent" unicode="&#x130;" horiz-adv-x="200" 
d="M294 704l-149 -704h-93l149 704h93zM209 755q5 22 22.5 37t39.5 15q18 0 29.5 -11.5t11.5 -29.5q0 -13 -5.5 -24t-14.5 -19.5t-20 -13.5t-23 -5q-19 0 -30 11t-11 29q0 7 1 11z" />
    <glyph glyph-name="dotlessi" unicode="&#x131;" horiz-adv-x="192" 
d="M254 520l-110 -520h-92l110 520h92z" />
    <glyph glyph-name="Lcaron" unicode="&#x13d;" horiz-adv-x="539" 
d="M296 705l-133 -627h266l-16 -78h-359l149 705h93zM390 847q6 26 28.5 44.5t48.5 18.5q23 0 36.5 -14.5t13.5 -37.5q0 -8 -1 -13l-69 -162h-66l46 102q-17 5 -27.5 18.5t-10.5 31.5q0 8 1 12z" />
    <glyph glyph-name="lcaron" unicode="&#x13e;" horiz-adv-x="409" 
d="M293 704l-149 -704h-92l149 704h92zM381 648q6 26 28.5 44.5t48.5 18.5q23 0 36.5 -14.5t13.5 -37.5q0 -8 -1 -13l-69 -162h-66l46 102q-17 5 -27.5 18.5t-10.5 31.5q0 8 1 12z" />
    <glyph glyph-name="Nacute" unicode="&#x143;" horiz-adv-x="625" 
d="M307 704l210 -580l-5 56l111 524h93l-149 -704h-108l-204 577v-71l-107 -506h-93l149 704h103zM474 730h-91l127 157h111z" />
    <glyph glyph-name="nacute" unicode="&#x144;" horiz-adv-x="553" 
d="M250 520l-13 -63q32 35 75.5 55.5t87.5 20.5q75 0 120.5 -44t45.5 -116q0 -11 -1 -23.5t-4 -25.5l-68 -324h-92l64 305q4 19 4 39q0 49 -27.5 76t-75.5 27q-59 0 -103.5 -39t-58.5 -103l-64 -305h-92l110 520h92zM377 555h-91l127 157h111z" />
    <glyph glyph-name="Ncaron" unicode="&#x147;" horiz-adv-x="625" 
d="M307 704l210 -580l-5 56l111 524h93l-149 -704h-108l-204 577v-71l-107 -506h-93l149 704h103zM453 783l-88 155h87l39 -81l75 81h88l-157 -155h-44z" />
    <glyph glyph-name="ncaron" unicode="&#x148;" horiz-adv-x="553" 
d="M250 520l-13 -63q32 35 75.5 55.5t87.5 20.5q75 0 120.5 -44t45.5 -116q0 -11 -1 -23.5t-4 -25.5l-68 -324h-92l64 305q4 19 4 39q0 49 -27.5 76t-75.5 27q-59 0 -103.5 -39t-58.5 -103l-64 -305h-92l110 520h92zM374 596l-88 155h87l39 -81l75 81h88l-157 -155h-44z" />
    <glyph glyph-name="Ohungarumlaut" unicode="&#x150;" horiz-adv-x="738" 
d="M379 78q58 0 109 29t89.5 78.5t61 114.5t22.5 138q0 84 -42 136t-123 52q-57 0 -108 -28t-89.5 -76.5t-61.5 -114t-23 -140.5q0 -85 41.5 -137t123.5 -52zM130 352q18 82 54.5 148.5t87 113.5t112.5 72.5t130 25.5q58 0 103 -18t76 -51t47 -80t16 -105
q0 -104 -33.5 -190.5t-88.5 -149t-126.5 -97t-147.5 -34.5q-58 0 -103 18t-76 51.5t-47 81.5t-16 107q0 50 12 107zM468 734h-92l117 146h94zM664 734h-93l119 146h93z" />
    <glyph glyph-name="ohungarumlaut" unicode="&#x151;" horiz-adv-x="579" 
d="M393 533q41 0 74.5 -14t57.5 -39.5t37 -62.5t13 -83q0 -78 -26 -142t-68 -109.5t-95.5 -70.5t-108.5 -25q-84 0 -130.5 50t-46.5 139q0 78 25 144t66 113t93.5 73.5t108.5 26.5zM473 257q8 38 8 66q0 58 -27.5 91t-78.5 33q-39 0 -72 -21.5t-57.5 -57.5t-38 -83
t-13.5 -97q0 -55 25 -85t77 -30q66 0 113 50t64 134zM348 555h-92l117 146h94zM544 555h-93l119 146h93z" />
    <glyph glyph-name="OE" unicode="&#x152;" horiz-adv-x="941" 
d="M516 712q48 0 90 -13h410l-18 -85h-344l-44 -209h294l-19 -86h-294l-51 -240h344l-18 -85h-437q-17 -3 -33 -5t-34 -2q-58 0 -103 18t-76 51.5t-47 81.5t-16 107q0 103 33.5 189t88.5 148t126.5 96t147.5 34zM380 73q17 0 34.5 2.5t33.5 7.5l113 532q-14 5 -30 8.5
t-33 3.5q-57 0 -108.5 -28.5t-90 -77t-61.5 -114.5t-23 -141q0 -43 10.5 -78.5t31 -61t51.5 -39.5t72 -14z" />
    <glyph glyph-name="oe" unicode="&#x153;" horiz-adv-x="958" 
d="M397 532q55 0 96.5 -26t63.5 -71q38 45 90 71t114 26q41 0 73.5 -15t55 -41.5t34.5 -63.5t12 -80q0 -32 -8 -72l-8 -38h-358q-1 -5 -1 -9v-9q0 -64 27 -98t72 -34q43 0 88 26.5t74 83.5h96q-22 -42 -52 -78t-65 -61.5t-73 -40t-76 -14.5q-57 0 -99.5 25t-65.5 73
q-40 -47 -93.5 -72.5t-112.5 -25.5q-84 0 -130 49.5t-46 137.5q0 79 25 144.5t65.5 112.5t93 73.5t108.5 26.5zM379 448q-39 0 -72.5 -22t-57.5 -58t-37.5 -83t-13.5 -97q0 -56 25 -86t77 -30q42 0 76 22.5t57.5 57.5t36.5 78t13 84q0 27 -6 51.5t-19 43t-32.5 29
t-46.5 10.5zM740 448q-49 0 -92.5 -37t-68.5 -104q69 0 131.5 -0.5t131.5 -0.5v12q0 62 -27.5 96t-74.5 34z" />
    <glyph glyph-name="Racute" unicode="&#x154;" horiz-adv-x="620" 
d="M562 0h-97l-115 329h-133l-69 -329h-93l149 704h253q40 0 73.5 -10.5t57.5 -30t37 -47.5t13 -62q0 -33 -13.5 -68t-39 -65.5t-61 -53.5t-78.5 -33zM234 407h160q36 0 64 12t46.5 31t28.5 42.5t10 45.5q0 37 -25.5 62.5t-76.5 25.5h-160zM453 754h-91l127 157h111z" />
    <glyph glyph-name="racute" unicode="&#x155;" horiz-adv-x="364" 
d="M256 520l-15 -71q15 16 37 31t49.5 26.5t58 18.5t61.5 7l-18 -85q-87 0 -145 -35t-76 -119l-62 -293h-92l110 520h92zM283 555h-91l127 157h111z" />
    <glyph glyph-name="Rcaron" unicode="&#x158;" horiz-adv-x="620" 
d="M562 0h-97l-115 329h-133l-69 -329h-93l149 704h253q40 0 73.5 -10.5t57.5 -30t37 -47.5t13 -62q0 -33 -13.5 -68t-39 -65.5t-61 -53.5t-78.5 -33zM234 407h160q36 0 64 12t46.5 31t28.5 42.5t10 45.5q0 37 -25.5 62.5t-76.5 25.5h-160zM449 795l-88 155h87l39 -81l75 81
h88l-157 -155h-44z" />
    <glyph glyph-name="rcaron" unicode="&#x159;" horiz-adv-x="364" 
d="M256 520l-15 -71q15 16 37 31t49.5 26.5t58 18.5t61.5 7l-18 -85q-87 0 -145 -35t-76 -119l-62 -293h-92l110 520h92zM280 596l-88 155h87l39 -81l75 81h88l-157 -155h-44z" />
    <glyph glyph-name="Sacute" unicode="&#x15a;" horiz-adv-x="626" 
d="M454 712q39 0 75 -10.5t63.5 -32t44 -54t16.5 -75.5v-16t-2 -17l-90 -44l7 33q1 5 1.5 11t0.5 11q0 23 -10 43t-28 34.5t-43 22.5t-55 8t-58.5 -7t-51.5 -22t-37 -38t-14 -54q0 -34 24.5 -54.5t61 -34.5t79 -26t79 -30t61 -46.5t24.5 -75.5q0 -62 -25.5 -108.5
t-67.5 -78.5t-95 -48t-108 -16q-41 0 -79 10t-67 31t-46.5 53t-17.5 76q0 7 0.5 14t1.5 15l100 52q-6 -30 -6 -54q0 -111 132 -111q42 0 76 12t57 31.5t35.5 44.5t12.5 52q0 33 -24.5 52t-60.5 31.5t-79 24t-79 30.5t-60.5 49t-24.5 81q0 57 24.5 100t64.5 72.5t89 44
t99 14.5zM456 754h-91l127 157h111z" />
    <glyph glyph-name="sacute" unicode="&#x15b;" horiz-adv-x="537" 
d="M377 533q85 0 130.5 -39t45.5 -111v-11l-97 -33q0 4 0.5 8t0.5 8q0 25 -8 43t-21.5 30t-31.5 18t-37 6t-38.5 -5t-35.5 -15.5t-26.5 -26t-10.5 -36.5q0 -31 32 -44t84 -24q81 -17 113 -47.5t32 -76.5q0 -45 -18.5 -80.5t-51 -59.5t-77 -37t-96.5 -13q-37 0 -70.5 8.5
t-59 26t-40.5 45t-15 65.5q0 6 0.5 12t1.5 12l94 28q-1 -5 -1.5 -10.5t-0.5 -10.5q0 -42 28 -66t74 -24q61 0 99.5 18.5t38.5 61.5q0 15 -8.5 25.5t-22 17t-29.5 11t-31 7.5q-33 6 -63.5 15.5t-54 25.5t-37.5 39t-14 56q0 7 2.5 23.5t10.5 37t22.5 42t39.5 39.5t61 29.5
t86 11.5zM369 555h-91l127 157h111z" />
    <glyph glyph-name="Scaron" unicode="&#x160;" horiz-adv-x="626" 
d="M454 712q39 0 75 -10.5t63.5 -32t44 -54t16.5 -75.5v-16t-2 -17l-90 -44l7 33q1 5 1.5 11t0.5 11q0 23 -10 43t-28 34.5t-43 22.5t-55 8t-58.5 -7t-51.5 -22t-37 -38t-14 -54q0 -34 24.5 -54.5t61 -34.5t79 -26t79 -30t61 -46.5t24.5 -75.5q0 -62 -25.5 -108.5
t-67.5 -78.5t-95 -48t-108 -16q-41 0 -79 10t-67 31t-46.5 53t-17.5 76q0 7 0.5 14t1.5 15l100 52q-6 -30 -6 -54q0 -111 132 -111q42 0 76 12t57 31.5t35.5 44.5t12.5 52q0 33 -24.5 52t-60.5 31.5t-79 24t-79 30.5t-60.5 49t-24.5 81q0 57 24.5 100t64.5 72.5t89 44
t99 14.5zM452 795l-88 155h87l39 -81l75 81h88l-157 -155h-44z" />
    <glyph glyph-name="scaron" unicode="&#x161;" horiz-adv-x="537" 
d="M377 533q85 0 130.5 -39t45.5 -111v-11l-97 -33q0 4 0.5 8t0.5 8q0 25 -8 43t-21.5 30t-31.5 18t-37 6t-38.5 -5t-35.5 -15.5t-26.5 -26t-10.5 -36.5q0 -31 32 -44t84 -24q81 -17 113 -47.5t32 -76.5q0 -45 -18.5 -80.5t-51 -59.5t-77 -37t-96.5 -13q-37 0 -70.5 8.5
t-59 26t-40.5 45t-15 65.5q0 6 0.5 12t1.5 12l94 28q-1 -5 -1.5 -10.5t-0.5 -10.5q0 -42 28 -66t74 -24q61 0 99.5 18.5t38.5 61.5q0 15 -8.5 25.5t-22 17t-29.5 11t-31 7.5q-33 6 -63.5 15.5t-54 25.5t-37.5 39t-14 56q0 7 2.5 23.5t10.5 37t22.5 42t39.5 39.5t61 29.5
t86 11.5zM366 596l-88 155h87l39 -81l75 81h88l-157 -155h-44z" />
    <glyph glyph-name="Tcaron" unicode="&#x164;" horiz-adv-x="607" 
d="M691 704l-16 -78h-192l-133 -626h-93l133 626h-202l16 78h487zM443 795l-88 155h87l39 -81l75 81h88l-157 -155h-44z" />
    <glyph glyph-name="tcaron" unicode="&#x165;" horiz-adv-x="580" 
d="M230 520l39 184h92l-39 -184h90l-15 -73h-90l-59 -274q-10 -44 -10 -68q0 -19 7.5 -25.5t24.5 -6.5h47l-15 -73h-55q-51 0 -77 25.5t-26 72.5q0 10 1.5 20.5t3.5 22.5l66 306h-66l15 73h66zM552 648q6 26 28.5 44.5t48.5 18.5q23 0 36.5 -14.5t13.5 -37.5q0 -8 -1 -13
l-69 -162h-66l46 102q-17 5 -27.5 18.5t-10.5 31.5q0 8 1 12z" />
    <glyph glyph-name="Uring" unicode="&#x16e;" horiz-adv-x="633" 
d="M297 704l-96 -450q-6 -27 -6 -52q0 -60 32.5 -94.5t94.5 -34.5q36 0 69.5 13t60.5 36.5t46.5 57t28.5 74.5l96 450h93l-95 -447q-13 -62 -43.5 -112t-72.5 -85t-93.5 -54t-107.5 -19q-96 0 -149.5 52t-53.5 144q0 17 1.5 35.5t6.5 38.5l95 447h93z" />
    <glyph glyph-name="uring" unicode="&#x16f;" horiz-adv-x="561" 
d="M404 0l10 51q-32 -27 -76.5 -45.5t-87.5 -18.5q-74 0 -116.5 41.5t-42.5 111.5q0 25 6 54l69 326h92l-65 -305q-5 -25 -5 -43q0 -47 25 -73t73 -26q59 0 102.5 37t57.5 105l65 305h92l-110 -520h-89zM382 652q-1 -4 -1 -11q0 -17 11 -28t29 -11q10 0 21 5t19.5 13
t14 18.5t5.5 22.5q0 17 -11 28t-28 11q-21 0 -38.5 -14t-21.5 -34zM332 652q4 21 16 39t28 31.5t36 21t41 7.5q36 0 58 -22t22 -56q0 -24 -10.5 -46t-27.5 -38.5t-39 -26.5t-45 -10q-37 0 -59 22.5t-22 56.5v10.5t2 10.5z" />
    <glyph glyph-name="Uhungarumlaut" unicode="&#x170;" horiz-adv-x="625" 
d="M297 704l-96 -450q-6 -27 -6 -52q0 -60 32.5 -94.5t94.5 -34.5q36 0 69.5 13t60.5 36.5t46.5 57t28.5 74.5l96 450h93l-95 -447q-13 -62 -43.5 -112t-72.5 -85t-93.5 -54t-107.5 -19q-96 0 -149.5 52t-53.5 144q0 17 1.5 35.5t6.5 38.5l95 447h93zM407 735h-92l117 146
h94zM603 735h-93l119 146h93z" />
    <glyph glyph-name="uhungarumlaut" unicode="&#x171;" horiz-adv-x="561" 
d="M404 0l10 51q-32 -27 -76.5 -45.5t-87.5 -18.5q-74 0 -116.5 41.5t-42.5 111.5q0 25 6 54l69 326h92l-65 -305q-5 -25 -5 -43q0 -47 25 -73t73 -26q59 0 102.5 37t57.5 105l65 305h92l-110 -520h-89zM347 555h-92l117 146h94zM543 555h-93l119 146h93z" />
    <glyph glyph-name="Ydieresis" unicode="&#x178;" horiz-adv-x="631" 
d="M323 261l-153 443h99l115 -356l266 356h100l-334 -445l-55 -259h-93zM514 797q5 26 27.5 44.5t48.5 18.5q23 0 37 -14.5t14 -35.5q0 -15 -6.5 -29t-17.5 -24.5t-25 -16.5t-29 -6q-23 0 -36.5 14.5t-13.5 35.5q0 8 1 13zM321 797q5 26 27.5 44.5t48.5 18.5q23 0 37 -14.5
t14 -35.5q0 -15 -6.5 -29t-17.5 -24.5t-25 -16.5t-29 -6q-23 0 -36.5 14.5t-13.5 35.5q0 8 1 13z" />
    <glyph glyph-name="Zacute" unicode="&#x179;" horiz-adv-x="641" 
d="M709 705l-16 -79l-506 -548h404l-16 -78h-519l16 78l505 548h-371l16 79h487zM463 754h-91l127 157h111z" />
    <glyph glyph-name="zacute" unicode="&#x17a;" horiz-adv-x="534" 
d="M577 520l-15 -71l-389 -376h309l-15 -73h-411l16 76l384 371h-290l15 73h396zM368 555h-91l127 157h111z" />
    <glyph glyph-name="zdotaccent" unicode="&#x17c;" horiz-adv-x="502" 
d="M337 647q5 26 27 44t48 18q23 0 37 -14t14 -36q0 -15 -6.5 -28.5t-17.5 -23.5t-24.5 -16t-28.5 -6q-23 0 -36.5 14t-13.5 35q0 8 1 13zM568 531l-15 -71l-389 -376h309l-15 -73h-411l16 76l384 371h-290l15 73h396z" />
    <glyph glyph-name="Zcaron" unicode="&#x17d;" horiz-adv-x="641" 
d="M709 705l-16 -79l-506 -548h404l-16 -78h-519l16 78l505 548h-371l16 79h487zM460 795l-88 155h87l39 -81l75 81h88l-157 -155h-44z" />
    <glyph glyph-name="zcaron" unicode="&#x17e;" horiz-adv-x="534" 
d="M577 520l-15 -71l-389 -376h309l-15 -73h-411l16 76l384 371h-290l15 73h396zM364 596l-88 155h87l39 -81l75 81h88l-157 -155h-44z" />
    <glyph glyph-name="circumflex" unicode="&#x2c6;" horiz-adv-x="437" 
d="M396 746l84 -173h-87l-36 91q-19 -22 -39.5 -46.5t-37.5 -44.5h-87l160 173h43z" />
    <glyph glyph-name="caron" unicode="&#x2c7;" horiz-adv-x="437" 
d="M316 596l-88 155h87l39 -81l75 81h88l-157 -155h-44z" />
    <glyph glyph-name="breve" unicode="&#x2d8;" horiz-adv-x="434" 
d="M340 599q33 0 62 23t49 61h71q-32 -69 -83 -108.5t-113 -39.5q-60 0 -94.5 39.5t-36.5 108.5h70q3 -38 22.5 -61t52.5 -23z" />
    <glyph glyph-name="ring" unicode="&#x2da;" horiz-adv-x="334" 
d="M254 726q-1 -4 -1 -11q0 -17 11 -28t29 -11q10 0 21 5t19.5 13t14 18.5t5.5 22.5q0 17 -11 28t-28 11q-21 0 -38.5 -14t-21.5 -34zM204 726q4 21 16 39t28 31.5t36 21t41 7.5q36 0 58 -22t22 -56q0 -24 -10.5 -46t-27.5 -38.5t-39 -26.5t-45 -10q-37 0 -59 22.5t-22 56.5
v10.5t2 10.5z" />
    <glyph glyph-name="tilde" unicode="&#x2dc;" horiz-adv-x="612" 
d="M98 234q48 43 95.5 71t95.5 28q23 0 45 -10t43 -23h-1q21 -12 41 -22.5t40 -10.5q8 0 20.5 7t25 18t24.5 23.5t20 24.5l62 -54q-17 -21 -36.5 -40t-41 -33.5t-45.5 -23.5t-49 -9q-23 0 -45 10t-43.5 22t-42 22t-38.5 10q-17 0 -43.5 -17.5t-54.5 -51.5z" />
    <glyph glyph-name="hungarumlaut" unicode="&#x2dd;" horiz-adv-x="474" 
d="M255 555h-92l117 146h94zM451 555h-93l119 146h93z" />
    <glyph glyph-name="uni0405" unicode="&#x405;" horiz-adv-x="621" 
d="M454 712q39 0 75 -10.5t63.5 -32t44 -54t16.5 -75.5v-16t-2 -17l-90 -44l7 33q1 5 1.5 11t0.5 11q0 23 -10 43t-28 34.5t-43 22.5t-55 8t-58.5 -7t-51.5 -22t-37 -38t-14 -54q0 -34 24.5 -54.5t61 -34.5t79 -26t79 -30t61 -46.5t24.5 -75.5q0 -62 -25.5 -108.5
t-67.5 -78.5t-95 -48t-108 -16q-41 0 -79 10t-67 31t-46.5 53t-17.5 76q0 7 0.5 14t1.5 15l100 52q-6 -30 -6 -54q0 -111 132 -111q42 0 76 12t57 31.5t35.5 44.5t12.5 52q0 33 -24.5 52t-60.5 31.5t-79 24t-79 30.5t-60.5 49t-24.5 81q0 57 24.5 100t64.5 72.5t89 44
t99 14.5z" />
    <glyph glyph-name="uni040E" unicode="&#x40e;" horiz-adv-x="665" 
d="M297 704l92 -413l267 413h98l-374 -568q-44 -66 -91.5 -101t-111.5 -35h-51l18 85h68q17 0 35 13t32.5 32.5t24 42.5t9.5 43q0 7 -1 11l-114 477h99z" />
    <glyph glyph-name="uni0410" unicode="&#x410;" horiz-adv-x="669" 
d="M451 577l-151 -270h189zM251 218l-123 -218h-93l397 704h92l99 -704h-94l-29 218h-249z" />
    <glyph glyph-name="uni0411" unicode="&#x411;" horiz-adv-x="577" 
d="M56 0l149 704h421l-18 -85h-328l-46 -217h176q37 0 67.5 -12t52.5 -33.5t34 -50t12 -61.5q0 -45 -21 -89t-56 -78.5t-80.5 -56t-93.5 -21.5h-269zM164 73h176q29 0 54.5 15t45 37.5t30.5 49.5t11 52q0 19 -5.5 37.5t-16.5 33t-27.5 23t-37.5 8.5h-176z" />
    <glyph glyph-name="uni0412" unicode="&#x412;" horiz-adv-x="615" 
d="M280 619l-46 -217h193q30 0 56 12t44.5 31.5t29 43.5t10.5 49q0 35 -24.5 58t-69.5 23h-193zM218 329l-54 -256h210q33 0 60 15t46.5 38.5t30.5 51t11 52.5q0 45 -29 72t-82 27h-193zM205 705h286q79 0 123 -41.5t44 -105.5q0 -56 -29 -106.5t-77 -78.5
q29 -19 45.5 -52.5t16.5 -75.5q0 -53 -21 -98t-56.5 -77.5t-81.5 -51t-96 -18.5h-303z" />
    <glyph glyph-name="uni0413" unicode="&#x413;" horiz-adv-x="452" 
d="M211 704h360l-18 -85h-267l-131 -619h-93z" />
    <glyph glyph-name="uni0414" unicode="&#x414;" horiz-adv-x="708" 
d="M141 0l-30 -139h-93l45 212h51q14 0 28.5 14t29 40t27 61.5t21.5 79.5l93 436h438l-134 -631h58l-45 -212h-93l30 139h-426zM388 619l-75 -351q-13 -60 -36.5 -111.5t-49.5 -83.5h297l116 546h-252z" />
    <glyph glyph-name="uni0415" unicode="&#x415;" horiz-adv-x="516" 
d="M641 704l-15 -73h-343l-48 -223h293l-15 -73h-293l-56 -262h343l-15 -73h-436l149 704h436z" />
    <glyph glyph-name="uni0416" unicode="&#x416;" horiz-adv-x="1040" 
d="M532 315l-57 71l-352 -386h-114l408 449l-239 255h142l238 -270l57 270h93l-57 -269l350 269h143l-348 -255l218 -449h-113l-188 386l-87 -68l-67 -318h-93z" />
    <glyph glyph-name="uni0417" unicode="&#x417;" horiz-adv-x="629" 
d="M438 631q-77 0 -130.5 -44.5t-77.5 -127.5l-87 40q20 55 52 95t72.5 66t88 39t99.5 13q99 0 153 -40t54 -112q0 -71 -35 -118t-89 -75q40 -15 65 -45.5t25 -76.5q0 -58 -26.5 -105.5t-71.5 -81.5t-104 -52.5t-125 -18.5q-51 0 -92.5 10.5t-71 32.5t-45.5 56t-16 81v12.5
t1 13.5l99 47q0 -5 -0.5 -9.5t-0.5 -9.5q0 -81 33.5 -114.5t110.5 -33.5q48 0 87.5 11t68 31.5t44 50t15.5 67.5t-27.5 63t-84.5 25h-117l15 73h100q30 0 57 13t47 34t31.5 47t11.5 52q0 42 -33 66.5t-96 24.5z" />
    <glyph glyph-name="uni0418" unicode="&#x418;" horiz-adv-x="632" 
d="M576 0h-93l107 506l29 70l-462 -576h-101l149 704h93l-111 -521l-25 -61l462 582h101z" />
    <glyph glyph-name="uni0419" unicode="&#x419;" horiz-adv-x="641" 
d="M362 809h269l-15 -73h-269zM576 0h-93l107 506l29 70l-462 -576h-101l149 704h93l-111 -521l-25 -61l462 582h101z" />
    <glyph glyph-name="uni041A" unicode="&#x41a;" horiz-adv-x="620" 
d="M294 378l-78 -60l-67 -318h-93l149 704h93l-59 -276l360 276h118l-343 -265l222 -439h-109z" />
    <glyph glyph-name="uni041B" unicode="&#x41b;" horiz-adv-x="658" 
d="M532 704l90 -704h-97l-74 577q-79 -144 -159.5 -289t-158.5 -288h-97l388 704h108z" />
    <glyph glyph-name="uni041C" unicode="&#x41c;" horiz-adv-x="758" 
d="M400 120l346 584h105l-149 -705h-93l97 458l20 62l-306 -520h-90l-84 521v-63l-97 -458h-93l149 705h96z" />
    <glyph glyph-name="uni041D" unicode="&#x41d;" horiz-adv-x="593" 
d="M298 704l-57 -271h295l57 271h93l-149 -704h-93l75 355h-295l-75 -355h-93l149 704h93z" />
    <glyph glyph-name="uni041E" unicode="&#x41e;" horiz-adv-x="710" 
d="M371 78q58 0 109 29t89.5 78.5t61 114.5t22.5 138q0 84 -42 136t-123 52q-57 0 -108 -28t-89.5 -76.5t-61.5 -114t-23 -140.5q0 -85 41.5 -137t123.5 -52zM122 352q18 82 54.5 148.5t87 113.5t112.5 72.5t130 25.5q58 0 103 -18t76 -51t47 -80t16 -105
q0 -104 -33.5 -190.5t-88.5 -149t-126.5 -97t-147.5 -34.5q-58 0 -103 18t-76 51.5t-47 81.5t-16 107q0 50 12 107z" />
    <glyph glyph-name="uni041F" unicode="&#x41f;" horiz-adv-x="593" 
d="M686 704l-149 -704h-93l134 631h-295l-134 -631h-93l149 704h481z" />
    <glyph glyph-name="uni0420" unicode="&#x420;" horiz-adv-x="553" 
d="M450 704q37 0 67.5 -13t52.5 -35.5t33.5 -53t11.5 -64.5q0 -45 -21.5 -88.5t-56.5 -78t-80.5 -56t-93.5 -21.5h-145l-62 -294h-93l149 704h238zM235 372h145q29 0 55 15.5t45 38.5t30 51t11 52q0 19 -6 36.5t-17 31t-27 21.5t-37 8h-145z" />
    <glyph glyph-name="uni0421" unicode="&#x421;" horiz-adv-x="686" 
d="M355 -13q-115 0 -176 69t-61 187q0 101 32 187t86 148.5t124.5 98t148.5 35.5q197 0 234 -214l-88 -37q-14 82 -53 123.5t-111 41.5q-57 0 -107.5 -28.5t-88.5 -78t-60 -115.5t-22 -141q0 -85 40 -137.5t120 -52.5q36 0 69.5 12t63 33.5t54.5 51.5t43 67l75 -37
q-65 -111 -144.5 -162t-178.5 -51z" />
    <glyph glyph-name="uni0422" unicode="&#x422;" horiz-adv-x="575" 
d="M675 704l-16 -78h-192l-133 -626h-93l133 626h-202l16 78h487z" />
    <glyph glyph-name="uni0423" unicode="&#x423;" horiz-adv-x="604" 
d="M272 704l92 -413l267 413h98l-374 -568q-44 -66 -91.5 -101t-111.5 -35h-51l18 85h68q17 0 35 13t32.5 32.5t24 42.5t9.5 43q0 7 -1 11l-114 477h99z" />
    <glyph glyph-name="uni0424" unicode="&#x424;" horiz-adv-x="818" 
d="M367 0l30 144h-84q-44 0 -79 14t-60 38.5t-38 58.5t-13 74q0 63 25.5 117.5t68.5 94t99 62.5t116 23h68l16 79h93l-16 -79h59q48 0 86 -14t64.5 -38.5t40.5 -59t14 -76.5q0 -59 -24.5 -112.5t-65 -94t-93 -64t-109.5 -23.5h-75l-30 -144h-93zM416 553q-41 0 -77 -17
t-62.5 -45t-42 -65t-15.5 -76q0 -28 8.5 -52.5t25 -42.5t39.5 -28t53 -10h68l71 336h-68zM506 217h59q38 0 73.5 17.5t63.5 47t44.5 67t16.5 78.5q0 54 -34 90t-93 36h-59z" />
    <glyph glyph-name="uni0425" unicode="&#x425;" horiz-adv-x="665" 
d="M663 704h111l-305 -339l172 -365h-110l-137 289l-259 -289h-111l328 365q-38 81 -81 169.5t-81 169.5h111l125 -266z" />
    <glyph glyph-name="uni0426" unicode="&#x426;" horiz-adv-x="654" 
d="M298 704l-134 -631h326l134 631h93l-134 -631h50l-45 -213h-93l30 140h-469l149 704h93z" />
    <glyph glyph-name="uni0427" unicode="&#x427;" horiz-adv-x="582" 
d="M318 248q-177 0 -177 157q0 34 9 78l47 222h93l-51 -240q-4 -17 -4 -37q0 -44 21 -75.5t61 -31.5h184l81 384h93l-149 -705h-93l52 248h-167z" />
    <glyph glyph-name="uni0428" unicode="&#x428;" horiz-adv-x="908" 
d="M298 704l-134 -631h259l134 631h93l-134 -631h258l134 631h93l-149 -704h-796l149 704h93z" />
    <glyph glyph-name="uni0429" unicode="&#x429;" horiz-adv-x="957" 
d="M298 704l-134 -631h260l134 631h92l-134 -631h259l134 631h93l-134 -631h80l-45 -212h-93l30 139h-784l149 704h93z" />
    <glyph glyph-name="uni042A" unicode="&#x42a;" horiz-adv-x="660" 
d="M384 704l-62 -292h152q42 0 76.5 -12.5t59 -34t37.5 -51.5t13 -65q0 -52 -23 -97.5t-61 -79t-87.5 -53t-101.5 -19.5h-245l133 626h-118l16 78h211zM402 73q34 0 63.5 14.5t51.5 38t35 52.5t13 58q0 43 -27.5 73t-78.5 30h-152l-57 -266h152z" />
    <glyph glyph-name="uni042B" unicode="&#x42b;" horiz-adv-x="729" 
d="M580 0l149 704h93l-149 -704h-93zM298 704l-65 -306h137q42 0 77 -10.5t59.5 -30.5t38 -48t13.5 -62q0 -51 -23 -96t-61 -78.5t-87 -53t-101 -19.5h-230l149 704h93zM301 73q33 0 62.5 13.5t52 35.5t35.5 50.5t13 57.5q0 42 -29 68.5t-80 26.5h-137l-54 -252h137z" />
    <glyph glyph-name="uni042C" unicode="&#x42c;" horiz-adv-x="574" 
d="M298 704l-64 -300h152q42 0 76.5 -11.5t59 -32t38 -49t13.5 -63.5q0 -52 -23 -97t-60.5 -78.5t-87 -53t-101.5 -19.5h-245l149 704h93zM316 73q33 0 63 14.5t52 37.5t35 51.5t13 57.5q0 42 -28.5 69.5t-79.5 27.5h-152l-55 -258h152z" />
    <glyph glyph-name="uni042D" unicode="&#x42d;" horiz-adv-x="699" 
d="M359 405h279v20q0 43 -11 81t-32 65.5t-51.5 43.5t-69.5 16q-72 0 -132.5 -47t-105.5 -123h-91q134 251 346 251q58 0 103 -19t76.5 -54t48 -83.5t16.5 -108.5q0 -105 -33.5 -190t-89 -145t-127.5 -92.5t-148 -32.5q-214 0 -235 253h95q0 -78 43 -122.5t115 -44.5
q45 0 87.5 19t78 52t62 77t41.5 94h-285z" />
    <glyph glyph-name="uni042E" unicode="&#x42e;" horiz-adv-x="907" 
d="M237 415h100q23 68 60 122t84.5 92t103.5 58t117 20q116 0 179.5 -66t63.5 -184q0 -104 -33.5 -190t-88.5 -148.5t-126.5 -97t-147.5 -34.5q-57 0 -102 18.5t-76 52.5t-47 82t-16 107q0 19 2 38.5t5 39.5h-97l-69 -325h-93l149 705h93zM567 73q58 0 109.5 30t90 80.5
t61 116.5t22.5 138q0 84 -42 136t-123 52q-57 0 -108 -28t-89.5 -76.5t-61.5 -114t-23 -140.5q0 -43 10.5 -79t31 -61.5t51 -39.5t71.5 -14z" />
    <glyph glyph-name="uni042F" unicode="&#x42f;" horiz-adv-x="595" 
d="M289 334q-28 7 -49.5 21.5t-35.5 34t-21.5 42.5t-7.5 47q0 49 22 90.5t58.5 71.5t83.5 46.5t96 16.5h253l-149 -704h-93l69 325h-133l-252 -325h-98zM580 631h-160q-33 0 -60.5 -12.5t-47.5 -32.5t-31.5 -44.5t-11.5 -49.5q0 -18 6 -34.5t18 -30t31 -21.5t46 -8h160z" />
    <glyph glyph-name="uni0430" unicode="&#x430;" horiz-adv-x="570" 
d="M381 448q-63 0 -102.5 -28t-53.5 -85l-89 35q15 37 41 67t60.5 51t75.5 32.5t85 11.5q91 0 136 -34t45 -97q0 -11 -1.5 -22.5t-3.5 -23.5l-46 -217q-5 -22 -5 -30q0 -16 10 -20t33 -4l-17 -84h-34q-73 0 -82 48q-37 -29 -89 -44.5t-104 -15.5q-75 0 -120 31.5t-45 94.5
q0 23 10.5 51.5t33 55t59 47.5t87.5 29q49 8 90 15.5t71 17.5t47 23.5t17 34.5q0 26 -28.5 43t-80.5 17zM464 260q-25 -13 -59 -22.5t-67 -15.5t-60 -10t-39 -6q-33 -12 -53 -32.5t-20 -44.5q0 -28 25.5 -42.5t67.5 -14.5q30 0 60.5 6.5t57 20t46 34.5t25.5 51z" />
    <glyph glyph-name="uni0431" unicode="&#x431;" horiz-adv-x="542" 
d="M482 615q-33 -1 -69.5 -4.5t-70.5 -19t-63.5 -47.5t-48.5 -89q34 36 79 56.5t83 20.5q77 0 121.5 -51.5t44.5 -139.5q0 -80 -26 -145t-67 -111.5t-92 -71.5t-101 -25q-13 0 -31.5 1t-38.5 5.5t-40 14.5t-36 28.5t-26 47t-10 70.5q0 20 2.5 43.5t8.5 51.5q17 79 33.5 139
t35 104.5t40 75.5t48 53t59.5 36.5t74 26.5q22 6 44.5 10t50 7t63.5 4.5t85 2.5l-13 -37q-7 -20 -20 -31.5t-31 -16.5t-40 -6.5t-48 -2.5zM367 448q-35 0 -67 -21.5t-56.5 -57t-39.5 -80.5t-15 -91q0 -57 25 -91.5t73 -34.5q35 0 67 20.5t56 55t38.5 79.5t14.5 93
q0 57 -24.5 92.5t-71.5 35.5z" />
    <glyph glyph-name="uni0432" unicode="&#x432;" horiz-adv-x="541" 
d="M166 520h265q53 0 85.5 -33t32.5 -83q0 -43 -20.5 -77t-52.5 -55q25 -14 38.5 -37t13.5 -54q0 -34 -15.5 -66.5t-41 -58t-58 -41t-66.5 -15.5h-291zM196 227l-31 -143h181q17 0 33 7t28.5 19t20 28t7.5 33q0 23 -16 39.5t-42 16.5h-181zM240 436l-26 -125h173
q14 0 27.5 6t24.5 16t18 23.5t7 28.5q0 21 -14 36t-37 15h-173z" />
    <glyph glyph-name="uni0433" unicode="&#x433;" horiz-adv-x="515" 
d="M197 342l-70 27q26 79 91 121t154 42q48 0 79 -11t49 -28.5t25 -38.5t7 -41q0 -15 -3 -27q-9 -40 -26.5 -67.5t-46 -47t-67.5 -32.5t-90 -24l-12 -2h3q-20 -4 -41.5 -9.5t-39.5 -15t-30 -24.5t-12 -38q0 -29 28 -41.5t82 -12.5q50 0 90 28t56 79l76 -24
q-14 -44 -39.5 -76t-58.5 -52t-71.5 -29.5t-77.5 -9.5q-80 0 -129.5 30t-49.5 87q0 78 50 124t162 67q33 6 61 14t48.5 19.5t31.5 27.5t11 39q0 28 -24.5 40t-57.5 12q-21 0 -43.5 -6t-42.5 -17.5t-34.5 -29t-19.5 -41.5z" />
    <glyph glyph-name="uni0434" unicode="&#x434;" horiz-adv-x="668" 
d="M57 73h70l256 447h97l64 -447h82l-45 -214h-91l30 141h-386l-30 -141h-92zM221 73h232l-46 328z" />
    <glyph glyph-name="uni0435" unicode="&#x435;" horiz-adv-x="547" 
d="M182 222q-1 -7 -1 -13v-12q0 -60 27.5 -92t73.5 -32q38 0 80 21.5t73 69.5l72 -40q-23 -30 -50.5 -55.5t-57.5 -43.5t-62 -28t-63 -10q-42 0 -76 14t-59 40.5t-38.5 63.5t-13.5 83q0 17 1.5 35t6.5 37q13 63 39.5 114t63 86t83.5 54t102 19q40 0 72.5 -13.5t55 -39
t34.5 -61.5t12 -81q0 -18 -1.5 -37.5t-6.5 -40.5l-8 -38h-359zM362 447q-25 0 -50 -9.5t-47.5 -28t-39.5 -44.5t-26 -59h267q3 16 3 31q0 25 -8.5 45.5t-23.5 35t-34.5 22t-40.5 7.5z" />
    <glyph glyph-name="uni0436" unicode="&#x436;" horiz-adv-x="848" 
d="M571 520l-42 -198q63 49 127 99t128 99h126l-269 -209l167 -311h-108l-134 250l-62 -45l-43 -205h-92l43 205l-43 45l-240 -250h-108l298 310l-180 210h127l171 -197l42 197h92z" />
    <glyph glyph-name="uni0437" unicode="&#x437;" horiz-adv-x="563" 
d="M357 447q-117 0 -161 -113l-79 30q14 40 40.5 71t61 53t74.5 33.5t82 11.5q89 0 136.5 -35.5t47.5 -93.5q0 -36 -20.5 -75.5t-58.5 -61.5q29 -16 39 -37.5t10 -44.5q0 -44 -18 -80t-52.5 -62.5t-84.5 -41t-115 -14.5q-89 0 -139 36t-50 107q0 10 1 15l94 33
q-2 -6 -2 -11.5v-10.5q0 -44 33 -63.5t83 -19.5q33 0 61.5 5.5t49.5 17t33 28.5t12 40q0 26 -20 42t-68 16h-88l18 84h88q26 0 45 7t31.5 18t18.5 25t6 29q0 27 -29.5 44.5t-79.5 17.5z" />
    <glyph glyph-name="uni0438" unicode="&#x438;" horiz-adv-x="541" 
d="M396 0l10 51q-32 -27 -76.5 -45.5t-87.5 -18.5q-74 0 -116.5 41.5t-42.5 111.5q0 25 6 54l69 326h92l-65 -305q-5 -25 -5 -43q0 -47 25 -73t73 -26q59 0 102.5 37t57.5 105l65 305h92l-110 -520h-89z" />
    <glyph glyph-name="uni0439" unicode="&#x439;" horiz-adv-x="537" 
d="M269 624h250l-15 -73h-250zM394 0l10 51q-32 -27 -76.5 -45.5t-87.5 -18.5q-74 0 -116.5 41.5t-42.5 111.5q0 25 6 54l69 326h92l-65 -305q-5 -25 -5 -43q0 -47 25 -73t73 -26q59 0 102.5 37t57.5 105l65 305h92l-110 -520h-89z" />
    <glyph glyph-name="uni043A" unicode="&#x43a;" horiz-adv-x="507" 
d="M250 520l-42 -198l252 198h125l-274 -210l168 -310h-108l-135 249l-53 -44l-43 -205h-92l110 520h92z" />
    <glyph glyph-name="uni043B" unicode="&#x43b;" horiz-adv-x="580" 
d="M27 73h70l269 446h95l84 -519h-97l-58 414l-242 -414h-136z" />
    <glyph glyph-name="uni043C" unicode="&#x43c;" horiz-adv-x="684" 
d="M635 520h103l-110 -520h-93l77 366l-238 -366h-72l-76 366l-77 -366h-93l110 520h107l88 -413z" />
    <glyph glyph-name="uni043D" unicode="&#x43d;" horiz-adv-x="549" 
d="M448 222h-253l-47 -222h-92l110 519h92l-45 -213h253l45 213h92l-110 -519h-92z" />
    <glyph glyph-name="uni043E" unicode="&#x43e;" horiz-adv-x="553" 
d="M386 533q41 0 74.5 -14t57.5 -39.5t37 -62.5t13 -83q0 -78 -26 -142t-68 -109.5t-95.5 -70.5t-108.5 -25q-84 0 -130.5 50t-46.5 139q0 78 25 144t66 113t93.5 73.5t108.5 26.5zM466 257q8 38 8 66q0 58 -27.5 91t-78.5 33q-39 0 -72 -21.5t-57.5 -57.5t-38 -83
t-13.5 -97q0 -55 25 -85t77 -30q66 0 113 50t64 134z" />
    <glyph glyph-name="uni043F" unicode="&#x43f;" horiz-adv-x="549" 
d="M258 520l-13 -63q32 35 75.5 55.5t87.5 20.5q75 0 120.5 -44t45.5 -116q0 -11 -1 -23.5t-4 -25.5l-68 -324h-92l64 305q4 19 4 39q0 49 -27.5 76t-75.5 27q-59 0 -103.5 -39t-58.5 -103l-64 -305h-92l110 520h92z" />
    <glyph glyph-name="uni0440" unicode="&#x440;" horiz-adv-x="550" 
d="M12 -203l154 723h84l-15 -73q35 40 79 63t82 23q77 0 123 -52t46 -143q0 -75 -24 -139t-63.5 -111.5t-90 -74t-103.5 -26.5q-41 0 -73.5 17t-50.5 49l-55 -256h-93zM295 73q34 0 65.5 20.5t56.5 54.5t40 79t15 95q0 55 -24.5 90t-72.5 35q-33 0 -65 -19.5t-57 -52.5
t-40 -77t-15 -94q0 -57 24.5 -94t72.5 -37z" />
    <glyph glyph-name="uni0441" unicode="&#x441;" horiz-adv-x="528" 
d="M386 533q35 0 66 -10.5t54 -31.5t36.5 -51t13.5 -69l-90 -37q0 51 -26.5 82t-71.5 31q-39 0 -73.5 -21.5t-60 -56.5t-40.5 -80t-15 -92q0 -55 27.5 -87t82.5 -32q45 0 83 23.5t67 79.5l66 -42q-19 -37 -45.5 -65t-57.5 -47t-65 -29t-67 -10q-45 0 -79 14t-57.5 39.5
t-35.5 61.5t-12 79q0 73 25 137t66.5 111.5t95.5 75t113 27.5z" />
    <glyph glyph-name="uni0442" unicode="&#x442;" horiz-adv-x="772" 
d="M149 0h-93l110 520h93l-13 -62q14 16 32 30t37.5 24t38.5 15.5t36 5.5q42 0 64.5 -20t36.5 -59q32 37 75 58t85 21q65 0 102.5 -42t37.5 -111q0 -27 -6 -55l-69 -325h-93l69 326q4 17 4 36q0 42 -21 63.5t-54 21.5q-42 0 -73 -32t-43 -89l-69 -326h-93l69 326q4 17 4 36
q0 42 -21 63.5t-54 21.5q-42 0 -76.5 -31t-46.5 -90z" />
    <glyph glyph-name="uni0443" unicode="&#x443;" horiz-adv-x="512" 
d="M90 -128q17 0 34 14t32 34.5t25.5 42.5t13.5 38q1 7 2 15t1 16q0 10 -1 15l-75 473h97l60 -388l229 388h90l-318 -544q-23 -39 -46.5 -73t-49 -60t-53.5 -40.5t-59 -14.5h-49l18 84h49z" />
    <glyph glyph-name="uni0444" unicode="&#x444;" horiz-adv-x="895" 
d="M357 -203l55 256q-32 -32 -72.5 -48.5t-79.5 -16.5q-77 0 -122 51t-45 139q0 80 26 145t67.5 111.5t92.5 72t101 25.5q38 0 72.5 -16t56.5 -48l11 52h75l-11 -52q35 32 77 48t80 16q77 0 123 -51.5t46 -142.5q0 -75 -24 -139.5t-63.5 -111t-90 -73t-104.5 -26.5
q-40 0 -72.5 16.5t-50.5 48.5l-55 -256h-93zM640 73q34 0 65.5 20.5t56.5 54.5t40 79t15 95q0 55 -24.5 90.5t-72.5 35.5q-29 0 -56 -13t-49 -36.5t-38.5 -56t-25.5 -71.5l-4 -18q-6 -29 -6 -54q0 -57 25.5 -91.5t73.5 -34.5zM285 73q29 0 56 14t49 38t38.5 57t25.5 71l4 18
q6 28 6 54q0 55 -26 89t-73 34q-35 0 -67 -20.5t-56.5 -55t-39 -79t-14.5 -92.5q0 -57 24.5 -92.5t72.5 -35.5z" />
    <glyph glyph-name="uni0445" unicode="&#x445;" horiz-adv-x="535" 
d="M120 0h-106l252 269l-126 251h107l86 -180l163 180h107l-231 -251l138 -269h-106l-102 194z" />
    <glyph glyph-name="uni0446" unicode="&#x446;" horiz-adv-x="599" 
d="M459 0h-58l9 47q-32 -27 -74.5 -43t-85.5 -16q-74 0 -116.5 41t-42.5 111q0 25 6 54l69 326h92l-65 -305q-2 -12 -3.5 -22.5t-1.5 -21.5q0 -46 25 -72.5t73 -26.5q58 0 102 37.5t58 105.5l65 305h92l-93 -436h58l-46 -218h-92z" />
    <glyph glyph-name="uni0447" unicode="&#x447;" horiz-adv-x="533" 
d="M385 0l38 182q-31 -23 -70 -36t-74 -13q-74 0 -115.5 41.5t-41.5 112.5q0 25 6 54l38 179h92l-38 -179q-4 -16 -4 -35q0 -40 22.5 -64.5t70.5 -24.5q53 0 94.5 33.5t53.5 90.5l38 179h92l-110 -520h-92z" />
    <glyph glyph-name="uni0448" unicode="&#x448;" horiz-adv-x="808" 
d="M614 0l7 34q-52 -46 -122 -46q-42 0 -74.5 19.5t-44.5 54.5q-32 -36 -75.5 -55t-85.5 -19q-60 0 -94.5 37.5t-34.5 105.5q0 31 7 63l69 325h93l-69 -323q-2 -12 -3.5 -22.5t-1.5 -21.5q0 -38 17.5 -59t49.5 -21q42 0 76 33t47 91l69 324h93l-69 -324q-2 -12 -3.5 -23
t-1.5 -21q0 -38 17.5 -59t51.5 -21q21 0 40.5 9t36 25.5t28.5 39.5t18 50l69 324h93l-93 -436h53l-17 -84h-146z" />
    <glyph glyph-name="uni0449" unicode="&#x449;" horiz-adv-x="824" 
d="M663 0h-54l7 34q-52 -46 -122 -46q-42 0 -74.5 19.5t-44.5 54.5q-32 -36 -75.5 -55t-85.5 -19q-60 0 -94.5 37.5t-34.5 105.5q0 31 7 63l69 325h93l-69 -323q-2 -12 -3.5 -22.5t-1.5 -21.5q0 -38 17.5 -59t49.5 -21q42 0 76 33t47 91l69 324h93l-69 -324q-2 -12 -3.5 -23
t-1.5 -21q0 -38 17.5 -59t51.5 -21q21 0 40.5 9t36 25.5t28.5 39.5t18 50l69 324h93l-93 -436h54l-50 -238h-93z" />
    <glyph glyph-name="uni044A" unicode="&#x44a;" horiz-adv-x="530" 
d="M127 520h169l-36 -170h113q35 0 62.5 -11t47 -29.5t30 -43t10.5 -52.5q0 -38 -18.5 -76.5t-50 -69t-72 -49.5t-83.5 -19h-205l95 447h-77zM314 73q27 0 48.5 13.5t36.5 32.5t23 40t8 35q0 15 -4.5 30t-13.5 26.5t-23 19t-32 7.5h-113l-43 -204h113z" />
    <glyph glyph-name="uni044B" unicode="&#x44b;" horiz-adv-x="647" 
d="M499 0l110 520h92l-110 -520h-92zM276 73q27 0 48.5 13.5t36.5 32.5t23 40t8 35q0 15 -4.5 30t-13.5 26.5t-23 19t-32 7.5h-113l-43 -204h113zM335 350q35 0 62.5 -11t47 -29.5t30 -43t10.5 -52.5q0 -38 -18.5 -76.5t-50 -69t-72 -49.5t-83.5 -19h-205l110 520h92
l-36 -170h113z" />
    <glyph glyph-name="uni044C" unicode="&#x44c;" horiz-adv-x="492" 
d="M276 73q27 0 48.5 13.5t36.5 32.5t23 40t8 35q0 15 -4.5 30t-13.5 26.5t-23 19t-32 7.5h-113l-43 -204h113zM335 350q35 0 62.5 -11t47 -29.5t30 -43t10.5 -52.5q0 -38 -18.5 -76.5t-50 -69t-72 -49.5t-83.5 -19h-205l110 520h92l-36 -170h113z" />
    <glyph glyph-name="uni044D" unicode="&#x44d;" horiz-adv-x="516" 
d="M237 306h197v12q0 57 -26 93.5t-81 36.5q-44 0 -85 -31.5t-63 -82.5l-73 39q16 38 42 67.5t58.5 50t68 31t70.5 10.5q43 0 77 -14.5t57.5 -40.5t35.5 -62t12 -80q0 -72 -24 -135t-64.5 -110t-94.5 -74.5t-115 -27.5q-35 0 -65.5 10.5t-53.5 30t-37.5 48.5t-15.5 66l85 33
q5 -54 33 -79t72 -25q60 0 103.5 41.5t66.5 108.5h-198z" />
    <glyph glyph-name="uni044E" unicode="&#x44e;" horiz-adv-x="696" 
d="M213 309h48q18 49 46 90t63 70.5t75.5 46t84.5 16.5q40 0 73.5 -13.5t57.5 -39t37 -62t13 -82.5q0 -79 -25.5 -143t-67.5 -109.5t-95.5 -70t-108.5 -24.5q-84 0 -130.5 47.5t-46.5 135.5q0 12 1 24.5t3 26.5h-46l-47 -222h-92l110 519h92zM610 257q8 38 8 66
q0 59 -27.5 92t-78.5 33q-39 0 -72.5 -22t-57.5 -58t-37.5 -83t-13.5 -97q0 -56 25 -86t77 -30q66 0 113 50.5t64 134.5z" />
    <glyph glyph-name="uni044F" unicode="&#x44f;" horiz-adv-x="532" 
d="M223 202q-44 10 -69.5 42.5t-25.5 78.5q0 39 17 75t44.5 63t63 43t73.5 16h260l-110 -520h-93l42 198h-97l-188 -198h-104zM224 359q-2 -5 -2 -9.5v-9.5q0 -28 17.5 -48.5t47.5 -20.5h153l38 176h-153q-17 0 -33.5 -7.5t-30.5 -19.5t-23.5 -28t-13.5 -33z" />
    <glyph glyph-name="uni10D0" unicode="&#x10d0;" horiz-adv-x="474" 
d="M74 182q12 56 60 123l71 -46q-42 -64 -42 -107q0 -34 23 -56.5t70 -22.5q41 0 67.5 19.5t42.5 49t22 63t6 61.5q0 31 -8 56t-24 48.5t-39.5 48.5t-54.5 56l76 61l24 -23q22 -22 44 -45.5t39 -51t28 -60.5t11 -74q0 -78 -24 -133.5t-60.5 -91.5t-81 -53t-85.5 -17
t-72.5 11.5t-53.5 32t-33 48t-11 60.5q0 11 1.5 21.5t3.5 21.5z" />
    <glyph glyph-name="uni10D1" unicode="&#x10d1;" horiz-adv-x="500" 
d="M514 237q-11 -49 -30 -94.5t-50.5 -80t-77 -55t-109.5 -20.5q-49 0 -82 12t-53 33.5t-28.5 51t-8.5 63.5q0 51 13.5 111.5t43.5 114t78.5 91.5t118.5 44l18 82h-19q-50 0 -78 11t-28 46q0 10 3 24l9 41h92l-6 -28q0 -2 -0.5 -2.5t-0.5 -2.5q0 -5 5 -7t19 -2h154l28 -80
h-86l-19 -88q58 -20 81 -67.5t23 -107.5q0 -22 -2.5 -44.5t-7.5 -45.5zM421 237q5 21 7.5 43t2.5 42q0 21 -4 39t-14.5 31.5t-28 21.5t-44.5 8q-49 0 -82 -27.5t-52.5 -67.5t-27.5 -84.5t-8 -78.5q0 -20 4.5 -36.5t15.5 -28.5t29 -19t46 -7q39 0 66 13.5t44.5 36t28 52
t17.5 62.5z" />
    <glyph glyph-name="uni10D2" unicode="&#x10d2;" horiz-adv-x="547" 
d="M363 507q75 0 110.5 -36t35.5 -92q0 -28 -11 -66t-35 -77q33 -22 47.5 -56.5t14.5 -77.5q0 -58 -19 -116.5t-56.5 -105t-93.5 -76t-130 -29.5q-52 0 -88.5 14t-60 39t-34 57.5t-10.5 70.5q0 61 20 117t58.5 99t95 69t130.5 26q24 0 45 -3q16 28 24.5 55t8.5 44
q0 26 -17 42.5t-56 16.5q-42 0 -93 -25.5t-99 -70.5l23 110q93 71 190 71zM423 27q2 11 3.5 22.5t1.5 23.5q0 21 -5 40.5t-17.5 34.5t-33.5 24.5t-53 9.5q-47 0 -82.5 -17t-59.5 -45.5t-36.5 -66t-12.5 -77.5q0 -24 6 -45.5t20 -37t36 -24.5t54 -9q40 0 70.5 14t52 37
t35.5 53t21 63z" />
    <glyph glyph-name="uni10D3" unicode="&#x10d3;" horiz-adv-x="804" 
d="M325 422q-36 0 -60.5 -13t-41 -38t-27.5 -60.5t-21 -80.5q-9 -44 -9 -82q0 -64 22.5 -117t65.5 -90.5t105.5 -58.5t141.5 -21h68l-16 -74h-70q-95 0 -171.5 23t-130 66.5t-82.5 106.5t-29 143q0 48 12 104q14 64 34 115.5t50.5 87.5t73 55t102.5 19q67 0 96.5 -18
t39.5 -56q29 38 71 56t110 18q49 0 82 -11.5t53.5 -32t29 -49t8.5 -62.5q0 -60 -15 -119.5t-48 -107.5t-85.5 -77.5t-128.5 -29.5q-49 0 -82 11.5t-53.5 32.5t-29 49.5t-8.5 62.5q0 20 3.5 42.5l7 45t7 44.5t3.5 41q0 33 -16 54t-62 21zM486 262q-4 -19 -6.5 -36.5
t-2.5 -33.5q0 -39 20.5 -63.5t76.5 -24.5q39 0 65.5 12.5t44 34t27.5 50.5t17 61q4 19 6.5 36.5t2.5 34.5q0 39 -20.5 64t-76.5 25q-40 0 -66.5 -13t-43.5 -35t-27 -51t-17 -61z" />
    <glyph glyph-name="uni10D4" unicode="&#x10d4;" horiz-adv-x="489" 
d="M194 -225q-81 0 -124.5 41t-43.5 114q0 41 17 96t54 118l71 -45q-23 -43 -35 -83.5t-12 -69.5q0 -41 22 -63t72 -22q22 0 42.5 7t38 24t31.5 46t23 74l65 307q2 8 3 16t1 15q0 38 -23 55t-61 17q-21 0 -45 -8t-49.5 -21.5t-50.5 -32.5t-49 -41l25 117q93 71 190 71
q34 0 63 -8.5t50 -26t33 -43.5t12 -60q0 -11 -1.5 -22.5t-3.5 -24.5l-64 -303q-15 -72 -40.5 -119.5t-58.5 -75t-71.5 -38.5t-80.5 -11z" />
    <glyph glyph-name="uni10D5" unicode="&#x10d5;" horiz-adv-x="515" 
d="M275 259h49q17 0 36 4t34.5 15t26 31t10.5 52q0 36 -25.5 48.5t-64.5 12.5q-42 0 -94 -23t-99 -66l26 119q38 24 88 39.5t100 15.5q43 0 74 -10.5t51 -28.5t29.5 -42.5t9.5 -52.5q0 -38 -18 -80t-66 -73q25 -14 37 -36t12 -51q0 -8 -1 -17.5t-3 -18.5l-21 -99
q-13 -62 -39.5 -105t-60.5 -69t-74 -37.5t-80 -11.5q-82 0 -133 41t-51 121q0 45 17 98t57 110l71 -47q-28 -42 -39 -78t-11 -64q0 -49 28.5 -72t68.5 -23q24 0 47.5 6t43.5 21.5t36 42.5t25 68l21 96q1 5 1 14q0 24 -16.5 44t-56.5 20h-65z" />
    <glyph glyph-name="uni10D6" unicode="&#x10d6;" horiz-adv-x="687" 
d="M141 496q12 56 37.5 96.5t58.5 67t70.5 39.5t72.5 13q28 0 54 -8t45 -23.5t30.5 -38.5t11.5 -52q0 -21 -6 -42.5t-14 -42.5q22 5 44 5q48 0 80.5 -13t52 -36t28 -53.5t8.5 -64.5q0 -58 -15 -120.5t-48 -115t-86.5 -86.5t-130.5 -34q-48 0 -80.5 13t-52 35.5t-28 52.5
t-8.5 65q0 34 6.5 73.5t20.5 69.5q-21 -6 -41 -6q-51 0 -84.5 35.5t-33.5 104.5q0 28 8 66zM610 247q5 21 8 42t3 41q0 40 -18.5 67.5t-68.5 27.5q-45 0 -78 -24.5t-54.5 -62t-32.5 -82.5t-11 -85q0 -21 4.5 -38.5t15 -31t29 -21t45.5 -7.5q40 0 67 15t45 39.5t28.5 55.5
t17.5 64zM413 522q3 13 4 24t1 20q0 20 -5.5 32t-14.5 18.5t-20.5 8.5t-24.5 2q-17 0 -34.5 -6t-33.5 -20.5t-29.5 -40t-21.5 -64.5q-8 -34 -8 -59q0 -27 13 -44.5t50 -17.5q28 0 49 13.5t36 35t24.5 47.5t14.5 51z" />
    <glyph glyph-name="uni10D7" unicode="&#x10d7;" horiz-adv-x="820" 
d="M743 247q5 23 8.5 45.5t3.5 42.5q0 19 -4 35t-14 27.5t-27 18t-43 6.5q-39 0 -65 -17.5t-43.5 -45.5t-28 -62.5t-18.5 -68.5q-11 -46 -31.5 -89.5t-52 -77t-76.5 -54t-105 -20.5q-48 0 -81 13t-52.5 35.5t-28 52.5t-8.5 65q0 57 14.5 119.5t47.5 114.5t86.5 86t131.5 34
q67 0 100.5 -25t45.5 -65q27 41 70 65.5t113 24.5q47 0 78 -12t50 -33.5t26.5 -50.5t7.5 -62q0 -56 -14 -118t-46.5 -115t-85 -89t-129.5 -40l-4 86q45 0 75 15t50 39.5t31 55.5t18 64zM423 247q4 20 7 40t3 39q0 20 -4.5 37.5t-15 30.5t-29 20.5t-45.5 7.5q-49 0 -81 -25.5
t-51.5 -63.5t-27.5 -82t-8 -81q0 -21 4.5 -38.5t15 -30.5t29 -20.5t45.5 -7.5q39 0 66.5 15t45.5 39.5t28.5 55.5t17.5 64z" />
    <glyph glyph-name="uni10D8" unicode="&#x10d8;" horiz-adv-x="515" 
d="M438 244q4 18 6.5 36.5t2.5 36.5q0 22 -5 41t-16.5 33.5t-30.5 23t-48 8.5q-50 0 -83.5 -25.5t-53.5 -63t-29 -82t-9 -81.5q0 -34 9 -64t31 -47l-60 -75q-40 26 -57 74t-17 102q0 57 16.5 118t51 111.5t89 83.5t130.5 33q49 0 82.5 -14t54 -38t29.5 -56t9 -68
q0 -38 -10.5 -87.5t-33 -99t-57.5 -92.5t-85 -67l-25 76q22 13 40 34t31.5 46t23 52t14.5 51z" />
    <glyph glyph-name="uni10D9" unicode="&#x10d9;" horiz-adv-x="511" 
d="M271 242h57q18 0 37 4t34.5 15.5t25.5 32t10 53.5q0 41 -27 60t-66 19h-15l18 85q38 0 72 -9t59.5 -27.5t40.5 -46t15 -64.5q0 -34 -8.5 -60.5t-22.5 -46.5t-31.5 -33.5t-35.5 -22.5q62 -28 62 -88q0 -8 -1 -16t-3 -16l-18 -83q-14 -62 -40.5 -105t-61.5 -69t-75.5 -37.5
t-80.5 -11.5q-41 0 -76 9.5t-60 29t-39 49t-14 69.5q0 47 19.5 100.5t57.5 109.5l71 -47q-28 -39 -40.5 -77t-12.5 -66q0 -25 8.5 -42t22.5 -28t32.5 -16t38.5 -5q24 0 48 7t45 23.5t37.5 42.5t25.5 65l18 82q1 5 1 14q0 23 -16.5 42t-56.5 19h-73z" />
    <glyph glyph-name="uni10DA" unicode="&#x10da;" horiz-adv-x="522" 
d="M186 236q-18 -80 -18 -147q0 -45 10 -82.5t33.5 -67t61 -49t92.5 -27.5l-18 -88q-78 9 -131.5 34.5t-86.5 64.5t-47.5 90.5t-14.5 111.5q0 40 6 87.5t20.5 95.5t37.5 93.5t57 80t79 55.5t104 21q47 0 80.5 -14.5t54.5 -39.5t31 -58.5t10 -71.5q0 -34 -7.5 -70.5
t-21 -72.5t-32.5 -70.5t-42 -62.5h-106q19 22 38.5 54.5t35.5 68.5t26.5 72.5t10.5 67.5q0 44 -22.5 74.5t-74.5 30.5q-24 0 -49.5 -11t-48 -33.5t-40.5 -56.5t-28 -80z" />
    <glyph glyph-name="uni10DB" unicode="&#x10db;" horiz-adv-x="512" 
d="M516 247q-11 -49 -30 -96t-51 -83.5t-78 -58.5t-110 -22q-48 0 -81 13t-52.5 35.5t-28 53t-8.5 65.5q0 57 14.5 119.5t47.5 114.5t86 85.5t130 33.5q46 0 71.5 -10.5t42.5 -31.5l13 60q3 15 3 28q0 39 -25.5 56t-63.5 17q-47 0 -98.5 -16t-101.5 -61l23 109
q43 27 91 40.5t93 13.5q36 0 68.5 -9t56.5 -27t38 -45t14 -63q0 -21 -4 -41zM423 247q4 20 7 40t3 39q0 20 -4.5 37.5t-15 30.5t-29 20.5t-45.5 7.5q-49 0 -81 -25.5t-51.5 -63.5t-27.5 -82t-8 -81q0 -21 4.5 -38.5t15 -30.5t29 -20.5t45.5 -7.5q39 0 66.5 15t45.5 39.5
t28.5 55.5t17.5 64z" />
    <glyph glyph-name="uni10DC" unicode="&#x10dc;" horiz-adv-x="512" 
d="M160 527q10 46 33.5 79.5t56 55t71 32t77.5 10.5h184l-16 -78h-181q-46 0 -84.5 -28.5t-50.5 -82.5l-11 -50q25 20 57.5 31t75.5 11q48 0 80 -13t51.5 -35t27.5 -52t8 -64q0 -59 -14.5 -121.5t-47.5 -115t-86.5 -86t-131.5 -33.5q-48 0 -81 13t-52.5 35.5t-28 52.5
t-8.5 65q0 44 11 94zM192 244q-5 -20 -7.5 -39.5t-2.5 -37.5q0 -20 4.5 -37.5t15.5 -30t29 -19.5t46 -7q48 0 80.5 25t51.5 63t27 81.5t8 81.5q0 21 -4.5 38.5t-15 31t-28.5 21t-45 7.5q-40 0 -67.5 -15.5t-45.5 -41t-28.5 -57t-17.5 -64.5z" />
    <glyph glyph-name="uni10DD" unicode="&#x10dd;" horiz-adv-x="803" 
d="M413 274q4 17 5.5 33t2.5 30q0 38 -19.5 61.5t-70.5 23.5q-40 0 -66 -15t-42.5 -40t-25.5 -56t-16 -64q-4 -19 -6.5 -37t-2.5 -35q0 -22 5 -40.5t17.5 -32t33.5 -21.5t53 -8l-40 -87q-47 3 -78 17t-50.5 37t-27.5 53t-8 64q0 41 11 90q10 49 28 96t48 83.5t75 58.5
t109 22q66 0 98.5 -23t43.5 -63q29 39 70.5 62.5t108.5 23.5q47 0 78 -12t50 -33.5t26.5 -50.5t7.5 -62q0 -56 -14 -118t-46.5 -115t-85 -89.5t-129.5 -40.5l-3 87q44 0 74 15t50 39.5t31 55.5t18 64q5 23 8.5 46t3.5 43q0 18 -4 34t-14 27.5t-27 18t-43 6.5
q-36 0 -60 -11.5t-40.5 -31.5t-26.5 -47t-17 -58l-23 -105h-93z" />
    <glyph glyph-name="uni10DE" unicode="&#x10de;" horiz-adv-x="503" 
d="M300 418h73q15 0 30 5.5t27 16.5t20 28t8 41q0 22 -14 34t-35 19t-46 12t-46 14t-35 24t-14 43q0 11 3 26l7 31h91l-5 -24v-4q0 -11 14 -16.5t35.5 -11t46 -12.5t46 -20.5t35.5 -35t14 -55.5q0 -61 -24.5 -100t-53.5 -55q25 -12 37 -34t12 -50q0 -15 -3 -30l-11 -50
q-16 -72 -43.5 -116t-63 -69t-76.5 -33.5t-83 -8.5q-45 0 -77.5 13t-53.5 35.5t-31.5 52.5t-10.5 64q0 56 20 103.5t51 96.5l71 -46q-20 -38 -34 -72.5t-14 -72.5q0 -42 24.5 -65t82.5 -23q36 0 60.5 10.5t41 29t26.5 44.5t17 57l9 41q1 4 1 13q0 24 -20.5 45t-69.5 21h-57z
" />
    <glyph glyph-name="uni10DF" unicode="&#x10df;" horiz-adv-x="621" 
d="M255 156q21 0 38 11.5t29 29.5t18.5 39.5t6.5 41.5q0 29 -13.5 52t-45.5 24l-46 -6l16 75l328 74h84l-104 -492q-12 -55 -38 -98t-62 -72t-79.5 -44.5t-89.5 -15.5q-51 0 -100 16.5t-103 51.5l60 81q24 -16 43 -28t36.5 -20t35 -12t39.5 -4q57 0 102.5 33.5t60.5 103.5
l89 418l-148 -33q17 -19 24 -45t7 -52q0 -39 -16 -77t-44 -68.5t-64.5 -49.5t-77.5 -19q-48 0 -78.5 12.5t-48 31.5t-24.5 42.5t-7 46.5q0 26 7 49t24 54l68 -44q-6 -19 -7.5 -27.5t-1.5 -18.5q0 -18 7 -29.5t18 -18.5t26 -10t31 -3z" />
    <glyph glyph-name="uni10E0" unicode="&#x10e0;" horiz-adv-x="803" 
d="M413 273q4 19 6.5 36t2.5 33q0 35 -17.5 57.5t-65.5 22.5q-45 0 -76.5 -24.5t-51.5 -61t-29 -78.5t-9 -76q0 -19 4.5 -38.5t16.5 -35t33 -25.5t54 -10l-40 -86q-46 3 -77 17.5t-49.5 38.5t-26.5 55.5t-8 66.5q0 23 2.5 47.5t8.5 49.5l9 40q21 98 54 166.5t75 113t89.5 69
t97 36.5t98.5 14.5t94 2.5h118l-16 -78h-149q-53 0 -103 -7.5t-92.5 -26t-77 -50.5t-56.5 -81q26 21 57 33.5t67 12.5q33 0 56 -6.5t39 -17.5t25 -27t14 -35q29 39 70.5 62.5t108.5 23.5q48 0 79.5 -11t50.5 -30.5t27 -47t8 -59.5q0 -35 -6 -75t-20 -80.5t-35.5 -78
t-52.5 -67.5t-71.5 -49t-92.5 -22l-3 86q57 0 93.5 30.5t57 73.5t28.5 89t8 77q0 35 -18.5 57t-71.5 22q-36 0 -60 -12t-40.5 -32t-26.5 -47.5t-17 -57.5l-23 -104h-93z" />
    <glyph glyph-name="uni10E1" unicode="&#x10e1;" horiz-adv-x="495" 
d="M250 -13q-81 0 -122.5 41.5t-41.5 118.5q0 35 9 77l102 480h94l-102 -480q-3 -16 -5 -29.5t-2 -25.5q0 -50 23 -73t61 -23q36 0 64.5 17t47.5 45t29 64.5t10 74.5q0 49 -13.5 100t-36.5 93l93 48q25 -54 39 -113.5t14 -113.5q0 -34 -6 -62q-14 -62 -41 -107.5t-62 -74.5
t-75 -43t-79 -14z" />
    <glyph glyph-name="uni10E2" unicode="&#x10e2;" horiz-adv-x="713" 
d="M401 205l-46 -218h-93l82 387q8 39 28.5 70t49 52.5t62.5 32.5t70 11q63 0 104.5 -33t41.5 -95q0 -51 -28.5 -93t-73.5 -67q27 -15 45.5 -33t29 -37.5t15 -40.5t4.5 -42q0 -65 -26.5 -123.5t-74.5 -103t-114.5 -71t-145.5 -26.5q-72 0 -124.5 18.5t-86 53t-50 82.5
t-16.5 107q0 46 11 101.5t33.5 117t56.5 126.5t80 131l78 -45q-40 -59 -71 -117.5t-52 -113t-32 -103t-11 -86.5q0 -85 47.5 -136t150.5 -51q48 0 93 17.5t80.5 47.5t57 69.5t21.5 83.5q0 22 -7.5 44.5t-23.5 41t-39.5 30t-56.5 11.5h-69zM419 290h73q18 0 38.5 5t37.5 16.5
t28.5 31.5t11.5 50q0 31 -20 49t-51 18q-35 0 -63.5 -24t-36.5 -62z" />
    <glyph glyph-name="uni10E3" unicode="&#x10e3;" horiz-adv-x="574" 
d="M332 217h-93l29 136q1 5 1.5 9.5t0.5 9.5q0 26 -14.5 38t-33.5 12h-109l18 85h118q37 0 58.5 -12t29.5 -46q27 27 62 42.5t72 15.5q56 0 90.5 -34.5t34.5 -86.5q0 -8 -1 -16.5t-3 -17.5l-77 -363q-10 -48 -36 -87t-62 -67.5t-80 -44t-91 -15.5q-41 0 -75 12t-59 33.5
t-38.5 52.5t-13.5 69q0 47 24 99t62 97l72 -48q-16 -15 -28 -34t-20 -37.5t-12 -35.5t-4 -29q0 -44 31 -68.5t79 -24.5q27 0 52.5 8.5t47 24t36.5 37.5t21 49l79 372q1 5 1 14q0 23 -15.5 39.5t-40.5 16.5q-29 0 -54 -20.5t-31 -49.5z" />
    <glyph glyph-name="uni10E4" unicode="&#x10e4;" horiz-adv-x="797" 
d="M730 293q4 20 4 41q0 44 -21.5 66.5t-53.5 22.5q-20 0 -40.5 -8.5t-39 -25.5t-33 -41.5t-21.5 -57.5l-9 -43q-11 -54 -32 -101t-53.5 -82.5t-78 -56t-106.5 -20.5q-48 0 -80.5 13t-52 35.5t-28 52.5t-8.5 65q0 57 14.5 119.5t47.5 114.5t86.5 86t130.5 34q68 0 102 -24.5
t45 -65.5q35 48 82.5 69t99.5 21q30 0 56.5 -9.5t46 -29t31 -48t11.5 -66.5q0 -81 -30.5 -141t-87.5 -86q22 -14 39 -35t17 -48q0 -5 -0.5 -8.5t-1.5 -8.5l-14 -68q-11 -51 -39 -86.5t-67.5 -57t-86 -31t-93.5 -9.5q-63 0 -121.5 18.5t-97.5 53.5l65 68q12 -11 30 -21
t40 -17.5t46.5 -11.5t47.5 -4q31 0 61 4t54.5 15t42.5 30.5t25 51.5l11 49q1 3 1 10q0 25 -22 43t-54 18h-54l18 83h55q54 0 78.5 34t37.5 94zM422 247q5 21 7.5 41.5t2.5 39.5q0 20 -4.5 37.5t-15 30t-28.5 20t-45 7.5q-48 0 -80.5 -25.5t-52 -63.5t-28 -82t-8.5 -81
q0 -21 4.5 -38.5t15 -31t29 -21t45.5 -7.5q40 0 67 15t45 39.5t28.5 55.5t17.5 64z" />
    <glyph glyph-name="uni10E5" unicode="&#x10e5;" horiz-adv-x="489" 
d="M497 704h93l-147 -692q-16 -75 -41 -121t-57.5 -72t-70.5 -35t-80 -9q-80 0 -122 46t-42 121q0 43 15 94t50 106l69 -45q-19 -35 -29.5 -71.5t-10.5 -68.5q0 -42 21.5 -69t70.5 -27q22 0 42.5 6.5t37.5 23.5t30.5 46t23.5 75l62 291q2 7 2 12.5v11.5q0 41 -29.5 60
t-68.5 19q-41 0 -77.5 -25.5t-84.5 -70.5l24 110q24 18 42.5 31.5t36.5 22t37 13t43 4.5q27 0 58.5 -8t49.5 -23z" />
    <glyph glyph-name="uni10E6" unicode="&#x10e6;" horiz-adv-x="815" 
d="M399 154l26 119q3 16 5 31t2 29q0 38 -19 63.5t-70 25.5q-41 0 -67 -16t-42.5 -42.5t-26.5 -61.5t-18 -72q-9 -44 -9 -84q0 -65 22.5 -118.5t65 -92.5t104.5 -60.5t141 -21.5h68l-15 -73h-70q-95 0 -171 24t-129.5 68.5t-82.5 108.5t-29 145q0 48 12 104q13 63 33.5 114
t52 87t75 56t103.5 20q66 0 98 -22.5t43 -61.5q32 44 79 64t101 20q47 0 78 -12t50 -33.5t26.5 -50.5t7.5 -62q0 -38 -9.5 -84.5t-29 -94.5t-50 -96t-72.5 -89l-68 44q38 34 64 76.5t42 85t23 81t7 64.5q0 19 -4 35t-14 27.5t-27 18t-43 6.5q-36 0 -60.5 -12.5t-41 -33.5
t-26.5 -48t-16 -56l-26 -119h-93z" />
    <glyph glyph-name="uni10E7" unicode="&#x10e7;" horiz-adv-x="511" 
d="M446 -40q-10 -46 -34 -80.5t-56.5 -58t-71 -35t-77.5 -11.5q-47 0 -91.5 17.5t-76.5 53.5l24 113q29 -45 73 -71.5t86 -26.5q45 0 83 25t50 80l26 120q-31 -23 -65 -33t-74 -10q-44 0 -74.5 11t-49.5 30.5t-27.5 46t-8.5 58.5q0 37 10.5 78.5t29 84t43 84t51.5 77.5
l69 -46q-18 -25 -37 -57.5t-34.5 -67t-26 -69t-10.5 -63.5q0 -35 19 -58.5t67 -23.5q21 0 43 7.5t42.5 23.5t38 39.5t29.5 55.5l51 239h92z" />
    <glyph glyph-name="uni10E8" unicode="&#x10e8;" horiz-adv-x="534" 
d="M284 583q1 5 1.5 9t0.5 8q0 16 -10.5 21t-29.5 5h-97l18 86h99q37 0 56 -11t27 -44q28 34 62.5 44t68.5 10q25 0 48.5 -8t41 -23t28 -36.5t10.5 -48.5q0 -16 -3 -32l-69 -324q-14 -63 -42.5 -110.5t-66 -79t-80 -47t-83.5 -15.5q-35 0 -66.5 11.5t-55 34t-37.5 56.5
t-14 79q0 74 26 133.5t65.5 101.5t87.5 64.5t93 22.5q35 0 68 -11.5t54 -43.5l29 135q1 4 1 11q0 23 -18.5 34t-41.5 11q-13 0 -25.5 -2t-23.5 -7.5t-18.5 -14t-10.5 -20.5l-10 -49h-93zM443 238q6 30 6 54q0 55 -26.5 84t-68.5 29q-29 0 -59 -15.5t-54.5 -44.5t-40 -71.5
t-15.5 -96.5q0 -51 24 -77.5t74 -26.5q63 0 103 42.5t57 122.5z" />
    <glyph glyph-name="uni10E9" unicode="&#x10e9;" horiz-adv-x="519" 
d="M160 528q10 46 34 80.5t57 57.5t72 34.5t78 11.5q85 0 127 -30.5t42 -78.5q0 -22 -7 -44.5t-23.5 -43.5t-44 -39.5t-67.5 -31.5l-33 68q27 6 43 14t24.5 17.5t11 19.5t2.5 19q0 20 -22 32t-70 12q-45 0 -82 -22t-49 -77l-29 -134q36 26 75 38t71 12q34 0 64.5 -11.5
t52.5 -33t35 -53t13 -71.5q0 -36 -12 -76t-34 -79.5t-51.5 -77t-63.5 -67.5l-51 63q24 21 45 49t37.5 58t26 59.5t9.5 53.5q0 53 -29 77t-68 24q-23 0 -47 -7.5t-45 -21t-37 -33.5t-21 -45l-53 -251h-93z" />
    <glyph glyph-name="uni10EA" unicode="&#x10ea;" horiz-adv-x="668" 
d="M387 259h101q22 0 40.5 7.5t32 19t21.5 26.5t8 30q0 21 -13 39.5t-33 34.5t-43 30t-44 25l78 48q20 -9 46 -23t49.5 -34.5t39.5 -46.5t16 -58q0 -18 -6 -39.5t-19 -42t-32.5 -38.5t-46.5 -29q27 -20 39 -49.5t12 -64.5q0 -73 -30.5 -132t-78 -100.5t-106 -64
t-115.5 -22.5q-63 0 -110 19t-77.5 53.5t-46 82.5t-15.5 105q0 103 49.5 223t158.5 254l76 -47q-47 -48 -82 -102t-59 -108t-36 -106.5t-12 -98.5q0 -50 13 -86t35.5 -59t52.5 -34t63 -11q56 0 98 20.5t70 51.5t42 67.5t14 68.5q0 45 -24.5 76t-73.5 31h-70z" />
    <glyph glyph-name="uni10EB" unicode="&#x10eb;" horiz-adv-x="512" 
d="M516 247q-11 -49 -30 -96t-51 -83.5t-78 -58.5t-110 -22q-48 0 -81 13t-52.5 35.5t-28 53t-8.5 65.5q0 57 15 119.5t48 114.5t86.5 85.5t130.5 33.5q41 0 68.5 -14.5t41.5 -37.5l18 86q3 13 3 25q0 23 -10 40t-27 28l41 83q41 -18 66 -51.5t25 -81.5q0 -21 -4 -40z
M423 247q4 20 7 40t3 39q0 20 -4.5 37.5t-15 30.5t-29 20.5t-45.5 7.5q-49 0 -81 -25.5t-51.5 -63.5t-27.5 -82t-8 -81q0 -21 4.5 -38.5t15 -30.5t29 -20.5t45.5 -7.5q39 0 66.5 15t45.5 39.5t28.5 55.5t17.5 64z" />
    <glyph glyph-name="uni10EC" unicode="&#x10ec;" horiz-adv-x="535" 
d="M483 521h-92l12 55q1 3 1 9q0 20 -17.5 30.5t-40.5 10.5q-27 0 -52.5 -13.5t-31.5 -42.5l-32 -151q32 27 68.5 41t72.5 14q84 0 128 -37.5t44 -119.5q0 -40 -10 -87q-27 -128 -97 -185.5t-173 -57.5q-85 0 -131 37.5t-46 121.5q0 40 10 84l71 334q7 34 26.5 61.5t46 47
t57 29.5t59.5 10q32 0 60.5 -11t44.5 -40q22 32 50 41.5t59 9.5h100l-18 -86h-106q-14 0 -28.5 -6t-19.5 -29zM189 230q-7 -31 -7 -59q0 -98 99 -98q126 0 159 157q6 28 6 52q0 54 -27.5 80.5t-70.5 26.5q-26 0 -51 -10t-46 -29.5t-37 -49.5t-25 -70z" />
    <glyph glyph-name="uni10ED" unicode="&#x10ed;" horiz-adv-x="591" 
d="M220 -139q24 0 47.5 6t43.5 21.5t36 42.5t25 68l41 193q-26 -23 -56.5 -33.5t-57.5 -10.5q-32 0 -59.5 8.5t-48 25t-32.5 40.5t-12 55q0 37 15.5 75.5t45.5 70t74 52t101 20.5h95l44 209h93l-44 -209h101l-19 -86h-101l-87 -411q-13 -62 -39 -105t-60.5 -69t-74 -37.5
t-79.5 -11.5q-41 0 -75 9.5t-59 29t-38.5 48.5t-13.5 69q0 41 14.5 86t46.5 102l71 -47q-20 -36 -28.5 -67t-8.5 -54q0 -49 29 -69.5t70 -20.5zM321 233q17 0 36 5t35.5 14t28.5 22.5t16 30.5l22 104h-82q-34 0 -59 -11t-42 -27.5t-25.5 -36.5t-8.5 -38q0 -26 20 -44.5
t59 -18.5z" />
    <glyph glyph-name="uni10EE" unicode="&#x10ee;" horiz-adv-x="512" 
d="M197 704h93l-51 -240q25 20 56 31.5t74 11.5q49 0 81.5 -13t52 -35.5t28 -53t8.5 -65.5q0 -57 -15 -119.5t-48 -114.5t-86.5 -85.5t-130.5 -33.5q-48 0 -81 13t-52.5 35.5t-28 52.5t-8.5 65q0 43 11 93zM193 246q-5 -20 -7.5 -40t-2.5 -39q0 -20 4.5 -37t15 -30t29 -20
t45.5 -7q48 0 80.5 25.5t52 63.5t27.5 81.5t8 80.5q0 21 -4.5 38.5t-15 31t-29 21t-45.5 7.5q-40 0 -67 -15.5t-45 -40t-28.5 -56t-17.5 -64.5z" />
    <glyph glyph-name="uni10EF" unicode="&#x10ef;" horiz-adv-x="502" 
d="M170 415h129l31 147h94l-31 -147h129l-18 -85h-129l-17 -78q-1 -4 -1.5 -7t-0.5 -7q0 -23 16.5 -43.5t45.5 -49.5q26 -26 37.5 -56.5t11.5 -62.5q0 -45 -21.5 -90t-56.5 -80.5t-81 -58t-95 -22.5q-98 0 -141.5 42.5t-43.5 112.5q0 35 10.5 86.5t50.5 123.5l74 -49
q-24 -46 -31.5 -77.5t-7.5 -56.5q0 -42 24 -69t80 -27q33 0 59.5 13t45 34t28.5 47t10 52q0 34 -17.5 57.5t-38.5 44.5t-38.5 45t-17.5 60q0 16 4 31l18 85h-129z" />
    <glyph glyph-name="uni10F0" unicode="&#x10f0;" horiz-adv-x="499" 
d="M254 619v85h193q50 0 80.5 -29.5t30.5 -72.5q0 -30 -17 -58.5t-46 -48.5q14 -11 20.5 -27.5t6.5 -33.5q0 -26 -16 -54.5t-46 -46.5q15 -11 26.5 -31.5t11.5 -55.5q0 -23 -6 -51q-11 -53 -30 -92t-48 -64.5t-70.5 -38.5t-97.5 -13q-86 0 -130.5 37.5t-44.5 112.5
q0 76 44 167l85 -24q-20 -42 -27 -72t-7 -54q0 -44 25.5 -62.5t82.5 -18.5q34 0 56 10t35.5 28t21.5 43t14 56q3 15 3 27q0 29 -13.5 41.5t-27.5 12.5h-96l18 84h96q18 0 32 15.5t14 32.5q0 13 -8 22t-21 9h-96l18 84h96q17 0 31.5 14.5t14.5 32.5q0 14 -9 24t-24 10h-175z
" />
    <glyph glyph-name="uni10F1" unicode="&#x10f1;" horiz-adv-x="668" 
d="M172 415q7 27 18 60t26 66t34.5 64.5t42.5 55.5t51 38.5t60 14.5q36 0 60.5 -21t24.5 -63q0 -48 -23 -89.5t-58.5 -75t-78.5 -58.5t-84 -41l-1 -5q-12 -53 -12 -105q0 -37 8 -70.5t27.5 -58.5t52 -39.5t80.5 -14.5q39 0 72.5 7t58 21t39 34t14.5 47q0 19 -10 33t-28 23.5
t-43 15.5t-54 11l18 85q35 -9 55.5 -13t29.5 -4t19.5 2.5t19.5 8t15 14.5t6 23q0 26 -34 41.5t-89 29.5l17 83q60 -21 92 -21q17 0 28 12.5t11 31.5q0 11 -6 20t-20 20l-79 56l20 96l109 -79q30 -22 46 -49t16 -56q0 -32 -14.5 -58.5t-37.5 -43.5q14 -16 20.5 -34t6.5 -36
q0 -29 -17.5 -58.5t-44.5 -50.5q34 -32 34 -85q0 -47 -23 -86.5t-62 -67.5t-91.5 -43.5t-111.5 -15.5q-69 0 -114.5 21t-72.5 55.5t-38.5 80t-11.5 94.5q0 23 2 46.5t6 46.5l-51 -19l17 83zM385 635q-14 0 -30 -14t-31.5 -39t-30 -58t-25.5 -72q28 14 52.5 32.5t43 39.5
t29 44t10.5 47q0 20 -18 20z" />
    <glyph glyph-name="uni10F2" unicode="&#x10f2;" horiz-adv-x="417" 
d="M377 -18q-29 3 -51.5 6.5t-42 8t-37 11t-35.5 14.5q-42 -14 -86.5 -25t-93.5 -16l18 82q25 1 46 3t40 7q-22 17 -37 42t-15 63q0 44 16.5 82.5t44.5 67t66 44.5t80 16q65 0 100 -34t35 -91q0 -36 -10 -65t-25.5 -52.5t-36 -41t-41.5 -29.5q20 -5 40.5 -9t40.5 -5z
M175 223q-3 -14 -3 -25q0 -55 59 -88q51 23 79 57t28 79q0 28 -16 45.5t-49 17.5q-39 0 -64.5 -24.5t-33.5 -61.5zM227 108l-4 -23q1 0 1.5 0.5t1.5 0.5q2 0 2.5 -0.5t1.5 -0.5l4 23h-7z" />
    <glyph glyph-name="uni10F3" unicode="&#x10f3;" horiz-adv-x="440" 
d="M302 156q30 -1 49.5 -10t31 -24.5t16.5 -36.5t5 -45q0 -20 -2.5 -42t-7.5 -44q-11 -50 -26 -94.5t-41.5 -77.5t-68.5 -52.5t-106 -19.5q-76 0 -111.5 35t-35.5 91q0 60 29.5 110.5t86.5 90.5l42 -49q-31 -26 -49.5 -58.5t-18.5 -66.5t22.5 -53.5t57.5 -19.5q32 0 54 11.5
t37 32.5t25 51.5t18 68.5q7 32 7 60q0 66 -50 66q-12 0 -28.5 -7t-34.5 -24l-41 47l158 196h-183l17 80h322z" />
    <glyph glyph-name="uni10F4" unicode="&#x10f4;" horiz-adv-x="444" 
d="M170 122q34 0 67 8t58.5 23t41 36.5t15.5 47.5q0 23 -15.5 41t-34.5 32q-61 38 -95.5 83t-34.5 105q0 42 14.5 84t41 76t63.5 55t81 21q56 0 88.5 -27.5t32.5 -73.5q0 -40 -31.5 -85t-88.5 -73l-38 51q32 17 50.5 40t18.5 51q0 20 -14 28.5t-32 8.5q-15 0 -32 -9
t-32 -26.5t-24.5 -42.5t-9.5 -57q0 -21 6 -37t17.5 -29.5t26.5 -25.5t33 -24q22 -16 40.5 -31t32 -31t20.5 -34.5t7 -40.5q0 -18 -5.5 -41t-18.5 -47t-35 -46.5t-56 -39.5q33 -17 50 -49t17 -75q0 -53 -19.5 -100t-52.5 -82t-77 -55.5t-93 -20.5q-38 0 -65.5 10t-46 27.5
t-27.5 40.5t-9 50q0 41 18.5 78t63.5 73l43 -39q-20 -26 -28 -49t-8 -41q0 -29 18.5 -49.5t55.5 -20.5q31 0 57 14t44.5 36.5t28.5 51t10 58.5q0 39 -27.5 65t-91.5 26q-1 0 -2 -0.5t-3 -0.5h-31z" />
    <glyph glyph-name="uni10F5" unicode="&#x10f5;" horiz-adv-x="523" 
d="M370 369h-71q-73 0 -112.5 36t-39.5 97q0 51 18.5 91t49 68t70 42.5t81.5 14.5q62 0 96.5 -31.5t34.5 -87.5q0 -19 -5 -44l-22 -106h112l-17 -80h-112l-8 -37h112l-17 -79h-112l-23 -108q-8 -38 -26 -68t-43.5 -51t-57.5 -32t-68 -11q-68 0 -107.5 33.5t-39.5 94.5
q0 47 18 87.5t49 70t72.5 46.5t88.5 17h71zM287 253q-17 0 -40 -4t-44.5 -17.5t-36.5 -38t-15 -64.5q0 -32 20 -49t56 -17q25 0 42 8t28 21t17 27.5t9 28.5l22 105h-58zM409 553q3 12 3 27q0 22 -12.5 40t-50.5 18q-30 0 -51.5 -10.5t-35.5 -27.5t-20.5 -38t-6.5 -42
q0 -23 9 -36.5t22.5 -21.5t30 -10.5t32.5 -2.5h58z" />
    <glyph glyph-name="uni10F6" unicode="&#x10f6;" horiz-adv-x="660" 
d="M408 562q2 12 3.5 22.5t1.5 19.5q0 50 -40 50q-26 0 -48 -27t-32 -73h-78q10 45 29 78.5t43 56t51.5 34t54.5 11.5q20 0 39 -5t33.5 -17t23.5 -32.5t9 -52.5q0 -14 -2 -30t-6 -35l-43 -202q42 28 90 28q32 0 56.5 -12t41.5 -32t25.5 -47.5t8.5 -58.5q0 -56 -20.5 -103
t-52.5 -81t-70.5 -52.5t-74.5 -18.5q-22 0 -43 8t-35 22l-28 -131q-2 -12 -3.5 -22t-1.5 -19q0 -51 41 -51q25 0 46.5 27t31.5 74h80q-9 -44 -27.5 -77.5t-43 -56.5t-52.5 -35t-56 -12q-20 0 -39 5t-33.5 17t-23.5 32.5t-9 52.5q0 14 2 30t6 35l28 130q-20 -14 -43 -21.5
t-46 -7.5q-60 0 -96.5 41t-36.5 109q0 52 18.5 98.5t49.5 81.5t70 55t81 20q48 0 77 -26zM219 63q16 0 35.5 11t37 32t29 51t11.5 68t-16.5 61t-44.5 23q-24 0 -45 -15.5t-36.5 -39t-24 -52t-8.5 -54.5q0 -36 15.5 -60.5t46.5 -24.5zM468 63q24 0 44.5 15.5t35.5 39t24 52
t9 54.5q0 35 -15 60t-46 25q-20 0 -40.5 -12.5t-37 -34.5t-26.5 -51t-10 -62q0 -42 18.5 -64t43.5 -22z" />
    <glyph glyph-name="uni10F7" unicode="&#x10f7;" horiz-adv-x="451" 
d="M180 129q-46 39 -46 95q0 35 14.5 65t38.5 52t54 34.5t61 12.5q24 0 46 -5.5t39 -18.5t27 -33t10 -48q0 -19 -4 -38q-9 -41 -25.5 -70.5t-40 -52t-53 -40.5t-65.5 -37q-25 -14 -50 -29t-45 -35.5t-32.5 -48t-12.5 -64.5q0 -33 21 -55.5t69 -22.5q53 0 87 34t34 91
q0 40 -26 73l61 47q26 -23 39 -53.5t13 -60.5q0 -15 -3 -30q-10 -46 -32 -80t-52 -56.5t-66.5 -33.5t-73.5 -11q-41 0 -71 11t-49.5 29.5t-28.5 44t-9 55.5q0 11 1.5 23t3.5 24q12 54 38 91t58.5 63.5t69 46t68 40t55 45t31.5 60.5q2 10 2 17q0 17 -9.5 33t-37.5 16
q-31 0 -50.5 -23.5t-19.5 -50.5q0 -14 4 -28.5t14 -30.5z" />
    <glyph glyph-name="uni10F8" unicode="&#x10f8;" horiz-adv-x="444" 
d="M201 388l-14 -64q-4 -16 -5 -29.5t-1 -24.5q0 -45 19 -62.5t48 -17.5q24 0 43.5 9t32.5 24.5t20 35.5t7 41q0 15 -3 32t-11 38l78 32q21 -59 21 -103q0 -45 -18.5 -80t-48 -59.5t-66 -37t-71.5 -12.5q-52 0 -84 28l-50 -233q-2 -11 -3.5 -21t-1.5 -19q0 -75 83 -75
q27 0 50 10t39.5 26.5t25.5 37.5t9 44q0 21 -9 40t-26 39l61 53q60 -45 60 -119q0 -50 -19.5 -89.5t-52 -66.5t-73 -41t-82.5 -14q-151 0 -151 130q0 28 8 66l102 482h83z" />
    <glyph glyph-name="uni10F9" unicode="&#x10f9;" 
 />
    <glyph glyph-name="uni10FA" unicode="&#x10fa;" 
 />
    <glyph glyph-name="uni10FB" unicode="&#x10fb;" horiz-adv-x="418" 
d="M280 228q5 26 27.5 44.5t48.5 18.5q23 0 37 -14.5t14 -36.5q0 -15 -6.5 -28.5t-17.5 -24t-25 -16.5t-28 -6q-23 0 -37 14.5t-14 35.5v6.5t1 6.5zM64 50q5 26 28 44.5t49 18.5q22 0 36 -14t14 -35q0 -15 -6.5 -29t-17.5 -24.5t-24.5 -17t-28.5 -6.5q-23 0 -37 14t-14 36
q0 8 1 13zM140 406q5 26 27.5 44.5t48.5 18.5q23 0 36.5 -14.5t13.5 -35.5q0 -15 -6.5 -28.5t-17 -24t-24.5 -16.5t-28 -6q-23 0 -37 14t-14 35v6.5t1 6.5z" />
    <glyph glyph-name="uni10FC" unicode="&#x10fc;" 
 />
    <glyph glyph-name="uni10FD" unicode="&#x10fd;" 
 />
    <glyph glyph-name="uni10FE" unicode="&#x10fe;" 
 />
    <glyph glyph-name="uni10FF" unicode="&#x10ff;" 
 />
    <glyph glyph-name="uni1C90" unicode="&#x1c90;" horiz-adv-x="500" 
d="M179 240q-5 -20 -6.5 -37t-1.5 -32q0 -48 21.5 -73.5t66.5 -25.5q33 0 61.5 16t50.5 47t34.5 75t12.5 100q0 50 -12 97.5t-29.5 92t-36.5 85.5t-33 78l82 47l29 -65v1q15 -33 31.5 -71.5t30 -80.5t22.5 -86.5t9 -89.5q0 -75 -22.5 -135.5t-60 -104t-86.5 -67t-101 -23.5
q-81 0 -122 45t-41 125q0 52 16 102.5t46 101.5h98q-23 -29 -38 -60.5t-21 -61.5z" />
    <glyph glyph-name="uni1C91" unicode="&#x1c91;" horiz-adv-x="500" 
d="M514 237q-11 -49 -30 -94.5t-50.5 -80t-77 -55t-109.5 -20.5q-49 0 -82 12t-53 33.5t-28.5 51t-8.5 63.5q0 51 13.5 111.5t43.5 114t78.5 91.5t118.5 44l19 89h-19q-25 0 -44.5 1.5t-33.5 6.5t-21.5 14.5t-7.5 26.5q0 10 3 24l9 42h92l-5 -24q-1 -2 -1 -6q0 -5 4.5 -8.5
t18.5 -3.5h186l29 -73h-118l-20 -95q58 -20 81 -67.5t23 -107.5q0 -22 -2.5 -44.5t-7.5 -45.5zM421 237q5 21 7.5 43t2.5 42q0 21 -4 39t-14.5 31.5t-28 21.5t-44.5 8q-49 0 -82 -27.5t-52.5 -67.5t-27.5 -84.5t-8 -78.5q0 -20 4.5 -36.5t15.5 -28.5t29 -19t46 -7
q39 0 66 13.5t44.5 36t28 52t17.5 62.5z" />
    <glyph glyph-name="uni1C92" unicode="&#x1c92;" horiz-adv-x="547" 
d="M407 712q75 0 110.5 -36t35.5 -92q0 -61 -45 -136q33 -22 47.5 -56.5t14.5 -77.5q0 -58 -19 -116.5t-56.5 -105t-93.5 -76t-130 -29.5q-52 0 -88.5 14t-60 39t-34 57.5t-10.5 70.5q0 61 20 117t58.5 99t95 69t130.5 26q24 0 45 -3q15 27 23 50t8 43q0 26 -16.5 42
t-55.5 16q-42 0 -93.5 -25.5t-99.5 -70.5l24 110q93 71 190 71zM468 239q2 11 3.5 22.5t1.5 23.5q0 21 -5 40.5t-17.5 34.5t-33.5 24.5t-53 9.5q-47 0 -82.5 -17t-59.5 -45.5t-36.5 -66t-12.5 -77.5q0 -24 6 -45.5t20 -37t36 -24.5t54 -9q40 0 70.5 14t52 37t35.5 53t21 63z
" />
    <glyph glyph-name="uni1C93" unicode="&#x1c93;" horiz-adv-x="804" 
d="M369 627q-36 0 -60.5 -13t-41 -38t-28 -60.5t-20.5 -80.5q-9 -42 -9 -81q0 -63 23.5 -112.5t67 -84.5t106.5 -53.5t142 -18.5h68l-18 -85h-70q-95 0 -171.5 22t-130.5 65t-83 104.5t-29 141.5q0 24 2.5 49.5t8.5 52.5q14 64 34 115.5t50.5 87.5t73 55t102.5 19
q67 0 96.5 -18t38.5 -56q29 38 71.5 56t110.5 18q49 0 82 -11.5t53.5 -32t29 -49t8.5 -62.5q0 -60 -15 -119.5t-48 -107.5t-86 -77.5t-128 -29.5q-49 0 -82 11.5t-53.5 32.5t-29 50t-8.5 64q0 20 3.5 42.5l7 45t7 44t3.5 40.5q0 32 -16 53t-62 21zM530 467
q-5 -19 -7.5 -36.5t-2.5 -34.5q0 -38 20.5 -62.5t76.5 -24.5q39 0 65.5 12.5t44 34t28 50.5t17.5 61q4 19 6.5 36.5t2.5 34.5q0 39 -20.5 64t-76.5 25q-40 0 -66.5 -13t-43.5 -35t-27 -51t-17 -61z" />
    <glyph glyph-name="uni1C94" unicode="&#x1c94;" horiz-adv-x="489" 
d="M239 -13q-81 0 -124.5 41t-43.5 114q0 41 17 96t54 118l71 -45q-23 -43 -35 -83.5t-12 -69.5q0 -41 22 -63t72 -22q22 0 42.5 7t38 24t31.5 46t23 74l64 300q3 16 3 31q0 38 -22.5 55t-60.5 17q-21 0 -45 -8t-49.5 -21.5t-51 -32.5t-48.5 -41l25 117q93 71 190 71
q34 0 63 -8.5t50 -26t33 -43.5t12 -60q0 -11 -1.5 -22.5t-3.5 -24.5l-63 -296q-15 -72 -40.5 -119.5t-58.5 -75t-71.5 -38.5t-80.5 -11z" />
    <glyph glyph-name="uni1C95" unicode="&#x1c95;" horiz-adv-x="515" 
d="M298 443h65q20 0 40.5 8t37 23.5t27 38t10.5 52.5q0 37 -27 49.5t-66 12.5q-42 0 -94 -23t-99 -66l25 119q38 24 88.5 39.5t100.5 15.5q43 0 74.5 -10.5t52 -29t30.5 -43.5t10 -53q0 -17 -5.5 -38.5t-17 -44.5t-30 -45t-44.5 -39q54 -29 54 -92q0 -15 -3 -31l-16 -76
q-13 -62 -39.5 -105t-60.5 -69t-74 -37.5t-80 -11.5q-82 0 -133 41t-51 121q0 45 18 98t56 110l71 -47q-27 -42 -38.5 -77.5t-11.5 -64.5q0 -49 28.5 -72t68.5 -23q24 0 47.5 6t43.5 21.5t36 42.5t25 68l16 73q1 5 1 15q0 24 -16.5 45.5t-55.5 21.5h-81z" />
    <glyph glyph-name="uni1C96" unicode="&#x1c96;" horiz-adv-x="687" 
d="M141 496q12 56 37.5 96.5t58.5 67t70.5 39.5t72.5 13q28 0 54 -8t45 -23.5t30.5 -38.5t11.5 -52q0 -21 -6 -42.5t-14 -42.5q22 5 44 5q48 0 80.5 -13t52 -36t28 -53.5t8.5 -64.5q0 -58 -15 -120.5t-48 -115t-86.5 -86.5t-130.5 -34q-48 0 -80.5 13t-52 35.5t-28 52.5
t-8.5 65q0 34 6.5 73.5t20.5 69.5q-21 -6 -41 -6q-51 0 -84.5 35.5t-33.5 104.5q0 28 8 66zM610 247q5 21 8 42t3 41q0 40 -18.5 67.5t-68.5 27.5q-45 0 -78 -24.5t-54.5 -62t-32.5 -82.5t-11 -85q0 -21 4.5 -38.5t15 -31t29 -21t45.5 -7.5q40 0 67 15t45 39.5t28.5 55.5
t17.5 64zM413 522q3 13 4 24t1 20q0 20 -5.5 32t-14.5 18.5t-20.5 8.5t-24.5 2q-17 0 -34.5 -6t-33.5 -20.5t-29.5 -40t-21.5 -64.5q-8 -34 -8 -59q0 -27 13 -44.5t50 -17.5q28 0 49 13.5t36 35t24.5 47.5t14.5 51z" />
    <glyph glyph-name="uni1C97" unicode="&#x1c97;" horiz-adv-x="844" 
d="M801 463q5 20 7.5 39.5t2.5 37.5q0 38 -18.5 62.5t-69.5 24.5q-38 0 -64 -15.5t-43 -41t-27.5 -57.5t-17.5 -65l-47 -220q-10 -46 -30 -89.5t-52 -77t-77.5 -54t-105.5 -20.5q-48 0 -81 13t-52.5 35.5t-28 52.5t-8.5 65q0 44 11 94l45 212q10 48 29.5 93.5t51.5 81t78 57
t109 21.5q67 0 100.5 -25t45.5 -65q26 41 69.5 65.5t113.5 24.5q46 0 77.5 -11.5t50.5 -32t27 -48.5t8 -61q0 -23 -3.5 -47.5t-8.5 -50.5l-45 -214q-10 -48 -29 -93t-50.5 -81t-76.5 -59.5t-107 -26.5l-4 86q45 0 75 15t49.5 39.5t31 55.5t18.5 64zM480 459q7 36 9 72
q0 20 -4.5 37.5t-15 30.5t-29 20.5t-45.5 7.5q-39 0 -65.5 -14t-44.5 -37.5t-29 -54t-18 -62.5l-45 -212q-5 -20 -7.5 -39.5t-2.5 -37.5q0 -21 4.5 -38.5t15 -30.5t29 -20.5t45.5 -7.5q39 0 66 15t45 39.5t29 55.5t18 64z" />
    <glyph glyph-name="uni1C98" unicode="&#x1c98;" horiz-adv-x="539" 
d="M495 453q8 37 8 68q0 22 -5 41t-16.5 33.5t-30.5 23t-48 8.5q-39 0 -67.5 -15t-48 -39.5t-31.5 -55.5t-19 -63l-48 -228q-3 -16 -5 -31t-2 -29q0 -32 10 -59.5t33 -44.5l-60 -75q-42 27 -60 69.5t-18 93.5q0 37 9 76l48 229q10 49 31 95t54.5 82t81 58t110.5 22
q49 0 82.5 -13.5t54.5 -37.5t30 -55.5t9 -67.5q0 -21 -2.5 -42t-7.5 -43l-48 -227q-8 -36 -22 -71t-35.5 -66.5t-50 -57.5t-64.5 -44l-25 76q44 26 69 70.5t36 92.5z" />
    <glyph glyph-name="uni1C99" unicode="&#x1c99;" horiz-adv-x="511" 
d="M316 454h57q18 0 37 4t34.5 15.5t25.5 32t10 52.5q0 40 -27 56.5t-67 16.5h-15l18 85q38 0 72 -8t60 -25t41 -43.5t15 -63.5q0 -33 -8.5 -59.5t-22.5 -47t-31.5 -34.5t-35.5 -22q62 -28 62 -88q0 -8 -1 -16t-3 -16l-18 -83q-14 -62 -40.5 -105t-61.5 -69t-75.5 -37.5
t-80.5 -11.5q-41 0 -76 9.5t-60 29t-39 49t-14 69.5q0 47 19.5 100.5t57.5 109.5l71 -47q-28 -39 -40.5 -77t-12.5 -66q0 -25 8.5 -42t22.5 -28t32.5 -16t38.5 -5q24 0 48 7t45 23.5t37.5 42.5t25.5 65l18 82q1 5 1 14q0 23 -16.5 42t-56.5 19h-73z" />
    <glyph glyph-name="uni1C9A" unicode="&#x1c9a;" horiz-adv-x="522" 
d="M229 439q-8 -39 -13 -75t-5 -68q0 -44 10.5 -81t33.5 -65.5t61 -47.5t94 -28l-18 -88q-78 9 -132 33.5t-87 63t-48 89t-15 110.5q0 40 6.5 87.5t21 95t37.5 92.5t57 79.5t79 55t103 20.5q47 0 80.5 -14.5t54.5 -39.5t31 -58.5t10 -71.5q0 -34 -7.5 -70.5t-21 -72.5
t-32.5 -70.5t-42 -62.5h-106q19 23 38.5 55.5t35.5 69t26.5 73t10.5 67.5q0 45 -22 77t-74 32q-24 0 -49.5 -12t-48.5 -35.5t-41 -58.5t-28 -81z" />
    <glyph glyph-name="uni1C9B" unicode="&#x1c9b;" horiz-adv-x="512" 
d="M516 247q-11 -49 -30 -96t-51 -83.5t-78 -58.5t-110 -22q-48 0 -81 13t-52.5 35.5t-28 53t-8.5 65.5q0 57 14.5 119.5t47.5 114.5t86 85.5t130 33.5q46 0 71.5 -10.5t42.5 -31.5l13 60q3 15 3 28q0 39 -25.5 56t-63.5 17q-47 0 -98.5 -16t-101.5 -61l23 109
q43 27 91 40.5t93 13.5q36 0 68.5 -9t56.5 -27t38 -45t14 -63q0 -21 -4 -41zM423 247q4 20 7 40t3 39q0 20 -4.5 37.5t-15 30.5t-29 20.5t-45.5 7.5q-49 0 -81 -25.5t-51.5 -63.5t-27.5 -82t-8 -81q0 -21 4.5 -38.5t15 -30.5t29 -20.5t45.5 -7.5q39 0 66.5 15t45.5 39.5
t28.5 55.5t17.5 64z" />
    <glyph glyph-name="uni1C9C" unicode="&#x1c9c;" horiz-adv-x="512" 
d="M160 527q10 46 33.5 79.5t56 55t71 32t77.5 10.5h184l-16 -78h-181q-46 0 -84.5 -28.5t-50.5 -82.5l-11 -50q25 20 57.5 31t75.5 11q48 0 80 -13t51.5 -35t27.5 -52t8 -64q0 -59 -14.5 -121.5t-47.5 -115t-86.5 -86t-131.5 -33.5q-48 0 -81 13t-52.5 35.5t-28 52.5
t-8.5 65q0 44 11 94zM192 244q-5 -20 -7.5 -39.5t-2.5 -37.5q0 -20 4.5 -37.5t15.5 -30t29 -19.5t46 -7q48 0 80.5 25t51.5 63t27 81.5t8 81.5q0 21 -4.5 38.5t-15 31t-28.5 21t-45 7.5q-40 0 -67.5 -15.5t-45.5 -41t-28.5 -57t-17.5 -64.5z" />
    <glyph glyph-name="uni1C9D" unicode="&#x1c9d;" horiz-adv-x="797" 
d="M450 463q5 20 7.5 40t2.5 39q0 36 -17 60.5t-63 24.5q-39 0 -63.5 -14.5t-39.5 -38t-23.5 -54t-15.5 -62.5l-45 -211q-4 -18 -6.5 -36t-2.5 -35q0 -22 5 -40.5t17.5 -32.5t34 -22t53.5 -8l-41 -86q-46 3 -77.5 17t-50.5 37.5t-27 53.5t-8 64q0 21 2.5 43t7.5 45l45 214
q10 48 27 93.5t46.5 80.5t72.5 56t106 21q33 0 56 -6.5t39 -17.5t25.5 -27t14.5 -35q13 20 29 36t36 27t46 17t60 6q45 0 75 -11.5t48 -31.5t25.5 -47.5t7.5 -58.5q0 -25 -4 -51.5t-9 -52.5l-45 -212q-10 -48 -29 -93t-50.5 -81t-76.5 -59.5t-107 -26.5l-3 86q44 0 74 15
t49.5 39.5t31 55.5t18.5 64l45 212q5 23 9 46.5t4 43.5q0 34 -17 56t-65 22q-35 0 -59 -14t-40 -37t-25.5 -52.5t-16.5 -60.5l-36 -167h-93z" />
    <glyph glyph-name="uni1C9E" unicode="&#x1c9e;" horiz-adv-x="503" 
d="M300 418h73q15 0 30 5.5t27 16.5t20 28t8 41q0 22 -14 34t-35 19t-46 12t-46 14t-35 24t-14 43q0 11 3 26l7 31h91l-5 -24q0 -2 -0.5 -2.5t-0.5 -2.5q0 -13 14 -19.5t35.5 -12t46.5 -12t46.5 -19t35.5 -33t14 -54.5q0 -61 -24.5 -100t-53.5 -55q25 -12 37 -34t12 -50
q0 -15 -3 -30l-11 -50q-16 -72 -43.5 -116t-63 -69t-76.5 -33.5t-83 -8.5q-45 0 -77.5 13t-53.5 35.5t-31.5 52.5t-10.5 64q0 43 14 84.5t36 79.5l84 -24q-18 -35 -29 -67t-11 -64q0 -42 24.5 -65t82.5 -23q36 0 60.5 10.5t41 29t26.5 44.5t17 57l9 41q1 4 1 13
q0 24 -20.5 45t-69.5 21h-57z" />
    <glyph glyph-name="uni1C9F" unicode="&#x1c9f;" horiz-adv-x="600" 
d="M379 452q2 6 2 12.5v12.5q0 28 -14 49.5t-47 22.5l-45 -6l17 80l324 72h83l-102 -482q-12 -54 -37.5 -96t-61 -71t-78.5 -44t-89 -15q-50 0 -98 16t-102 51l60 80l26 -16q15 -9 28 -17.5t27 -15.5t31 -10.5t40 -3.5q57 0 101.5 33t59.5 102l85 399l-133 -30
q11 -18 15.5 -40t4.5 -44q0 -39 -16.5 -77t-44.5 -69t-66 -50t-80 -19q-46 0 -75 11.5t-46 29.5t-23.5 40.5t-6.5 44.5q0 29 7.5 52.5t24.5 55.5l68 -44q-8 -17 -8.5 -25.5t-0.5 -17.5q0 -30 20.5 -46.5t48.5 -16.5q31 0 60.5 22t40.5 70z" />
    <glyph glyph-name="uni1CA0" unicode="&#x1ca0;" horiz-adv-x="803" 
d="M413 273q4 19 6.5 36t2.5 33q0 35 -17.5 57.5t-65.5 22.5q-45 0 -76.5 -24.5t-51.5 -61t-29 -78.5t-9 -76q0 -19 4.5 -38.5t16.5 -35t33 -25.5t54 -10l-40 -86q-46 3 -77 17.5t-49.5 38.5t-26.5 55.5t-8 66.5q0 23 2.5 47.5t8.5 49.5l9 40q21 98 54 166.5t75 113t89.5 69
t97 36.5t98.5 14.5t94 2.5h70l-16 -78h-78q-53 0 -106.5 -7.5t-100.5 -26t-85 -50.5t-60 -81q26 21 57 33.5t67 12.5q33 0 56 -6.5t39 -17.5t25 -27t14 -35q29 39 70.5 62.5t108.5 23.5q48 0 79.5 -11t50.5 -30.5t27 -47t8 -59.5q0 -35 -6 -75t-20 -80.5t-35.5 -78
t-52.5 -67.5t-71.5 -49t-92.5 -22l-3 86q57 0 93.5 30.5t57 73.5t28.5 89t8 77q0 35 -18.5 57t-71.5 22q-36 0 -60 -12t-40.5 -32t-26.5 -47.5t-17 -57.5l-23 -104h-93z" />
    <glyph glyph-name="uni1CA1" unicode="&#x1ca1;" horiz-adv-x="495" 
d="M250 -13q-81 0 -122.5 41.5t-41.5 118.5q0 35 9 77l102 481h94l-102 -481q-3 -16 -5 -29.5t-2 -25.5q0 -50 23 -73t61 -23q36 0 64.5 17t47.5 45t29 64.5t10 74.5q0 49 -13.5 100t-36.5 93l93 48q25 -54 39 -113.5t14 -113.5q0 -34 -6 -62q-14 -62 -41 -107.5t-62 -74.5
t-75 -43t-79 -14z" />
    <glyph glyph-name="uni1CA2" unicode="&#x1ca2;" horiz-adv-x="725" 
d="M450 378l-39 -185h-93l75 354q8 39 28.5 70t49 52.5t62.5 32.5t70 11q63 0 104.5 -33t41.5 -95q0 -22 -7 -46.5t-20.5 -47t-34 -41t-47.5 -27.5q61 -26 82.5 -64t21.5 -78q0 -61 -26 -114.5t-73 -93.5t-112.5 -63t-144.5 -23q-75 0 -128 19.5t-86.5 53.5t-49 80.5
t-15.5 100.5q0 49 12 102.5t33.5 108.5t53 111t70.5 109l78 -47q-34 -47 -62.5 -96.5t-49.5 -99t-32.5 -97t-11.5 -90.5q0 -36 10 -67t33.5 -53.5t62.5 -35.5t96 -13q46 0 90.5 13t79 37.5t56 60t21.5 80.5q0 21 -8 41.5t-24 36.5t-40.5 26t-57.5 10h-69zM468 464h73
q18 0 38.5 4.5t37.5 16.5t28.5 31.5t11.5 49.5q0 31 -20 49t-51 18q-35 0 -63.5 -24t-36.5 -62z" />
    <glyph glyph-name="uni1CA3" unicode="&#x1ca3;" horiz-adv-x="582" 
d="M576 201q-10 -48 -36 -87t-62 -67.5t-80 -44t-91 -15.5q-41 0 -75 12t-59 33.5t-38.5 52.5t-13.5 69q0 22 6.5 48t18 53t27.5 53t35 49l72 -48q-33 -37 -49 -78t-16 -65q0 -44 31 -68.5t79 -24.5q27 0 52.5 8.5t46.5 24t36 37.5t21 49l78 367q2 10 2 15q0 23 -16 38
t-41 15q-29 0 -53 -18.5t-30 -47.5l-28 -132h-93l27 129q2 9 3 17t1 14q0 37 -33 37h-141l16 78h150q36 0 51.5 -11.5t23.5 -42.5q23 29 54 45.5t74 16.5q59 0 93.5 -35.5t34.5 -89.5q0 -20 -4 -37z" />
    <glyph glyph-name="uni1CA4" unicode="&#x1ca4;" horiz-adv-x="809" 
d="M773 498q5 25 5 41q0 44 -21.5 66t-53.5 22q-20 0 -40.5 -8.5t-39 -25t-33 -41t-21.5 -57.5l-8 -36q-12 -54 -33 -101t-53 -82.5t-77.5 -56t-106.5 -20.5q-48 0 -80.5 13t-52 35.5t-28 52.5t-8.5 65q0 59 14.5 120.5t47.5 112t86 82.5t130 32q68 0 101.5 -24.5
t45.5 -65.5q35 48 82.5 69t99.5 21q30 0 56 -9.5t45.5 -29t31 -48t11.5 -66.5q0 -84 -30 -139t-85 -81q21 -14 38 -35t17 -48q0 -5 -0.5 -8.5t-1.5 -8.5l-14 -68q-11 -51 -39 -86.5t-67.5 -57t-86 -31t-93.5 -9.5q-63 0 -121.5 18.5t-97.5 53.5l66 69q11 -11 29.5 -21
t40 -17.5t46 -12t47.5 -4.5q31 0 61 4t54.5 15t42.5 30.5t25 51.5l11 49q1 3 1 10q0 25 -22 43t-54 18h-54l18 83h55q54 0 78 30.5t36 90.5zM467 459q5 20 7.5 40t2.5 38q0 40 -19.5 65.5t-74.5 25.5q-48 0 -80 -23.5t-51.5 -59.5t-28 -79.5t-8.5 -82.5q0 -21 4.5 -38.5
t15 -31t29 -21t45.5 -7.5q40 0 67 15t45 39.5t28.5 55.5t17.5 64z" />
    <glyph glyph-name="uni1CA5" unicode="&#x1ca5;" horiz-adv-x="489" 
d="M239 -13q-81 0 -124.5 41t-43.5 114q0 18 4 43t12.5 53.5t22 59.5t32.5 63l75 -45q-23 -45 -38 -86t-15 -75q0 -36 21.5 -59t75.5 -23q22 0 42 6.5t37 23.5t31 46.5t24 75.5l45 208q1 6 1.5 11.5t0.5 10.5q0 41 -30 59.5t-72 18.5q-24 0 -49.5 -6t-49 -18.5t-43.5 -31
t-32 -43.5l24 113q39 39 81.5 56t84.5 17q31 0 60.5 -12t52.5 -35l28 132h93l-102 -480q-16 -75 -41.5 -121.5t-57.5 -72.5t-70 -35t-80 -9z" />
    <glyph glyph-name="uni1CA6" unicode="&#x1ca6;" horiz-adv-x="794" 
d="M426 355l27 125q3 16 5 31t2 29q0 37 -18.5 61.5t-69.5 24.5q-40 0 -66 -16.5t-43 -44t-27 -63t-18 -72.5q-9 -42 -9 -80q0 -62 23 -111.5t66 -84t105.5 -52.5t140.5 -18h67l-17 -84h-69q-94 0 -169.5 22t-129 64t-82.5 103t-29 139q0 48 12 102q13 62 33.5 113.5
t51.5 89t74.5 58.5t102.5 21q65 0 97 -22.5t43 -61.5q30 44 77.5 64t100.5 20q46 0 76.5 -12.5t48.5 -34t25.5 -51t7.5 -62.5q0 -38 -9 -84t-28 -94.5t-49.5 -96.5t-72.5 -90l-68 44q39 34 65 76.5t41.5 85t22.5 81t7 64.5q0 19 -4 35t-14 28t-26.5 18.5t-41.5 6.5
q-35 0 -59.5 -12t-41 -32t-26.5 -46.5t-16 -55.5l-27 -125h-92z" />
    <glyph glyph-name="uni1CA7" unicode="&#x1ca7;" horiz-adv-x="498" 
d="M486 170q-10 -45 -33.5 -79.5t-56 -57t-70.5 -34t-77 -11.5q-46 0 -89.5 17t-75.5 52l23 112q29 -45 72 -71t85 -26q22 0 43.5 6t39.5 19t30.5 32.5t18.5 46.5l25 118q-29 -22 -63.5 -32t-73.5 -10q-43 0 -73 11t-49 30t-27.5 45.5t-8.5 57.5q0 36 10.5 77t28.5 83t42 83
t51 77l68 -45q-17 -24 -35.5 -56t-34.5 -66.5t-26 -69t-10 -62.5q0 -35 18.5 -57.5t66.5 -22.5q41 0 84.5 30.5t66.5 93.5l52 243h91z" />
    <glyph glyph-name="uni1CA8" unicode="&#x1ca8;" horiz-adv-x="534" 
d="M284 583q1 5 1.5 9t0.5 8q0 16 -10.5 21t-29.5 5h-97l16 78h99q37 0 56 -11t27 -44q28 34 63.5 48.5t69.5 14.5q25 0 48.5 -8t41 -23t28 -37t10.5 -49q0 -16 -3 -32l-69 -324q-14 -63 -42.5 -110.5t-66 -79t-80 -47t-83.5 -15.5q-35 0 -66.5 11.5t-55 34t-37.5 56.5
t-14 79q0 74 26 133.5t65.5 101.5t87.5 64.5t93 22.5q35 0 68 -11.5t54 -43.5l29 135q1 4 1 11q0 23 -18.5 34t-41.5 11q-13 0 -25.5 -2t-23.5 -7.5t-18.5 -14t-10.5 -20.5l-10 -49h-93zM443 238q6 30 6 54q0 55 -26.5 84t-68.5 29q-29 0 -59 -15.5t-54.5 -44.5t-40 -71.5
t-15.5 -96.5q0 -51 24 -77.5t74 -26.5q63 0 103 42.5t57 122.5z" />
    <glyph glyph-name="uni1CA9" unicode="&#x1ca9;" horiz-adv-x="519" 
d="M160 528q10 46 34 80.5t57 57.5t72 34.5t78 11.5q85 0 127 -30.5t42 -78.5q0 -22 -7 -44.5t-23.5 -43.5t-44 -39.5t-67.5 -31.5l-50 67q31 6 50 14.5t29.5 17.5t14.5 19t4 20q0 20 -22 32t-70 12q-45 0 -82 -22t-49 -77l-29 -134q36 26 75 38t71 12q34 0 64.5 -11.5
t52.5 -33t35 -53t13 -71.5q0 -37 -12 -76.5t-33.5 -78t-51 -74t-63.5 -65.5l-50 63q23 21 44 47.5t37 55.5t25.5 57.5t9.5 53.5q0 53 -29 77t-68 24q-23 0 -47 -7.5t-45 -21t-37 -33.5t-21 -45l-53 -251h-93z" />
    <glyph glyph-name="uni1CAA" unicode="&#x1caa;" horiz-adv-x="660" 
d="M424 459h101q21 0 39.5 7t32.5 18.5t22 26t8 29.5q0 21 -13 39.5t-33 34.5t-43.5 29.5t-44.5 24.5l78 47q19 -9 45 -23t49 -34t39 -45.5t16 -57.5q0 -17 -6 -38t-18.5 -41.5t-32 -38.5t-46.5 -29q27 -20 39 -49t12 -64q0 -73 -30 -130t-76.5 -96.5t-104.5 -60t-113 -20.5
q-63 0 -109 18.5t-77 51.5t-46 79t-15 102q0 101 48.5 219.5t156.5 249.5l75 -46q-46 -48 -81 -101t-58.5 -106.5t-35.5 -105t-12 -95.5q0 -49 13 -83.5t35.5 -56.5t52.5 -32t63 -10q54 0 95.5 18.5t69 47.5t41.5 64t14 68q0 43 -24.5 74.5t-73.5 31.5h-70z" />
    <glyph glyph-name="uni1CAB" unicode="&#x1cab;" horiz-adv-x="512" 
d="M516 247q-11 -49 -30 -96t-51 -83.5t-78 -58.5t-110 -22q-48 0 -81 13t-52.5 35.5t-28 53t-8.5 65.5q0 57 15 119.5t48 114.5t86.5 85.5t130.5 33.5q41 0 68.5 -14.5t41.5 -37.5l18 86q3 13 3 25q0 23 -10 40t-27 28l41 83q41 -18 66 -51.5t25 -81.5q0 -21 -4 -40z
M423 247q4 20 7 40t3 39q0 20 -4.5 37.5t-15 30.5t-29 20.5t-45.5 7.5q-49 0 -81 -25.5t-51.5 -63.5t-27.5 -82t-8 -81q0 -21 4.5 -38.5t15 -30.5t29 -20.5t45.5 -7.5q39 0 66.5 15t45.5 39.5t28.5 55.5t17.5 64z" />
    <glyph glyph-name="uni1CAC" unicode="&#x1cac;" horiz-adv-x="535" 
d="M483 520h-92l12 56q1 3 1 9q0 20 -17.5 30.5t-40.5 10.5q-27 0 -52.5 -13.5t-31.5 -42.5l-32 -147q32 27 69 41t73 14q84 0 128 -38t44 -121q0 -41 -10 -87q-28 -129 -98 -187t-173 -58q-85 0 -130 40t-45 125q0 40 10 86l69 326q7 34 26.5 61.5t46 47t57 29.5t59.5 10
q32 0 61.5 -14t45.5 -43q22 32 48 40.5t57 8.5h100l-16 -78h-106q-14 0 -28.5 -6.5t-19.5 -29.5zM190 232q-7 -32 -7 -61q0 -98 98 -98q125 0 160 159q6 28 6 52q0 54 -27.5 81.5t-70.5 27.5q-26 0 -51 -10t-46 -30.5t-37 -50.5t-25 -70z" />
    <glyph glyph-name="uni1CAD" unicode="&#x1cad;" horiz-adv-x="544" 
d="M385 270q-26 -15 -54.5 -22.5t-55.5 -7.5q-32 0 -59 8.5t-47.5 24.5t-32 40t-11.5 54q0 36 15 74t44.5 69.5t72.5 51.5t100 20h94l26 122h92l-26 -122h100l-18 -84h-100l-63 -298q-10 -47 -32 -85.5t-55 -67t-75 -44t-91 -15.5q-56 0 -91 17t-70 56l74 61
q12 -12 22.5 -21.5t22 -16t25.5 -9.5t33 -3q61 0 97.5 37.5t48.5 93.5zM296 324q16 0 35 5t35.5 14t28.5 22t16 30l22 103h-82q-33 0 -58 -10.5t-41.5 -27t-25 -36.5t-8.5 -39q0 -26 20 -43.5t58 -17.5z" />
    <glyph glyph-name="uni1CAE" unicode="&#x1cae;" horiz-adv-x="512" 
d="M197 704h93l-51 -240q25 20 56 31.5t74 11.5q49 0 81.5 -13t52 -35.5t28 -53t8.5 -65.5q0 -57 -15 -119.5t-48 -114.5t-86.5 -85.5t-130.5 -33.5q-48 0 -81 13t-52.5 35.5t-28 52.5t-8.5 65q0 43 11 93zM193 246q-5 -20 -7.5 -40t-2.5 -39q0 -20 4.5 -37t15 -30t29 -20
t45.5 -7q48 0 80.5 25.5t52 63.5t27.5 81.5t8 80.5q0 21 -4.5 38.5t-15 31t-29 21t-45.5 7.5q-40 0 -67 -15.5t-45 -40t-28.5 -56t-17.5 -64.5z" />
    <glyph glyph-name="uni1CAF" unicode="&#x1caf;" horiz-adv-x="502" 
d="M204 599h129l22 105h94l-22 -105h129l-18 -85h-129l-11 -49q-2 -10 -2 -14q0 -24 14.5 -42.5t34.5 -36.5l13 -15q26 -26 37.5 -55.5t11.5 -61.5q0 -63 -25 -110.5t-63.5 -79t-84 -47.5t-86.5 -16q-35 0 -67.5 10.5t-57.5 31t-39.5 52t-14.5 73.5q0 38 13 82.5t43 103.5
l80 -35q-20 -45 -30.5 -76t-10.5 -60q0 -42 24 -69t80 -27q33 0 59.5 13.5t45 34.5t29 47t10.5 51q0 34 -17.5 57.5t-39 44.5t-39 45t-17.5 60q0 16 4 31l12 57h-129z" />
    <glyph glyph-name="uni1CB0" unicode="&#x1cb0;" horiz-adv-x="499" 
d="M254 619v85h193q50 0 80.5 -29.5t30.5 -72.5q0 -30 -17 -58.5t-46 -48.5q14 -11 20.5 -27.5t6.5 -33.5q0 -26 -16 -54.5t-46 -46.5q15 -11 26.5 -31.5t11.5 -55.5q0 -23 -6 -51q-11 -53 -30 -92t-48 -64.5t-70.5 -38.5t-97.5 -13q-86 0 -130.5 37.5t-44.5 112.5
q0 76 44 167l85 -24q-20 -42 -27 -72t-7 -54q0 -44 25.5 -62.5t82.5 -18.5q34 0 56 10t35.5 28t21.5 43t14 56q3 15 3 27q0 29 -13.5 41.5t-27.5 12.5h-96l18 84h96q18 0 32 15.5t14 32.5q0 13 -8 22t-21 9h-96l18 84h96q17 0 31.5 14.5t14.5 32.5q0 14 -9 24t-24 10h-175z
" />
    <glyph glyph-name="uni1CB1" unicode="&#x1cb1;" horiz-adv-x="668" 
d="M172 415q11 41 30.5 92.5t48 97t67 76.5t86.5 31q36 0 60.5 -20.5t24.5 -61.5q0 -49 -22.5 -90.5t-58 -74.5t-79 -58t-84.5 -41l-1 -5q-12 -53 -12 -105q0 -37 8 -70.5t27.5 -58.5t52 -39.5t80.5 -14.5q38 0 71 4t57 14.5t38 28.5t14 46q0 18 -10.5 29.5t-29 18t-44 10.5
t-54.5 9l18 85q36 -9 56 -13t29 -4t19.5 2.5t19.5 8t15 14.5t6 23q0 26 -33.5 41.5t-89.5 29.5l17 83q60 -21 92 -21q17 0 28 12.5t11 32.5t-26 39l-79 56l20 96l109 -79q30 -22 46.5 -50t16.5 -57q0 -30 -15 -56.5t-38 -43.5q14 -16 20.5 -33.5t6.5 -35.5q0 -30 -17.5 -59
t-44.5 -51q17 -17 27 -34t10 -41q0 -47 -23.5 -83t-62.5 -60t-90.5 -36t-107.5 -12q-69 0 -114.5 21t-72.5 55.5t-38.5 80t-11.5 94.5q0 23 2 46.5t6 46.5l-51 -19l17 83zM385 633q-14 0 -30 -14t-31.5 -38t-30 -57t-25.5 -72q28 14 52.5 32t42.5 39t28.5 43.5t10.5 45.5
q0 21 -17 21z" />
    <glyph glyph-name="uni1CB2" unicode="&#x1cb2;" horiz-adv-x="450" 
d="M375 -17q-34 0 -78 14t-83 42q-79 -37 -173 -60l18 84q30 1 58 4.5t51 11.5q-26 30 -43.5 69.5t-17.5 86.5q0 11 1 23.5t4 24.5l54 256q7 34 26 65t46 55t61 38t70 14q32 0 56.5 -10.5t41.5 -29.5t25.5 -44t8.5 -53q0 -16 -3 -34l-50 -236q-15 -72 -55.5 -126t-102.5 -96
q28 -11 55.5 -14.5t42.5 -5.5h16l-15 -68zM198 285q-7 -31 -7 -60q0 -40 13 -67t33 -45q44 29 77 72.5t45 99.5l54 254q1 5 1.5 11t0.5 11q0 29 -15.5 50t-47.5 21q-19 0 -35.5 -8t-29.5 -21t-22 -30t-13 -34z" />
    <glyph glyph-name="uni1CB3" unicode="&#x1cb3;" horiz-adv-x="474" 
d="M372 436q29 -1 48.5 -10t31.5 -24t17 -35.5t5 -44.5q0 -21 -3 -43t-8 -45q-11 -50 -26 -94.5t-41.5 -77.5t-68.5 -52.5t-106 -19.5q-76 0 -111 35t-35 91q0 60 29.5 111t86.5 90l42 -48q-32 -26 -50.5 -59.5t-18.5 -67.5q0 -33 23 -52t58 -19q32 0 53.5 11.5t36.5 32.5
t25 51t18 68q7 32 7 60q0 67 -50 67q-12 0 -28.5 -7.5t-33.5 -23.5l-41 47l154 186h-182l17 80h322z" />
    <glyph glyph-name="uni1CB4" unicode="&#x1cb4;" horiz-adv-x="478" 
d="M226 336h63q21 0 40 1t33 5.5t22.5 13t8.5 24.5q0 14 -14.5 24t-37 19.5t-48 20t-48 25t-37 35.5t-14.5 52q0 40 17.5 69t44.5 48.5t59.5 29t62.5 9.5q57 0 89.5 -28.5t32.5 -65.5q0 -14 -5.5 -30t-18 -32t-33 -30t-49.5 -24l-41 53q34 11 51 25.5t17 26.5q0 14 -16 23
t-44 9q-14 0 -28 -3t-26 -9.5t-19.5 -18.5t-7.5 -30q0 -16 8.5 -28t22 -21t31 -16t35.5 -14l-1 1q48 -13 76.5 -43.5t28.5 -66.5q0 -35 -20 -61.5t-62 -40.5q56 -30 56 -95q0 -47 -18 -85t-49.5 -65t-74 -41.5t-91.5 -14.5q-38 0 -66.5 9.5t-47.5 25.5t-28 38t-9 46
q0 34 18 65.5t60 63.5l55 -42q-26 -25 -35 -42t-9 -30q0 -22 21 -35t58 -13q63 0 96 27t33 81q0 23 -10.5 38.5t-28 24.5t-40.5 13t-48 4h-31z" />
    <glyph glyph-name="uni1CB5" unicode="&#x1cb5;" horiz-adv-x="534" 
d="M381 369h-71q-73 0 -113.5 34.5t-40.5 95.5q0 50 18.5 89.5t49.5 67t70.5 42t81.5 14.5q62 0 96.5 -31.5t34.5 -88.5q0 -17 -5 -42l-21 -101h112l-17 -80h-112l-8 -37h112l-17 -79h-112l-22 -104q-8 -38 -26 -68t-43.5 -51t-57.5 -32.5t-68 -11.5q-68 0 -107.5 34
t-39.5 95q0 47 17.5 87t48.5 69t72.5 45t88.5 16h71zM298 253q-17 0 -40 -3.5t-44 -15.5t-36 -36t-15 -65q0 -32 20 -49t56 -17q25 0 42 8t28 21t17 27.5t9 28.5l21 101h-58zM419 547q3 13 3 28q0 22 -12.5 39.5t-50.5 17.5q-30 0 -51.5 -10.5t-35.5 -27.5t-20.5 -37.5
t-6.5 -41.5q0 -22 9 -35t23 -20t30.5 -9t32.5 -2h58z" />
    <glyph glyph-name="uni1CB6" unicode="&#x1cb6;" horiz-adv-x="707" 
d="M422 568q4 17 4 31q0 23 -12 28.5t-33 5.5t-38 -8.5t-28 -35.5h-79q12 36 30.5 60t40 38t46 19.5t48.5 5.5q20 0 40 -1.5t35.5 -9.5t25 -25t9.5 -48q0 -28 -7 -60l-14 -69q20 17 44 29.5t48 12.5q65 0 100 -37.5t35 -98.5q0 -58 -20.5 -102.5t-52 -74.5t-69 -45.5
t-72.5 -15.5q-34 0 -50 11t-26 28l-13 -63q-5 -23 -5 -35q0 -24 11.5 -32.5t32.5 -8.5q20 0 36.5 7t27.5 34h81q-12 -36 -30.5 -59.5t-40 -37.5t-46 -19.5t-49.5 -5.5q-21 0 -40.5 3t-34.5 13t-24 28.5t-9 49.5q0 23 8 63l13 63q-17 -16 -38.5 -27.5t-52.5 -11.5
q-60 0 -98 36t-38 102q0 55 18.5 98.5t49 74t69 47t78.5 16.5q23 0 42 -12t33 -28zM520 248q22 0 42 11.5t35 31t24 45t9 53.5q0 33 -16 53t-48 20q-19 0 -39 -9t-36 -26.5t-26 -43.5t-10 -61q0 -39 19.5 -56.5t45.5 -17.5zM271 248q16 0 35 8t35.5 25.5t28 44.5t11.5 65
q0 36 -17.5 53.5t-46.5 17.5q-23 0 -43 -11t-35 -30t-24 -44.5t-9 -53.5q0 -35 16.5 -55t48.5 -20z" />
    <glyph glyph-name="uni1CB7" unicode="&#x1cb7;" horiz-adv-x="479" 
d="M259 453q-46 39 -46 95q0 35 14.5 65t38.5 52t54 34.5t61 12.5q24 0 45.5 -5.5t38.5 -18t27 -32.5t10 -48q1 -9 -0.5 -18.5t-3.5 -20.5q-12 -55 -37.5 -91.5t-58.5 -63t-69.5 -48.5t-69.5 -47.5t-58 -59t-36 -84.5q-3 -15 -3 -29q0 -33 20.5 -55.5t68.5 -22.5
q52 0 86.5 33.5t34.5 90.5q0 41 -26 74l61 47q26 -23 39 -53.5t13 -61.5q0 -15 -3 -30q-10 -46 -32 -80t-52 -56.5t-66.5 -33.5t-73.5 -11q-41 0 -71 11t-49.5 30t-29 44.5t-9.5 54.5q0 24 6 48q12 56 39 96t60.5 70.5t71 54.5t70 48.5t56.5 52.5t32 66q1 5 1.5 9.5t0.5 9.5
q0 18 -9.5 34.5t-36.5 16.5q-31 0 -50.5 -23.5t-19.5 -50.5q0 -13 4 -28t14 -31z" />
    <glyph glyph-name="uni1CB8" unicode="&#x1cb8;" horiz-adv-x="478" 
d="M278 705l-13 -63q-7 -31 -7 -56q0 -45 19.5 -62t47.5 -17q24 0 43 9.5t32.5 24.5t21 34.5t7.5 40.5q0 15 -3 32.5t-11 38.5l77 32q11 -29 16.5 -54.5t5.5 -48.5q0 -45 -19 -80t-49 -59t-66.5 -36.5t-70.5 -12.5q-53 0 -84 28l-58 -273q-2 -11 -3.5 -21t-1.5 -19
q0 -75 83 -75q27 0 49.5 9.5t39 25.5t26 37.5t9.5 44.5q0 40 -35 80l61 52q60 -45 60 -118q0 -51 -20 -90.5t-52 -66.5t-72.5 -41t-82.5 -14q-151 0 -151 130q0 15 2 31.5t6 35.5l110 521h83z" />
    <glyph glyph-name="uni1CB9" unicode="&#x1cb9;" 
 />
    <glyph glyph-name="uni1CBA" unicode="&#x1cba;" 
 />
    <glyph glyph-name="uni1CBB" unicode="&#x1cbb;" horiz-adv-x="418" 
d="M280 228q5 26 27.5 44.5t48.5 18.5q23 0 37 -14.5t14 -36.5q0 -15 -6.5 -28.5t-17.5 -24t-25 -16.5t-28 -6q-23 0 -37 14.5t-14 35.5v6.5t1 6.5zM64 50q5 26 28 44.5t49 18.5q22 0 36 -14t14 -35q0 -15 -6.5 -29t-17.5 -24.5t-24.5 -17t-28.5 -6.5q-23 0 -37 14t-14 36
q0 8 1 13zM140 406q5 26 27.5 44.5t48.5 18.5q23 0 36.5 -14.5t13.5 -35.5q0 -15 -6.5 -28.5t-17 -24t-24.5 -16.5t-28 -6q-23 0 -37 14t-14 35v6.5t1 6.5z" />
    <glyph glyph-name="uni1CBC" unicode="&#x1cbc;" 
 />
    <glyph glyph-name="uni1CBD" unicode="&#x1cbd;" 
 />
    <glyph glyph-name="uni1CBE" unicode="&#x1cbe;" 
 />
    <glyph glyph-name="uni1CBF" unicode="&#x1cbf;" 
 />
    <glyph glyph-name="endash" unicode="&#x2013;" horiz-adv-x="625" 
d="M625 307l-19 -89h-505l19 89h505z" />
    <glyph glyph-name="emdash" unicode="&#x2014;" horiz-adv-x="902" 
d="M895 307l-19 -89h-772l19 89h772z" />
    <glyph glyph-name="quoteleft" unicode="&#x2018;" horiz-adv-x="216" 
d="M292 541q-5 -26 -27.5 -44.5t-48.5 -18.5q-23 0 -37 14t-14 36q0 5 2 15l68 162h66l-43 -102q17 -4 26.5 -17t9.5 -31q0 -4 -2 -14z" />
    <glyph glyph-name="quoteright" unicode="&#x2019;" horiz-adv-x="217" 
d="M189 648q6 26 28.5 44.5t48.5 18.5q23 0 36.5 -14.5t13.5 -37.5q0 -8 -1 -13l-69 -162h-66l46 102q-17 5 -27.5 18.5t-10.5 31.5q0 8 1 12z" />
    <glyph glyph-name="quotesinglbase" unicode="&#x201a;" horiz-adv-x="216" 
d="M62 49q5 26 27.5 44.5t48.5 18.5q23 0 37 -14.5t14 -36.5q0 -4 -2 -14l-68 -162h-66l46 102q-17 5 -27.5 18.5t-10.5 31.5q0 8 1 12z" />
    <glyph glyph-name="quotedblleft" unicode="&#x201c;" horiz-adv-x="402" 
d="M456 540q-5 -26 -27.5 -44.5t-48.5 -18.5q-23 0 -37 14t-14 36q0 5 2 15l68 163h66l-45 -103q17 -5 27 -18.5t10 -31.5q0 -8 -1 -12zM293 540q-5 -26 -27.5 -44.5t-48.5 -18.5q-22 0 -36 14t-14 36q0 5 2 15l67 163h66l-45 -103q17 -5 27 -18.5t10 -31.5q0 -8 -1 -12z
" />
    <glyph glyph-name="quotedblright" unicode="&#x201d;" horiz-adv-x="402" 
d="M191 648q6 26 28 44.5t48 18.5q23 0 36.5 -14.5t13.5 -37.5q0 -8 -1 -13l-69 -162h-65l45 102q-17 5 -27 18.5t-10 31.5q0 8 1 12zM353 648q6 26 28.5 44.5t48.5 18.5q23 0 36.5 -14.5t13.5 -37.5q0 -8 -1 -13l-69 -162h-66l45 102q-17 5 -27 18.5t-10 31.5q0 8 1 12z
" />
    <glyph glyph-name="quotedblbase" unicode="&#x201e;" horiz-adv-x="402" 
d="M64 49q3 13 10 24.5t17.5 20t22.5 13.5t25 5q23 0 37 -14.5t14 -36.5q0 -4 -2 -14l-68 -162h-65l45 102q-17 5 -27 18.5t-10 31.5q0 8 1 12zM226 49q5 26 27.5 44.5t48.5 18.5q23 0 37 -14.5t14 -36.5q0 -4 -2 -14l-68 -162h-66l45 102q-17 5 -27 18.5t-10 31.5q0 8 1 12
z" />
    <glyph glyph-name="dagger" unicode="&#x2020;" horiz-adv-x="500" 
d="M445 701l-40 -186h179l-19 -89h-179l-129 -605h-101l129 605h-178l19 89h178l40 186h101z" />
    <glyph glyph-name="bullet" unicode="&#x2022;" horiz-adv-x="382" 
d="M379 271q-7 -32 -23 -58t-38 -45.5t-49 -30t-55 -10.5q-52 0 -80 31t-28 78q0 34 13 66t36 57t54 40.5t67 15.5q51 0 78.5 -32.5t27.5 -79.5q0 -16 -3 -32z" />
    <glyph glyph-name="ellipsis" unicode="&#x2026;" horiz-adv-x="666" 
d="M66 50q6 26 28.5 44.5t48.5 18.5q23 0 37 -14t14 -35q0 -15 -6.5 -29t-17.5 -24.5t-25 -17t-29 -6.5q-23 0 -37 14t-14 36q0 8 1 13zM281 50q6 26 28.5 44.5t48.5 18.5q22 0 36 -14t14 -35q0 -15 -6.5 -29t-17.5 -24.5t-24.5 -17t-28.5 -6.5q-23 0 -37 14t-14 36
q0 8 1 13zM495 50q6 26 28.5 44.5t48.5 18.5q23 0 37 -14t14 -35q0 -15 -6.5 -29t-17.5 -24.5t-25 -17t-29 -6.5q-23 0 -37 14t-14 36v6.5t1 6.5z" />
    <glyph glyph-name="perthousand" unicode="&#x2030;" horiz-adv-x="1092" 
d="M840 -36q-30 0 -54.5 10.5t-42.5 29t-28 44.5t-10 56v10t1 10q-11 -33 -31.5 -62.5t-47.5 -51t-58.5 -34t-63.5 -12.5q-29 0 -54 11t-43 29.5t-28 44.5t-10 56q0 41 17.5 80.5t46.5 70t67.5 49.5t79.5 19q30 0 54.5 -11.5t42 -31.5t27.5 -46.5t10 -56.5q0 -4 -0.5 -8
t-0.5 -8q10 34 30.5 63.5t47.5 51.5t59 34.5t65 12.5q30 0 55 -11t42 -29.5t26.5 -44t9.5 -55.5q0 -44 -18.5 -84t-48 -70t-67 -48t-75.5 -18zM308 380q-31 0 -56 10.5t-42.5 29.5t-27 44.5t-9.5 54.5q0 45 19 85.5t49.5 70.5t68 47.5t75.5 17.5q28 0 52.5 -11t42.5 -30
t28.5 -45t10.5 -56q0 -44 -19 -83.5t-49 -69.5t-68 -47.5t-75 -17.5zM761 723l-537 -741h-97l537 741h97zM366 652q-23 0 -42.5 -10t-33.5 -26t-22 -37.5t-8 -43.5q0 -28 16.5 -47t50.5 -19q22 0 41 9.5t33.5 25.5t22.5 36.5t8 42.5q0 32 -18 50.5t-48 18.5zM562 235
q-22 0 -41.5 -9.5t-33.5 -25.5t-22.5 -37t-8.5 -43q0 -29 17.5 -48.5t50.5 -19.5q22 0 41 10t33 26t22 36.5t8 41.5q0 30 -17 49.5t-49 19.5zM897 235q-22 0 -41 -9.5t-33.5 -26t-22.5 -37.5t-8 -43q0 -29 17 -48t50 -19q20 0 39 9t33.5 25t23 36.5t8.5 44.5q0 30 -17 49
t-49 19z" />
    <glyph glyph-name="guilsinglleft" unicode="&#x2039;" horiz-adv-x="350" 
d="M248 46l-143 199l10 51l229 199l43 -61l-186 -164l116 -163z" />
    <glyph glyph-name="guilsinglright" unicode="&#x203a;" horiz-adv-x="350" 
d="M256 271l-115 163l70 61l142 -199l-10 -51l-228 -199l-44 61z" />
    <glyph glyph-name="Euro" unicode="&#x20ac;" horiz-adv-x="738" 
d="M299 239q0 -38 6.5 -69t22 -52.5t41.5 -33t64 -11.5q55 0 95.5 25.5t72.5 73.5h100q-51 -100 -122.5 -142.5t-163.5 -42.5q-109 0 -159.5 62.5t-50.5 169.5q0 5 0.5 10t0.5 10h-127l83 87h54l10 46h-118l82 88h62q22 57 53 103.5t70.5 79.5t88 51t105.5 18
q99 0 152.5 -49.5t56.5 -166.5h-92q-1 70 -36 100.5t-99 30.5q-75 0 -125 -46t-80 -121h277l-81 -88h-223l-5 -20q-2 -10 -2.5 -14.5t-2.5 -11.5h286l-82 -87h-214z" />
    <glyph glyph-name="uni20BE" unicode="&#x20be;" horiz-adv-x="806" 
d="M660 600l-56 -262l-83 -52l67 314h-96l-56 -262l-83 -52l67 314h-18q-44 0 -71.5 -13.5t-44 -37t-25.5 -54.5t-16 -66l-30 -141q-4 -16 -4 -36q0 -33 12 -66.5t34.5 -60.5t54 -44t71.5 -17h307l-45 -64h-573l45 64h103q-43 21 -63.5 66.5t-20.5 97.5q0 15 2 30.5t5 29.5
l30 144q10 48 26.5 90t44 73.5t69 50t102.5 18.5h19l8 41l83 52l-19 -93h96l8 41l83 52l-19 -93h9q45 0 74.5 -10t47 -28.5t25 -43.5t7.5 -55q0 -23 -3.5 -47t-8.5 -50l-26 -123l-87 -68l41 191q5 25 9 47t4 42q0 37 -20 59t-78 22h-8z" />
    <glyph glyph-name="trademark" unicode="&#x2122;" horiz-adv-x="832" 
d="M484 704l-14 -68h-105l-57 -269h-63l57 269h-103l14 68h271zM621 704l54 -255l162 255h80l-71 -337h-64l42 201l-136 -201h-61l-50 203l-43 -203h-50l57 337h80z" />
    <glyph glyph-name="accent" horiz-adv-x="211" 
d="M194 670q5 22 22.5 37t39.5 15q18 0 29.5 -11.5t11.5 -29.5q0 -13 -5.5 -24t-14.5 -19.5t-20 -13.5t-23 -5q-19 0 -30 11t-11 29q0 7 1 11z" />
    <glyph glyph-name="uni10D0.case" horiz-adv-x="500" 
d="M179 240q-5 -20 -6.5 -37t-1.5 -32q0 -48 21.5 -73.5t66.5 -25.5q33 0 61.5 16t50.5 47t34.5 75t12.5 100q0 50 -12 97.5t-29.5 92t-36.5 85.5t-33 78l82 47l29 -65v1q15 -33 31.5 -71.5t30 -80.5t22.5 -86.5t9 -89.5q0 -75 -22.5 -135.5t-60 -104t-86.5 -67t-101 -23.5
q-81 0 -122 45t-41 125q0 52 16 102.5t46 101.5h98q-23 -29 -38 -60.5t-21 -61.5z" />
    <glyph glyph-name="uni10D1.case" horiz-adv-x="500" 
d="M514 237q-11 -49 -30 -94.5t-50.5 -80t-77 -55t-109.5 -20.5q-49 0 -82 12t-53 33.5t-28.5 51t-8.5 63.5q0 51 13.5 111.5t43.5 114t78.5 91.5t118.5 44l19 89h-19q-25 0 -44.5 1.5t-33.5 6.5t-21.5 14.5t-7.5 26.5q0 10 3 24l9 42h92l-5 -24q-1 -2 -1 -6q0 -5 4.5 -8.5
t18.5 -3.5h186l29 -73h-118l-20 -95q58 -20 81 -67.5t23 -107.5q0 -22 -2.5 -44.5t-7.5 -45.5zM421 237q5 21 7.5 43t2.5 42q0 21 -4 39t-14.5 31.5t-28 21.5t-44.5 8q-49 0 -82 -27.5t-52.5 -67.5t-27.5 -84.5t-8 -78.5q0 -20 4.5 -36.5t15.5 -28.5t29 -19t46 -7
q39 0 66 13.5t44.5 36t28 52t17.5 62.5z" />
    <glyph glyph-name="uni10D2.case" horiz-adv-x="547" 
d="M407 712q75 0 110.5 -36t35.5 -92q0 -61 -45 -136q33 -22 47.5 -56.5t14.5 -77.5q0 -58 -19 -116.5t-56.5 -105t-93.5 -76t-130 -29.5q-52 0 -88.5 14t-60 39t-34 57.5t-10.5 70.5q0 61 20 117t58.5 99t95 69t130.5 26q24 0 45 -3q15 27 23 50t8 43q0 26 -16.5 42
t-55.5 16q-42 0 -93.5 -25.5t-99.5 -70.5l24 110q93 71 190 71zM468 239q2 11 3.5 22.5t1.5 23.5q0 21 -5 40.5t-17.5 34.5t-33.5 24.5t-53 9.5q-47 0 -82.5 -17t-59.5 -45.5t-36.5 -66t-12.5 -77.5q0 -24 6 -45.5t20 -37t36 -24.5t54 -9q40 0 70.5 14t52 37t35.5 53t21 63z
" />
    <glyph glyph-name="uni10D3.case" horiz-adv-x="804" 
d="M369 627q-36 0 -60.5 -13t-41 -38t-28 -60.5t-20.5 -80.5q-9 -42 -9 -81q0 -63 23.5 -112.5t67 -84.5t106.5 -53.5t142 -18.5h68l-18 -85h-70q-95 0 -171.5 22t-130.5 65t-83 104.5t-29 141.5q0 24 2.5 49.5t8.5 52.5q14 64 34 115.5t50.5 87.5t73 55t102.5 19
q67 0 96.5 -18t38.5 -56q29 38 71.5 56t110.5 18q49 0 82 -11.5t53.5 -32t29 -49t8.5 -62.5q0 -60 -15 -119.5t-48 -107.5t-86 -77.5t-128 -29.5q-49 0 -82 11.5t-53.5 32.5t-29 50t-8.5 64q0 20 3.5 42.5l7 45t7 44t3.5 40.5q0 32 -16 53t-62 21zM530 467
q-5 -19 -7.5 -36.5t-2.5 -34.5q0 -38 20.5 -62.5t76.5 -24.5q39 0 65.5 12.5t44 34t28 50.5t17.5 61q4 19 6.5 36.5t2.5 34.5q0 39 -20.5 64t-76.5 25q-40 0 -66.5 -13t-43.5 -35t-27 -51t-17 -61z" />
    <glyph glyph-name="uni10D4.case" horiz-adv-x="489" 
d="M239 -13q-81 0 -124.5 41t-43.5 114q0 41 17 96t54 118l71 -45q-23 -43 -35 -83.5t-12 -69.5q0 -41 22 -63t72 -22q22 0 42.5 7t38 24t31.5 46t23 74l64 300q3 16 3 31q0 38 -22.5 55t-60.5 17q-21 0 -45 -8t-49.5 -21.5t-51 -32.5t-48.5 -41l25 117q93 71 190 71
q34 0 63 -8.5t50 -26t33 -43.5t12 -60q0 -11 -1.5 -22.5t-3.5 -24.5l-63 -296q-15 -72 -40.5 -119.5t-58.5 -75t-71.5 -38.5t-80.5 -11z" />
    <glyph glyph-name="uni10D5.case" horiz-adv-x="515" 
d="M298 443h65q20 0 40.5 8t37 23.5t27 38t10.5 52.5q0 37 -27 49.5t-66 12.5q-42 0 -94 -23t-99 -66l25 119q38 24 88.5 39.5t100.5 15.5q43 0 74.5 -10.5t52 -29t30.5 -43.5t10 -53q0 -17 -5.5 -38.5t-17 -44.5t-30 -45t-44.5 -39q54 -29 54 -92q0 -15 -3 -31l-16 -76
q-13 -62 -39.5 -105t-60.5 -69t-74 -37.5t-80 -11.5q-82 0 -133 41t-51 121q0 45 18 98t56 110l71 -47q-27 -42 -38.5 -77.5t-11.5 -64.5q0 -49 28.5 -72t68.5 -23q24 0 47.5 6t43.5 21.5t36 42.5t25 68l16 73q1 5 1 15q0 24 -16.5 45.5t-55.5 21.5h-81z" />
    <glyph glyph-name="uni10D6.case" horiz-adv-x="687" 
d="M141 496q12 56 37.5 96.5t58.5 67t70.5 39.5t72.5 13q28 0 54 -8t45 -23.5t30.5 -38.5t11.5 -52q0 -21 -6 -42.5t-14 -42.5q22 5 44 5q48 0 80.5 -13t52 -36t28 -53.5t8.5 -64.5q0 -58 -15 -120.5t-48 -115t-86.5 -86.5t-130.5 -34q-48 0 -80.5 13t-52 35.5t-28 52.5
t-8.5 65q0 34 6.5 73.5t20.5 69.5q-21 -6 -41 -6q-51 0 -84.5 35.5t-33.5 104.5q0 28 8 66zM610 247q5 21 8 42t3 41q0 40 -18.5 67.5t-68.5 27.5q-45 0 -78 -24.5t-54.5 -62t-32.5 -82.5t-11 -85q0 -21 4.5 -38.5t15 -31t29 -21t45.5 -7.5q40 0 67 15t45 39.5t28.5 55.5
t17.5 64zM413 522q3 13 4 24t1 20q0 20 -5.5 32t-14.5 18.5t-20.5 8.5t-24.5 2q-17 0 -34.5 -6t-33.5 -20.5t-29.5 -40t-21.5 -64.5q-8 -34 -8 -59q0 -27 13 -44.5t50 -17.5q28 0 49 13.5t36 35t24.5 47.5t14.5 51z" />
    <glyph glyph-name="uni10D7.case" horiz-adv-x="844" 
d="M801 463q5 20 7.5 39.5t2.5 37.5q0 38 -18.5 62.5t-69.5 24.5q-38 0 -64 -15.5t-43 -41t-27.5 -57.5t-17.5 -65l-47 -220q-10 -46 -30 -89.5t-52 -77t-77.5 -54t-105.5 -20.5q-48 0 -81 13t-52.5 35.5t-28 52.5t-8.5 65q0 44 11 94l45 212q10 48 29.5 93.5t51.5 81t78 57
t109 21.5q67 0 100.5 -25t45.5 -65q26 41 69.5 65.5t113.5 24.5q46 0 77.5 -11.5t50.5 -32t27 -48.5t8 -61q0 -23 -3.5 -47.5t-8.5 -50.5l-45 -214q-10 -48 -29 -93t-50.5 -81t-76.5 -59.5t-107 -26.5l-4 86q45 0 75 15t49.5 39.5t31 55.5t18.5 64zM480 459q7 36 9 72
q0 20 -4.5 37.5t-15 30.5t-29 20.5t-45.5 7.5q-39 0 -65.5 -14t-44.5 -37.5t-29 -54t-18 -62.5l-45 -212q-5 -20 -7.5 -39.5t-2.5 -37.5q0 -21 4.5 -38.5t15 -30.5t29 -20.5t45.5 -7.5q39 0 66 15t45 39.5t29 55.5t18 64z" />
    <glyph glyph-name="uni10D8.case" horiz-adv-x="539" 
d="M495 453q8 37 8 68q0 22 -5 41t-16.5 33.5t-30.5 23t-48 8.5q-39 0 -67.5 -15t-48 -39.5t-31.5 -55.5t-19 -63l-48 -228q-3 -16 -5 -31t-2 -29q0 -32 10 -59.5t33 -44.5l-60 -75q-42 27 -60 69.5t-18 93.5q0 37 9 76l48 229q10 49 31 95t54.5 82t81 58t110.5 22
q49 0 82.5 -13.5t54.5 -37.5t30 -55.5t9 -67.5q0 -21 -2.5 -42t-7.5 -43l-48 -227q-8 -36 -22 -71t-35.5 -66.5t-50 -57.5t-64.5 -44l-25 76q44 26 69 70.5t36 92.5z" />
    <glyph glyph-name="uni10D9.case" horiz-adv-x="511" 
d="M316 454h57q18 0 37 4t34.5 15.5t25.5 32t10 52.5q0 40 -27 56.5t-67 16.5h-15l18 85q38 0 72 -8t60 -25t41 -43.5t15 -63.5q0 -33 -8.5 -59.5t-22.5 -47t-31.5 -34.5t-35.5 -22q62 -28 62 -88q0 -8 -1 -16t-3 -16l-18 -83q-14 -62 -40.5 -105t-61.5 -69t-75.5 -37.5
t-80.5 -11.5q-41 0 -76 9.5t-60 29t-39 49t-14 69.5q0 47 19.5 100.5t57.5 109.5l71 -47q-28 -39 -40.5 -77t-12.5 -66q0 -25 8.5 -42t22.5 -28t32.5 -16t38.5 -5q24 0 48 7t45 23.5t37.5 42.5t25.5 65l18 82q1 5 1 14q0 23 -16.5 42t-56.5 19h-73z" />
    <glyph glyph-name="uni10DA.case" horiz-adv-x="522" 
d="M229 439q-8 -39 -13 -75t-5 -68q0 -44 10.5 -81t33.5 -65.5t61 -47.5t94 -28l-18 -88q-78 9 -132 33.5t-87 63t-48 89t-15 110.5q0 40 6.5 87.5t21 95t37.5 92.5t57 79.5t79 55t103 20.5q47 0 80.5 -14.5t54.5 -39.5t31 -58.5t10 -71.5q0 -34 -7.5 -70.5t-21 -72.5
t-32.5 -70.5t-42 -62.5h-106q19 23 38.5 55.5t35.5 69t26.5 73t10.5 67.5q0 45 -22 77t-74 32q-24 0 -49.5 -12t-48.5 -35.5t-41 -58.5t-28 -81z" />
    <glyph glyph-name="uni10DB.case" horiz-adv-x="512" 
d="M516 247q-11 -49 -30 -96t-51 -83.5t-78 -58.5t-110 -22q-48 0 -81 13t-52.5 35.5t-28 53t-8.5 65.5q0 57 14.5 119.5t47.5 114.5t86 85.5t130 33.5q46 0 71.5 -10.5t42.5 -31.5l13 60q3 15 3 28q0 39 -25.5 56t-63.5 17q-47 0 -98.5 -16t-101.5 -61l23 109
q43 27 91 40.5t93 13.5q36 0 68.5 -9t56.5 -27t38 -45t14 -63q0 -21 -4 -41zM423 247q4 20 7 40t3 39q0 20 -4.5 37.5t-15 30.5t-29 20.5t-45.5 7.5q-49 0 -81 -25.5t-51.5 -63.5t-27.5 -82t-8 -81q0 -21 4.5 -38.5t15 -30.5t29 -20.5t45.5 -7.5q39 0 66.5 15t45.5 39.5
t28.5 55.5t17.5 64z" />
    <glyph glyph-name="uni10DC.case" horiz-adv-x="512" 
d="M160 527q10 46 33.5 79.5t56 55t71 32t77.5 10.5h184l-16 -78h-181q-46 0 -84.5 -28.5t-50.5 -82.5l-11 -50q25 20 57.5 31t75.5 11q48 0 80 -13t51.5 -35t27.5 -52t8 -64q0 -59 -14.5 -121.5t-47.5 -115t-86.5 -86t-131.5 -33.5q-48 0 -81 13t-52.5 35.5t-28 52.5
t-8.5 65q0 44 11 94zM192 244q-5 -20 -7.5 -39.5t-2.5 -37.5q0 -20 4.5 -37.5t15.5 -30t29 -19.5t46 -7q48 0 80.5 25t51.5 63t27 81.5t8 81.5q0 21 -4.5 38.5t-15 31t-28.5 21t-45 7.5q-40 0 -67.5 -15.5t-45.5 -41t-28.5 -57t-17.5 -64.5z" />
    <glyph glyph-name="uni10DD.case" horiz-adv-x="797" 
d="M450 463q5 20 7.5 40t2.5 39q0 36 -17 60.5t-63 24.5q-39 0 -63.5 -14.5t-39.5 -38t-23.5 -54t-15.5 -62.5l-45 -211q-4 -18 -6.5 -36t-2.5 -35q0 -22 5 -40.5t17.5 -32.5t34 -22t53.5 -8l-41 -86q-46 3 -77.5 17t-50.5 37.5t-27 53.5t-8 64q0 21 2.5 43t7.5 45l45 214
q10 48 27 93.5t46.5 80.5t72.5 56t106 21q33 0 56 -6.5t39 -17.5t25.5 -27t14.5 -35q13 20 29 36t36 27t46 17t60 6q45 0 75 -11.5t48 -31.5t25.5 -47.5t7.5 -58.5q0 -25 -4 -51.5t-9 -52.5l-45 -212q-10 -48 -29 -93t-50.5 -81t-76.5 -59.5t-107 -26.5l-3 86q44 0 74 15
t49.5 39.5t31 55.5t18.5 64l45 212q5 23 9 46.5t4 43.5q0 34 -17 56t-65 22q-35 0 -59 -14t-40 -37t-25.5 -52.5t-16.5 -60.5l-36 -167h-93z" />
    <glyph glyph-name="uni10DE.case" horiz-adv-x="503" 
d="M300 418h73q15 0 30 5.5t27 16.5t20 28t8 41q0 22 -14 34t-35 19t-46 12t-46 14t-35 24t-14 43q0 11 3 26l7 31h91l-5 -24q0 -2 -0.5 -2.5t-0.5 -2.5q0 -13 14 -19.5t35.5 -12t46.5 -12t46.5 -19t35.5 -33t14 -54.5q0 -61 -24.5 -100t-53.5 -55q25 -12 37 -34t12 -50
q0 -15 -3 -30l-11 -50q-16 -72 -43.5 -116t-63 -69t-76.5 -33.5t-83 -8.5q-45 0 -77.5 13t-53.5 35.5t-31.5 52.5t-10.5 64q0 43 14 84.5t36 79.5l84 -24q-18 -35 -29 -67t-11 -64q0 -42 24.5 -65t82.5 -23q36 0 60.5 10.5t41 29t26.5 44.5t17 57l9 41q1 4 1 13
q0 24 -20.5 45t-69.5 21h-57z" />
    <glyph glyph-name="uni10DF.case" horiz-adv-x="600" 
d="M379 452q2 6 2 12.5v12.5q0 28 -14 49.5t-47 22.5l-45 -6l17 80l324 72h83l-102 -482q-12 -54 -37.5 -96t-61 -71t-78.5 -44t-89 -15q-50 0 -98 16t-102 51l60 80l26 -16q15 -9 28 -17.5t27 -15.5t31 -10.5t40 -3.5q57 0 101.5 33t59.5 102l85 399l-133 -30
q11 -18 15.5 -40t4.5 -44q0 -39 -16.5 -77t-44.5 -69t-66 -50t-80 -19q-46 0 -75 11.5t-46 29.5t-23.5 40.5t-6.5 44.5q0 29 7.5 52.5t24.5 55.5l68 -44q-8 -17 -8.5 -25.5t-0.5 -17.5q0 -30 20.5 -46.5t48.5 -16.5q31 0 60.5 22t40.5 70z" />
    <glyph glyph-name="uni10E0.case" horiz-adv-x="803" 
d="M413 273q4 19 6.5 36t2.5 33q0 35 -17.5 57.5t-65.5 22.5q-45 0 -76.5 -24.5t-51.5 -61t-29 -78.5t-9 -76q0 -19 4.5 -38.5t16.5 -35t33 -25.5t54 -10l-40 -86q-46 3 -77 17.5t-49.5 38.5t-26.5 55.5t-8 66.5q0 23 2.5 47.5t8.5 49.5l9 40q21 98 54 166.5t75 113t89.5 69
t97 36.5t98.5 14.5t94 2.5h70l-16 -78h-78q-53 0 -106.5 -7.5t-100.5 -26t-85 -50.5t-60 -81q26 21 57 33.5t67 12.5q33 0 56 -6.5t39 -17.5t25 -27t14 -35q29 39 70.5 62.5t108.5 23.5q48 0 79.5 -11t50.5 -30.5t27 -47t8 -59.5q0 -35 -6 -75t-20 -80.5t-35.5 -78
t-52.5 -67.5t-71.5 -49t-92.5 -22l-3 86q57 0 93.5 30.5t57 73.5t28.5 89t8 77q0 35 -18.5 57t-71.5 22q-36 0 -60 -12t-40.5 -32t-26.5 -47.5t-17 -57.5l-23 -104h-93z" />
    <glyph glyph-name="uni10E1.case" horiz-adv-x="495" 
d="M250 -13q-81 0 -122.5 41.5t-41.5 118.5q0 35 9 77l102 481h94l-102 -481q-3 -16 -5 -29.5t-2 -25.5q0 -50 23 -73t61 -23q36 0 64.5 17t47.5 45t29 64.5t10 74.5q0 49 -13.5 100t-36.5 93l93 48q25 -54 39 -113.5t14 -113.5q0 -34 -6 -62q-14 -62 -41 -107.5t-62 -74.5
t-75 -43t-79 -14z" />
    <glyph glyph-name="uni10E2.case" horiz-adv-x="725" 
d="M450 378l-39 -185h-93l75 354q8 39 28.5 70t49 52.5t62.5 32.5t70 11q63 0 104.5 -33t41.5 -95q0 -22 -7 -46.5t-20.5 -47t-34 -41t-47.5 -27.5q61 -26 82.5 -64t21.5 -78q0 -61 -26 -114.5t-73 -93.5t-112.5 -63t-144.5 -23q-75 0 -128 19.5t-86.5 53.5t-49 80.5
t-15.5 100.5q0 49 12 102.5t33.5 108.5t53 111t70.5 109l78 -47q-34 -47 -62.5 -96.5t-49.5 -99t-32.5 -97t-11.5 -90.5q0 -36 10 -67t33.5 -53.5t62.5 -35.5t96 -13q46 0 90.5 13t79 37.5t56 60t21.5 80.5q0 21 -8 41.5t-24 36.5t-40.5 26t-57.5 10h-69zM468 464h73
q18 0 38.5 4.5t37.5 16.5t28.5 31.5t11.5 49.5q0 31 -20 49t-51 18q-35 0 -63.5 -24t-36.5 -62z" />
    <glyph glyph-name="uni10E3.case" horiz-adv-x="582" 
d="M576 201q-10 -48 -36 -87t-62 -67.5t-80 -44t-91 -15.5q-41 0 -75 12t-59 33.5t-38.5 52.5t-13.5 69q0 22 6.5 48t18 53t27.5 53t35 49l72 -48q-33 -37 -49 -78t-16 -65q0 -44 31 -68.5t79 -24.5q27 0 52.5 8.5t46.5 24t36 37.5t21 49l78 367q2 10 2 15q0 23 -16 38
t-41 15q-29 0 -53 -18.5t-30 -47.5l-28 -132h-93l27 129q2 9 3 17t1 14q0 37 -33 37h-141l16 78h150q36 0 51.5 -11.5t23.5 -42.5q23 29 54 45.5t74 16.5q59 0 93.5 -35.5t34.5 -89.5q0 -20 -4 -37z" />
    <glyph glyph-name="uni10E4.case" horiz-adv-x="809" 
d="M773 498q5 25 5 41q0 44 -21.5 66t-53.5 22q-20 0 -40.5 -8.5t-39 -25t-33 -41t-21.5 -57.5l-8 -36q-12 -54 -33 -101t-53 -82.5t-77.5 -56t-106.5 -20.5q-48 0 -80.5 13t-52 35.5t-28 52.5t-8.5 65q0 59 14.5 120.5t47.5 112t86 82.5t130 32q68 0 101.5 -24.5
t45.5 -65.5q35 48 82.5 69t99.5 21q30 0 56 -9.5t45.5 -29t31 -48t11.5 -66.5q0 -84 -30 -139t-85 -81q21 -14 38 -35t17 -48q0 -5 -0.5 -8.5t-1.5 -8.5l-14 -68q-11 -51 -39 -86.5t-67.5 -57t-86 -31t-93.5 -9.5q-63 0 -121.5 18.5t-97.5 53.5l66 69q11 -11 29.5 -21
t40 -17.5t46 -12t47.5 -4.5q31 0 61 4t54.5 15t42.5 30.5t25 51.5l11 49q1 3 1 10q0 25 -22 43t-54 18h-54l18 83h55q54 0 78 30.5t36 90.5zM467 459q5 20 7.5 40t2.5 38q0 40 -19.5 65.5t-74.5 25.5q-48 0 -80 -23.5t-51.5 -59.5t-28 -79.5t-8.5 -82.5q0 -21 4.5 -38.5
t15 -31t29 -21t45.5 -7.5q40 0 67 15t45 39.5t28.5 55.5t17.5 64z" />
    <glyph glyph-name="uni10E5.case" horiz-adv-x="489" 
d="M239 -13q-81 0 -124.5 41t-43.5 114q0 18 4 43t12.5 53.5t22 59.5t32.5 63l75 -45q-23 -45 -38 -86t-15 -75q0 -36 21.5 -59t75.5 -23q22 0 42 6.5t37 23.5t31 46.5t24 75.5l45 208q1 6 1.5 11.5t0.5 10.5q0 41 -30 59.5t-72 18.5q-24 0 -49.5 -6t-49 -18.5t-43.5 -31
t-32 -43.5l24 113q39 39 81.5 56t84.5 17q31 0 60.5 -12t52.5 -35l28 132h93l-102 -480q-16 -75 -41.5 -121.5t-57.5 -72.5t-70 -35t-80 -9z" />
    <glyph glyph-name="uni10E6.case" horiz-adv-x="794" 
d="M426 355l27 125q3 16 5 31t2 29q0 37 -18.5 61.5t-69.5 24.5q-40 0 -66 -16.5t-43 -44t-27 -63t-18 -72.5q-9 -42 -9 -80q0 -62 23 -111.5t66 -84t105.5 -52.5t140.5 -18h67l-17 -84h-69q-94 0 -169.5 22t-129 64t-82.5 103t-29 139q0 48 12 102q13 62 33.5 113.5
t51.5 89t74.5 58.5t102.5 21q65 0 97 -22.5t43 -61.5q30 44 77.5 64t100.5 20q46 0 76.5 -12.5t48.5 -34t25.5 -51t7.5 -62.5q0 -38 -9 -84t-28 -94.5t-49.5 -96.5t-72.5 -90l-68 44q39 34 65 76.5t41.5 85t22.5 81t7 64.5q0 19 -4 35t-14 28t-26.5 18.5t-41.5 6.5
q-35 0 -59.5 -12t-41 -32t-26.5 -46.5t-16 -55.5l-27 -125h-92z" />
    <glyph glyph-name="uni10E7.case" horiz-adv-x="498" 
d="M486 170q-10 -45 -33.5 -79.5t-56 -57t-70.5 -34t-77 -11.5q-46 0 -89.5 17t-75.5 52l23 112q29 -45 72 -71t85 -26q22 0 43.5 6t39.5 19t30.5 32.5t18.5 46.5l25 118q-29 -22 -63.5 -32t-73.5 -10q-43 0 -73 11t-49 30t-27.5 45.5t-8.5 57.5q0 36 10.5 77t28.5 83t42 83
t51 77l68 -45q-17 -24 -35.5 -56t-34.5 -66.5t-26 -69t-10 -62.5q0 -35 18.5 -57.5t66.5 -22.5q41 0 84.5 30.5t66.5 93.5l52 243h91z" />
    <glyph glyph-name="uni10E8.case" horiz-adv-x="534" 
d="M284 583q1 5 1.5 9t0.5 8q0 16 -10.5 21t-29.5 5h-97l16 78h99q37 0 56 -11t27 -44q28 34 63.5 48.5t69.5 14.5q25 0 48.5 -8t41 -23t28 -37t10.5 -49q0 -16 -3 -32l-69 -324q-14 -63 -42.5 -110.5t-66 -79t-80 -47t-83.5 -15.5q-35 0 -66.5 11.5t-55 34t-37.5 56.5
t-14 79q0 74 26 133.5t65.5 101.5t87.5 64.5t93 22.5q35 0 68 -11.5t54 -43.5l29 135q1 4 1 11q0 23 -18.5 34t-41.5 11q-13 0 -25.5 -2t-23.5 -7.5t-18.5 -14t-10.5 -20.5l-10 -49h-93zM443 238q6 30 6 54q0 55 -26.5 84t-68.5 29q-29 0 -59 -15.5t-54.5 -44.5t-40 -71.5
t-15.5 -96.5q0 -51 24 -77.5t74 -26.5q63 0 103 42.5t57 122.5z" />
    <glyph glyph-name="uni10E9.case" horiz-adv-x="519" 
d="M160 528q10 46 34 80.5t57 57.5t72 34.5t78 11.5q85 0 127 -30.5t42 -78.5q0 -22 -7 -44.5t-23.5 -43.5t-44 -39.5t-67.5 -31.5l-50 67q31 6 50 14.5t29.5 17.5t14.5 19t4 20q0 20 -22 32t-70 12q-45 0 -82 -22t-49 -77l-29 -134q36 26 75 38t71 12q34 0 64.5 -11.5
t52.5 -33t35 -53t13 -71.5q0 -37 -12 -76.5t-33.5 -78t-51 -74t-63.5 -65.5l-50 63q23 21 44 47.5t37 55.5t25.5 57.5t9.5 53.5q0 53 -29 77t-68 24q-23 0 -47 -7.5t-45 -21t-37 -33.5t-21 -45l-53 -251h-93z" />
    <glyph glyph-name="uni10EA.case" horiz-adv-x="660" 
d="M424 459h101q21 0 39.5 7t32.5 18.5t22 26t8 29.5q0 21 -13 39.5t-33 34.5t-43.5 29.5t-44.5 24.5l78 47q19 -9 45 -23t49 -34t39 -45.5t16 -57.5q0 -17 -6 -38t-18.5 -41.5t-32 -38.5t-46.5 -29q27 -20 39 -49t12 -64q0 -73 -30 -130t-76.5 -96.5t-104.5 -60t-113 -20.5
q-63 0 -109 18.5t-77 51.5t-46 79t-15 102q0 101 48.5 219.5t156.5 249.5l75 -46q-46 -48 -81 -101t-58.5 -106.5t-35.5 -105t-12 -95.5q0 -49 13 -83.5t35.5 -56.5t52.5 -32t63 -10q54 0 95.5 18.5t69 47.5t41.5 64t14 68q0 43 -24.5 74.5t-73.5 31.5h-70z" />
    <glyph glyph-name="uni10EB.case" horiz-adv-x="512" 
d="M516 247q-11 -49 -30 -96t-51 -83.5t-78 -58.5t-110 -22q-48 0 -81 13t-52.5 35.5t-28 53t-8.5 65.5q0 57 15 119.5t48 114.5t86.5 85.5t130.5 33.5q41 0 68.5 -14.5t41.5 -37.5l18 86q3 13 3 25q0 23 -10 40t-27 28l41 83q41 -18 66 -51.5t25 -81.5q0 -21 -4 -40z
M423 247q4 20 7 40t3 39q0 20 -4.5 37.5t-15 30.5t-29 20.5t-45.5 7.5q-49 0 -81 -25.5t-51.5 -63.5t-27.5 -82t-8 -81q0 -21 4.5 -38.5t15 -30.5t29 -20.5t45.5 -7.5q39 0 66.5 15t45.5 39.5t28.5 55.5t17.5 64z" />
    <glyph glyph-name="uni10EC.case" horiz-adv-x="535" 
d="M483 520h-92l12 56q1 3 1 9q0 20 -17.5 30.5t-40.5 10.5q-27 0 -52.5 -13.5t-31.5 -42.5l-32 -147q32 27 69 41t73 14q84 0 128 -38t44 -121q0 -41 -10 -87q-28 -129 -98 -187t-173 -58q-85 0 -130 40t-45 125q0 40 10 86l69 326q7 34 26.5 61.5t46 47t57 29.5t59.5 10
q32 0 61.5 -14t45.5 -43q22 32 48 40.5t57 8.5h100l-16 -78h-106q-14 0 -28.5 -6.5t-19.5 -29.5zM190 232q-7 -32 -7 -61q0 -98 98 -98q125 0 160 159q6 28 6 52q0 54 -27.5 81.5t-70.5 27.5q-26 0 -51 -10t-46 -30.5t-37 -50.5t-25 -70z" />
    <glyph glyph-name="uni10ED.case" horiz-adv-x="544" 
d="M385 270q-26 -15 -54.5 -22.5t-55.5 -7.5q-32 0 -59 8.5t-47.5 24.5t-32 40t-11.5 54q0 36 15 74t44.5 69.5t72.5 51.5t100 20h94l26 122h92l-26 -122h100l-18 -84h-100l-63 -298q-10 -47 -32 -85.5t-55 -67t-75 -44t-91 -15.5q-56 0 -91 17t-70 56l74 61
q12 -12 22.5 -21.5t22 -16t25.5 -9.5t33 -3q61 0 97.5 37.5t48.5 93.5zM296 324q16 0 35 5t35.5 14t28.5 22t16 30l22 103h-82q-33 0 -58 -10.5t-41.5 -27t-25 -36.5t-8.5 -39q0 -26 20 -43.5t58 -17.5z" />
    <glyph glyph-name="uni10EE.case" horiz-adv-x="512" 
d="M197 704h93l-51 -240q25 20 56 31.5t74 11.5q49 0 81.5 -13t52 -35.5t28 -53t8.5 -65.5q0 -57 -15 -119.5t-48 -114.5t-86.5 -85.5t-130.5 -33.5q-48 0 -81 13t-52.5 35.5t-28 52.5t-8.5 65q0 43 11 93zM193 246q-5 -20 -7.5 -40t-2.5 -39q0 -20 4.5 -37t15 -30t29 -20
t45.5 -7q48 0 80.5 25.5t52 63.5t27.5 81.5t8 80.5q0 21 -4.5 38.5t-15 31t-29 21t-45.5 7.5q-40 0 -67 -15.5t-45 -40t-28.5 -56t-17.5 -64.5z" />
    <glyph glyph-name="uni10EF.case" horiz-adv-x="502" 
d="M204 599h129l22 105h94l-22 -105h129l-18 -85h-129l-11 -49q-2 -10 -2 -14q0 -24 14.5 -42.5t34.5 -36.5l13 -15q26 -26 37.5 -55.5t11.5 -61.5q0 -63 -25 -110.5t-63.5 -79t-84 -47.5t-86.5 -16q-35 0 -67.5 10.5t-57.5 31t-39.5 52t-14.5 73.5q0 38 13 82.5t43 103.5
l80 -35q-20 -45 -30.5 -76t-10.5 -60q0 -42 24 -69t80 -27q33 0 59.5 13.5t45 34.5t29 47t10.5 51q0 34 -17.5 57.5t-39 44.5t-39 45t-17.5 60q0 16 4 31l12 57h-129z" />
    <glyph glyph-name="uni10F0.case" horiz-adv-x="499" 
d="M254 619v85h193q50 0 80.5 -29.5t30.5 -72.5q0 -30 -17 -58.5t-46 -48.5q14 -11 20.5 -27.5t6.5 -33.5q0 -26 -16 -54.5t-46 -46.5q15 -11 26.5 -31.5t11.5 -55.5q0 -23 -6 -51q-11 -53 -30 -92t-48 -64.5t-70.5 -38.5t-97.5 -13q-86 0 -130.5 37.5t-44.5 112.5
q0 76 44 167l85 -24q-20 -42 -27 -72t-7 -54q0 -44 25.5 -62.5t82.5 -18.5q34 0 56 10t35.5 28t21.5 43t14 56q3 15 3 27q0 29 -13.5 41.5t-27.5 12.5h-96l18 84h96q18 0 32 15.5t14 32.5q0 13 -8 22t-21 9h-96l18 84h96q17 0 31.5 14.5t14.5 32.5q0 14 -9 24t-24 10h-175z
" />
    <glyph glyph-name="uni10F1.case" horiz-adv-x="668" 
d="M172 415q11 41 30.5 92.5t48 97t67 76.5t86.5 31q36 0 60.5 -20.5t24.5 -61.5q0 -49 -22.5 -90.5t-58 -74.5t-79 -58t-84.5 -41l-1 -5q-12 -53 -12 -105q0 -37 8 -70.5t27.5 -58.5t52 -39.5t80.5 -14.5q38 0 71 4t57 14.5t38 28.5t14 46q0 18 -10.5 29.5t-29 18t-44 10.5
t-54.5 9l18 85q36 -9 56 -13t29 -4t19.5 2.5t19.5 8t15 14.5t6 23q0 26 -33.5 41.5t-89.5 29.5l17 83q60 -21 92 -21q17 0 28 12.5t11 32.5t-26 39l-79 56l20 96l109 -79q30 -22 46.5 -50t16.5 -57q0 -30 -15 -56.5t-38 -43.5q14 -16 20.5 -33.5t6.5 -35.5q0 -30 -17.5 -59
t-44.5 -51q17 -17 27 -34t10 -41q0 -47 -23.5 -83t-62.5 -60t-90.5 -36t-107.5 -12q-69 0 -114.5 21t-72.5 55.5t-38.5 80t-11.5 94.5q0 23 2 46.5t6 46.5l-51 -19l17 83zM385 633q-14 0 -30 -14t-31.5 -38t-30 -57t-25.5 -72q28 14 52.5 32t42.5 39t28.5 43.5t10.5 45.5
q0 21 -17 21z" />
    <glyph glyph-name="uni10F2.case" horiz-adv-x="450" 
d="M375 -17q-34 0 -78 14t-83 42q-79 -37 -173 -60l18 84q30 1 58 4.5t51 11.5q-26 30 -43.5 69.5t-17.5 86.5q0 11 1 23.5t4 24.5l54 256q7 34 26 65t46 55t61 38t70 14q32 0 56.5 -10.5t41.5 -29.5t25.5 -44t8.5 -53q0 -16 -3 -34l-50 -236q-15 -72 -55.5 -126t-102.5 -96
q28 -11 55.5 -14.5t42.5 -5.5h16l-15 -68zM198 285q-7 -31 -7 -60q0 -40 13 -67t33 -45q44 29 77 72.5t45 99.5l54 254q1 5 1.5 11t0.5 11q0 29 -15.5 50t-47.5 21q-19 0 -35.5 -8t-29.5 -21t-22 -30t-13 -34z" />
    <glyph glyph-name="uni10F3.case" horiz-adv-x="474" 
d="M372 436q29 -1 48.5 -10t31.5 -24t17 -35.5t5 -44.5q0 -21 -3 -43t-8 -45q-11 -50 -26 -94.5t-41.5 -77.5t-68.5 -52.5t-106 -19.5q-76 0 -111 35t-35 91q0 60 29.5 111t86.5 90l42 -48q-32 -26 -50.5 -59.5t-18.5 -67.5q0 -33 23 -52t58 -19q32 0 53.5 11.5t36.5 32.5
t25 51t18 68q7 32 7 60q0 67 -50 67q-12 0 -28.5 -7.5t-33.5 -23.5l-41 47l154 186h-182l17 80h322z" />
    <glyph glyph-name="uni10F4.case" horiz-adv-x="478" 
d="M226 336h63q21 0 40 1t33 5.5t22.5 13t8.5 24.5q0 14 -14.5 24t-37 19.5t-48 20t-48 25t-37 35.5t-14.5 52q0 40 17.5 69t44.5 48.5t59.5 29t62.5 9.5q57 0 89.5 -28.5t32.5 -65.5q0 -14 -5.5 -30t-18 -32t-33 -30t-49.5 -24l-41 53q34 11 51 25.5t17 26.5q0 14 -16 23
t-44 9q-14 0 -28 -3t-26 -9.5t-19.5 -18.5t-7.5 -30q0 -16 8.5 -28t22 -21t31 -16t35.5 -14l-1 1q48 -13 76.5 -43.5t28.5 -66.5q0 -35 -20 -61.5t-62 -40.5q56 -30 56 -95q0 -47 -18 -85t-49.5 -65t-74 -41.5t-91.5 -14.5q-38 0 -66.5 9.5t-47.5 25.5t-28 38t-9 46
q0 34 18 65.5t60 63.5l55 -42q-26 -25 -35 -42t-9 -30q0 -22 21 -35t58 -13q63 0 96 27t33 81q0 23 -10.5 38.5t-28 24.5t-40.5 13t-48 4h-31z" />
    <glyph glyph-name="uni10F5.case" horiz-adv-x="534" 
d="M381 369h-71q-73 0 -113.5 34.5t-40.5 95.5q0 50 18.5 89.5t49.5 67t70.5 42t81.5 14.5q62 0 96.5 -31.5t34.5 -88.5q0 -17 -5 -42l-21 -101h112l-17 -80h-112l-8 -37h112l-17 -79h-112l-22 -104q-8 -38 -26 -68t-43.5 -51t-57.5 -32.5t-68 -11.5q-68 0 -107.5 34
t-39.5 95q0 47 17.5 87t48.5 69t72.5 45t88.5 16h71zM298 253q-17 0 -40 -3.5t-44 -15.5t-36 -36t-15 -65q0 -32 20 -49t56 -17q25 0 42 8t28 21t17 27.5t9 28.5l21 101h-58zM419 547q3 13 3 28q0 22 -12.5 39.5t-50.5 17.5q-30 0 -51.5 -10.5t-35.5 -27.5t-20.5 -37.5
t-6.5 -41.5q0 -22 9 -35t23 -20t30.5 -9t32.5 -2h58z" />
    <glyph glyph-name="uni10F6.case" horiz-adv-x="707" 
d="M422 568q4 17 4 31q0 23 -12 28.5t-33 5.5t-38 -8.5t-28 -35.5h-79q12 36 30.5 60t40 38t46 19.5t48.5 5.5q20 0 40 -1.5t35.5 -9.5t25 -25t9.5 -48q0 -28 -7 -60l-14 -69q20 17 44 29.5t48 12.5q65 0 100 -37.5t35 -98.5q0 -58 -20.5 -102.5t-52 -74.5t-69 -45.5
t-72.5 -15.5q-34 0 -50 11t-26 28l-13 -63q-5 -23 -5 -35q0 -24 11.5 -32.5t32.5 -8.5q20 0 36.5 7t27.5 34h81q-12 -36 -30.5 -59.5t-40 -37.5t-46 -19.5t-49.5 -5.5q-21 0 -40.5 3t-34.5 13t-24 28.5t-9 49.5q0 23 8 63l13 63q-17 -16 -38.5 -27.5t-52.5 -11.5
q-60 0 -98 36t-38 102q0 55 18.5 98.5t49 74t69 47t78.5 16.5q23 0 42 -12t33 -28zM520 248q22 0 42 11.5t35 31t24 45t9 53.5q0 33 -16 53t-48 20q-19 0 -39 -9t-36 -26.5t-26 -43.5t-10 -61q0 -39 19.5 -56.5t45.5 -17.5zM271 248q16 0 35 8t35.5 25.5t28 44.5t11.5 65
q0 36 -17.5 53.5t-46.5 17.5q-23 0 -43 -11t-35 -30t-24 -44.5t-9 -53.5q0 -35 16.5 -55t48.5 -20z" />
    <glyph glyph-name="uni10F7.case" horiz-adv-x="479" 
d="M259 453q-46 39 -46 95q0 35 14.5 65t38.5 52t54 34.5t61 12.5q24 0 45.5 -5.5t38.5 -18t27 -32.5t10 -48q1 -9 -0.5 -18.5t-3.5 -20.5q-12 -55 -37.5 -91.5t-58.5 -63t-69.5 -48.5t-69.5 -47.5t-58 -59t-36 -84.5q-3 -15 -3 -29q0 -33 20.5 -55.5t68.5 -22.5
q52 0 86.5 33.5t34.5 90.5q0 41 -26 74l61 47q26 -23 39 -53.5t13 -61.5q0 -15 -3 -30q-10 -46 -32 -80t-52 -56.5t-66.5 -33.5t-73.5 -11q-41 0 -71 11t-49.5 30t-29 44.5t-9.5 54.5q0 24 6 48q12 56 39 96t60.5 70.5t71 54.5t70 48.5t56.5 52.5t32 66q1 5 1.5 9.5t0.5 9.5
q0 18 -9.5 34.5t-36.5 16.5q-31 0 -50.5 -23.5t-19.5 -50.5q0 -13 4 -28t14 -31z" />
    <glyph glyph-name="uni10F8.case" horiz-adv-x="478" 
d="M278 705l-13 -63q-7 -31 -7 -56q0 -45 19.5 -62t47.5 -17q24 0 43 9.5t32.5 24.5t21 34.5t7.5 40.5q0 15 -3 32.5t-11 38.5l77 32q11 -29 16.5 -54.5t5.5 -48.5q0 -45 -19 -80t-49 -59t-66.5 -36.5t-70.5 -12.5q-53 0 -84 28l-58 -273q-2 -11 -3.5 -21t-1.5 -19
q0 -75 83 -75q27 0 49.5 9.5t39 25.5t26 37.5t9.5 44.5q0 40 -35 80l61 52q60 -45 60 -118q0 -51 -20 -90.5t-52 -66.5t-72.5 -41t-82.5 -14q-151 0 -151 130q0 15 2 31.5t6 35.5l110 521h83z" />
    <glyph glyph-name="uni10F9.case" 
 />
    <glyph glyph-name="uni10FA.case" 
 />
    <glyph glyph-name="uni10FB.case" horiz-adv-x="418" 
d="M280 228q5 26 27.5 44.5t48.5 18.5q23 0 37 -14.5t14 -36.5q0 -15 -6.5 -28.5t-17.5 -24t-25 -16.5t-28 -6q-23 0 -37 14.5t-14 35.5v6.5t1 6.5zM64 50q5 26 28 44.5t49 18.5q22 0 36 -14t14 -35q0 -15 -6.5 -29t-17.5 -24.5t-24.5 -17t-28.5 -6.5q-23 0 -37 14t-14 36
q0 8 1 13zM140 406q5 26 27.5 44.5t48.5 18.5q23 0 36.5 -14.5t13.5 -35.5q0 -15 -6.5 -28.5t-17 -24t-24.5 -16.5t-28 -6q-23 0 -37 14t-14 35v6.5t1 6.5z" />
    <glyph glyph-name="uni10FC.case" 
 />
    <glyph glyph-name="uni10FD.case" 
 />
    <glyph glyph-name="uni10FE.case" 
 />
    <glyph glyph-name="uni10FF.case" 
 />
    <glyph glyph-name="NULL" 
 />
    <glyph glyph-name="10FD" 
 />
    <glyph glyph-name="10FE" 
 />
    <glyph glyph-name="10FF" 
 />
    </font>
</defs>
</svg>
