<?xml version="1.0" standalone="no"?>
<!DOCTYPE svg PUBLIC "-//W3C//DTD SVG 1.1//EN" "http://www.w3.org/Graphics/SVG/1.1/DTD/svg11.dtd" >
<svg xmlns="http://www.w3.org/2000/svg" xmlns:xlink="http://www.w3.org/1999/xlink" version="1.1">
<metadata>
Created by FontForge 20170731 at Wed Apr 18 18:26:47 2018
 By Aleksey,,,
Copyright (c) 2018 by Merab Getsadze. All rights reserved.
</metadata>
<defs>
<font id="PharmadepotNus-Bold" horiz-adv-x="0" >
  <font-face 
    font-family="Pharmadepot Nus"
    font-weight="700"
    font-stretch="normal"
    units-per-em="1000"
    panose-1="2 0 0 0 0 0 0 0 0 0"
    ascent="800"
    descent="-200"
    x-height="520"
    cap-height="704"
    bbox="-76 -290 1015 949"
    underline-thickness="50"
    underline-position="-150"
    unicode-range="U+000D-2122"
  />
<missing-glyph horiz-adv-x="410" 
 />
    <glyph glyph-name=".notdef" horiz-adv-x="410" 
 />
    <glyph glyph-name=".null" 
 />
    <glyph glyph-name="nonmarkingreturn" unicode="&#xd;" 
 />
    <glyph glyph-name="space" unicode=" " horiz-adv-x="410" 
 />
    <glyph glyph-name="exclam" unicode="!" 
 />
    <glyph glyph-name="quotedbl" unicode="&#x22;" horiz-adv-x="375" 
d="M216 525v187h100v-187h-100zM53 525v187h100v-187h-100z" />
    <glyph glyph-name="numbersign" unicode="#" horiz-adv-x="653" 
d="M493 418q-5 -32 -9.5 -56.5t-9.5 -56.5h84v-85h-98l-35 -220h-95l34 220h-129l-34 -220h-96l34 220h-83v85h97q5 31 10 56t10 57h-87v87h98l34 208h96l-34 -208h130l34 208h94l-33 -208h82v-87h-94zM268 418l-20 -113h130l19 113h-129z" />
    <glyph glyph-name="dollar" unicode="$" horiz-adv-x="626" 
d="M560 201q0 -88 -56.5 -141t-153.5 -63v-70h-82v67q-66 5 -117 29.5t-100 73.5l66 66q38 -38 75.5 -56t79.5 -22v233q-2 0 -4.5 0.5t-4.5 0.5q-93 9 -141 61.5t-48 131.5q0 85 52 139t142 65v58h82v-57q55 -5 97 -25.5t87 -59.5l-64 -64q-28 25 -56.5 41t-66.5 20v-227
l19 -4q53 -11 90 -28.5t60 -42t33.5 -56t10.5 -70.5zM464 199q0 31 -10.5 50.5t-27.5 31.5t-37.5 18t-41.5 9v-223q51 8 84 37.5t33 76.5zM272 629q-50 -8 -76 -38t-26 -76q0 -24 9 -42t24 -30.5t33 -20t36 -11.5v218z" />
    <glyph glyph-name="percent" unicode="%" horiz-adv-x="832" 
d="M762 135q0 -32 -11 -58.5t-30 -45t-45 -28.5t-57 -10q-62 0 -102 38.5t-40 103.5v102q0 65 40 103.5t102 38.5q31 0 57 -10t45 -28.5t30 -45t11 -58.5v-102zM342 475q0 -32 -11 -58t-30 -44.5t-45 -28.5t-57 -10t-57 10t-45 28.5t-29.5 44.5t-10.5 58v102q0 65 40 103.5
t102 38.5q31 0 57 -10t45 -28.5t30 -45t11 -58.5v-102zM284 0h-84l334 712h84zM683 235q0 34 -15 53.5t-49 19.5t-49 -19t-15 -54v-98q0 -34 15 -53t49 -19t49 19.5t15 52.5v98zM263 575q0 33 -15 52.5t-49 19.5t-49 -19t-15 -53v-98q0 -33 15.5 -52.5t48.5 -19.5
q34 0 49 19.5t15 52.5v98z" />
    <glyph glyph-name="ampersand" unicode="&#x26;" horiz-adv-x="722" 
d="M545 0l-57 70q-12 -11 -30.5 -24t-43.5 -24.5t-57 -19.5t-71 -8q-53 0 -95.5 15.5t-72.5 43t-46 66.5t-16 87q0 40 12 70.5t32 55t45.5 44.5t53.5 39q-24 30 -46 66t-22 81q0 33 12 61.5t34 49.5t51.5 33t65.5 12q35 0 64.5 -12t51.5 -33t34 -50t12 -62q0 -29 -9 -51.5
t-25.5 -41.5t-39 -35t-49.5 -31q41 -50 79 -94.5t80 -95.5q7 13 12.5 28t8.5 32.5t5 39t2 49.5h93q-1 -70 -15 -125.5t-45 -97.5q13 -15 28 -33t30 -36.5t30 -36t27 -32.5h-123zM256 350q-20 -14 -39 -28.5t-33.5 -31.5t-23.5 -37t-9 -45q0 -57 37 -91.5t97 -34.5
q35 0 70.5 11t75.5 45zM364 561q0 30 -20 50.5t-50 20.5t-48.5 -19.5t-18.5 -49.5q0 -11 2.5 -20.5t8.5 -20.5t16 -25t25 -32l9 5h-1q30 20 53.5 40.5t23.5 50.5z" />
    <glyph glyph-name="quotesingle" unicode="'" horiz-adv-x="207" 
d="M58 525v187h88v-187h-88z" />
    <glyph glyph-name="parenleft" unicode="(" horiz-adv-x="260" 
d="M149 -191l-13 14q-28 28 -45.5 50.5t-27 43.5t-12.5 43t-3 48v537q0 27 3.5 49t13 43t27 43.5t44.5 49.5l13 13l63 -63q-16 -15 -29 -29t-22.5 -30t-15 -35.5t-5.5 -46.5v-526q0 -27 5.5 -46.5t15 -35.5t22.5 -29.5t29 -29.5z" />
    <glyph glyph-name="parenright" unicode=")" horiz-adv-x="260" 
d="M111 743l13 -14q28 -28 45.5 -50.5t27 -43.5t12.5 -43t3 -48v-537q0 -27 -3.5 -49t-13 -43t-27 -43.5t-44.5 -49.5l-13 -13l-63 63q16 15 29 29t22.5 30t15 35.5t5.5 46.5v526q0 27 -5.5 46.5t-15 35t-22.5 29.5t-29 30z" />
    <glyph glyph-name="asterisk" unicode="*" horiz-adv-x="468" 
d="M372 405l-102 64v-124h-76v124l-104 -64l-40 68l106 58l-106 59l40 67l101 -64v124h75v-125l106 65l38 -67l-106 -59l107 -58z" />
    <glyph glyph-name="plus" unicode="+" horiz-adv-x="546" 
d="M313 226v-170h-88v170h-170v89h170v168h88v-168h169v-89h-169z" />
    <glyph glyph-name="comma" unicode="," horiz-adv-x="234" 
d="M52 49q0 26 18.5 44.5t44.5 18.5t44.5 -19t18.5 -46l-34 -162h-66l24 102q-21 5 -35.5 22.5t-14.5 39.5z" />
    <glyph glyph-name="hyphen" unicode="-" horiz-adv-x="402" 
d="M54 228v88h288v-88h-288z" />
    <glyph glyph-name="period" unicode="." horiz-adv-x="222" 
d="M52 50q0 26 18.5 44.5t44.5 18.5t44.5 -18.5t18.5 -44.5t-18.5 -44.5t-44.5 -18.5t-44.5 18.5t-18.5 44.5z" />
    <glyph glyph-name="slash" unicode="/" horiz-adv-x="448" 
d="M128 -151h-92l284 856h92z" />
    <glyph glyph-name="zero" unicode="0" horiz-adv-x="527" 
d="M479 189q0 -45 -17.5 -82.5t-47.5 -64t-69 -41t-81 -14.5q-43 0 -82 14.5t-69 41t-47.5 64t-17.5 82.5v322q0 45 17.5 82.5t47.5 63.5t69 40.5t82 14.5q42 0 81 -14.5t69 -40.5t47.5 -63.5t17.5 -82.5v-322zM386 507q0 26 -9.5 48t-26 38t-38.5 25t-48 9t-48.5 -9
t-39 -25t-26 -38t-9.5 -48v-314q0 -26 9.5 -48t26 -38t39 -25t48.5 -9t48 9t38.5 25t26 38t9.5 48v314z" />
    <glyph glyph-name="one" unicode="1" horiz-adv-x="293" 
d="M152 0v589q-31 -27 -65.5 -57t-62.5 -56v111l135 118h86v-705h-93z" />
    <glyph glyph-name="two" unicode="2" horiz-adv-x="474" 
d="M36 0v76l273 344h-1q20 24 28.5 46.5t8.5 48.5q0 51 -28.5 81.5t-79.5 30.5q-22 0 -41.5 -6.5t-34.5 -20t-24 -35t-9 -51.5v-66h-92v66q0 43 14 79.5t40.5 62.5t63.5 41t83 15q45 0 82 -14t63.5 -39.5t41 -62t14.5 -81.5q0 -43 -14 -75.5t-44 -70.5l-226 -284h284v-85
h-402z" />
    <glyph glyph-name="three" unicode="3" horiz-adv-x="501" 
d="M465 193q0 -50 -16.5 -88.5t-45.5 -64.5t-68 -39.5t-84 -13.5q-43 0 -81 12.5t-67 37.5t-46.5 63.5t-20.5 91.5h93q2 -32 13 -55t27.5 -37.5t37.5 -21t44 -6.5q51 0 86 32.5t35 89.5q0 58 -29.5 92t-94.5 34h-42v85h42q57 0 84 27.5t27 80.5q0 56 -31.5 85t-76.5 29
q-50 0 -79 -31t-34 -84h-93q3 47 20 84.5t44.5 63t63.5 39t78 13.5q45 0 82 -14t63.5 -40t41 -62.5t14.5 -81.5q0 -102 -78 -148q91 -46 91 -173z" />
    <glyph glyph-name="four" unicode="4" horiz-adv-x="515" 
d="M400 156v-156h-93v156h-283v88l249 460h107l-249 -463h176v196h93v-196h91v-85h-91z" />
    <glyph glyph-name="five" unicode="5" horiz-adv-x="494" 
d="M458 242q0 -42 -10.5 -87.5t-35.5 -82.5t-67.5 -61t-106.5 -24q-48 0 -86.5 15.5t-66 42t-43 63t-18.5 78.5h93q6 -52 38.5 -82.5t82.5 -30.5q37 0 62 16t39 40.5t20 53.5t6 56q0 45 -11.5 77t-29.5 53t-41.5 30.5t-47.5 9.5q-36 0 -63.5 -21.5t-41.5 -60.5h-89v377h372
v-85h-279v-170q25 24 53 35t62 11q38 0 75.5 -13.5t67 -44t48 -78.5t18.5 -117z" />
    <glyph glyph-name="six" unicode="6" horiz-adv-x="503" 
d="M319 704l-115 -256q14 4 28.5 5t25.5 1q43 0 81 -14.5t66.5 -40.5t45 -63.5t16.5 -82.5v-64q0 -45 -17.5 -82.5t-47 -64t-68.5 -41t-81 -14.5q-43 0 -82 14.5t-69 41t-48 64t-18 82.5v64q0 5 2 17t5.5 27t8.5 31t11 30l154 346h102zM374 249q0 25 -9 47t-25.5 38.5
t-38.5 25.5t-48 9t-49 -9t-39.5 -25.5t-26 -38.5t-9.5 -47v-56q0 -26 9.5 -48t26 -38t39.5 -25t49 -9t48 9t38.5 25t25.5 38t9 48v56z" />
    <glyph glyph-name="seven" unicode="7" horiz-adv-x="453" 
d="M186 0h-97l239 626h-212v-106h-92v184h405v-74z" />
    <glyph glyph-name="eight" unicode="8" horiz-adv-x="501" 
d="M465 201q0 -46 -16.5 -85.5t-45 -68t-68 -44.5t-84.5 -16t-84.5 16t-68.5 44.5t-45.5 68t-16.5 85.5q0 59 26 100t67 68q-38 25 -59 59.5t-21 87.5q0 43 15 79t42 62t64 40.5t81 14.5q43 0 80 -14.5t64 -40.5t42 -62t15 -79q0 -52 -21 -87.5t-58 -59.5q41 -27 66.5 -68
t25.5 -100zM373 202q0 26 -9.5 48.5t-26 39t-39 26t-47.5 9.5q-26 0 -48 -9.5t-38.5 -26t-26 -39t-9.5 -48.5t9.5 -49.5t26 -41t38.5 -28t48 -10.5q25 0 47.5 10.5t39 28t26 41t9.5 49.5zM359 515q0 49 -30 80.5t-78 31.5t-78.5 -31.5t-30.5 -80.5q0 -50 30.5 -78t78.5 -28
t78 28t30 78z" />
    <glyph glyph-name="nine" unicode="9" horiz-adv-x="503" 
d="M181 0l117 251q-14 -4 -28 -5t-25 -1q-43 0 -81 14.5t-66.5 40.5t-45 63.5t-16.5 82.5v64q0 45 17.5 82.5t47 63.5t68.5 40.5t82 14.5q42 0 81 -14.5t69 -40.5t48 -63.5t18 -82.5v-64q0 -5 -2 -17.5t-5.5 -27.5t-8.5 -31t-11 -29l-157 -341h-102zM129 450q0 -26 9 -48
t25.5 -38t39 -25t48.5 -9t48.5 9t39 25t26 38t9.5 48v56q0 26 -9.5 48t-26 38t-39 25t-48.5 9t-48.5 -9t-39 -25t-25.5 -38t-9 -48v-56z" />
    <glyph glyph-name="colon" unicode=":" horiz-adv-x="222" 
d="M52 143q0 26 18.5 44.5t44.5 18.5t44.5 -18.5t18.5 -44.5t-18.5 -44.5t-44.5 -18.5t-44.5 18.5t-18.5 44.5zM52 434q0 26 18.5 44t44.5 18t44.5 -18t18.5 -44t-18.5 -44.5t-44.5 -18.5t-44.5 18.5t-18.5 44.5z" />
    <glyph glyph-name="semicolon" unicode=";" horiz-adv-x="222" 
d="M52 49q0 26 18.5 44.5t44.5 18.5t44.5 -19t18.5 -46l-34 -162h-66l24 102q-21 5 -35.5 22.5t-14.5 39.5zM52 434q0 26 18.5 44t44.5 18t44.5 -18t18.5 -44t-18.5 -44.5t-44.5 -18.5t-44.5 18.5t-18.5 44.5z" />
    <glyph glyph-name="less" unicode="&#x3c;" horiz-adv-x="459" 
d="M54 233v78l344 175v-102l-227 -112l227 -112v-102z" />
    <glyph glyph-name="equal" unicode="=" horiz-adv-x="546" 
d="M55 310v88h427v-88h-427zM55 146v87h427v-87h-427z" />
    <glyph glyph-name="greater" unicode="&#x3e;" horiz-adv-x="459" 
d="M54 58v102l226 112l-226 112v102l344 -175v-78z" />
    <glyph glyph-name="question" unicode="?" horiz-adv-x="458" 
d="M422 524q0 -18 -5 -35t-18 -42t-37.5 -61.5t-63.5 -93.5q-8 -11 -12 -25.5t-4 -23.5v-88h-93v89q0 30 8 52.5t24 45.5q36 51 57.5 82t33 49.5t15 29t3.5 21.5q0 44 -28 73t-72 29q-23 0 -42 -9t-32 -25t-20 -36.5t-7 -43.5h-93q0 42 14.5 78.5t40.5 63.5t61.5 42.5
t77.5 15.5q40 0 75.5 -14t61 -38.5t40.5 -59t15 -76.5zM182 0v105h107v-105h-107z" />
    <glyph glyph-name="at" unicode="@" horiz-adv-x="697" 
d="M540 0v36q-23 -20 -51.5 -31.5t-66.5 -11.5q-45 0 -79.5 14t-58 44t-36 77t-12.5 114q0 131 46 190t139 59q70 0 118 -43v46q0 66 -35.5 101.5t-98.5 35.5h-126q-60 0 -96 -34.5t-36 -102.5v-327q0 -21 2.5 -36t9.5 -28t19 -25t30 -26l-65 -65q-26 19 -42.5 36.5
t-26.5 37.5t-14 45.5t-4 59.5v326q0 103 55.5 162t159.5 59h143q102 0 159 -59t57 -162v-493zM539 242q0 31 -3.5 61t-15 53t-32.5 37t-55 14q-35 0 -55.5 -14t-31.5 -37t-14.5 -53t-3.5 -61q0 -32 3.5 -61.5t14.5 -53t31.5 -37.5t55.5 -14q34 0 55 14t32.5 37.5t15 53
t3.5 61.5z" />
    <glyph glyph-name="A" unicode="A" horiz-adv-x="683" 
d="M341 578l-94 -271h190zM217 218l-77 -218h-92l247 705h92l248 -705h-94l-74 218h-250z" />
    <glyph glyph-name="B" unicode="B" horiz-adv-x="615" 
d="M149 626v-216h189q27 0 48.5 8.5t36 23.5t22 34.5t7.5 41.5t-8 41.5t-23 34.5t-36 23.5t-47 8.5h-189zM149 332v-254h207q27 0 49 10.5t37.5 28t23.5 39.5t8 45q0 28 -9.5 52t-27.5 41.5t-43 27.5t-55 10h-190zM56 704h286q45 0 82.5 -14.5t64.5 -39.5t41.5 -59t14.5 -74
q0 -22 -6 -44t-17.5 -41t-27.5 -34.5t-36 -24.5q57 -24 83 -69.5t26 -96.5q0 -38 -14 -75.5t-41 -66.5t-65.5 -47t-87.5 -18h-303v704z" />
    <glyph glyph-name="C" unicode="C" horiz-adv-x="678" 
d="M350 -13q-69 0 -125 26t-95 74t-60.5 115.5t-21.5 149.5q0 80 21 146.5t60.5 114t95.5 73.5t125 26q196 0 280 -214l-80 -37q-32 82 -80 123.5t-120 41.5q-50 0 -89 -20.5t-65.5 -57t-40.5 -87t-14 -109.5t14 -110t40.5 -88.5t65.5 -59t89 -21.5q72 0 123 45t72 119
l83 -37q-42 -111 -110.5 -162t-167.5 -51z" />
    <glyph glyph-name="D" unicode="D" horiz-adv-x="650" 
d="M291 704q67 0 124 -26.5t98.5 -73.5t65 -111.5t23.5 -140.5t-23.5 -140.5t-65 -111.5t-98.5 -73.5t-124 -26.5h-235v704h235zM509 352q0 55 -16 105t-45 87.5t-69 59.5t-88 22h-142v-548h142q49 0 89.5 22.5t69 60t44 87.5t15.5 104z" />
    <glyph glyph-name="E" unicode="E" horiz-adv-x="516" 
d="M492 704v-78h-343v-204h293v-85h-293v-259h343v-78h-436v704h436z" />
    <glyph glyph-name="F" unicode="F" horiz-adv-x="508" 
d="M484 704v-73h-343v-221h293v-73h-293v-337h-93v704h436z" />
    <glyph glyph-name="G" unicode="G" horiz-adv-x="685" 
d="M378 375h259v-375h-67l-15 71q-38 -40 -90.5 -62t-114.5 -22q-69 0 -125 26t-95 74t-60.5 115.5t-21.5 149.5q0 80 21 146.5t60.5 114t95.5 73.5t125 26q193 0 277 -205l-78 -42q-32 80 -79.5 120.5t-118.5 40.5q-50 0 -89 -20.5t-66 -57t-41 -87t-14 -109.5t14 -109.5
t41 -87t65.5 -57t88.5 -20.5q53 0 90 15.5t61 43.5t35.5 66.5t14.5 85.5h-206z" />
    <glyph glyph-name="H" unicode="H" horiz-adv-x="593" 
d="M149 704v-271h295v271h93v-704h-93v355h-295v-355h-93v704h93z" />
    <glyph glyph-name="I" unicode="I" horiz-adv-x="205" 
d="M149 704v-704h-93v704h93z" />
    <glyph glyph-name="J" unicode="J" horiz-adv-x="500" 
d="M243 -13q-94 0 -144.5 54t-50.5 163l93 41v-26q0 -65 23 -103t79 -38q55 0 81.5 38t26.5 103v486h93v-482q0 -115 -50 -175.5t-151 -60.5z" />
    <glyph glyph-name="K" unicode="K" horiz-adv-x="627" 
d="M214 378l-65 -60v-318h-93v704h93v-276l301 276h118l-287 -265l315 -439h-109z" />
    <glyph glyph-name="L" unicode="L" horiz-adv-x="439" 
d="M149 705v-627h266v-78h-359v705h93z" />
    <glyph glyph-name="M" unicode="M" horiz-adv-x="758" 
d="M375 121l222 584h105v-705h-93v458l7 62l-196 -520h-90l-191 521l10 -63v-458h-93v705h96z" />
    <glyph glyph-name="N" unicode="N" horiz-adv-x="624" 
d="M159 704l333 -580l-17 56v524h93v-704h-108l-324 577l13 -71v-506h-93v704h103z" />
    <glyph glyph-name="O" unicode="O" horiz-adv-x="710" 
d="M355 78q50 0 90 21t67.5 58t42 87t14.5 108q0 59 -14.5 109.5t-42 87t-67.5 57t-90 20.5t-90 -20.5t-67.5 -57t-42 -86.5t-14.5 -110q0 -59 14.5 -109.5t42 -87t67.5 -57t90 -20.5zM48 352q0 82 22.5 148.5t63 113.5t97 72.5t124.5 25.5q70 0 127 -25.5t97 -73t61.5 -114
t21.5 -147.5q0 -83 -22 -150t-62.5 -115t-97 -74t-125.5 -26q-70 0 -126.5 26t-96.5 74t-62 115.5t-22 149.5z" />
    <glyph glyph-name="P" unicode="P" horiz-adv-x="546" 
d="M294 704q43 0 80 -17t64.5 -45.5t43.5 -65.5t16 -77t-16 -77t-43.5 -65.5t-64.5 -45.5t-80 -17h-145v-294h-93v704h238zM149 372h145q25 0 45.5 12t35 30.5t22.5 42t8 46.5q0 22 -8 44.5t-23 39.5t-35.5 28t-44.5 11h-145v-254z" />
    <glyph glyph-name="Q" unicode="Q" horiz-adv-x="708" 
d="M454 223l63 -57q50 82 50 190q0 62 -16 112t-44.5 85t-68.5 54t-88 19q-49 0 -87.5 -20t-65.5 -55.5t-41.5 -85t-14.5 -107.5q0 -66 15 -118t42 -88t64.5 -55t82.5 -19q32 0 60 7t53 26l-91 76zM48 358q0 79 21.5 144.5t61 112t95 72t124.5 25.5t126.5 -26t98 -73.5
t63 -113t22.5 -143.5q0 -72 -22 -136t-54 -113l76 -64l-57 -63l-75 67q-40 -32 -86 -46t-97 -14q-66 0 -120.5 26.5t-94 75t-61 117t-21.5 152.5z" />
    <glyph glyph-name="R" unicode="R" horiz-adv-x="587" 
d="M563 0h-97l-184 329h-133v-329h-93v704h253q46 0 85.5 -13.5t69 -38.5t46 -60t16.5 -77q0 -29 -10 -58t-29.5 -53.5t-47 -43t-62.5 -26.5zM149 407h160q31 0 54.5 9.5t39 24.5t23 34.5t7.5 39.5q0 22 -8.5 42t-24.5 35.5t-39 24.5t-52 9h-160v-219z" />
    <glyph glyph-name="S" unicode="S" horiz-adv-x="593" 
d="M292 712q43 0 84.5 -12.5t75 -38t55.5 -64t26 -90.5l-81 -44v33q0 27 -13 51t-35 41.5t-51.5 27.5t-62.5 10q-27 0 -52 -6t-44 -18t-30 -31t-11 -44q0 -44 29 -68.5t72.5 -40.5t94.5 -29.5t94.5 -35t72.5 -58t29 -98.5q0 -52 -19 -91t-52 -65.5t-78 -40t-98 -13.5
q-44 0 -87 12t-78 36.5t-58 62t-27 88.5l89 52q1 -85 41 -125t120 -40q39 0 67.5 9.5t48 26t29 38t9.5 45.5q0 32 -17 52.5t-44.5 34.5t-62.5 23.5t-72 20t-72 25t-62.5 38t-44.5 58t-17 86.5q0 45 20 79t52.5 57t74 34.5t85.5 11.5z" />
    <glyph glyph-name="T" unicode="T" horiz-adv-x="583" 
d="M535 704v-78h-192v-626h-93v626h-202v78h487z" />
    <glyph glyph-name="U" unicode="U" horiz-adv-x="624" 
d="M149 704v-450q0 -41 11 -74t31.5 -57t50 -37t66.5 -13q36 0 66.5 13t53 36.5t35 57t12.5 74.5v450h93v-447q0 -62 -19.5 -112t-54.5 -85t-82.5 -54t-103.5 -19t-102.5 19t-79.5 54t-51.5 85t-18.5 112v447h93z" />
    <glyph glyph-name="V" unicode="V" horiz-adv-x="634" 
d="M116 705l201 -578q50 143 100.5 289t99.5 289h93l-247 -705h-92l-247 705h92z" />
    <glyph glyph-name="W" unicode="W" horiz-adv-x="865" 
d="M617 151l134 553h90l-175 -704h-97l-135 542l-137 -542h-96l-177 704h92l134 -554l135 554h96z" />
    <glyph glyph-name="X" unicode="X" horiz-adv-x="650" 
d="M506 704h103l-233 -339l250 -365h-103l-198 289l-198 -289h-103l250 365q-27 40 -57 83t-60 86.5t-59.5 86t-56.5 83.5h103l181 -266z" />
    <glyph glyph-name="Y" unicode="Y" horiz-adv-x="628" 
d="M271 261l-247 443h99l191 -356l190 356h100l-240 -445v-259h-93v261z" />
    <glyph glyph-name="Z" unicode="Z" horiz-adv-x="567" 
d="M528 705v-79l-389 -548h404v-78h-519v78l388 548h-371v79h487z" />
    <glyph glyph-name="bracketleft" unicode="[" horiz-adv-x="307" 
d="M259 704v-78h-110v-712h110v-78h-203v868h203z" />
    <glyph glyph-name="backslash" unicode="\" horiz-adv-x="510" 
d="M140 705l369 -844h-88l-373 844h92z" />
    <glyph glyph-name="bracketright" unicode="]" horiz-adv-x="307" 
d="M48 -164v78h110v712h-110v78h203v-868h-203z" />
    <glyph glyph-name="asciicircum" unicode="^" horiz-adv-x="563" 
d="M305 705l198 -373l-69 -48l-157 289l-50 -92q-26 -48 -53.5 -100t-52.5 -97l-70 48l199 373h55z" />
    <glyph glyph-name="underscore" unicode="_" horiz-adv-x="625" 
d="M560 -23v-85h-505v85h505z" />
    <glyph glyph-name="grave" unicode="`" horiz-adv-x="302" 
d="M44 728h107l102 -173h-106z" />
    <glyph glyph-name="a" unicode="a" horiz-adv-x="573" 
d="M286 448q-63 0 -96.5 -28t-35.5 -85l-96 35q7 37 26.5 67t49.5 51t68.5 32.5t82.5 11.5q106 0 160 -46t54 -131v-217q0 -18 2 -29t7.5 -16.5t15.5 -7t25 -1.5v-84h-34q-73 0 -92 48q-31 -29 -79.5 -44.5t-100.5 -15.5q-83 0 -136.5 38.5t-58.5 114.5q0 22 8 47t26.5 46.5
t48 38.5t71.5 24q44 7 82 14t65.5 16t43.5 21t16 30q0 29 -33 49.5t-90 20.5zM409 260q-22 -13 -54 -22.5t-63.5 -15.5t-58 -10t-37.5 -6q-26 -11 -42 -28t-16 -37q0 -33 30.5 -51t75.5 -18q30 0 59.5 6.5t53 20t38 34.5t14.5 51v76z" />
    <glyph glyph-name="b" unicode="b" horiz-adv-x="550" 
d="M149 704v-238q25 32 61.5 49.5t76.5 17.5q46 0 85.5 -19.5t68 -55t45 -84.5t16.5 -108q0 -64 -17 -115.5t-46 -88t-69.5 -56t-86.5 -19.5q-41 0 -77.5 14.5t-62.5 41.5l-11 -43h-76v704h93zM280 447q-30 0 -54 -15.5t-41 -41.5t-26.5 -60.5t-9.5 -72.5q0 -80 35.5 -129.5
t95.5 -49.5q30 0 54 13.5t41 37.5t26 56.5t9 71.5q0 40 -9 74.5t-26 60t-41 40.5t-54 15z" />
    <glyph glyph-name="c" unicode="c" horiz-adv-x="522" 
d="M281 533q35 0 68.5 -10.5t61.5 -31.5t47.5 -51t27.5 -69l-82 -37q-11 51 -45 82t-78 31q-34 0 -60 -15t-44 -41t-27.5 -60.5t-9.5 -73.5q0 -81 36 -130t105 -49q45 0 78 23.5t50 79.5l75 -42q-11 -37 -31.5 -65t-47.5 -47t-59 -29t-65 -10q-54 0 -97 20.5t-73 56.5
t-46.5 85t-16.5 107q0 60 16.5 110.5t47.5 87t73.5 57.5t95.5 21z" />
    <glyph glyph-name="d" unicode="d" horiz-adv-x="550" 
d="M494 704v-708h-76l-11 47q-26 -27 -62.5 -41.5t-77.5 -14.5q-47 0 -87 19.5t-69 56t-46 88t-17 115.5q0 59 16.5 108t45 84.5t68 55t85.5 19.5q39 0 76 -17.5t62 -49.5v238h93zM270 447q-30 0 -54 -15t-41 -40.5t-26 -60t-9 -74.5q0 -39 9 -72.5t26 -58t41 -39t54 -14.5
q29 0 53 14t41.5 38.5t27 58t9.5 73.5q0 38 -9.5 72.5t-27 60.5t-41.5 41.5t-53 15.5z" />
    <glyph glyph-name="e" unicode="e" horiz-adv-x="550" 
d="M143 222q9 -72 45 -110.5t87 -38.5q38 0 75.5 21.5t58.5 69.5l80 -40q-33 -61 -87 -99t-117 -38q-49 0 -92 19.5t-75.5 55.5t-51 86.5t-18.5 111.5q0 63 15.5 114t44.5 86t72 54t98 19q49 0 90 -20t71 -56t46.5 -86t16.5 -111v-38h-359zM275 447q-25 0 -48 -9.5
t-41.5 -28t-30 -44.5t-13.5 -59h267q0 32 -12 58t-31 44.5t-43 28.5t-48 10z" />
    <glyph glyph-name="f" unicode="f" horiz-adv-x="301" 
d="M86 520v42q0 67 31.5 104.5t98.5 37.5h53v-87h-48q-20 0 -31 -12.5t-11 -47.5v-37h90v-73h-90v-447h-93v447h-50v73h50z" />
    <glyph glyph-name="g" unicode="g" horiz-adv-x="550" 
d="M495 520v-569q0 -38 -16 -70.5t-44.5 -56t-68 -36.5t-86.5 -13q-78 0 -134 41t-76 106l84 37q11 -48 45 -77t82 -29q60 0 90.5 33t30.5 87v64q-26 -23 -61.5 -36.5t-73.5 -13.5q-47 0 -87 19.5t-69.5 56t-46.5 88t-17 115.5q0 59 16.5 108t45.5 84t68.5 54.5t85.5 19.5
q39 0 76.5 -17t62.5 -49v54h93zM270 447q-30 0 -54 -15t-41 -40.5t-26 -60t-9 -74.5q0 -39 9 -72.5t26 -58t41 -39t54 -14.5q29 0 53.5 14t42 38.5t27 58t9.5 73.5q0 38 -9.5 72.5t-27 60.5t-42 41.5t-53.5 15.5z" />
    <glyph glyph-name="h" unicode="h" horiz-adv-x="549" 
d="M149 704v-234q24 29 59 46t80 17q43 0 81 -16t65.5 -44.5t43.5 -68t16 -85.5v-319h-93v301q0 33 -10 60t-27 46t-41 29.5t-52 10.5q-58 0 -90 -41t-32 -105v-301h-93v704h93z" />
    <glyph glyph-name="i" unicode="i" horiz-adv-x="205" 
d="M149 520v-520h-93v520h93zM56 655h93v-88h-93v88z" />
    <glyph glyph-name="j" unicode="j" horiz-adv-x="324" 
d="M268 520v-593q0 -66 -38.5 -102.5t-101.5 -36.5h-48l-32 73h75q16 0 26 3.5t16 13.5t8.5 28.5t2.5 48.5v565h92zM268 658v-91h-92v91h92z" />
    <glyph glyph-name="k" unicode="k" horiz-adv-x="511" 
d="M148 704v-382l210 198h125l-229 -210l233 -310h-108l-187 249l-44 -44v-205h-92v704h92z" />
    <glyph glyph-name="l" unicode="l" horiz-adv-x="204" 
d="M148 704v-704h-92v704h92z" />
    <glyph glyph-name="m" unicode="m" horiz-adv-x="755" 
d="M141 0h-93v520h93v-33q23 25 50 35.5t60 10.5q42 0 78 -20t58 -59q24 37 62.5 58t80.5 21q39 0 71.5 -15.5t56 -43.5t37 -66t13.5 -83v-325h-93v326q0 58 -28.5 89.5t-68.5 31.5q-42 0 -66 -32t-24 -89v-326h-93v326q0 58 -28.5 89.5t-68.5 31.5q-42 0 -69.5 -31
t-27.5 -90v-326z" />
    <glyph glyph-name="n" unicode="n" horiz-adv-x="557" 
d="M148 520v-47q26 29 64.5 44.5t82.5 15.5t81.5 -15.5t65.5 -43.5t43.5 -66t15.5 -84v-324h-92v305q0 33 -10 59.5t-27 44.5t-41 28t-52 10q-59 0 -95 -39t-36 -103v-305h-92v520h92z" />
    <glyph glyph-name="o" unicode="o" horiz-adv-x="553" 
d="M273 533q49 0 91 -19.5t73.5 -55.5t49.5 -87t18 -114q0 -62 -17.5 -112t-48 -85t-73 -54t-93.5 -19t-92.5 19t-71 54t-45.5 85t-16 112t16.5 113t46 87t71 56t91.5 20zM412 257q0 88 -37 139t-102 51q-34 0 -58.5 -15t-41 -40.5t-24.5 -60t-8 -74.5q0 -87 33.5 -135.5
t99.5 -48.5t102 50t36 134z" />
    <glyph glyph-name="p" unicode="p" horiz-adv-x="550" 
d="M56 -203v723h84v-52q29 32 67 48.5t76 16.5q46 0 86.5 -19.5t69.5 -56t46 -88.5t17 -116q0 -59 -16.5 -108t-45 -84t-68 -54.5t-85.5 -19.5q-41 0 -77 17t-61 49v-256h-93zM280 73q30 0 54 14.5t41 40t26 60t9 74.5q0 39 -9 72.5t-26 58.5t-41 39.5t-54 14.5t-54 -14
t-41 -39t-26.5 -58.5t-9.5 -73.5q0 -38 9.5 -72.5t26.5 -60.5t41 -41t54 -15z" />
    <glyph glyph-name="q" unicode="q" horiz-adv-x="542" 
d="M401 -212v265q-26 -32 -62.5 -49t-75.5 -17q-46 0 -85.5 19.5t-68.5 54.5t-45.5 84t-16.5 108q0 64 17 116t46.5 88.5t69.5 56t87 19.5q38 0 76 -16.5t67 -48.5v52h84v-732h-93zM270 73q29 0 53 15t41.5 41t27 60.5t9.5 72.5q0 40 -9.5 73.5t-27 58.5t-41.5 39t-53 14
q-30 0 -54 -14.5t-41 -39.5t-26 -58.5t-9 -72.5q0 -40 9 -74.5t26 -60t41 -40t54 -14.5z" />
    <glyph glyph-name="r" unicode="r" horiz-adv-x="344" 
d="M140 520v-71q11 16 25 31t33 26.5t43 18.5t55 7v-85q-44 0 -73.5 -8.5t-48 -26.5t-26.5 -47.5t-8 -71.5v-293h-92v520h92z" />
    <glyph glyph-name="s" unicode="s" horiz-adv-x="522" 
d="M262 533q88 0 143 -41.5t67 -119.5l-90 -33q-3 29 -14.5 50t-28.5 35t-37 21t-41 7q-37 0 -65.5 -17.5t-28.5 -53.5q0 -19 9.5 -32t27 -21.5t41.5 -14.5t54 -12q51 -10 85 -25.5t54 -36t28 -47t8 -59.5q0 -35 -15.5 -62t-43.5 -46t-65.5 -28.5t-82.5 -9.5
q-40 0 -77.5 9.5t-67.5 30t-50 52.5t-24 77l88 28q3 -51 38 -81t86 -30q60 0 91 16t31 53q0 18 -10 30.5t-25.5 21t-34 13t-35.5 7.5q-38 7 -74.5 18.5t-65 31t-45.5 49t-17 73.5q0 20 8 45.5t29 48t57 38t93 15.5z" />
    <glyph glyph-name="t" unicode="t" horiz-adv-x="344" 
d="M114 520v184h92v-184h90v-73h-90v-274q0 -30 1.5 -49.5t6 -30.5t13 -15.5t22.5 -4.5h47v-73h-55q-63 0 -95 37.5t-32 103.5v306h-66v73h66z" />
    <glyph glyph-name="u" unicode="u" horiz-adv-x="549" 
d="M404 0v51q-26 -27 -67 -45.5t-84 -18.5t-79 15t-62.5 42t-41 65t-14.5 85v326h92v-305q0 -66 32.5 -104t90.5 -38q59 0 94.5 37t35.5 105v305h92v-520h-89z" />
    <glyph glyph-name="v" unicode="v" horiz-adv-x="573" 
d="M146 520l141 -433l142 433h96l-193 -520h-91l-193 520h98z" />
    <glyph glyph-name="w" unicode="w" horiz-adv-x="750" 
d="M118 520l101 -389l107 389h99l106 -389l102 389h93l-149 -520h-91l-111 398l-110 -398h-92l-149 520h94z" />
    <glyph glyph-name="x" unicode="x" horiz-adv-x="544" 
d="M130 0h-106l195 269l-179 251h107l124 -180l125 180h107l-178 -251l195 -269h-106l-143 194z" />
    <glyph glyph-name="y" unicode="y" horiz-adv-x="524" 
d="M130 -128q17 0 31 14t24.5 34.5t16 42.5t5.5 38q0 10 -1 22t-6 24l-176 473h97l142 -388l147 388h90l-202 -544q-14 -39 -30.5 -73t-36.5 -59.5t-45 -40.5t-56 -15h-49v84h49z" />
    <glyph glyph-name="z" unicode="z" horiz-adv-x="459" 
d="M435 520v-71l-309 -376h309v-73h-411v76l305 371h-290v73h396z" />
    <glyph glyph-name="braceleft" unicode="{" horiz-adv-x="330" 
d="M48 263q14 5 25.5 17t20 27.5t13 33t4.5 35.5v198q0 130 97 130h74v-56q-45 0 -61.5 -26t-16.5 -73v-192q0 -42 -9 -68t-32 -40q22 -14 31.5 -39t9.5 -70v-210q0 -24 6 -39t16.5 -23t24.5 -11t31 -3v-66h-74q-97 0 -97 128v205q0 37 -18 70.5t-45 43.5v28z" />
    <glyph glyph-name="bar" unicode="|" horiz-adv-x="200" 
d="M145 712v-851h-93v851h93z" />
    <glyph glyph-name="braceright" unicode="}" horiz-adv-x="341" 
d="M282 235q-27 -10 -45 -43.5t-18 -70.5v-205q0 -128 -97 -128h-74v66q17 0 31 3t24.5 11t16.5 23t6 39v210q0 45 9.5 70t31.5 39q-23 14 -32 40t-9 68v192q0 47 -16.5 73t-61.5 26v56h74q97 0 97 -130v-198q0 -18 4.5 -35.5t13 -33t20 -27.5t25.5 -17v-28z" />
    <glyph glyph-name="asciitilde" unicode="~" horiz-adv-x="608" 
d="M49 234q35 51 78.5 75t91.5 24q25 0 47.5 -10.5t44.5 -22.5t44 -22.5t46 -10.5q8 0 18.5 7t21 18t20 23.5t14.5 24.5l74 -54q-24 -48 -61.5 -77t-88.5 -29q-23 0 -47 10t-48 22t-46.5 22t-40.5 10q-17 0 -40 -17.5t-44 -51.5z" />
    <glyph glyph-name="exclamdown" unicode="&#xa1;" horiz-adv-x="214" 
d="M158 0h-94v519h83zM158 712v-104h-106v104h106z" />
    <glyph glyph-name="cent" unicode="&#xa2;" horiz-adv-x="548" 
d="M330 629v-94q33 -6 63.5 -21t53.5 -39.5t37.5 -58t16.5 -74.5h-87q-8 38 -30.5 65.5t-53.5 38.5v-368q30 9 52.5 33.5t35.5 66.5h84q-5 -39 -20.5 -71t-38.5 -56t-52 -39t-61 -21v-74h-93v76q-42 9 -76 33t-57.5 59t-36 79.5t-12.5 95.5q0 52 13 98t36.5 81.5t57 59.5
t75.5 34v96h93zM148 260q0 -64 22.5 -111t66.5 -66v359q-22 -10 -38.5 -28t-28 -42t-17 -52.5t-5.5 -59.5z" />
    <glyph glyph-name="sterling" unicode="&#xa3;" horiz-adv-x="555" 
d="M243 255v-182h266v-73h-359v255h-102l42 89h60v170q0 43 14 79.5t40.5 62.5t63.5 41t83 15q60 0 106 -27t74 -75l-79 -48q-16 30 -41 47t-60 17q-22 0 -41.5 -6.5t-34.5 -20t-23.5 -35t-8.5 -51.5v-169h138l-41 -89h-97z" />
    <glyph glyph-name="currency" unicode="&#xa4;" horiz-adv-x="610" 
d="M51 110l88 88q-13 22 -20.5 46.5t-7.5 50.5q0 24 7 49t20 47l-87 87l65 65l88 -88q43 25 93 25q26 0 49.5 -7t46.5 -20l90 91l66 -66l-92 -92q25 -44 25 -91q0 -49 -26 -93l93 -92l-65 -65l-91 91q-22 -12 -47.5 -19.5t-50.5 -7.5q-50 0 -91 25l-88 -89zM220 372
q-16 -16 -23.5 -36t-7.5 -41q0 -22 8.5 -41.5t23 -34t34 -23t41.5 -8.5t41.5 8.5t34.5 23t24 34t9 41.5t-9 41.5t-24 34.5t-34.5 23.5t-41.5 8.5q-21 0 -41 -8t-35 -23z" />
    <glyph glyph-name="yen" unicode="&#xa5;" horiz-adv-x="631" 
d="M96 83v87h172v46h-172v88h137l-212 400h98l192 -375l191 375h98l-206 -400h130v-88h-163v-46h163v-87h-163v-83h-93v83h-172z" />
    <glyph glyph-name="brokenbar" unicode="&#xa6;" horiz-adv-x="244" 
d="M74 240h92v-445h-92v445zM74 704h92v-412h-92v412z" />
    <glyph glyph-name="section" unicode="&#xa7;" horiz-adv-x="534" 
d="M325 518q7 24 7 48q0 31 -21 50t-47 19q-24 0 -45 -18t-21 -52q0 -15 3 -26.5t10.5 -22.5t21.5 -23t37 -28q51 -36 89 -64t63 -54.5t37 -55t12 -64.5q0 -25 -7.5 -49t-22 -44.5t-36 -35.5t-48.5 -21q31 -31 49.5 -73t18.5 -78q0 -33 -12.5 -60.5t-34 -47.5t-50.5 -31.5
t-62 -11.5q-40 0 -71 12t-52 31.5t-31.5 44t-10.5 49.5q0 17 2 33.5t4 31.5h99q-8 -34 -8 -62q0 -26 19.5 -43.5t47.5 -17.5q16 0 28 7.5t19.5 18.5t11.5 24.5t4 25.5q0 39 -27 68t-80 64q-35 23 -65 45t-52.5 46.5t-35.5 53t-13 66.5q0 25 9.5 49.5t26 44.5t40 35t50.5 22
q-36 27 -57.5 63.5t-21.5 71.5q0 27 10.5 54.5t31 49t50.5 35.5t69 14q36 0 66.5 -12.5t52 -33.5t33.5 -49.5t12 -61.5q0 -8 -2 -17.5t-4 -19.5h-96zM151 271q0 -30 15 -54.5t37 -42t47 -27t45 -9.5q15 0 29 6.5t25 18t18 28.5t7 38q0 27 -13 51.5t-32 42.5t-40.5 29
t-39.5 11q-42 0 -70 -25t-28 -67z" />
    <glyph glyph-name="dieresis" unicode="&#xa8;" horiz-adv-x="434" 
d="M247 618q0 26 18.5 44.5t44.5 18.5t44.5 -18.5t18.5 -44.5t-18.5 -44.5t-44.5 -18.5t-44.5 18.5t-18.5 44.5zM54 618q0 26 18.5 44.5t44.5 18.5t44.5 -18.5t18.5 -44.5t-18.5 -44.5t-44.5 -18.5t-44.5 18.5t-18.5 44.5z" />
    <glyph glyph-name="copyright" unicode="&#xa9;" horiz-adv-x="843" 
d="M57 317q0 72 25.5 133t70 106t104.5 70t128 25t127.5 -25t104 -70t70.5 -106t26 -133t-26 -133t-70.5 -105.5t-104 -69.5t-127.5 -25t-128 25t-104.5 69.5t-70 105.5t-25.5 133zM123 317q0 -57 20.5 -106.5t56 -86t83.5 -57t102 -20.5t101.5 20.5t82.5 57t55.5 86
t20.5 106.5t-20.5 107t-55.5 86.5t-82.5 57.5t-101.5 21t-102 -21t-83.5 -57.5t-56 -86.5t-20.5 -107zM479 373q-6 38 -33.5 59t-61.5 21q-27 0 -47 -11t-34 -30t-21 -45t-7 -56q0 -63 27.5 -100.5t81.5 -37.5q34 0 60.5 16t39.5 59h83q-4 -36 -22 -64.5t-43.5 -48
t-56.5 -30t-61 -10.5q-42 0 -78.5 16.5t-63.5 45.5t-42.5 68.5t-15.5 85.5q0 48 15.5 88t42.5 69.5t63.5 46t78.5 16.5q31 0 62.5 -10.5t57.5 -30.5t43 -49.5t19 -67.5h-87z" />
    <glyph glyph-name="guillemotleft" unicode="&#xab;" horiz-adv-x="521" 
d="M257 335l-107 -83l107 -82v-99l-202 155v54l202 153v-98zM458 433v-100l-107 -81l107 -82v-97l-202 152v56z" />
    <glyph glyph-name="logicalnot" unicode="&#xac;" horiz-adv-x="600" 
d="M549 397v-219h-84v136h-423v83h507z" />
    <glyph glyph-name="softhyphen" unicode="&#xad;" horiz-adv-x="422" 
d="M68 323h279v-105h-279v105z" />
    <glyph glyph-name="registered" unicode="&#xae;" horiz-adv-x="833" 
d="M57 317q0 72 25.5 133t70 106t104.5 70t128 25t127.5 -25t104 -70t70.5 -106t26 -133t-26 -133t-70.5 -105.5t-104 -69.5t-127.5 -25t-128 25t-104.5 69.5t-70 105.5t-25.5 133zM131 317q0 -56 20 -103.5t54.5 -83t80.5 -55.5t99 -20q49 0 92 17.5t77 49.5h-84l-109 143
h-46v-143h-85v403h174q31 0 58.5 -11t47.5 -29.5t31.5 -43t11.5 -51.5q0 -38 -25 -72.5t-71 -45.5l106 -141q35 35 54.5 82.5t19.5 103.5q0 55 -20 103.5t-54 83.5t-80 55.5t-98 20.5q-53 0 -99 -20.5t-80.5 -55.5t-54.5 -83.5t-20 -103.5zM315 334h74q39 0 59 17.5t20 39.5
t-20 40.5t-59 18.5h-74v-116z" />
    <glyph glyph-name="macron" unicode="&#xaf;" horiz-adv-x="448" 
 />
    <glyph glyph-name="degree" unicode="&#xb0;" horiz-adv-x="347" 
d="M171 723q-50 0 -50 -53q0 -26 13 -41t37 -15q23 0 36.5 15t13.5 41q0 25 -13.5 39t-36.5 14zM171 795q53 0 85 -34.5t32 -90.5q0 -58 -29.5 -92.5t-87.5 -34.5t-88 34.5t-30 92.5q0 56 32.5 90.5t85.5 34.5z" />
    <glyph glyph-name="plusminus" unicode="&#xb1;" horiz-adv-x="590" 
d="M228 426q0 26 18.5 44.5t44.5 18.5t44.5 -18.5t18.5 -44.5t-18.5 -44.5t-44.5 -18.5t-44.5 18.5t-18.5 44.5zM55 235v85h470v-85h-470zM228 130q0 26 18.5 44.5t44.5 18.5t44.5 -18.5t18.5 -44.5t-18.5 -44.5t-44.5 -18.5t-44.5 18.5t-18.5 44.5z" />
    <glyph glyph-name="twosuperior" unicode="&#xb2;" horiz-adv-x="520" 
d="M68.3779 332v40.8574l146.947 184.934h-0.538086q10.7656 12.9023 15.3408 24.998t4.5752 26.0742q0 27.417 -15.3408 43.8135q-15.3408 16.3975 -42.793 16.3975q-11.8418 0 -22.3379 -3.49512q-10.4961 -3.49414 -18.5703 -10.752q-8.07422 -7.25684 -12.918 -18.8154
q-4.84473 -11.5586 -4.84473 -27.6865v-35.4814h-49.5205v35.4814q0 23.1162 7.53516 42.7393q7.53613 19.6221 21.7998 33.5996q14.2646 13.9775 34.1807 22.041q19.916 8.06445 44.6758 8.06445q24.2227 0 44.1387 -7.52637t34.1797 -21.2354
q14.2646 -13.709 22.0693 -33.3311t7.80469 -43.8135q0 -23.1172 -7.53516 -40.5889q-7.53613 -17.4717 -23.6846 -37.9014l-121.648 -152.678h152.868v-45.6953h-216.384z" />
    <glyph glyph-name="threesuperior" unicode="&#xb3;" horiz-adv-x="530" 
d="M273.188 437.415q0 -26.792 -8.84277 -47.4209q-8.8418 -20.6299 -24.3828 -34.5605q-15.541 -13.9316 -36.4404 -21.166q-20.8994 -7.2334 -45.0146 -7.2334q-23.043 0 -43.4062 6.69824q-20.3643 6.69727 -35.9053 20.0928q-15.54 13.3965 -24.9189 34.0254
q-9.37793 20.6299 -10.9854 49.0283h49.8379q1.07129 -17.1465 6.96582 -29.4707q5.89551 -12.3242 14.7373 -20.0938q8.84277 -7.76953 20.0957 -11.252q11.2539 -3.48242 23.5791 -3.48242q27.3301 0 46.0869 17.4141q18.7559 17.4141 18.7559 47.9561
q0 31.0781 -15.8086 49.2969q-15.8086 18.2178 -50.6416 18.2178h-22.5078v45.5449h22.5078q30.5459 0 45.0146 14.7354t14.4688 43.1348q0 30.0059 -16.8799 45.5449q-16.8809 15.5391 -40.9961 15.5391q-26.7939 0 -42.335 -16.6104q-15.541 -16.6113 -18.2197 -45.0098
h-49.8379q1.60742 25.1836 10.7178 45.2773t23.8467 33.7568q14.7373 13.6641 34.0293 20.8975q19.292 7.23438 41.7988 7.23438q24.1152 0 43.9434 -7.50195t34.0283 -21.4336q14.2012 -13.9316 21.9717 -33.4893t7.77051 -43.6699q0 -54.6543 -41.7998 -79.3018
q48.7666 -24.6484 48.7666 -92.6982z" />
    <glyph glyph-name="acute" unicode="&#xb4;" horiz-adv-x="325" 
d="M158 555h-91l93 157h111z" />
    <glyph glyph-name="mu" unicode="&#xb5;" horiz-adv-x="580" 
d="M184 -179h-108v694h108v-280q0 -163 102 -163q101 0 101 163v280h109v-385q0 -21 5 -35t25 -13l21 1v-82l-46 -4q-2 0 -4 -0.5t-3 -0.5q-80 0 -101 43q-41 -58 -107 -58q-28 0 -54.5 11.5t-47.5 34.5v-206z" />
    <glyph glyph-name="paragraph" unicode="&#xb6;" horiz-adv-x="544" 
d="M194 363q-33 4 -58.5 19t-43.5 38t-27.5 52t-9.5 61q0 37 11.5 68.5t32 54.5t49 36t63.5 13h270v-90h-51v-779h-85v779h-66v-779h-85v527z" />
    <glyph glyph-name="periodcentered" unicode="&#xb7;" horiz-adv-x="287" 
d="M53 399h177v-177h-177v177z" />
    <glyph glyph-name="onesuperior" unicode="&#xb9;" horiz-adv-x="325" 
d="M128.876 327v318.479q-19.9619 -14.5996 -42.1768 -30.8203q-22.2148 -16.2217 -40.2451 -30.2803v60.0195l86.9297 63.8037h55.377v-381.201h-59.8848z" />
    <glyph glyph-name="ordmasculine" unicode="&#xba;" horiz-adv-x="579" 
d="M160.146 702.706q27.4883 0 51.0488 -10.9277q23.5615 -10.9287 41.2314 -31.1035q17.6709 -20.1758 27.7686 -48.7568q10.0977 -28.582 10.0977 -63.8887q0 -34.7461 -9.81738 -62.7676q-9.81641 -28.0215 -26.9268 -47.6367q-17.1094 -19.6143 -40.9512 -30.2627
q-23.8408 -10.6475 -52.4512 -10.6475q-28.6094 0 -51.8896 10.6475q-23.2803 10.6484 -39.8291 30.2627q-16.5488 19.6152 -25.5244 47.6367t-8.97559 62.7676t9.25586 63.3281q9.25586 28.5811 25.8047 48.7568q16.5488 20.1748 39.8291 31.3838
q23.2812 11.208 51.3291 11.208zM238.121 548.029q0 49.3174 -20.7559 77.8984q-20.7559 28.582 -57.2197 28.582q-19.0723 0 -32.8164 -8.40625t-23 -22.6973t-13.7441 -33.625q-4.4873 -19.335 -4.4873 -41.752q0 -48.7568 18.792 -75.9375
q18.793 -27.1807 55.8174 -27.1807t57.2188 28.0215q20.1953 28.0205 20.1953 75.0967z" />
    <glyph glyph-name="guillemotright" unicode="&#xbb;" horiz-adv-x="521" 
d="M257 281v-56l-202 -152v97l107 82l-107 81v100zM256 433l202 -153v-54l-202 -155v99l106 82l-106 83v98z" />
    <glyph glyph-name="onequarter" unicode="&#xbc;" horiz-adv-x="642" 
d="M132.814 335v311.863q-16.4814 -14.2959 -34.8242 -30.1797q-18.3428 -15.8848 -33.2305 -29.6514v58.7725l71.7773 62.4785h45.7236v-373.283h-49.4463zM211.898 121.832h-58.1455l179.493 539.493h58.1455zM536.11 271.094v-83.0938h-49.5479v83.0938h-150.775v46.874
l132.661 245.021h57.0068l-132.661 -246.619h93.7686v104.4h49.5479v-104.4h48.4824v-45.2754h-48.4824z" />
    <glyph glyph-name="onehalf" unicode="&#xbd;" horiz-adv-x="1329" 
d="M394.47 150v41.1777l147.647 186.382h-0.541016q10.8164 13.0039 15.4141 25.1943q4.59668 12.1904 4.59668 26.2773q0 27.6328 -15.4131 44.1582q-15.4141 16.5244 -42.9961 16.5244q-11.8984 0 -22.4453 -3.52148q-10.5459 -3.52148 -18.6582 -10.8359
t-12.9805 -18.9639q-4.86719 -11.6484 -4.86719 -27.9023v-35.7598h-49.7568v35.7598q0 23.2979 7.57227 43.0732q7.57129 19.7764 21.9033 33.8633t34.3428 22.2139t44.8896 8.12695q24.3369 0 44.3477 -7.58496t34.3428 -21.4014t22.1748 -33.5918
q7.8418 -19.7764 7.8418 -44.1582q0 -23.2969 -7.57227 -40.9062q-7.57129 -17.6084 -23.7959 -38.1973l-122.229 -153.874h153.597v-46.0537h-217.415zM132.814 335v311.863q-16.4814 -14.2959 -34.8242 -30.1797q-18.3428 -15.8848 -33.2305 -29.6514v58.7725
l71.7773 62.4785h45.7236v-373.283h-49.4463zM211.898 116.832h-58.1455l179.493 539.493h58.1455z" />
    <glyph glyph-name="threequarters" unicode="&#xbe;" horiz-adv-x="738" 
d="M287.975 438.885q0 -26.6543 -8.76367 -47.1777t-24.166 -34.3838q-15.4033 -13.8604 -36.1172 -21.0566t-44.6143 -7.19629q-22.8389 0 -43.0215 6.66309t-35.5859 19.9902q-15.4023 13.3271 -24.6973 33.8506q-9.29492 20.5244 -10.8877 48.7773h49.3945
q1.0625 -17.0586 6.9043 -29.3193q5.84277 -12.2607 14.6064 -19.9902q8.76367 -7.73047 19.917 -11.1953q11.1543 -3.46484 23.3701 -3.46484q27.0869 0 45.6768 17.3252t18.5898 47.7109q0 30.918 -15.6689 49.043q-15.668 18.125 -50.1914 18.125h-22.3076v45.3115
h22.3076q30.2744 0 44.6143 14.6602q14.3408 14.6592 14.3408 42.9131q0 29.8525 -16.7305 45.3115q-16.7305 15.46 -40.6309 15.46q-26.5566 0 -41.96 -16.5254q-15.4023 -16.5264 -18.0576 -44.7793h-49.3955q1.59375 25.0547 10.623 45.0449
q9.0293 19.9912 23.6348 33.585q14.6064 13.5928 33.7266 20.79q19.1211 7.19629 41.4287 7.19629q23.9004 0 43.5518 -7.46289q19.6523 -7.46387 33.7266 -21.3232q14.0752 -13.8604 21.7764 -33.3174q7.70215 -19.458 7.70215 -43.4463q0 -54.375 -41.4287 -78.8965
q48.333 -24.5215 48.333 -92.2227zM299.898 121.832h-58.1455l179.493 539.493h58.1455zM632.11 239.094v-83.0938h-49.5479v83.0938h-150.775v46.874l132.661 245.021h57.0068l-132.661 -246.619h93.7686v104.4h49.5479v-104.4h48.4824v-45.2754h-48.4824z" />
    <glyph glyph-name="questiondown" unicode="&#xbf;" horiz-adv-x="503" 
d="M99.0254 -30.9678q0 17.999 5 34.998t17.999 41.9971t37.498 61.4961q24.498 36.498 63.4961 93.4941q7.99902 11 11.999 25.499t4 23.498v87.9951h92.9941v-88.9951q0 -29.998 -8 -52.4961q-7.99902 -22.499 -23.998 -45.498q-35.998 -50.9961 -57.4971 -81.9951
q-21.498 -30.998 -32.998 -49.4961q-11.499 -18.499 -14.999 -28.999q-3.49902 -10.499 -3.49902 -21.498q0 -43.9971 27.998 -72.9961q27.998 -28.998 71.9951 -28.998q22.999 0 41.998 9q18.999 8.99902 31.998 24.998t19.998 36.498q7 20.498 7 43.4971h92.9941
q0 -41.9971 -14.499 -78.4951t-40.4971 -63.4961q-25.999 -26.998 -61.4961 -42.4971q-35.498 -15.5 -77.4961 -15.5q-39.9971 0 -75.4951 14q-35.498 13.999 -60.9961 38.4971q-25.499 24.499 -40.498 58.9971q-14.999 34.4971 -14.999 76.4951zM339.011 493v-104.993
h-106.993v104.993h106.993z" />
    <glyph glyph-name="Agrave" unicode="&#xc0;" horiz-adv-x="701" 
d="M345 578l-94 -271h190zM221 218l-77 -218h-92l247 705h92l248 -705h-94l-74 218h-250zM243 927h107l102 -173h-106z" />
    <glyph glyph-name="Aacute" unicode="&#xc1;" horiz-adv-x="701" 
d="M345 578l-94 -271h190zM221 218l-77 -218h-92l247 705h92l248 -705h-94l-74 218h-250zM334 754h-91l93 157h111z" />
    <glyph glyph-name="Acircumflex" unicode="&#xc2;" horiz-adv-x="701" 
d="M345 578l-94 -271h190zM221 218l-77 -218h-92l247 705h92l248 -705h-94l-74 218h-250zM373.306 928.893l144.584 -192.994h-103.701l-67.8057 101.136q-15.9541 -24.124 -34.8994 -51.4961q-18.9453 -27.3711 -32.9053 -49.6396h-104.698l147.575 192.994h51.8506z" />
    <glyph glyph-name="Atilde" unicode="&#xc3;" horiz-adv-x="645" 
d="M317 578l-94 -271h190zM193 218l-77 -218h-92l247 705h92l248 -705h-94l-74 218h-250zM126.411 784.113q29.0127 32.7305 61.0791 54.043q32.0664 21.3135 68.7139 21.3135q17.5605 0 35.8838 -7.6123q18.3242 -7.61133 36.6475 -17.5068h-0.763672
q17.5605 -9.13379 34.7393 -17.126t32.4482 -7.99219q6.10742 0 14.124 5.32812t16.0332 13.7012t15.2705 17.8877q7.25293 9.51465 11.0703 18.6484l56.498 -41.1035q-9.16211 -15.9844 -21.3779 -30.4463q-12.2158 -14.4629 -26.3398 -25.5
q-14.125 -11.0361 -30.9219 -17.8867t-35.8838 -6.85059q-17.5596 0 -35.8838 7.61133q-18.3242 7.6123 -36.6475 16.7461t-35.502 16.7451q-17.1787 7.6123 -30.9219 7.6123q-12.9795 0 -30.5391 -13.3203q-17.5605 -13.3213 -33.5938 -39.2002z" />
    <glyph glyph-name="Adieresis" unicode="&#xc4;" horiz-adv-x="701" 
d="M345 578l-94 -271h190zM221 218l-77 -218h-92l247 705h92l248 -705h-94l-74 218h-250zM380 797q0 26 18.5 44.5t44.5 18.5t44.5 -18.5t18.5 -44.5t-18.5 -44.5t-44.5 -18.5t-44.5 18.5t-18.5 44.5zM187 797q0 26 18.5 44.5t44.5 18.5t44.5 -18.5t18.5 -44.5t-18.5 -44.5
t-44.5 -18.5t-44.5 18.5t-18.5 44.5z" />
    <glyph glyph-name="Aring" unicode="&#xc5;" horiz-adv-x="645" 
d="M317 578l-94 -271h190zM193 218l-77 -218h-92l247 705h92l248 -705h-94l-74 218h-250zM267 842q0 -20 14.5 -35t35.5 -15q20 0 34 15t14 35t-14 34t-34 14q-21 0 -35.5 -14t-14.5 -34zM217 842q0 21 7.5 39t21 31.5t32 21t39.5 7.5q42 0 70.5 -28.5t28.5 -70.5t-28.5 -71
t-70.5 -29q-21 0 -39.5 8t-32 21.5t-21 31.5t-7.5 39z" />
    <glyph glyph-name="AE" unicode="&#xc6;" horiz-adv-x="1049" 
d="M973 705v-79h-340v-216h290v-85h-289v-251h339v-74h-445v218h-238l-144 -218h-98l471 705h454zM527 575l-178 -268h178v268z" />
    <glyph glyph-name="Egrave" unicode="&#xc8;" horiz-adv-x="555" 
d="M491 704v-78h-343v-204h293v-85h-293v-259h343v-78h-436v704h436zM170 927h107l102 -173h-106z" />
    <glyph glyph-name="Eacute" unicode="&#xc9;" horiz-adv-x="555" 
d="M491 704v-78h-343v-204h293v-85h-293v-259h343v-78h-436v704h436zM287 736h-91l93 157h111z" />
    <glyph glyph-name="Ecircumflex" unicode="&#xca;" horiz-adv-x="527" 
d="M491 704v-78h-343v-204h293v-85h-293v-259h343v-78h-436v704h436zM287 929l145 -208h-104l-68 109q-16 -26 -35 -55.5t-33 -53.5h-105l148 208h52z" />
    <glyph glyph-name="Edieresis" unicode="&#xcb;" horiz-adv-x="527" 
d="M491 704v-78h-343v-204h293v-85h-293v-259h343v-78h-436v704h436zM293 797q0 26 18.5 44.5t44.5 18.5t44.5 -18.5t18.5 -44.5t-18.5 -44.5t-44.5 -18.5t-44.5 18.5t-18.5 44.5zM100 797q0 26 18.5 44.5t44.5 18.5t44.5 -18.5t18.5 -44.5t-18.5 -44.5t-44.5 -18.5
t-44.5 18.5t-18.5 44.5z" />
    <glyph glyph-name="Igrave" unicode="&#xcc;" horiz-adv-x="192" 
d="M145 704v-704h-93v704h93zM-11 927h107l102 -173h-106z" />
    <glyph glyph-name="Iacute" unicode="&#xcd;" horiz-adv-x="192" 
d="M145 704v-704h-93v704h93zM80 754h-91l93 157h111z" />
    <glyph glyph-name="Icircumflex" unicode="&#xce;" horiz-adv-x="200" 
d="M145 704v-704h-93v704h93zM124 929l145 -208h-104l-68 109q-16 -26 -35 -55.5t-33 -53.5h-105l148 208h52z" />
    <glyph glyph-name="Idieresis" unicode="&#xcf;" horiz-adv-x="200" 
d="M145 704v-704h-93v704h93zM130 797q0 26 18.5 44.5t44.5 18.5t44.5 -18.5t18.5 -44.5t-18.5 -44.5t-44.5 -18.5t-44.5 18.5t-18.5 44.5zM-63 797q0 26 18.5 44.5t44.5 18.5t44.5 -18.5t18.5 -44.5t-18.5 -44.5t-44.5 -18.5t-44.5 18.5t-18.5 44.5z" />
    <glyph glyph-name="Ntilde" unicode="&#xd1;" horiz-adv-x="633" 
d="M158 704l333 -580l-17 56v524h93v-704h-108l-324 577l13 -71v-506h-93v704h103zM116.123 746.629q29.5645 32.0898 62.2412 52.9854t70.0215 20.8955q17.8936 0 36.5664 -7.46191q18.6719 -7.46289 37.3447 -17.165h-0.77832q17.8945 -8.95508 35.3994 -16.791
q17.5059 -7.83594 33.0664 -7.83594q6.22363 0 14.3926 5.22363q8.16992 5.22461 16.3389 13.4336t15.5605 17.5371q7.39062 9.3291 11.2812 18.2842l57.5723 -40.2988q-9.33594 -15.6719 -21.7842 -29.8516q-12.4482 -14.1787 -26.8418 -25
q-14.3926 -10.8213 -31.5088 -17.5381q-17.1162 -6.71582 -36.5674 -6.71582q-17.8945 0 -36.5664 7.46289t-37.3447 16.418t-36.1777 16.418t-31.5098 7.46289q-13.2256 0 -31.1201 -13.0605q-17.8945 -13.0596 -34.2334 -38.4326z" />
    <glyph glyph-name="Ograve" unicode="&#xd2;" horiz-adv-x="729" 
d="M363 78q50 0 90 21t67.5 58t42 87t14.5 108q0 59 -14.5 109.5t-42 87t-67.5 57t-90 20.5t-90 -20.5t-67.5 -57t-42 -86.5t-14.5 -110q0 -59 14.5 -109.5t42 -87t67.5 -57t90 -20.5zM56 352q0 82 22.5 148.5t63 113.5t97 72.5t124.5 25.5q70 0 127 -25.5t97 -73t61.5 -114
t21.5 -147.5q0 -83 -22 -150t-62.5 -115t-97 -74t-125.5 -26q-70 0 -126.5 26t-96.5 74t-62 115.5t-22 149.5zM257 927h107l102 -173h-106z" />
    <glyph glyph-name="Oacute" unicode="&#xd3;" horiz-adv-x="729" 
d="M363 78q50 0 90 21t67.5 58t42 87t14.5 108q0 59 -14.5 109.5t-42 87t-67.5 57t-90 20.5t-90 -20.5t-67.5 -57t-42 -86.5t-14.5 -110q0 -59 14.5 -109.5t42 -87t67.5 -57t90 -20.5zM56 352q0 82 22.5 148.5t63 113.5t97 72.5t124.5 25.5q70 0 127 -25.5t97 -73t61.5 -114
t21.5 -147.5q0 -83 -22 -150t-62.5 -115t-97 -74t-125.5 -26q-70 0 -126.5 26t-96.5 74t-62 115.5t-22 149.5zM348 754h-91l93 157h111z" />
    <glyph glyph-name="Ocircumflex" unicode="&#xd4;" horiz-adv-x="738" 
d="M363 78q50 0 90 21t67.5 58t42 87t14.5 108q0 59 -14.5 109.5t-42 87t-67.5 57t-90 20.5t-90 -20.5t-67.5 -57t-42 -86.5t-14.5 -110q0 -59 14.5 -109.5t42 -87t67.5 -57t90 -20.5zM56 352q0 82 22.5 148.5t63 113.5t97 72.5t124.5 25.5q70 0 127 -25.5t97 -73t61.5 -114
t21.5 -147.5q0 -83 -22 -150t-62.5 -115t-97 -74t-125.5 -26q-70 0 -126.5 26t-96.5 74t-62 115.5t-22 149.5zM392 929l145 -208h-104l-68 109q-16 -26 -35 -55.5t-33 -53.5h-105l148 208h52z" />
    <glyph glyph-name="Otilde" unicode="&#xd5;" horiz-adv-x="738" 
d="M363 78q50 0 90 21t67.5 58t42 87t14.5 108q0 59 -14.5 109.5t-42 87t-67.5 57t-90 20.5t-90 -20.5t-67.5 -57t-42 -86.5t-14.5 -110q0 -59 14.5 -109.5t42 -87t67.5 -57t90 -20.5zM56 352q0 82 22.5 148.5t63 113.5t97 72.5t124.5 25.5q70 0 127 -25.5t97 -73t61.5 -114
t21.5 -147.5q0 -83 -22 -150t-62.5 -115t-97 -74t-125.5 -26q-70 0 -126.5 26t-96.5 74t-62 115.5t-22 149.5zM128 774q38 43 80 71t90 28q23 0 47 -10t48 -23h-1q23 -12 45.5 -22.5t42.5 -10.5q8 0 18.5 7t21 18t20 23.5t14.5 24.5l74 -54q-12 -21 -28 -40t-34.5 -33.5
t-40.5 -23.5t-47 -9q-23 0 -47 10t-48 22t-46.5 22t-40.5 10q-17 0 -40 -17.5t-44 -51.5z" />
    <glyph glyph-name="Odieresis" unicode="&#xd6;" horiz-adv-x="738" 
d="M363 78q50 0 90 21t67.5 58t42 87t14.5 108q0 59 -14.5 109.5t-42 87t-67.5 57t-90 20.5t-90 -20.5t-67.5 -57t-42 -86.5t-14.5 -110q0 -59 14.5 -109.5t42 -87t67.5 -57t90 -20.5zM56 352q0 82 22.5 148.5t63 113.5t97 72.5t124.5 25.5q70 0 127 -25.5t97 -73t61.5 -114
t21.5 -147.5q0 -83 -22 -150t-62.5 -115t-97 -74t-125.5 -26q-70 0 -126.5 26t-96.5 74t-62 115.5t-22 149.5zM399 797q0 26 18.5 44.5t44.5 18.5t44.5 -18.5t18.5 -44.5t-18.5 -44.5t-44.5 -18.5t-44.5 18.5t-18.5 44.5zM206 797q0 26 18.5 44.5t44.5 18.5t44.5 -18.5
t18.5 -44.5t-18.5 -44.5t-44.5 -18.5t-44.5 18.5t-18.5 44.5z" />
    <glyph glyph-name="multiply" unicode="&#xd7;" horiz-adv-x="523" 
d="M184 294q-34 35 -70.5 70.5t-69.5 70.5l65 64l140 -140l140 140l65 -64l-140 -141q34 -34 70 -70.5t70 -69.5l-65 -65l-140 140l-140 -140l-65 65z" />
    <glyph glyph-name="Oslash" unicode="&#xd8;" horiz-adv-x="738" 
d="M363 78q50 0 90 21t67.5 58t42 87t14.5 108q0 59 -14.5 109.5t-42 87t-67.5 57t-90 20.5t-90 -20.5t-67.5 -57t-42 -86.5t-14.5 -110q0 -59 14.5 -109.5t42 -87t67.5 -57t90 -20.5zM56 352q0 82 22.5 148.5t63 113.5t97 72.5t124.5 25.5q70 0 127 -25.5t97 -73t61.5 -114
t21.5 -147.5q0 -83 -22 -150t-62.5 -115t-97 -74t-125.5 -26q-70 0 -126.5 26t-96.5 74t-62 115.5t-22 149.5zM226 -151h-92l284 856h92z" />
    <glyph glyph-name="Ugrave" unicode="&#xd9;" horiz-adv-x="625" 
d="M148 704v-450q0 -41 11 -74t31.5 -57t50 -37t66.5 -13q36 0 66.5 13t53 36.5t35 57t12.5 74.5v450h93v-447q0 -62 -19.5 -112t-54.5 -85t-82.5 -54t-103.5 -19t-102.5 19t-79.5 54t-51.5 85t-18.5 112v447h93zM205 927h107l102 -173h-106z" />
    <glyph glyph-name="Uacute" unicode="&#xda;" horiz-adv-x="625" 
d="M148 704v-450q0 -41 11 -74t31.5 -57t50 -37t66.5 -13q36 0 66.5 13t53 36.5t35 57t12.5 74.5v450h93v-447q0 -62 -19.5 -112t-54.5 -85t-82.5 -54t-103.5 -19t-102.5 19t-79.5 54t-51.5 85t-18.5 112v447h93zM296 754h-91l93 157h111z" />
    <glyph glyph-name="Ucircumflex" unicode="&#xdb;" horiz-adv-x="633" 
d="M148 704v-450q0 -41 11 -74t31.5 -57t50 -37t66.5 -13q36 0 66.5 13t53 36.5t35 57t12.5 74.5v450h93v-447q0 -62 -19.5 -112t-54.5 -85t-82.5 -54t-103.5 -19t-102.5 19t-79.5 54t-51.5 85t-18.5 112v447h93zM340 929l145 -208h-104l-68 109q-16 -26 -35 -55.5
t-33 -53.5h-105l148 208h52z" />
    <glyph glyph-name="Udieresis" unicode="&#xdc;" horiz-adv-x="633" 
d="M148 704v-450q0 -41 11 -74t31.5 -57t50 -37t66.5 -13q36 0 66.5 13t53 36.5t35 57t12.5 74.5v450h93v-447q0 -62 -19.5 -112t-54.5 -85t-82.5 -54t-103.5 -19t-102.5 19t-79.5 54t-51.5 85t-18.5 112v447h93zM346 797q0 26 18.5 44.5t44.5 18.5t44.5 -18.5t18.5 -44.5
t-18.5 -44.5t-44.5 -18.5t-44.5 18.5t-18.5 44.5zM153 797q0 26 18.5 44.5t44.5 18.5t44.5 -18.5t18.5 -44.5t-18.5 -44.5t-44.5 -18.5t-44.5 18.5t-18.5 44.5z" />
    <glyph glyph-name="Yacute" unicode="&#xdd;" horiz-adv-x="687" 
d="M296 261l-247 443h99l191 -356l190 356h100l-240 -445v-259h-93v261zM327 754h-91l93 157h111z" />
    <glyph glyph-name="agrave" unicode="&#xe0;" horiz-adv-x="628" 
d="M207 728h107l102 -173h-106z" />
    <glyph glyph-name="aacute" unicode="&#xe1;" horiz-adv-x="628" 
d="M298 555h-91l93 157h111z" />
    <glyph glyph-name="acircumflex" unicode="&#xe2;" horiz-adv-x="628" 
d="M337 750l145 -208h-104l-68 109q-16 -26 -35 -55.5t-33 -53.5h-105l148 208h52z" />
    <glyph glyph-name="atilde" unicode="&#xe3;" horiz-adv-x="628" 
d="M105.614 619.098q29.1699 34.0137 61.4111 56.1621t69.0879 22.1484q17.6553 0 36.0791 -7.91016q18.4229 -7.91016 36.8467 -18.1934h-0.767578q17.6553 -9.49219 34.9268 -17.7979q17.2725 -8.30566 32.625 -8.30566q6.1416 0 14.2012 5.53711
q8.06055 5.53711 16.1211 14.2383q8.05957 8.70117 15.3525 18.5889q7.29199 9.8877 11.1309 19.3799l56.8047 -42.7148q-9.21094 -16.6113 -21.4932 -31.6406t-26.4844 -26.499q-14.2012 -11.4697 -31.0889 -18.5889q-16.8887 -7.11914 -36.0791 -7.11914
q-17.6553 0 -36.0791 7.91016t-36.8467 17.4023t-35.6953 17.4023q-17.2715 7.91016 -31.0889 7.91016q-13.0508 0 -30.7061 -13.8428t-33.7764 -40.7373z" />
    <glyph glyph-name="adieresis" unicode="&#xe4;" horiz-adv-x="628" 
d="M344 618q0 26 18.5 44.5t44.5 18.5t44.5 -18.5t18.5 -44.5t-18.5 -44.5t-44.5 -18.5t-44.5 18.5t-18.5 44.5zM151 618q0 26 18.5 44.5t44.5 18.5t44.5 -18.5t18.5 -44.5t-18.5 -44.5t-44.5 -18.5t-44.5 18.5t-18.5 44.5z" />
    <glyph glyph-name="aring" unicode="&#xe5;" horiz-adv-x="628" 
d="M264 660q0 -20 14.5 -35t35.5 -15q20 0 34 15t14 35t-14 34t-34 14q-21 0 -35.5 -14t-14.5 -34zM214 660q0 21 7.5 39t21 31.5t32 21t39.5 7.5q42 0 70.5 -28.5t28.5 -70.5t-28.5 -71t-70.5 -29q-21 0 -39.5 8t-32 21.5t-21 31.5t-7.5 39z" />
    <glyph glyph-name="egrave" unicode="&#xe8;" horiz-adv-x="571" 
d="M151 222q9 -72 45 -110.5t87 -38.5q38 0 75.5 21.5t58.5 69.5l80 -40q-33 -61 -87 -99t-117 -38q-49 0 -92 19.5t-75.5 55.5t-51 86.5t-18.5 111.5q0 63 15.5 114t44.5 86t72 54t98 19q49 0 90 -20t71 -56t46.5 -86t16.5 -111v-38h-359zM283 447q-25 0 -48 -9.5
t-41.5 -28t-30 -44.5t-13.5 -59h267q0 32 -12 58t-31 44.5t-43 28.5t-48 10zM178 728h107l102 -173h-106z" />
    <glyph glyph-name="eacute" unicode="&#xe9;" horiz-adv-x="571" 
d="M151 222q9 -72 45 -110.5t87 -38.5q38 0 75.5 21.5t58.5 69.5l80 -40q-33 -61 -87 -99t-117 -38q-49 0 -92 19.5t-75.5 55.5t-51 86.5t-18.5 111.5q0 63 15.5 114t44.5 86t72 54t98 19q49 0 90 -20t71 -56t46.5 -86t16.5 -111v-38h-359zM283 447q-25 0 -48 -9.5
t-41.5 -28t-30 -44.5t-13.5 -59h267q0 32 -12 58t-31 44.5t-43 28.5t-48 10zM269 555h-91l93 157h111z" />
    <glyph glyph-name="ecircumflex" unicode="&#xea;" horiz-adv-x="571" 
d="M151 222q9 -72 45 -110.5t87 -38.5q38 0 75.5 21.5t58.5 69.5l80 -40q-33 -61 -87 -99t-117 -38q-49 0 -92 19.5t-75.5 55.5t-51 86.5t-18.5 111.5q0 63 15.5 114t44.5 86t72 54t98 19q49 0 90 -20t71 -56t46.5 -86t16.5 -111v-38h-359zM283 447q-25 0 -48 -9.5
t-41.5 -28t-30 -44.5t-13.5 -59h267q0 32 -12 58t-31 44.5t-43 28.5t-48 10zM309 750l145 -208h-104l-68 109q-16 -26 -35 -55.5t-33 -53.5h-105l148 208h52z" />
    <glyph glyph-name="edieresis" unicode="&#xeb;" horiz-adv-x="571" 
d="M151 222q9 -72 45 -110.5t87 -38.5q38 0 75.5 21.5t58.5 69.5l80 -40q-33 -61 -87 -99t-117 -38q-49 0 -92 19.5t-75.5 55.5t-51 86.5t-18.5 111.5q0 63 15.5 114t44.5 86t72 54t98 19q49 0 90 -20t71 -56t46.5 -86t16.5 -111v-38h-359zM283 447q-25 0 -48 -9.5
t-41.5 -28t-30 -44.5t-13.5 -59h267q0 32 -12 58t-31 44.5t-43 28.5t-48 10zM315 618q0 26 18.5 44.5t44.5 18.5t44.5 -18.5t18.5 -44.5t-18.5 -44.5t-44.5 -18.5t-44.5 18.5t-18.5 44.5zM122 618q0 26 18.5 44.5t44.5 18.5t44.5 -18.5t18.5 -44.5t-18.5 -44.5t-44.5 -18.5
t-44.5 18.5t-18.5 44.5z" />
    <glyph glyph-name="igrave" unicode="&#xec;" horiz-adv-x="192" 
d="M144 520v-520h-92v520h92zM-7 739h107l102 -173h-106z" />
    <glyph glyph-name="iacute" unicode="&#xed;" horiz-adv-x="192" 
d="M144 520v-520h-92v520h92zM89 566h-91l93 157h111z" />
    <glyph glyph-name="icircumflex" unicode="&#xee;" horiz-adv-x="192" 
d="M143 520v-520h-91v520h91zM127 761l145 -208h-104l-68 109q-16 -26 -35 -55.5t-33 -53.5h-105l148 208h52z" />
    <glyph glyph-name="idieresis" unicode="&#xef;" horiz-adv-x="192" 
d="M143 520v-520h-91v520h91zM133 629q0 26 18.5 44.5t44.5 18.5t44.5 -18.5t18.5 -44.5t-18.5 -44.5t-44.5 -18.5t-44.5 18.5t-18.5 44.5zM-60 629q0 26 18.5 44.5t44.5 18.5t44.5 -18.5t18.5 -44.5t-18.5 -44.5t-44.5 -18.5t-44.5 18.5t-18.5 44.5z" />
    <glyph glyph-name="ntilde" unicode="&#xf1;" horiz-adv-x="553" 
d="M140 520v-47q26 29 64.5 44.5t82.5 15.5t81.5 -15.5t65.5 -43.5t43.5 -66t15.5 -84v-324h-92v305q0 33 -10 59.5t-27 44.5t-41 28t-52 10q-59 0 -95 -39t-36 -103v-305h-92v520h92zM83.2246 636.355q29.6436 33.6934 62.4072 55.6328q32.7637 21.9404 70.208 21.9404
q17.9424 0 36.6641 -7.83594q18.7227 -7.83594 37.4443 -18.0225h-0.780273q17.9424 -9.40234 35.4941 -17.6299q17.5527 -8.22754 33.1543 -8.22754q6.24023 0 14.4316 5.48535q8.19043 5.48438 16.3818 14.1045q8.19043 8.61914 15.6016 18.4131
q7.41113 9.79492 11.3115 19.1982l57.7266 -42.3135q-9.36133 -16.4551 -21.8428 -31.3428t-26.9131 -26.249q-14.4316 -11.3623 -31.5938 -18.4141t-36.6641 -7.05176q-17.9414 0 -36.6641 7.83496q-18.7227 7.83594 -37.4443 17.2393q-18.7217 9.40234 -36.2744 17.2383
q-17.5518 7.83594 -31.5938 7.83594q-13.2617 0 -31.2031 -13.7129q-17.9424 -13.7129 -34.3242 -40.3535z" />
    <glyph glyph-name="ograve" unicode="&#xf2;" horiz-adv-x="570" 
d="M280 533q49 0 91 -19.5t73.5 -55.5t49.5 -87t18 -114q0 -62 -17.5 -112t-48 -85t-73 -54t-93.5 -19t-92.5 19t-71 54t-45.5 85t-16 112t16.5 113t46 87t71 56t91.5 20zM419 257q0 88 -37 139t-102 51q-34 0 -58.5 -15t-41 -40.5t-24.5 -60t-8 -74.5q0 -87 33.5 -135.5
t99.5 -48.5t102 50t36 134zM178 728h107l102 -173h-106z" />
    <glyph glyph-name="oacute" unicode="&#xf3;" horiz-adv-x="570" 
d="M280 533q49 0 91 -19.5t73.5 -55.5t49.5 -87t18 -114q0 -62 -17.5 -112t-48 -85t-73 -54t-93.5 -19t-92.5 19t-71 54t-45.5 85t-16 112t16.5 113t46 87t71 56t91.5 20zM419 257q0 88 -37 139t-102 51q-34 0 -58.5 -15t-41 -40.5t-24.5 -60t-8 -74.5q0 -87 33.5 -135.5
t99.5 -48.5t102 50t36 134zM288 555h-91l93 157h111z" />
    <glyph glyph-name="ocircumflex" unicode="&#xf4;" horiz-adv-x="570" 
d="M280 533q49 0 91 -19.5t73.5 -55.5t49.5 -87t18 -114q0 -62 -17.5 -112t-48 -85t-73 -54t-93.5 -19t-92.5 19t-71 54t-45.5 85t-16 112t16.5 113t46 87t71 56t91.5 20zM419 257q0 88 -37 139t-102 51q-34 0 -58.5 -15t-41 -40.5t-24.5 -60t-8 -74.5q0 -87 33.5 -135.5
t99.5 -48.5t102 50t36 134zM308 750l145 -208h-104l-68 109q-16 -26 -35 -55.5t-33 -53.5h-105l148 208h52z" />
    <glyph glyph-name="otilde" unicode="&#xf5;" horiz-adv-x="579" 
d="M280 533q49 0 91 -19.5t73.5 -55.5t49.5 -87t18 -114q0 -62 -17.5 -112t-48 -85t-73 -54t-93.5 -19t-92.5 19t-71 54t-45.5 85t-16 112t16.5 113t46 87t71 56t91.5 20zM419 257q0 88 -37 139t-102 51q-34 0 -58.5 -15t-41 -40.5t-24.5 -60t-8 -74.5q0 -87 33.5 -135.5
t99.5 -48.5t102 50t36 134zM82.3262 625.581q29.7227 35.9395 62.5732 59.3428q32.8506 23.4023 70.3945 23.4023q17.9902 0 36.7617 -8.35742q18.7725 -8.3584 37.5439 -19.2246h-0.782227q17.9902 -10.0293 35.5889 -18.8057q17.5986 -8.77539 33.2422 -8.77539
q6.25684 0 14.4697 5.85059t16.4258 15.0449q8.21289 9.19336 15.6436 19.6416q7.43066 10.4473 11.3408 20.4775l57.8809 -45.1348q-9.38672 -17.5518 -21.9014 -33.4326q-12.5146 -15.8799 -26.9844 -28q-14.4697 -12.1191 -31.6777 -19.6416
q-17.207 -7.52148 -36.7617 -7.52148q-17.9902 0 -36.7617 8.35742q-18.7715 8.3584 -37.5439 18.3887q-18.7725 10.0293 -36.3711 18.3877t-31.6777 8.3584q-13.2959 0 -31.2861 -14.627t-34.415 -43.0449z" />
    <glyph glyph-name="odieresis" unicode="&#xf6;" horiz-adv-x="579" 
d="M280 533q49 0 91 -19.5t73.5 -55.5t49.5 -87t18 -114q0 -62 -17.5 -112t-48 -85t-73 -54t-93.5 -19t-92.5 19t-71 54t-45.5 85t-16 112t16.5 113t46 87t71 56t91.5 20zM419 257q0 88 -37 139t-102 51q-34 0 -58.5 -15t-41 -40.5t-24.5 -60t-8 -74.5q0 -87 33.5 -135.5
t99.5 -48.5t102 50t36 134zM319 618q0 26 18.5 44.5t44.5 18.5t44.5 -18.5t18.5 -44.5t-18.5 -44.5t-44.5 -18.5t-44.5 18.5t-18.5 44.5zM126 618q0 26 18.5 44.5t44.5 18.5t44.5 -18.5t18.5 -44.5t-18.5 -44.5t-44.5 -18.5t-44.5 18.5t-18.5 44.5z" />
    <glyph glyph-name="divide" unicode="&#xf7;" horiz-adv-x="418" 
d="M54 240h304v-85h-304v85zM148 291v114h114v-114h-114zM148 0v114h114v-114h-114z" />
    <glyph glyph-name="oslash" unicode="&#xf8;" horiz-adv-x="579" 
d="M225 -90h-91l36 104q-54 32 -84 93.5t-30 149.5q0 62 16.5 113t46 87t70.5 55.5t91 19.5q14 0 28.5 -1.5t28.5 -5.5l30 90h92l-43 -130q45 -36 69.5 -94t24.5 -134q0 -62 -17 -112t-47.5 -85t-72.5 -53.5t-93 -18.5h-14t-14 1zM280 448q-34 0 -58.5 -15t-41 -41
t-24.5 -60.5t-8 -74.5q0 -51 13.5 -91t36.5 -65q29 89 56.5 171.5t56.5 171.5q-13 4 -31 4zM418 257q0 83 -33 134l-106 -319h2q66 0 101.5 50.5t35.5 134.5z" />
    <glyph glyph-name="ugrave" unicode="&#xf9;" horiz-adv-x="553" 
d="M404 0v51q-26 -27 -67 -45.5t-84 -18.5t-79 15t-62.5 42t-41 65t-14.5 85v326h92v-305q0 -66 32.5 -104t90.5 -38q59 0 94.5 37t35.5 105v305h92v-520h-89zM154 728h107l102 -173h-106z" />
    <glyph glyph-name="uacute" unicode="&#xfa;" horiz-adv-x="553" 
d="M404 0v51q-26 -27 -67 -45.5t-84 -18.5t-79 15t-62.5 42t-41 65t-14.5 85v326h92v-305q0 -66 32.5 -104t90.5 -38q59 0 94.5 37t35.5 105v305h92v-520h-89zM260 555h-91l93 157h111z" />
    <glyph glyph-name="ucircumflex" unicode="&#xfb;" horiz-adv-x="553" 
d="M404 0v51q-26 -27 -67 -45.5t-84 -18.5t-79 15t-62.5 42t-41 65t-14.5 85v326h92v-305q0 -66 32.5 -104t90.5 -38q59 0 94.5 37t35.5 105v305h92v-520h-89zM300 750l145 -208h-104l-68 109q-16 -26 -35 -55.5t-33 -53.5h-105l148 208h52z" />
    <glyph glyph-name="udieresis" unicode="&#xfc;" horiz-adv-x="561" 
d="M404 0v51q-26 -27 -67 -45.5t-84 -18.5t-79 15t-62.5 42t-41 65t-14.5 85v326h92v-305q0 -66 32.5 -104t90.5 -38q59 0 94.5 37t35.5 105v305h92v-520h-89zM310 618q0 26 18.5 44.5t44.5 18.5t44.5 -18.5t18.5 -44.5t-18.5 -44.5t-44.5 -18.5t-44.5 18.5t-18.5 44.5z
M117 618q0 26 18.5 44.5t44.5 18.5t44.5 -18.5t18.5 -44.5t-18.5 -44.5t-44.5 -18.5t-44.5 18.5t-18.5 44.5z" />
    <glyph glyph-name="yacute" unicode="&#xfd;" horiz-adv-x="592" 
d="M158 -128q17 0 31 14t24.5 34.5t16 42.5t5.5 38q0 10 -1 22t-6 24l-176 473h97l142 -388l147 388h90l-202 -544q-14 -39 -30.5 -73t-36.5 -59.5t-45 -40.5t-56 -15h-49v84h49zM310 555h-91l93 157h111z" />
    <glyph glyph-name="ydieresis" unicode="&#xff;" horiz-adv-x="548" 
d="M142 -128q17 0 31 14t24.5 34.5t16 42.5t5.5 38q0 10 -1 22t-6 24l-176 473h97l142 -388l147 388h90l-202 -544q-14 -39 -30.5 -73t-36.5 -59.5t-45 -40.5t-56 -15h-49v84h49zM304 618q0 26 18.5 44.5t44.5 18.5t44.5 -18.5t18.5 -44.5t-18.5 -44.5t-44.5 -18.5
t-44.5 18.5t-18.5 44.5zM111 618q0 26 18.5 44.5t44.5 18.5t44.5 -18.5t18.5 -44.5t-18.5 -44.5t-44.5 -18.5t-44.5 18.5t-18.5 44.5z" />
    <glyph glyph-name="Abreve" unicode="&#x102;" horiz-adv-x="701" 
d="M345 578l-94 -271h190zM221 218l-77 -218h-92l247 705h92l248 -705h-94l-74 218h-250zM346 798q33 0 57.5 23t35.5 61h71q-17 -69 -59.5 -108.5t-104.5 -39.5q-60 0 -103 39.5t-60 108.5h70q11 -38 35.5 -61t57.5 -23z" />
    <glyph glyph-name="abreve" unicode="&#x103;" horiz-adv-x="628" 
d="M310 599q33 0 57.5 23t35.5 61h71q-17 -69 -59.5 -108.5t-104.5 -39.5q-60 0 -103 39.5t-60 108.5h70q11 -38 35.5 -61t57.5 -23z" />
    <glyph glyph-name="Cacute" unicode="&#x106;" horiz-adv-x="715" 
d="M358 -13q-69 0 -125 26t-95 74t-60.5 115.5t-21.5 149.5q0 80 21 146.5t60.5 114t95.5 73.5t125 26q196 0 280 -214l-80 -37q-32 82 -80 123.5t-120 41.5q-50 0 -89 -20.5t-65.5 -57t-40.5 -87t-14 -109.5t14 -110t40.5 -88.5t65.5 -59t89 -21.5q72 0 123 45t72 119
l83 -37q-42 -111 -110.5 -162t-167.5 -51zM372 737h-91l93 157h111z" />
    <glyph glyph-name="cacute" unicode="&#x107;" horiz-adv-x="564" 
d="M289 533q35 0 68.5 -10.5t61.5 -31.5t47.5 -51t27.5 -69l-82 -37q-11 51 -45 82t-78 31q-34 0 -60 -15t-44 -41t-27.5 -60.5t-9.5 -73.5q0 -81 36 -130t105 -49q45 0 78 23.5t50 79.5l75 -42q-11 -37 -31.5 -65t-47.5 -47t-59 -29t-65 -10q-54 0 -97 20.5t-73 56.5
t-46.5 85t-16.5 107q0 60 16.5 110.5t47.5 87t73.5 57.5t95.5 21zM266 555h-91l93 157h111z" />
    <glyph glyph-name="Ccaron" unicode="&#x10c;" horiz-adv-x="715" 
d="M358 -13q-69 0 -125 26t-95 74t-60.5 115.5t-21.5 149.5q0 80 21 146.5t60.5 114t95.5 73.5t125 26q196 0 280 -214l-80 -37q-32 82 -80 123.5t-120 41.5q-50 0 -89 -20.5t-65.5 -57t-40.5 -87t-14 -109.5t14 -110t40.5 -88.5t65.5 -59t89 -21.5q72 0 123 45t72 119
l83 -37q-42 -111 -110.5 -162t-167.5 -51zM327 741l-145 208h104l67 -109q17 26 36 55.5t33 53.5h105l-148 -208h-52z" />
    <glyph glyph-name="ccaron" unicode="&#x10d;" horiz-adv-x="564" 
d="M289 533q35 0 68.5 -10.5t61.5 -31.5t47.5 -51t27.5 -69l-82 -37q-11 51 -45 82t-78 31q-34 0 -60 -15t-44 -41t-27.5 -60.5t-9.5 -73.5q0 -81 36 -130t105 -49q45 0 78 23.5t50 79.5l75 -42q-11 -37 -31.5 -65t-47.5 -47t-59 -29t-65 -10q-54 0 -97 20.5t-73 56.5
t-46.5 85t-16.5 107q0 60 16.5 110.5t47.5 87t73.5 57.5t95.5 21zM251 542l-145 208h104l67 -109q17 26 36 55.5t33 53.5h105l-148 -208h-52z" />
    <glyph glyph-name="Dcaron" unicode="&#x10e;" horiz-adv-x="659" 
d="M291 704q67 0 124 -26.5t98.5 -73.5t65 -111.5t23.5 -140.5t-23.5 -140.5t-65 -111.5t-98.5 -73.5t-124 -26.5h-235v704h235zM509 352q0 55 -16 105t-45 87.5t-69 59.5t-88 22h-142v-548h142q49 0 89.5 22.5t69 60t44 87.5t15.5 104zM245 739l-145 208h104l67 -109
q17 26 36 55.5t33 53.5h105l-148 -208h-52z" />
    <glyph glyph-name="Ecaron" unicode="&#x11a;" horiz-adv-x="555" 
d="M491 704v-78h-343v-204h293v-85h-293v-259h343v-78h-436v704h436zM252 734l-145 208h104l67 -109q17 26 36 55.5t33 53.5h105l-148 -208h-52z" />
    <glyph glyph-name="ecaron" unicode="&#x11b;" horiz-adv-x="571" 
d="M151 222q9 -72 45 -110.5t87 -38.5q38 0 75.5 21.5t58.5 69.5l80 -40q-33 -61 -87 -99t-117 -38q-49 0 -92 19.5t-75.5 55.5t-51 86.5t-18.5 111.5q0 63 15.5 114t44.5 86t72 54t98 19q49 0 90 -20t71 -56t46.5 -86t16.5 -111v-38h-359zM283 447q-25 0 -48 -9.5
t-41.5 -28t-30 -44.5t-13.5 -59h267q0 32 -12 58t-31 44.5t-43 28.5t-48 10zM255 542l-145 208h104l67 -109q17 26 36 55.5t33 53.5h105l-148 -208h-52z" />
    <glyph glyph-name="Gbreve" unicode="&#x11e;" horiz-adv-x="715" 
d="M386 375h259v-375h-67l-15 71q-38 -40 -90.5 -62t-114.5 -22q-69 0 -125 26t-95 74t-60.5 115.5t-21.5 149.5q0 80 21 146.5t60.5 114t95.5 73.5t125 26q193 0 277 -205l-78 -42q-32 80 -79.5 120.5t-118.5 40.5q-50 0 -89 -20.5t-66 -57t-41 -87t-14 -109.5t14 -109.5
t41 -87t65.5 -57t88.5 -20.5q53 0 90 15.5t61 43.5t35.5 66.5t14.5 85.5h-206zM353 778q33 0 57.5 23t35.5 61h71q-17 -69 -59.5 -108.5t-104.5 -39.5q-60 0 -103 39.5t-60 108.5h70q11 -38 35.5 -61t57.5 -23z" />
    <glyph glyph-name="gbreve" unicode="&#x11f;" horiz-adv-x="553" 
d="M494 520v-569q0 -38 -16 -70.5t-44.5 -56t-68 -36.5t-86.5 -13q-78 0 -134 41t-76 106l84 37q11 -48 45 -77t82 -29q60 0 90.5 33t30.5 87v64q-26 -23 -61.5 -36.5t-73.5 -13.5q-47 0 -87 19.5t-69.5 56t-46.5 88t-17 115.5q0 59 16.5 108t45.5 84t68.5 54.5t85.5 19.5
q39 0 76.5 -17t62.5 -49v54h93zM269 447q-30 0 -54 -15t-41 -40.5t-26 -60t-9 -74.5q0 -39 9 -72.5t26 -58t41 -39t54 -14.5q29 0 53.5 14t42 38.5t27 58t9.5 73.5q0 38 -9.5 72.5t-27 60.5t-42 41.5t-53.5 15.5zM291 633q33 0 57.5 23t35.5 61h71q-17 -69 -59.5 -108.5
t-104.5 -39.5q-60 0 -103 39.5t-60 108.5h70q11 -38 35.5 -61t57.5 -23z" />
    <glyph glyph-name="Idotaccent" unicode="&#x130;" horiz-adv-x="200" 
d="M145 704v-704h-93v704h93zM49 755q0 22 14.5 37t36.5 15q21 0 36 -15t15 -37t-15 -36.5t-36 -14.5q-22 0 -36.5 14.5t-14.5 36.5z" />
    <glyph glyph-name="dotlessi" unicode="&#x131;" horiz-adv-x="192" 
d="M144 520v-520h-92v520h92z" />
    <glyph glyph-name="Lcaron" unicode="&#x13d;" horiz-adv-x="539" 
d="M147 705v-627h266v-78h-359v705h93zM211 847q0 26 18.5 44.5t44.5 18.5t44.5 -19t18.5 -46l-34 -162h-66l24 102q-21 5 -35.5 22.5t-14.5 39.5z" />
    <glyph glyph-name="lcaron" unicode="&#x13e;" horiz-adv-x="409" 
d="M144 704v-704h-92v704h92zM244 648q0 26 18.5 44.5t44.5 18.5t44.5 -19t18.5 -46l-34 -162h-66l24 102q-21 5 -35.5 22.5t-14.5 39.5z" />
    <glyph glyph-name="Nacute" unicode="&#x143;" horiz-adv-x="625" 
d="M158 704l333 -580l-17 56v524h93v-704h-108l-324 577l13 -71v-506h-93v704h103zM320 730h-91l93 157h111z" />
    <glyph glyph-name="nacute" unicode="&#x144;" horiz-adv-x="553" 
d="M140 520v-47q26 29 64.5 44.5t82.5 15.5t81.5 -15.5t65.5 -43.5t43.5 -66t15.5 -84v-324h-92v305q0 33 -10 59.5t-27 44.5t-41 28t-52 10q-59 0 -95 -39t-36 -103v-305h-92v520h92zM260 555h-91l93 157h111z" />
    <glyph glyph-name="Ncaron" unicode="&#x147;" horiz-adv-x="625" 
d="M158 704l333 -580l-17 56v524h93v-704h-108l-324 577l13 -71v-506h-93v704h103zM286 729l-145 208h104l67 -109q17 26 36 55.5t33 53.5h105l-148 -208h-52z" />
    <glyph glyph-name="ncaron" unicode="&#x148;" horiz-adv-x="553" 
d="M140 520v-47q26 29 64.5 44.5t82.5 15.5t81.5 -15.5t65.5 -43.5t43.5 -66t15.5 -84v-324h-92v305q0 33 -10 59.5t-27 44.5t-41 28t-52 10q-59 0 -95 -39t-36 -103v-305h-92v520h92zM246 542l-145 208h104l67 -109q17 26 36 55.5t33 53.5h105l-148 -208h-52z" />
    <glyph glyph-name="Ohungarumlaut" unicode="&#x150;" horiz-adv-x="738" 
d="M363 78q50 0 90 21t67.5 58t42 87t14.5 108q0 59 -14.5 109.5t-42 87t-67.5 57t-90 20.5t-90 -20.5t-67.5 -57t-42 -86.5t-14.5 -110q0 -59 14.5 -109.5t42 -87t67.5 -57t90 -20.5zM56 352q0 82 22.5 148.5t63 113.5t97 72.5t124.5 25.5q70 0 127 -25.5t97 -73t61.5 -114
t21.5 -147.5q0 -83 -22 -150t-62.5 -115t-97 -74t-125.5 -26q-70 0 -126.5 26t-96.5 74t-62 115.5t-22 149.5zM313 734h-92l85 146h94zM509 734h-93l87 146h93z" />
    <glyph glyph-name="ohungarumlaut" unicode="&#x151;" horiz-adv-x="579" 
d="M280 533q49 0 91 -19.5t73.5 -55.5t49.5 -87t18 -114q0 -62 -17.5 -112t-48 -85t-73 -54t-93.5 -19t-92.5 19t-71 54t-45.5 85t-16 112t16.5 113t46 87t71 56t91.5 20zM419 257q0 88 -37 139t-102 51q-34 0 -58.5 -15t-41 -40.5t-24.5 -60t-8 -74.5q0 -87 33.5 -135.5
t99.5 -48.5t102 50t36 134zM231 555h-92l85 146h94zM427 555h-93l87 146h93z" />
    <glyph glyph-name="OE" unicode="&#x152;" horiz-adv-x="941" 
d="M365 712q48 0 93 -13h410v-85h-344v-209h294v-86h-294v-240h344v-85h-437q-16 -3 -32 -5t-34 -2q-70 0 -126.5 26t-96.5 74t-62 115.5t-22 149.5t22.5 148.5t63 113.5t97 72.5t124.5 25.5zM365 73q37 0 66 10v532q-15 5 -32 8.5t-34 3.5q-50 0 -90 -20.5t-67.5 -57.5
t-42 -87t-14.5 -110q0 -59 14.5 -110t42 -88.5t67.5 -59t90 -21.5z" />
    <glyph glyph-name="oe" unicode="&#x153;" horiz-adv-x="958" 
d="M284 532q55 0 102 -26t79 -71q29 45 75 71t108 26q49 0 90.5 -21.5t71.5 -58t46.5 -86t16.5 -106.5v-38h-358q11 -72 46.5 -111t83.5 -39q43 0 82.5 26.5t56.5 83.5h96q-13 -42 -35.5 -78t-52 -61.5t-64.5 -40t-73 -14.5q-57 0 -105 25t-81 73q-30 -47 -78 -72.5
t-107 -25.5q-51 0 -92 18.5t-70.5 53.5t-45.5 85t-16 112t16.5 113t46 87t70.5 55.5t91 19.5zM284 448q-34 0 -58.5 -15t-41 -41t-24.5 -60.5t-8 -74.5q0 -87 33.5 -136t99.5 -49q35 0 61 15.5t43 41.5t25.5 59t8.5 68q0 36 -9 70.5t-26.5 61.5t-43.5 43.5t-60 16.5z
M645 448q-49 0 -84.5 -37t-46.5 -104q69 0 131.5 -0.5t131.5 -0.5q-11 67 -47 104.5t-85 37.5z" />
    <glyph glyph-name="Racute" unicode="&#x154;" horiz-adv-x="620" 
d="M562 0h-97l-184 329h-133v-329h-93v704h253q46 0 85.5 -13.5t69 -38.5t46 -60t16.5 -77q0 -29 -10 -58t-29.5 -53.5t-47 -43t-62.5 -26.5zM148 407h160q31 0 54.5 9.5t39 24.5t23 34.5t7.5 39.5q0 22 -8.5 42t-24.5 35.5t-39 24.5t-52 9h-160v-219zM294 754h-91l93 157
h111z" />
    <glyph glyph-name="racute" unicode="&#x155;" horiz-adv-x="364" 
d="M146 520v-71q11 16 25 31t33 26.5t43 18.5t55 7v-85q-44 0 -73.5 -8.5t-48 -26.5t-26.5 -47.5t-8 -71.5v-293h-92v520h92zM166 555h-91l93 157h111z" />
    <glyph glyph-name="Rcaron" unicode="&#x158;" horiz-adv-x="620" 
d="M562 0h-97l-184 329h-133v-329h-93v704h253q46 0 85.5 -13.5t69 -38.5t46 -60t16.5 -77q0 -29 -10 -58t-29.5 -53.5t-47 -43t-62.5 -26.5zM148 407h160q31 0 54.5 9.5t39 24.5t23 34.5t7.5 39.5q0 22 -8.5 42t-24.5 35.5t-39 24.5t-52 9h-160v-219zM279 741l-145 208h104
l67 -109q17 26 36 55.5t33 53.5h105l-148 -208h-52z" />
    <glyph glyph-name="rcaron" unicode="&#x159;" horiz-adv-x="364" 
d="M146 520v-71q11 16 25 31t33 26.5t43 18.5t55 7v-85q-44 0 -73.5 -8.5t-48 -26.5t-26.5 -47.5t-8 -71.5v-293h-92v520h92zM152 542l-145 208h104l67 -109q17 26 36 55.5t33 53.5h105l-148 -208h-52z" />
    <glyph glyph-name="Sacute" unicode="&#x15a;" horiz-adv-x="626" 
d="M303 712q43 0 84.5 -12.5t75 -38t55.5 -64t26 -90.5l-81 -44v33q0 27 -13 51t-35 41.5t-51.5 27.5t-62.5 10q-27 0 -52 -6t-44 -18t-30 -31t-11 -44q0 -44 29 -68.5t72.5 -40.5t94.5 -29.5t94.5 -35t72.5 -58t29 -98.5q0 -52 -19 -91t-52 -65.5t-78 -40t-98 -13.5
q-44 0 -87 12t-78 36.5t-58 62t-27 88.5l89 52q1 -85 41 -125t120 -40q39 0 67.5 9.5t48 26t29 38t9.5 45.5q0 32 -17 52.5t-44.5 34.5t-62.5 23.5t-72 20t-72 25t-62.5 38t-44.5 58t-17 86.5q0 45 20 79t52.5 57t74 34.5t85.5 11.5zM297 754h-91l93 157h111z" />
    <glyph glyph-name="sacute" unicode="&#x15b;" horiz-adv-x="537" 
d="M264 533q88 0 143 -41.5t67 -119.5l-90 -33q-3 29 -14.5 50t-28.5 35t-37 21t-41 7q-37 0 -65.5 -17.5t-28.5 -53.5q0 -19 9.5 -32t27 -21.5t41.5 -14.5t54 -12q51 -10 85 -25.5t54 -36t28 -47t8 -59.5q0 -35 -15.5 -62t-43.5 -46t-65.5 -28.5t-82.5 -9.5
q-40 0 -77.5 9.5t-67.5 30t-50 52.5t-24 77l88 28q3 -51 38 -81t86 -30q60 0 91 16t31 53q0 18 -10 30.5t-25.5 21t-34 13t-35.5 7.5q-38 7 -74.5 18.5t-65 31t-45.5 49t-17 73.5q0 20 8 45.5t29 48t57 38t93 15.5zM252 555h-91l93 157h111z" />
    <glyph glyph-name="Scaron" unicode="&#x160;" horiz-adv-x="626" 
d="M303 712q43 0 84.5 -12.5t75 -38t55.5 -64t26 -90.5l-81 -44v33q0 27 -13 51t-35 41.5t-51.5 27.5t-62.5 10q-27 0 -52 -6t-44 -18t-30 -31t-11 -44q0 -44 29 -68.5t72.5 -40.5t94.5 -29.5t94.5 -35t72.5 -58t29 -98.5q0 -52 -19 -91t-52 -65.5t-78 -40t-98 -13.5
q-44 0 -87 12t-78 36.5t-58 62t-27 88.5l89 52q1 -85 41 -125t120 -40q39 0 67.5 9.5t48 26t29 38t9.5 45.5q0 32 -17 52.5t-44.5 34.5t-62.5 23.5t-72 20t-72 25t-62.5 38t-44.5 58t-17 86.5q0 45 20 79t52.5 57t74 34.5t85.5 11.5zM282 741l-145 208h104l67 -109
q17 26 36 55.5t33 53.5h105l-148 -208h-52z" />
    <glyph glyph-name="scaron" unicode="&#x161;" horiz-adv-x="537" 
d="M264 533q88 0 143 -41.5t67 -119.5l-90 -33q-3 29 -14.5 50t-28.5 35t-37 21t-41 7q-37 0 -65.5 -17.5t-28.5 -53.5q0 -19 9.5 -32t27 -21.5t41.5 -14.5t54 -12q51 -10 85 -25.5t54 -36t28 -47t8 -59.5q0 -35 -15.5 -62t-43.5 -46t-65.5 -28.5t-82.5 -9.5
q-40 0 -77.5 9.5t-67.5 30t-50 52.5t-24 77l88 28q3 -51 38 -81t86 -30q60 0 91 16t31 53q0 18 -10 30.5t-25.5 21t-34 13t-35.5 7.5q-38 7 -74.5 18.5t-65 31t-45.5 49t-17 73.5q0 20 8 45.5t29 48t57 38t93 15.5zM238 542l-145 208h104l67 -109q17 26 36 55.5t33 53.5h105
l-148 -208h-52z" />
    <glyph glyph-name="Tcaron" unicode="&#x164;" horiz-adv-x="607" 
d="M542 704v-78h-192v-626h-93v626h-202v78h487zM273 741l-145 208h104l67 -109q17 26 36 55.5t33 53.5h105l-148 -208h-52z" />
    <glyph glyph-name="tcaron" unicode="&#x165;" horiz-adv-x="580" 
d="M120 520v184h92v-184h90v-73h-90v-274q0 -30 1.5 -49.5t6 -30.5t13 -15.5t22.5 -4.5h47v-73h-55q-63 0 -95 37.5t-32 103.5v306h-66v73h66zM415 648q0 26 18.5 44.5t44.5 18.5t44.5 -19t18.5 -46l-34 -162h-66l24 102q-21 5 -35.5 22.5t-14.5 39.5z" />
    <glyph glyph-name="Uring" unicode="&#x16e;" horiz-adv-x="633" 
d="M148 704v-450q0 -41 11 -74t31.5 -57t50 -37t66.5 -13q36 0 66.5 13t53 36.5t35 57t12.5 74.5v450h93v-447q0 -62 -19.5 -112t-54.5 -85t-82.5 -54t-103.5 -19t-102.5 19t-79.5 54t-51.5 85t-18.5 112v447h93z" />
    <glyph glyph-name="uring" unicode="&#x16f;" horiz-adv-x="561" 
d="M404 0v51q-26 -27 -67 -45.5t-84 -18.5t-79 15t-62.5 42t-41 65t-14.5 85v326h92v-305q0 -66 32.5 -104t90.5 -38q59 0 94.5 37t35.5 105v305h92v-520h-89zM244 652q0 -20 14.5 -35t35.5 -15q20 0 34 15t14 35t-14 34t-34 14q-21 0 -35.5 -14t-14.5 -34zM194 652
q0 21 7.5 39t21 31.5t32 21t39.5 7.5q42 0 70.5 -28.5t28.5 -70.5t-28.5 -71t-70.5 -29q-21 0 -39.5 8t-32 21.5t-21 31.5t-7.5 39z" />
    <glyph glyph-name="Uhungarumlaut" unicode="&#x170;" horiz-adv-x="625" 
d="M148 704v-450q0 -41 11 -74t31.5 -57t50 -37t66.5 -13q36 0 66.5 13t53 36.5t35 57t12.5 74.5v450h93v-447q0 -62 -19.5 -112t-54.5 -85t-82.5 -54t-103.5 -19t-102.5 19t-79.5 54t-51.5 85t-18.5 112v447h93zM252 735h-92l85 146h94zM448 735h-93l87 146h93z" />
    <glyph glyph-name="uhungarumlaut" unicode="&#x171;" horiz-adv-x="561" 
d="M404 0v51q-26 -27 -67 -45.5t-84 -18.5t-79 15t-62.5 42t-41 65t-14.5 85v326h92v-305q0 -66 32.5 -104t90.5 -38q59 0 94.5 37t35.5 105v305h92v-520h-89zM230 555h-92l85 146h94zM426 555h-93l87 146h93z" />
    <glyph glyph-name="Ydieresis" unicode="&#x178;" horiz-adv-x="631" 
d="M268 261l-247 443h99l191 -356l190 356h100l-240 -445v-259h-93v261zM345 797q0 26 18.5 44.5t44.5 18.5t44.5 -18.5t18.5 -44.5t-18.5 -44.5t-44.5 -18.5t-44.5 18.5t-18.5 44.5zM152 797q0 26 18.5 44.5t44.5 18.5t44.5 -18.5t18.5 -44.5t-18.5 -44.5t-44.5 -18.5
t-44.5 18.5t-18.5 44.5z" />
    <glyph glyph-name="Zacute" unicode="&#x179;" horiz-adv-x="641" 
d="M560 705v-79l-389 -548h404v-78h-519v78l388 548h-371v79h487zM304 754h-91l93 157h111z" />
    <glyph glyph-name="zacute" unicode="&#x17a;" horiz-adv-x="534" 
d="M467 520v-71l-309 -376h309v-73h-411v76l305 371h-290v73h396zM251 555h-91l93 157h111z" />
    <glyph glyph-name="zdotaccent" unicode="&#x17c;" horiz-adv-x="502" 
d="M201 588q0 26 18 44t44 18t44.5 -18t18.5 -44t-18.5 -44t-44.5 -18t-44 18t-18 44zM456 531v-71l-309 -376h309v-73h-411v76l305 371h-290v73h396z" />
    <glyph glyph-name="Zcaron" unicode="&#x17d;" horiz-adv-x="641" 
d="M560 705v-79l-389 -548h404v-78h-519v78l388 548h-371v79h487zM290 741l-145 208h104l67 -109q17 26 36 55.5t33 53.5h105l-148 -208h-52z" />
    <glyph glyph-name="zcaron" unicode="&#x17e;" horiz-adv-x="534" 
d="M467 520v-71l-309 -376h309v-73h-411v76l305 371h-290v73h396zM236 542l-145 208h104l67 -109q17 26 36 55.5t33 53.5h105l-148 -208h-52z" />
    <glyph glyph-name="circumflex" unicode="&#x2c6;" horiz-adv-x="437" 
d="M242 750l145 -208h-104l-68 109q-16 -26 -35 -55.5t-33 -53.5h-105l148 208h52z" />
    <glyph glyph-name="caron" unicode="&#x2c7;" horiz-adv-x="437" 
d="M188 542l-145 208h104l67 -109q17 26 36 55.5t33 53.5h105l-148 -208h-52z" />
    <glyph glyph-name="breve" unicode="&#x2d8;" horiz-adv-x="434" 
d="M213 599q33 0 57.5 23t35.5 61h71q-17 -69 -59.5 -108.5t-104.5 -39.5q-60 0 -103 39.5t-60 108.5h70q11 -38 35.5 -61t57.5 -23z" />
    <glyph glyph-name="ring" unicode="&#x2da;" horiz-adv-x="334" 
d="M100 726q0 -20 14.5 -35t35.5 -15q20 0 34 15t14 35t-14 34t-34 14q-21 0 -35.5 -14t-14.5 -34zM50 726q0 21 7.5 39t21 31.5t32 21t39.5 7.5q42 0 70.5 -28.5t28.5 -70.5t-28.5 -71t-70.5 -29q-21 0 -39.5 8t-32 21.5t-21 31.5t-7.5 39z" />
    <glyph glyph-name="tilde" unicode="&#x2dc;" horiz-adv-x="612" 
d="M49 234q38 43 80 71t90 28q23 0 47 -10t48 -23h-1q23 -12 45.5 -22.5t42.5 -10.5q8 0 18.5 7t21 18t20 23.5t14.5 24.5l74 -54q-12 -21 -28 -40t-34.5 -33.5t-40.5 -23.5t-47 -9q-23 0 -47 10t-48 22t-46.5 22t-40.5 10q-17 0 -40 -17.5t-44 -51.5z" />
    <glyph glyph-name="hungarumlaut" unicode="&#x2dd;" horiz-adv-x="474" 
d="M138 555h-92l85 146h94zM334 555h-93l87 146h93z" />
    <glyph glyph-name="uni0405" unicode="&#x405;" horiz-adv-x="621" 
d="M303 712q43 0 84.5 -12.5t75 -38t55.5 -64t26 -90.5l-81 -44v33q0 27 -13 51t-35 41.5t-51.5 27.5t-62.5 10q-27 0 -52 -6t-44 -18t-30 -31t-11 -44q0 -44 29 -68.5t72.5 -40.5t94.5 -29.5t94.5 -35t72.5 -58t29 -98.5q0 -52 -19 -91t-52 -65.5t-78 -40t-98 -13.5
q-44 0 -87 12t-78 36.5t-58 62t-27 88.5l89 52q1 -85 41 -125t120 -40q39 0 67.5 9.5t48 26t29 38t9.5 45.5q0 32 -17 52.5t-44.5 34.5t-62.5 23.5t-72 20t-72 25t-62.5 38t-44.5 58t-17 86.5q0 45 20 79t52.5 57t74 34.5t85.5 11.5z" />
    <glyph glyph-name="uni040E" unicode="&#x40e;" horiz-adv-x="665" 
d="M148 704l180 -413l179 413h98l-253 -568q-29 -66 -70 -101t-105 -35h-51v85h68q13 0 26.5 9t24.5 24t18 33.5t7 36.5q0 13 -1 22t-5 17l-215 477h99z" />
    <glyph glyph-name="uni0410" unicode="&#x410;" horiz-adv-x="669" 
d="M329 577l-94 -270h189zM205 218l-77 -218h-93l248 704h92l248 -704h-94l-75 218h-249z" />
    <glyph glyph-name="uni0411" unicode="&#x411;" horiz-adv-x="577" 
d="M56 0v704h421v-85h-328v-217h176q43 0 80 -15.5t64.5 -42.5t43.5 -63t16 -76t-16 -77t-43.5 -65.5t-64.5 -45.5t-80 -17h-269zM149 73h176q24 0 44.5 11t35.5 29t23 40.5t8 45.5t-8 46t-22.5 42t-35 30.5t-45.5 11.5h-176v-256z" />
    <glyph glyph-name="uni0412" unicode="&#x412;" horiz-adv-x="615" 
d="M149 619v-217h193q27 0 48 9.5t36 25t22.5 36t7.5 42.5q0 45 -31.5 74.5t-82.5 29.5h-193zM149 329v-256h210q27 0 49 11.5t37.5 29.5t23.5 41t8 46q0 56 -37 92t-98 36h-193zM56 705h286q45 0 82.5 -14.5t64.5 -40t41.5 -59.5t14.5 -74q0 -45 -19 -83t-53 -61
q42 -23 68 -70t26 -104q0 -44 -15.5 -80.5t-43 -63t-65.5 -41t-84 -14.5h-303v705z" />
    <glyph glyph-name="uni0413" unicode="&#x413;" horiz-adv-x="452" 
d="M62 704h360v-85h-267v-619h-93v704z" />
    <glyph glyph-name="uni0414" unicode="&#x414;" horiz-adv-x="708" 
d="M141 0v-139h-93v212h51q14 0 26 14t20.5 40t13.5 61.5t5 79.5v436h438v-631h58v-212h-93v139h-426zM257 619v-351q0 -60 -13 -111.5t-32 -83.5h297v546h-252z" />
    <glyph glyph-name="uni0415" unicode="&#x415;" horiz-adv-x="516" 
d="M492 704v-73h-343v-223h293v-73h-293v-262h343v-73h-436v704h436z" />
    <glyph glyph-name="uni0416" unicode="&#x416;" horiz-adv-x="1040" 
d="M466 315l-73 71l-270 -386h-114l313 449l-293 255h142l295 -270v270h93v-269l293 269h143l-294 -255l313 -449h-113l-270 386l-72 -68v-318h-93v315z" />
    <glyph glyph-name="uni0417" unicode="&#x417;" horiz-adv-x="629" 
d="M304 631q-77 0 -120.5 -44.5t-50.5 -127.5l-96 40q9 55 32 95t58 66t80 39t97 13q114 0 179 -52t65 -145q0 -53 -23 -88.5t-65 -59.5q52 -18 86.5 -57.5t34.5 -102.5q0 -50 -20 -91t-56 -69.5t-87 -44t-114 -15.5q-54 0 -100 12t-81 37.5t-57.5 64t-29.5 92.5l89 47
q8 -46 21.5 -77.5t35 -51.5t51.5 -29t71 -9q91 0 137.5 35t46.5 99q0 47 -33.5 80.5t-100.5 33.5h-117v73h100q27 0 49 10t37 27t23.5 39t8.5 45q0 52 -39.5 84t-111.5 32z" />
    <glyph glyph-name="uni0418" unicode="&#x418;" horiz-adv-x="632" 
d="M576 0h-93v506l14 70l-340 -576h-101v704h93v-521l-12 -61l338 582h101v-704z" />
    <glyph glyph-name="uni0419" unicode="&#x419;" horiz-adv-x="641" 
d="M191 809h269v-73h-269v73zM576 0h-93v506l14 70l-340 -576h-101v704h93v-521l-12 -61l338 582h101v-704z" />
    <glyph glyph-name="uni041A" unicode="&#x41a;" horiz-adv-x="620" 
d="M214 378l-65 -60v-318h-93v704h93v-276l301 276h118l-287 -265l315 -439h-109z" />
    <glyph glyph-name="uni041B" unicode="&#x41b;" horiz-adv-x="658" 
d="M383 704l239 -704h-97l-196 577q-49 -144 -98.5 -289t-97.5 -288h-97l239 704h108z" />
    <glyph glyph-name="uni041C" unicode="&#x41c;" horiz-adv-x="758" 
d="M375 120l222 584h105v-705h-93v458l7 62l-196 -520h-90l-191 521l10 -63v-458h-93v705h96z" />
    <glyph glyph-name="uni041D" unicode="&#x41d;" horiz-adv-x="593" 
d="M149 704v-271h295v271h93v-704h-93v355h-295v-355h-93v704h93z" />
    <glyph glyph-name="uni041E" unicode="&#x41e;" horiz-adv-x="710" 
d="M355 78q50 0 90 21t67.5 58t42 87t14.5 108q0 59 -14.5 109.5t-42 87t-67.5 57t-90 20.5t-90 -20.5t-67.5 -57t-42 -86.5t-14.5 -110q0 -59 14.5 -109.5t42 -87t67.5 -57t90 -20.5zM48 352q0 82 22.5 148.5t63 113.5t97 72.5t124.5 25.5q70 0 127 -25.5t97 -73t61.5 -114
t21.5 -147.5q0 -83 -22 -150t-62.5 -115t-97 -74t-125.5 -26q-70 0 -126.5 26t-96.5 74t-62 115.5t-22 149.5z" />
    <glyph glyph-name="uni041F" unicode="&#x41f;" horiz-adv-x="593" 
d="M537 704v-704h-93v631h-295v-631h-93v704h481z" />
    <glyph glyph-name="uni0420" unicode="&#x420;" horiz-adv-x="553" 
d="M301 704q43 0 80 -17t64.5 -45.5t43.5 -65.5t16 -77t-16 -77t-43.5 -65.5t-64.5 -45.5t-80 -17h-145v-294h-93v704h238zM156 372h145q25 0 45.5 12t35 30.5t22.5 42t8 46.5q0 22 -8 44.5t-23 39.5t-35.5 28t-44.5 11h-145v-254z" />
    <glyph glyph-name="uni0421" unicode="&#x421;" horiz-adv-x="686" 
d="M358 -13q-69 0 -125 26t-95 74t-60.5 115.5t-21.5 149.5q0 80 21 146.5t60.5 114t95.5 73.5t125 26q196 0 280 -214l-80 -37q-32 82 -80 123.5t-120 41.5q-50 0 -89 -20.5t-65.5 -57t-40.5 -87t-14 -109.5t14 -110t40.5 -88.5t65.5 -59t89 -21.5q72 0 123 45t72 119
l83 -37q-42 -111 -110.5 -162t-167.5 -51z" />
    <glyph glyph-name="uni0422" unicode="&#x422;" horiz-adv-x="575" 
d="M526 704v-78h-192v-626h-93v626h-202v78h487z" />
    <glyph glyph-name="uni0423" unicode="&#x423;" horiz-adv-x="604" 
d="M123 704l180 -413l179 413h98l-253 -568q-29 -66 -70 -101t-105 -35h-51v85h68q13 0 26.5 9t24.5 24t18 33.5t7 36.5q0 13 -1 22t-5 17l-215 477h99z" />
    <glyph glyph-name="uni0424" unicode="&#x424;" horiz-adv-x="818" 
d="M367 0v144h-84q-51 0 -94 18.5t-74.5 51t-49 75.5t-17.5 93q0 53 18.5 98t52 77.5t79.5 50.5t101 18h68v79h93v-79h59q55 0 101 -18.5t79.5 -51t52 -77t18.5 -97.5q0 -50 -17.5 -93.5t-49 -75.5t-74.5 -50.5t-94 -18.5h-75v-144h-93zM299 553q-36 0 -65.5 -13t-50 -35.5
t-31.5 -52.5t-11 -63q0 -35 11.5 -66t32.5 -54.5t50 -37.5t64 -14h68v336h-68zM460 217h59q34 0 63 14t50 37.5t33 54.5t12 66q0 34 -12 64t-33 52t-50 35t-63 13h-59v-336z" />
    <glyph glyph-name="uni0425" unicode="&#x425;" horiz-adv-x="665" 
d="M514 704h111l-233 -339l249 -365h-110l-198 289l-198 -289h-111l251 365q-56 80 -117.5 169t-116.5 170h111l181 -266z" />
    <glyph glyph-name="uni0426" unicode="&#x426;" horiz-adv-x="654" 
d="M149 704v-631h326v631h93v-631h50v-213h-93v140h-469v704h93z" />
    <glyph glyph-name="uni0427" unicode="&#x427;" horiz-adv-x="582" 
d="M266 248q-108 0 -163 58.5t-55 176.5v222h93v-240q0 -27 8 -53t22 -46t34 -32.5t44 -12.5h184v384h93v-705h-93v248h-167z" />
    <glyph glyph-name="uni0428" unicode="&#x428;" horiz-adv-x="908" 
d="M149 704v-631h259v631h93v-631h258v631h93v-704h-796v704h93z" />
    <glyph glyph-name="uni0429" unicode="&#x429;" horiz-adv-x="957" 
d="M149 704v-631h260v631h92v-631h259v631h93v-631h80v-212h-93v139h-784v704h93z" />
    <glyph glyph-name="uni042A" unicode="&#x42a;" horiz-adv-x="660" 
d="M235 704v-292h152q48 0 89.5 -16t71.5 -43.5t47 -65t17 -80.5q0 -44 -17 -82t-47.5 -66t-71.5 -43.5t-89 -15.5h-245v626h-118v78h211zM387 73q29 0 53.5 11.5t42 30t27 42.5t9.5 50t-9.5 50t-27 42t-42 29t-53.5 11h-152v-266h152z" />
    <glyph glyph-name="uni042B" unicode="&#x42b;" horiz-adv-x="729" 
d="M580 0v704h93v-704h-93zM149 704v-306h137q48 0 89.5 -13.5t71.5 -38.5t47 -60.5t17 -78.5q0 -44 -17 -82t-47.5 -66t-71.5 -43.5t-89 -15.5h-230v704h93zM286 73q29 0 53.5 10.5t42 28.5t27 41.5t9.5 49.5q0 53 -36.5 87.5t-95.5 34.5h-137v-252h137z" />
    <glyph glyph-name="uni042C" unicode="&#x42c;" horiz-adv-x="574" 
d="M149 704v-300h152q48 0 89.5 -14.5t71.5 -41t47 -62.5t17 -79q0 -44 -17 -82t-47.5 -66t-71.5 -43.5t-89 -15.5h-245v704h93zM301 73q29 0 53.5 11.5t42 30t27 42.5t9.5 50t-9.5 49t-27 39.5t-42 26t-53.5 9.5h-152v-258h152z" />
    <glyph glyph-name="uni042D" unicode="&#x42d;" horiz-adv-x="699" 
d="M273 405h279q-7 47 -25.5 88.5t-46 72t-63 48t-77.5 17.5q-72 0 -122 -47t-79 -123h-91q80 251 292 251q70 0 127 -27.5t98 -76.5t63.5 -117t22.5 -149q0 -82 -23 -148t-64 -112t-98 -70.5t-126 -24.5q-213 0 -289 253h95q17 -78 69.5 -122.5t124.5 -44.5q45 0 83.5 19
t67 52t46 77t21.5 94h-285v90z" />
    <glyph glyph-name="uni042E" unicode="&#x42e;" horiz-adv-x="907" 
d="M149 415h100q9 68 34.5 122t64.5 92t91 58t113 20q70 0 127 -25t97 -71t61.5 -112t21.5 -147q0 -83 -22 -150t-62.5 -115t-97 -74t-125.5 -26q-66 0 -121 24.5t-94.5 69t-63 107t-27.5 137.5h-97v-325h-93v705h93v-290zM552 73q50 0 90 22t67.5 59.5t42 88.5t14.5 109
q0 59 -14.5 109.5t-42 87t-67.5 57t-90 20.5t-89.5 -20.5t-67.5 -57t-42.5 -86.5t-14.5 -110q0 -59 14.5 -110t42.5 -88.5t67.5 -59t89.5 -21.5z" />
    <glyph glyph-name="uni042F" unicode="&#x42f;" horiz-adv-x="595" 
d="M219 334q-35 8 -62.5 26.5t-47 43t-29.5 53.5t-10 58q0 42 16.5 77t45.5 60t68.5 38.5t85.5 13.5h253v-704h-93v325h-133l-183 -325h-98zM446 631h-160q-29 0 -52 -10t-39 -26t-24.5 -37t-8.5 -43q0 -20 7.5 -40.5t23 -37.5t39 -28t54.5 -11h160v233z" />
    <glyph glyph-name="uni0430" unicode="&#x430;" horiz-adv-x="570" 
d="M286 448q-63 0 -96.5 -28t-35.5 -85l-96 35q7 37 26.5 67t49.5 51t68.5 32.5t82.5 11.5q106 0 160 -46t54 -131v-217q0 -18 2 -29t7.5 -16.5t15.5 -7t25 -1.5v-84h-34q-73 0 -92 48q-31 -29 -79.5 -44.5t-100.5 -15.5q-83 0 -136.5 38.5t-58.5 114.5q0 22 8 47t26.5 46.5
t48 38.5t71.5 24q44 7 82 14t65.5 16t43.5 21t16 30q0 29 -33 49.5t-90 20.5zM409 260q-22 -13 -54 -22.5t-63.5 -15.5t-58 -10t-37.5 -6q-26 -11 -42 -28t-16 -37q0 -33 30.5 -51t75.5 -18q30 0 59.5 6.5t53 20t38 34.5t14.5 51v76z" />
    <glyph glyph-name="uni0431" unicode="&#x431;" horiz-adv-x="542" 
d="M352 615q-33 -1 -69 -4.5t-66.5 -19t-53 -47.5t-29.5 -89q26 36 66.5 56.5t78.5 20.5q46 0 85.5 -19.5t68 -54.5t45 -84t16.5 -108q0 -64 -17 -115.5t-46 -87.5t-69.5 -55.5t-86.5 -19.5q-15 0 -37.5 1t-47.5 8.5t-50.5 23.5t-46 45t-33 74t-12.5 110q0 120 9.5 196
t32 123.5t60.5 72.5t96 43q21 6 42.5 10t48.5 7t62.5 4.5t84.5 2.5l-5 -37q-3 -20 -13.5 -31.5t-27.5 -16.5t-39 -6.5t-47 -2.5zM272 448q-29 0 -53.5 -15.5t-41.5 -42t-26.5 -61t-9.5 -72.5q0 -40 9.5 -74t26.5 -58.5t41.5 -38.5t53.5 -14q30 0 54 14.5t41 39.5t26 58.5
t9 72.5q0 40 -9 74.5t-26 60.5t-41 41t-54 15z" />
    <glyph glyph-name="uni0432" unicode="&#x432;" horiz-adv-x="541" 
d="M56 520h265q30 0 57 -11.5t46.5 -31.5t31 -47t11.5 -57q0 -32 -12.5 -58t-35.5 -43q35 -17 54.5 -47.5t19.5 -72.5q0 -30 -11.5 -57.5t-31 -48.5t-46.5 -33.5t-57 -12.5h-291v520zM148 227v-143h181q30 0 51 21t21 50t-21 50.5t-51 21.5h-181zM148 436v-125h173
q26 0 44.5 18t18.5 44t-18.5 44.5t-44.5 18.5h-173z" />
    <glyph glyph-name="uni0433" unicode="&#x433;" horiz-adv-x="515" 
d="M125 342l-76 27q9 79 65 121t145 42q57 0 93.5 -15t57.5 -37.5t29 -48t8 -45.5q0 -40 -12 -67.5t-36 -47t-60 -32.5t-85 -24l-12 -2h3q-17 -4 -35.5 -8.5t-34 -12.5t-25.5 -20.5t-10 -30.5q0 -37 31 -53t91 -16q50 0 84 28t39 79l82 -24q-5 -44 -24 -76t-47.5 -52
t-65 -29.5t-75.5 -9.5q-45 0 -82.5 9.5t-65.5 28t-43.5 45.5t-15.5 62q0 33 8 59t28 45.5t53.5 34t85.5 24.5q29 6 53.5 13t42 16.5t27 23t9.5 32.5q0 36 -28.5 51.5t-66.5 15.5q-21 0 -42 -6t-38.5 -17.5t-28.5 -29t-11 -41.5z" />
    <glyph glyph-name="uni0434" unicode="&#x434;" horiz-adv-x="668" 
d="M42 73h70l161 447h97l159 -447h82v-214h-91v141h-386v-141h-92v214zM206 73h232l-116 328z" />
    <glyph glyph-name="uni0435" unicode="&#x435;" horiz-adv-x="547" 
d="M135 222q9 -72 45 -110.5t87 -38.5q38 0 75.5 21.5t58.5 69.5l80 -40q-33 -61 -87 -99t-117 -38q-49 0 -92 19.5t-75.5 55.5t-51 86.5t-18.5 111.5q0 63 15.5 114t44.5 86t72 54t98 19q49 0 90 -20t71 -56t46.5 -86t16.5 -111v-38h-359zM267 447q-25 0 -48 -9.5
t-41.5 -28t-30 -44.5t-13.5 -59h267q0 32 -12 58t-31 44.5t-43 28.5t-48 10z" />
    <glyph glyph-name="uni0436" unicode="&#x436;" horiz-adv-x="848" 
d="M461 520v-198q53 49 106 99t107 99h126l-225 -209l233 -311h-108l-187 250l-52 -45v-205h-92v205l-53 45l-187 -250h-108l233 310l-225 210h127l213 -197v197h92z" />
    <glyph glyph-name="uni0437" unicode="&#x437;" horiz-adv-x="563" 
d="M262 447q-116 0 -136 -113l-86 30q6 40 25.5 71t49.5 53t67.5 33.5t79.5 11.5q50 0 90 -12t67.5 -33t42.5 -50.5t15 -64.5q0 -30 -13.5 -59.5t-39.5 -46.5q24 -12 38 -27.5t21 -32.5t9 -34t2 -32q0 -69 -60 -111.5t-172 -42.5q-94 0 -152 40t-69 118l87 33q0 -28 11 -48
t29.5 -32.5t43 -18.5t52.5 -6t53.5 4.5t44 13.5t29.5 23t11 32q0 34 -23 55t-79 21h-88v84h88q49 0 67.5 21t18.5 48q0 31 -35 51.5t-89 20.5z" />
    <glyph glyph-name="uni0438" unicode="&#x438;" horiz-adv-x="541" 
d="M396 0v51q-26 -27 -67 -45.5t-84 -18.5t-79 15t-62.5 42t-41 65t-14.5 85v326h92v-305q0 -66 32.5 -104t90.5 -38q59 0 94.5 37t35.5 105v305h92v-520h-89z" />
    <glyph glyph-name="uni0439" unicode="&#x439;" horiz-adv-x="537" 
d="M137 624h250v-73h-250v73zM394 0v51q-26 -27 -67 -45.5t-84 -18.5t-79 15t-62.5 42t-41 65t-14.5 85v326h92v-305q0 -66 32.5 -104t90.5 -38q59 0 94.5 37t35.5 105v305h92v-520h-89z" />
    <glyph glyph-name="uni043A" unicode="&#x43a;" horiz-adv-x="507" 
d="M140 520v-198l210 198h125l-229 -210q27 -37 57 -76.5t60 -79.5t59.5 -79t56.5 -75h-108l-187 249l-44 -44v-205h-92v520h92z" />
    <glyph glyph-name="uni043B" unicode="&#x43b;" horiz-adv-x="580" 
d="M12 73h70l174 446h95l194 -519h-97l-145 414l-155 -414h-136v73z" />
    <glyph glyph-name="uni043C" unicode="&#x43c;" horiz-adv-x="684" 
d="M525 520h103v-520h-93v366l-161 -366h-72l-153 366v-366h-93v520h107l176 -413z" />
    <glyph glyph-name="uni043D" unicode="&#x43d;" horiz-adv-x="549" 
d="M401 222h-253v-222h-92v519h92v-213h253v213h92v-519h-92v222z" />
    <glyph glyph-name="uni043E" unicode="&#x43e;" horiz-adv-x="553" 
d="M273 533q49 0 91 -19.5t73.5 -55.5t49.5 -87t18 -114q0 -62 -17.5 -112t-48 -85t-73 -54t-93.5 -19t-92.5 19t-71 54t-45.5 85t-16 112t16.5 113t46 87t71 56t91.5 20zM412 257q0 88 -37 139t-102 51q-34 0 -58.5 -15t-41 -40.5t-24.5 -60t-8 -74.5q0 -87 33.5 -135.5
t99.5 -48.5t102 50t36 134z" />
    <glyph glyph-name="uni043F" unicode="&#x43f;" horiz-adv-x="549" 
d="M148 520v-47q26 29 64.5 44.5t82.5 15.5t81.5 -15.5t65.5 -43.5t43.5 -66t15.5 -84v-324h-92v305q0 33 -10 59.5t-27 44.5t-41 28t-52 10q-59 0 -95 -39t-36 -103v-305h-92v520h92z" />
    <glyph glyph-name="uni0440" unicode="&#x440;" horiz-adv-x="550" 
d="M56 -203v723h84v-52q29 32 67 48.5t76 16.5q46 0 86.5 -19.5t69.5 -56t46 -88.5t17 -116q0 -59 -16.5 -108t-45 -84t-68 -54.5t-85.5 -19.5q-41 0 -77 17t-61 49v-256h-93zM280 73q30 0 54 14.5t41 40t26 60t9 74.5q0 39 -9 72.5t-26 58.5t-41 39.5t-54 14.5t-54 -14
t-41 -39t-26.5 -58.5t-9.5 -73.5q0 -38 9.5 -72.5t26.5 -60.5t41 -41t54 -15z" />
    <glyph glyph-name="uni0441" unicode="&#x441;" horiz-adv-x="528" 
d="M273 533q35 0 68.5 -10.5t61.5 -31.5t47.5 -51t27.5 -69l-82 -37q-11 51 -45 82t-78 31q-34 0 -60 -15t-44 -41t-27.5 -60.5t-9.5 -73.5q0 -81 36 -130t105 -49q45 0 78 23.5t50 79.5l75 -42q-11 -37 -31.5 -65t-47.5 -47t-59 -29t-65 -10q-54 0 -97 20.5t-73 56.5
t-46.5 85t-16.5 107q0 60 16.5 110.5t47.5 87t73.5 57.5t95.5 21z" />
    <glyph glyph-name="uni0442" unicode="&#x442;" horiz-adv-x="772" 
d="M149 0h-93v520h93v-33q23 25 50 35.5t60 10.5q42 0 78 -20t58 -59q24 37 62.5 58t80.5 21q39 0 71.5 -15.5t56 -43.5t37 -66t13.5 -83v-325h-93v326q0 58 -28.5 89.5t-68.5 31.5q-42 0 -66 -32t-24 -89v-326h-93v326q0 58 -28.5 89.5t-68.5 31.5q-42 0 -69.5 -31
t-27.5 -90v-326z" />
    <glyph glyph-name="uni0443" unicode="&#x443;" horiz-adv-x="512" 
d="M118 -128q17 0 31 14t24.5 34.5t16 42.5t5.5 38q0 10 -1 22t-6 24l-176 473h97l142 -388l147 388h90l-202 -544q-14 -39 -30.5 -73t-36.5 -59.5t-45 -40.5t-56 -15h-49v84h49z" />
    <glyph glyph-name="uni0444" unicode="&#x444;" horiz-adv-x="895" 
d="M401 -203v256q-26 -32 -62.5 -48.5t-75.5 -16.5q-46 0 -85.5 19.5t-68 54.5t-45 83.5t-16.5 107.5q0 64 17 115.5t46 88t69 56t87 19.5q38 0 76 -16t67 -48v52h75v-52q29 32 67 48t76 16q46 0 86.5 -19.5t69.5 -56t46 -88t17 -115.5q0 -59 -16.5 -107.5t-45 -83.5
t-68.5 -54.5t-86 -19.5q-40 0 -76 16.5t-61 48.5v-256h-93zM625 73q30 0 54 14.5t41 40t26 60t9 74.5q0 39 -9 72.5t-26 59t-41 40t-54 14.5q-29 0 -53 -13t-41.5 -36.5t-27 -56t-9.5 -71.5v-18q0 -38 9.5 -71t27 -57t41.5 -38t53 -14zM270 73q29 0 53 14t41.5 38t27 57
t9.5 71v18q0 38 -9.5 70.5t-27 56t-41.5 37t-53 13.5q-30 0 -54 -14.5t-41 -40t-26 -59t-9 -72.5q0 -40 9 -74.5t26 -60t41 -40t54 -14.5z" />
    <glyph glyph-name="uni0445" unicode="&#x445;" horiz-adv-x="535" 
d="M120 0h-106l195 269l-179 251h107l124 -180l125 180h107l-178 -251l195 -269h-106l-143 194z" />
    <glyph glyph-name="uni0446" unicode="&#x446;" horiz-adv-x="599" 
d="M459 0h-58v47q-27 -27 -66 -43t-82 -16t-79 14.5t-62.5 41.5t-41 65t-14.5 85v326h92v-305q0 -66 32 -104.5t91 -38.5q58 0 94 37.5t36 105.5v305h92v-436h58v-218h-92v134z" />
    <glyph glyph-name="uni0447" unicode="&#x447;" horiz-adv-x="533" 
d="M385 0v182q-26 -23 -62.5 -36t-71.5 -13q-44 0 -79.5 15t-61.5 42.5t-40 65.5t-14 85v179h92v-179q0 -54 29 -89t86 -35q53 0 87.5 33.5t34.5 90.5v179h92v-520h-92z" />
    <glyph glyph-name="uni0448" unicode="&#x448;" horiz-adv-x="808" 
d="M614 0v34q-42 -46 -112 -46q-42 0 -78.5 19.5t-56.5 54.5q-23 -36 -63 -55t-82 -19q-36 0 -66.5 14.5t-52.5 41t-34.5 64.5t-12.5 86v325h93v-323q0 -58 23.5 -91t64.5 -33q42 0 69.5 33t27.5 91v324h93v-324q0 -58 23.5 -91t66.5 -33q42 0 69.5 34.5t27.5 89.5v324h93
v-436h53v-84h-146z" />
    <glyph glyph-name="uni0449" unicode="&#x449;" horiz-adv-x="824" 
d="M663 0h-54v34q-42 -46 -112 -46q-42 0 -78.5 19.5t-56.5 54.5q-23 -36 -63 -55t-82 -19q-36 0 -66.5 14.5t-52.5 41t-34.5 64.5t-12.5 86v325h93v-323q0 -58 23.5 -91t64.5 -33q42 0 69.5 33t27.5 91v324h93v-324q0 -58 23.5 -91t66.5 -33q42 0 69.5 34.5t27.5 89.5v324
h93v-436h54v-238h-93v154z" />
    <glyph glyph-name="uni044A" unicode="&#x44a;" horiz-adv-x="530" 
d="M17 520h169v-170h113q40 0 73.5 -14t58 -37t38 -53.5t13.5 -63.5q0 -35 -14 -67.5t-38.5 -58t-58 -41t-72.5 -15.5h-205v447h-77v73zM299 73q22 0 39.5 10t29 25.5t17.5 33.5t6 33q0 16 -6.5 34t-18.5 33t-29 25t-38 10h-113v-204h113z" />
    <glyph glyph-name="uni044B" unicode="&#x44b;" horiz-adv-x="647" 
d="M499 0v520h92v-520h-92zM261 73q22 0 39.5 10t29 25.5t17.5 33.5t6 33q0 16 -6.5 34t-18.5 33t-29 25t-38 10h-113v-204h113zM261 350q40 0 73.5 -14t58 -37t38 -53.5t13.5 -63.5q0 -35 -14 -67.5t-38.5 -58t-58 -41t-72.5 -15.5h-205v520h92v-170h113z" />
    <glyph glyph-name="uni044C" unicode="&#x44c;" horiz-adv-x="492" 
d="M261 73q22 0 39.5 10t29 25.5t17.5 33.5t6 33q0 16 -6.5 34t-18.5 33t-29 25t-38 10h-113v-204h113zM261 350q40 0 73.5 -14t58 -37t38 -53.5t13.5 -63.5q0 -35 -14 -67.5t-38.5 -58t-58 -41t-72.5 -15.5h-205v520h92v-170h113z" />
    <glyph glyph-name="uni044D" unicode="&#x44d;" horiz-adv-x="516" 
d="M172 306h197q-10 61 -44.5 101.5t-92.5 40.5q-44 0 -78 -31.5t-45 -82.5l-82 39q8 38 28 67.5t47.5 50t61 31t68.5 10.5q52 0 95 -20.5t73.5 -57.5t47 -87t16.5 -110q0 -58 -16 -107t-46 -85t-73 -56.5t-97 -20.5q-35 0 -67.5 10.5t-60 30t-48 48.5t-29.5 66l78 33
q17 -54 50 -79t77 -25q60 0 95 41.5t43 108.5h-198v84z" />
    <glyph glyph-name="uni044E" unicode="&#x44e;" horiz-adv-x="696" 
d="M148 309h48q7 49 26.5 90t48 70.5t65.5 46t81 16.5q49 0 91 -19.5t73 -55.5t49 -86.5t18 -113.5q0 -62 -17 -112t-48 -85t-73 -53.5t-93 -18.5q-95 0 -155 61t-68 173h-46v-222h-92v519h92v-210zM556 257q0 88 -37 139.5t-102 51.5q-34 0 -58.5 -15t-41 -41t-24.5 -60.5
t-8 -74.5q0 -87 33.5 -136t99.5 -49t102 50.5t36 134.5z" />
    <glyph glyph-name="uni044F" unicode="&#x44f;" horiz-adv-x="532" 
d="M181 202q-55 12 -90 55t-35 101q0 34 12.5 63.5t34 51.5t51 34.5t62.5 12.5h260v-520h-93v198h-97l-146 -198h-104zM148 359q0 -17 6.5 -33t17.5 -28t26 -19.5t32 -7.5h153v176h-153q-35 0 -58.5 -26.5t-23.5 -61.5z" />
    <glyph glyph-name="uni10D0" unicode="&#x10d0;" horiz-adv-x="474" 
d="M145 238q-10 -21 -13 -38.5t-3 -33.5q0 -21 9.5 -38t24.5 -29.5t34.5 -19t39.5 -6.5q30 0 50.5 10.5t33 28t18.5 39.5t6 46q0 40 -16 66.5t-40 46.5t-52 37.5t-52 39t-40 51t-16 73.5v26h93v-26q0 -25 16 -43t40 -35t52 -35.5t52 -44.5t40 -61t16 -85q0 -58 -17 -99.5
t-44.5 -68.5t-63.5 -39.5t-73 -12.5q-38 0 -75 12.5t-65.5 36t-46 56.5t-17.5 74q0 25 6.5 52.5t22.5 59.5z" />
    <glyph glyph-name="uni10D1" unicode="&#x10d1;" horiz-adv-x="500" 
d="M464 237q0 -49 -9.5 -94.5t-33.5 -80t-65.5 -55t-105.5 -20.5t-105.5 20.5t-65.5 55t-33.5 80t-9.5 94.5q0 46 7.5 92.5t28 84.5t57 63.5t93.5 30.5v82h-19q-57 0 -88.5 17t-31.5 68v41h92v-28q0 -8 4.5 -11t21.5 -3h186l45 -84h-118v-88q42 -13 71 -40.5t46.5 -63.5
t25 -77.5t7.5 -83.5zM371 237q0 33 -4 66t-16.5 59.5t-36 43t-63.5 16.5t-64 -16.5t-37 -43t-17 -59.5t-4 -66q0 -32 4 -62t17 -52.5t37 -36t63 -13.5t63 13.5t37 36t17 52t4 62.5z" />
    <glyph glyph-name="uni10D2" unicode="&#x10d2;" horiz-adv-x="547" 
d="M256 507q44 0 77 -13t55.5 -36t33.5 -54t11 -67q0 -22 -5 -49t-15 -52q54 -31 76 -86.5t22 -122.5q0 -49 -13.5 -94.5t-42 -80.5t-73.5 -56t-108 -21q-64 0 -109 21t-73.5 56t-42 80.5t-13.5 94.5t14.5 93t44.5 76.5t76 51.5t110 19q24 0 45 -3q7 19 10.5 39.5t3.5 35.5
q0 35 -19.5 59t-67.5 24q-42 0 -88 -25.5t-84 -70.5v110q78 71 175 71zM418 27q0 25 -6 52t-21.5 50t-42 38t-67.5 15q-40 0 -69 -12t-47.5 -33t-27 -49.5t-8.5 -60.5t7.5 -62.5t25 -53.5t45 -37t67.5 -14t67.5 14t44.5 37t24.5 53t7.5 63z" />
    <glyph glyph-name="uni10D3" unicode="&#x10d3;" horiz-adv-x="804" 
d="M211 -49q-64 0 -135 -43l-36 66q23 17 50 27t63 14q-23 19 -44 42.5t-37.5 53.5t-26 67.5t-9.5 84.5t8.5 95t30.5 87t61 63.5t101 24.5q67 0 100.5 -18t50.5 -56q21 38 59.5 56t106.5 18q65 0 106.5 -24t65.5 -62t33 -87t9 -98t-9.5 -93t-33.5 -77.5t-65.5 -53.5
t-105.5 -20t-105.5 19.5t-66 53t-34 78.5t-9.5 95q0 31 -2.5 63.5t-12 59.5t-30 44t-56.5 17q-38 0 -59.5 -17.5t-32.5 -44.5t-14 -59.5t-3 -63.5q0 -63 19.5 -105.5t52 -71.5t73.5 -47.5t83.5 -34.5t83.5 -32.5t73.5 -40t52 -57.5t19.5 -86h-94q0 24 -14 45.5t-37 39.5
t-53 32.5t-61 24.5t-61.5 15.5t-54.5 5.5zM433 262q0 -32 4 -61t17 -50.5t37 -34t63 -12.5t63 12.5t37 34t17 50.5t4 61t-4 65t-17 60t-37 44t-64 17t-63.5 -17t-36 -44t-16.5 -60t-4 -65z" />
    <glyph glyph-name="uni10D4" unicode="&#x10d4;" horiz-adv-x="489" 
d="M242 -225q-96 0 -151 57.5t-55 157.5q0 32 7.5 72.5t23.5 81.5l80 -45q-9 -28 -13.5 -56.5t-4.5 -52.5q0 -60 27 -94.5t89 -34.5q22 0 41 7t33 24t21.5 46t7.5 74v307q0 55 -28.5 79t-73.5 24q-21 0 -43.5 -8t-45 -21.5t-43.5 -32.5t-40 -41v117q78 71 175 71
q39 0 74 -11.5t61.5 -35t41.5 -58t15 -80.5v-303q0 -72 -15.5 -119.5t-42.5 -75t-63 -38.5t-78 -11z" />
    <glyph glyph-name="uni10D5" unicode="&#x10d5;" horiz-adv-x="515" 
d="M220 259h49q17 0 33 3t28 11.5t19.5 23t7.5 38.5q0 26 -8 43t-22 26.5t-33.5 13.5t-41.5 4q-42 0 -89 -23t-85 -66v119q33 24 80 39.5t97 15.5t87 -14t61 -38t36 -55t12 -65q0 -31 -11.5 -61t-43.5 -54q36 -17 53.5 -49t17.5 -74v-99q0 -62 -17.5 -105t-46 -69t-66 -37.5
t-77.5 -11.5q-48 0 -89 14t-71 41.5t-47 69t-17 96.5q0 35 8.5 73t27.5 76l81 -47q-13 -28 -18.5 -53.5t-5.5 -48.5q0 -35 10 -60.5t27 -42t38.5 -24.5t45.5 -8t46 6t39 21.5t27.5 42.5t10.5 68v96q0 13 -5 27t-16 25t-27.5 18.5t-39.5 7.5h-65v86z" />
    <glyph glyph-name="uni10D6" unicode="&#x10d6;" horiz-adv-x="687" 
d="M36 496q0 56 17 96.5t44.5 67t62 39.5t69.5 13q32 0 62.5 -10.5t54.5 -30t38.5 -49t14.5 -66.5q0 -23 -5 -51q10 2 20.5 3.5t22.5 1.5q64 0 105.5 -22.5t65.5 -59.5t33.5 -84.5t9.5 -96.5t-9.5 -96t-33.5 -83.5t-65.5 -58.5t-105.5 -22t-105 22t-65 58.5t-33.5 83.5
t-9.5 96q0 26 6 49q-21 -6 -40 -6q-31 0 -59 13.5t-49 39.5t-33.5 64.5t-12.5 88.5zM558 247q0 32 -3.5 63.5t-15.5 57t-34.5 41.5t-60.5 16q-35 0 -59.5 -15t-39.5 -40t-22 -57t-7 -66q0 -32 4.5 -63.5t17 -56t36.5 -39.5t63 -15q40 0 63.5 15t36.5 39.5t17 55.5t4 64z
M303 522q0 35 -7 55.5t-18.5 31.5t-26.5 14.5t-31 3.5q-17 0 -33.5 -6t-29 -20.5t-20.5 -40t-8 -64.5q0 -24 2.5 -46t11 -38.5t24.5 -26.5t43 -10q28 0 46 13.5t28.5 35t14.5 47.5t4 51z" />
    <glyph glyph-name="uni10D7" unicode="&#x10d7;" horiz-adv-x="820" 
d="M691 247q0 33 -3 64t-14 56t-33.5 40t-62.5 15q-39 0 -61.5 -17.5t-33.5 -45.5t-14.5 -62.5t-4.5 -68.5q-2 -46 -12.5 -89.5t-35.5 -77t-65.5 -54t-100.5 -20.5q-64 0 -105.5 22t-65.5 58.5t-33.5 83.5t-9.5 96t9 96t33 83.5t65.5 58.5t106.5 22q67 0 106 -25t59 -65
q18 41 56 65.5t108 24.5q64 0 104 -22t62.5 -58.5t30.5 -83.5t8 -96q0 -48 -9.5 -93t-33.5 -81t-64 -59.5t-101 -26.5l-22 86q45 0 72 15t41.5 39.5t19 55.5t4.5 64zM371 247q0 33 -4 64t-17 56t-36.5 40t-63.5 15t-64 -15t-36.5 -40t-16.5 -56t-4 -64q0 -32 4 -63.5t17 -56
t37 -39.5t63 -15t63 15t37 39.5t17 55.5t4 64z" />
    <glyph glyph-name="uni10D8" unicode="&#x10d8;" horiz-adv-x="515" 
d="M387 247q0 33 -5 64.5t-19.5 57t-39.5 41t-65 15.5t-65 -15.5t-39.5 -41t-19.5 -57t-5 -64.5q0 -49 16 -93.5t55 -70.5l-44 -75q-32 18 -54.5 44.5t-37 58t-21.5 66t-7 70.5q0 49 10.5 96.5t36 84.5t68.5 59.5t107 22.5t106.5 -22.5t68 -59.5t36 -84.5t10.5 -96.5
q0 -36 -6.5 -71t-21 -66.5t-37.5 -57.5t-56 -44l-41 76q38 26 54 70.5t16 92.5z" />
    <glyph glyph-name="uni10D9" unicode="&#x10d9;" horiz-adv-x="511" 
d="M220 242h57q17 0 33 3t28 11.5t19.5 23.5t7.5 39q0 27 -9 47.5t-24.5 33.5t-36 19.5t-43.5 6.5h-15v85q43 0 83 -11.5t71 -35t49.5 -59t18.5 -83.5q0 -49 -19 -77.5t-48 -43.5q44 -18 63.5 -47.5t19.5 -72.5v-83q0 -62 -18 -105t-47.5 -69t-67.5 -37.5t-78 -11.5
q-48 0 -89.5 12.5t-72 39t-48.5 66.5t-18 95q0 36 9.5 75.5t28.5 78.5l81 -47q-14 -28 -20 -55.5t-6 -51.5q0 -35 10.5 -59t28 -39t40 -22t46.5 -7t46.5 7t40.5 23.5t29 42.5t11 65v82q0 13 -5 26.5t-16 24t-27.5 17.5t-39.5 7h-73v86z" />
    <glyph glyph-name="uni10DA" unicode="&#x10da;" horiz-adv-x="499" 
d="M129 43q0 -38 14.5 -70t39.5 -56t58.5 -37.5t71.5 -13.5h104v-78h-103q-58 0 -108.5 19.5t-88 55t-59.5 84t-22 106.5v240q0 44 16.5 83t45.5 68t68 46t83 17t83 -17t68 -46t46 -68t17 -83v-242h-93v251q0 25 -9.5 46.5t-26 38t-38 26t-46.5 9.5t-47 -9.5t-38.5 -26
t-26 -38t-9.5 -46.5v-259z" />
    <glyph glyph-name="uni10DB" unicode="&#x10db;" horiz-adv-x="512" 
d="M464 247q0 -49 -9.5 -96t-33.5 -83.5t-65.5 -58.5t-105.5 -22t-105.5 22t-65.5 58.5t-33.5 83.5t-9.5 96t9 96t32.5 83.5t64.5 58.5t106 22q46 0 74 -10.5t49 -31.5v60q0 27 -8.5 46.5t-23.5 31.5t-34.5 17.5t-41.5 5.5q-23 0 -48.5 -7.5t-50 -21t-46.5 -32t-38 -40.5
v117q40 35 88 52.5t95 17.5q39 0 75.5 -11.5t64 -35t44.5 -58t17 -80.5v-280zM371 247q0 33 -4 64t-17 56t-36.5 40t-63.5 15t-64 -15t-36.5 -40t-16.5 -56t-4 -64q0 -32 4 -63.5t17 -56t37 -39.5t63 -15t63 15t37 39.5t17 55.5t4 64z" />
    <glyph glyph-name="uni10DC" unicode="&#x10dc;" horiz-adv-x="512" 
d="M48 527q0 46 17 79.5t44.5 55t64 32t75.5 10.5h184v-78h-181q-45 0 -78 -28.5t-33 -82.5v-50q20 20 50.5 31t73.5 11q64 0 105.5 -22.5t64.5 -59.5t32 -84.5t9 -96.5t-9.5 -95.5t-33.5 -82.5t-65.5 -57.5t-105.5 -21.5t-105.5 22t-65.5 58.5t-33.5 83.5t-9.5 96v280z
M141 244q0 -33 4 -63.5t16.5 -54.5t36.5 -38.5t64 -14.5q39 0 63 14.5t36.5 38.5t17 55t4.5 63q0 33 -4 64.5t-17 57t-37 41t-63 15.5q-40 0 -64 -15.5t-36.5 -41t-16.5 -57t-4 -64.5z" />
    <glyph glyph-name="uni10DD" unicode="&#x10dd;" horiz-adv-x="803" 
d="M355 274q0 31 -4.5 58t-17 47t-34.5 31.5t-57 11.5q-40 0 -62.5 -15t-34 -40t-14 -56t-2.5 -64t4.5 -64t19 -55.5t41.5 -39.5t72 -15l-22 -87q-62 3 -102 26.5t-63.5 59.5t-33 81.5t-9.5 93.5q0 49 8 96t30.5 83.5t62.5 58.5t104 22q66 0 103 -23t57 -63q20 39 57 62.5
t104 23.5q64 0 104 -22t62.5 -58.5t30.5 -83.5t8 -96q0 -48 -9.5 -93.5t-33 -81.5t-64 -59.5t-101.5 -26.5l-21 87q44 0 71 15t41.5 39.5t19 55.5t4.5 64t-2.5 64t-14 56t-34 40t-62.5 15q-35 0 -57 -11.5t-34.5 -31.5t-17 -47t-4.5 -58v-105h-93v105z" />
    <glyph glyph-name="uni10DE" unicode="&#x10de;" horiz-adv-x="503" 
d="M212 418h73q32 0 49 18t17 58q0 29 -16.5 44t-41.5 23t-54 13.5t-54 16.5t-41.5 31.5t-16.5 58.5v31h91v-24q0 -13 17 -19.5t42 -12.5t55 -14.5t55 -25.5t42 -46t17 -75q0 -47 -12 -74.5t-37 -42.5q35 -15 52.5 -45.5t17.5 -68.5v-50q0 -72 -18.5 -116t-48.5 -69
t-69.5 -33.5t-81.5 -8.5q-53 0 -93 18.5t-66.5 48.5t-40 69.5t-13.5 81.5q0 40 9 74.5t25 72.5l80 -46q-8 -26 -14.5 -50.5t-6.5 -50.5q0 -62 29.5 -97t100.5 -35q35 0 57.5 10.5t35 29t17.5 44.5t5 57v41q0 13 -6 27t-18.5 25.5t-32.5 19t-48 7.5h-57v84z" />
    <glyph glyph-name="uni10DF" unicode="&#x10df;" horiz-adv-x="644" 
d="M127 248q0 -59 29 -89t68 -30q52 0 76 32t24 83q0 54 -39 125l-86 -16v89l313 57h84v-494q0 -55 -17 -98t-46.5 -72t-70 -44.5t-87.5 -15.5q-51 0 -103 16.5t-114 51.5l44 81q28 -15 49 -27t39.5 -20t36.5 -12t41 -4q58 0 96.5 33t38.5 103v413l-122 -23q36 -87 36 -152
q0 -47 -14.5 -82.5t-40 -59.5t-61 -36.5t-78.5 -12.5q-37 0 -70.5 13t-59.5 39t-41.5 65t-15.5 90q0 25 7.5 51.5t19.5 53.5l79 -44q-7 -17 -11 -33.5t-4 -30.5z" />
    <glyph glyph-name="uni10E0" unicode="&#x10e0;" horiz-adv-x="803" 
d="M355 273q0 30 -3.5 57.5t-14.5 47.5t-32 32t-55 12q-40 0 -64 -17.5t-36.5 -45.5t-16.5 -61.5t-4 -66.5q0 -20 4.5 -47t19 -51.5t41.5 -42t72 -17.5l-22 -86q-62 3 -102 28t-63.5 63t-33 86t-9.5 98v40q0 98 19 166.5t51 113t74.5 69t89.5 36.5t96 14.5t93 2.5h70v-78
h-78q-53 0 -104.5 -7.5t-94.5 -26t-74 -50.5t-43 -81q22 21 50 33.5t64 12.5q66 0 100 -24t52 -62q20 39 57 62.5t104 23.5q64 0 104 -19.5t62.5 -53.5t30.5 -78.5t8 -93.5q0 -48 -9.5 -95.5t-33 -86.5t-64 -64.5t-101.5 -28.5l-21 86q44 0 71 17.5t41.5 44.5t19 60.5
t4.5 66.5q0 32 -2.5 61t-14 51t-34 35t-62.5 13q-35 0 -57 -12t-34.5 -32t-17 -47.5t-4.5 -57.5v-104h-93v104z" />
    <glyph glyph-name="uni10E1" unicode="&#x10e1;" horiz-adv-x="495" 
d="M253 -13q-100 0 -152.5 62t-52.5 175v481h94v-481q0 -78 31 -114.5t78 -36.5q30 0 52 11.5t36 31.5t20.5 46.5t6.5 56.5q0 28 -7.5 60.5t-20.5 65t-31 64t-39 58.5l83 48q24 -35 43.5 -73.5t34 -76t22.5 -73.5t8 -66q0 -62 -17.5 -107.5t-46.5 -74.5t-66 -43t-76 -14z
" />
    <glyph glyph-name="uni10E2" unicode="&#x10e2;" horiz-adv-x="713" 
d="M358 205v-218h-93v387q0 39 14 70t37.5 52.5t55.5 32.5t68 11t68.5 -11t56.5 -32.5t38 -52.5t14 -70q0 -38 -20.5 -70t-51.5 -52q47 -20 73.5 -45.5t39.5 -53t16 -56t3 -53.5q0 -56 -19.5 -105t-57 -85.5t-93 -57.5t-128.5 -21q-88 0 -152.5 28t-107 78t-63 118.5
t-20.5 150.5q0 79 21.5 167t66.5 181l87 -45q-41 -86 -61.5 -168.5t-20.5 -152.5q0 -60 14.5 -110t45 -86t77 -56t109.5 -20q46 0 84 15t66 41t43.5 61t15.5 74q0 24 -10.5 51t-30.5 50t-49 38t-67 15h-69zM358 290h73q18 0 35 4t30.5 13.5t22 26t8.5 40.5q0 38 -25.5 62
t-61.5 24q-35 0 -58.5 -24t-23.5 -62v-84z" />
    <glyph glyph-name="uni10E3" unicode="&#x10e3;" horiz-adv-x="594" 
d="M546 -11q0 -48 -17.5 -87t-47.5 -67.5t-71 -44t-88 -15.5t-88 15.5t-72 44t-48.5 67.5t-17.5 87q0 18 4 39t10.5 42t15.5 40.5t19 34.5l82 -48q-19 -28 -28 -60.5t-9 -56.5q0 -27 10.5 -49.5t28.5 -38t42 -24t51 -8.5t51 8.5t41.5 24t28 38t10.5 49.5v374
q0 29 -20.5 48.5t-49.5 19.5t-49 -18.5t-20 -47.5v-139h-93v136q0 35 -18.5 52t-41.5 17h-125v85h134q36 0 62 -11t40 -43q17 29 44.5 41.5t70.5 12.5q34 0 63 -12.5t50.5 -34.5t33.5 -51.5t12 -63.5v-356z" />
    <glyph glyph-name="uni10E4" unicode="&#x10e4;" horiz-adv-x="797" 
d="M668 293q0 64 -29.5 96.5t-68.5 32.5q-20 0 -39 -8.5t-34 -25t-24 -41t-9 -57.5v-43q0 -54 -11 -101t-36 -82.5t-66 -56t-102 -20.5q-64 0 -105 22t-65 58.5t-33.5 83.5t-9.5 96t9 96t33 83.5t65 58.5t106 22q68 0 107 -24.5t59 -65.5q25 48 68 69t95 21q36 0 69 -13.5
t58.5 -40.5t40.5 -67t15 -93q0 -61 -15 -102t-60 -64q28 -16 51.5 -41.5t23.5 -58.5v-61q0 -51 -21 -86.5t-55.5 -57t-79 -31t-91.5 -9.5q-63 0 -125 18.5t-109 53.5l51 68q14 -11 34.5 -21t44 -17.5t48.5 -12t48 -4.5q31 0 60 4t51.5 15.5t36.5 31t14 51.5v42q0 14 -7.5 27
t-20 22.5t-28.5 15.5t-34 6h-54v83h55q27 0 44.5 9t27 25.5t13.5 40t4 53.5zM370 247q0 33 -3.5 64.5t-16 56t-36.5 40t-64 15.5q-39 0 -63 -15.5t-37 -40t-17.5 -56t-4.5 -64.5q0 -32 4.5 -63.5t17 -56t36.5 -39.5t63 -15q40 0 63.5 15t36.5 39.5t17 55.5t4 64z" />
    <glyph glyph-name="uni10E5" unicode="&#x10e5;" horiz-adv-x="489" 
d="M348 705h93v-693q0 -75 -15.5 -121t-42.5 -72t-63 -35t-78 -9q-48 0 -86 17t-64.5 48t-41 73.5t-14.5 92.5q0 32 7 66.5t22 69.5l79 -45q-15 -44 -15 -91q0 -30 6.5 -56.5t21 -46t36.5 -31t53 -11.5q22 0 41 6.5t32.5 23.5t21 46t7.5 75v307q0 55 -28.5 79t-73.5 24
q-42 0 -80.5 -25.5t-76.5 -70.5v110q40 36 76 53.5t84 17.5q54 0 99 -31v229z" />
    <glyph glyph-name="uni10E6" unicode="&#x10e6;" horiz-adv-x="803" 
d="M355 273q0 29 -4.5 56t-17 47.5t-34.5 33t-57 12.5q-38 0 -60 -13.5t-34 -35.5t-15.5 -50.5t-3.5 -59.5q0 -63 19.5 -105.5t52 -71.5t73.5 -47.5t83.5 -34.5t83.5 -32.5t73.5 -40t52 -57.5t19.5 -86h-94q0 24 -14 45.5t-37 39.5t-53 32.5t-61 24.5t-61.5 15.5t-54.5 5.5
q-64 0 -135 -43l-36 66q23 17 49.5 29.5t55.5 17.5q-22 18 -41.5 39t-34.5 48.5t-24 61.5t-9 77q0 49 8 96t30.5 83.5t62.5 58.5t104 22q66 0 103 -23t57 -63q20 39 57 62.5t104 23.5q64 0 104 -22t62.5 -58.5t30.5 -83.5t8 -96q0 -48 -9.5 -93t-33 -81t-64 -59.5
t-101.5 -26.5l-21 86q44 0 71 15t41.5 39.5t19 55.5t4.5 64t-2.5 64t-14 56t-34 40t-62.5 15q-35 0 -57 -12.5t-34.5 -33t-17 -47.5t-4.5 -56v-119h-93v119z" />
    <glyph glyph-name="uni10E7" unicode="&#x10e7;" horiz-adv-x="511" 
d="M463 -40q0 -46 -16.5 -80.5t-44.5 -58t-64 -35t-75 -11.5q-47 0 -95 17.5t-88 53.5v113q19 -23 41.5 -41t46.5 -30.5t47.5 -19.5t44.5 -7q45 0 78 25t33 80v63q-20 -19 -49.5 -30.5t-71.5 -11.5q-65 0 -106.5 22t-65.5 59t-33 83.5t-9 96.5q0 42 7.5 84t26.5 77.5t50 62
t79 38.5l22 -84q-29 -8 -47 -26.5t-28 -43t-13.5 -53t-3.5 -55.5q0 -33 4 -64t16.5 -56t36 -40t62.5 -15q40 0 64.5 15t37.5 40t17 56t4 64v246h92v-534z" />
    <glyph glyph-name="uni10E8" unicode="&#x10e8;" horiz-adv-x="534" 
d="M161 583q0 27 -12.5 35t-35.5 8h-97v86h99q37 0 58.5 -11t36.5 -44q20 34 52.5 44t66.5 10q29 0 57.5 -10t50.5 -29.5t35.5 -47t13.5 -61.5v-324q0 -63 -19 -110.5t-49.5 -79t-70 -47t-80.5 -15.5t-80 15.5t-70 47t-49.5 78.5t-18.5 110q0 59 17.5 105.5t47 79t67 50
t78.5 17.5q35 0 70.5 -11.5t63.5 -43.5v135q0 29 -22.5 42.5t-48.5 13.5t-47 -9.5t-21 -34.5v-49h-93v50zM393 238q0 40 -10 71t-27 52.5t-39.5 32.5t-48.5 11t-48.5 -11t-40 -32.5t-27.5 -52.5t-10 -71q0 -80 31.5 -122.5t94.5 -42.5t94 42.5t31 122.5z" />
    <glyph glyph-name="uni10E9" unicode="&#x10e9;" horiz-adv-x="519" 
d="M48 528q0 46 17 80.5t45 57.5t64.5 34.5t75.5 11.5q48 0 84 -10.5t61 -28.5t37.5 -42.5t12.5 -52.5q0 -19 -5 -38t-17.5 -36t-34 -32.5t-54.5 -27.5l-64 67q27 6 43.5 13t25 15.5t11.5 17t3 17.5q0 23 -25 37.5t-77 14.5q-22 0 -42 -5t-35 -17t-24 -31t-9 -46v-134
q31 26 67 38t68 12q40 0 78 -15.5t66.5 -44.5t46 -71t17.5 -96q0 -30 -8 -63t-22.5 -65.5t-33.5 -61.5t-40 -52l-64 63q13 15 26.5 37t24.5 46t17.5 49t6.5 46q0 37 -10.5 64t-28 44.5t-39.5 26t-45 8.5t-45.5 -7.5t-40.5 -21t-29.5 -33.5t-11.5 -45v-251h-93v528z" />
    <glyph glyph-name="uni10EA" unicode="&#x10ea;" horiz-adv-x="679" 
d="M346 215h102q39 0 63 19.5t24 45.5t-14 40.5t-35 23.5t-46 16t-46 18.5t-35 30.5t-14 52v33h90v-28q0 -11 14.5 -18t35.5 -14.5t46.5 -17t46.5 -26t35.5 -41t14.5 -60.5q0 -34 -17 -69.5t-58 -54.5q49 -25 69.5 -58.5t20.5 -90.5q0 -59 -23 -104t-61 -75.5t-88 -46
t-104 -15.5q-65 0 -125 22.5t-105.5 69.5t-73 119.5t-27.5 172.5q0 84 33.5 175t91.5 176l85 -47q-27 -36 -48.5 -76t-36.5 -82t-23.5 -83.5t-8.5 -79.5q0 -73 19.5 -126t52.5 -87.5t76.5 -51.5t90.5 -17q36 0 69 9.5t58 28.5t40 47.5t15 65.5q0 24 -8 45.5t-24 38
t-41.5 26.5t-59.5 10h-71v84z" />
    <glyph glyph-name="uni10EB" unicode="&#x10eb;" horiz-adv-x="512" 
d="M464 247q0 -49 -9.5 -96t-33.5 -83.5t-65.5 -58.5t-105.5 -22t-105.5 22t-65.5 58.5t-33.5 83.5t-9.5 96t9 96t33 83.5t65.5 58.5t106.5 22q41 0 71 -14.5t50 -37.5v86q0 32 -15 55.5t-39 37.5l23 83q54 -22 89 -65t35 -108v-297zM371 247q0 33 -4 64t-17 56t-36.5 40
t-63.5 15t-64 -15t-36.5 -40t-16.5 -56t-4 -64q0 -32 4 -63.5t17 -56t37 -39.5t63 -15t63 15t37 39.5t17 55.5t4 64z" />
    <glyph glyph-name="uni10EC" unicode="&#x10ec;" horiz-adv-x="535" 
d="M373 520h-92v57q0 25 -21 37.5t-47 12.5q-27 0 -49.5 -13.5t-22.5 -42.5v-136q26 27 60 41t70 14q103 0 158.5 -61.5t55.5 -190.5t-58 -190t-161 -61t-160.5 61t-57.5 190v326q0 34 13.5 61.5t36 47t50.5 29.5t57 10q32 0 63 -11t53 -40q15 32 41 41.5t57 9.5h100v-85
h-106q-14 0 -27 -6.5t-13 -29.5v-71zM141 238q0 -80 31 -122.5t94 -42.5t94.5 42.5t31.5 122.5q0 40 -10 71t-27 52.5t-40 32.5t-49 11t-48.5 -11t-39.5 -32.5t-27 -52.5t-10 -71z" />
    <glyph glyph-name="uni10ED" unicode="&#x10ed;" horiz-adv-x="594" 
d="M250 102q-52 0 -91 15.5t-64.5 42t-38 61.5t-12.5 75t13 76t38.5 63.5t64.5 43.5t90 16h113v209h93v-209h101v-86h-101v-418q0 -47 -19.5 -86.5t-52.5 -68.5t-77 -45t-93 -16q-29 0 -52 4.5t-43.5 13.5t-40.5 23t-42 34l62 63q28 -26 52 -39t62 -13q31 0 59 10.5t48 29
t32 43t12 52.5v137q-9 -7 -24 -13t-31 -10t-32 -6t-26 -2zM136 295q0 -45 28.5 -76.5t85.5 -31.5q10 0 26 3t32.5 7.5t31 11t23.5 12.5v188h-95q-66 0 -99 -32.5t-33 -81.5z" />
    <glyph glyph-name="uni10EE" unicode="&#x10ee;" horiz-adv-x="512" 
d="M48 704h93v-240q20 20 49 31.5t72 11.5q64 0 105.5 -22.5t65.5 -59t33.5 -83.5t9.5 -96t-9.5 -95.5t-33.5 -83t-65.5 -58.5t-105.5 -22t-105.5 22t-65.5 58.5t-33.5 83t-9.5 95.5v458zM141 246q0 -33 4 -64t16.5 -55t36.5 -39t64 -15q39 0 63 15t36.5 39.5t17 55.5
t4.5 63q0 33 -4 64.5t-17 56t-37 40t-63 15.5q-40 0 -64 -15.5t-36.5 -40t-16.5 -56t-4 -64.5z" />
    <glyph glyph-name="uni10EF" unicode="&#x10ef;" horiz-adv-x="502" 
d="M82 422h129v147h94v-147h129v-85h-129v-78q0 -29 22 -52t61 -55q42 -35 60 -77t18 -85q0 -40 -15 -77.5t-41 -66.5t-60.5 -46.5t-72.5 -17.5q-60 0 -105 16.5t-75 46t-45.5 71t-15.5 91.5q0 26 5 63t19 77l84 -49q-8 -27 -11.5 -50.5t-3.5 -40.5q0 -29 7 -54t23 -44.5
t40 -30.5t59 -11q29 0 50.5 10.5t36 27t21.5 38t7 44.5q0 32 -12 54.5t-30 41t-39 34.5t-39 35t-30 42.5t-12 57.5v85h-129v85z" />
    <glyph glyph-name="uni10F0" unicode="&#x10f0;" horiz-adv-x="499" 
d="M126 619l-21 85h193q28 0 52.5 -10.5t43 -27.5t29 -40.5t10.5 -48.5q0 -23 -12 -45t-31 -37q21 -14 32 -36.5t11 -44.5q0 -23 -11 -45t-32 -36q23 -15 42 -47t19 -91q0 -53 -10.5 -92t-34.5 -64.5t-62.5 -38.5t-94.5 -13q-104 0 -158.5 54.5t-54.5 163.5q0 25 3.5 49
t11.5 50l90 -24q-5 -21 -8.5 -40t-3.5 -35q0 -72 29.5 -102t100.5 -30q34 0 54 10t29.5 28t12 43t2.5 56q0 22 -5.5 37.5t-14 25.5t-18 14t-17.5 4h-96v84h96q15 0 26 12t11 27q0 16 -11 28t-26 12h-96v84h96q15 0 26 11.5t11 27.5t-12 29t-29 13h-172z" />
    <glyph glyph-name="uni10F1" unicode="&#x10f1;" horiz-adv-x="668" 
d="M84 415q1 27 5.5 60t12.5 66t20.5 64.5t30.5 55.5t43 38.5t57 14.5q43 0 74.5 -29t31.5 -86q0 -43 -16 -79t-43 -65t-61.5 -51.5t-70.5 -37.5v-5q0 -51 9.5 -102.5t34.5 -93t66.5 -67t106.5 -25.5q72 0 117 23.5t45 68.5q0 24 -11.5 41t-32 28.5t-49 18.5t-61.5 12v85
q38 -9 59 -13t30 -4q18 0 34 8.5t16 31.5q0 29 -38 46.5t-101 32.5v83q64 -21 96 -21q14 0 22.5 9t8.5 23q0 17 -8 28t-28 24l-91 56v96l126 -79q41 -26 64 -59t23 -67q0 -52 -33 -81q23 -20 33.5 -44.5t10.5 -46.5q0 -24 -11.5 -47.5t-29.5 -40.5q26 -21 41 -52t15 -69
q0 -40 -18.5 -72.5t-51.5 -56t-78.5 -36t-98.5 -12.5q-85 0 -141.5 31t-91.5 80.5t-50.5 111t-18.5 121.5l-47 -19v83zM251 635q-14 0 -27 -14t-23.5 -39t-18 -58t-10.5 -72q50 29 76 67t26 83q0 33 -23 33z" />
    <glyph glyph-name="uni10F2" unicode="&#x10f2;" horiz-adv-x="417" 
d="M381 -18q-29 3 -52.5 6.5t-44 8t-39 11t-38.5 14.5q-38 -14 -80.5 -25t-90.5 -16v82q25 1 45.5 3t38.5 7q-32 22 -55 56.5t-23 91.5q0 36 11.5 67t33.5 53t52.5 34.5t68.5 12.5t69 -12.5t52.5 -34.5t33 -53t11.5 -67q0 -54 -22.5 -89t-54.5 -57q21 -5 42.5 -9t41.5 -5
v-79zM128 223q0 -72 80 -113q81 40 81 113q0 37 -20.5 61.5t-60.5 24.5q-39 0 -59.5 -24.5t-20.5 -61.5zM205 108v-23q1 0 1.5 0.5t1.5 0.5q2 0 2.5 -0.5t1.5 -0.5v23h-7z" />
    <glyph glyph-name="uni10F3" unicode="&#x10f3;" horiz-adv-x="440" 
d="M269 156q42 -1 68.5 -19t41.5 -46t20 -64t5 -73q0 -50 -5.5 -94.5t-25 -77.5t-57.5 -52.5t-102 -19.5q-45 0 -78.5 13t-55.5 36t-33 54t-11 68q0 91 78 156l52 -49q-44 -46 -44 -103q0 -44 28.5 -69.5t69.5 -25.5q32 0 51.5 11.5t30 32.5t14 51.5t3.5 68.5q0 126 -70 126
q-12 0 -27 -7t-29 -24l-51 47l116 196h-183v80h322z" />
    <glyph glyph-name="uni10F4" unicode="&#x10f4;" horiz-adv-x="444" 
d="M145 122q33 0 62 7t50.5 20.5t34 32.5t12.5 43q0 27 -21.5 48.5t-45.5 36.5q-82 45 -128.5 101t-46.5 135q0 36 9.5 70t29 60.5t48 42t67.5 15.5q31 0 58 -9.5t46 -26t30 -40t11 -51.5q0 -18 -6 -36.5t-17.5 -36t-27.5 -33t-37 -26.5l-49 51q51 31 51 78q0 27 -17.5 38.5
t-38.5 11.5q-27 0 -49.5 -26t-22.5 -74q0 -30 8 -52t23 -39t35.5 -31t44.5 -29q30 -18 54.5 -36t42 -37.5t26.5 -43.5t9 -54q0 -35 -16.5 -73.5t-64.5 -66.5q48 -22 73.5 -68t25.5 -106q0 -44 -13.5 -82t-38.5 -66t-60.5 -44t-80.5 -16q-44 0 -77 13.5t-56 36t-34.5 52
t-11.5 62.5q0 61 54 115l51 -39q-19 -38 -19 -70q0 -18 6 -34t18 -28.5t29 -20t38 -7.5q28 0 48.5 10.5t34 28t20 40.5t6.5 48q0 52 -32.5 88t-108.5 36q-1 0 -2 -0.5t-3 -0.5h-31v82z" />
    <glyph glyph-name="uni10F5" unicode="&#x10f5;" horiz-adv-x="523" 
d="M292 369h-71q-42 0 -76.5 13t-58.5 36.5t-37 56t-13 72.5q0 41 13 73t37 53.5t56.5 33t71.5 11.5q73 0 117 -44t44 -119v-106h112v-80h-112v-37h112v-79h-112v-108q0 -38 -12 -68t-33 -51t-50.5 -32t-65.5 -11q-79 0 -128.5 45t-49.5 126q0 39 13 71.5t37 56.5t58 37
t77 13h71v37zM234 253q-18 0 -38 -3.5t-36.5 -14t-27 -30t-10.5 -52.5q0 -42 25 -66t67 -24q25 0 40.5 8t23.5 21t11 27.5t3 28.5v105h-58zM292 553q0 13 -3 28t-11 27.5t-23.5 21t-40.5 8.5t-42.5 -7.5t-28.5 -20t-16 -28.5t-5 -34q0 -32 10.5 -51.5t27 -30t36.5 -14
t38 -3.5h58v104z" />
    <glyph glyph-name="uni10F6" unicode="&#x10f6;" horiz-adv-x="660" 
d="M289 562q0 92 -55 92q-26 0 -42 -27t-16 -73h-78q0 45 11.5 78.5t31 56t44.5 34t52 11.5q24 0 48 -7t43 -26.5t31 -53t12 -85.5v-202q36 28 84 28q38 0 69.5 -16.5t53.5 -44.5t34 -64.5t12 -76.5q0 -46 -14 -83.5t-37.5 -64t-54 -41t-63.5 -14.5q-22 0 -44.5 8t-39.5 22
v-131q0 -92 55 -92q25 0 41 27t16 74h80q0 -44 -11.5 -77.5t-31 -56.5t-45 -35t-53.5 -12q-25 0 -49 7t-42.5 26.5t-30 52.5t-11.5 86v130q-17 -14 -38.5 -21.5t-44.5 -7.5q-35 0 -66 15t-54 42t-36.5 64t-13.5 82q0 43 13 80t35.5 64t53.5 42.5t68 15.5q48 0 83 -26v200z
M206 63q15 0 30 8t26.5 24t19 39t7.5 52q0 54 -24 88.5t-59 34.5q-20 0 -35.5 -10.5t-26.5 -28t-16.5 -39.5t-5.5 -45q0 -24 6 -46.5t17 -39.5t26.5 -27t34.5 -10zM455 63q19 0 34.5 10.5t26 28t16.5 39.5t6 45t-5.5 45t-16.5 39.5t-26.5 28t-34.5 10.5q-18 0 -33.5 -9
t-26.5 -25.5t-17.5 -39t-6.5 -49.5q0 -29 7.5 -52t19.5 -38.5t27 -24t30 -8.5z" />
    <glyph glyph-name="uni10F7" unicode="&#x10f7;" horiz-adv-x="451" 
d="M153 129q-69 51 -69 127q0 29 11 53.5t30 42t43.5 27t51.5 9.5t53.5 -7.5t47.5 -24.5t34 -44.5t13 -66.5q0 -41 -10 -70.5t-29 -52t-45 -40.5t-57 -37q-21 -13 -40.5 -26.5t-33.5 -30.5t-22.5 -39t-8.5 -52q0 -21 6 -40.5t19.5 -34.5t34 -23.5t49.5 -8.5q46 0 72 25
t26 70q0 29 -10.5 54t-34.5 49l51 47q38 -29 59 -68t21 -76q0 -46 -15 -80t-40.5 -56.5t-59.5 -33.5t-71 -11q-49 0 -85.5 15t-60.5 41t-35.5 59.5t-11.5 71.5q0 54 18.5 91t45.5 63.5t59.5 46t59.5 40t45.5 45t18.5 60.5q0 9 -3 20.5t-9.5 21.5t-18 17t-28.5 7
q-27 0 -41.5 -18.5t-14.5 -41.5q0 -34 32 -73z" />
    <glyph glyph-name="uni10F8" unicode="&#x10f8;" horiz-adv-x="444" 
d="M119 388v-64q0 -38 7.5 -64t19.5 -41.5t28 -22t34 -6.5q42 0 62.5 25.5t20.5 60.5q0 18 -7.5 41t-24.5 53l71 32q23 -41 35 -74t12 -62q0 -38 -14 -67t-37 -48.5t-53.5 -30t-63.5 -10.5q-52 0 -90 28v-233q0 -115 102 -115q49 0 75.5 28.5t26.5 67.5q0 28 -14 52.5
t-41 48.5l50 53q90 -59 90 -163q0 -40 -15 -71t-41 -52.5t-60 -32.5t-71 -11q-185 0 -185 196v482h83z" />
    <glyph glyph-name="uni10F9" unicode="&#x10f9;" 
 />
    <glyph glyph-name="uni10FA" unicode="&#x10fa;" 
 />
    <glyph glyph-name="uni10FB" unicode="&#x10fb;" horiz-adv-x="418" 
d="M232 228q0 26 18.5 44.5t44.5 18.5t44.5 -18.5t18.5 -44.5t-18.5 -44.5t-44.5 -18.5t-44.5 18.5t-18.5 44.5zM54 50q0 26 18.5 44.5t44.5 18.5t44 -18.5t18 -44.5t-18 -44.5t-44 -18.5t-44.5 18.5t-18.5 44.5zM54 406q0 26 18.5 44.5t44.5 18.5t44 -18.5t18 -44.5
t-18 -44t-44 -18t-44.5 18t-18.5 44z" />
    <glyph glyph-name="uni10FC" unicode="&#x10fc;" 
 />
    <glyph glyph-name="uni10FD" unicode="&#x10fd;" 
 />
    <glyph glyph-name="uni10FE" unicode="&#x10fe;" 
 />
    <glyph glyph-name="uni10FF" unicode="&#x10ff;" 
 />
    <glyph glyph-name="uni1C90" unicode="&#x1c90;" horiz-adv-x="491" 
d="M124 243q0 -81 28.5 -125.5t88.5 -44.5t89 44.5t29 125.5q0 51 -15.5 90.5t-39.5 71t-51 59.5t-51 56.5t-39.5 61t-15.5 74.5v49h93v-41q0 -35 15.5 -63t39.5 -54.5t51 -54.5t51 -63t39.5 -80.5t15.5 -105.5q0 -59 -15 -106.5t-42.5 -80.5t-66.5 -51t-87 -18
q-101 0 -155.5 69t-54.5 187q0 32 8.5 63t19.5 61h100q-17 -30 -26 -61.5t-9 -62.5z" />
    <glyph glyph-name="uni1C91" unicode="&#x1c91;" horiz-adv-x="500" 
d="M464 237q0 -49 -9.5 -94.5t-33.5 -80t-65.5 -55t-105.5 -20.5t-105.5 20.5t-65.5 55t-33.5 80t-9.5 94.5q0 46 7.5 92.5t28 84.5t57 63.5t93.5 30.5v89h-19q-29 0 -51 2t-37.5 9t-23.5 21.5t-8 40.5v42h92v-24q0 -8 4.5 -13t21.5 -5h186l45 -73h-118v-95q42 -13 71 -40.5
t46.5 -63.5t25 -77.5t7.5 -83.5zM371 237q0 33 -4 66t-16.5 59.5t-36 43t-63.5 16.5t-64 -16.5t-37 -43t-17 -59.5t-4 -66q0 -32 4 -62t17 -52.5t37 -36t63 -13.5t63 13.5t37 36t17 52t4 62.5z" />
    <glyph glyph-name="uni1C92" unicode="&#x1c92;" horiz-adv-x="547" 
d="M256 712q44 0 77 -13t55.5 -36t33.5 -54t11 -67q0 -43 -20 -94q54 -31 76 -86.5t22 -122.5q0 -49 -13.5 -94.5t-42 -80.5t-73.5 -56t-108 -21q-64 0 -109 21t-73.5 56t-42 80.5t-13.5 94.5t14.5 93t44.5 76.5t76 51.5t110 19q24 0 45 -3q14 39 14 68q0 35 -19.5 59
t-67.5 24q-42 0 -88 -25.5t-84 -70.5v110q78 71 175 71zM418 239q0 25 -6 52t-21.5 50t-42 38t-67.5 15q-40 0 -69 -12t-47.5 -33t-27 -49.5t-8.5 -60.5t7.5 -62.5t25 -53.5t45 -37t67.5 -14t67.5 14t44.5 37t24.5 53t7.5 63z" />
    <glyph glyph-name="uni1C93" unicode="&#x1c93;" horiz-adv-x="804" 
d="M211 163q-64 0 -135 -43l-36 66q23 17 50 27t63 14q-23 19 -44 40.5t-37.5 49t-26 62.5t-9.5 82t8.5 92t30.5 80.5t61 57t101 21.5q67 0 100.5 -18t50.5 -56q21 38 59.5 56t106.5 18q65 0 106.5 -21.5t65.5 -56.5t33 -81.5t9 -95.5t-11.5 -92.5t-37 -76.5t-66.5 -52
t-99 -19t-98.5 19t-66.5 52t-38 77t-12 94q0 31 -2.5 61t-12 53.5t-30 38t-56.5 14.5q-38 0 -59.5 -15t-32.5 -39t-14 -54.5t-3 -61.5q0 -63 19.5 -104.5t52 -69t73.5 -45t83.5 -31.5t83.5 -28.5t73.5 -36.5t52 -55.5t19.5 -85.5h-94q0 24 -14 45.5t-37 39.5t-53 32.5
t-61 24.5t-61.5 15.5t-54.5 5.5zM433 457q0 -32 6.5 -60t20.5 -49t37.5 -33t56.5 -12t56.5 12t37.5 33t20.5 49t6.5 60t-4 62.5t-17 54t-37 38t-64 14.5t-63.5 -14.5t-36 -38t-16.5 -54t-4 -62.5z" />
    <glyph glyph-name="uni1C94" unicode="&#x1c94;" horiz-adv-x="489" 
d="M242 -13q-96 0 -151 57.5t-55 157.5q0 32 7.5 72.5t23.5 81.5l80 -45q-9 -28 -13.5 -56.5t-4.5 -52.5q0 -60 27 -94.5t89 -34.5q22 0 41 7t33 24t21.5 46t7.5 74v300q0 55 -28.5 79t-73.5 24q-21 0 -43.5 -8t-45 -21.5t-43.5 -32.5t-40 -41v117q78 71 175 71
q39 0 74 -11.5t61.5 -35t41.5 -58t15 -80.5v-296q0 -72 -15.5 -119.5t-42.5 -75t-63 -38.5t-78 -11z" />
    <glyph glyph-name="uni1C95" unicode="&#x1c95;" horiz-adv-x="515" 
d="M204 443h65q38 0 65 24.5t27 72.5q0 26 -8.5 43t-23.5 26.5t-35 13.5t-42 4q-42 0 -89 -23t-85 -66v119q33 24 80 39.5t97 15.5t87.5 -14t62.5 -38t37.5 -55t12.5 -65q0 -15 -4 -33t-12.5 -36t-20.5 -34t-28 -28q36 -17 56.5 -49t20.5 -74v-76q0 -62 -17.5 -105t-46 -69
t-66 -37.5t-77.5 -11.5q-48 0 -89 14t-71 41.5t-47 69t-17 96.5q0 35 8.5 73t27.5 76l81 -47q-13 -28 -18.5 -53.5t-5.5 -48.5q0 -35 10 -60.5t27 -42t38.5 -24.5t45.5 -8t46 6t39 21.5t27.5 42.5t10.5 68v73q0 13 -5 27.5t-16 26.5t-27.5 20t-39.5 8h-81v77z" />
    <glyph glyph-name="uni1C96" unicode="&#x1c96;" horiz-adv-x="687" 
d="M36 496q0 56 17 96.5t44.5 67t62 39.5t69.5 13q32 0 62.5 -10.5t54.5 -30t38.5 -49t14.5 -66.5q0 -23 -5 -51q10 2 20.5 3.5t22.5 1.5q64 0 105.5 -22.5t65.5 -59.5t33.5 -84.5t9.5 -96.5t-9.5 -96t-33.5 -83.5t-65.5 -58.5t-105.5 -22t-105 22t-65 58.5t-33.5 83.5
t-9.5 96q0 26 6 49q-21 -6 -40 -6q-31 0 -59 13.5t-49 39.5t-33.5 64.5t-12.5 88.5zM558 247q0 32 -3.5 63.5t-15.5 57t-34.5 41.5t-60.5 16q-35 0 -59.5 -15t-39.5 -40t-22 -57t-7 -66q0 -32 4.5 -63.5t17 -56t36.5 -39.5t63 -15q40 0 63.5 15t36.5 39.5t17 55.5t4 64z
M303 522q0 35 -7 55.5t-18.5 31.5t-26.5 14.5t-31 3.5q-17 0 -33.5 -6t-29 -20.5t-20.5 -40t-8 -64.5q0 -24 2.5 -46t11 -38.5t24.5 -26.5t43 -10q28 0 46 13.5t28.5 35t14.5 47.5t4 51z" />
    <glyph glyph-name="uni1C97" unicode="&#x1c97;" horiz-adv-x="829" 
d="M689 463q0 31 -3.5 60.5t-15 52.5t-34 37t-60.5 14t-60.5 -15.5t-34.5 -41t-15.5 -57.5t-3.5 -65v-220q0 -46 -11 -89.5t-36 -77t-66 -54t-101 -20.5q-64 0 -105.5 22t-65.5 58.5t-33.5 83.5t-9.5 96v212q0 48 9.5 93.5t34 81t66 57t104.5 21.5q67 0 106 -25t59 -65
q18 41 56 65.5t108 24.5q63 0 102.5 -20.5t62.5 -55t31.5 -80t8.5 -95.5v-214q0 -48 -9.5 -93t-33.5 -81t-64 -59.5t-101 -26.5l-22 86q45 0 72 15t41.5 39.5t19 55.5t4.5 64v216zM369 459q0 31 -4.5 61t-17 54t-36.5 38.5t-63 14.5t-62.5 -14t-36.5 -37.5t-17.5 -54
t-4.5 -62.5v-212q0 -32 4 -63.5t17 -56t37 -39.5t63 -15t63 15t37 39.5t17 55.5t4 64v212z" />
    <glyph glyph-name="uni1C98" unicode="&#x1c98;" horiz-adv-x="514" 
d="M382 453q0 32 -5.5 63t-19.5 56t-39.5 40t-64.5 15t-64 -15t-39.5 -39.5t-20 -55.5t-5.5 -63v-228q0 -49 16 -93.5t55 -70.5l-44 -75q-32 18 -54.5 44.5t-37 58t-21.5 66t-7 70.5v229q0 49 11 95t36.5 82t68.5 58t106 22t105.5 -22t68 -58.5t36.5 -83t11 -95.5v-227
q0 -36 -6.5 -71t-21 -66.5t-37.5 -57.5t-56 -44l-41 76q38 26 54 70.5t16 92.5v227z" />
    <glyph glyph-name="uni1C99" unicode="&#x1c99;" horiz-adv-x="511" 
d="M220 454h57q17 0 33 3t28 11.5t19.5 23.5t7.5 39q0 27 -9 46t-24.5 31t-36 17.5t-43.5 5.5h-15v85q43 0 83 -10.5t71 -32.5t49.5 -56.5t18.5 -82.5q0 -49 -19 -77.5t-48 -43.5q44 -18 63.5 -47.5t19.5 -72.5v-83q0 -62 -18 -105t-47.5 -69t-67.5 -37.5t-78 -11.5
q-48 0 -89.5 12.5t-72 39t-48.5 66.5t-18 95q0 36 9.5 75.5t28.5 78.5l81 -47q-14 -28 -20 -55.5t-6 -51.5q0 -35 10.5 -59t28 -39t40 -22t46.5 -7t46.5 7t40.5 23.5t29 42.5t11 65v82q0 13 -5 26.5t-16 24t-27.5 17.5t-39.5 7h-73v86z" />
    <glyph glyph-name="uni1C9A" unicode="&#x1c9a;" horiz-adv-x="499" 
d="M129 255q0 -38 14.5 -71t39.5 -57.5t58.5 -39t71.5 -14.5h104v-73h-103q-58 0 -108.5 19.5t-88 55t-59.5 84t-22 106.5v233q0 44 16.5 83t45.5 68t68 46t83 17t83 -17t68 -46t46 -68t17 -83v-235h-93v244q0 25 -9.5 46.5t-26 38t-38 26t-46.5 9.5t-47 -9.5t-38.5 -26
t-26 -38t-9.5 -46.5v-252z" />
    <glyph glyph-name="uni1C9B" unicode="&#x1c9b;" horiz-adv-x="512" 
d="M464 247q0 -49 -9.5 -96t-33.5 -83.5t-65.5 -58.5t-105.5 -22t-105.5 22t-65.5 58.5t-33.5 83.5t-9.5 96t9 96t32.5 83.5t64.5 58.5t106 22q46 0 74 -10.5t49 -31.5v60q0 27 -8.5 46.5t-23.5 31.5t-34.5 17.5t-41.5 5.5q-23 0 -48.5 -7.5t-50 -21t-46.5 -32t-38 -40.5
v117q40 35 88 52.5t95 17.5q39 0 75.5 -11.5t64 -35t44.5 -58t17 -80.5v-280zM371 247q0 33 -4 64t-17 56t-36.5 40t-63.5 15t-64 -15t-36.5 -40t-16.5 -56t-4 -64q0 -32 4 -63.5t17 -56t37 -39.5t63 -15t63 15t37 39.5t17 55.5t4 64z" />
    <glyph glyph-name="uni1C9C" unicode="&#x1c9c;" horiz-adv-x="512" 
d="M48 527q0 46 17 79.5t44.5 55t64 32t75.5 10.5h184v-78h-181q-45 0 -78 -28.5t-33 -82.5v-50q20 20 50.5 31t73.5 11q64 0 105.5 -22.5t64.5 -59.5t32 -84.5t9 -96.5t-9.5 -95.5t-33.5 -82.5t-65.5 -57.5t-105.5 -21.5t-105.5 22t-65.5 58.5t-33.5 83.5t-9.5 96v280z
M141 244q0 -33 4 -63.5t16.5 -54.5t36.5 -38.5t64 -14.5q39 0 63 14.5t36.5 38.5t17 55t4.5 63q0 33 -4 64.5t-17 57t-37 41t-63 15.5q-40 0 -64 -15.5t-36.5 -41t-16.5 -57t-4 -64.5z" />
    <glyph glyph-name="uni1C9D" unicode="&#x1c9d;" horiz-adv-x="780" 
d="M337 463q0 31 -3.5 60.5t-14.5 52.5t-31.5 37t-55.5 14q-39 0 -60 -14.5t-31.5 -38t-12.5 -54t-2 -62.5v-211q0 -33 5 -64t19.5 -55.5t41.5 -39.5t72 -15l-23 -86q-61 3 -101 26.5t-64 59.5t-33.5 81t-9.5 93v214q0 48 7.5 93.5t28.5 80.5t60 56t102 21q66 0 100.5 -24
t52.5 -62q9 20 21.5 36t30.5 27t42.5 17t58.5 6q63 0 101.5 -21.5t60 -57t28.5 -81t7 -93.5v-212q0 -48 -9.5 -93t-33 -81t-64 -59.5t-101.5 -26.5l-21 86q44 0 71 15t41.5 39.5t19 55.5t4.5 64v212q0 32 -2 62t-12 53.5t-31.5 38t-59.5 14.5q-35 0 -56 -14t-32 -37
t-14.5 -52.5t-3.5 -60.5v-247h-93v247z" />
    <glyph glyph-name="uni1C9E" unicode="&#x1c9e;" horiz-adv-x="503" 
d="M212 418h73q32 0 49 18t17 58q0 29 -16.5 44t-41.5 23t-54 13.5t-54 16.5t-41.5 31.5t-16.5 58.5v31h91v-24q0 -16 17 -23t42 -13.5t55 -14t55 -24t42 -44.5t17 -74q0 -47 -12 -74.5t-37 -42.5q35 -15 52.5 -45.5t17.5 -68.5v-50q0 -72 -18.5 -116t-48.5 -69t-69.5 -33.5
t-81.5 -8.5q-53 0 -93 18.5t-66.5 48.5t-40 69.5t-13.5 81.5q0 30 5 57t15 54l89 -24q-7 -23 -11.5 -44t-4.5 -43q0 -62 29.5 -97t100.5 -35q35 0 57.5 10.5t35 29t17.5 44.5t5 57v41q0 13 -6 27t-18.5 25.5t-32.5 19t-48 7.5h-57v84z" />
    <glyph glyph-name="uni1C9F" unicode="&#x1c9f;" horiz-adv-x="644" 
d="M127 453q0 -59 29 -89t68 -30q52 0 76 32t24 83q0 54 -39 125l-86 -16v89l313 57h84v-487q0 -55 -17 -98t-46.5 -72t-70 -44.5t-87.5 -15.5q-51 0 -103 16.5t-114 51.5l44 81q28 -15 49 -27t39.5 -20t36.5 -12t41 -4q58 0 96.5 33t38.5 103v406l-122 -23q36 -87 36 -152
q0 -47 -14.5 -82.5t-40 -59.5t-61 -36.5t-78.5 -12.5q-37 0 -70.5 13t-59.5 39t-41.5 65t-15.5 90q0 35 14 74l81 -46q-4 -15 -4 -31z" />
    <glyph glyph-name="uni1CA0" unicode="&#x1ca0;" horiz-adv-x="803" 
d="M355 273q0 30 -3.5 57.5t-14.5 47.5t-32 32t-55 12q-40 0 -64 -17.5t-36.5 -45.5t-16.5 -61.5t-4 -66.5q0 -20 4.5 -47t19 -51.5t41.5 -42t72 -17.5l-22 -86q-62 3 -102 28t-63.5 63t-33 86t-9.5 98v40q0 98 19 166.5t51 113t74.5 69t89.5 36.5t96 14.5t93 2.5h70v-78
h-78q-53 0 -104.5 -7.5t-94.5 -26t-74 -50.5t-43 -81q22 21 50 33.5t64 12.5q66 0 100 -24t52 -62q20 39 57 62.5t104 23.5q64 0 104 -19.5t62.5 -53.5t30.5 -78.5t8 -93.5q0 -48 -9.5 -95.5t-33 -86.5t-64 -64.5t-101.5 -28.5l-21 86q44 0 71 17.5t41.5 44.5t19 60.5
t4.5 66.5q0 32 -2.5 61t-14 51t-34 35t-62.5 13q-35 0 -57 -12t-34.5 -32t-17 -47.5t-4.5 -57.5v-104h-93v104z" />
    <glyph glyph-name="uni1CA1" unicode="&#x1ca1;" horiz-adv-x="495" 
d="M253 -13q-100 0 -152.5 62t-52.5 175v481h94v-481q0 -78 31 -114.5t78 -36.5q30 0 52 11.5t36 31.5t20.5 46.5t6.5 56.5q0 28 -7.5 60.5t-20.5 65t-31 64t-39 58.5l83 48q24 -35 43.5 -73.5t34 -76t22.5 -73.5t8 -66q0 -62 -17.5 -107.5t-46.5 -74.5t-66 -43t-76 -14z
" />
    <glyph glyph-name="uni1CA2" unicode="&#x1ca2;" horiz-adv-x="718" 
d="M355 378v-185h-93v354q0 39 14 70t37.5 52.5t55.5 32.5t68 11t68.5 -11t56.5 -32.5t38 -52.5t14 -70q0 -19 -5 -38t-15 -35.5t-24.5 -30t-33.5 -20.5q43 -17 70 -39.5t42 -48t20.5 -52t5.5 -51.5q0 -52 -19.5 -97t-57 -78t-93 -51.5t-128.5 -18.5q-92 0 -157.5 28.5
t-106.5 77.5t-60 113.5t-19 135.5q0 80 23 165t65 165l88 -47q-37 -70 -60 -148.5t-23 -150.5q0 -51 11 -97t39 -80.5t75.5 -55t120.5 -20.5q46 0 84 11.5t66 33t43.5 52.5t15.5 70q0 24 -10.5 48.5t-30.5 44.5t-49 32.5t-67 12.5h-69zM355 464h73q18 0 35 4t30.5 13.5
t22 25.5t8.5 40q0 38 -25.5 62t-61.5 24q-35 0 -58.5 -24t-23.5 -62v-83z" />
    <glyph glyph-name="uni1CA3" unicode="&#x1ca3;" horiz-adv-x="582" 
d="M534 201q0 -48 -17.5 -87t-47.5 -67.5t-71 -44t-88 -15.5t-88 15.5t-72 44t-48.5 67.5t-17.5 87q0 18 4 39t10.5 42t15.5 40.5t19 34.5l82 -48q-19 -28 -28 -60.5t-9 -56.5q0 -27 10.5 -49t28.5 -37.5t42 -24t51 -8.5t51 8.5t41.5 24t28 37.5t10.5 49v367
q0 29 -20.5 48.5t-49.5 19.5t-49 -18.5t-20 -47.5v-132h-93v129q0 68 -44 68h-141v78h150q36 0 54 -11t32 -43q17 29 44.5 45.5t70.5 16.5q34 0 63 -12.5t50.5 -34.5t33.5 -51.5t12 -63.5v-349z" />
    <glyph glyph-name="uni1CA4" unicode="&#x1ca4;" horiz-adv-x="797" 
d="M668 498q0 64 -29.5 96.5t-68.5 32.5q-20 0 -39 -8.5t-34 -25t-24 -41t-9 -57.5v-36q0 -54 -11 -101t-36 -82.5t-66 -56t-102 -20.5q-64 0 -105 22t-65 58.5t-33.5 83.5t-9.5 96t9 94.5t33 81t65 56.5t106 21q68 0 107 -24.5t59 -65.5q25 48 68 69t95 21q36 0 69 -13.5
t58.5 -40.5t40.5 -67t15 -93q0 -61 -15 -98.5t-60 -60.5q28 -16 51.5 -41.5t23.5 -58.5v-68q0 -51 -21 -86.5t-55.5 -57t-79 -31t-91.5 -9.5q-63 0 -125 18.5t-109 53.5l51 69q14 -11 34.5 -21t44 -17.5t48.5 -12t48 -4.5q31 0 60 4t51.5 15t36.5 30.5t14 51.5v49
q0 14 -7.5 27t-20 22.5t-28.5 15.5t-34 6h-54v83h55q54 0 71.5 30.5t17.5 90.5zM370 459q0 33 -3.5 63.5t-16 54t-36.5 37.5t-64 14q-39 0 -63 -14t-37 -37.5t-17.5 -54t-4.5 -63.5q0 -32 4.5 -63.5t17 -56t36.5 -39.5t63 -15q40 0 63.5 15t36.5 39.5t17 55.5t4 64z" />
    <glyph glyph-name="uni1CA5" unicode="&#x1ca5;" horiz-adv-x="491" 
d="M237 -13q-96 0 -151 57.5t-55 157.5q0 32 7.5 76t22.5 83l84 -45q-9 -32 -15.5 -63.5t-6.5 -58.5q0 -25 6 -47t19.5 -38.5t36.5 -26t56 -9.5q22 0 41 6.5t32.5 23.5t21 46.5t7.5 75.5v208q0 26 -10 45t-27 31t-38.5 18t-45.5 6t-48 -6t-45 -18.5t-37 -31t-23 -43.5v113
q31 39 70 56t81 17q31 0 63 -12t60 -35v132h93v-480q0 -75 -15.5 -121.5t-42.5 -72.5t-63 -35t-78 -9z" />
    <glyph glyph-name="uni1CA6" unicode="&#x1ca6;" horiz-adv-x="803" 
d="M355 478q0 29 -4.5 56t-17 47.5t-34.5 33t-57 12.5q-38 0 -60 -13.5t-34 -35.5t-15.5 -50.5t-3.5 -59.5q0 -63 19.5 -105t52 -70.5t73.5 -47t83.5 -33.5t83.5 -30.5t73.5 -38.5t52 -57t19.5 -86h-94q0 24 -14 45.5t-37 39.5t-53 32.5t-61 24.5t-61.5 15.5t-54.5 5.5
q-64 0 -135 -43l-36 66q23 17 49.5 29.5t55.5 17.5q-22 18 -41.5 38t-34.5 46t-24 59t-9 76q0 49 8 96t30.5 83.5t62.5 58.5t104 22q66 0 103 -23t57 -63q20 39 57 62.5t104 23.5q64 0 104 -22t62.5 -58.5t30.5 -83.5t8 -96q0 -48 -9.5 -92t-33 -78.5t-64 -57t-101.5 -25.5
l-21 86q44 0 71 14t41.5 37t19 53t4.5 63t-2.5 64t-14 56t-34 40t-62.5 15q-35 0 -57 -12.5t-34.5 -33t-17 -47.5t-4.5 -56v-112h-93v112z" />
    <glyph glyph-name="uni1CA7" unicode="&#x1ca7;" horiz-adv-x="511" 
d="M463 172q0 -46 -16.5 -80.5t-44.5 -58t-64 -35t-75 -11.5q-47 0 -95 17.5t-88 53.5v113q19 -23 41.5 -41t46.5 -30.5t47.5 -19.5t44.5 -7q45 0 78 25t33 80v63q-20 -19 -49.5 -30.5t-71.5 -11.5q-65 0 -106.5 22t-65.5 59t-33 83.5t-9 96.5q0 42 7.5 84t26.5 77.5t50 62
t79 38.5l22 -84q-29 -8 -47 -26.5t-28 -43t-13.5 -53t-3.5 -55.5q0 -33 4 -64t16.5 -56t36 -40t62.5 -15q40 0 64.5 15t37.5 40t17 56t4 64v244h92v-532z" />
    <glyph glyph-name="uni1CA8" unicode="&#x1ca8;" horiz-adv-x="534" 
d="M161 583q0 27 -12.5 35t-35.5 8h-97v78h99q37 0 58.5 -11t36.5 -44q20 34 52.5 48.5t66.5 14.5q29 0 57.5 -10.5t50.5 -29.5t35.5 -47t13.5 -62v-324q0 -63 -19 -110.5t-49.5 -79t-70 -47t-80.5 -15.5t-80 15.5t-70 47t-49.5 78.5t-18.5 110q0 59 17.5 105.5t47 79t67 50
t78.5 17.5q35 0 70.5 -11.5t63.5 -43.5v135q0 29 -22.5 42.5t-48.5 13.5t-47 -9.5t-21 -34.5v-49h-93v50zM393 238q0 40 -10 71t-27 52.5t-39.5 32.5t-48.5 11t-48.5 -11t-40 -32.5t-27.5 -52.5t-10 -71q0 -80 31.5 -122.5t94.5 -42.5t94 42.5t31 122.5z" />
    <glyph glyph-name="uni1CA9" unicode="&#x1ca9;" horiz-adv-x="519" 
d="M48 528q0 46 17 80.5t45 57.5t64.5 34.5t75.5 11.5q48 0 84 -10.5t61 -28.5t37.5 -42.5t12.5 -52.5q0 -19 -5 -38t-17.5 -36t-34 -32.5t-54.5 -27.5l-64 67q27 6 43.5 13t25 15.5t11.5 17t3 17.5q0 23 -25 37.5t-77 14.5q-22 0 -42 -5t-35 -17t-24 -31t-9 -46v-134
q31 26 67 38t68 12q40 0 78 -15.5t66.5 -44.5t46 -71t17.5 -96q0 -30 -8 -62.5t-22.5 -63t-33.5 -59t-40 -51.5l-64 63q13 15 26.5 36t24.5 44t17.5 47t6.5 45q0 37 -10.5 64t-28 44.5t-39.5 26t-45 8.5t-45.5 -7.5t-40.5 -21t-29.5 -33.5t-11.5 -45v-251h-93v528z" />
    <glyph glyph-name="uni1CAA" unicode="&#x1caa;" horiz-adv-x="679" 
d="M346 427h102q39 0 63 19.5t24 45.5t-14 40.5t-35 23.5t-46 16t-46 18.5t-35 30.5t-14 52v31h90v-26q0 -11 14.5 -18t35.5 -14.5t46.5 -17t46.5 -26t35.5 -41t14.5 -60.5q0 -34 -17 -69.5t-58 -54.5q49 -25 69.5 -58.5t20.5 -90.5q0 -59 -23 -104t-61 -75.5t-88 -46
t-104 -15.5q-65 0 -125 22t-105.5 68t-73 117.5t-27.5 171.5q0 84 33.5 175t91.5 176l85 -47q-27 -36 -48.5 -76t-36.5 -82t-23.5 -83.5t-8.5 -79.5q0 -73 19.5 -125.5t52.5 -86t76.5 -49.5t90.5 -16q36 0 69 9.5t58 28.5t40 47.5t15 65.5q0 24 -8 45.5t-24 38t-41.5 26.5
t-59.5 10h-71v84z" />
    <glyph glyph-name="uni1CAB" unicode="&#x1cab;" horiz-adv-x="512" 
d="M464 247q0 -49 -9.5 -96t-33.5 -83.5t-65.5 -58.5t-105.5 -22t-105.5 22t-65.5 58.5t-33.5 83.5t-9.5 96t9 96t33 83.5t65.5 58.5t106.5 22q41 0 71 -14.5t50 -37.5v86q0 32 -15 55.5t-39 37.5l23 83q54 -22 89 -65t35 -108v-297zM371 247q0 33 -4 64t-17 56t-36.5 40
t-63.5 15t-64 -15t-36.5 -40t-16.5 -56t-4 -64q0 -32 4 -63.5t17 -56t37 -39.5t63 -15t63 15t37 39.5t17 55.5t4 64z" />
    <glyph glyph-name="uni1CAC" unicode="&#x1cac;" horiz-adv-x="535" 
d="M373 520h-92v57q0 25 -21 37.5t-47 12.5q-27 0 -49.5 -13.5t-22.5 -42.5v-136q26 27 60 41t70 14q103 0 158.5 -61.5t55.5 -190.5t-58 -190t-161 -61t-160.5 61t-57.5 190v326q0 34 13.5 61.5t36 47t50.5 29.5t57 10q32 0 63 -11t53 -40q15 32 41 41.5t57 9.5h100v-85
h-106q-14 0 -27 -6.5t-13 -29.5v-71zM141 238q0 -80 31 -122.5t94 -42.5t94.5 42.5t31.5 122.5q0 40 -10 71t-27 52.5t-40 32.5t-49 11t-48.5 -11t-39.5 -32.5t-27 -52.5t-10 -71z" />
    <glyph glyph-name="uni1CAD" unicode="&#x1cad;" horiz-adv-x="549" 
d="M318 705h93v-503q0 -47 -14.5 -86.5t-41.5 -68t-66 -44.5t-88 -16q-29 0 -52 4.5t-43.5 13.5t-40.5 23t-42 34l62 62q28 -26 52 -38.5t62 -12.5q31 0 54 10t37 28t21 42t7 52v500zM237 198q-52 0 -91 15.5t-64.5 42t-38 62t-12.5 75.5t13 76t38.5 63t64.5 43t90 16h275
v-85h-257q-66 0 -99 -32.5t-33 -81.5q0 -45 28.5 -76.5t85.5 -31.5q37 0 63 18.5t40 39.5l62 -57q-14 -12 -32 -27.5t-39 -28.5t-44.5 -22t-49.5 -9z" />
    <glyph glyph-name="uni1CAE" unicode="&#x1cae;" horiz-adv-x="512" 
d="M48 704h93v-240q20 20 49 31.5t72 11.5q64 0 105.5 -22.5t65.5 -59t33.5 -83.5t9.5 -96t-9.5 -95.5t-33.5 -83t-65.5 -58.5t-105.5 -22t-105.5 22t-65.5 58.5t-33.5 83t-9.5 95.5v458zM141 246q0 -33 4 -64t16.5 -55t36.5 -39t64 -15q39 0 63 15t36.5 39.5t17 55.5
t4.5 63q0 33 -4 64.5t-17 56t-37 40t-63 15.5q-40 0 -64 -15.5t-36.5 -40t-16.5 -56t-4 -64.5z" />
    <glyph glyph-name="uni1CAF" unicode="&#x1caf;" horiz-adv-x="502" 
d="M77 599h129v105h94v-105h129v-85h-129v-49q0 -29 20 -50.5t46 -42.5l17 -15q42 -35 60 -76.5t18 -85.5q0 -40 -15 -77.5t-41 -66.5t-60.5 -46.5t-72.5 -17.5q-60 0 -105 16.5t-75 46t-45.5 71t-15.5 91.5q0 27 5.5 59t16.5 69l88 -35q-7 -26 -12 -50.5t-5 -42.5
q0 -29 7 -54t23 -44t40 -30t59 -11q29 0 50.5 10.5t36 27t21.5 38t7 44.5q0 31 -12 54t-30 41t-39 34t-39 35t-30 43t-12 57v57h-129v85z" />
    <glyph glyph-name="uni1CB0" unicode="&#x1cb0;" horiz-adv-x="499" 
d="M126 619l-21 85h193q28 0 52.5 -10.5t43 -27.5t29 -40.5t10.5 -48.5q0 -23 -12 -45t-31 -37q21 -14 32 -36.5t11 -44.5q0 -23 -11 -45t-32 -36q23 -15 42 -47t19 -91q0 -53 -10.5 -92t-34.5 -64.5t-62.5 -38.5t-94.5 -13q-104 0 -158.5 54.5t-54.5 163.5q0 25 3.5 49
t11.5 50l90 -24q-5 -21 -8.5 -40t-3.5 -35q0 -72 29.5 -102t100.5 -30q34 0 54 10t29.5 28t12 43t2.5 56q0 22 -5.5 37.5t-14 25.5t-18 14t-17.5 4h-96v84h96q15 0 26 12t11 27q0 16 -11 28t-26 12h-96v84h96q15 0 26 11.5t11 27.5t-12 29t-29 13h-172z" />
    <glyph glyph-name="uni1CB1" unicode="&#x1cb1;" horiz-adv-x="668" 
d="M84 415q2 41 10.5 92.5t27.5 97t51 76.5t80 31q43 0 74.5 -29t31.5 -86q0 -43 -16 -79t-43 -64.5t-61.5 -50.5t-70.5 -37v-5q0 -51 9.5 -102.5t34.5 -93t66.5 -67t106.5 -25.5q36 0 66 3.5t51 12t33 23t12 37.5q0 24 -11.5 38.5t-32 23t-49 13t-61.5 9.5v85q38 -9 59 -13
t30 -4q18 0 34 8.5t16 31.5q0 29 -38 46.5t-101 32.5v83q64 -21 96 -21q14 0 22.5 9t8.5 23q0 17 -8 28t-28 24l-91 56v96l126 -79q41 -26 64 -59t23 -67q0 -52 -33 -81q23 -20 33.5 -44.5t10.5 -46.5q0 -24 -11.5 -47.5t-29.5 -40.5q26 -21 41 -44t15 -61q0 -40 -18.5 -70
t-51.5 -50.5t-78.5 -30.5t-98.5 -10q-85 0 -141.5 31t-91.5 80.5t-50.5 111t-18.5 121.5l-47 -19v83zM251 633q-14 0 -27 -14t-23.5 -38t-18 -57t-10.5 -72q50 29 76 66t26 82q0 33 -23 33z" />
    <glyph glyph-name="uni1CB2" unicode="&#x1cb2;" horiz-adv-x="450" 
d="M379 -17q-34 0 -81 14t-92 42q-70 -37 -160 -60v84q30 1 57.5 4.5t48.5 11.5q-42 38 -71 90.5t-29 113.5v256q0 34 12.5 65t34.5 55t52.5 38t66.5 14q37 0 67 -14t51.5 -37.5t33.5 -54.5t14 -65v-236q0 -72 -29 -126t-82 -96q30 -11 58.5 -14.5t43.5 -5.5h16v-68z
M138 285q0 -66 21.5 -107t53.5 -65q38 29 62 72.5t24 99.5v254q0 17 -5.5 34t-16 30t-25.5 21t-34 8t-33.5 -8t-25 -21t-16 -30t-5.5 -34v-254z" />
    <glyph glyph-name="uni1CB3" unicode="&#x1cb3;" horiz-adv-x="474" 
d="M280 436q42 -1 68 -18.5t41 -46t20 -64.5t5 -73q0 -50 -5.5 -94.5t-25 -77.5t-57.5 -52.5t-102 -19.5q-45 0 -78.5 13t-55.5 36t-33 54.5t-11 68.5q0 92 78 155l52 -48q-44 -46 -44 -104q0 -44 28.5 -69t69.5 -25q32 0 51.5 11.5t30 32.5t14 51t3.5 68q0 127 -70 127
q-12 0 -27 -7.5t-29 -23.5l-51 47l115 186h-182v80h322z" />
    <glyph glyph-name="uni1CB4" unicode="&#x1cb4;" horiz-adv-x="478" 
d="M155 336h63q21 0 39 1t30.5 4.5t19.5 11.5t7 22q0 16 -18 27t-44.5 21.5t-57.5 22t-57.5 29.5t-44.5 43.5t-18 64.5q0 33 13 57.5t34.5 40t49 23.5t56.5 8q31 0 57.5 -9.5t45.5 -25t30 -35.5t11 -40q0 -26 -18 -54.5t-65 -45.5l-52 53q27 10 42 23t15 24q0 15 -18 26
t-49 11q-25 0 -47 -10t-22 -38q0 -20 10 -34t26 -24.5t36.5 -18.5t41.5 -15l-1 1q28 -7 52 -20t41 -30t27 -36.5t10 -39.5q0 -30 -12.5 -51.5t-49.5 -34.5q38 -18 59 -50.5t21 -81.5q0 -78 -51 -123.5t-142 -45.5q-44 0 -77 12t-56 32.5t-34.5 47t-11.5 55.5q0 51 54 101
l63 -42q-17 -20 -23.5 -35t-6.5 -26q0 -26 25 -42.5t66 -16.5q57 0 83 20t26 62q0 31 -12.5 51.5t-33 32.5t-47 17t-54.5 5h-31v75z" />
    <glyph glyph-name="uni1CB5" unicode="&#x1cb5;" horiz-adv-x="534" 
d="M303 369h-71q-85 0 -135 46t-50 126q0 41 13 73t37 53.5t56.5 33t71.5 11.5q73 0 117 -43.5t44 -118.5v-101h112v-80h-112v-37h112v-79h-112v-104q0 -38 -12 -68t-33 -51t-50.5 -32.5t-65.5 -11.5q-39 0 -72 12t-56.5 34t-36.5 54t-13 72q0 39 13 71t37 55t58 35.5
t77 12.5h71v37zM245 253q-18 0 -38 -3t-36.5 -12.5t-27 -28.5t-10.5 -52q0 -42 25 -66t67 -24q25 0 40.5 8t23.5 21t11 27.5t3 28.5v101h-58zM303 547q0 13 -3 28t-11 28t-23.5 21t-40.5 8t-42.5 -7.5t-28.5 -20t-16 -28.5t-5 -34q0 -32 10.5 -50t27 -28t36.5 -12.5t38 -2.5
h58v98z" />
    <glyph glyph-name="uni1CB6" unicode="&#x1cb6;" horiz-adv-x="707" 
d="M302 568q0 22 -3.5 34.5t-10.5 19.5t-17.5 9t-23.5 2q-21 0 -36 -8.5t-21 -35.5h-79q5 36 18 60t32 38t42 19.5t47 5.5t48 -2.5t43 -16.5t31 -43t12 -82v-69q17 17 38.5 29.5t45.5 12.5q38 0 69.5 -13.5t53.5 -38.5t34 -59t12 -74q0 -46 -14 -81.5t-37.5 -59.5t-54 -36
t-63.5 -12q-34 0 -52.5 11t-31.5 28v-63q0 -45 14 -60.5t41 -15.5q20 0 35.5 7t20.5 34h81q-5 -36 -18 -59.5t-32 -37.5t-42.5 -19.5t-48.5 -5.5t-49 4.5t-42.5 21t-30 47.5t-11.5 84v63q-14 -16 -33 -27.5t-50 -11.5q-35 0 -66 12.5t-54 37t-36.5 59.5t-13.5 80
q0 43 13 77.5t35.5 58.5t53.5 36.5t68 12.5q23 0 44.5 -12t38.5 -28v67zM468 248q38 0 60.5 31.5t22.5 76.5q0 46 -22 76t-61 30q-36 0 -60 -26t-24 -80q0 -29 7.5 -49t19.5 -33.5t27 -19.5t30 -6zM219 248q15 0 30 6t26.5 19.5t19 33.5t7.5 49q0 54 -24 80t-59 26
q-40 0 -62 -30.5t-22 -75.5q0 -48 23 -78t61 -30z" />
    <glyph glyph-name="uni1CB7" unicode="&#x1cb7;" horiz-adv-x="479" 
d="M163 453q-69 51 -69 128q0 29 11 53t30 41.5t43.5 27t51.5 9.5t53.5 -7.5t47.5 -24.5t34 -44t13 -67q0 -55 -18 -91.5t-45.5 -63t-59.5 -48.5t-59.5 -47.5t-45.5 -59t-18 -84.5q0 -21 6 -40.5t19.5 -34.5t34 -23.5t49.5 -8.5q46 0 72 25t26 70q0 28 -10.5 53.5
t-34.5 49.5l51 47q38 -29 59 -68t21 -77q0 -46 -15 -80t-40.5 -56.5t-59.5 -33.5t-71 -11q-49 0 -85.5 15.5t-60.5 41t-35.5 59.5t-11.5 72q0 56 18.5 96t45.5 70.5t59.5 54.5t59.5 48.5t45.5 52.5t18.5 66q0 10 -3 22t-9.5 22.5t-18 18t-28.5 7.5q-27 0 -41.5 -18.5
t-14.5 -41.5q0 -15 7.5 -34t24.5 -39z" />
    <glyph glyph-name="uni1CB8" unicode="&#x1cb8;" horiz-adv-x="478" 
d="M129 705v-63q0 -39 7.5 -64.5t19.5 -41.5t28 -22.5t34 -6.5q42 0 62.5 25.5t20.5 60.5q0 18 -7.5 41t-24.5 53l71 32q47 -80 47 -135q0 -38 -14 -67t-37 -48.5t-53.5 -30t-63.5 -10.5q-26 0 -48 6.5t-42 21.5v-273q0 -115 102 -115q49 0 75.5 28t26.5 68q0 52 -55 101
l50 52q90 -58 90 -162q0 -41 -15 -72t-41 -52.5t-60 -32.5t-71 -11q-185 0 -185 197v521h83z" />
    <glyph glyph-name="uni1CB9" unicode="&#x1cb9;" 
 />
    <glyph glyph-name="uni1CBA" unicode="&#x1cba;" 
 />
    <glyph glyph-name="uni1CBB" unicode="&#x1cbb;" horiz-adv-x="418" 
d="M232 228q0 26 18.5 44.5t44.5 18.5t44.5 -18.5t18.5 -44.5t-18.5 -44.5t-44.5 -18.5t-44.5 18.5t-18.5 44.5zM54 50q0 26 18.5 44.5t44.5 18.5t44 -18.5t18 -44.5t-18 -44.5t-44 -18.5t-44.5 18.5t-18.5 44.5zM54 406q0 26 18.5 44.5t44.5 18.5t44 -18.5t18 -44.5
t-18 -44t-44 -18t-44.5 18t-18.5 44z" />
    <glyph glyph-name="uni1CBC" unicode="&#x1cbc;" 
 />
    <glyph glyph-name="uni1CBD" unicode="&#x1cbd;" 
 />
    <glyph glyph-name="uni1CBE" unicode="&#x1cbe;" 
 />
    <glyph glyph-name="uni1CBF" unicode="&#x1cbf;" 
 />
    <glyph glyph-name="endash" unicode="&#x2013;" horiz-adv-x="625" 
d="M560 307v-89h-505v89h505z" />
    <glyph glyph-name="emdash" unicode="&#x2014;" horiz-adv-x="902" 
d="M830 307v-89h-772v89h772z" />
    <glyph glyph-name="quoteleft" unicode="&#x2018;" horiz-adv-x="216" 
d="M178 541q0 -26 -18.5 -44.5t-44.5 -18.5t-44.5 19t-18.5 46l34 162h66l-22 -102q21 -5 34.5 -22t13.5 -40z" />
    <glyph glyph-name="quoteright" unicode="&#x2019;" horiz-adv-x="217" 
d="M52 648q0 26 18.5 44.5t44.5 18.5t44.5 -19t18.5 -46l-34 -162h-66l24 102q-21 5 -35.5 22.5t-14.5 39.5z" />
    <glyph glyph-name="quotesinglbase" unicode="&#x201a;" horiz-adv-x="216" 
d="M52 49q0 26 18.5 44.5t44.5 18.5t44.5 -19t18.5 -46l-34 -162h-66l24 102q-21 5 -35.5 22.5t-14.5 39.5z" />
    <glyph glyph-name="quotedblleft" unicode="&#x201c;" horiz-adv-x="402" 
d="M342 540q0 -26 -18.5 -44.5t-44.5 -18.5t-44.5 19t-18.5 46l34 163h66l-23 -103q20 -5 34.5 -22.5t14.5 -39.5zM179 540q0 -26 -18.5 -44.5t-44.5 -18.5t-44 19t-18 46l33 163h66l-23 -103q20 -5 34.5 -22.5t14.5 -39.5z" />
    <glyph glyph-name="quotedblright" unicode="&#x201d;" horiz-adv-x="402" 
d="M54 648q0 26 18 44.5t44 18.5t44.5 -19t18.5 -46l-34 -162h-65l23 102q-20 5 -34.5 22.5t-14.5 39.5zM216 648q0 26 18.5 44.5t44.5 18.5t44.5 -19t18.5 -46l-34 -162h-66l23 102q-20 5 -34.5 22.5t-14.5 39.5z" />
    <glyph glyph-name="quotedblbase" unicode="&#x201e;" horiz-adv-x="402" 
d="M54 49q0 26 18 44.5t44 18.5t44.5 -19t18.5 -46l-34 -162h-65l23 102q-20 5 -34.5 22.5t-14.5 39.5zM216 49q0 26 18.5 44.5t44.5 18.5t44.5 -19t18.5 -46l-34 -162h-66l23 102q-20 5 -34.5 22.5t-14.5 39.5z" />
    <glyph glyph-name="dagger" unicode="&#x2020;" horiz-adv-x="500" 
d="M296 701v-186h179v-89h-179v-605h-101v605h-178v89h178v186h101z" />
    <glyph glyph-name="bullet" unicode="&#x2022;" horiz-adv-x="382" 
d="M322 271q0 -32 -10.5 -58t-28.5 -45.5t-42.5 -30t-52.5 -10.5q-30 0 -55 11.5t-43 31t-27.5 45.5t-9.5 56q0 29 9.5 55t27 46t42.5 31.5t56 11.5q30 0 54.5 -12t42 -31.5t27.5 -46t10 -54.5z" />
    <glyph glyph-name="ellipsis" unicode="&#x2026;" horiz-adv-x="666" 
d="M56 50q0 26 18.5 44.5t44.5 18.5t44.5 -18.5t18.5 -44.5t-18.5 -44.5t-44.5 -18.5t-44.5 18.5t-18.5 44.5zM271 50q0 26 18.5 44.5t44.5 18.5t44 -18.5t18 -44.5t-18 -44.5t-44 -18.5t-44.5 18.5t-18.5 44.5zM485 50q0 26 18.5 44.5t44.5 18.5t44.5 -18.5t18.5 -44.5
t-18.5 -44.5t-44.5 -18.5t-44.5 18.5t-18.5 44.5z" />
    <glyph glyph-name="perthousand" unicode="&#x2030;" horiz-adv-x="1092" 
d="M848 -36q-32 0 -61 12t-51.5 33.5t-37.5 51t-18 63.5q-3 -33 -17.5 -62.5t-37 -51t-51.5 -34t-61 -12.5q-34 0 -64.5 14t-54 38.5t-37 57t-13.5 69.5q0 36 12.5 68.5t35 57.5t53.5 40t68 15q31 0 60 -13t51.5 -35.5t37 -51.5t18.5 -62q3 34 17.5 63.5t37 51.5t51.5 34.5
t62 12.5q35 0 65.5 -14.5t53 -39t35.5 -57.5t13 -70t-13.5 -69.5t-36.5 -57t-53 -38.5t-64 -14zM228 380q-36 0 -67 14.5t-53.5 39.5t-35.5 57.5t-13 68.5q0 38 14 71t37 57t54 38t64 14t63 -14t53.5 -38.5t37.5 -57.5t14 -70t-13.5 -70t-36.5 -57.5t-53.5 -38.5t-64.5 -14z
M608 723l-380 -741h-97l380 741h97zM228 652q-40 0 -62 -27t-22 -65q0 -37 21.5 -64t62.5 -27q39 0 61 27t22 64q0 42 -24 67t-59 25zM513 235q-39 0 -61.5 -27t-22.5 -65q0 -37 22 -64t62 -27q38 0 60.5 27.5t22.5 63.5q0 38 -22.5 65t-60.5 27zM848 235q-39 0 -61 -27
t-22 -65q0 -37 21.5 -64t61.5 -27q36 0 59 26t23 65t-22 65.5t-60 26.5z" />
    <glyph glyph-name="guilsinglleft" unicode="&#x2039;" horiz-adv-x="350" 
d="M239 46l-186 199v51l186 199l56 -61l-151 -164l151 -163z" />
    <glyph glyph-name="guilsinglright" unicode="&#x203a;" horiz-adv-x="350" 
d="M199 271l-150 163l57 61l185 -199v-51l-185 -199l-57 61z" />
    <glyph glyph-name="Euro" unicode="&#x20ac;" horiz-adv-x="738" 
d="M249 239q14 -77 54 -121.5t115 -44.5q55 0 89.5 25.5t57.5 73.5h100q-29 -100 -92 -142.5t-155 -42.5q-57 0 -101 17.5t-76.5 50.5t-53.5 79.5t-31 104.5h-127l64 87h54v46h-118l64 88h62q10 57 30.5 103.5t53 79.5t77.5 51t102 18q99 0 163 -49.5t92 -166.5h-92
q-16 70 -57.5 100.5t-105.5 30.5q-75 0 -115 -46t-54 -121h277l-63 -88h-223v-20q0 -7 -0.5 -10t-0.5 -7q0 -2 0.5 -4t0.5 -5h286l-63 -87h-214z" />
    <glyph glyph-name="trademark" unicode="&#x2122;" horiz-adv-x="832" 
d="M343 705v-90h-102v-326h-84v326h-100v90h286zM471 705l97 -290q25 74 48.5 145.5t48.5 144.5h97v-416h-86v204l-71 -204h-75l-70 207v-207h-86v416h97z" />
    <glyph glyph-name="accent" horiz-adv-x="211" 
d="M52 670q0 22 14.5 37t36.5 15q21 0 36 -15t15 -37t-15 -36.5t-36 -14.5q-22 0 -36.5 14.5t-14.5 36.5z" />
    <glyph glyph-name="uni10D0.case" horiz-adv-x="491" 
d="M124 243q0 -81 28.5 -125.5t88.5 -44.5t89 44.5t29 125.5q0 51 -15.5 90.5t-39.5 71t-51 59.5t-51 56.5t-39.5 61t-15.5 74.5v49h93v-41q0 -35 15.5 -63t39.5 -54.5t51 -54.5t51 -63t39.5 -80.5t15.5 -105.5q0 -59 -15 -106.5t-42.5 -80.5t-66.5 -51t-87 -18
q-101 0 -155.5 69t-54.5 187q0 32 8.5 63t19.5 61h100q-17 -30 -26 -61.5t-9 -62.5z" />
    <glyph glyph-name="uni10D1.case" horiz-adv-x="500" 
d="M464 237q0 -49 -9.5 -94.5t-33.5 -80t-65.5 -55t-105.5 -20.5t-105.5 20.5t-65.5 55t-33.5 80t-9.5 94.5q0 46 7.5 92.5t28 84.5t57 63.5t93.5 30.5v89h-19q-29 0 -51 2t-37.5 9t-23.5 21.5t-8 40.5v42h92v-24q0 -8 4.5 -13t21.5 -5h186l45 -73h-118v-95q42 -13 71 -40.5
t46.5 -63.5t25 -77.5t7.5 -83.5zM371 237q0 33 -4 66t-16.5 59.5t-36 43t-63.5 16.5t-64 -16.5t-37 -43t-17 -59.5t-4 -66q0 -32 4 -62t17 -52.5t37 -36t63 -13.5t63 13.5t37 36t17 52t4 62.5z" />
    <glyph glyph-name="uni10D2.case" horiz-adv-x="547" 
d="M256 712q44 0 77 -13t55.5 -36t33.5 -54t11 -67q0 -43 -20 -94q54 -31 76 -86.5t22 -122.5q0 -49 -13.5 -94.5t-42 -80.5t-73.5 -56t-108 -21q-64 0 -109 21t-73.5 56t-42 80.5t-13.5 94.5t14.5 93t44.5 76.5t76 51.5t110 19q24 0 45 -3q14 39 14 68q0 35 -19.5 59
t-67.5 24q-42 0 -88 -25.5t-84 -70.5v110q78 71 175 71zM418 239q0 25 -6 52t-21.5 50t-42 38t-67.5 15q-40 0 -69 -12t-47.5 -33t-27 -49.5t-8.5 -60.5t7.5 -62.5t25 -53.5t45 -37t67.5 -14t67.5 14t44.5 37t24.5 53t7.5 63z" />
    <glyph glyph-name="uni10D3.case" horiz-adv-x="804" 
d="M211 163q-64 0 -135 -43l-36 66q23 17 50 27t63 14q-23 19 -44 40.5t-37.5 49t-26 62.5t-9.5 82t8.5 92t30.5 80.5t61 57t101 21.5q67 0 100.5 -18t50.5 -56q21 38 59.5 56t106.5 18q65 0 106.5 -21.5t65.5 -56.5t33 -81.5t9 -95.5t-11.5 -92.5t-37 -76.5t-66.5 -52
t-99 -19t-98.5 19t-66.5 52t-38 77t-12 94q0 31 -2.5 61t-12 53.5t-30 38t-56.5 14.5q-38 0 -59.5 -15t-32.5 -39t-14 -54.5t-3 -61.5q0 -63 19.5 -104.5t52 -69t73.5 -45t83.5 -31.5t83.5 -28.5t73.5 -36.5t52 -55.5t19.5 -85.5h-94q0 24 -14 45.5t-37 39.5t-53 32.5
t-61 24.5t-61.5 15.5t-54.5 5.5zM433 457q0 -32 6.5 -60t20.5 -49t37.5 -33t56.5 -12t56.5 12t37.5 33t20.5 49t6.5 60t-4 62.5t-17 54t-37 38t-64 14.5t-63.5 -14.5t-36 -38t-16.5 -54t-4 -62.5z" />
    <glyph glyph-name="uni10D4.case" horiz-adv-x="489" 
d="M242 -13q-96 0 -151 57.5t-55 157.5q0 32 7.5 72.5t23.5 81.5l80 -45q-9 -28 -13.5 -56.5t-4.5 -52.5q0 -60 27 -94.5t89 -34.5q22 0 41 7t33 24t21.5 46t7.5 74v300q0 55 -28.5 79t-73.5 24q-21 0 -43.5 -8t-45 -21.5t-43.5 -32.5t-40 -41v117q78 71 175 71
q39 0 74 -11.5t61.5 -35t41.5 -58t15 -80.5v-296q0 -72 -15.5 -119.5t-42.5 -75t-63 -38.5t-78 -11z" />
    <glyph glyph-name="uni10D5.case" horiz-adv-x="515" 
d="M204 443h65q38 0 65 24.5t27 72.5q0 26 -8.5 43t-23.5 26.5t-35 13.5t-42 4q-42 0 -89 -23t-85 -66v119q33 24 80 39.5t97 15.5t87.5 -14t62.5 -38t37.5 -55t12.5 -65q0 -15 -4 -33t-12.5 -36t-20.5 -34t-28 -28q36 -17 56.5 -49t20.5 -74v-76q0 -62 -17.5 -105t-46 -69
t-66 -37.5t-77.5 -11.5q-48 0 -89 14t-71 41.5t-47 69t-17 96.5q0 35 8.5 73t27.5 76l81 -47q-13 -28 -18.5 -53.5t-5.5 -48.5q0 -35 10 -60.5t27 -42t38.5 -24.5t45.5 -8t46 6t39 21.5t27.5 42.5t10.5 68v73q0 13 -5 27.5t-16 26.5t-27.5 20t-39.5 8h-81v77z" />
    <glyph glyph-name="uni10D6.case" horiz-adv-x="687" 
d="M36 496q0 56 17 96.5t44.5 67t62 39.5t69.5 13q32 0 62.5 -10.5t54.5 -30t38.5 -49t14.5 -66.5q0 -23 -5 -51q10 2 20.5 3.5t22.5 1.5q64 0 105.5 -22.5t65.5 -59.5t33.5 -84.5t9.5 -96.5t-9.5 -96t-33.5 -83.5t-65.5 -58.5t-105.5 -22t-105 22t-65 58.5t-33.5 83.5
t-9.5 96q0 26 6 49q-21 -6 -40 -6q-31 0 -59 13.5t-49 39.5t-33.5 64.5t-12.5 88.5zM558 247q0 32 -3.5 63.5t-15.5 57t-34.5 41.5t-60.5 16q-35 0 -59.5 -15t-39.5 -40t-22 -57t-7 -66q0 -32 4.5 -63.5t17 -56t36.5 -39.5t63 -15q40 0 63.5 15t36.5 39.5t17 55.5t4 64z
M303 522q0 35 -7 55.5t-18.5 31.5t-26.5 14.5t-31 3.5q-17 0 -33.5 -6t-29 -20.5t-20.5 -40t-8 -64.5q0 -24 2.5 -46t11 -38.5t24.5 -26.5t43 -10q28 0 46 13.5t28.5 35t14.5 47.5t4 51z" />
    <glyph glyph-name="uni10D7.case" horiz-adv-x="829" 
d="M689 463q0 31 -3.5 60.5t-15 52.5t-34 37t-60.5 14t-60.5 -15.5t-34.5 -41t-15.5 -57.5t-3.5 -65v-220q0 -46 -11 -89.5t-36 -77t-66 -54t-101 -20.5q-64 0 -105.5 22t-65.5 58.5t-33.5 83.5t-9.5 96v212q0 48 9.5 93.5t34 81t66 57t104.5 21.5q67 0 106 -25t59 -65
q18 41 56 65.5t108 24.5q63 0 102.5 -20.5t62.5 -55t31.5 -80t8.5 -95.5v-214q0 -48 -9.5 -93t-33.5 -81t-64 -59.5t-101 -26.5l-22 86q45 0 72 15t41.5 39.5t19 55.5t4.5 64v216zM369 459q0 31 -4.5 61t-17 54t-36.5 38.5t-63 14.5t-62.5 -14t-36.5 -37.5t-17.5 -54
t-4.5 -62.5v-212q0 -32 4 -63.5t17 -56t37 -39.5t63 -15t63 15t37 39.5t17 55.5t4 64v212z" />
    <glyph glyph-name="uni10D8.case" horiz-adv-x="514" 
d="M382 453q0 32 -5.5 63t-19.5 56t-39.5 40t-64.5 15t-64 -15t-39.5 -39.5t-20 -55.5t-5.5 -63v-228q0 -49 16 -93.5t55 -70.5l-44 -75q-32 18 -54.5 44.5t-37 58t-21.5 66t-7 70.5v229q0 49 11 95t36.5 82t68.5 58t106 22t105.5 -22t68 -58.5t36.5 -83t11 -95.5v-227
q0 -36 -6.5 -71t-21 -66.5t-37.5 -57.5t-56 -44l-41 76q38 26 54 70.5t16 92.5v227z" />
    <glyph glyph-name="uni10D9.case" horiz-adv-x="511" 
d="M220 454h57q17 0 33 3t28 11.5t19.5 23.5t7.5 39q0 27 -9 46t-24.5 31t-36 17.5t-43.5 5.5h-15v85q43 0 83 -10.5t71 -32.5t49.5 -56.5t18.5 -82.5q0 -49 -19 -77.5t-48 -43.5q44 -18 63.5 -47.5t19.5 -72.5v-83q0 -62 -18 -105t-47.5 -69t-67.5 -37.5t-78 -11.5
q-48 0 -89.5 12.5t-72 39t-48.5 66.5t-18 95q0 36 9.5 75.5t28.5 78.5l81 -47q-14 -28 -20 -55.5t-6 -51.5q0 -35 10.5 -59t28 -39t40 -22t46.5 -7t46.5 7t40.5 23.5t29 42.5t11 65v82q0 13 -5 26.5t-16 24t-27.5 17.5t-39.5 7h-73v86z" />
    <glyph glyph-name="uni10DA.case" horiz-adv-x="499" 
d="M129 255q0 -38 14.5 -71t39.5 -57.5t58.5 -39t71.5 -14.5h104v-73h-103q-58 0 -108.5 19.5t-88 55t-59.5 84t-22 106.5v233q0 44 16.5 83t45.5 68t68 46t83 17t83 -17t68 -46t46 -68t17 -83v-235h-93v244q0 25 -9.5 46.5t-26 38t-38 26t-46.5 9.5t-47 -9.5t-38.5 -26
t-26 -38t-9.5 -46.5v-252z" />
    <glyph glyph-name="uni10DB.case" horiz-adv-x="512" 
d="M464 247q0 -49 -9.5 -96t-33.5 -83.5t-65.5 -58.5t-105.5 -22t-105.5 22t-65.5 58.5t-33.5 83.5t-9.5 96t9 96t32.5 83.5t64.5 58.5t106 22q46 0 74 -10.5t49 -31.5v60q0 27 -8.5 46.5t-23.5 31.5t-34.5 17.5t-41.5 5.5q-23 0 -48.5 -7.5t-50 -21t-46.5 -32t-38 -40.5
v117q40 35 88 52.5t95 17.5q39 0 75.5 -11.5t64 -35t44.5 -58t17 -80.5v-280zM371 247q0 33 -4 64t-17 56t-36.5 40t-63.5 15t-64 -15t-36.5 -40t-16.5 -56t-4 -64q0 -32 4 -63.5t17 -56t37 -39.5t63 -15t63 15t37 39.5t17 55.5t4 64z" />
    <glyph glyph-name="uni10DC.case" horiz-adv-x="512" 
d="M48 527q0 46 17 79.5t44.5 55t64 32t75.5 10.5h184v-78h-181q-45 0 -78 -28.5t-33 -82.5v-50q20 20 50.5 31t73.5 11q64 0 105.5 -22.5t64.5 -59.5t32 -84.5t9 -96.5t-9.5 -95.5t-33.5 -82.5t-65.5 -57.5t-105.5 -21.5t-105.5 22t-65.5 58.5t-33.5 83.5t-9.5 96v280z
M141 244q0 -33 4 -63.5t16.5 -54.5t36.5 -38.5t64 -14.5q39 0 63 14.5t36.5 38.5t17 55t4.5 63q0 33 -4 64.5t-17 57t-37 41t-63 15.5q-40 0 -64 -15.5t-36.5 -41t-16.5 -57t-4 -64.5z" />
    <glyph glyph-name="uni10DD.case" horiz-adv-x="780" 
d="M337 463q0 31 -3.5 60.5t-14.5 52.5t-31.5 37t-55.5 14q-39 0 -60 -14.5t-31.5 -38t-12.5 -54t-2 -62.5v-211q0 -33 5 -64t19.5 -55.5t41.5 -39.5t72 -15l-23 -86q-61 3 -101 26.5t-64 59.5t-33.5 81t-9.5 93v214q0 48 7.5 93.5t28.5 80.5t60 56t102 21q66 0 100.5 -24
t52.5 -62q9 20 21.5 36t30.5 27t42.5 17t58.5 6q63 0 101.5 -21.5t60 -57t28.5 -81t7 -93.5v-212q0 -48 -9.5 -93t-33 -81t-64 -59.5t-101.5 -26.5l-21 86q44 0 71 15t41.5 39.5t19 55.5t4.5 64v212q0 32 -2 62t-12 53.5t-31.5 38t-59.5 14.5q-35 0 -56 -14t-32 -37
t-14.5 -52.5t-3.5 -60.5v-247h-93v247z" />
    <glyph glyph-name="uni10DE.case" horiz-adv-x="503" 
d="M212 418h73q32 0 49 18t17 58q0 29 -16.5 44t-41.5 23t-54 13.5t-54 16.5t-41.5 31.5t-16.5 58.5v31h91v-24q0 -16 17 -23t42 -13.5t55 -14t55 -24t42 -44.5t17 -74q0 -47 -12 -74.5t-37 -42.5q35 -15 52.5 -45.5t17.5 -68.5v-50q0 -72 -18.5 -116t-48.5 -69t-69.5 -33.5
t-81.5 -8.5q-53 0 -93 18.5t-66.5 48.5t-40 69.5t-13.5 81.5q0 30 5 57t15 54l89 -24q-7 -23 -11.5 -44t-4.5 -43q0 -62 29.5 -97t100.5 -35q35 0 57.5 10.5t35 29t17.5 44.5t5 57v41q0 13 -6 27t-18.5 25.5t-32.5 19t-48 7.5h-57v84z" />
    <glyph glyph-name="uni10DF.case" horiz-adv-x="644" 
d="M127 453q0 -59 29 -89t68 -30q52 0 76 32t24 83q0 54 -39 125l-86 -16v89l313 57h84v-487q0 -55 -17 -98t-46.5 -72t-70 -44.5t-87.5 -15.5q-51 0 -103 16.5t-114 51.5l44 81q28 -15 49 -27t39.5 -20t36.5 -12t41 -4q58 0 96.5 33t38.5 103v406l-122 -23q36 -87 36 -152
q0 -47 -14.5 -82.5t-40 -59.5t-61 -36.5t-78.5 -12.5q-37 0 -70.5 13t-59.5 39t-41.5 65t-15.5 90q0 35 14 74l81 -46q-4 -15 -4 -31z" />
    <glyph glyph-name="uni10E0.case" horiz-adv-x="803" 
d="M355 273q0 30 -3.5 57.5t-14.5 47.5t-32 32t-55 12q-40 0 -64 -17.5t-36.5 -45.5t-16.5 -61.5t-4 -66.5q0 -20 4.5 -47t19 -51.5t41.5 -42t72 -17.5l-22 -86q-62 3 -102 28t-63.5 63t-33 86t-9.5 98v40q0 98 19 166.5t51 113t74.5 69t89.5 36.5t96 14.5t93 2.5h70v-78
h-78q-53 0 -104.5 -7.5t-94.5 -26t-74 -50.5t-43 -81q22 21 50 33.5t64 12.5q66 0 100 -24t52 -62q20 39 57 62.5t104 23.5q64 0 104 -19.5t62.5 -53.5t30.5 -78.5t8 -93.5q0 -48 -9.5 -95.5t-33 -86.5t-64 -64.5t-101.5 -28.5l-21 86q44 0 71 17.5t41.5 44.5t19 60.5
t4.5 66.5q0 32 -2.5 61t-14 51t-34 35t-62.5 13q-35 0 -57 -12t-34.5 -32t-17 -47.5t-4.5 -57.5v-104h-93v104z" />
    <glyph glyph-name="uni10E1.case" horiz-adv-x="495" 
d="M253 -13q-100 0 -152.5 62t-52.5 175v481h94v-481q0 -78 31 -114.5t78 -36.5q30 0 52 11.5t36 31.5t20.5 46.5t6.5 56.5q0 28 -7.5 60.5t-20.5 65t-31 64t-39 58.5l83 48q24 -35 43.5 -73.5t34 -76t22.5 -73.5t8 -66q0 -62 -17.5 -107.5t-46.5 -74.5t-66 -43t-76 -14z
" />
    <glyph glyph-name="uni10E2.case" horiz-adv-x="718" 
d="M355 378v-185h-93v354q0 39 14 70t37.5 52.5t55.5 32.5t68 11t68.5 -11t56.5 -32.5t38 -52.5t14 -70q0 -19 -5 -38t-15 -35.5t-24.5 -30t-33.5 -20.5q43 -17 70 -39.5t42 -48t20.5 -52t5.5 -51.5q0 -52 -19.5 -97t-57 -78t-93 -51.5t-128.5 -18.5q-92 0 -157.5 28.5
t-106.5 77.5t-60 113.5t-19 135.5q0 80 23 165t65 165l88 -47q-37 -70 -60 -148.5t-23 -150.5q0 -51 11 -97t39 -80.5t75.5 -55t120.5 -20.5q46 0 84 11.5t66 33t43.5 52.5t15.5 70q0 24 -10.5 48.5t-30.5 44.5t-49 32.5t-67 12.5h-69zM355 464h73q18 0 35 4t30.5 13.5
t22 25.5t8.5 40q0 38 -25.5 62t-61.5 24q-35 0 -58.5 -24t-23.5 -62v-83z" />
    <glyph glyph-name="uni10E3.case" horiz-adv-x="582" 
d="M534 201q0 -48 -17.5 -87t-47.5 -67.5t-71 -44t-88 -15.5t-88 15.5t-72 44t-48.5 67.5t-17.5 87q0 18 4 39t10.5 42t15.5 40.5t19 34.5l82 -48q-19 -28 -28 -60.5t-9 -56.5q0 -27 10.5 -49t28.5 -37.5t42 -24t51 -8.5t51 8.5t41.5 24t28 37.5t10.5 49v367
q0 29 -20.5 48.5t-49.5 19.5t-49 -18.5t-20 -47.5v-132h-93v129q0 68 -44 68h-141v78h150q36 0 54 -11t32 -43q17 29 44.5 45.5t70.5 16.5q34 0 63 -12.5t50.5 -34.5t33.5 -51.5t12 -63.5v-349z" />
    <glyph glyph-name="uni10E4.case" horiz-adv-x="797" 
d="M668 498q0 64 -29.5 96.5t-68.5 32.5q-20 0 -39 -8.5t-34 -25t-24 -41t-9 -57.5v-36q0 -54 -11 -101t-36 -82.5t-66 -56t-102 -20.5q-64 0 -105 22t-65 58.5t-33.5 83.5t-9.5 96t9 94.5t33 81t65 56.5t106 21q68 0 107 -24.5t59 -65.5q25 48 68 69t95 21q36 0 69 -13.5
t58.5 -40.5t40.5 -67t15 -93q0 -61 -15 -98.5t-60 -60.5q28 -16 51.5 -41.5t23.5 -58.5v-68q0 -51 -21 -86.5t-55.5 -57t-79 -31t-91.5 -9.5q-63 0 -125 18.5t-109 53.5l51 69q14 -11 34.5 -21t44 -17.5t48.5 -12t48 -4.5q31 0 60 4t51.5 15t36.5 30.5t14 51.5v49
q0 14 -7.5 27t-20 22.5t-28.5 15.5t-34 6h-54v83h55q54 0 71.5 30.5t17.5 90.5zM370 459q0 33 -3.5 63.5t-16 54t-36.5 37.5t-64 14q-39 0 -63 -14t-37 -37.5t-17.5 -54t-4.5 -63.5q0 -32 4.5 -63.5t17 -56t36.5 -39.5t63 -15q40 0 63.5 15t36.5 39.5t17 55.5t4 64z" />
    <glyph glyph-name="uni10E5.case" horiz-adv-x="491" 
d="M237 -13q-96 0 -151 57.5t-55 157.5q0 32 7.5 76t22.5 83l84 -45q-9 -32 -15.5 -63.5t-6.5 -58.5q0 -25 6 -47t19.5 -38.5t36.5 -26t56 -9.5q22 0 41 6.5t32.5 23.5t21 46.5t7.5 75.5v208q0 26 -10 45t-27 31t-38.5 18t-45.5 6t-48 -6t-45 -18.5t-37 -31t-23 -43.5v113
q31 39 70 56t81 17q31 0 63 -12t60 -35v132h93v-480q0 -75 -15.5 -121.5t-42.5 -72.5t-63 -35t-78 -9z" />
    <glyph glyph-name="uni10E6.case" horiz-adv-x="803" 
d="M355 478q0 29 -4.5 56t-17 47.5t-34.5 33t-57 12.5q-38 0 -60 -13.5t-34 -35.5t-15.5 -50.5t-3.5 -59.5q0 -63 19.5 -105t52 -70.5t73.5 -47t83.5 -33.5t83.5 -30.5t73.5 -38.5t52 -57t19.5 -86h-94q0 24 -14 45.5t-37 39.5t-53 32.5t-61 24.5t-61.5 15.5t-54.5 5.5
q-64 0 -135 -43l-36 66q23 17 49.5 29.5t55.5 17.5q-22 18 -41.5 38t-34.5 46t-24 59t-9 76q0 49 8 96t30.5 83.5t62.5 58.5t104 22q66 0 103 -23t57 -63q20 39 57 62.5t104 23.5q64 0 104 -22t62.5 -58.5t30.5 -83.5t8 -96q0 -48 -9.5 -92t-33 -78.5t-64 -57t-101.5 -25.5
l-21 86q44 0 71 14t41.5 37t19 53t4.5 63t-2.5 64t-14 56t-34 40t-62.5 15q-35 0 -57 -12.5t-34.5 -33t-17 -47.5t-4.5 -56v-112h-93v112z" />
    <glyph glyph-name="uni10E7.case" horiz-adv-x="511" 
d="M463 172q0 -46 -16.5 -80.5t-44.5 -58t-64 -35t-75 -11.5q-47 0 -95 17.5t-88 53.5v113q19 -23 41.5 -41t46.5 -30.5t47.5 -19.5t44.5 -7q45 0 78 25t33 80v63q-20 -19 -49.5 -30.5t-71.5 -11.5q-65 0 -106.5 22t-65.5 59t-33 83.5t-9 96.5q0 42 7.5 84t26.5 77.5t50 62
t79 38.5l22 -84q-29 -8 -47 -26.5t-28 -43t-13.5 -53t-3.5 -55.5q0 -33 4 -64t16.5 -56t36 -40t62.5 -15q40 0 64.5 15t37.5 40t17 56t4 64v244h92v-532z" />
    <glyph glyph-name="uni10E8.case" horiz-adv-x="534" 
d="M161 583q0 27 -12.5 35t-35.5 8h-97v78h99q37 0 58.5 -11t36.5 -44q20 34 52.5 48.5t66.5 14.5q29 0 57.5 -10.5t50.5 -29.5t35.5 -47t13.5 -62v-324q0 -63 -19 -110.5t-49.5 -79t-70 -47t-80.5 -15.5t-80 15.5t-70 47t-49.5 78.5t-18.5 110q0 59 17.5 105.5t47 79t67 50
t78.5 17.5q35 0 70.5 -11.5t63.5 -43.5v135q0 29 -22.5 42.5t-48.5 13.5t-47 -9.5t-21 -34.5v-49h-93v50zM393 238q0 40 -10 71t-27 52.5t-39.5 32.5t-48.5 11t-48.5 -11t-40 -32.5t-27.5 -52.5t-10 -71q0 -80 31.5 -122.5t94.5 -42.5t94 42.5t31 122.5z" />
    <glyph glyph-name="uni10E9.case" horiz-adv-x="519" 
d="M48 528q0 46 17 80.5t45 57.5t64.5 34.5t75.5 11.5q48 0 84 -10.5t61 -28.5t37.5 -42.5t12.5 -52.5q0 -19 -5 -38t-17.5 -36t-34 -32.5t-54.5 -27.5l-64 67q27 6 43.5 13t25 15.5t11.5 17t3 17.5q0 23 -25 37.5t-77 14.5q-22 0 -42 -5t-35 -17t-24 -31t-9 -46v-134
q31 26 67 38t68 12q40 0 78 -15.5t66.5 -44.5t46 -71t17.5 -96q0 -30 -8 -62.5t-22.5 -63t-33.5 -59t-40 -51.5l-64 63q13 15 26.5 36t24.5 44t17.5 47t6.5 45q0 37 -10.5 64t-28 44.5t-39.5 26t-45 8.5t-45.5 -7.5t-40.5 -21t-29.5 -33.5t-11.5 -45v-251h-93v528z" />
    <glyph glyph-name="uni10EA.case" horiz-adv-x="679" 
d="M346 427h102q39 0 63 19.5t24 45.5t-14 40.5t-35 23.5t-46 16t-46 18.5t-35 30.5t-14 52v31h90v-26q0 -11 14.5 -18t35.5 -14.5t46.5 -17t46.5 -26t35.5 -41t14.5 -60.5q0 -34 -17 -69.5t-58 -54.5q49 -25 69.5 -58.5t20.5 -90.5q0 -59 -23 -104t-61 -75.5t-88 -46
t-104 -15.5q-65 0 -125 22t-105.5 68t-73 117.5t-27.5 171.5q0 84 33.5 175t91.5 176l85 -47q-27 -36 -48.5 -76t-36.5 -82t-23.5 -83.5t-8.5 -79.5q0 -73 19.5 -125.5t52.5 -86t76.5 -49.5t90.5 -16q36 0 69 9.5t58 28.5t40 47.5t15 65.5q0 24 -8 45.5t-24 38t-41.5 26.5
t-59.5 10h-71v84z" />
    <glyph glyph-name="uni10EB.case" horiz-adv-x="512" 
d="M464 247q0 -49 -9.5 -96t-33.5 -83.5t-65.5 -58.5t-105.5 -22t-105.5 22t-65.5 58.5t-33.5 83.5t-9.5 96t9 96t33 83.5t65.5 58.5t106.5 22q41 0 71 -14.5t50 -37.5v86q0 32 -15 55.5t-39 37.5l23 83q54 -22 89 -65t35 -108v-297zM371 247q0 33 -4 64t-17 56t-36.5 40
t-63.5 15t-64 -15t-36.5 -40t-16.5 -56t-4 -64q0 -32 4 -63.5t17 -56t37 -39.5t63 -15t63 15t37 39.5t17 55.5t4 64z" />
    <glyph glyph-name="uni10EC.case" horiz-adv-x="535" 
d="M373 520h-92v57q0 25 -21 37.5t-47 12.5q-27 0 -49.5 -13.5t-22.5 -42.5v-136q26 27 60 41t70 14q103 0 158.5 -61.5t55.5 -190.5t-58 -190t-161 -61t-160.5 61t-57.5 190v326q0 34 13.5 61.5t36 47t50.5 29.5t57 10q32 0 63 -11t53 -40q15 32 41 41.5t57 9.5h100v-85
h-106q-14 0 -27 -6.5t-13 -29.5v-71zM141 238q0 -80 31 -122.5t94 -42.5t94.5 42.5t31.5 122.5q0 40 -10 71t-27 52.5t-40 32.5t-49 11t-48.5 -11t-39.5 -32.5t-27 -52.5t-10 -71z" />
    <glyph glyph-name="uni10ED.case" horiz-adv-x="549" 
d="M318 705h93v-503q0 -47 -14.5 -86.5t-41.5 -68t-66 -44.5t-88 -16q-29 0 -52 4.5t-43.5 13.5t-40.5 23t-42 34l62 62q28 -26 52 -38.5t62 -12.5q31 0 54 10t37 28t21 42t7 52v500zM237 198q-52 0 -91 15.5t-64.5 42t-38 62t-12.5 75.5t13 76t38.5 63t64.5 43t90 16h275
v-85h-257q-66 0 -99 -32.5t-33 -81.5q0 -45 28.5 -76.5t85.5 -31.5q37 0 63 18.5t40 39.5l62 -57q-14 -12 -32 -27.5t-39 -28.5t-44.5 -22t-49.5 -9z" />
    <glyph glyph-name="uni10EE.case" horiz-adv-x="512" 
d="M48 704h93v-240q20 20 49 31.5t72 11.5q64 0 105.5 -22.5t65.5 -59t33.5 -83.5t9.5 -96t-9.5 -95.5t-33.5 -83t-65.5 -58.5t-105.5 -22t-105.5 22t-65.5 58.5t-33.5 83t-9.5 95.5v458zM141 246q0 -33 4 -64t16.5 -55t36.5 -39t64 -15q39 0 63 15t36.5 39.5t17 55.5
t4.5 63q0 33 -4 64.5t-17 56t-37 40t-63 15.5q-40 0 -64 -15.5t-36.5 -40t-16.5 -56t-4 -64.5z" />
    <glyph glyph-name="uni10EF.case" horiz-adv-x="502" 
d="M77 599h129v105h94v-105h129v-85h-129v-49q0 -29 20 -50.5t46 -42.5l17 -15q42 -35 60 -76.5t18 -85.5q0 -40 -15 -77.5t-41 -66.5t-60.5 -46.5t-72.5 -17.5q-60 0 -105 16.5t-75 46t-45.5 71t-15.5 91.5q0 27 5.5 59t16.5 69l88 -35q-7 -26 -12 -50.5t-5 -42.5
q0 -29 7 -54t23 -44t40 -30t59 -11q29 0 50.5 10.5t36 27t21.5 38t7 44.5q0 31 -12 54t-30 41t-39 34t-39 35t-30 43t-12 57v57h-129v85z" />
    <glyph glyph-name="uni10F0.case" horiz-adv-x="499" 
d="M126 619l-21 85h193q28 0 52.5 -10.5t43 -27.5t29 -40.5t10.5 -48.5q0 -23 -12 -45t-31 -37q21 -14 32 -36.5t11 -44.5q0 -23 -11 -45t-32 -36q23 -15 42 -47t19 -91q0 -53 -10.5 -92t-34.5 -64.5t-62.5 -38.5t-94.5 -13q-104 0 -158.5 54.5t-54.5 163.5q0 25 3.5 49
t11.5 50l90 -24q-5 -21 -8.5 -40t-3.5 -35q0 -72 29.5 -102t100.5 -30q34 0 54 10t29.5 28t12 43t2.5 56q0 22 -5.5 37.5t-14 25.5t-18 14t-17.5 4h-96v84h96q15 0 26 12t11 27q0 16 -11 28t-26 12h-96v84h96q15 0 26 11.5t11 27.5t-12 29t-29 13h-172z" />
    <glyph glyph-name="uni10F1.case" horiz-adv-x="668" 
d="M84 415q2 41 10.5 92.5t27.5 97t51 76.5t80 31q43 0 74.5 -29t31.5 -86q0 -43 -16 -79t-43 -64.5t-61.5 -50.5t-70.5 -37v-5q0 -51 9.5 -102.5t34.5 -93t66.5 -67t106.5 -25.5q36 0 66 3.5t51 12t33 23t12 37.5q0 24 -11.5 38.5t-32 23t-49 13t-61.5 9.5v85q38 -9 59 -13
t30 -4q18 0 34 8.5t16 31.5q0 29 -38 46.5t-101 32.5v83q64 -21 96 -21q14 0 22.5 9t8.5 23q0 17 -8 28t-28 24l-91 56v96l126 -79q41 -26 64 -59t23 -67q0 -52 -33 -81q23 -20 33.5 -44.5t10.5 -46.5q0 -24 -11.5 -47.5t-29.5 -40.5q26 -21 41 -44t15 -61q0 -40 -18.5 -70
t-51.5 -50.5t-78.5 -30.5t-98.5 -10q-85 0 -141.5 31t-91.5 80.5t-50.5 111t-18.5 121.5l-47 -19v83zM251 633q-14 0 -27 -14t-23.5 -38t-18 -57t-10.5 -72q50 29 76 66t26 82q0 33 -23 33z" />
    <glyph glyph-name="uni10F2.case" horiz-adv-x="450" 
d="M379 -17q-34 0 -81 14t-92 42q-70 -37 -160 -60v84q30 1 57.5 4.5t48.5 11.5q-42 38 -71 90.5t-29 113.5v256q0 34 12.5 65t34.5 55t52.5 38t66.5 14q37 0 67 -14t51.5 -37.5t33.5 -54.5t14 -65v-236q0 -72 -29 -126t-82 -96q30 -11 58.5 -14.5t43.5 -5.5h16v-68z
M138 285q0 -66 21.5 -107t53.5 -65q38 29 62 72.5t24 99.5v254q0 17 -5.5 34t-16 30t-25.5 21t-34 8t-33.5 -8t-25 -21t-16 -30t-5.5 -34v-254z" />
    <glyph glyph-name="uni10F3.case" horiz-adv-x="474" 
d="M280 436q42 -1 68 -18.5t41 -46t20 -64.5t5 -73q0 -50 -5.5 -94.5t-25 -77.5t-57.5 -52.5t-102 -19.5q-45 0 -78.5 13t-55.5 36t-33 54.5t-11 68.5q0 92 78 155l52 -48q-44 -46 -44 -104q0 -44 28.5 -69t69.5 -25q32 0 51.5 11.5t30 32.5t14 51t3.5 68q0 127 -70 127
q-12 0 -27 -7.5t-29 -23.5l-51 47l115 186h-182v80h322z" />
    <glyph glyph-name="uni10F4.case" horiz-adv-x="478" 
d="M155 336h63q21 0 39 1t30.5 4.5t19.5 11.5t7 22q0 16 -18 27t-44.5 21.5t-57.5 22t-57.5 29.5t-44.5 43.5t-18 64.5q0 33 13 57.5t34.5 40t49 23.5t56.5 8q31 0 57.5 -9.5t45.5 -25t30 -35.5t11 -40q0 -26 -18 -54.5t-65 -45.5l-52 53q27 10 42 23t15 24q0 15 -18 26
t-49 11q-25 0 -47 -10t-22 -38q0 -20 10 -34t26 -24.5t36.5 -18.5t41.5 -15l-1 1q28 -7 52 -20t41 -30t27 -36.5t10 -39.5q0 -30 -12.5 -51.5t-49.5 -34.5q38 -18 59 -50.5t21 -81.5q0 -78 -51 -123.5t-142 -45.5q-44 0 -77 12t-56 32.5t-34.5 47t-11.5 55.5q0 51 54 101
l63 -42q-17 -20 -23.5 -35t-6.5 -26q0 -26 25 -42.5t66 -16.5q57 0 83 20t26 62q0 31 -12.5 51.5t-33 32.5t-47 17t-54.5 5h-31v75z" />
    <glyph glyph-name="uni10F5.case" horiz-adv-x="534" 
d="M303 369h-71q-85 0 -135 46t-50 126q0 41 13 73t37 53.5t56.5 33t71.5 11.5q73 0 117 -43.5t44 -118.5v-101h112v-80h-112v-37h112v-79h-112v-104q0 -38 -12 -68t-33 -51t-50.5 -32.5t-65.5 -11.5q-39 0 -72 12t-56.5 34t-36.5 54t-13 72q0 39 13 71t37 55t58 35.5
t77 12.5h71v37zM245 253q-18 0 -38 -3t-36.5 -12.5t-27 -28.5t-10.5 -52q0 -42 25 -66t67 -24q25 0 40.5 8t23.5 21t11 27.5t3 28.5v101h-58zM303 547q0 13 -3 28t-11 28t-23.5 21t-40.5 8t-42.5 -7.5t-28.5 -20t-16 -28.5t-5 -34q0 -32 10.5 -50t27 -28t36.5 -12.5t38 -2.5
h58v98z" />
    <glyph glyph-name="uni10F6.case" horiz-adv-x="707" 
d="M302 568q0 22 -3.5 34.5t-10.5 19.5t-17.5 9t-23.5 2q-21 0 -36 -8.5t-21 -35.5h-79q5 36 18 60t32 38t42 19.5t47 5.5t48 -2.5t43 -16.5t31 -43t12 -82v-69q17 17 38.5 29.5t45.5 12.5q38 0 69.5 -13.5t53.5 -38.5t34 -59t12 -74q0 -46 -14 -81.5t-37.5 -59.5t-54 -36
t-63.5 -12q-34 0 -52.5 11t-31.5 28v-63q0 -45 14 -60.5t41 -15.5q20 0 35.5 7t20.5 34h81q-5 -36 -18 -59.5t-32 -37.5t-42.5 -19.5t-48.5 -5.5t-49 4.5t-42.5 21t-30 47.5t-11.5 84v63q-14 -16 -33 -27.5t-50 -11.5q-35 0 -66 12.5t-54 37t-36.5 59.5t-13.5 80
q0 43 13 77.5t35.5 58.5t53.5 36.5t68 12.5q23 0 44.5 -12t38.5 -28v67zM468 248q38 0 60.5 31.5t22.5 76.5q0 46 -22 76t-61 30q-36 0 -60 -26t-24 -80q0 -29 7.5 -49t19.5 -33.5t27 -19.5t30 -6zM219 248q15 0 30 6t26.5 19.5t19 33.5t7.5 49q0 54 -24 80t-59 26
q-40 0 -62 -30.5t-22 -75.5q0 -48 23 -78t61 -30z" />
    <glyph glyph-name="uni10F7.case" horiz-adv-x="479" 
d="M163 453q-69 51 -69 128q0 29 11 53t30 41.5t43.5 27t51.5 9.5t53.5 -7.5t47.5 -24.5t34 -44t13 -67q0 -55 -18 -91.5t-45.5 -63t-59.5 -48.5t-59.5 -47.5t-45.5 -59t-18 -84.5q0 -21 6 -40.5t19.5 -34.5t34 -23.5t49.5 -8.5q46 0 72 25t26 70q0 28 -10.5 53.5
t-34.5 49.5l51 47q38 -29 59 -68t21 -77q0 -46 -15 -80t-40.5 -56.5t-59.5 -33.5t-71 -11q-49 0 -85.5 15.5t-60.5 41t-35.5 59.5t-11.5 72q0 56 18.5 96t45.5 70.5t59.5 54.5t59.5 48.5t45.5 52.5t18.5 66q0 10 -3 22t-9.5 22.5t-18 18t-28.5 7.5q-27 0 -41.5 -18.5
t-14.5 -41.5q0 -15 7.5 -34t24.5 -39z" />
    <glyph glyph-name="uni10F8.case" horiz-adv-x="478" 
d="M129 705v-63q0 -39 7.5 -64.5t19.5 -41.5t28 -22.5t34 -6.5q42 0 62.5 25.5t20.5 60.5q0 18 -7.5 41t-24.5 53l71 32q47 -80 47 -135q0 -38 -14 -67t-37 -48.5t-53.5 -30t-63.5 -10.5q-26 0 -48 6.5t-42 21.5v-273q0 -115 102 -115q49 0 75.5 28t26.5 68q0 52 -55 101
l50 52q90 -58 90 -162q0 -41 -15 -72t-41 -52.5t-60 -32.5t-71 -11q-185 0 -185 197v521h83z" />
    <glyph glyph-name="uni10F9.case" 
 />
    <glyph glyph-name="uni10FA.case" 
 />
    <glyph glyph-name="uni10FB.case" horiz-adv-x="418" 
d="M232 228q0 26 18.5 44.5t44.5 18.5t44.5 -18.5t18.5 -44.5t-18.5 -44.5t-44.5 -18.5t-44.5 18.5t-18.5 44.5zM54 50q0 26 18.5 44.5t44.5 18.5t44 -18.5t18 -44.5t-18 -44.5t-44 -18.5t-44.5 18.5t-18.5 44.5zM54 406q0 26 18.5 44.5t44.5 18.5t44 -18.5t18 -44.5
t-18 -44t-44 -18t-44.5 18t-18.5 44z" />
    <glyph glyph-name="uni10FC.case" 
 />
    <glyph glyph-name="uni10FD.case" 
 />
    <glyph glyph-name="uni10FE.case" 
 />
    <glyph glyph-name="uni10FF.case" 
 />
    <glyph glyph-name="NULL" 
 />
    <glyph glyph-name="10FD" 
 />
    <glyph glyph-name="10FE" 
 />
    <glyph glyph-name="10FF" 
 />
    </font>
</defs>
</svg>
