<?xml version="1.0" standalone="no"?>
<!DOCTYPE svg PUBLIC "-//W3C//DTD SVG 1.1//EN" "http://www.w3.org/Graphics/SVG/1.1/DTD/svg11.dtd" >
<svg xmlns="http://www.w3.org/2000/svg" xmlns:xlink="http://www.w3.org/1999/xlink" version="1.1">
<metadata>
Created by FontForge 20170731 at Wed Apr 18 19:18:30 2018
 By Aleksey,,,
Copyright (c) 2018 by Merab Getsadze. All rights reserved.
</metadata>
<defs>
<font id="PharmadepotNus-Black" horiz-adv-x="0" >
  <font-face 
    font-family="Pharmadepot Nus"
    font-weight="900"
    font-stretch="normal"
    units-per-em="1000"
    panose-1="2 0 0 0 0 0 0 0 0 0"
    ascent="800"
    descent="-200"
    x-height="520"
    cap-height="705"
    bbox="-103 -278 1010 990"
    underline-thickness="50"
    underline-position="-150"
    unicode-range="U+000D-2122"
  />
<missing-glyph horiz-adv-x="410" 
 />
    <glyph glyph-name=".notdef" horiz-adv-x="410" 
 />
    <glyph glyph-name=".null" 
 />
    <glyph glyph-name="nonmarkingreturn" unicode="&#xd;" horiz-adv-x="410" 
 />
    <glyph glyph-name="space" unicode=" " horiz-adv-x="410" 
 />
    <glyph glyph-name="exclam" unicode="!" horiz-adv-x="214" 
d="M53 167v537h116v-537h-116zM45 0v131h132v-131h-132z" />
    <glyph glyph-name="quotedbl" unicode="&#x22;" horiz-adv-x="375" 
d="M195 516v188h127v-188h-127zM39 516v188h127v-188h-127z" />
    <glyph glyph-name="numbersign" unicode="#" horiz-adv-x="653" 
d="M492 400q-2 -17 -4 -26.5t-3.5 -17t-3 -14.5t-3.5 -19h78v-112h-95q-8 -51 -17 -106t-17 -105h-122l33 211h-93q-8 -51 -16.5 -106t-15.5 -105h-124l34 211h-78v112h96l13 77h-80v114h96q8 48 16.5 100t15.5 99h124l-33 -199h93l33 199h121l-31 -199h75v-114h-92z
M277 400l-7.5 -37.5t-7.5 -39.5h93l14 77h-92z" />
    <glyph glyph-name="dollar" unicode="$" horiz-adv-x="626" 
d="M558 208q0 -88 -53.5 -142t-147.5 -67v-69h-109v65q-116 15 -214 113l84 84q37 -36 68.5 -54.5t65.5 -23.5v191q-94 11 -142 65.5t-48 135.5q0 85 49 139.5t137 68.5v58h109v-56q51 -6 93 -29.5t90 -65.5l-84 -83q-26 24 -51 40t-51 21v-186q2 0 3 -0.5t3 -0.5
q107 -23 152.5 -73t45.5 -131zM435 206q0 22 -6.5 37t-18 25t-26 15.5t-30.5 8.5v-176q35 10 58 33t23 57zM252 598q-33 -9 -50 -33t-17 -57q0 -31 21 -50.5t46 -28.5v169z" />
    <glyph glyph-name="percent" unicode="%" horiz-adv-x="806" 
d="M756 145q0 -35 -11.5 -63t-32 -47.5t-48.5 -30.5t-61 -11t-60.5 11t-47.5 30.5t-31.5 47.5t-11.5 63v97q0 34 11.5 62.5t31.5 48t47.5 30.5t60.5 11t61 -11t48.5 -30.5t32 -48t11.5 -62.5v-97zM353 470q0 -34 -11.5 -62t-32 -47.5t-48 -30t-60.5 -10.5t-60.5 10.5
t-47.5 30t-31.5 47.5t-11.5 62v98q0 34 11.5 62t31.5 48t47.5 30.5t60.5 10.5t60.5 -10.5t48 -30.5t32 -48t11.5 -62v-98zM292 0h-114l334 712h114zM649 240q0 26 -10.5 40.5t-35.5 14.5q-46 0 -46 -55v-94q0 -25 11 -39t35 -14q25 0 35.5 14.5t10.5 38.5v94zM247 566
q0 24 -10.5 38.5t-35.5 14.5q-24 0 -35 -14t-11 -39v-94q0 -25 11.5 -39.5t34.5 -14.5q25 0 35.5 14.5t10.5 39.5v94z" />
    <glyph glyph-name="ampersand" unicode="&#x26;" horiz-adv-x="722" 
d="M523 0l-49 60q-14 -11 -32.5 -22.5t-42.5 -21t-53.5 -16t-63.5 -6.5q-54 0 -98 15.5t-74.5 44.5t-47 69t-16.5 90q0 39 10.5 69t28.5 54t41.5 43t49.5 37q-22 29 -40 62t-18 75q0 35 13 65.5t35.5 52.5t54 34.5t68.5 12.5t68 -12.5t54 -35t36 -53t13 -65.5
q0 -56 -30.5 -91.5t-79.5 -65.5l125 -149q8 22 11 53t4 77h120q-1 -73 -13 -129.5t-40 -98.5q26 -30 58 -70t65 -78h-157zM250 330q-16 -11 -31 -23.5t-26 -26.5t-18 -30.5t-7 -35.5q0 -47 31 -76t82 -29q29 0 57.5 8.5t60.5 31.5zM341 552q0 23 -14.5 38t-37.5 15
q-21 0 -34.5 -14t-13.5 -37q0 -16 7 -31.5t30 -42.5l-4 -2l-6 -4l19 -4l-9 10q23 16 43 33.5t20 38.5z" />
    <glyph glyph-name="quotesingle" unicode="'" horiz-adv-x="207" 
d="M42 503v209h115v-209h-115z" />
    <glyph glyph-name="parenleft" unicode="(" horiz-adv-x="260" 
d="M145 -257l-22 24q-29 28 -46.5 51t-27 44.5t-13 43.5t-3.5 49v582q0 27 3.5 49.5t13.5 44t27.5 44t45.5 50.5l22 23l82 -82q-17 -16 -30.5 -30t-23.5 -29.5t-15.5 -33.5t-5.5 -42v-571q0 -24 5.5 -42t15.5 -33t24 -29.5t30 -30.5z" />
    <glyph glyph-name="parenright" unicode=")" horiz-adv-x="260" 
d="M109 748l23 -24q28 -29 45.5 -51.5t27.5 -44t13 -43.5t3 -49v-582q0 -27 -3.5 -49.5t-13.5 -44t-27 -44t-45 -50.5l-23 -23l-81 82l30 30t23.5 29.5t15 33.5t5.5 42v571q0 24 -5.5 42t-15.5 33.5t-23.5 29.5t-29.5 30z" />
    <glyph glyph-name="asterisk" unicode="*" horiz-adv-x="468" 
d="M367 382l-88 55v-107h-104v107q-22 -14 -46 -28.5t-44 -26.5l-53 92l90 50q-23 13 -46.5 26t-43.5 24l53 91l87 -54v106h103v-108q23 14 47.5 29t44.5 27l52 -91l-90 -50l90 -50z" />
    <glyph glyph-name="plus" unicode="+" horiz-adv-x="546" 
d="M321 216v-162h-115v162h-163v116h163v161h115v-161h162v-116h-162z" />
    <glyph glyph-name="comma" unicode="," horiz-adv-x="234" 
d="M37 62q0 32 22 54t54 22t53.5 -23.5t21.5 -57.5l-35 -167h-96l24 102q-20 10 -32 29t-12 41z" />
    <glyph glyph-name="hyphen" unicode="-" horiz-adv-x="402" 
d="M41 218v115h306v-115h-306z" />
    <glyph glyph-name="period" unicode="." horiz-adv-x="222" 
d="M37 63q0 32 22 54t54 22t53.5 -22t21.5 -54t-21.5 -53.5t-53.5 -21.5t-54 21.5t-22 53.5z" />
    <glyph glyph-name="slash" unicode="/" horiz-adv-x="448" 
d="M138 -145h-120l283 851h119z" />
    <glyph glyph-name="zero" unicode="0" horiz-adv-x="527" 
d="M480 196q0 -47 -18.5 -85.5t-49 -65.5t-71 -42t-83.5 -15q-44 0 -84 15t-70.5 42t-49 65.5t-18.5 85.5v309q0 47 18.5 85t49 65t70.5 42t84 15q43 0 83.5 -15t71 -42t49 -65t18.5 -85v-309zM360 501q0 43 -29 71t-73 28t-73 -28t-29 -71v-301q0 -43 29 -71t73 -28t73 28
t29 71v301z" />
    <glyph glyph-name="one" unicode="1" horiz-adv-x="293" 
d="M133 0v546l-7 -7q-11 -10 -27 -24t-32.5 -28.5t-31.5 -28t-24 -22.5v148l139 122h103v-706h-120z" />
    <glyph glyph-name="two" unicode="2" horiz-adv-x="474" 
d="M24 0v94l263 333q17 22 25 40t8 41q0 42 -23 67t-65 25q-18 0 -34 -5t-28 -16.5t-19.5 -29t-7.5 -42.5v-78h-119v78q0 45 15 82.5t42 64.5t65.5 42.5t85.5 15.5q46 0 84.5 -14.5t66 -41t42.5 -64t15 -84.5q0 -44 -14 -77t-45 -72l-196 -247h255v-112h-416z" />
    <glyph glyph-name="three" unicode="3" horiz-adv-x="501" 
d="M466 200q0 -52 -17 -91.5t-47 -66.5t-70 -40.5t-86 -13.5q-44 0 -83.5 13.5t-69.5 41.5t-48 70.5t-21 100.5h119q5 -62 35 -88t68 -26q42 0 71 26.5t29 74.5t-24.5 76.5t-78.5 28.5h-56v112h56q91 0 91 88q0 47 -26 70.5t-62 23.5q-41 0 -65 -29.5t-29 -80.5h-120
q3 52 21 93.5t46.5 70t66 43.5t80.5 15q46 0 84 -14.5t65.5 -41.5t42.5 -65t15 -84q0 -48 -14.5 -82t-46.5 -58q40 -26 57 -67t17 -100z" />
    <glyph glyph-name="four" unicode="4" horiz-adv-x="515" 
d="M404 149v-149h-120v149h-271v104l244 452h138l-238 -444h127v188h120v-188h87v-112h-87z" />
    <glyph glyph-name="five" unicode="5" horiz-adv-x="494" 
d="M459 247q0 -43 -10.5 -89t-36.5 -83.5t-69.5 -62t-109.5 -24.5q-50 0 -89.5 17t-68 46.5t-44.5 70t-19 87.5h119q5 -50 32.5 -79t69.5 -29q31 0 51.5 14t32.5 35t17 46t5 48q0 39 -9.5 67t-25 46t-35 26.5t-39.5 8.5q-29 0 -53 -20.5t-37 -58.5h-111v392h387v-112h-267
v-116q21 15 44 21.5t51 6.5q39 0 77.5 -14t69 -44.5t49.5 -80t19 -119.5z" />
    <glyph glyph-name="six" unicode="6" horiz-adv-x="503" 
d="M335 705l-108 -241q5 1 13 1h12q45 0 84 -15t68.5 -42t46.5 -65t17 -85v-62q0 -47 -18 -85.5t-48.5 -65.5t-70.5 -42t-83 -15q-44 0 -84.5 15t-71.5 42t-49.5 65.5t-18.5 85.5v62q0 6 2 18t5.5 27t8.5 31.5t11 30.5v-1l152 341h132zM348 254q0 42 -28.5 70.5t-71.5 28.5
q-22 0 -41 -7.5t-33 -21t-22 -31.5t-8 -39v-54q0 -43 29.5 -71t74.5 -28q43 0 71.5 28t28.5 71v54z" />
    <glyph glyph-name="seven" unicode="7" horiz-adv-x="453" 
d="M193 0h-125l229 599h-166v-101h-119v207h419v-89z" />
    <glyph glyph-name="eight" unicode="8" horiz-adv-x="501" 
d="M466 208q0 -48 -17 -88t-46.5 -69.5t-70 -46t-86.5 -16.5q-47 0 -87.5 16.5t-70.5 46t-47 69.5t-17 88q0 52 23 92.5t56 68.5q-32 24 -49 57.5t-17 82.5q0 44 15.5 81.5t43.5 64.5t66.5 42t83.5 15t82.5 -15t65.5 -42t43.5 -64.5t15.5 -81.5q0 -49 -16.5 -82.5
t-48.5 -57.5q33 -28 55.5 -68.5t22.5 -92.5zM347 209q0 22 -8 40.5t-21.5 32t-32 21.5t-39.5 8q-44 0 -73 -29t-29 -73q0 -22 8 -41.5t21.5 -34.5t32 -23.5t40.5 -8.5q21 0 39.5 8.5t32 23.5t21.5 34.5t8 41.5zM334 508q0 41 -25 66.5t-63 25.5q-40 0 -64.5 -25.5
t-24.5 -66.5q0 -40 24.5 -63t64.5 -23q38 0 63 23t25 63z" />
    <glyph glyph-name="nine" unicode="9" horiz-adv-x="503" 
d="M155 0l109 236q-8 -1 -13.5 -1h-10.5q-44 0 -83.5 15t-69 42t-46.5 65t-17 85v62q0 47 18 85t49 65t71 42t84 15q43 0 83.5 -15t71 -42t49 -65t18.5 -85v-62q0 -6 -2 -18.5t-5.5 -27.5t-8.5 -31.5t-11 -29.5l-154 -335h-132zM144 446q0 -43 28.5 -71t73.5 -28
q43 0 72.5 28t29.5 71v54q0 43 -29.5 71t-72.5 28q-45 0 -73.5 -28t-28.5 -71v-54z" />
    <glyph glyph-name="colon" unicode=":" horiz-adv-x="222" 
d="M37 152q0 32 22 54t54 22t53.5 -22t21.5 -54t-21.5 -53.5t-53.5 -21.5t-54 21.5t-22 53.5zM37 431q0 31 22 53t54 22t53.5 -22t21.5 -53q0 -32 -21.5 -54t-53.5 -22t-54 22t-22 54z" />
    <glyph glyph-name="semicolon" unicode=";" horiz-adv-x="222" 
d="M37 62q0 32 22 54t54 22t53.5 -23.5t21.5 -57.5l-35 -167h-96l24 102q-20 10 -32 29t-12 41zM37 431q0 31 22 53t54 22t53.5 -22t21.5 -53q0 -32 -21.5 -54t-53.5 -22t-54 22t-22 54z" />
    <glyph glyph-name="less" unicode="&#x3c;" horiz-adv-x="459" 
d="M41 230v92l360 184v-133l-199 -97l199 -98v-132z" />
    <glyph glyph-name="equal" unicode="=" horiz-adv-x="546" 
d="M43 297v115h440v-115h-440zM43 140v114h440v-114h-440z" />
    <glyph glyph-name="greater" unicode="&#x3e;" horiz-adv-x="459" 
d="M41 46v132l197 98q-48 23 -99.5 49t-97.5 48v133l360 -184v-92z" />
    <glyph glyph-name="question" unicode="?" horiz-adv-x="458" 
d="M424 517q0 -18 -5.5 -37t-19 -44.5t-37 -61.5t-59.5 -88q-6 -8 -9.5 -19.5t-3.5 -18.5v-74h-119v75q0 16 2.5 30t9 30t18.5 35.5t31 47.5q24 34 38.5 55t22.5 34t10.5 21t2.5 15q0 35 -23 58.5t-58 23.5q-19 0 -34 -8.5t-25.5 -23.5t-16 -35t-5.5 -42h-120q0 46 15 86.5
t42 70.5t64 47.5t80 17.5q42 0 78.5 -14.5t63 -40t42 -61.5t15.5 -79zM164 0v131h133v-131h-133z" />
    <glyph glyph-name="at" unicode="@" horiz-adv-x="697" 
d="M509 0v18q-20 -11 -44.5 -18t-53.5 -7q-92 0 -142.5 59t-50.5 195q0 134 47.5 194t144.5 60q29 0 53.5 -7t44.5 -19v13q0 57 -29.5 86.5t-83.5 29.5h-121q-51 0 -81 -29.5t-30 -86.5v-313q0 -18 3 -31.5t10.5 -25.5t20 -24t32.5 -27l-84 -84q-29 21 -48 40t-30.5 41
t-16 48.5t-4.5 61.5v312q0 106 57 166.5t164 60.5h137q105 0 163.5 -60.5t58.5 -166.5v-487zM508 247q0 27 -3 53t-12 46t-26 32t-45 12t-45 -12t-26 -32t-11.5 -46t-2.5 -53t2.5 -53t11.5 -46.5t26 -32.5t45 -12t45 12t26 32.5t12 46.5t3 53z" />
    <glyph glyph-name="A" unicode="A" horiz-adv-x="683" 
d="M334 524l-69 -199h139zM226 209l-74 -209h-120l247 706h109l248 -706h-121l-72 209h-217z" />
    <glyph glyph-name="B" unicode="B" horiz-adv-x="615" 
d="M165 599v-176h165q46 0 70 26.5t24 61.5q0 36 -25.5 62t-68.5 26h-165zM165 318v-213h182q23 0 41 9t31 23.5t19.5 33t6.5 37.5q0 47 -31.5 78.5t-82.5 31.5h-166zM45 705h289q47 0 85.5 -15t66.5 -41.5t43 -62t15 -76.5q0 -38 -17.5 -76t-48.5 -61q48 -27 67.5 -69
t19.5 -90q0 -40 -14.5 -78.5t-42.5 -68.5t-67.5 -48.5t-90.5 -18.5h-305v705z" />
    <glyph glyph-name="C" unicode="C" horiz-adv-x="678" 
d="M342 -12q-69 0 -125.5 26t-96 74t-61 115t-21.5 149q0 81 21.5 147t61 113.5t95.5 73.5t126 26q198 0 289 -228l-106 -48q-32 81 -75.5 122t-107.5 41q-44 0 -78 -18.5t-57.5 -51.5t-36 -78t-12.5 -99q0 -53 12.5 -99t36 -80t57.5 -53t78 -19q64 0 110.5 44.5t66.5 117.5
l109 -48q-45 -118 -115.5 -172.5t-170.5 -54.5z" />
    <glyph glyph-name="D" unicode="D" horiz-adv-x="650" 
d="M286 705q67 0 124.5 -26.5t99.5 -74t65.5 -112t23.5 -140.5t-23.5 -140.5t-65.5 -111.5t-99.5 -73.5t-124.5 -26.5h-241v705h241zM479 352q0 49 -14.5 94t-40 79t-61 54t-77.5 20h-121v-494h121q43 0 78.5 20t61 54t39.5 79t14 94z" />
    <glyph glyph-name="E" unicode="E" horiz-adv-x="516" 
d="M492 705v-106h-328v-164h280v-112h-280v-218h328v-105h-448v705h448z" />
    <glyph glyph-name="F" unicode="F" horiz-adv-x="508" 
d="M484 705v-101h-328v-181h281v-100h-281v-323h-120v705h448z" />
    <glyph glyph-name="G" unicode="G" horiz-adv-x="685" 
d="M359 390h273v-390h-91l-12 53q-38 -32 -85.5 -48.5t-101.5 -16.5q-69 0 -125.5 26t-96 74t-61 115t-21.5 149q0 81 21.5 147t61 113.5t95.5 73.5t126 26q195 0 285 -218l-102 -55q-32 80 -75.5 120t-106.5 40q-44 0 -78 -18.5t-58 -51.5t-36.5 -78t-12.5 -99
q0 -53 12.5 -98.5t36 -78.5t57.5 -51.5t78 -18.5q91 0 131 46t46 126h-203z" />
    <glyph glyph-name="H" unicode="H" horiz-adv-x="593" 
d="M164 705v-260h252v260h120v-705h-120v340h-252v-340h-119v705h119z" />
    <glyph glyph-name="I" unicode="I" horiz-adv-x="205" 
d="M160 705v-705h-120v705h120z" />
    <glyph glyph-name="J" unicode="J" horiz-adv-x="500" 
d="M238 -12q-97 0 -149.5 57.5t-52.5 175.5l120 52v-48q0 -55 18.5 -87.5t63.5 -32.5t66.5 32.5t21.5 87.5v481h120v-477q0 -118 -51.5 -179.5t-156.5 -61.5z" />
    <glyph glyph-name="K" unicode="K" horiz-adv-x="627" 
d="M210 354l-45 -41v-313h-120v705h120v-244l266 244h159l-294 -271l311 -434h-141z" />
    <glyph glyph-name="L" unicode="L" horiz-adv-x="439" 
d="M163 706v-601h255v-105h-375v706h120z" />
    <glyph glyph-name="M" unicode="M" horiz-adv-x="758" 
d="M367 174l202 532h127v-706h-120v411l-155 -411h-108l-147 402v-402h-120v706h118z" />
    <glyph glyph-name="N" unicode="N" horiz-adv-x="624" 
d="M167 705l279 -485v485h120v-705h-129l-272 486v-486h-120v705h122z" />
    <glyph glyph-name="O" unicode="O" horiz-adv-x="710" 
d="M347 105q45 0 80 19t59.5 52.5t37.5 78.5t13 97q0 54 -13 99t-37.5 78t-59.5 51.5t-80 18.5q-44 0 -79 -18.5t-59.5 -51t-37.5 -78t-13 -99.5q0 -53 13 -98.5t37.5 -78.5t59.5 -51.5t79 -18.5zM38 352q0 82 22.5 148.5t63.5 113.5t98 72.5t125 25.5q71 0 128 -25.5
t97.5 -72.5t62.5 -113.5t22 -148.5q0 -83 -22.5 -150t-63 -114.5t-98 -73.5t-126.5 -26q-70 0 -127 26t-97.5 74t-62.5 115t-22 149z" />
    <glyph glyph-name="P" unicode="P" horiz-adv-x="546" 
d="M287 705q44 0 82.5 -17.5t67 -47t45 -68t16.5 -79.5t-16.5 -79t-45 -67.5t-67 -47.5t-82.5 -18h-123v-281h-120v705h243zM164 387h123q21 0 37.5 10t28.5 25.5t18.5 35t6.5 39.5q0 19 -6.5 37t-18.5 32.5t-29 23.5t-37 9h-123v-212z" />
    <glyph glyph-name="Q" unicode="Q" horiz-adv-x="708" 
d="M446 247l53 -48q19 35 27.5 74.5t8.5 82.5q0 56 -14 101t-39.5 76.5t-60.5 48.5t-78 17t-77.5 -18t-58.5 -50t-36.5 -76t-12.5 -97q0 -59 13 -106t37 -79.5t57 -50t73 -17.5q23 0 43 4t39 15l-90 75zM38 358q0 79 21.5 144.5t61.5 112t96.5 72t125.5 25.5q70 0 127.5 -26
t98.5 -73.5t63.5 -113t22.5 -143.5q0 -68 -19.5 -127.5t-48.5 -107.5q17 -15 38 -33t37 -31l-76 -83l-74 66q-39 -28 -82.5 -40t-91.5 -12q-66 0 -121.5 26.5t-95 74.5t-61.5 116.5t-22 152.5z" />
    <glyph glyph-name="R" unicode="R" horiz-adv-x="587" 
d="M572 0h-129l-175 315h-103v-315h-120v705h258q47 0 88 -14t71 -40t47 -62.5t17 -80.5q0 -29 -9 -57t-26 -52t-42 -43.5t-57 -29.5zM165 420h138q25 0 44.5 7.5t32.5 20t19.5 28.5t6.5 32q0 36 -27.5 63.5t-75.5 27.5h-138v-179z" />
    <glyph glyph-name="S" unicode="S" horiz-adv-x="593" 
d="M286 712q44 0 86.5 -13.5t77 -40.5t57 -68.5t26.5 -97.5l-109 -58v56q0 23 -11 43t-30 34.5t-44.5 23t-54.5 8.5q-23 0 -44 -5t-37 -14.5t-25.5 -24.5t-9.5 -35q0 -29 16 -47.5t42.5 -31.5t60 -22.5t69 -20.5t69 -25.5t60 -36.5t42.5 -54t16 -78q0 -54 -19 -94.5
t-53 -67.5t-79.5 -40.5t-99.5 -13.5q-45 0 -89 13t-80 39.5t-59.5 66.5t-27.5 95l117 68q1 -87 35.5 -128t103.5 -41q66 0 99 29t33 69q0 27 -16 44.5t-42.5 29.5t-60.5 21t-69 20t-69 25.5t-60.5 38.5t-42.5 59t-16 86q0 47 20.5 82.5t54 59t76 35.5t87.5 12z" />
    <glyph glyph-name="T" unicode="T" horiz-adv-x="583" 
d="M534 705v-106h-184v-599h-120v599h-193v106h497z" />
    <glyph glyph-name="U" unicode="U" horiz-adv-x="624" 
d="M165 705v-446q0 -71 36 -114.5t101 -43.5q31 0 57.5 11.5t45.5 32t30 49.5t11 65v446h120v-444q0 -63 -20 -113.5t-55.5 -86t-83.5 -54.5t-105 -19q-58 0 -105.5 19t-81 54.5t-52 86t-18.5 113.5v444h120z" />
    <glyph glyph-name="V" unicode="V" horiz-adv-x="634" 
d="M128 706l182 -523l15 42q42 117 84 240.5t82 240.5h121l-247 -706h-109l-247 706h119z" />
    <glyph glyph-name="W" unicode="W" horiz-adv-x="865" 
d="M600 228l116 477h119l-176 -705h-117l-117 470l-119 -470h-117l-177 705h121l116 -479l116 479h117z" />
    <glyph glyph-name="X" unicode="X" horiz-adv-x="650" 
d="M484 705h135l-234 -340l250 -365h-135l-182 266l-182 -266h-135l250 366q-23 33 -45.5 65t-45.5 65l-143 209h135l166 -244z" />
    <glyph glyph-name="Y" unicode="Y" horiz-adv-x="628" 
d="M251 260q-30 53 -61 109.5t-62.5 113.5t-63 113t-60.5 109h130l173 -324l173 324h131l-240 -446v-259h-120v260z" />
    <glyph glyph-name="Z" unicode="Z" horiz-adv-x="567" 
d="M527 706v-96l-358 -505h372v-105h-527v95l357 504h-341v107h497z" />
    <glyph glyph-name="bracketleft" unicode="[" horiz-adv-x="307" 
d="M267 705v-106h-106v-651h106v-105h-225v862h225z" />
    <glyph glyph-name="backslash" unicode="\" horiz-adv-x="510" 
d="M150 706l367 -839h-119l-370 839h122z" />
    <glyph glyph-name="bracketright" unicode="]" horiz-adv-x="307" 
d="M34 -157v105h105v651h-105v106h225v-862h-225z" />
    <glyph glyph-name="asciicircum" unicode="^" horiz-adv-x="491" 
d="M281 706l160 -301l-97 -56l-99 182l-99 -182l-96 56l160 301h71z" />
    <glyph glyph-name="underscore" unicode="_" horiz-adv-x="625" 
d="M558 -13v-90h-514v90h514z" />
    <glyph glyph-name="grave" unicode="`" horiz-adv-x="302" 
d="M31 704h138l103 -173h-137z" />
    <glyph glyph-name="a" unicode="a" horiz-adv-x="573" 
d="M278 422q-95 0 -108 -88l-118 46q22 71 82 111t143 40q108 0 162.5 -47t54.5 -135v-204q0 -24 9 -30t38 -6v-109h-47q-32 0 -55 10t-37 27q-32 -23 -75 -35.5t-89 -12.5q-85 0 -139.5 39.5t-59.5 118.5q0 22 9 47.5t28.5 48t49 40.5t70.5 27q37 6 70 12.5t58 13.5
t40 15.5t15 19.5q0 21 -27 36t-74 15zM379 236q-18 -8 -39.5 -14.5t-42.5 -11t-41 -7.5t-35 -5l-25 -4q-17 -8 -29.5 -20t-12.5 -26q0 -24 24 -37t60 -13q25 0 50 5t45.5 16t33 28t12.5 41v48z" />
    <glyph glyph-name="b" unicode="b" horiz-adv-x="550" 
d="M164 693v-201q24 20 53 30t61 10q47 0 87 -19.5t69 -55t45.5 -84.5t16.5 -107q0 -64 -17 -115.5t-46.5 -87.5t-70 -55.5t-87.5 -19.5q-35 0 -66.5 9.5t-57.5 29.5q-2 -7 -3.5 -14.5l-2.5 -12.5h-99v693h118zM272 421q-24 0 -44 -13.5t-34.5 -36t-22 -52t-7.5 -62.5
q0 -69 29.5 -111t78.5 -42q24 0 44 11.5t34 32t21.5 48.5t7.5 61q0 34 -7.5 64t-21.5 52.5t-34 35t-44 12.5z" />
    <glyph glyph-name="c" unicode="c" horiz-adv-x="522" 
d="M272 532q36 0 70 -11.5t62.5 -34t49.5 -55.5t29 -75l-106 -48q-11 51 -40 82t-65 31q-28 0 -50 -13t-37 -35.5t-22.5 -52.5t-7.5 -63q0 -69 30 -111t87 -42q37 0 66.5 23.5t46.5 80.5l97 -54q-12 -41 -33.5 -71.5t-49.5 -51.5t-60.5 -31.5t-66.5 -10.5q-54 0 -97.5 20.5
t-73.5 56.5t-46.5 85t-16.5 106q0 59 16.5 109.5t47.5 87t74 57.5t96 21z" />
    <glyph glyph-name="d" unicode="d" horiz-adv-x="550" 
d="M488 693v-697h-100l-6 31q-26 -20 -57 -29.5t-66 -9.5q-47 0 -87.5 19.5t-70 55.5t-46.5 87.5t-17 115.5q0 58 16.5 107t45.5 84.5t69 55t87 19.5q29 0 60 -10.5t55 -29.5v201h117zM262 421q-24 0 -44 -12.5t-34 -35t-21.5 -52.5t-7.5 -64q0 -33 7.5 -62t21.5 -50
t34 -33.5t44 -12.5t44 12t34.5 33t22.5 50t8 63q0 33 -8 62.5t-22.5 52t-34.5 36t-44 13.5z" />
    <glyph glyph-name="e" unicode="e" horiz-adv-x="550" 
d="M161 209q10 -54 38.5 -82t67.5 -28q32 0 64.5 21.5t54.5 69.5l103 -52q-37 -67 -93 -108.5t-120 -41.5q-49 0 -92.5 19.5t-75.5 55.5t-51 86t-19 111q0 127 60.5 199.5t171.5 72.5q49 0 90.5 -20t71.5 -56t47 -86t17 -110v-51h-335zM267 421q-38 0 -69.5 -27t-38.5 -76
h218q-2 24 -12.5 43t-26 32.5t-34 20.5t-37.5 7z" />
    <glyph glyph-name="f" unicode="f" horiz-adv-x="301" 
d="M70 520v24q0 71 33.5 110t104.5 39h65v-112h-60q-12 0 -18.5 -8.5t-6.5 -32.5v-20h85v-99h-85v-421h-118v421h-47v99h47z" />
    <glyph glyph-name="g" unicode="g" horiz-adv-x="550" 
d="M489 520v-551q0 -39 -16 -72.5t-45 -57.5t-68.5 -37.5t-87.5 -13.5q-39 0 -73.5 12t-63 33.5t-49 51t-30.5 65.5l108 48q11 -48 40.5 -77t68.5 -29q49 0 73.5 26.5t24.5 71.5v30q-24 -14 -53.5 -23t-58.5 -9q-47 0 -87.5 19.5t-70.5 55.5t-47 87.5t-17 115.5
q0 58 16.5 107t46 84t69.5 54.5t87 19.5q29 0 60 -10.5t55 -28.5v28h118zM262 421q-24 0 -44 -12.5t-34 -35t-21.5 -52.5t-7.5 -64q0 -33 7.5 -62t21.5 -50t34 -33.5t44 -12.5t44.5 12t34.5 33t22 50t8 63q0 33 -8 62.5t-22 52t-34.5 36t-44.5 13.5z" />
    <glyph glyph-name="h" unicode="h" horiz-adv-x="549" 
d="M163 693v-199q45 38 116 38q44 0 82.5 -16.5t66.5 -45t44 -68.5t16 -86v-316h-117v299q0 55 -30.5 88.5t-77.5 33.5q-48 0 -74 -34t-26 -88v-299h-117v693h117z" />
    <glyph glyph-name="i" unicode="i" horiz-adv-x="205" 
d="M158 520v-520h-117v520h117zM41 663h117v-97h-117v97z" />
    <glyph glyph-name="j" unicode="j" horiz-adv-x="324" 
d="M272 520v-574q0 -69 -40 -107.5t-107 -38.5h-56l-42 99h93q21 0 28 13.5t7 60.5v547h117zM155 663h117v-97h-117v97z" />
    <glyph glyph-name="k" unicode="k" horiz-adv-x="511" 
d="M163 693v-340l176 167h163l-235 -215l230 -305h-140l-170 227l-24 -24v-203h-117v693h117z" />
    <glyph glyph-name="l" unicode="l" horiz-adv-x="204" 
d="M157 693v-693h-116v693h116z" />
    <glyph glyph-name="m" unicode="m" horiz-adv-x="755" 
d="M159 0h-118v520h118v-12q19 13 40.5 18.5t47.5 5.5q38 0 72 -16t57 -47q25 29 60.5 46t73.5 17q40 0 73.5 -16t58 -44t38 -66.5t13.5 -84.5v-321h-118v322q0 48 -22.5 73.5t-53.5 25.5q-32 0 -51 -26t-19 -73v-322h-118v322q0 48 -22 73.5t-54 25.5t-54 -25.5t-22 -73.5
v-322z" />
    <glyph glyph-name="n" unicode="n" horiz-adv-x="557" 
d="M163 520v-25q25 17 57 27t66 10q45 0 83 -15.5t66 -44t44 -67.5t16 -85v-320h-117v302q0 56 -30 87.5t-77 31.5q-48 0 -78 -32.5t-30 -86.5v-302h-117v520h117z" />
    <glyph glyph-name="o" unicode="o" horiz-adv-x="553" 
d="M265 532q49 0 92 -19.5t74.5 -55.5t49.5 -86.5t18 -113.5q0 -62 -17.5 -112t-48.5 -85t-74 -53.5t-94 -18.5t-93 18.5t-71.5 53.5t-46 85t-16.5 112t16.5 113t46.5 87t72 55.5t92 19.5zM381 257q0 75 -31 119.5t-85 44.5q-28 0 -48.5 -12.5t-34 -35t-20 -52.5t-6.5 -64
q0 -75 28 -116.5t82 -41.5q55 0 85 43t30 115z" />
    <glyph glyph-name="p" unicode="p" horiz-adv-x="550" 
d="M46 -191v711h109v-29q27 20 58 30.5t62 10.5q47 0 87.5 -19.5t70 -56t46.5 -88t17 -115.5q0 -59 -16.5 -107.5t-45.5 -83.5t-69 -54.5t-87 -19.5q-68 0 -114 39v-218h-118zM272 99q24 0 44 12.5t34 34.5t21.5 52t7.5 64q0 33 -7.5 62t-21.5 50.5t-34 34t-44 12.5t-44 -12
t-34.5 -33.5t-22 -50.5t-7.5 -63q0 -33 7.5 -62.5t22 -52t34.5 -35.5t44 -13z" />
    <glyph glyph-name="q" unicode="q" horiz-adv-x="542" 
d="M371 -200v227q-25 -20 -54.5 -29.5t-60.5 -9.5q-47 0 -87 19.5t-69.5 54.5t-46 83.5t-16.5 107.5q0 64 17 115.5t47 88t70.5 56t87.5 19.5q31 0 62 -10.5t58 -30.5v29h109v-720h-117zM262 99q24 0 44 13t34.5 35.5t22.5 52t8 62.5q0 34 -8 63t-22.5 50.5t-34.5 33.5
t-44 12t-44 -12.5t-34 -34t-21.5 -50.5t-7.5 -62q0 -34 7.5 -64t21.5 -52t34 -34.5t44 -12.5z" />
    <glyph glyph-name="r" unicode="r" horiz-adv-x="344" 
d="M152 520v-41q23 23 57.5 37.5t89.5 14.5v-110q-41 0 -69 -7t-45.5 -22.5t-25 -40.5t-7.5 -60v-291h-117v520h117z" />
    <glyph glyph-name="s" unicode="s" horiz-adv-x="522" 
d="M254 532q89 0 145 -46t70 -131l-115 -41q-3 28 -12.5 49.5t-23.5 35t-31 20.5t-34 7q-29 0 -51 -13t-22 -39q0 -27 30.5 -38.5t81.5 -21.5q52 -11 86 -26.5t54.5 -37t28.5 -49t8 -61.5q0 -36 -16 -64.5t-44 -48t-66.5 -29.5t-83.5 -10q-40 0 -77.5 10.5t-68 33t-51 57
t-25.5 83.5l113 36q3 -51 31.5 -80t70.5 -29q50 0 75 11.5t25 38.5q0 13 -8 22t-21 15t-28 9.5t-29 6.5q-39 7 -75.5 18.5t-65 31.5t-45.5 51t-17 76q0 21 8 47.5t29.5 50t58.5 39.5t95 16z" />
    <glyph glyph-name="t" unicode="t" horiz-adv-x="344" 
d="M97 520v173h117v-173h85v-99h-85v-243q0 -47 4.5 -63t21.5 -16h59v-99h-67q-66 0 -100.5 39.5t-34.5 108.5v273h-62v99h62z" />
    <glyph glyph-name="u" unicode="u" horiz-adv-x="549" 
d="M373 0v30q-26 -19 -59.5 -30.5t-67.5 -11.5q-44 0 -80.5 15t-63 42.5t-41.5 66.5t-15 86v322h116v-302q0 -55 26.5 -87t74.5 -32t78 31t30 88v302h116v-520h-114z" />
    <glyph glyph-name="v" unicode="v" horiz-adv-x="573" 
d="M156 520l123 -375l123 375h123l-194 -520h-106l-193 520h124z" />
    <glyph glyph-name="w" unicode="w" horiz-adv-x="750" 
d="M134 520l84 -321q21 78 44.5 161t44.5 160h116l88 -325l85 325h119l-149 -520h-109l-93 335q-23 -83 -46.5 -168.5t-45.5 -166.5h-109l-149 520h120z" />
    <glyph glyph-name="x" unicode="x" horiz-adv-x="544" 
d="M138 0h-137l195 269q-20 29 -43 61.5t-47 65t-47 64.5t-43 60h138l109 -157q26 38 55 78.5t55 78.5h138l-178 -252q22 -31 47 -65t50 -69t49.5 -69t47.5 -65h-137l-127 173z" />
    <glyph glyph-name="y" unicode="y" horiz-adv-x="524" 
d="M130 -90q13 0 23.5 11.5t18 28t12 35t4.5 31.5q0 8 -1 18t-5 20l-173 466h123l123 -337l128 337h117l-198 -533q-14 -36 -31 -69.5t-38.5 -59.5t-47 -42t-55.5 -16h-61v110h61z" />
    <glyph glyph-name="z" unicode="z" horiz-adv-x="459" 
d="M431 520v-87l-274 -334h274v-99h-417v91l271 330h-257v99h403z" />
    <glyph glyph-name="braceleft" unicode="{" horiz-adv-x="330" 
d="M34 278q13 5 24.5 15t19 23.5t12 28.5t4.5 30v190q0 140 109 140h86v-85q-44 0 -59.5 -20.5t-15.5 -58.5v-184q0 -70 -30 -103q17 -16 23.5 -39.5t6.5 -65.5v-201q0 -37 21.5 -47t53.5 -10v-94h-86q-109 0 -109 138v196q0 31 -17 60t-43 39v48z" />
    <glyph glyph-name="bar" unicode="|" horiz-adv-x="200" 
d="M156 712v-845h-119v845h119z" />
    <glyph glyph-name="braceright" unicode="}" horiz-adv-x="341" 
d="M289 230q-26 -10 -43 -39t-17 -60v-196q0 -138 -109 -138h-86v94q32 0 53.5 10t21.5 47v201q0 42 6.5 65.5t23.5 39.5q-30 33 -30 103v184q0 38 -15.5 58.5t-59.5 20.5v85h86q109 0 109 -140v-190q0 -15 4.5 -30t12 -28.5t18.5 -23.5t25 -15v-48z" />
    <glyph glyph-name="asciitilde" unicode="~" horiz-adv-x="608" 
d="M32 236q41 59 87.5 86t96.5 27q26 0 48.5 -10t43 -21.5t41 -21.5t41.5 -10q6 0 14.5 7.5t17.5 19t17.5 25.5t14.5 27l97 -71q-28 -56 -69 -89t-94 -33q-23 0 -47 9.5t-46.5 21.5t-43.5 21.5t-37 9.5q-12 0 -32.5 -18.5t-43.5 -54.5z" />
    <glyph glyph-name="exclamdown" unicode="&#xa1;" horiz-adv-x="214" 
d="M169 0h-121v528h110zM169 712v-130h-132v130h132z" />
    <glyph glyph-name="cent" unicode="&#xa2;" horiz-adv-x="548" 
d="M337 633v-93q32 -8 61 -25t51.5 -44t36.5 -63t16 -81h-112q-12 67 -53 91v-305q37 23 58 88h109q-6 -43 -21 -78t-37 -61.5t-50 -44t-59 -24.5v-72h-119v75q-41 11 -73.5 35.5t-55 59.5t-34.5 79t-12 94q0 104 47 177.5t128 96.5v95h119zM163 264q0 -47 14 -84.5
t41 -57.5v289q-27 -23 -41 -62t-14 -85z" />
    <glyph glyph-name="sterling" unicode="&#xa3;" horiz-adv-x="555" 
d="M254 244v-143h255v-101h-375v244h-106l55 116h51v147q0 45 15 82.5t42 64.5t65.5 42.5t85.5 15.5q63 0 112.5 -31t81.5 -87l-103 -63q-17 32 -39.5 50t-51.5 18q-35 0 -61.5 -21.5t-26.5 -71.5v-146h141l-53 -116h-88z" />
    <glyph glyph-name="currency" unicode="&#xa4;" horiz-adv-x="610" 
d="M34 121l86 86q-10 20 -16.5 44t-6.5 47q0 22 6 45.5t16 44.5l-85 85l83 83l87 -86q39 20 87 20q46 0 90 -22l88 89l84 -84l-90 -90q20 -42 20 -85q0 -47 -21 -86q22 -22 46 -46.5t45 -44.5l-83 -84l-89 89q-21 -10 -45 -16t-47 -6q-48 0 -85 20l-87 -87zM228 361
q-14 -13 -19.5 -29.5t-5.5 -33.5q0 -18 7 -33.5t19 -27.5t27.5 -19t33.5 -7t34 7t28 19t19.5 27.5t7.5 33.5t-7.5 34t-19.5 28t-28 19t-34 7q-37 0 -62 -25z" />
    <glyph glyph-name="yen" unicode="&#xa5;" horiz-adv-x="631" 
d="M83 79v114h165v14h-165v115h122q-49 92 -102 192t-101 191h127l175 -341l175 341h127l-198 -383h116v-115h-156v-14h156v-114h-156v-79h-120v79h-165z" />
    <glyph glyph-name="brokenbar" unicode="&#xa6;" horiz-adv-x="244" 
d="M58 260h119v-456h-119v456zM58 705h119v-425h-119v425z" />
    <glyph glyph-name="section" unicode="&#xa7;" horiz-adv-x="534" 
d="M297 496q6 21 8.5 36t2.5 25q0 23 -15.5 37t-34.5 14q-17 0 -32.5 -13t-15.5 -39q0 -12 2.5 -21t9.5 -18.5t19 -20t32 -23.5q51 -36 88.5 -63.5t62 -54.5t36.5 -56t12 -66q0 -47 -25.5 -89.5t-71.5 -62.5q25 -31 39 -68t14 -69q0 -34 -13 -63t-36 -50.5t-53.5 -33.5
t-65.5 -12q-42 0 -74.5 13t-54 33.5t-33 46.5t-11.5 53q0 18 2.5 38t5.5 40h128q-6 -25 -9.5 -44.5t-3.5 -30.5q0 -18 14.5 -30.5t34.5 -12.5q23 0 34 19.5t11 37.5q0 32 -25 58t-70 56q-33 22 -63.5 44t-53 47.5t-36 55.5t-13.5 68q0 48 28 88.5t77 60.5q-28 26 -44 59.5
t-16 65.5q0 28 11 57t32.5 52t53 37.5t72.5 14.5q38 0 70 -13t55 -35t35.5 -52.5t12.5 -64.5q0 -11 -3 -24t-6 -27h-124zM165 275q0 -25 12.5 -45.5t31.5 -35.5t40.5 -23t38.5 -8q23 0 41.5 19.5t18.5 52.5q0 22 -11 42.5t-26.5 36.5t-33.5 25t-33 9q-33 0 -56 -20t-23 -53z
" />
    <glyph glyph-name="dieresis" unicode="&#xa8;" horiz-adv-x="434" 
d="M226 607q0 32 21.5 54t53.5 22t54 -22t22 -54q0 -31 -22 -53.5t-54 -22.5t-53.5 22.5t-21.5 53.5zM41 607q0 32 22 54t54 22t53.5 -22t21.5 -54q0 -31 -21.5 -53.5t-53.5 -22.5t-54 22.5t-22 53.5z" />
    <glyph glyph-name="copyright" unicode="&#xa9;" horiz-adv-x="843" 
d="M47 319q0 72 26 133.5t70.5 106t104.5 70t129 25.5q68 0 128 -25.5t104.5 -70t70.5 -106t26 -133.5t-26 -133t-70.5 -106t-104.5 -70t-128 -25q-69 0 -129 25t-104.5 70t-70.5 106t-26 133zM141 319q0 -52 18.5 -96.5t50.5 -77t75 -51t92 -18.5q48 0 90.5 18.5t74 51
t50 77t18.5 96.5t-18.5 96.5t-50 77.5t-74 52t-90.5 19q-49 0 -92 -19t-75 -52t-50.5 -77.5t-18.5 -96.5zM453 357q-5 36 -28 56.5t-49 20.5q-45 0 -67 -35t-22 -86q0 -54 22 -85.5t67 -31.5q27 0 49.5 15.5t34.5 56.5h108q-5 -42 -23.5 -75t-45.5 -55.5t-59.5 -34.5
t-63.5 -12q-44 0 -82 17t-65.5 47t-43.5 70.5t-16 87.5q0 49 16 90.5t44 71.5t65.5 47t81.5 17q32 0 65 -12t60 -35.5t45 -57.5t20 -77h-113z" />
    <glyph glyph-name="guillemotleft" unicode="&#xab;" horiz-adv-x="521" 
d="M267 328l-92 -72q21 -17 46.5 -36t45.5 -34v-134l-224 172v67l224 170v-133zM459 461v-135l-93 -69l93 -71v-131l-224 167v70z" />
    <glyph glyph-name="logicalnot" unicode="&#xac;" horiz-adv-x="600" 
d="M547 411v-241h-111v131h-405v110h516z" />
    <glyph glyph-name="softhyphen" unicode="&#xad;" horiz-adv-x="422" 
d="M54 340h298v-131h-298v131z" />
    <glyph glyph-name="registered" unicode="&#xae;" horiz-adv-x="833" 
d="M47 319q0 72 26 133.5t70.5 106t104.5 70t129 25.5q68 0 128 -25.5t104.5 -70t70.5 -106t26 -133.5t-26 -133t-70.5 -106t-104.5 -70t-128 -25q-69 0 -129 25t-104.5 70t-70.5 106t-26 133zM149 319q0 -49 17 -91t47 -74v330q-30 -32 -47 -74t-17 -91zM258 117
q54 -34 119 -34q32 0 61.5 9t55.5 25h-43l-105 137h-21v-137h-67zM377 555q-51 0 -97 -22h115q33 0 62 -11.5t50.5 -31.5t33.5 -46t12 -55q0 -37 -21 -71t-60 -51l77 -102q24 29 39 69t15 85q0 50 -18 93t-48.5 75t-72 50t-87.5 18zM325 350h56q29 0 44.5 12.5t15.5 27.5
t-15.5 28t-44.5 13h-56v-81z" />
    <glyph glyph-name="macron" unicode="&#xaf;" horiz-adv-x="448" 
 />
    <glyph glyph-name="degree" unicode="&#xb0;" horiz-adv-x="347" 
d="M167 692q-32 0 -32 -35q0 -38 32 -38q15 0 24 10t9 28q0 17 -9 26t-24 9zM167 792q58 0 93 -37.5t35 -97.5q0 -63 -32 -100t-96 -37q-63 0 -95.5 37t-32.5 100q0 60 35.5 97.5t92.5 37.5z" />
    <glyph glyph-name="plusminus" unicode="&#xb1;" horiz-adv-x="590" 
d="M209 423q0 32 22 54t54 22t53.5 -22t21.5 -54t-21.5 -53.5t-53.5 -21.5t-54 21.5t-22 53.5zM44 225v112h480v-112h-480zM209 140q0 32 22 53.5t54 21.5t53.5 -21.5t21.5 -53.5t-21.5 -54t-53.5 -22t-54 22t-22 54z" />
    <glyph glyph-name="twosuperior" unicode="&#xb2;" horiz-adv-x="520" 
d="M61.918 332v50.5342l141.565 179.021q9.15039 11.8262 13.4561 21.5039q4.30664 9.67578 4.30664 22.041q0 22.5791 -12.3799 36.0195q-12.3809 13.4395 -34.9873 13.4395q-9.68945 0 -18.3018 -2.6875q-8.6123 -2.68848 -15.0713 -8.87109
q-6.45898 -6.18164 -10.4961 -15.5898t-4.03711 -22.8477v-41.9336h-64.0547v41.9336q0 24.1914 8.07422 44.3516t22.6074 34.6748t35.2568 22.8477t46.0225 8.33301q24.7598 0 45.4834 -7.79492t35.5254 -22.042q14.8027 -14.2461 22.877 -34.4062
q8.07324 -20.1592 8.07324 -45.4268q0 -23.6543 -7.53516 -41.3945q-7.53613 -17.7412 -24.2227 -38.707l-105.5 -132.787h137.258v-60.2109h-223.92z" />
    <glyph glyph-name="threesuperior" unicode="&#xb3;" horiz-adv-x="530" 
d="M273.725 441.166q0 -27.8633 -9.11035 -49.0283q-9.11035 -21.166 -25.1865 -35.6328q-16.0771 -14.4678 -37.5127 -21.7012t-46.0869 -7.2334q-23.5781 0 -44.7461 7.2334t-37.2441 22.2373q-16.0771 15.0029 -25.7227 37.7754q-9.64648 22.7725 -11.2539 53.8506
h63.7705q2.67969 -33.2217 18.7568 -47.1523q16.0762 -13.9316 36.4395 -13.9316q22.5078 0 38.0488 14.1992t15.541 39.9189t-13.1299 40.9912q-13.1289 15.2705 -42.0674 15.2705h-30.0098v60.0127h30.0098q48.7656 0 48.7656 47.1533q0 25.1836 -13.9326 37.7754
t-33.2256 12.5918q-21.9707 0 -34.832 -15.8066t-15.541 -43.1338h-64.3066q1.60742 27.8633 11.2539 50.0996q9.64551 22.2373 24.9189 37.5078q15.2725 15.2715 35.3682 23.3086q20.0957 8.03809 43.1387 8.03809q24.6514 0 45.0156 -7.76953
q20.3633 -7.76953 35.1006 -22.2373q14.7363 -14.4678 22.7744 -34.8291q8.03906 -20.3613 8.03906 -45.0088q0 -25.7197 -7.77051 -43.9385q-7.77051 -18.2178 -24.9189 -31.0781q21.4355 -13.9316 30.5459 -35.9004t9.11035 -53.582z" />
    <glyph glyph-name="acute" unicode="&#xb4;" horiz-adv-x="325" 
d="M163 531h-122l107 181h145z" />
    <glyph glyph-name="mu" unicode="&#xb5;" horiz-adv-x="580" 
d="M198 -171h-134v695h134v-284q0 -140 82 -140t82 140v284h135v-384q0 -14 2 -22.5t10 -8.5l37 1v-108l-60 -5q-2 0 -3 -0.5t-3 -0.5q-32 0 -57 9t-40 23q-20 -20 -47 -33t-56 -13q-21 0 -42 6t-40 19v-178z" />
    <glyph glyph-name="paragraph" unicode="&#xb6;" horiz-adv-x="544" 
d="M176 349q-30 7 -54.5 24.5t-42 41t-27 52t-9.5 59.5q0 39 12 72t34 57t52.5 37.5t66.5 13.5h274v-117h-49v-746h-112v746h-33v-746h-112v506z" />
    <glyph glyph-name="periodcentered" unicode="&#xb7;" horiz-adv-x="287" 
d="M38 413h201v-200h-201v200z" />
    <glyph glyph-name="onesuperior" unicode="&#xb9;" horiz-adv-x="325" 
d="M116.642 327v295.228l-4.50781 -3.78418q-7.08301 -5.40723 -17.3857 -12.9775t-20.9277 -15.4102q-10.624 -7.84082 -20.2832 -15.1396q-9.6582 -7.2998 -15.4541 -12.166v80.0254l89.5049 65.9658h66.3242v-381.741h-77.2705z" />
    <glyph glyph-name="ordmasculine" unicode="&#xba;" horiz-adv-x="579" 
d="M155.658 702.146q27.4873 0 51.6094 -10.9287t41.793 -31.1035q17.6709 -20.1758 27.7676 -48.4766q10.0977 -28.3018 10.0977 -63.6084q0 -34.7461 -9.81641 -62.7676q-9.81738 -28.0215 -27.208 -47.6367q-17.3896 -19.6143 -41.5117 -29.9824
q-24.1221 -10.3672 -52.7314 -10.3672t-52.1709 10.3672q-23.5605 10.3682 -40.1094 29.9824q-16.5488 19.6152 -25.8047 47.6367t-9.25586 62.7676t9.25586 63.3281q9.25586 28.5811 26.085 48.7568q16.8291 20.1748 40.3906 31.1035q23.5605 10.9287 51.6094 10.9287z
M220.731 548.029q0 42.0312 -17.3906 66.9707q-17.3896 24.9385 -47.6826 24.9385q-15.707 0 -27.207 -7.00488q-11.5 -7.00586 -19.0732 -19.6152t-11.2197 -29.4219t-3.64648 -35.8672q0 -42.0322 15.707 -65.29q15.708 -23.2568 46 -23.2568q30.8535 0 47.6836 24.0977
q16.8291 24.0986 16.8291 64.4492z" />
    <glyph glyph-name="guillemotright" unicode="&#xbb;" horiz-adv-x="521" 
d="M267 293v-71l-224 -167v131l92 71q-23 17 -47 34.5t-45 34.5v135zM235 461l224 -170v-67l-224 -172v134l91 71l-91 71v133z" />
    <glyph glyph-name="onequarter" unicode="&#xbc;" horiz-adv-x="642" 
d="M122.713 335v289.096l-3.72168 -3.70605q-5.84863 -5.29492 -14.3555 -12.707q-8.50684 -7.41309 -17.2793 -15.0908t-16.748 -14.8252q-7.97461 -7.14844 -12.7598 -11.9131v78.3633l73.9033 64.5957h54.7627v-373.812h-63.8018zM218.219 125.614h-75.8428
l178.861 536.342h75.2109zM538.241 267.365v-79.3652h-63.9326v79.3652h-144.383v55.3965l129.998 240.759h73.5225l-126.801 -236.498h67.6631v100.139h63.9326v-100.139h46.3516v-59.6572h-46.3516z" />
    <glyph glyph-name="onehalf" unicode="&#xbd;" horiz-adv-x="1329" 
d="M387.98 150v50.9297l142.238 180.423q9.19434 11.9199 13.5215 21.6719q4.32617 9.75293 4.32617 22.2148q0 22.7559 -12.4395 36.3008q-12.4385 13.5459 -35.1543 13.5459q-9.73438 0 -18.3877 -2.70996q-8.65332 -2.70898 -15.1436 -8.93945t-10.5459 -15.7129
q-4.05664 -9.48145 -4.05664 -23.0264v-42.2607h-64.3584v42.2607q0 24.3809 8.1123 44.6992q8.1123 20.3174 22.7148 34.9463t35.4248 23.0273q20.8213 8.39746 46.2402 8.39746q24.8789 0 45.7012 -7.85547q20.8213 -7.85645 35.6943 -22.2148
q14.873 -14.3574 22.9854 -34.6758q8.11328 -20.3174 8.11328 -45.7822q0 -23.8398 -7.57227 -41.7197q-7.57129 -17.8799 -24.3369 -39.0098l-106.004 -133.827h137.913v-60.6826h-224.986zM122.713 335v289.096l-3.72168 -3.70605q-5.84863 -5.29492 -14.3555 -12.707
q-8.50684 -7.41309 -17.2793 -15.0908t-16.748 -14.8252q-7.97461 -7.14844 -12.7598 -11.9131v78.3633l73.9033 64.5957h54.7627v-373.812h-63.8018zM218.219 120.614h-75.8428l178.861 536.342h75.2109z" />
    <glyph glyph-name="threequarters" unicode="&#xbe;" horiz-adv-x="738" 
d="M288.506 442.616q0 -27.7197 -9.0293 -48.7773q-9.0293 -21.0566 -24.9629 -35.4492q-15.9336 -14.3936 -37.1797 -21.5898q-21.2441 -7.19629 -45.6768 -7.19629q-23.3691 0 -44.3486 7.19629t-36.9141 22.123q-15.9336 14.9258 -25.4941 37.582
q-9.55957 22.6553 -11.1533 53.5742h63.2041q2.65625 -33.0508 18.5898 -46.9111q15.9336 -13.8594 36.1162 -13.8594q22.3076 0 37.71 14.126q15.4033 14.127 15.4033 39.7148t-13.0127 40.7803q-13.0127 15.1934 -41.6934 15.1934h-29.7432v59.7051h29.7432
q48.332 0 48.332 46.9111q0 25.0547 -13.8086 37.582q-13.8096 12.5273 -32.9307 12.5273q-21.7764 0 -34.5234 -15.7256q-12.7471 -15.7266 -15.4023 -42.9131h-63.7354q1.59375 27.7197 11.1533 49.8428q9.56055 22.123 24.6982 37.3154q15.1367 15.1934 35.0537 23.1895
q19.918 7.99609 42.7559 7.99609q24.4326 0 44.6152 -7.72949t34.7891 -22.123q14.6055 -14.3936 22.5723 -34.6504t7.9668 -44.7783q0 -25.5879 -7.70117 -43.7129t-24.6973 -30.9189q21.2451 -13.8604 30.2744 -35.7168q9.0293 -21.8555 9.0293 -53.3076zM306.219 125.614
h-75.8428l178.861 536.342h75.2109zM634.241 235.365v-79.3652h-63.9326v79.3652h-144.383v55.3965l129.998 240.759h73.5225l-126.801 -236.498h67.6631v100.139h63.9326v-100.139h46.3516v-59.6572h-46.3516z" />
    <glyph glyph-name="questiondown" unicode="&#xbf;" horiz-adv-x="503" 
d="M97.0254 -23.9688q0 17.999 5.5 36.998t18.999 44.4971q13.499 25.499 36.998 61.4961q23.498 35.998 59.4961 87.9951q6 7.99902 9.49902 19.499q3.5 11.499 3.5 18.499v73.9951h118.993v-74.9951q0 -15.999 -2.5 -29.999q-2.5 -13.999 -9 -29.998
q-6.49902 -15.999 -18.498 -35.4971q-12 -19.499 -30.999 -47.498q-23.998 -33.9971 -38.4971 -54.9961t-22.499 -33.998q-7.99902 -12.999 -10.499 -20.999q-2.5 -7.99902 -2.5 -14.999q0 -34.998 22.999 -58.4961q22.998 -23.499 57.9961 -23.499q18.999 0 33.998 8.5
q14.999 8.49902 25.498 23.498q10.5 14.999 15.999 34.998q5.5 19.999 5.5 41.998h119.993q0 -45.9971 -15 -86.4951q-14.999 -40.4971 -41.9971 -70.4961q-26.998 -29.998 -63.9961 -47.4971t-79.9951 -17.499q-41.9971 0 -78.4951 14.5q-36.498 14.499 -62.9961 39.9971
q-26.498 25.499 -41.9971 61.4961q-15.5 35.998 -15.5 78.9951zM357.01 493v-130.992h-132.991v130.992h132.991z" />
    <glyph glyph-name="Agrave" unicode="&#xc0;" horiz-adv-x="701" 
d="M338 524l-69 -199h139zM230 209l-74 -209h-120l247 706h109l248 -706h-121l-72 209h-217zM230 903h138l103 -173h-137z" />
    <glyph glyph-name="Aacute" unicode="&#xc1;" horiz-adv-x="701" 
d="M338 524l-69 -199h139zM230 209l-74 -209h-120l247 706h109l248 -706h-121l-72 209h-217zM339 730h-122l107 181h145z" />
    <glyph glyph-name="Acircumflex" unicode="&#xc2;" horiz-adv-x="701" 
d="M338 524l-69 -199h139zM230 209l-74 -209h-120l247 706h109l248 -706h-121l-72 209h-217zM375.3 927.965l159.541 -213.407h-136.606l-56.8369 83.5068l-12.9629 -18.5566q-10.9678 -15.7734 -22.9336 -33.8672q-11.9658 -18.0928 -19.9424 -31.083h-138.602
l163.529 213.407h64.8135z" />
    <glyph glyph-name="Atilde" unicode="&#xc3;" horiz-adv-x="645" 
d="M310 524l-69 -199h139zM202 209l-74 -209h-120l247 706h109l248 -706h-121l-72 209h-217zM111.904 785.636q34.3574 38.0586 68.7148 62.0352q34.3564 23.9775 73.2949 23.9775q19.8506 0 38.1738 -7.6123q18.3242 -7.61133 36.6475 -17.5068h-0.763672l3.81738 -2.2832
q15.2705 -7.61133 29.3945 -14.082q14.125 -6.46973 25.5771 -6.46973q4.58105 0 11.0703 5.70898q6.49023 5.70898 13.3613 14.4619q6.87109 8.75391 13.3613 19.4102q6.48926 10.6562 11.0703 20.5518l74.8213 -54.8047q-10.6885 -17.5068 -24.0498 -34.2529
q-13.3604 -16.7451 -29.0117 -29.6855q-15.6523 -12.9395 -33.5938 -20.5508q-17.9424 -7.6123 -38.5566 -7.6123q-17.5596 0 -35.8838 7.23145q-18.3232 7.23145 -35.502 16.3652t-33.2119 16.3652q-16.0332 7.23047 -28.249 7.23047q-9.16211 0 -24.8135 -14.0811
q-15.6514 -14.082 -33.2119 -41.4844z" />
    <glyph glyph-name="Adieresis" unicode="&#xc4;" horiz-adv-x="701" 
d="M338 524l-69 -199h139zM230 209l-74 -209h-120l247 706h109l248 -706h-121l-72 209h-217zM359 786q0 32 21.5 54t53.5 22t54 -22t22 -54q0 -31 -22 -53.5t-54 -22.5t-53.5 22.5t-21.5 53.5zM174 786q0 32 22 54t54 22t53.5 -22t21.5 -54q0 -31 -21.5 -53.5t-53.5 -22.5
t-54 22.5t-22 53.5z" />
    <glyph glyph-name="Aring" unicode="&#xc5;" horiz-adv-x="645" 
d="M310 524l-69 -199h139zM202 209l-74 -209h-120l247 706h109l248 -706h-121l-72 209h-217zM281 826q0 -13 9.5 -22.5t23.5 -9.5q12 0 21 9.5t9 22.5t-9 22t-21 9q-14 0 -23.5 -9t-9.5 -22zM203 826q0 23 8.5 43.5t23.5 35.5t35.5 23.5t43.5 8.5t43 -8.5t35 -23.5
t23.5 -35.5t8.5 -43.5t-8.5 -43t-23.5 -35t-35 -24t-43 -9t-43.5 9t-35.5 24t-23.5 35t-8.5 43z" />
    <glyph glyph-name="AE" unicode="&#xc6;" horiz-adv-x="1049" 
d="M958 706v-107h-326v-176h278v-112h-277v-210h325v-101h-457v209h-205q-34 -51 -69.5 -104.5t-68.5 -104.5h-130l472 706h458zM500 515l-127 -190h127v190z" />
    <glyph glyph-name="Egrave" unicode="&#xc8;" horiz-adv-x="555" 
d="M491 705v-106h-328v-164h280v-112h-280v-218h328v-105h-448v705h448zM157 903h138l103 -173h-137z" />
    <glyph glyph-name="Eacute" unicode="&#xc9;" horiz-adv-x="555" 
d="M491 705v-106h-328v-164h280v-112h-280v-218h328v-105h-448v705h448zM292 712h-122l107 181h145z" />
    <glyph glyph-name="Ecircumflex" unicode="&#xca;" horiz-adv-x="527" 
d="M491 705v-106h-328v-164h280v-112h-280v-218h328v-105h-448v705h448zM289 928l160 -230h-137l-57 90l-13 -20q-11 -17 -23 -36.5t-20 -33.5h-139l164 230h65z" />
    <glyph glyph-name="Edieresis" unicode="&#xcb;" horiz-adv-x="527" 
d="M491 705v-106h-328v-164h280v-112h-280v-218h328v-105h-448v705h448zM272 786q0 32 21.5 54t53.5 22t54 -22t22 -54q0 -31 -22 -53.5t-54 -22.5t-53.5 22.5t-21.5 53.5zM87 786q0 32 22 54t54 22t53.5 -22t21.5 -54q0 -31 -21.5 -53.5t-53.5 -22.5t-54 22.5t-22 53.5z
" />
    <glyph glyph-name="Igrave" unicode="&#xcc;" horiz-adv-x="192" 
d="M156 705v-705h-120v705h120zM-24 903h138l103 -173h-137z" />
    <glyph glyph-name="Iacute" unicode="&#xcd;" horiz-adv-x="192" 
d="M156 705v-705h-120v705h120zM85 730h-122l107 181h145z" />
    <glyph glyph-name="Icircumflex" unicode="&#xce;" horiz-adv-x="200" 
d="M156 705v-705h-120v705h120zM126 928l160 -230h-137l-57 90l-13 -20q-11 -17 -23 -36.5t-20 -33.5h-139l164 230h65z" />
    <glyph glyph-name="Idieresis" unicode="&#xcf;" horiz-adv-x="200" 
d="M156 705v-705h-120v705h120zM109 786q0 32 21.5 54t53.5 22t54 -22t22 -54q0 -31 -22 -53.5t-54 -22.5t-53.5 22.5t-21.5 53.5zM-76 786q0 32 22 54t54 22t53.5 -22t21.5 -54q0 -31 -21.5 -53.5t-53.5 -22.5t-54 22.5t-22 53.5z" />
    <glyph glyph-name="Ntilde" unicode="&#xd1;" horiz-adv-x="633" 
d="M166 705l279 -485v485h120v-705h-129l-272 486v-486h-120v705h122zM101.341 748.121q35.0107 37.3145 70.0205 60.8223q35.0107 23.5068 74.6895 23.5068q20.2285 0 38.9014 -7.46191q18.6719 -7.46289 37.3447 -17.165h-0.77832l3.89062 -2.23828
q15.5596 -7.46289 29.9531 -13.8066q14.3936 -6.34277 26.0635 -6.34277q4.66797 0 11.2812 5.59668t13.6152 14.1797q7.00195 8.58203 13.6152 19.0293q6.61328 10.4482 11.2812 20.1494l76.2461 -53.7314q-10.8926 -17.1641 -24.5078 -33.583
q-13.6152 -16.418 -29.5645 -29.1045t-34.2334 -20.1494q-18.2832 -7.46289 -39.2891 -7.46289q-17.8945 0 -36.5674 7.08984q-18.6719 7.08984 -36.1777 16.0449q-17.5049 8.95508 -33.8428 16.0449q-16.3389 7.08984 -28.7871 7.08984q-9.33594 0 -25.2852 -13.8066
q-15.9492 -13.8057 -33.8438 -40.6719z" />
    <glyph glyph-name="Ograve" unicode="&#xd2;" horiz-adv-x="729" 
d="M355 105q45 0 80 19t59.5 52.5t37.5 78.5t13 97q0 54 -13 99t-37.5 78t-59.5 51.5t-80 18.5q-44 0 -79 -18.5t-59.5 -51t-37.5 -78t-13 -99.5q0 -53 13 -98.5t37.5 -78.5t59.5 -51.5t79 -18.5zM46 352q0 82 22.5 148.5t63.5 113.5t98 72.5t125 25.5q71 0 128 -25.5
t97.5 -72.5t62.5 -113.5t22 -148.5q0 -83 -22.5 -150t-63 -114.5t-98 -73.5t-126.5 -26q-70 0 -127 26t-97.5 74t-62.5 115t-22 149zM244 903h138l103 -173h-137z" />
    <glyph glyph-name="Oacute" unicode="&#xd3;" horiz-adv-x="729" 
d="M355 105q45 0 80 19t59.5 52.5t37.5 78.5t13 97q0 54 -13 99t-37.5 78t-59.5 51.5t-80 18.5q-44 0 -79 -18.5t-59.5 -51t-37.5 -78t-13 -99.5q0 -53 13 -98.5t37.5 -78.5t59.5 -51.5t79 -18.5zM46 352q0 82 22.5 148.5t63.5 113.5t98 72.5t125 25.5q71 0 128 -25.5
t97.5 -72.5t62.5 -113.5t22 -148.5q0 -83 -22.5 -150t-63 -114.5t-98 -73.5t-126.5 -26q-70 0 -127 26t-97.5 74t-62.5 115t-22 149zM353 730h-122l107 181h145z" />
    <glyph glyph-name="Ocircumflex" unicode="&#xd4;" horiz-adv-x="738" 
d="M355 105q45 0 80 19t59.5 52.5t37.5 78.5t13 97q0 54 -13 99t-37.5 78t-59.5 51.5t-80 18.5q-44 0 -79 -18.5t-59.5 -51t-37.5 -78t-13 -99.5q0 -53 13 -98.5t37.5 -78.5t59.5 -51.5t79 -18.5zM46 352q0 82 22.5 148.5t63.5 113.5t98 72.5t125 25.5q71 0 128 -25.5
t97.5 -72.5t62.5 -113.5t22 -148.5q0 -83 -22.5 -150t-63 -114.5t-98 -73.5t-126.5 -26q-70 0 -127 26t-97.5 74t-62.5 115t-22 149zM399 990l160 -230h-137l-57 90l-13 -20q-11 -17 -23 -36.5t-20 -33.5h-139l164 230h65z" />
    <glyph glyph-name="Otilde" unicode="&#xd5;" horiz-adv-x="738" 
d="M355 105q45 0 80 19t59.5 52.5t37.5 78.5t13 97q0 54 -13 99t-37.5 78t-59.5 51.5t-80 18.5q-44 0 -79 -18.5t-59.5 -51t-37.5 -78t-13 -99.5q0 -53 13 -98.5t37.5 -78.5t59.5 -51.5t79 -18.5zM46 352q0 82 22.5 148.5t63.5 113.5t98 72.5t125 25.5q71 0 128 -25.5
t97.5 -72.5t62.5 -113.5t22 -148.5q0 -83 -22.5 -150t-63 -114.5t-98 -73.5t-126.5 -26q-70 0 -127 26t-97.5 74t-62.5 115t-22 149zM109 776q45 50 90 81.5t96 31.5q26 0 50 -10t48 -23h-1l5 -3q20 -10 38.5 -18.5t33.5 -8.5q6 0 14.5 7.5t17.5 19t17.5 25.5t14.5 27
l98 -72q-14 -23 -31.5 -45t-38 -39t-44 -27t-50.5 -10q-23 0 -47 9.5t-46.5 21.5t-43.5 21.5t-37 9.5q-12 0 -32.5 -18.5t-43.5 -54.5z" />
    <glyph glyph-name="Odieresis" unicode="&#xd6;" horiz-adv-x="738" 
d="M355 105q45 0 80 19t59.5 52.5t37.5 78.5t13 97q0 54 -13 99t-37.5 78t-59.5 51.5t-80 18.5q-44 0 -79 -18.5t-59.5 -51t-37.5 -78t-13 -99.5q0 -53 13 -98.5t37.5 -78.5t59.5 -51.5t79 -18.5zM46 352q0 82 22.5 148.5t63.5 113.5t98 72.5t125 25.5q71 0 128 -25.5
t97.5 -72.5t62.5 -113.5t22 -148.5q0 -83 -22.5 -150t-63 -114.5t-98 -73.5t-126.5 -26q-70 0 -127 26t-97.5 74t-62.5 115t-22 149zM378 786q0 32 21.5 54t53.5 22t54 -22t22 -54q0 -31 -22 -53.5t-54 -22.5t-53.5 22.5t-21.5 53.5zM193 786q0 32 22 54t54 22t53.5 -22
t21.5 -54q0 -31 -21.5 -53.5t-53.5 -22.5t-54 22.5t-22 53.5z" />
    <glyph glyph-name="multiply" unicode="&#xd7;" horiz-adv-x="523" 
d="M160 297l-134 135l84 82l134 -134l134 134l83 -82l-135 -135l135 -134l-83 -84l-134 135l-134 -135l-84 84z" />
    <glyph glyph-name="Oslash" unicode="&#xd8;" horiz-adv-x="738" 
d="M355 105q45 0 80 19t59.5 52.5t37.5 78.5t13 97q0 54 -13 99t-37.5 78t-59.5 51.5t-80 18.5q-44 0 -79 -18.5t-59.5 -51t-37.5 -78t-13 -99.5q0 -53 13 -98.5t37.5 -78.5t59.5 -51.5t79 -18.5zM46 352q0 82 22.5 148.5t63.5 113.5t98 72.5t125 25.5q71 0 128 -25.5
t97.5 -72.5t62.5 -113.5t22 -148.5q0 -83 -22.5 -150t-63 -114.5t-98 -73.5t-126.5 -26q-70 0 -127 26t-97.5 74t-62.5 115t-22 149zM236 -145h-120l283 851h119z" />
    <glyph glyph-name="Ugrave" unicode="&#xd9;" horiz-adv-x="625" 
d="M164 705v-446q0 -71 36 -114.5t101 -43.5q31 0 57.5 11.5t45.5 32t30 49.5t11 65v446h120v-444q0 -63 -20 -113.5t-55.5 -86t-83.5 -54.5t-105 -19q-58 0 -105.5 19t-81 54.5t-52 86t-18.5 113.5v444h120zM192 903h138l103 -173h-137z" />
    <glyph glyph-name="Uacute" unicode="&#xda;" horiz-adv-x="625" 
d="M164 705v-446q0 -71 36 -114.5t101 -43.5q31 0 57.5 11.5t45.5 32t30 49.5t11 65v446h120v-444q0 -63 -20 -113.5t-55.5 -86t-83.5 -54.5t-105 -19q-58 0 -105.5 19t-81 54.5t-52 86t-18.5 113.5v444h120zM301 730h-122l107 181h145z" />
    <glyph glyph-name="Ucircumflex" unicode="&#xdb;" horiz-adv-x="633" 
d="M164 705v-446q0 -71 36 -114.5t101 -43.5q31 0 57.5 11.5t45.5 32t30 49.5t11 65v446h120v-444q0 -63 -20 -113.5t-55.5 -86t-83.5 -54.5t-105 -19q-58 0 -105.5 19t-81 54.5t-52 86t-18.5 113.5v444h120zM342 928l160 -230h-137l-57 90l-13 -20q-11 -17 -23 -36.5
t-20 -33.5h-139l164 230h65z" />
    <glyph glyph-name="Udieresis" unicode="&#xdc;" horiz-adv-x="633" 
d="M164 705v-446q0 -71 36 -114.5t101 -43.5q31 0 57.5 11.5t45.5 32t30 49.5t11 65v446h120v-444q0 -63 -20 -113.5t-55.5 -86t-83.5 -54.5t-105 -19q-58 0 -105.5 19t-81 54.5t-52 86t-18.5 113.5v444h120zM325 786q0 32 21.5 54t53.5 22t54 -22t22 -54q0 -31 -22 -53.5
t-54 -22.5t-53.5 22.5t-21.5 53.5zM140 786q0 32 22 54t54 22t53.5 -22t21.5 -54q0 -31 -21.5 -53.5t-53.5 -22.5t-54 22.5t-22 53.5z" />
    <glyph glyph-name="Yacute" unicode="&#xdd;" horiz-adv-x="687" 
d="M276 260q-30 53 -61 109.5t-62.5 113.5t-63 113t-60.5 109h130l173 -324l173 324h131l-240 -446v-259h-120v260zM332 730h-122l107 181h145z" />
    <glyph glyph-name="agrave" unicode="&#xe0;" horiz-adv-x="628" 
d="M194 704h138l103 -173h-137z" />
    <glyph glyph-name="aacute" unicode="&#xe1;" horiz-adv-x="628" 
d="M303 531h-122l107 181h145z" />
    <glyph glyph-name="acircumflex" unicode="&#xe2;" horiz-adv-x="628" 
d="M339 749l160 -230h-137l-57 90l-13 -20q-11 -17 -23 -36.5t-20 -33.5h-139l164 230h65z" />
    <glyph glyph-name="atilde" unicode="&#xe3;" horiz-adv-x="628" 
d="M91.0293 620.68q34.5439 39.5508 69.0879 64.4678q34.543 24.917 73.6934 24.917q19.958 0 38.3818 -7.91016q18.4229 -7.91016 36.8467 -18.1934h-0.767578l3.83789 -2.37305q15.3525 -7.91016 29.5537 -14.6338t25.7158 -6.72363q4.60645 0 11.1309 5.93262
q6.52539 5.93262 13.4336 15.0293q6.90918 9.09668 13.4336 20.1709q6.52539 11.0742 11.1309 21.3574l75.2285 -56.9531q-10.7461 -18.1934 -24.1797 -35.5957q-13.4346 -17.4023 -29.1709 -30.8496t-33.7764 -21.3574q-18.0391 -7.91016 -38.7656 -7.91016
q-17.6553 0 -36.0791 7.51465q-18.4229 7.51465 -35.6953 17.0068q-17.2715 9.49219 -33.3916 17.0068q-16.1211 7.51465 -28.4033 7.51465q-9.21094 0 -24.9482 -14.6338q-15.7363 -14.6338 -33.3916 -43.1104z" />
    <glyph glyph-name="adieresis" unicode="&#xe4;" horiz-adv-x="628" 
d="M323 607q0 32 21.5 54t53.5 22t54 -22t22 -54q0 -31 -22 -53.5t-54 -22.5t-53.5 22.5t-21.5 53.5zM138 607q0 32 22 54t54 22t53.5 -22t21.5 -54q0 -31 -21.5 -53.5t-53.5 -22.5t-54 22.5t-22 53.5z" />
    <glyph glyph-name="aring" unicode="&#xe5;" horiz-adv-x="628" 
d="M278 644q0 -13 9.5 -22.5t23.5 -9.5q12 0 21 9.5t9 22.5t-9 22t-21 9q-14 0 -23.5 -9t-9.5 -22zM200 644q0 23 8.5 43.5t23.5 35.5t35.5 23.5t43.5 8.5t43 -8.5t35 -23.5t23.5 -35.5t8.5 -43.5t-8.5 -43t-23.5 -35t-35 -24t-43 -9t-43.5 9t-35.5 24t-23.5 35t-8.5 43z
" />
    <glyph glyph-name="egrave" unicode="&#xe8;" horiz-adv-x="571" 
d="M169 209q10 -54 38.5 -82t67.5 -28q32 0 64.5 21.5t54.5 69.5l103 -52q-37 -67 -93 -108.5t-120 -41.5q-49 0 -92.5 19.5t-75.5 55.5t-51 86t-19 111q0 127 60.5 199.5t171.5 72.5q49 0 90.5 -20t71.5 -56t47 -86t17 -110v-51h-335zM275 421q-38 0 -69.5 -27t-38.5 -76
h218q-2 24 -12.5 43t-26 32.5t-34 20.5t-37.5 7zM165 704h138l103 -173h-137z" />
    <glyph glyph-name="eacute" unicode="&#xe9;" horiz-adv-x="571" 
d="M169 209q10 -54 38.5 -82t67.5 -28q32 0 64.5 21.5t54.5 69.5l103 -52q-37 -67 -93 -108.5t-120 -41.5q-49 0 -92.5 19.5t-75.5 55.5t-51 86t-19 111q0 127 60.5 199.5t171.5 72.5q49 0 90.5 -20t71.5 -56t47 -86t17 -110v-51h-335zM275 421q-38 0 -69.5 -27t-38.5 -76
h218q-2 24 -12.5 43t-26 32.5t-34 20.5t-37.5 7zM274 531h-122l107 181h145z" />
    <glyph glyph-name="ecircumflex" unicode="&#xea;" horiz-adv-x="571" 
d="M169 209q10 -54 38.5 -82t67.5 -28q32 0 64.5 21.5t54.5 69.5l103 -52q-37 -67 -93 -108.5t-120 -41.5q-49 0 -92.5 19.5t-75.5 55.5t-51 86t-19 111q0 127 60.5 199.5t171.5 72.5q49 0 90.5 -20t71.5 -56t47 -86t17 -110v-51h-335zM275 421q-38 0 -69.5 -27t-38.5 -76
h218q-2 24 -12.5 43t-26 32.5t-34 20.5t-37.5 7zM311 749l160 -230h-137l-57 90l-13 -20q-11 -17 -23 -36.5t-20 -33.5h-139l164 230h65z" />
    <glyph glyph-name="edieresis" unicode="&#xeb;" horiz-adv-x="571" 
d="M169 209q10 -54 38.5 -82t67.5 -28q32 0 64.5 21.5t54.5 69.5l103 -52q-37 -67 -93 -108.5t-120 -41.5q-49 0 -92.5 19.5t-75.5 55.5t-51 86t-19 111q0 127 60.5 199.5t171.5 72.5q49 0 90.5 -20t71.5 -56t47 -86t17 -110v-51h-335zM275 421q-38 0 -69.5 -27t-38.5 -76
h218q-2 24 -12.5 43t-26 32.5t-34 20.5t-37.5 7zM294 607q0 32 21.5 54t53.5 22t54 -22t22 -54q0 -31 -22 -53.5t-54 -22.5t-53.5 22.5t-21.5 53.5zM109 607q0 32 22 54t54 22t53.5 -22t21.5 -54q0 -31 -21.5 -53.5t-53.5 -22.5t-54 22.5t-22 53.5z" />
    <glyph glyph-name="igrave" unicode="&#xec;" horiz-adv-x="192" 
d="M153 520v-520h-116v520h116zM-14 729h138l103 -173h-137z" />
    <glyph glyph-name="iacute" unicode="&#xed;" horiz-adv-x="192" 
d="M154 520v-520h-117v520h117zM101 556h-122l107 181h145z" />
    <glyph glyph-name="icircumflex" unicode="&#xee;" horiz-adv-x="192" 
d="M153 520v-520h-116v520h116zM138 774l160 -230h-137l-57 90l-13 -20q-11 -17 -23 -36.5t-20 -33.5h-139l164 230h65z" />
    <glyph glyph-name="idieresis" unicode="&#xef;" horiz-adv-x="192" 
d="M153 520v-520h-116v520h116zM121 632q0 32 21.5 54t53.5 22t54 -22t22 -54q0 -31 -22 -53.5t-54 -22.5t-53.5 22.5t-21.5 53.5zM-64 632q0 32 22 54t54 22t53.5 -22t21.5 -54q0 -31 -21.5 -53.5t-53.5 -22.5t-54 22.5t-22 53.5z" />
    <glyph glyph-name="ntilde" unicode="&#xf1;" horiz-adv-x="553" 
d="M155 520v-25q25 17 57 27t66 10q45 0 83 -15.5t66 -44t44 -67.5t16 -85v-320h-117v302q0 56 -30 87.5t-77 31.5q-48 0 -78 -32.5t-30 -86.5v-302h-117v520h117zM68.4023 637.922q35.1045 39.1787 70.209 63.8613q35.1035 24.6826 74.8887 24.6826
q20.2822 0 39.0039 -7.83594q18.7227 -7.83594 37.4443 -18.0225h-0.780273l3.90039 -2.35059q15.6025 -7.83496 30.0342 -14.4961q14.4316 -6.66016 26.1328 -6.66016q4.68066 0 11.3115 5.87695t13.6514 14.8877q7.02051 9.01172 13.6514 19.9814t11.3115 21.1562
l76.4482 -56.417q-10.9209 -18.0225 -24.5723 -35.2607t-29.6436 -30.5596q-15.9922 -13.3203 -34.3242 -21.1562t-39.3945 -7.83594q-17.9414 0 -36.6641 7.44434q-18.7217 7.44434 -36.2744 16.8467q-17.5518 9.40332 -33.9336 16.8467q-16.3818 7.44434 -28.8633 7.44434
q-9.36133 0 -25.3535 -14.4961q-15.9912 -14.4961 -33.9336 -42.7051z" />
    <glyph glyph-name="ograve" unicode="&#xf2;" horiz-adv-x="570" 
d="M272 532q49 0 92 -19.5t74.5 -55.5t49.5 -86.5t18 -113.5q0 -62 -17.5 -112t-48.5 -85t-74 -53.5t-94 -18.5t-93 18.5t-71.5 53.5t-46 85t-16.5 112t16.5 113t46.5 87t72 55.5t92 19.5zM388 257q0 75 -31 119.5t-85 44.5q-28 0 -48.5 -12.5t-34 -35t-20 -52.5t-6.5 -64
q0 -75 28 -116.5t82 -41.5q55 0 85 43t30 115zM165 704h138l103 -173h-137z" />
    <glyph glyph-name="oacute" unicode="&#xf3;" horiz-adv-x="570" 
d="M272 532q49 0 92 -19.5t74.5 -55.5t49.5 -86.5t18 -113.5q0 -62 -17.5 -112t-48.5 -85t-74 -53.5t-94 -18.5t-93 18.5t-71.5 53.5t-46 85t-16.5 112t16.5 113t46.5 87t72 55.5t92 19.5zM388 257q0 75 -31 119.5t-85 44.5q-28 0 -48.5 -12.5t-34 -35t-20 -52.5t-6.5 -64
q0 -75 28 -116.5t82 -41.5q55 0 85 43t30 115zM293 531h-122l107 181h145z" />
    <glyph glyph-name="ocircumflex" unicode="&#xf4;" horiz-adv-x="570" 
d="M272 532q49 0 92 -19.5t74.5 -55.5t49.5 -86.5t18 -113.5q0 -62 -17.5 -112t-48.5 -85t-74 -53.5t-94 -18.5t-93 18.5t-71.5 53.5t-46 85t-16.5 112t16.5 113t46.5 87t72 55.5t92 19.5zM388 257q0 75 -31 119.5t-85 44.5q-28 0 -48.5 -12.5t-34 -35t-20 -52.5t-6.5 -64
q0 -75 28 -116.5t82 -41.5q55 0 85 43t30 115zM310 749l160 -230h-137l-57 90l-13 -20q-11 -17 -23 -36.5t-20 -33.5h-139l164 230h65z" />
    <glyph glyph-name="otilde" unicode="&#xf5;" horiz-adv-x="579" 
d="M272 532q49 0 92 -19.5t74.5 -55.5t49.5 -86.5t18 -113.5q0 -62 -17.5 -112t-48.5 -85t-74 -53.5t-94 -18.5t-93 18.5t-71.5 53.5t-46 85t-16.5 112t16.5 113t46.5 87t72 55.5t92 19.5zM388 257q0 75 -31 119.5t-85 44.5q-28 0 -48.5 -12.5t-34 -35t-20 -52.5t-6.5 -64
q0 -75 28 -116.5t82 -41.5q55 0 85 43t30 115zM67.4648 627.252q35.1973 41.791 70.3945 68.1191q35.1982 26.3281 75.0879 26.3281q20.3369 0 39.1084 -8.35742q18.7725 -8.3584 37.5439 -19.2246h-0.782227l3.91113 -2.50684q15.6436 -8.3584 30.1133 -15.4629
q14.4707 -7.10449 26.2031 -7.10449q4.69238 0 11.3408 6.26855t13.6885 15.8809q7.03906 9.6123 13.6875 21.3135t11.3418 22.5664l76.6523 -60.1787q-10.9512 -19.2236 -24.6387 -37.6113t-29.7227 -32.5967q-16.0342 -14.209 -34.415 -22.5674t-39.499 -8.3584
q-17.9902 0 -36.7617 7.94043q-18.7725 7.94043 -36.3711 17.9707q-17.5986 10.0293 -34.0244 17.9697q-16.4248 7.94043 -28.9395 7.94043q-9.38672 0 -25.4209 -15.4629t-34.0244 -45.5518z" />
    <glyph glyph-name="odieresis" unicode="&#xf6;" horiz-adv-x="579" 
d="M272 532q49 0 92 -19.5t74.5 -55.5t49.5 -86.5t18 -113.5q0 -62 -17.5 -112t-48.5 -85t-74 -53.5t-94 -18.5t-93 18.5t-71.5 53.5t-46 85t-16.5 112t16.5 113t46.5 87t72 55.5t92 19.5zM388 257q0 75 -31 119.5t-85 44.5q-28 0 -48.5 -12.5t-34 -35t-20 -52.5t-6.5 -64
q0 -75 28 -116.5t82 -41.5q55 0 85 43t30 115zM298 607q0 32 21.5 54t53.5 22t54 -22t22 -54q0 -31 -22 -53.5t-54 -22.5t-53.5 22.5t-21.5 53.5zM113 607q0 32 22 54t54 22t53.5 -22t21.5 -54q0 -31 -21.5 -53.5t-53.5 -22.5t-54 22.5t-22 53.5z" />
    <glyph glyph-name="divide" unicode="&#xf7;" horiz-adv-x="418" 
d="M41 260h321v-112h-321v112zM131 279v139h140v-139h-140zM131 0v140h140v-140h-140z" />
    <glyph glyph-name="oslash" unicode="&#xf8;" horiz-adv-x="579" 
d="M231 -85h-118l37 107q-49 33 -76.5 93.5t-27.5 141.5q0 62 16.5 112.5t46 86.5t71 55.5t92.5 19.5q11 0 21 -0.5t22 -2.5l29 81h117l-44 -132q42 -36 64.5 -92t22.5 -128q0 -65 -18 -115t-50 -84.5t-76.5 -52t-97.5 -17.5q-1 0 -2.5 0.5t-3.5 0.5zM272 422
q-28 0 -48.5 -13t-34 -35t-20 -52.5t-6.5 -64.5q0 -36 6 -64t20 -50l93 279h-10zM387 257q0 24 -3.5 46.5t-9.5 40.5q-11 -32 -20.5 -62t-19.5 -59.5t-20 -59.5t-20 -63q45 8 69 50t24 107z" />
    <glyph glyph-name="ugrave" unicode="&#xf9;" horiz-adv-x="553" 
d="M373 0v30q-26 -19 -59.5 -30.5t-67.5 -11.5q-44 0 -80.5 15t-63 42.5t-41.5 66.5t-15 86v322h116v-302q0 -55 26.5 -87t74.5 -32t78 31t30 88v302h116v-520h-114zM141 704h138l103 -173h-137z" />
    <glyph glyph-name="uacute" unicode="&#xfa;" horiz-adv-x="553" 
d="M373 0v30q-26 -19 -59.5 -30.5t-67.5 -11.5q-44 0 -80.5 15t-63 42.5t-41.5 66.5t-15 86v322h116v-302q0 -55 26.5 -87t74.5 -32t78 31t30 88v302h116v-520h-114zM265 531h-122l107 181h145z" />
    <glyph glyph-name="ucircumflex" unicode="&#xfb;" horiz-adv-x="553" 
d="M373 0v30q-26 -19 -59.5 -30.5t-67.5 -11.5q-44 0 -80.5 15t-63 42.5t-41.5 66.5t-15 86v322h116v-302q0 -55 26.5 -87t74.5 -32t78 31t30 88v302h116v-520h-114zM302 749l160 -230h-137l-57 90l-13 -20q-11 -17 -23 -36.5t-20 -33.5h-139l164 230h65z" />
    <glyph glyph-name="udieresis" unicode="&#xfc;" horiz-adv-x="561" 
d="M373 0v30q-26 -19 -59.5 -30.5t-67.5 -11.5q-44 0 -80.5 15t-63 42.5t-41.5 66.5t-15 86v322h116v-302q0 -55 26.5 -87t74.5 -32t78 31t30 88v302h116v-520h-114zM289 607q0 32 21.5 54t53.5 22t54 -22t22 -54q0 -31 -22 -53.5t-54 -22.5t-53.5 22.5t-21.5 53.5zM104 607
q0 32 22 54t54 22t53.5 -22t21.5 -54q0 -31 -21.5 -53.5t-53.5 -22.5t-54 22.5t-22 53.5z" />
    <glyph glyph-name="yacute" unicode="&#xfd;" horiz-adv-x="592" 
d="M158 -90q13 0 23.5 11.5t18 28t12 35t4.5 31.5q0 8 -1 18t-5 20l-173 466h123l123 -337l128 337h117l-198 -533q-14 -36 -31 -69.5t-38.5 -59.5t-47 -42t-55.5 -16h-61v110h61zM315 531h-122l107 181h145z" />
    <glyph glyph-name="ydieresis" unicode="&#xff;" horiz-adv-x="548" 
d="M142 -90q13 0 23.5 11.5t18 28t12 35t4.5 31.5q0 8 -1 18t-5 20l-173 466h123l123 -337l128 337h117l-198 -533q-14 -36 -31 -69.5t-38.5 -59.5t-47 -42t-55.5 -16h-61v110h61zM283 607q0 32 21.5 54t53.5 22t54 -22t22 -54q0 -31 -22 -53.5t-54 -22.5t-53.5 22.5
t-21.5 53.5zM98 607q0 32 22 54t54 22t53.5 -22t21.5 -54q0 -31 -21.5 -53.5t-53.5 -22.5t-54 22.5t-22 53.5z" />
    <glyph glyph-name="Abreve" unicode="&#x102;" horiz-adv-x="701" 
d="M338 524l-69 -199h139zM230 209l-74 -209h-120l247 706h109l248 -706h-121l-72 209h-217zM341 803q26 0 46.5 22.5t31.5 58.5h100q-20 -81 -66 -127t-112 -46q-63 0 -109.5 46t-66.5 127h99q11 -37 31 -59t46 -22z" />
    <glyph glyph-name="abreve" unicode="&#x103;" horiz-adv-x="628" 
d="M305 604q26 0 46.5 22.5t31.5 58.5h100q-20 -81 -66 -127t-112 -46q-63 0 -109.5 46t-66.5 127h99q11 -37 31 -59t46 -22z" />
    <glyph glyph-name="Cacute" unicode="&#x106;" horiz-adv-x="715" 
d="M350 -12q-69 0 -125.5 26t-96 74t-61 115t-21.5 149q0 81 21.5 147t61 113.5t95.5 73.5t126 26q198 0 289 -228l-106 -48q-32 81 -75.5 122t-107.5 41q-44 0 -78 -18.5t-57.5 -51.5t-36 -78t-12.5 -99q0 -53 12.5 -99t36 -80t57.5 -53t78 -19q64 0 110.5 44.5t66.5 117.5
l109 -48q-45 -118 -115.5 -172.5t-170.5 -54.5zM377 713h-122l107 181h145z" />
    <glyph glyph-name="cacute" unicode="&#x107;" horiz-adv-x="564" 
d="M280 532q36 0 70 -11.5t62.5 -34t49.5 -55.5t29 -75l-106 -48q-11 51 -40 82t-65 31q-28 0 -50 -13t-37 -35.5t-22.5 -52.5t-7.5 -63q0 -69 30 -111t87 -42q37 0 66.5 23.5t46.5 80.5l97 -54q-12 -41 -33.5 -71.5t-49.5 -51.5t-60.5 -31.5t-66.5 -10.5q-54 0 -97.5 20.5
t-73.5 56.5t-46.5 85t-16.5 106q0 59 16.5 109.5t47.5 87t74 57.5t96 21zM271 531h-122l107 181h145z" />
    <glyph glyph-name="Ccaron" unicode="&#x10c;" horiz-adv-x="715" 
d="M350 -12q-69 0 -125.5 26t-96 74t-61 115t-21.5 149q0 81 21.5 147t61 113.5t95.5 73.5t126 26q198 0 289 -228l-106 -48q-32 81 -75.5 122t-107.5 41q-44 0 -78 -18.5t-57.5 -51.5t-36 -78t-12.5 -99q0 -53 12.5 -99t36 -80t57.5 -53t78 -19q64 0 110.5 44.5t66.5 117.5
l109 -48q-45 -118 -115.5 -172.5t-170.5 -54.5zM316 718l-160 230h137l55 -92q15 22 31 47.5t27 44.5h139l-164 -230h-65z" />
    <glyph glyph-name="ccaron" unicode="&#x10d;" horiz-adv-x="564" 
d="M280 532q36 0 70 -11.5t62.5 -34t49.5 -55.5t29 -75l-106 -48q-11 51 -40 82t-65 31q-28 0 -50 -13t-37 -35.5t-22.5 -52.5t-7.5 -63q0 -69 30 -111t87 -42q37 0 66.5 23.5t46.5 80.5l97 -54q-12 -41 -33.5 -71.5t-49.5 -51.5t-60.5 -31.5t-66.5 -10.5q-54 0 -97.5 20.5
t-73.5 56.5t-46.5 85t-16.5 106q0 59 16.5 109.5t47.5 87t74 57.5t96 21zM240 519l-160 230h137l55 -92q15 22 31 47.5t27 44.5h139l-164 -230h-65z" />
    <glyph glyph-name="Dcaron" unicode="&#x10e;" horiz-adv-x="659" 
d="M286 705q67 0 124.5 -26.5t99.5 -74t65.5 -112t23.5 -140.5t-23.5 -140.5t-65.5 -111.5t-99.5 -73.5t-124.5 -26.5h-241v705h241zM479 352q0 49 -14.5 94t-40 79t-61 54t-77.5 20h-121v-494h121q43 0 78.5 20t61 54t39.5 79t14 94zM234 716l-160 230h137l55 -92
q15 22 31 47.5t27 44.5h139l-164 -230h-65z" />
    <glyph glyph-name="Ecaron" unicode="&#x11a;" horiz-adv-x="555" 
d="M491 705v-106h-328v-164h280v-112h-280v-218h328v-105h-448v705h448zM241 711l-160 230h137l55 -92q15 22 31 47.5t27 44.5h139l-164 -230h-65z" />
    <glyph glyph-name="ecaron" unicode="&#x11b;" horiz-adv-x="571" 
d="M169 209q10 -54 38.5 -82t67.5 -28q32 0 64.5 21.5t54.5 69.5l103 -52q-37 -67 -93 -108.5t-120 -41.5q-49 0 -92.5 19.5t-75.5 55.5t-51 86t-19 111q0 127 60.5 199.5t171.5 72.5q49 0 90.5 -20t71.5 -56t47 -86t17 -110v-51h-335zM275 421q-38 0 -69.5 -27t-38.5 -76
h218q-2 24 -12.5 43t-26 32.5t-34 20.5t-37.5 7zM244 519l-160 230h137l55 -92q15 22 31 47.5t27 44.5h139l-164 -230h-65z" />
    <glyph glyph-name="Gbreve" unicode="&#x11e;" horiz-adv-x="715" 
d="M367 390h273v-390h-91l-12 53q-38 -32 -85.5 -48.5t-101.5 -16.5q-69 0 -125.5 26t-96 74t-61 115t-21.5 149q0 81 21.5 147t61 113.5t95.5 73.5t126 26q195 0 285 -218l-102 -55q-32 80 -75.5 120t-106.5 40q-44 0 -78 -18.5t-58 -51.5t-36.5 -78t-12.5 -99
q0 -53 12.5 -98.5t36 -78.5t57.5 -51.5t78 -18.5q91 0 131 46t46 126h-203zM348 783q26 0 46.5 22.5t31.5 58.5h100q-20 -81 -66 -127t-112 -46q-63 0 -109.5 46t-66.5 127h99q11 -37 31 -59t46 -22z" />
    <glyph glyph-name="gbreve" unicode="&#x11f;" horiz-adv-x="553" 
d="M488 520v-551q0 -39 -16 -72.5t-45 -57.5t-68.5 -37.5t-87.5 -13.5q-39 0 -73.5 12t-63 33.5t-49 51t-30.5 65.5l108 48q11 -48 40.5 -77t68.5 -29q49 0 73.5 26.5t24.5 71.5v30q-24 -14 -53.5 -23t-58.5 -9q-47 0 -87.5 19.5t-70.5 55.5t-47 87.5t-17 115.5
q0 58 16.5 107t46 84t69.5 54.5t87 19.5q29 0 60 -10.5t55 -28.5v28h118zM261 421q-24 0 -44 -12.5t-34 -35t-21.5 -52.5t-7.5 -64q0 -33 7.5 -62t21.5 -50t34 -33.5t44 -12.5t44.5 12t34.5 33t22 50t8 63q0 33 -8 62.5t-22 52t-34.5 36t-44.5 13.5zM286 638q26 0 46.5 22.5
t31.5 58.5h100q-20 -81 -66 -127t-112 -46q-63 0 -109.5 46t-66.5 127h99q11 -37 31 -59t46 -22z" />
    <glyph glyph-name="Idotaccent" unicode="&#x130;" horiz-adv-x="200" 
d="M156 705v-705h-120v705h120zM34 731q0 27 18 45.5t45 18.5q26 0 44.5 -18.5t18.5 -45.5t-18.5 -45t-44.5 -18q-27 0 -45 18t-18 45z" />
    <glyph glyph-name="dotlessi" unicode="&#x131;" horiz-adv-x="192" 
d="M154 520v-520h-117v520h117z" />
    <glyph glyph-name="Lcaron" unicode="&#x13d;" horiz-adv-x="539" 
d="M161 706v-601h255v-105h-375v706h120zM196 835q0 32 22 53.5t54 21.5t53.5 -23t21.5 -57l-35 -168h-96l24 103q-20 9 -32 28t-12 42z" />
    <glyph glyph-name="lcaron" unicode="&#x13e;" horiz-adv-x="409" 
d="M153 693v-693h-116v693h116zM229 636q0 32 22 53.5t54 21.5t53.5 -23t21.5 -57l-35 -168h-96l24 103q-20 9 -32 28t-12 42z" />
    <glyph glyph-name="Nacute" unicode="&#x143;" horiz-adv-x="625" 
d="M166 705l279 -485v485h120v-705h-129l-272 486v-486h-120v705h122zM325 706h-122l107 181h145z" />
    <glyph glyph-name="nacute" unicode="&#x144;" horiz-adv-x="553" 
d="M155 520v-25q25 17 57 27t66 10q45 0 83 -15.5t66 -44t44 -67.5t16 -85v-320h-117v302q0 56 -30 87.5t-77 31.5q-48 0 -78 -32.5t-30 -86.5v-302h-117v520h117zM265 531h-122l107 181h145z" />
    <glyph glyph-name="Ncaron" unicode="&#x147;" horiz-adv-x="625" 
d="M166 705l279 -485v485h120v-705h-129l-272 486v-486h-120v705h122zM275 706l-160 230h137l55 -92q15 22 31 47.5t27 44.5h139l-164 -230h-65z" />
    <glyph glyph-name="ncaron" unicode="&#x148;" horiz-adv-x="553" 
d="M155 520v-25q25 17 57 27t66 10q45 0 83 -15.5t66 -44t44 -67.5t16 -85v-320h-117v302q0 56 -30 87.5t-77 31.5q-48 0 -78 -32.5t-30 -86.5v-302h-117v520h117zM235 519l-160 230h137l55 -92q15 22 31 47.5t27 44.5h139l-164 -230h-65z" />
    <glyph glyph-name="Ohungarumlaut" unicode="&#x150;" horiz-adv-x="738" 
d="M355 105q45 0 80 19t59.5 52.5t37.5 78.5t13 97q0 54 -13 99t-37.5 78t-59.5 51.5t-80 18.5q-44 0 -79 -18.5t-59.5 -51t-37.5 -78t-13 -99.5q0 -53 13 -98.5t37.5 -78.5t59.5 -51.5t79 -18.5zM46 352q0 82 22.5 148.5t63.5 113.5t98 72.5t125 25.5q71 0 128 -25.5
t97.5 -72.5t62.5 -113.5t22 -148.5q0 -83 -22.5 -150t-63 -114.5t-98 -73.5t-126.5 -26q-70 0 -127 26t-97.5 74t-62.5 115t-22 149zM321 710h-124l100 171h125zM508 710h-125l102 171h125z" />
    <glyph glyph-name="ohungarumlaut" unicode="&#x151;" horiz-adv-x="579" 
d="M272 532q49 0 92 -19.5t74.5 -55.5t49.5 -86.5t18 -113.5q0 -62 -17.5 -112t-48.5 -85t-74 -53.5t-94 -18.5t-93 18.5t-71.5 53.5t-46 85t-16.5 112t16.5 113t46.5 87t72 55.5t92 19.5zM388 257q0 75 -31 119.5t-85 44.5q-28 0 -48.5 -12.5t-34 -35t-20 -52.5t-6.5 -64
q0 -75 28 -116.5t82 -41.5q55 0 85 43t30 115zM239 531h-124l100 171h125zM426 531h-125l102 171h125z" />
    <glyph glyph-name="OE" unicode="&#x152;" horiz-adv-x="941" 
d="M359 712q25 0 46.5 -2.5t44.5 -9.5h406v-112h-329v-170h281v-113h-281v-199h329v-112h-431q-29 -6 -66 -6q-70 0 -127 26t-97.5 74t-62.5 115t-22 149t22.5 148.5t63.5 113.5t97.5 72.5t125.5 25.5zM359 101q14 0 25.5 0.5t22.5 3.5v489q-11 2 -22.5 4t-25.5 2
q-44 0 -79 -18.5t-59.5 -51.5t-37.5 -78.5t-13 -99.5q0 -53 13 -99t37.5 -80t59.5 -53t79 -19z" />
    <glyph glyph-name="oe" unicode="&#x153;" horiz-adv-x="958" 
d="M281 531q51 0 94.5 -21.5t75.5 -59.5q29 36 74 58.5t99 22.5q49 0 91 -21t72 -58t47 -86t17 -106v-51h-334q11 -54 39 -82.5t65 -28.5q36 0 70 25t50 79h122q-14 -47 -38 -86t-54 -67.5t-66 -44t-74 -15.5q-52 0 -97 21t-78 61q-32 -40 -76.5 -61t-98.5 -21
q-51 0 -92.5 18.5t-71.5 53t-46 84.5t-16 112t16.5 112.5t46.5 86.5t71.5 55.5t91.5 19.5zM281 422q-28 0 -48.5 -13t-34 -35t-20 -52.5t-6.5 -64.5q0 -75 28 -117t82 -42q29 0 50.5 13.5t36 35.5t21.5 50.5t7 58.5q0 31 -7.5 61t-22 53t-36 37.5t-50.5 14.5zM621 422
q-36 0 -64.5 -27.5t-40.5 -75.5q28 0 53.5 -0.5t51.5 -0.5h107q-12 48 -41.5 76t-65.5 28z" />
    <glyph glyph-name="Racute" unicode="&#x154;" horiz-adv-x="620" 
d="M571 0h-129l-175 315h-103v-315h-120v705h258q47 0 88 -14t71 -40t47 -62.5t17 -80.5q0 -29 -9 -57t-26 -52t-42 -43.5t-57 -29.5zM164 420h138q25 0 44.5 7.5t32.5 20t19.5 28.5t6.5 32q0 36 -27.5 63.5t-75.5 27.5h-138v-179zM299 730h-122l107 181h145z" />
    <glyph glyph-name="racute" unicode="&#x155;" horiz-adv-x="364" 
d="M158 520v-41q23 23 57.5 37.5t89.5 14.5v-110q-41 0 -69 -7t-45.5 -22.5t-25 -40.5t-7.5 -60v-291h-117v520h117zM171 531h-122l107 181h145z" />
    <glyph glyph-name="Rcaron" unicode="&#x158;" horiz-adv-x="620" 
d="M571 0h-129l-175 315h-103v-315h-120v705h258q47 0 88 -14t71 -40t47 -62.5t17 -80.5q0 -29 -9 -57t-26 -52t-42 -43.5t-57 -29.5zM164 420h138q25 0 44.5 7.5t32.5 20t19.5 28.5t6.5 32q0 36 -27.5 63.5t-75.5 27.5h-138v-179zM268 718l-160 230h137l55 -92
q15 22 31 47.5t27 44.5h139l-164 -230h-65z" />
    <glyph glyph-name="rcaron" unicode="&#x159;" horiz-adv-x="364" 
d="M158 520v-41q23 23 57.5 37.5t89.5 14.5v-110q-41 0 -69 -7t-45.5 -22.5t-25 -40.5t-7.5 -60v-291h-117v520h117zM141 519l-160 230h137l55 -92q15 22 31 47.5t27 44.5h139l-164 -230h-65z" />
    <glyph glyph-name="Sacute" unicode="&#x15a;" horiz-adv-x="626" 
d="M297 712q44 0 86.5 -13.5t77 -40.5t57 -68.5t26.5 -97.5l-109 -58v56q0 23 -11 43t-30 34.5t-44.5 23t-54.5 8.5q-23 0 -44 -5t-37 -14.5t-25.5 -24.5t-9.5 -35q0 -29 16 -47.5t42.5 -31.5t60 -22.5t69 -20.5t69 -25.5t60 -36.5t42.5 -54t16 -78q0 -54 -19 -94.5
t-53 -67.5t-79.5 -40.5t-99.5 -13.5q-45 0 -89 13t-80 39.5t-59.5 66.5t-27.5 95l117 68q1 -87 35.5 -128t103.5 -41q66 0 99 29t33 69q0 27 -16 44.5t-42.5 29.5t-60.5 21t-69 20t-69 25.5t-60.5 38.5t-42.5 59t-16 86q0 47 20.5 82.5t54 59t76 35.5t87.5 12zM302 730h-122
l107 181h145z" />
    <glyph glyph-name="sacute" unicode="&#x15b;" horiz-adv-x="537" 
d="M256 532q89 0 145 -46t70 -131l-115 -41q-3 28 -12.5 49.5t-23.5 35t-31 20.5t-34 7q-29 0 -51 -13t-22 -39q0 -27 30.5 -38.5t81.5 -21.5q52 -11 86 -26.5t54.5 -37t28.5 -49t8 -61.5q0 -36 -16 -64.5t-44 -48t-66.5 -29.5t-83.5 -10q-40 0 -77.5 10.5t-68 33t-51 57
t-25.5 83.5l113 36q3 -51 31.5 -80t70.5 -29q50 0 75 11.5t25 38.5q0 13 -8 22t-21 15t-28 9.5t-29 6.5q-39 7 -75.5 18.5t-65 31.5t-45.5 51t-17 76q0 21 8 47.5t29.5 50t58.5 39.5t95 16zM257 531h-122l107 181h145z" />
    <glyph glyph-name="Scaron" unicode="&#x160;" horiz-adv-x="626" 
d="M297 712q44 0 86.5 -13.5t77 -40.5t57 -68.5t26.5 -97.5l-109 -58v56q0 23 -11 43t-30 34.5t-44.5 23t-54.5 8.5q-23 0 -44 -5t-37 -14.5t-25.5 -24.5t-9.5 -35q0 -29 16 -47.5t42.5 -31.5t60 -22.5t69 -20.5t69 -25.5t60 -36.5t42.5 -54t16 -78q0 -54 -19 -94.5
t-53 -67.5t-79.5 -40.5t-99.5 -13.5q-45 0 -89 13t-80 39.5t-59.5 66.5t-27.5 95l117 68q1 -87 35.5 -128t103.5 -41q66 0 99 29t33 69q0 27 -16 44.5t-42.5 29.5t-60.5 21t-69 20t-69 25.5t-60.5 38.5t-42.5 59t-16 86q0 47 20.5 82.5t54 59t76 35.5t87.5 12zM271 718
l-160 230h137l55 -92q15 22 31 47.5t27 44.5h139l-164 -230h-65z" />
    <glyph glyph-name="scaron" unicode="&#x161;" horiz-adv-x="537" 
d="M256 532q89 0 145 -46t70 -131l-115 -41q-3 28 -12.5 49.5t-23.5 35t-31 20.5t-34 7q-29 0 -51 -13t-22 -39q0 -27 30.5 -38.5t81.5 -21.5q52 -11 86 -26.5t54.5 -37t28.5 -49t8 -61.5q0 -36 -16 -64.5t-44 -48t-66.5 -29.5t-83.5 -10q-40 0 -77.5 10.5t-68 33t-51 57
t-25.5 83.5l113 36q3 -51 31.5 -80t70.5 -29q50 0 75 11.5t25 38.5q0 13 -8 22t-21 15t-28 9.5t-29 6.5q-39 7 -75.5 18.5t-65 31.5t-45.5 51t-17 76q0 21 8 47.5t29.5 50t58.5 39.5t95 16zM227 519l-160 230h137l55 -92q15 22 31 47.5t27 44.5h139l-164 -230h-65z" />
    <glyph glyph-name="Tcaron" unicode="&#x164;" horiz-adv-x="607" 
d="M541 705v-106h-184v-599h-120v599h-193v106h497zM262 718l-160 230h137l55 -92q15 22 31 47.5t27 44.5h139l-164 -230h-65z" />
    <glyph glyph-name="tcaron" unicode="&#x165;" horiz-adv-x="580" 
d="M103 520v173h117v-173h85v-99h-85v-243q0 -47 4.5 -63t21.5 -16h59v-99h-67q-66 0 -100.5 39.5t-34.5 108.5v273h-62v99h62zM400 636q0 32 22 53.5t54 21.5t53.5 -23t21.5 -57l-35 -168h-96l24 103q-20 9 -32 28t-12 42z" />
    <glyph glyph-name="Uring" unicode="&#x16e;" horiz-adv-x="633" 
d="M164 705v-446q0 -71 36 -114.5t101 -43.5q31 0 57.5 11.5t45.5 32t30 49.5t11 65v446h120v-444q0 -63 -20 -113.5t-55.5 -86t-83.5 -54.5t-105 -19q-58 0 -105.5 19t-81 54.5t-52 86t-18.5 113.5v444h120z" />
    <glyph glyph-name="uring" unicode="&#x16f;" horiz-adv-x="561" 
d="M373 0v30q-26 -19 -59.5 -30.5t-67.5 -11.5q-44 0 -80.5 15t-63 42.5t-41.5 66.5t-15 86v322h116v-302q0 -55 26.5 -87t74.5 -32t78 31t30 88v302h116v-520h-114zM258 636q0 -13 9.5 -22.5t23.5 -9.5q12 0 21 9.5t9 22.5t-9 22t-21 9q-14 0 -23.5 -9t-9.5 -22zM180 636
q0 23 8.5 43.5t23.5 35.5t35.5 23.5t43.5 8.5t43 -8.5t35 -23.5t23.5 -35.5t8.5 -43.5t-8.5 -43t-23.5 -35t-35 -24t-43 -9t-43.5 9t-35.5 24t-23.5 35t-8.5 43z" />
    <glyph glyph-name="Uhungarumlaut" unicode="&#x170;" horiz-adv-x="625" 
d="M164 705v-446q0 -71 36 -114.5t101 -43.5q31 0 57.5 11.5t45.5 32t30 49.5t11 65v446h120v-444q0 -63 -20 -113.5t-55.5 -86t-83.5 -54.5t-105 -19q-58 0 -105.5 19t-81 54.5t-52 86t-18.5 113.5v444h120zM260 711h-124l100 171h125zM447 711h-125l102 171h125z" />
    <glyph glyph-name="uhungarumlaut" unicode="&#x171;" horiz-adv-x="561" 
d="M373 0v30q-26 -19 -59.5 -30.5t-67.5 -11.5q-44 0 -80.5 15t-63 42.5t-41.5 66.5t-15 86v322h116v-302q0 -55 26.5 -87t74.5 -32t78 31t30 88v302h116v-520h-114zM238 531h-124l100 171h125zM425 531h-125l102 171h125z" />
    <glyph glyph-name="Ydieresis" unicode="&#x178;" horiz-adv-x="631" 
d="M248 260q-30 53 -61 109.5t-62.5 113.5t-63 113t-60.5 109h130l173 -324l173 324h131l-240 -446v-259h-120v260zM324 786q0 32 21.5 54t53.5 22t54 -22t22 -54q0 -31 -22 -53.5t-54 -22.5t-53.5 22.5t-21.5 53.5zM139 786q0 32 22 54t54 22t53.5 -22t21.5 -54
q0 -31 -21.5 -53.5t-53.5 -22.5t-54 22.5t-22 53.5z" />
    <glyph glyph-name="Zacute" unicode="&#x179;" horiz-adv-x="641" 
d="M559 706v-96l-358 -505h372v-105h-527v95l357 504h-341v107h497zM309 730h-122l107 181h145z" />
    <glyph glyph-name="zacute" unicode="&#x17a;" horiz-adv-x="534" 
d="M463 520v-87l-274 -334h274v-99h-417v91l271 330h-257v99h403zM256 531h-122l107 181h145z" />
    <glyph glyph-name="zdotaccent" unicode="&#x17c;" horiz-adv-x="502" 
d="M181 569q0 30 21.5 51.5t52.5 21.5t52.5 -21.5t21.5 -51.5q0 -31 -21.5 -52t-52.5 -21t-52.5 21t-21.5 52zM458 545v-87l-274 -334h274v-99h-417v91l271 330h-257v99h403z" />
    <glyph glyph-name="Zcaron" unicode="&#x17d;" horiz-adv-x="641" 
d="M559 706v-96l-358 -505h372v-105h-527v95l357 504h-341v107h497zM279 718l-160 230h137l55 -92q15 22 31 47.5t27 44.5h139l-164 -230h-65z" />
    <glyph glyph-name="zcaron" unicode="&#x17e;" horiz-adv-x="534" 
d="M463 520v-87l-274 -334h274v-99h-417v91l271 330h-257v99h403zM225 519l-160 230h137l55 -92q15 22 31 47.5t27 44.5h139l-164 -230h-65z" />
    <glyph glyph-name="circumflex" unicode="&#x2c6;" horiz-adv-x="437" 
d="M244 749l160 -230h-137l-57 90l-13 -20q-11 -17 -23 -36.5t-20 -33.5h-139l164 230h65z" />
    <glyph glyph-name="caron" unicode="&#x2c7;" horiz-adv-x="437" 
d="M177 519l-160 230h137l55 -92q15 22 31 47.5t27 44.5h139l-164 -230h-65z" />
    <glyph glyph-name="breve" unicode="&#x2d8;" horiz-adv-x="434" 
d="M208 604q26 0 46.5 22.5t31.5 58.5h100q-20 -81 -66 -127t-112 -46q-63 0 -109.5 46t-66.5 127h99q11 -37 31 -59t46 -22z" />
    <glyph glyph-name="ring" unicode="&#x2da;" horiz-adv-x="334" 
d="M114 710q0 -13 9.5 -22.5t23.5 -9.5q12 0 21 9.5t9 22.5t-9 22t-21 9q-14 0 -23.5 -9t-9.5 -22zM36 710q0 23 8.5 43.5t23.5 35.5t35.5 23.5t43.5 8.5t43 -8.5t35 -23.5t23.5 -35.5t8.5 -43.5t-8.5 -43t-23.5 -35t-35 -24t-43 -9t-43.5 9t-35.5 24t-23.5 35t-8.5 43z" />
    <glyph glyph-name="tilde" unicode="&#x2dc;" horiz-adv-x="612" 
d="M30 236q45 50 90 81.5t96 31.5q26 0 50 -10t48 -23h-1l5 -3q20 -10 38.5 -18.5t33.5 -8.5q6 0 14.5 7.5t17.5 19t17.5 25.5t14.5 27l98 -72q-14 -23 -31.5 -45t-38 -39t-44 -27t-50.5 -10q-23 0 -47 9.5t-46.5 21.5t-43.5 21.5t-37 9.5q-12 0 -32.5 -18.5t-43.5 -54.5z
" />
    <glyph glyph-name="hungarumlaut" unicode="&#x2dd;" horiz-adv-x="474" 
d="M146 531h-124l100 171h125zM333 531h-125l102 171h125z" />
    <glyph glyph-name="uni0405" unicode="&#x405;" horiz-adv-x="621" 
d="M297 712q44 0 86.5 -13.5t77 -40.5t57 -68.5t26.5 -97.5l-109 -58v56q0 23 -11 43t-30 34.5t-44.5 23t-54.5 8.5q-23 0 -44 -5t-37 -14.5t-25.5 -24.5t-9.5 -35q0 -29 16 -47.5t42.5 -31.5t60 -22.5t69 -20.5t69 -25.5t60 -36.5t42.5 -54t16 -78q0 -54 -19 -94.5
t-53 -67.5t-79.5 -40.5t-99.5 -13.5q-45 0 -89 13t-80 39.5t-59.5 66.5t-27.5 95l117 68q1 -87 35.5 -128t103.5 -41q66 0 99 29t33 69q0 27 -16 44.5t-42.5 29.5t-60.5 21t-69 20t-69 25.5t-60.5 38.5t-42.5 59t-16 86q0 47 20.5 82.5t54 59t76 35.5t87.5 12z" />
    <glyph glyph-name="uni040E" unicode="&#x40e;" horiz-adv-x="665" 
d="M160 705l162 -372q39 93 80.5 187t79.5 185h129l-252 -565q-31 -69 -73.5 -104.5t-108.5 -35.5h-64v112h80q10 0 20 7.5t18.5 19.5t14 26.5t5.5 29.5q0 20 -5 31l-216 479h130z" />
    <glyph glyph-name="uni0410" unicode="&#x410;" horiz-adv-x="669" 
d="M322 521q-17 -51 -33.5 -96.5t-35.5 -99.5h139zM214 209l-74 -209h-121l248 705h110l248 -705h-122l-72 209h-217z" />
    <glyph glyph-name="uni0411" unicode="&#x411;" horiz-adv-x="577" 
d="M45 0v705h433v-112h-314v-177h153q44 0 82.5 -16.5t67 -44t45 -64.5t16.5 -79q0 -41 -16.5 -79.5t-45 -68t-67 -47t-82.5 -17.5h-272zM164 101h153q20 0 37 9.5t29 24.5t18.5 33.5t6.5 37.5t-6.5 38.5t-18.5 35t-28.5 25.5t-37.5 10h-153v-214z" />
    <glyph glyph-name="uni0412" unicode="&#x412;" horiz-adv-x="615" 
d="M165 593v-177h169q22 0 39.5 8t29.5 20.5t18.5 29t6.5 34.5q0 36 -26 60.5t-68 24.5h-169zM165 315v-214h185q23 0 41 9.5t31 25t19.5 34.5t6.5 38q0 47 -31.5 77t-82.5 30h-169zM45 706h289q47 0 85.5 -15t66.5 -41.5t43 -62.5t15 -77q0 -39 -15.5 -75t-42.5 -61
q37 -26 58 -70.5t21 -97.5q0 -45 -16 -83t-44.5 -65.5t-68 -42.5t-86.5 -15h-305v706z" />
    <glyph glyph-name="uni0413" unicode="&#x413;" horiz-adv-x="452" 
d="M49 705h376v-112h-256v-593h-120v705z" />
    <glyph glyph-name="uni0414" unicode="&#x414;" horiz-adv-x="708" 
d="M158 0v-133h-120v234h64q20 0 33.5 47t13.5 124v433h450v-604h56v-234h-120v133h-377zM269 593v-321q0 -52 -9 -95.5t-25 -75.5h245v492h-211z" />
    <glyph glyph-name="uni0415" unicode="&#x415;" horiz-adv-x="516" 
d="M492 705v-101h-328v-183h280v-100h-280v-220h328v-101h-448v705h448z" />
    <glyph glyph-name="uni0416" unicode="&#x416;" horiz-adv-x="1040" 
d="M442 310l-53 52q-62 -89 -126 -181.5t-127 -180.5h-145l308 442l-302 263h184l261 -239v239h119v-239l259 239h184l-302 -262l308 -443h-144l-253 362l-52 -50v-312h-119v310z" />
    <glyph glyph-name="uni0417" unicode="&#x417;" horiz-adv-x="629" 
d="M298 604q-66 0 -104.5 -44.5t-46.5 -126.5l-122 51q9 59 33.5 102t60 71t81 41.5t98.5 13.5q116 0 182.5 -53.5t66.5 -150.5q0 -46 -18 -80t-50 -58q41 -23 70 -62.5t29 -93.5q0 -52 -20 -93.5t-56.5 -71t-88.5 -45.5t-115 -16q-55 0 -101.5 13t-82.5 40t-59 69t-30 99
l113 59q8 -46 20.5 -77.5t31.5 -51.5t45.5 -29t62.5 -9q79 0 119.5 29.5t40.5 83.5q0 38 -28 65.5t-85 27.5h-127v101h111q22 0 40.5 8.5t31 22.5t19.5 32t7 37q0 43 -34 69.5t-95 26.5z" />
    <glyph glyph-name="uni0418" unicode="&#x418;" horiz-adv-x="632" 
d="M574 0h-120v487l-288 -487h-121v705h120v-496q71 124 144 248.5t144 247.5h121v-705z" />
    <glyph glyph-name="uni0419" unicode="&#x419;" horiz-adv-x="641" 
d="M574 0h-120v487l-288 -487h-121v705h120v-496q71 124 144 248.5t144 247.5h-279v100h288v-100h112v-705z" />
    <glyph glyph-name="uni041A" unicode="&#x41a;" horiz-adv-x="620" 
d="M210 354l-45 -41v-313h-120v705h120v-244l266 244h159l-294 -271l311 -434h-141z" />
    <glyph glyph-name="uni041B" unicode="&#x41b;" horiz-adv-x="658" 
d="M384 705l240 -705h-125l-177 521q-20 -57 -42 -122t-45 -132.5l-46 -135t-44 -131.5h-125l240 705h124z" />
    <glyph glyph-name="uni041C" unicode="&#x41c;" horiz-adv-x="758" 
d="M367 173l202 532h127v-706h-120v411l-155 -411h-108l-147 402v-402h-120v706h118z" />
    <glyph glyph-name="uni041D" unicode="&#x41d;" horiz-adv-x="593" 
d="M164 705v-260h252v260h120v-705h-120v340h-252v-340h-119v705h119z" />
    <glyph glyph-name="uni041E" unicode="&#x41e;" horiz-adv-x="710" 
d="M347 105q45 0 80 19t59.5 52.5t37.5 78.5t13 97q0 54 -13 99t-37.5 78t-59.5 51.5t-80 18.5q-44 0 -79 -18.5t-59.5 -51t-37.5 -78t-13 -99.5q0 -53 13 -98.5t37.5 -78.5t59.5 -51.5t79 -18.5zM38 352q0 82 22.5 148.5t63.5 113.5t98 72.5t125 25.5q71 0 128 -25.5
t97.5 -72.5t62.5 -113.5t22 -148.5q0 -83 -22.5 -150t-63 -114.5t-98 -73.5t-126.5 -26q-70 0 -127 26t-97.5 74t-62.5 115t-22 149z" />
    <glyph glyph-name="uni041F" unicode="&#x41f;" horiz-adv-x="593" 
d="M536 705v-705h-120v604h-252v-604h-119v705h491z" />
    <glyph glyph-name="uni0420" unicode="&#x420;" horiz-adv-x="553" 
d="M294 705q44 0 82.5 -17.5t67 -47t45 -68t16.5 -79.5t-16.5 -79t-45 -67.5t-67 -47.5t-82.5 -18h-123v-281h-120v705h243zM171 387h123q21 0 37.5 10t28.5 25.5t18.5 35t6.5 39.5q0 19 -6.5 37t-18.5 32.5t-29 23.5t-37 9h-123v-212z" />
    <glyph glyph-name="uni0421" unicode="&#x421;" horiz-adv-x="686" 
d="M350 -12q-69 0 -125.5 26t-96 74t-61 115t-21.5 149q0 81 21.5 147t61 113.5t95.5 73.5t126 26q198 0 289 -228l-106 -48q-32 81 -75.5 122t-107.5 41q-44 0 -78 -18.5t-57.5 -51.5t-36 -78t-12.5 -99q0 -53 12.5 -99t36 -80t57.5 -53t78 -19q64 0 110.5 44.5t66.5 117.5
l109 -48q-45 -118 -115.5 -172.5t-170.5 -54.5z" />
    <glyph glyph-name="uni0422" unicode="&#x422;" horiz-adv-x="575" 
d="M525 705v-106h-184v-599h-120v599h-193v106h497z" />
    <glyph glyph-name="uni0423" unicode="&#x423;" horiz-adv-x="604" 
d="M135 705l162 -372q39 93 80.5 187t79.5 185h129l-252 -565q-31 -69 -73.5 -104.5t-108.5 -35.5h-64v112h80q10 0 20 7.5t18.5 19.5t14 26.5t5.5 29.5q0 20 -5 31l-216 479h130z" />
    <glyph glyph-name="uni0424" unicode="&#x424;" horiz-adv-x="818" 
d="M345 0v138h-65q-52 0 -96 19t-76.5 52t-50.5 77t-18 95q0 54 19 100t53 79t81 51.5t103 18.5h50v76h119v-76h42q56 0 103 -18.5t80.5 -52t52.5 -79t19 -99.5q0 -51 -18 -95.5t-50 -77t-76 -51.5t-96 -19h-57v-138h-119zM295 529q-31 0 -56 -11.5t-43 -30.5t-27.5 -45
t-9.5 -54q0 -30 10 -57t28 -48t43 -33t55 -12h50v291h-50zM464 238h42q29 0 54 12t43 32.5t28.5 48t10.5 57.5q0 29 -10.5 55t-28.5 45t-43 30t-54 11h-42v-291z" />
    <glyph glyph-name="uni0425" unicode="&#x425;" horiz-adv-x="665" 
d="M492 705h142l-233 -340q59 -87 124 -183t125 -182h-142l-182 266l-182 -266h-143l251 365l-234 340h142l166 -244z" />
    <glyph glyph-name="uni0426" unicode="&#x426;" horiz-adv-x="654" 
d="M165 705v-604h282v604h119v-604h48v-235h-119v134h-450v705h120z" />
    <glyph glyph-name="uni0427" unicode="&#x427;" horiz-adv-x="582" 
d="M261 237q-111 0 -167.5 60t-56.5 181v228h119v-245q0 -23 6.5 -45.5t18 -39.5t28 -27.5t36.5 -10.5h160v368h120v-706h-120v237h-144z" />
    <glyph glyph-name="uni0428" unicode="&#x428;" horiz-adv-x="908" 
d="M168 705v-604h217v604h120v-604h216v604h120v-705h-793v705h120z" />
    <glyph glyph-name="uni0429" unicode="&#x429;" horiz-adv-x="957" 
d="M168 705v-604h219v604h119v-604h217v604h120v-604h76v-234h-120v133h-750v705h119z" />
    <glyph glyph-name="uni042A" unicode="&#x42a;" horiz-adv-x="660" 
d="M247 705v-280h130q49 0 91.5 -16.5t73.5 -45t48.5 -67t17.5 -82.5q0 -46 -17.5 -85t-48.5 -67.5t-73.5 -45t-91.5 -16.5h-250v599h-113v106h233zM377 101q25 0 45.5 9.5t35 25t22.5 36t8 42.5t-8 42t-22.5 35.5t-35 24.5t-45.5 9h-130v-224h130z" />
    <glyph glyph-name="uni042B" unicode="&#x42b;" horiz-adv-x="729" 
d="M548 0v705h119v-705h-119zM166 705v-293h116q49 0 91.5 -14t73 -40t48 -62.5t17.5 -81.5q0 -46 -17.5 -85t-48.5 -67.5t-73 -45t-91 -16.5h-236v705h120zM282 101q25 0 45.5 9t35 24t22.5 34.5t8 41.5q0 44 -30.5 72.5t-80.5 28.5h-116v-210h116z" />
    <glyph glyph-name="uni042C" unicode="&#x42c;" horiz-adv-x="574" 
d="M164 705v-288h130q50 0 92.5 -15t73 -42t48 -64.5t17.5 -81.5q0 -46 -17.5 -85t-48.5 -67.5t-73.5 -45t-91.5 -16.5h-250v705h120zM294 101q25 0 45.5 9.5t35 25t22.5 36t8 42.5q0 44 -30.5 73.5t-80.5 29.5h-130v-216h130z" />
    <glyph glyph-name="uni042D" unicode="&#x42d;" horiz-adv-x="699" 
d="M253 418h265q-9 38 -26.5 71.5t-41.5 59t-53.5 40.5t-63.5 15q-63 0 -109 -45t-73 -118h-119q87 271 301 271q70 0 128 -27.5t99 -76.5t63.5 -116.5t22.5 -148.5q0 -82 -23 -148t-64.5 -112t-99 -70.5t-126.5 -24.5q-109 0 -182 67.5t-115 204.5h124q17 -75 63.5 -117
t109.5 -42q38 0 70.5 15.5t57.5 43t41 64t22 78.5h-271v116z" />
    <glyph glyph-name="uni042E" unicode="&#x42e;" horiz-adv-x="907" 
d="M168 428h67q19 134 99.5 207t203.5 73q71 0 128 -25t97.5 -71.5t62 -112t21.5 -147.5q0 -83 -22.5 -150t-63 -114.5t-97.5 -73.5t-126 -26q-66 0 -120.5 23t-94 65t-63.5 101.5t-29 133.5h-63v-311h-120v706h120v-278zM538 101q45 0 80 19.5t59.5 53.5t37.5 80t13 98
q0 54 -13 99t-37.5 78t-59.5 51.5t-80 18.5q-44 0 -79 -18.5t-59.5 -51t-37.5 -78t-13 -99.5q0 -53 13 -99t37.5 -80t59.5 -53t79 -19z" />
    <glyph glyph-name="uni042F" unicode="&#x42f;" horiz-adv-x="595" 
d="M193 325q-32 10 -57.5 29.5t-42.5 44.5t-26 53t-9 56q0 44 17 80.5t46.5 62.5t70 40t88.5 14h257v-705h-119v311h-104l-175 -311h-128zM418 604h-138q-24 0 -43.5 -8t-33 -21.5t-20.5 -31t-7 -35.5q0 -17 6.5 -34t19.5 -30.5t32.5 -22.5t45.5 -9h138v192z" />
    <glyph glyph-name="uni0430" unicode="&#x430;" horiz-adv-x="570" 
d="M278 422q-95 0 -108 -88l-118 46q22 71 82 111t143 40q108 0 162.5 -47t54.5 -135v-204q0 -24 9 -30t38 -6v-109h-47q-32 0 -55 10t-37 27q-32 -23 -75 -35.5t-89 -12.5q-85 0 -139.5 39.5t-59.5 118.5q0 22 9 47.5t28.5 48t49 40.5t70.5 27q37 6 70 12.5t58 13.5
t40 15.5t15 19.5q0 21 -27 36t-74 15zM379 236q-18 -8 -39.5 -14.5t-42.5 -11t-41 -7.5t-35 -5l-25 -4q-17 -8 -29.5 -20t-12.5 -26q0 -24 24 -37t60 -13q25 0 50 5t45.5 16t33 28t12.5 41v48z" />
    <glyph glyph-name="uni0431" unicode="&#x431;" horiz-adv-x="542" 
d="M474 646q-4 -34 -24.5 -47t-50.5 -16.5t-65.5 -3t-69 -5t-61.5 -23.5t-42 -59q25 19 53.5 29t56.5 10q46 0 86 -19.5t69 -54.5t45.5 -84t16.5 -107q0 -64 -17 -115.5t-46.5 -87.5t-70 -55t-87.5 -19q-15 0 -37.5 1t-48 8.5t-51 23.5t-46 45t-33.5 74t-13 110q0 116 9 190
t31.5 120t60.5 70.5t96 42.5q20 6 41.5 10t49.5 7t65 4.5t89 2.5zM264 422q-24 0 -44 -13.5t-34 -36t-22 -52.5t-8 -63q0 -34 8 -63t22 -50.5t34 -33.5t44 -12t44 12.5t34 34t21.5 50.5t7.5 62q0 34 -7.5 64.5t-21.5 52.5t-34 35t-44 13z" />
    <glyph glyph-name="uni0432" unicode="&#x432;" horiz-adv-x="541" 
d="M46 520h264q32 0 60 -12t48.5 -33t32.5 -49t12 -60q0 -55 -35 -93q59 -39 59 -115q0 -31 -12 -59.5t-32.5 -50.5t-48 -35t-59.5 -13h-289v520zM162 214v-105h156q22 0 37.5 15.5t15.5 36.5t-15.5 37t-37.5 16h-156zM162 411v-88h148q18 0 31.5 12.5t13.5 30.5t-13.5 31.5
t-31.5 13.5h-148z" />
    <glyph glyph-name="uni0433" unicode="&#x433;" horiz-adv-x="515" 
d="M128 320l-90 32q10 87 66.5 133t146.5 46q58 0 95.5 -16t59 -39t30 -49.5t8.5 -47.5q0 -42 -12 -70.5t-36 -48.5t-60.5 -33t-85.5 -24l-12 -2h3q-14 -3 -29.5 -7t-28.5 -10t-21 -14.5t-8 -21.5q0 -27 25 -38.5t75 -11.5q42 0 70 28t33 77l106 -32q-5 -48 -24.5 -82.5
t-48.5 -56.5t-65.5 -32.5t-76.5 -10.5q-45 0 -83.5 10t-66.5 29t-44 47.5t-16 64.5q0 34 8 61t28 47.5t54 35.5t87 25q50 10 81 24t31 41q0 26 -22.5 37t-52.5 11q-17 0 -34.5 -5t-31.5 -15t-23 -25t-9 -35z" />
    <glyph glyph-name="uni0434" unicode="&#x434;" horiz-adv-x="668" 
d="M34 99h71l151 421h112l150 -421h82v-232h-116v133h-333v-133h-117v232zM224 99h177q-12 34 -22.5 64t-21 58.5t-21 59t-23.5 66.5z" />
    <glyph glyph-name="uni0435" unicode="&#x435;" horiz-adv-x="547" 
d="M153 209q10 -54 38.5 -82t67.5 -28q32 0 64.5 21.5t54.5 69.5l103 -52q-37 -67 -93 -108.5t-120 -41.5q-49 0 -92.5 19.5t-75.5 55.5t-51 86t-19 111q0 127 60.5 199.5t171.5 72.5q49 0 90.5 -20t71.5 -56t47 -86t17 -110v-51h-335zM259 421q-38 0 -69.5 -27t-38.5 -76
h218q-2 24 -12.5 43t-26 32.5t-34 20.5t-37.5 7z" />
    <glyph glyph-name="uni0436" unicode="&#x436;" horiz-adv-x="848" 
d="M461 520v-167l179 167h165l-231 -214l229 -306h-140l-171 228l-31 -26v-202h-116v202l-16.5 12t-16.5 14l-170 -228h-141l230 305l-230 215h165l179 -167v167h116z" />
    <glyph glyph-name="uni0437" unicode="&#x437;" horiz-adv-x="563" 
d="M255 421q-98 0 -116 -111l-111 39q6 43 26.5 77t51 57.5t69 36t80.5 12.5q50 0 90.5 -12.5t68.5 -34.5t43 -52.5t15 -66.5q0 -26 -9 -52t-29 -46q16 -12 26.5 -27.5t16.5 -31.5t8.5 -32t2.5 -29q0 -72 -60.5 -116t-172.5 -44q-95 0 -155 43.5t-71 130.5l114 42
q1 -56 34 -80.5t79 -24.5q48 0 81.5 13.5t33.5 40.5q0 26 -18 41t-63 15h-98v109h98q38 0 52 15t14 35q0 23 -28 38t-73 15z" />
    <glyph glyph-name="uni0438" unicode="&#x438;" horiz-adv-x="541" 
d="M365 0v30q-26 -19 -59.5 -30.5t-67.5 -11.5q-44 0 -80.5 15t-63 42.5t-41.5 66.5t-15 86v322h116v-302q0 -55 26.5 -87t74.5 -32t78 31t30 88v302h116v-520h-114z" />
    <glyph glyph-name="uni0439" unicode="&#x439;" horiz-adv-x="537" 
d="M121 618h266v-99h-266v99zM371 15v30q-26 -19 -59.5 -30.5t-67.5 -11.5q-44 0 -80.5 15t-63 42.5t-41.5 66.5t-15 86v322h116v-302q0 -55 26.5 -87t74.5 -32t78 31t30 88v302h116v-520h-114z" />
    <glyph glyph-name="uni043A" unicode="&#x43a;" horiz-adv-x="507" 
d="M155 520v-167l176 167h163l-235 -215q29 -41 62.5 -82.5t65.5 -84.5l102 -138h-140l-170 227l-24 -24v-203h-117v520h117z" />
    <glyph glyph-name="uni043B" unicode="&#x43b;" horiz-adv-x="580" 
d="M4 99h71l164 420h110l194 -519h-123l-126 360q-33 -88 -68.5 -181t-67.5 -179h-154v99z" />
    <glyph glyph-name="uni043C" unicode="&#x43c;" horiz-adv-x="684" 
d="M494 520h123v-520h-118v286l-64 -144t-62 -142h-89l-119 285v-285h-117v520h126l156 -366z" />
    <glyph glyph-name="uni043D" unicode="&#x43d;" horiz-adv-x="549" 
d="M371 209h-209v-209h-116v519h116v-201h209v201h116v-519h-116v209z" />
    <glyph glyph-name="uni043E" unicode="&#x43e;" horiz-adv-x="553" 
d="M265 532q49 0 92 -19.5t74.5 -55.5t49.5 -86.5t18 -113.5q0 -62 -17.5 -112t-48.5 -85t-74 -53.5t-94 -18.5t-93 18.5t-71.5 53.5t-46 85t-16.5 112t16.5 113t46.5 87t72 55.5t92 19.5zM381 257q0 75 -31 119.5t-85 44.5q-28 0 -48.5 -12.5t-34 -35t-20 -52.5t-6.5 -64
q0 -75 28 -116.5t82 -41.5q55 0 85 43t30 115z" />
    <glyph glyph-name="uni043F" unicode="&#x43f;" horiz-adv-x="549" 
d="M163 520v-25q25 17 57 27t66 10q45 0 83 -15.5t66 -44t44 -67.5t16 -85v-320h-117v302q0 56 -30 87.5t-77 31.5q-48 0 -78 -32.5t-30 -86.5v-302h-117v520h117z" />
    <glyph glyph-name="uni0440" unicode="&#x440;" horiz-adv-x="550" 
d="M46 -191v711h109v-29q27 20 58 30.5t62 10.5q47 0 87.5 -19.5t70 -56t46.5 -88t17 -115.5q0 -59 -16.5 -107.5t-45.5 -83.5t-69 -54.5t-87 -19.5q-68 0 -114 39v-218h-118zM272 99q24 0 44 12.5t34 34.5t21.5 52t7.5 64q0 33 -7.5 62t-21.5 50.5t-34 34t-44 12.5t-44 -12
t-34.5 -33.5t-22 -50.5t-7.5 -63q0 -33 7.5 -62.5t22 -52t34.5 -35.5t44 -13z" />
    <glyph glyph-name="uni0441" unicode="&#x441;" horiz-adv-x="528" 
d="M264 532q36 0 70 -11.5t62.5 -34t49.5 -55.5t29 -75l-106 -48q-11 51 -40 82t-65 31q-28 0 -50 -13t-37 -35.5t-22.5 -52.5t-7.5 -63q0 -69 30 -111t87 -42q37 0 66.5 23.5t46.5 80.5l97 -54q-12 -41 -33.5 -71.5t-49.5 -51.5t-60.5 -31.5t-66.5 -10.5q-54 0 -97.5 20.5
t-73.5 56.5t-46.5 85t-16.5 106q0 59 16.5 109.5t47.5 87t74 57.5t96 21z" />
    <glyph glyph-name="uni0442" unicode="&#x442;" horiz-adv-x="772" 
d="M167 0h-118v520h118v-12q19 13 40.5 18.5t47.5 5.5q38 0 72 -16t57 -47q25 29 60.5 46t73.5 17q40 0 73.5 -16t58 -44t38 -66.5t13.5 -84.5v-321h-118v322q0 48 -22.5 73.5t-53.5 25.5q-32 0 -51 -26t-19 -73v-322h-118v322q0 48 -22 73.5t-54 25.5t-54 -25.5t-22 -73.5
v-322z" />
    <glyph glyph-name="uni0443" unicode="&#x443;" horiz-adv-x="512" 
d="M118 -90q13 0 23.5 11.5t18 28t12 35t4.5 31.5q0 8 -1 18t-5 20l-173 466h123l123 -337l128 337h117l-198 -533q-14 -36 -31 -69.5t-38.5 -59.5t-47 -42t-55.5 -16h-61v110h61z" />
    <glyph glyph-name="uni0444" unicode="&#x444;" horiz-adv-x="895" 
d="M376 -191v219q-25 -19 -55 -29t-60 -10q-47 0 -87 19.5t-69 54t-45.5 83t-16.5 107.5q0 64 17 115.5t46.5 87.5t70 55.5t87.5 19.5q32 0 63 -10t57 -30v29h101v-29q26 20 57 30t63 10q47 0 87.5 -19.5t70 -55.5t46.5 -87.5t17 -115.5q0 -59 -16.5 -107.5t-46 -83
t-69.5 -54t-87 -19.5q-32 0 -61 9t-53 29v-218h-117zM602 99q24 0 44 12.5t34 34.5t21.5 52t7.5 64q0 33 -7.5 62t-21.5 51t-34 34.5t-44 12.5t-44 -11t-34.5 -31t-22.5 -48t-8 -62v-17q0 -33 8 -61t22.5 -48.5t34.5 -32.5t44 -12zM267 99q24 0 44 12t34.5 33t22.5 49t8 60
v17q0 33 -8 60.5t-22.5 48t-34.5 32t-44 11.5t-44 -12.5t-34 -34.5t-21.5 -51t-7.5 -62q0 -34 7.5 -64t21.5 -52t34 -34.5t44 -12.5z" />
    <glyph glyph-name="uni0445" unicode="&#x445;" horiz-adv-x="535" 
d="M128 0h-137l195 269q-20 29 -43 61.5t-47 65t-47 64.5t-43 60h138l109 -157q26 38 55 78.5t55 78.5h138l-178 -252q22 -31 47 -65t50 -69t49.5 -69t47.5 -65h-137l-127 173z" />
    <glyph glyph-name="uni0446" unicode="&#x446;" horiz-adv-x="599" 
d="M426 0h-55v27q-25 -17 -58 -27.5t-66 -10.5q-44 0 -81 15t-63.5 42.5t-41.5 66t-15 85.5v322h117v-302q0 -55 26.5 -87.5t74.5 -32.5t77.5 31.5t29.5 88.5v302h117v-411h55v-235h-117v126z" />
    <glyph glyph-name="uni0447" unicode="&#x447;" horiz-adv-x="533" 
d="M355 0v156q-25 -15 -53.5 -23t-57.5 -8q-45 0 -81.5 15t-62.5 43t-40.5 67t-14.5 86v184h117v-184q0 -44 23.5 -72.5t69.5 -28.5q44 0 72 27.5t28 73.5v184h117v-520h-117z" />
    <glyph glyph-name="uni0448" unicode="&#x448;" horiz-adv-x="808" 
d="M575 0v14q-37 -25 -90 -25q-38 0 -71.5 15t-56.5 44q-26 -29 -62 -44t-74 -15t-69 14.5t-54 41.5t-35.5 66t-12.5 87v321h117v-319q0 -48 18.5 -75t49.5 -27q32 0 54 27t22 75v320h118v-320q0 -48 18.5 -75t51.5 -27q32 0 54 28t22 74v320h118v-411h50v-109h-168z" />
    <glyph glyph-name="uni0449" unicode="&#x449;" horiz-adv-x="824" 
d="M621 0h-51v14q-37 -25 -90 -25q-38 0 -71.5 15t-56.5 44q-26 -29 -62 -44t-74 -15t-69 14.5t-54 41.5t-35.5 66t-12.5 87v321h117v-319q0 -48 18.5 -75t49.5 -27q33 0 55 27t22 75v320h117v-320q0 -48 18.5 -75t51.5 -27q32 0 54 28t22 74v320h118v-411h51v-254h-118v145
z" />
    <glyph glyph-name="uni044A" unicode="&#x44a;" horiz-adv-x="530" 
d="M8 520h190v-160h91q40 0 74.5 -14.5t59.5 -38.5t39 -55t14 -65q0 -36 -14.5 -69.5t-39.5 -59.5t-59 -42t-74 -16h-208v421h-73v99zM289 99q18 0 31 8t22 20t13.5 26.5t4.5 26.5q0 13 -5 27.5t-14 26.5t-22.5 19.5t-29.5 7.5h-91v-162h91z" />
    <glyph glyph-name="uni044B" unicode="&#x44b;" horiz-adv-x="647" 
d="M464 0v520h117v-520h-117zM255 99q18 0 31.5 8t22.5 20t13.5 26.5t4.5 26.5q0 13 -5 27.5t-14 26.5t-22.5 19.5t-30.5 7.5h-91v-162h91zM255 360q41 0 75.5 -14.5t59.5 -38.5t39 -55t14 -65q0 -36 -14.5 -69.5t-39.5 -59.5t-59.5 -42t-74.5 -16h-208v520h117v-160h91z
" />
    <glyph glyph-name="uni044C" unicode="&#x44c;" horiz-adv-x="492" 
d="M253 99q18 0 31.5 8t22.5 20t13.5 26.5t4.5 26.5q0 13 -5 27.5t-14.5 26.5t-23 19.5t-29.5 7.5h-91v-162h91zM253 360q40 0 74.5 -14.5t60 -38.5t39.5 -55t14 -65q0 -36 -14.5 -69.5t-39.5 -59.5t-59.5 -42t-74.5 -16h-208v520h117v-160h91z" />
    <glyph glyph-name="uni044D" unicode="&#x44d;" horiz-adv-x="516" 
d="M154 318h183q-11 46 -39 75t-72 29q-18 0 -34.5 -8.5t-30.5 -23.5t-24.5 -36t-15.5 -46l-105 50q8 42 28.5 74t49 54t62.5 33.5t70 11.5q53 0 96 -20.5t73.5 -57t47 -87t16.5 -109.5q0 -57 -16 -106t-46.5 -85t-73.5 -56.5t-97 -20.5q-35 0 -68.5 11t-62 33t-49.5 53
t-31 72l100 44q17 -54 46 -79t65 -25q48 0 75.5 28.5t36.5 82.5h-184v109z" />
    <glyph glyph-name="uni044E" unicode="&#x44e;" horiz-adv-x="696" 
d="M165 321h18q9 47 28 85.5t47.5 66.5t65 43t79.5 15q49 0 91.5 -19.5t74 -55t49.5 -86t18 -113.5q0 -62 -17.5 -112t-48 -84.5t-73.5 -53t-94 -18.5q-92 0 -152 57.5t-72 162.5h-14v-209h-117v519h117v-198zM519 257q0 75 -31 120t-85 45q-28 0 -48.5 -13t-34 -35
t-20 -52.5t-6.5 -64.5q0 -75 27.5 -117t82.5 -42t85 43.5t30 115.5z" />
    <glyph glyph-name="uni044F" unicode="&#x44f;" horiz-adv-x="532" 
d="M153 197q-52 17 -80 57.5t-28 97.5q0 35 13 66t35.5 53.5t52.5 35.5t65 13h260v-520h-118v187h-69q-33 -46 -69 -94t-68 -93h-135zM162 353q0 -26 18 -47t44 -21h129v136h-129q-26 0 -44 -20.5t-18 -47.5z" />
    <glyph glyph-name="uni10D0" unicode="&#x10d0;" horiz-adv-x="474" 
d="M164 250q-12 -27 -16 -44.5t-4 -31.5q0 -17 7.5 -30t20 -23t28 -15t32.5 -5q24 0 40.5 8.5t27 23t15.5 33t5 38.5q0 35 -15.5 58.5t-38.5 42t-49.5 36t-49.5 39t-38.5 51.5t-15.5 74v40h120v-40q0 -20 15.5 -35.5t38.5 -31.5t49.5 -35t49.5 -44.5t38.5 -60.5t15.5 -84
q0 -59 -17.5 -102t-46.5 -70.5t-65.5 -40.5t-75.5 -13t-77 13t-68 37t-48 58.5t-18 77.5q0 26 8.5 57t28.5 71z" />
    <glyph glyph-name="uni10D1" unicode="&#x10d1;" horiz-adv-x="500" 
d="M465 242q0 -50 -10 -96t-34.5 -81t-67 -56t-108.5 -21t-109 21t-67.5 56t-34.5 81t-10 96q0 45 7.5 90.5t27.5 83.5t55 64.5t89 34.5v50h-3q-31 0 -55.5 4t-41 15t-25.5 30t-9 48v54h119v-42q0 2 10 2h187l60 -111h-124v-59q40 -15 68 -43t44.5 -63.5t24 -76t7.5 -81.5z
M345 242q0 28 -3 57t-13.5 52.5t-30 38t-52.5 14.5t-53 -14.5t-31 -38t-14.5 -52.5t-3.5 -57t3.5 -53.5t14.5 -45t30.5 -31t52.5 -11.5t52.5 11.5t30 31t14 45t3.5 53.5z" />
    <glyph glyph-name="uni10D2" unicode="&#x10d2;" horiz-adv-x="547" 
d="M251 516q46 0 80.5 -14t57.5 -38t35 -56.5t12 -69.5q0 -20 -4 -48.5t-12 -51.5q49 -32 69.5 -87.5t20.5 -119.5q0 -50 -13.5 -96t-43 -81.5t-75.5 -57t-110 -21.5q-65 0 -111 21.5t-75.5 57t-43 81.5t-13.5 96q0 51 14.5 95.5t45.5 77.5t78 52.5t112 19.5h17t15 -1
q5 14 7 34t2 31q0 27 -15 45.5t-53 18.5t-85.5 -31t-94.5 -87v153q43 39 89 58t94 19zM391 31q0 21 -5 44.5t-18.5 43t-36 32.5t-56.5 13q-35 0 -59.5 -10.5t-40 -28.5t-23 -42t-7.5 -52t6.5 -54t21 -46t38 -32t57.5 -12t57.5 12t38 32t21 46t6.5 54z" />
    <glyph glyph-name="uni10D3" unicode="&#x10d3;" horiz-adv-x="804" 
d="M211 -47q-28 0 -61.5 -11.5t-73.5 -36.5l-49 90q21 16 46 28t48 17q-39 38 -66 92t-27 135q0 48 8.5 92.5t31.5 79.5t63.5 56t103.5 21q59 0 93 -13.5t54 -42.5q23 29 61 42.5t96 13.5q67 0 109.5 -20t67 -54.5t34 -80t9.5 -95.5t-9.5 -95t-34.5 -79.5t-67.5 -54.5
t-108.5 -20t-108.5 20t-67.5 54t-35 80t-10 97q0 27 -2 52t-10 43.5t-24.5 29.5t-45.5 11q-30 0 -48 -11.5t-27 -30t-11.5 -43.5t-2.5 -52q0 -59 19 -98t49.5 -66t70 -45t80.5 -34t80.5 -34t70 -44.5t49.5 -65t19 -96.5h-121q0 35 -27.5 65.5t-66.5 53.5t-82.5 36.5
t-76.5 13.5zM438 266q0 -28 3.5 -52.5t14.5 -43t30.5 -29.5t52.5 -11t52.5 11t30 29.5t14 43t3.5 52.5t-3.5 53.5t-14 44t-30.5 29.5t-53 11t-53 -11t-30.5 -29.5t-13.5 -44t-3 -53.5z" />
    <glyph glyph-name="uni10D4" unicode="&#x10d4;" horiz-adv-x="489" 
d="M237 -225q-49 0 -88.5 15.5t-67 44t-42.5 69.5t-15 92q0 32 9.5 81t28.5 98l102 -57q-10 -32 -15 -66t-5 -56q0 -51 22.5 -79.5t73.5 -28.5q18 0 33 6t26.5 20.5t17.5 39.5t6 63v304q0 45 -23.5 64t-58.5 19q-18 0 -40 -9.5t-45.5 -26t-48 -39t-46.5 -49.5v159
q84 77 182 77q41 0 77.5 -12t63.5 -36t43 -60t16 -84v-300q0 -74 -16 -122.5t-44 -76.5t-65.5 -39t-80.5 -11z" />
    <glyph glyph-name="uni10D5" unicode="&#x10d5;" horiz-adv-x="515" 
d="M201 279h62q13 0 25.5 2t22 8.5t15.5 17.5t6 29q0 41 -24.5 54.5t-60.5 13.5t-85.5 -28.5t-96.5 -82.5v163q36 26 85 43t99 17q52 0 90 -15t63 -40t37.5 -57.5t12.5 -67.5q0 -29 -8 -57t-33 -51q29 -20 43 -51t14 -69v-105q0 -64 -18 -107.5t-48 -70.5t-68.5 -38.5
t-79.5 -11.5q-49 0 -91 14t-73 42.5t-48.5 71t-17.5 98.5q0 35 10.5 76.5t33.5 87.5l104 -59q-15 -32 -21.5 -58.5t-6.5 -46.5q0 -29 8.5 -50.5t22.5 -35t32 -20t38 -6.5q19 0 37.5 5t33 17.5t23 35t8.5 57.5v102q0 10 -4 20.5t-12.5 19.5t-21.5 14.5t-31 5.5h-77v113z" />
    <glyph glyph-name="uni10D6" unicode="&#x10d6;" horiz-adv-x="687" 
d="M26 490q0 57 17.5 99t46 69.5t64.5 40.5t73 13q34 0 66 -11t57 -32t40 -51.5t15 -69.5v-15t-1 -15q5 1 10 1h12q66 0 109 -23t67.5 -60.5t34 -85.5t9.5 -98t-9.5 -97.5t-34.5 -84.5t-67.5 -59.5t-108.5 -22.5t-108.5 22.5t-67.5 59.5t-34.5 84.5t-9.5 97.5v13t1 14
q-5 -1 -9 -1h-9q-33 0 -62.5 13.5t-52 40.5t-35.5 66.5t-13 91.5zM526 252q0 28 -3 55.5t-12.5 49.5t-28.5 36t-50 14q-29 0 -49.5 -13.5t-33 -35t-18.5 -49.5t-6 -57q0 -28 3.5 -55t14.5 -48.5t31 -34.5t52 -13q33 0 52.5 13t30 34t14 48t3.5 56zM282 515q0 28 -5.5 45
t-14.5 26t-20.5 11.5t-23.5 2.5q-13 0 -26 -5t-23 -17.5t-16.5 -33.5t-6.5 -54q0 -20 2 -38t8.5 -32t18.5 -22t33 -8q22 0 36.5 11.5t23 29.5t11.5 40.5t3 43.5z" />
    <glyph glyph-name="uni10D7" unicode="&#x10d7;" horiz-adv-x="820" 
d="M655 252q0 28 -2.5 55.5t-11.5 49t-27.5 34.5t-51.5 13q-32 0 -50 -15.5t-27.5 -40t-12.5 -55t-4 -60.5q-2 -47 -13 -91.5t-36 -78.5t-66.5 -54.5t-104.5 -20.5q-66 0 -108.5 22.5t-67.5 59.5t-34.5 84.5t-9.5 97.5t9.5 97.5t34 84.5t67 59.5t109.5 22.5q57 0 95.5 -20.5
t61.5 -50.5q21 32 59 51.5t99 19.5q66 0 107.5 -22.5t64.5 -59.5t31.5 -84.5t8.5 -97.5q0 -48 -10.5 -94.5t-36.5 -83t-69.5 -60.5t-110.5 -27l-29 114q44 0 71 13t41.5 34t19 48t4.5 56zM349 252q0 28 -3.5 55.5t-14 49t-30.5 34.5t-53 13t-53 -13t-30.5 -34.5t-13.5 -49
t-3 -55.5t3.5 -55t14 -48.5t30 -34.5t52.5 -13t52.5 13t30.5 34t14.5 48t3.5 56z" />
    <glyph glyph-name="uni10D8" unicode="&#x10d8;" horiz-adv-x="515" 
d="M361 252q0 28 -4.5 55.5t-16.5 49t-33 34.5t-55 13q-33 0 -54 -13t-33 -34.5t-16.5 -49t-4.5 -55.5q0 -44 16 -85t57 -67l-56 -98q-36 21 -62 49t-42.5 60.5t-24 68.5t-7.5 72q0 50 11 97.5t37 84.5t69.5 59.5t109.5 22.5t109.5 -22.5t69.5 -59.5t37 -84.5t11 -97.5
q0 -36 -7.5 -72t-24 -69t-42.5 -61t-63 -48l-52 99q39 26 55 66.5t16 84.5z" />
    <glyph glyph-name="uni10D9" unicode="&#x10d9;" horiz-adv-x="511" 
d="M201 262h70q13 0 25.5 2.5t22 9t15.5 18t6 29.5q0 44 -28 65.5t-65 21.5h-30v112q47 0 91 -12t77.5 -36t54 -61t20.5 -87q0 -42 -13.5 -69.5t-35.5 -44.5q65 -38 65 -117v-90q0 -64 -18.5 -107.5t-49 -70.5t-70 -38.5t-80.5 -11.5q-49 0 -91.5 13t-74 40t-49.5 68.5
t-18 97.5q0 36 11 78.5t34 89.5l104 -59q-16 -32 -23 -59.5t-7 -49.5q0 -29 9 -49.5t23.5 -33t33.5 -18t39 -5.5q19 0 38 6t34 19.5t24.5 35.5t9.5 55v89q0 20 -16.5 38t-52.5 18h-85v113z" />
    <glyph glyph-name="uni10DA" unicode="&#x10da;" horiz-adv-x="499" 
d="M144 56q0 -33 13 -61t34.5 -48.5t51 -32.5t62.5 -12h115v-105h-114q-59 0 -110 20t-89.5 56t-60.5 85t-22 108v230q0 45 17 85t47 70t70 47.5t86 17.5q45 0 85 -17.5t70 -47.5t47.5 -70t17.5 -85v-247h-120v255q0 21 -8 39t-21.5 31.5t-31.5 21.5t-38 8q-21 0 -39 -8
t-32 -21.5t-22 -31.5t-8 -39v-248z" />
    <glyph glyph-name="uni10DB" unicode="&#x10db;" horiz-adv-x="512" 
d="M465 252q0 -50 -10 -97.5t-34.5 -85t-67 -60t-108.5 -22.5t-109 22.5t-67.5 60t-34.5 85t-10 97.5t9.5 97.5t34 84.5t67 59.5t108.5 22.5q34 0 58.5 -6.5t43.5 -17.5v26q0 44 -26.5 62.5t-61.5 18.5q-20 0 -45 -4.5t-50.5 -15t-50 -29t-44.5 -46.5v134q42 37 92 55.5
t98 18.5q40 0 77.5 -12t66.5 -36t46.5 -60t17.5 -84v-268zM345 252q0 28 -3.5 55.5t-14 49t-30 34.5t-52.5 13t-53 -13t-30.5 -34.5t-14 -49t-3.5 -55.5t3.5 -55t14.5 -48.5t30.5 -34.5t52.5 -13t52.5 13t30 34t14 48t3.5 56z" />
    <glyph glyph-name="uni10DC" unicode="&#x10dc;" horiz-adv-x="512" 
d="M36 520q0 48 17.5 83t46.5 57.5t66.5 33.5t77.5 11h191v-106h-188q-37 0 -64 -23t-27 -68v-17q20 12 44.5 18.5t58.5 6.5q66 0 108.5 -23t67 -60.5t33.5 -85.5t9 -98t-10 -97t-34.5 -83.5t-67.5 -58.5t-109 -22t-108.5 22.5t-67.5 59.5t-34.5 84.5t-9.5 97.5v268z
M156 249q0 -29 3 -55.5t13.5 -47t30.5 -33t53 -12.5t52.5 12.5t30.5 33.5t14.5 47.5t3.5 54.5t-3.5 56t-14 50t-30.5 35.5t-53 13.5t-53 -13.5t-30.5 -35.5t-13.5 -50t-3 -56z" />
    <glyph glyph-name="uni10DD" unicode="&#x10dd;" horiz-adv-x="803" 
d="M333 278q0 27 -3.5 50t-13.5 40t-28.5 26.5t-47.5 9.5q-33 0 -51.5 -13t-28 -34.5t-11.5 -49t-2 -55.5q0 -29 5 -56t19.5 -48t41 -34t70.5 -13l-28 -115q-67 3 -111 27t-69.5 61t-36 83.5t-10.5 94.5q0 50 8 97.5t31.5 84.5t64.5 59.5t107 22.5q58 0 94.5 -18.5
t58.5 -49.5q23 32 58 50t97 18q66 0 107 -22.5t64.5 -59.5t31.5 -84.5t8 -97.5q0 -48 -10.5 -94.5t-36 -83.5t-69.5 -61t-111 -27l-27 115q43 0 70 13t41 34t19 48t5 56q0 28 -2 55.5t-11.5 49t-28 34.5t-51.5 13q-29 0 -47.5 -9.5t-28.5 -26.5t-13.5 -40t-3.5 -50v-116
h-120v116z" />
    <glyph glyph-name="uni10DE" unicode="&#x10de;" horiz-adv-x="503" 
d="M193 431h85q23 0 35.5 13.5t12.5 43.5q0 23 -16 34.5t-39.5 18t-51.5 12.5t-51.5 18t-39.5 34.5t-16 61.5v45h117v-38q0 -6 16 -9.5t40.5 -9t53 -15.5t53 -28.5t40.5 -48t16 -74.5q0 -38 -9.5 -65.5t-25.5 -44.5q27 -19 41 -48t14 -63v-48q0 -73 -19 -118.5t-50 -70.5
t-71.5 -34t-83.5 -9q-55 0 -96 19t-68.5 50t-41.5 71.5t-14 83.5q0 31 6.5 60.5t18.5 61.5l105 -60q-5 -17 -7.5 -32.5t-2.5 -29.5q0 -52 24.5 -81.5t84.5 -29.5q29 0 47.5 8.5t29 24.5t14.5 38t4 48v39q0 10 -4.5 21t-15 20t-26.5 14.5t-39 5.5h-70v111z" />
    <glyph glyph-name="uni10DF" unicode="&#x10df;" horiz-adv-x="644" 
d="M144 253q0 -49 23 -74t54 -25q42 0 61.5 26.5t19.5 68.5t-31 102l-73 -13v117l296 53h99v-498q0 -56 -17.5 -100t-48 -74t-72 -45.5t-89.5 -15.5q-52 0 -107 17.5t-121 55.5l56 106l36 -20q19 -11 35.5 -19.5t31.5 -14t30 -8.5t32 -3q49 0 81.5 27t32.5 86v388
q-22 -5 -38.5 -8.5t-40.5 -8.5q27 -72 27 -133q0 -48 -15 -85t-41.5 -62t-63.5 -38t-81 -13q-38 0 -73 13.5t-62 40.5t-43 67t-16 93q0 35 17 81l113 -31q-12 -33 -12 -53z" />
    <glyph glyph-name="uni10E0" unicode="&#x10e0;" horiz-adv-x="803" 
d="M333 277q0 26 -2.5 49t-11.5 40.5t-26 27.5t-45 10q-33 0 -53 -15.5t-30.5 -39.5t-14 -54t-3.5 -59q0 -17 5 -40t19.5 -44t41 -36t70.5 -15l-28 -114q-67 3 -111 28t-69.5 64t-36 87.5t-10.5 99.5v38q0 98 19 166t50.5 112.5t74 69t89 36t95 14t92.5 2.5h82v-105h-90
q-41 0 -81 -5t-75.5 -16.5t-64.5 -30.5t-47 -47q34 16 75 16q58 0 92 -19t54 -49q23 32 57.5 50t96.5 18q66 0 107 -20t64.5 -54.5t31.5 -79.5t8 -96q0 -48 -10.5 -96.5t-36 -88t-69.5 -65.5t-111 -29l-27 114q43 0 70 15t41 39t19 53t5 58q0 28 -2 53t-11.5 44t-28 30
t-51.5 11q-29 0 -47.5 -10t-28.5 -27.5t-13.5 -40.5t-3.5 -49v-115h-120v115z" />
    <glyph glyph-name="uni10E1" unicode="&#x10e1;" horiz-adv-x="495" 
d="M248 -12q-103 0 -157.5 63.5t-54.5 178.5v476h121v-476q0 -67 25.5 -98t63.5 -31q25 0 43 10t29 26.5t16.5 39t5.5 48.5t-7.5 56.5t-21 62t-32 63t-40.5 59.5l107 63q25 -38 46 -77.5t36 -78.5t23.5 -75t8.5 -66q0 -64 -18 -110t-48 -76t-68 -44t-78 -14z" />
    <glyph glyph-name="uni10E2" unicode="&#x10e2;" horiz-adv-x="713" 
d="M366 186v-186h-120v363q0 42 14.5 74.5t39 55t58 34t71.5 11.5t71.5 -11.5t59 -34t40 -55t14.5 -74.5q0 -34 -15 -63.5t-39 -50.5q40 -20 62.5 -45t33 -52t13 -54t2.5 -51q0 -57 -19.5 -106.5t-57.5 -86t-94.5 -58t-129.5 -21.5q-88 0 -152.5 28t-107 77.5t-63 118.5
t-20.5 150q0 76 22.5 165.5t70.5 187.5l110 -56q-42 -88 -63 -168.5t-21 -145.5q0 -54 13 -99t40.5 -77t69 -49.5t98.5 -17.5q40 0 74 13t58.5 35t38 52t13.5 65q0 21 -8.5 44t-26 42.5t-42.5 32.5t-58 13h-50zM366 298h54q15 0 28.5 3t24.5 10.5t17.5 20t6.5 31.5
q0 31 -20 49t-48 18t-45.5 -18t-17.5 -49v-65z" />
    <glyph glyph-name="uni10E3" unicode="&#x10e3;" horiz-adv-x="594" 
d="M544 -5q0 -49 -18 -89.5t-49 -69.5t-73 -45t-90 -16t-90 16t-73.5 45t-49.5 69.5t-18 89.5q0 19 4.5 41t12.5 45t18 44.5t21 39.5l107 -62q-22 -32 -32.5 -64t-10.5 -53q0 -45 32.5 -72t78.5 -27t78.5 27t32.5 72v368q0 22 -15.5 36t-36.5 14t-36 -13.5t-15 -34.5v-148
h-120v145q0 26 -13 38.5t-29 12.5h-135v112h144q32 0 57 -8.5t42 -29.5q18 21 44.5 29.5t64.5 8.5q36 0 66.5 -13.5t53 -36.5t35 -54t12.5 -66v-351z" />
    <glyph glyph-name="uni10E4" unicode="&#x10e4;" horiz-adv-x="797" 
d="M633 296q0 54 -23.5 81t-55.5 27q-16 0 -31.5 -7t-27.5 -21t-19.5 -35t-7.5 -48v-41q0 -55 -11 -103t-37 -84t-68.5 -56.5t-104.5 -20.5q-66 0 -108 22.5t-67 59.5t-34.5 84.5t-9.5 97.5t9.5 97.5t34 84.5t67 59.5t108.5 22.5q61 0 99 -18.5t61 -53.5q27 39 67 55.5
t88 16.5q37 0 71 -14t60.5 -41.5t42.5 -69t16 -95.5q0 -55 -11.5 -94.5t-46.5 -64.5q23 -17 40.5 -41.5t17.5 -54.5v-74q0 -54 -21 -90.5t-56.5 -59t-80.5 -32.5t-93 -10q-63 0 -128.5 21.5t-117.5 60.5l68 90q15 -12 35 -23t43 -18.5t47 -12t45 -4.5q27 0 52 3t44.5 12
t31.5 24.5t12 41.5v56q0 21 -21.5 37t-49.5 16h-67v110h68q42 0 56 28.5t14 78.5zM347 252q0 28 -3 55.5t-13 49t-30 35t-53 13.5t-53 -13.5t-31 -35t-14.5 -49t-3.5 -55.5t3.5 -55t14.5 -48.5t31 -34.5t52 -13q33 0 52.5 13t30 34t14 48t3.5 56z" />
    <glyph glyph-name="uni10E5" unicode="&#x10e5;" horiz-adv-x="489" 
d="M323 704h120v-687q0 -76 -16 -123.5t-44 -73.5t-65.5 -35.5t-80.5 -9.5q-49 0 -88.5 17.5t-67 49t-42.5 75t-15 94.5q0 32 8.5 70.5t27.5 81.5l101 -58q-17 -53 -17 -94q0 -52 23 -87.5t74 -35.5q18 0 33 5.5t26 19.5t17 39.5t6 64.5v304q0 45 -23.5 64t-58.5 19
q-36 0 -77.5 -31t-88.5 -87v153q43 39 81 58t87 19q21 0 41.5 -5t38.5 -13v206z" />
    <glyph glyph-name="uni10E6" unicode="&#x10e6;" horiz-adv-x="831" 
d="M356 277q0 25 -3.5 48t-13.5 40.5t-28.5 28t-47.5 10.5q-31 0 -49.5 -11.5t-28 -30.5t-12.5 -43.5t-3 -51.5q0 -59 19 -98t49.5 -65.5t70 -44.5t80.5 -33.5t80.5 -33.5t70 -44t49.5 -64.5t19 -96.5h-121q0 35 -27.5 65t-66.5 52.5t-82.5 35.5t-76.5 13q-28 0 -61.5 -11.5
t-73.5 -36.5l-49 90q21 16 45 28.5t44 19.5q-18 17 -34 37.5t-28 46t-19 56.5t-7 69q0 50 8 97.5t31.5 84.5t64.5 59.5t107 22.5q58 0 94.5 -18.5t58.5 -49.5q23 32 58 50t97 18q66 0 107 -22.5t64.5 -59.5t31.5 -84.5t8 -97.5q0 -45 -9 -89t-31.5 -79.5t-60.5 -60.5
t-95 -33l-30 112q34 4 55 18.5t32.5 35t15.5 45.5t4 51q0 28 -2 55.5t-11.5 49t-28 34.5t-51.5 13q-29 0 -47.5 -10.5t-28.5 -28t-13.5 -40.5t-3.5 -48v-130h-120v130z" />
    <glyph glyph-name="uni10E7" unicode="&#x10e7;" horiz-adv-x="511" 
d="M464 -33q0 -48 -17.5 -84t-46 -60t-66 -36t-77.5 -12q-48 0 -97.5 18.5t-92.5 57.5v141q47 -55 98 -79.5t89 -24.5q37 0 64 20t27 65v39q-20 -11 -44 -18t-56 -7q-66 0 -109 22.5t-68 60t-34.5 85.5t-9.5 98q0 43 8.5 85.5t29.5 79t56.5 64t88.5 41.5l29 -110
q-29 -8 -47 -25t-28 -39t-13.5 -47t-3.5 -49q0 -29 3.5 -56t14 -48.5t30 -34.5t51.5 -13q33 0 53.5 13t31 34.5t14 48.5t3.5 56v251h119v-537z" />
    <glyph glyph-name="uni10E8" unicode="&#x10e8;" horiz-adv-x="534" 
d="M144 574q0 17 -7.5 21t-22.5 4h-109v113h110q33 0 55.5 -9t37.5 -30q23 24 52.5 31.5t59.5 7.5q31 0 61 -11t53 -31.5t37.5 -49.5t14.5 -66v-310q0 -65 -19.5 -113t-51 -79.5t-72 -47.5t-82.5 -16t-82.5 16t-72 47.5t-50.5 79.5t-19 112q0 60 18 105t48 75.5t69 45.5
t81 15q29 0 58 -7.5t55 -26.5v111q0 20 -16.5 29t-35.5 9t-34.5 -5.5t-15.5 -20.5v-57h-120v58zM366 243q0 35 -8 59.5t-22.5 40t-33.5 22.5t-40 7t-40.5 -7t-33.5 -22.5t-22.5 -40t-8.5 -59.5q0 -69 26.5 -105.5t78.5 -36.5q53 0 78.5 36.5t25.5 105.5z" />
    <glyph glyph-name="uni10E9" unicode="&#x10e9;" horiz-adv-x="519" 
d="M328 565q0 15 -20 24.5t-62 9.5q-36 0 -63 -18t-27 -61v-99q31 16 62 33t55.5 35t39.5 37t15 39zM36 521q0 48 17.5 84t47 59.5t67 35.5t77.5 12q49 0 87 -11t63.5 -30.5t38.5 -45.5t13 -56q0 -36 -19 -71t-73 -61q56 -25 92.5 -79.5t36.5 -135.5q0 -30 -9 -64.5
t-24.5 -68t-36 -65t-44.5 -56.5l-83 83q14 15 28 36.5t25 45t18 46.5t7 42q0 31 -9 54t-23 38t-33 22.5t-38 7.5t-38 -6t-34 -17.5t-24.5 -27.5t-9.5 -36v-256h-120v521z" />
    <glyph glyph-name="uni10EA" unicode="&#x10ea;" horiz-adv-x="679" 
d="M323 236h113q30 0 49 14.5t19 32.5q0 21 -13.5 32.5t-33.5 19.5t-44 15t-44 19.5t-33.5 33t-13.5 54.5v47h117v-37q0 -5 13.5 -10t34.5 -12.5t44.5 -19.5t44.5 -30t34.5 -43t13.5 -60q0 -32 -13 -64t-44 -55q35 -23 53 -57t18 -85q0 -60 -23 -106t-62 -77t-89.5 -47
t-104.5 -16q-65 0 -125.5 22.5t-106.5 69.5t-73.5 119t-27.5 172q0 82 35 175t96 181l109 -61q-27 -36 -49.5 -76t-38 -80.5t-24 -80.5t-8.5 -75q0 -66 17.5 -113.5t47 -79t68.5 -46.5t81 -15q31 0 60 8t50.5 24.5t34.5 40.5t13 56q0 40 -27 69.5t-85 29.5h-83v111z" />
    <glyph glyph-name="uni10EB" unicode="&#x10eb;" horiz-adv-x="512" 
d="M465 252q0 -50 -10 -97.5t-34.5 -84.5t-67 -59.5t-108.5 -22.5t-109 22.5t-67.5 59.5t-34.5 84.5t-10 97.5t9.5 97.5t34.5 84.5t68 59.5t109 22.5q30 0 55 -8.5t45 -22.5v48q0 27 -15 47.5t-38 34.5l29 108q31 -13 57.5 -31t45.5 -41.5t30 -52t11 -62.5v-284zM345 252
q0 28 -3.5 55.5t-14 49t-30 34.5t-52.5 13t-53 -13t-30.5 -34.5t-14 -49t-3.5 -55.5t3.5 -55t14.5 -48.5t30.5 -34.5t52.5 -13t52.5 13t30 34t14 48t3.5 56z" />
    <glyph glyph-name="uni10EC" unicode="&#x10ec;" horiz-adv-x="535" 
d="M379 516h-120v57q0 15 -15.5 20.5t-34.5 5.5t-35.5 -9t-16.5 -29v-111q26 19 55 26.5t58 7.5q42 0 81 -15t69 -45.5t48 -75.5t18 -105q0 -64 -19.5 -112t-51 -79.5t-71.5 -47.5t-82 -16t-82.5 16t-72 47.5t-51 79.5t-19.5 113v310q0 37 14.5 66t37.5 49.5t53 31.5t61 11
q30 0 59.5 -7.5t52.5 -31.5q15 21 37.5 30t55.5 9h110v-113h-109q-15 0 -22.5 -4t-7.5 -21v-58zM157 243q0 -69 25.5 -105.5t78.5 -36.5q52 0 78.5 36.5t26.5 105.5q0 35 -8.5 59.5t-22.5 40t-33.5 22.5t-40.5 7t-40 -7t-33.5 -22.5t-22.5 -40t-8 -59.5z" />
    <glyph glyph-name="uni10ED" unicode="&#x10ed;" horiz-adv-x="594" 
d="M246 98q-54 0 -94 16t-66.5 43.5t-39.5 64t-13 77.5q0 42 13.5 79t40 65.5t66.5 45t93 16.5h92v200h120v-200h97v-113h-97v-395q0 -48 -19.5 -89t-53.5 -70.5t-78.5 -46t-95.5 -16.5q-29 0 -53 4.5t-46.5 15t-45 27t-47.5 39.5l67 92q30 -27 60.5 -45.5t62.5 -18.5
q27 0 50.5 8.5t41 23.5t27.5 35.5t10 44.5v115q-22 -9 -49 -13.5t-43 -4.5zM152 298q0 -37 23.5 -62.5t70.5 -25.5q8 0 20 2t25 5.5t25.5 8t21.5 9.5v157h-75q-55 0 -83 -27t-28 -67z" />
    <glyph glyph-name="uni10EE" unicode="&#x10ee;" horiz-adv-x="512" 
d="M36 705h120v-214q19 11 43.5 18t56.5 7q67 0 109.5 -22.5t67.5 -60t34.5 -85t9.5 -97.5t-10 -97.5t-34.5 -84t-67.5 -59t-109 -22.5t-108.5 22.5t-67.5 59t-34.5 84t-9.5 97.5v454zM156 251q0 -29 3 -56t13.5 -48t30.5 -33.5t53 -12.5t52.5 13t30.5 34t14.5 48t3.5 55
t-3.5 55.5t-14 49t-30.5 35t-53 13.5t-53 -13.5t-30.5 -35t-13.5 -49t-3 -55.5z" />
    <glyph glyph-name="uni10EF" unicode="&#x10ef;" horiz-adv-x="502" 
d="M69 419h123v140h121v-140h123v-112h-123v-60q0 -22 19 -42t54 -49q44 -37 62.5 -79.5t18.5 -86.5q0 -41 -15.5 -80t-42.5 -69t-62.5 -48t-75.5 -18q-61 0 -107.5 17t-77.5 47.5t-46.5 73t-15.5 93.5q0 26 6.5 67t23.5 90l107 -62q-9 -31 -13 -55t-4 -40q0 -24 6 -45.5
t19 -37.5t33.5 -25.5t49.5 -9.5q24 0 42 8.5t29.5 22.5t17.5 31.5t6 36.5q0 28 -11.5 49t-28.5 37.5t-37.5 32.5t-37.5 34.5t-28.5 42.5t-11.5 58v66h-123v112z" />
    <glyph glyph-name="uni10F0" unicode="&#x10f0;" horiz-adv-x="499" 
d="M113 593l-27 112h204q30 0 56.5 -11t46 -30t31 -44t11.5 -52q0 -20 -9 -40.5t-24 -37.5q17 -16 25 -37t8 -41q0 -21 -7.5 -41t-24.5 -36q20 -18 34.5 -50t14.5 -83q0 -54 -10.5 -94.5t-35 -67t-64.5 -39.5t-98 -13q-107 0 -163.5 56t-56.5 168q0 24 5 52t14 61l116 -31
q-6 -26 -10.5 -48t-4.5 -34q0 -61 24.5 -86t84.5 -25q28 0 43.5 8.5t23.5 23.5t10 36t2 47q0 35 -13 49t-25 14h-107v111h107q8 0 14 6.5t6 15.5t-6 16t-14 7h-107v111h107q8 0 14 6.5t6 15.5t-6.5 17t-17.5 8h-177z" />
    <glyph glyph-name="uni10F1" unicode="&#x10f1;" horiz-adv-x="668" 
d="M73 424q3 41 12.5 91.5t29 94.5t52 74t82.5 30q48 0 82.5 -31.5t34.5 -93.5q0 -43 -15.5 -79t-41 -65t-58.5 -51.5t-68 -38.5q0 -46 9 -91.5t31 -81.5t59 -58.5t94 -22.5q63 0 101.5 18t38.5 54q0 19 -11 32.5t-31 23t-47 16t-59 11.5v115l70.5 -16.5t30.5 -5.5
q11 0 21.5 5t10.5 18q0 20 -36.5 34.5t-96.5 29.5v113q41 -14 67 -20t40 -6q15 0 15 15q0 11 -6 19t-22 17h1l-95 59v128l144 -90q42 -26 66.5 -61.5t24.5 -72.5q0 -24 -5.5 -42t-19.5 -34q20 -20 27.5 -44t7.5 -45t-9 -43.5t-23 -39.5q47 -47 47 -117q0 -42 -19 -76
t-53 -58t-80 -37t-100 -13q-83 0 -139 28.5t-91 74t-52 103t-21 116.5l-47 -19v113zM247 608q-18 0 -33.5 -36t-23.5 -93q31 23 47.5 52t16.5 61q0 16 -7 16z" />
    <glyph glyph-name="uni10F2" unicode="&#x10f2;" horiz-adv-x="417" 
d="M385 -19q-63 6 -104.5 15t-78.5 23q-37 -13 -80.5 -22.5t-97.5 -16.5v110q17 1 31 1.5t29 2.5q-25 23 -40 54t-15 79q0 38 12.5 70t35 55.5t55 36.5t72.5 13t72.5 -13t55 -36.5t34.5 -55.5t12 -70q0 -45 -15 -77t-40 -54q31 -7 62 -8v-107zM142 229q0 -30 14.5 -52
t47.5 -39q62 34 62 91q0 29 -15.5 48t-46.5 19t-46.5 -19t-15.5 -48zM192 97l10 9l1 -1l-2 -2h5l10 -6v22l-12 -13l-1 1l4 5q-2 0 -3 0.5t-2 0.5l-3 -1l-7 7v-22z" />
    <glyph glyph-name="uni10F3" unicode="&#x10f3;" horiz-adv-x="440" 
d="M288 178q39 -5 62.5 -24t36 -47.5t16.5 -63.5t4 -72q0 -51 -6 -96.5t-26 -79.5t-59.5 -53.5t-105.5 -19.5q-47 0 -82 13.5t-58 37.5t-34.5 57t-11.5 71q0 48 23 90t68 80l71 -66q-49 -52 -49 -100q0 -35 23 -55t55 -20q25 0 41 9.5t24.5 28t11.5 44.5t3 59q0 106 -52 106
q-8 0 -22 -8.5t-31 -28.5l-69 64l105 176h-165v107h351z" />
    <glyph glyph-name="uni10F4" unicode="&#x10f4;" horiz-adv-x="444" 
d="M128 147q32 0 59.5 6t48 17t32.5 26.5t12 34.5q0 20 -18 37t-38 31q-38 22 -70.5 47.5t-55.5 55.5t-36 63.5t-13 72.5q0 38 10 73t30 62t51 43.5t72 16.5q33 0 61.5 -10t49 -28t32 -43.5t11.5 -55.5q0 -38 -27.5 -78.5t-75.5 -66.5l-68 71q58 36 58 72q0 17 -12 24.5
t-27 7.5q-20 0 -36.5 -21t-16.5 -59q0 -26 7.5 -44.5t20.5 -33.5t31 -27.5t39 -25.5q31 -19 56 -37t42 -38.5t26.5 -45.5t9.5 -57t-13.5 -68t-49.5 -65q40 -26 60.5 -68.5t20.5 -98.5q0 -46 -14 -85t-40 -68t-63 -45.5t-83 -16.5q-45 0 -80 14t-59 38t-36 55.5t-12 65.5
q0 64 66 130l69 -53q-22 -43 -22 -72q0 -28 19 -49t53 -21q45 0 67 31.5t22 74.5t-28 73t-94 30q-1 0 -1.5 -0.5t-1.5 -0.5h-45v109z" />
    <glyph glyph-name="uni10F5" unicode="&#x10f5;" horiz-adv-x="523" 
d="M270 353h-53q-44 0 -79.5 13.5t-60.5 38t-38.5 58.5t-13.5 76q0 43 13.5 76t38.5 56t58.5 35t74.5 12q78 0 124 -46t46 -125v-86h107v-108h-107v-4h107v-107h-107v-88q0 -39 -12.5 -70.5t-35 -53.5t-54 -34t-68.5 -12q-41 0 -75 12t-58.5 35.5t-38 56.5t-13.5 75
q0 40 13.5 74.5t38 59t60 38.5t80.5 14h53v4zM230 242q-15 0 -31.5 -2.5t-30 -11t-22 -24.5t-8.5 -42q0 -33 19.5 -52t52.5 -19q19 0 31 6.5t18.5 16t8.5 21t2 22.5v85h-40zM270 545q0 10 -2 21.5t-8.5 21.5t-18.5 16.5t-31 6.5q-39 0 -55.5 -21.5t-16.5 -49.5
q0 -26 8.5 -41.5t22 -23.5t30 -11t31.5 -3h40v84z" />
    <glyph glyph-name="uni10F6" unicode="&#x10f6;" horiz-adv-x="660" 
d="M268 553q0 73 -37 73q-18 0 -29 -25.5t-11 -70.5h-105q0 50 12.5 88t33 63.5t47 38.5t55.5 13q26 0 52 -7.5t46.5 -27.5t33 -55t12.5 -90v-165q14 6 31 10t34 4q40 0 72.5 -17t56 -46t36 -67t12.5 -79q0 -47 -14.5 -85.5t-39.5 -66t-57 -42.5t-66 -15q-35 0 -65 15v-97
q0 -72 37 -72q17 0 28 25.5t11 70.5h107q0 -49 -12.5 -87t-33 -64t-47.5 -39.5t-57 -13.5q-27 0 -52.5 7.5t-45.5 27.5t-32.5 55t-12.5 90v97q-14 -7 -31.5 -11t-32.5 -4q-36 0 -68.5 15.5t-57 43t-38.5 66t-14 84.5q0 45 13.5 83t37.5 66t56.5 44t70.5 16q33 0 64 -13v164z
M204 91q23 0 43.5 26.5t20.5 75.5q0 46 -18.5 74.5t-45.5 28.5q-15 0 -27.5 -9t-20.5 -23.5t-12.5 -33t-4.5 -37.5q0 -20 4.5 -38.5t13 -32.5t20.5 -22.5t27 -8.5zM443 91q15 0 26.5 9t20 23.5t13 32.5t4.5 37t-4.5 38t-12.5 33t-20 23t-27 9q-29 0 -47 -29t-18 -74
q0 -48 21 -75t44 -27z" />
    <glyph glyph-name="uni10F7" unicode="&#x10f7;" horiz-adv-x="451" 
d="M167 133q18 12 35 23.5t29.5 25t20.5 29.5t8 37q0 7 -2 15t-6.5 15.5t-12.5 12.5t-20 5q-19 0 -28.5 -12.5t-9.5 -29.5q0 -14 8 -31t27 -40zM24 -83q0 42 11 73t28.5 55t39.5 42t45 34q-78 63 -78 139q0 31 12 57.5t32 45t46 29t55 10.5t57.5 -8t50.5 -26t35.5 -47
t13.5 -71q0 -43 -10.5 -73t-29.5 -53t-45 -41.5t-57 -37.5q-19 -12 -36 -24t-29.5 -27t-20 -33.5t-7.5 -43.5q0 -35 21 -61t68 -26q37 0 57.5 20t20.5 55q0 25 -11.5 49t-37.5 51l70 64q45 -34 68.5 -76.5t23.5 -81.5q0 -48 -15.5 -83.5t-42 -59t-61.5 -35t-74 -11.5
q-51 0 -88.5 15.5t-62.5 42.5t-37 62.5t-12 74.5z" />
    <glyph glyph-name="uni10F8" unicode="&#x10f8;" horiz-adv-x="444" 
d="M134 402v-76q0 -65 21 -89t49 -24q32 0 48 19.5t16 47.5q0 15 -8.5 38.5t-28.5 58.5l96 43q27 -47 40.5 -83t13.5 -67q0 -39 -14.5 -70t-39 -52t-56.5 -32t-66 -11q-40 0 -71 16v-197q0 -94 82 -94q40 0 61.5 22.5t21.5 53.5q0 23 -15 46.5t-45 49.5l67 72
q105 -68 105 -176q0 -42 -15.5 -75t-42.5 -55.5t-62.5 -34t-74.5 -11.5q-192 0 -192 203v477h110z" />
    <glyph glyph-name="uni10F9" unicode="&#x10f9;" 
 />
    <glyph glyph-name="uni10FA" unicode="&#x10fa;" 
 />
    <glyph glyph-name="uni10FB" unicode="&#x10fb;" horiz-adv-x="418" 
d="M211 234q0 32 22 53.5t54 21.5q31 0 53 -21.5t22 -53.5t-22 -54t-53 -22q-32 0 -54 22t-22 54zM41 63q0 32 21.5 54t53.5 22t53.5 -22t21.5 -54t-21.5 -53.5t-53.5 -21.5t-53.5 21.5t-21.5 53.5zM41 404q0 32 21.5 54t53.5 22t53.5 -22t21.5 -54q0 -31 -21.5 -53
t-53.5 -22t-53.5 22t-21.5 53z" />
    <glyph glyph-name="uni10FC" unicode="&#x10fc;" 
 />
    <glyph glyph-name="uni10FD" unicode="&#x10fd;" 
 />
    <glyph glyph-name="uni10FE" unicode="&#x10fe;" 
 />
    <glyph glyph-name="uni10FF" unicode="&#x10ff;" 
 />
    <glyph glyph-name="uni1C90" unicode="&#x1c90;" horiz-adv-x="495" 
d="M153 235q0 -64 23 -99t71 -35q24 0 41.5 11.5t29.5 31.5t18 47.5t6 59.5q0 44 -14.5 77.5t-36.5 61.5t-48 53.5t-48 53.5t-36.5 61.5t-14.5 77.5v68h117v-60q0 -28 14.5 -51t36.5 -47t48 -50.5t48 -61t36.5 -79t14.5 -104.5t-15 -109t-42.5 -83.5t-67 -53t-87.5 -18.5
q-101 0 -156 63.5t-55 184.5q0 35 9.5 70t23.5 70h134q-24 -43 -37 -79t-13 -61z" />
    <glyph glyph-name="uni1C91" unicode="&#x1c91;" horiz-adv-x="513" 
d="M477 242q0 -50 -10 -96t-34.5 -81.5t-67 -56.5t-108.5 -21t-109 21t-67.5 56.5t-34.5 81.5t-10 96q0 45 7.5 90.5t27.5 83.5t55 64.5t89 34.5v61h-3q-31 0 -55.5 2.5t-41 11.5t-25.5 26t-9 46v54h119v-28q0 -5 2.5 -8.5t7.5 -3.5h187l60 -100h-124v-70q40 -15 68 -43
t44.5 -63.5t24 -76t7.5 -81.5zM357 242q0 28 -3 57t-13.5 52.5t-30 38t-52.5 14.5t-53 -14.5t-31 -38t-14.5 -52.5t-3.5 -57t3.5 -53.5t14.5 -45t30.5 -31t52.5 -11.5t52.5 11.5t30 31t14 45t3.5 53.5z" />
    <glyph glyph-name="uni1C92" unicode="&#x1c92;" horiz-adv-x="557" 
d="M262 712q46 0 80.5 -14t57.5 -38t35 -56.5t12 -69.5q0 -40 -16 -84q49 -32 69.5 -87.5t20.5 -119.5q0 -50 -13.5 -96t-43 -81.5t-75.5 -57t-110 -21.5q-65 0 -111 21.5t-75.5 57t-43 81.5t-13.5 96q0 51 14.5 95.5t45.5 77.5t78 52.5t112 19.5h17t15 -1q9 28 9 49
q0 27 -15 45.5t-53 18.5t-85.5 -23t-94.5 -79v137q43 39 89 58t94 19zM402 243q0 21 -5 44.5t-18.5 43t-36 32.5t-56.5 13q-35 0 -59.5 -10.5t-40 -28.5t-23 -42t-7.5 -52t6.5 -54t21 -45.5t38 -31t57.5 -11.5t57.5 11.5t38 31t21 45.5t6.5 54z" />
    <glyph glyph-name="uni1C93" unicode="&#x1c93;" horiz-adv-x="804" 
d="M85 117l-49 90q21 16 46 28t48 17q-20 19 -36.5 39t-29.5 44.5t-20 55.5t-7 72q0 48 8.5 92.5t31.5 79.5t63.5 56t103.5 21q59 0 93 -13.5t54 -42.5q23 29 61 42.5t96 13.5q67 0 109.5 -19.5t67 -53t34 -78.5t9.5 -95t-9.5 -93t-34.5 -75t-67.5 -50.5t-108.5 -18.5
t-108.5 18t-67.5 50t-35 76t-10 95q0 27 -2 51t-10 42t-24.5 28.5t-45.5 10.5q-30 0 -48 -11.5t-27 -30t-11.5 -43.5t-2.5 -52q0 -59 19 -97t49.5 -63.5t70 -42t80.5 -30.5t80.5 -30t70 -41.5t49.5 -63t19 -95.5h-121q0 24 -14 46t-36.5 41t-51 34t-57.5 25
q-65 23 -118.5 14.5t-110.5 -43.5zM447 466q0 -28 3.5 -50.5t14.5 -39t30.5 -25.5t52.5 -9t52.5 9t30 25.5t14 39t3.5 50.5t-3.5 52.5t-14 42.5t-30.5 28.5t-53 10.5t-53 -10.5t-30.5 -28.5t-13.5 -42.5t-3 -52.5z" />
    <glyph glyph-name="uni1C94" unicode="&#x1c94;" horiz-adv-x="491" 
d="M237 -13q-49 0 -88.5 15.5t-67 44t-42.5 69.5t-15 92q0 32 9.5 81t28.5 98l102 -57q-10 -32 -15 -65.5t-5 -55.5q0 -51 22.5 -79.5t73.5 -28.5q18 0 33 5.5t26.5 20t17.5 39.5t6 63v288q0 45 -23.5 63.5t-58.5 18.5q-24 0 -50 -7.5t-50.5 -20.5t-45.5 -30.5t-34 -36.5
v131q84 77 182 77q41 0 77.5 -12t63.5 -36t43 -60t16 -84v-284q0 -74 -16 -122.5t-44 -76.5t-65.5 -39t-80.5 -11z" />
    <glyph glyph-name="uni1C95" unicode="&#x1c95;" horiz-adv-x="504" 
d="M201 475h62q13 0 25.5 2t22 8.5t15.5 17.5t6 29q0 41 -24.5 54.5t-60.5 13.5q-18 0 -40 -5t-46 -16t-48.5 -29t-47.5 -45v147q36 26 85 43t99 17q52 0 90 -15t63 -40t37.5 -57.5t12.5 -67.5q0 -29 -8 -57t-33 -51q29 -20 43 -51t14 -69v-89q0 -64 -18 -107.5t-48 -70.5
t-68.5 -38.5t-79.5 -11.5q-52 0 -94.5 16.5t-72.5 45.5t-46.5 69t-16.5 87q0 36 10.5 75t33.5 81l104 -59q-15 -24 -21.5 -47.5t-6.5 -44.5q0 -47 27.5 -78t73.5 -31q19 0 37.5 5t33 17.5t23 35t8.5 57.5v86q0 10 -4 20.5t-12.5 19.5t-21.5 14.5t-31 5.5h-77v113z" />
    <glyph glyph-name="uni1C96" unicode="&#x1c96;" horiz-adv-x="682" 
d="M26 490q0 57 17.5 99t46 69.5t64.5 40.5t73 13q34 0 66 -11t57 -32t40 -51.5t15 -69.5v-15t-1 -15q5 1 10 1h12q66 0 109 -23t67.5 -60.5t34 -85.5t9.5 -98t-9.5 -97.5t-34.5 -84.5t-67.5 -59.5t-108.5 -22.5t-108.5 22.5t-67.5 59.5t-34.5 84.5t-9.5 97.5v13t1 14
q-5 -1 -9 -1h-9q-33 0 -62.5 13.5t-52 40.5t-35.5 66.5t-13 91.5zM526 252q0 28 -3 55.5t-12.5 49.5t-28.5 36t-50 14q-29 0 -49.5 -13.5t-33 -35t-18.5 -49.5t-6 -57q0 -28 3.5 -55t14.5 -48.5t31 -34.5t52 -13q33 0 52.5 13t30 34t14 48t3.5 56zM282 515q0 28 -5.5 45
t-14.5 26t-20.5 11.5t-23.5 2.5q-13 0 -26 -5t-23 -17.5t-16.5 -33.5t-6.5 -54q0 -20 2 -38t8.5 -32t18.5 -22t33 -8q22 0 36.5 11.5t23 29.5t11.5 40.5t3 43.5z" />
    <glyph glyph-name="uni1C97" unicode="&#x1c97;" horiz-adv-x="799" 
d="M646 470q0 24 -2.5 47.5t-12 41.5t-27.5 29t-48 11t-48 -12.5t-27.5 -33t-12.5 -46t-3 -51.5v-219q0 -48 -11 -92.5t-36 -79.5t-66.5 -56t-101.5 -21q-65 0 -106.5 22.5t-65.5 60t-33 85.5t-9 99v197q0 49 9.5 96t33.5 84t65.5 59t105.5 22q57 0 93.5 -20t59.5 -53
q21 35 57 54t97 19q63 0 103 -21t63 -57t31.5 -83t8.5 -98v-199q0 -49 -10 -96t-35 -84t-67.5 -61t-106.5 -27l-33 114q44 0 70.5 12t41 31.5t19 44t4.5 50.5v231zM348 466q0 24 -3.5 48t-14 43t-30 30.5t-50.5 11.5t-50.5 -11t-30 -30t-14 -43t-3.5 -49v-227
q0 -26 3.5 -50.5t14 -44t29.5 -31.5t51 -12t51 12t29.5 31.5t14 44t3.5 50.5v227z" />
    <glyph glyph-name="uni1C98" unicode="&#x1c98;" horiz-adv-x="515" 
d="M364 461q0 25 -4.5 50t-16.5 44.5t-32.5 31.5t-52.5 12t-52 -12t-32 -31t-16.5 -44t-4.5 -50v-236q0 -38 17.5 -72t59.5 -63l-63 -107q-35 20 -59.5 48t-40.5 61t-23.5 69t-7.5 73v214q0 50 11 97.5t37 84.5t68.5 59.5t105.5 22.5t105.5 -22.5t68 -60t36.5 -85.5t11 -98
v-212q0 -37 -7.5 -73.5t-23 -69.5t-40.5 -61t-61 -47l-58 109q41 28 58 61.5t17 71.5v235z" />
    <glyph glyph-name="uni1C99" unicode="&#x1c99;" horiz-adv-x="511" 
d="M200 458h70q13 0 25.5 2.5t22 9t15.5 18t6 29.5q0 44 -28 65.5t-65 21.5h-30v112q47 0 91 -12t77.5 -36t54 -61t20.5 -87q0 -42 -13.5 -69.5t-35.5 -44.5q65 -38 65 -117v-74q0 -64 -19 -107.5t-50.5 -70.5t-71.5 -38.5t-81 -11.5q-49 0 -91 12t-72.5 37.5t-48 66
t-17.5 96.5q0 62 35 138l106 -55q-12 -26 -17 -45t-5 -38q0 -29 9 -48t23.5 -30t33.5 -15.5t39 -4.5q19 0 38 5.5t34 19t24.5 35.5t9.5 55v73q0 20 -16.5 38t-52.5 18h-85v113z" />
    <glyph glyph-name="uni1C9A" unicode="&#x1c9a;" horiz-adv-x="524" 
d="M168 268q0 -33 13 -63t34.5 -53t51 -37t62.5 -14h115v-101h-114q-59 0 -110 21.5t-89.5 59t-60.5 88t-22 109.5v214q0 45 17 85t47 70t70 47.5t86 17.5q45 0 85 -17.5t70 -47.5t47.5 -70t17.5 -85v-231h-120v238q0 21 -8 39t-21.5 31.5t-31.5 21.5t-38 8q-21 0 -39 -8
t-32 -21.5t-22 -31.5t-8 -39v-231z" />
    <glyph glyph-name="uni1C9B" unicode="&#x1c9b;" horiz-adv-x="525" 
d="M477 252q0 -50 -10 -97.5t-34.5 -85t-67 -60t-108.5 -22.5t-109 22.5t-67.5 60t-34.5 85t-10 97.5t9.5 97.5t34 84.5t67 59.5t108.5 22.5q34 0 58.5 -6.5t43.5 -17.5v26q0 44 -26.5 62.5t-61.5 18.5q-20 0 -45 -4.5t-50.5 -15t-50 -29t-44.5 -46.5v134q42 37 92 55.5
t98 18.5q40 0 77.5 -12t66.5 -36t46.5 -60t17.5 -84v-268zM357 252q0 28 -3.5 55.5t-14 49t-30 34.5t-52.5 13t-53 -13t-30.5 -34.5t-14 -49t-3.5 -55.5t3.5 -55t14.5 -48.5t30.5 -34.5t52.5 -13t52.5 13t30 34t14 48t3.5 56z" />
    <glyph glyph-name="uni1C9C" unicode="&#x1c9c;" horiz-adv-x="524" 
d="M48 520q0 48 17.5 82.5t46.5 57t66.5 33.5t77.5 11h191v-105h-188q-37 0 -64 -23t-27 -68v-17q20 12 44.5 18.5t58.5 6.5q66 0 108.5 -23t67 -60.5t33.5 -85.5t9 -98t-10 -97t-34.5 -84t-67.5 -59t-109 -22t-108.5 22.5t-67.5 60t-34.5 85t-9.5 97.5v268zM168 249
q0 -29 3 -55.5t13.5 -47t30.5 -33t53 -12.5t52.5 12.5t30.5 33.5t14.5 47.5t3.5 54.5t-3.5 56t-14 50t-30.5 35.5t-53 13.5t-53 -13.5t-30.5 -35.5t-13.5 -50t-3 -56z" />
    <glyph glyph-name="uni1C9D" unicode="&#x1c9d;" horiz-adv-x="755" 
d="M319 470q0 24 -2.5 47t-11 41.5t-25 29.5t-44.5 11q-30 0 -47 -11.5t-25.5 -30t-10 -43t-1.5 -49.5v-210q0 -26 5 -53t19.5 -49.5t41 -37t70.5 -14.5l-33 -114q-65 3 -107 27t-67 61t-35 84t-10 96v199q0 50 7.5 96.5t29 82.5t60.5 58t102 22q54 0 88 -20t54 -49
q20 31 53.5 50t90.5 19q63 0 102 -22.5t60.5 -59t28.5 -83.5t7 -96v-197q0 -49 -10 -96t-34.5 -84t-67 -61t-107.5 -27l-32 114q44 0 70.5 14.5t41 37t19 49.5t4.5 53v211q0 25 -1.5 49t-10 42.5t-25 30t-46.5 11.5q-28 0 -44 -11t-24.5 -29.5t-10.5 -41.5t-2 -47v-206h-120
v206z" />
    <glyph glyph-name="uni1C9E" unicode="&#x1c9e;" horiz-adv-x="515" 
d="M205 431h85q23 0 35.5 13.5t12.5 43.5q0 23 -16 34.5t-39.5 18t-51.5 12.5t-51.5 18t-39.5 34.5t-16 61.5v37h117v-17q0 -13 16 -20t40.5 -14t53 -17t53 -27.5t40.5 -46t16 -73.5q0 -38 -9.5 -65.5t-25.5 -44.5q27 -19 41 -48t14 -63v-48q0 -73 -19 -118.5t-50 -71
t-71.5 -34.5t-83.5 -9q-55 0 -96 19t-68.5 50.5t-41.5 72t-14 83.5q0 31 6.5 60.5t18.5 61.5l105 -60q-5 -17 -7.5 -32.5t-2.5 -29.5q0 -52 24.5 -81.5t84.5 -29.5q29 0 47.5 8.5t29 24.5t14.5 38t4 48v48q0 10 -4.5 21t-15 20t-26.5 14.5t-39 5.5h-70v102z" />
    <glyph glyph-name="uni1C9F" unicode="&#x1c9f;" horiz-adv-x="639" 
d="M144 465q0 -49 23 -74t54 -25q42 0 61.5 26.5t19.5 68.5t-31 102l-59 -11v117l238 43h143v-490q0 -56 -17.5 -100t-48 -74t-72 -45.5t-89.5 -15.5q-52 0 -107 17.5t-121 55.5l56 106q56 -35 93 -50t72 -15q49 0 81.5 27t32.5 86v388q-22 -5 -38.5 -8.5t-40.5 -8.5
q27 -72 27 -133q0 -48 -15 -85t-41.5 -62t-63.5 -38t-81 -13q-38 0 -73 13.5t-62 40.5t-43 67t-16 93q0 35 17 81l113 -31q-12 -33 -12 -53z" />
    <glyph glyph-name="uni1CA0" unicode="&#x1ca0;" horiz-adv-x="802" 
d="M341 277q0 26 -2.5 49t-11.5 40.5t-26 27.5t-45 10q-33 0 -53 -15.5t-30.5 -39.5t-14 -54t-3.5 -59q0 -17 5 -40t19.5 -44t41 -36t70.5 -15l-28 -114q-67 3 -111 28t-69.5 64t-36 87.5t-10.5 99.5v38q0 98 19 166t50.5 112.5t74 69t89 36t95 14t92.5 2.5h82v-105h-90
q-41 0 -81 -5t-75.5 -16.5t-64.5 -30.5t-47 -47q34 16 75 16q58 0 92 -19t54 -49q23 32 57.5 50t96.5 18q66 0 107 -20t64.5 -54.5t31.5 -79.5t8 -96q0 -48 -10.5 -96.5t-36 -88t-69.5 -65.5t-111 -29l-27 114q43 0 70 15t41 39t19 53t5 58q0 28 -2 53t-11.5 44t-28 30
t-51.5 11q-29 0 -47.5 -10t-28.5 -27.5t-13.5 -40.5t-3.5 -49v-115h-120v115z" />
    <glyph glyph-name="uni1CA1" unicode="&#x1ca1;" horiz-adv-x="524" 
d="M276 -13q-51 0 -93 16.5t-72 47.5t-46.5 76.5t-16.5 102.5v474h121v-474q0 -33 9 -57.5t24 -40.5t34 -23.5t38 -7.5q25 0 43 10t29 26.5t16.5 39t5.5 48.5t-7.5 56.5t-21 62t-32 63t-40.5 59.5l107 63q25 -38 46 -77.5t36 -78.5t23.5 -75t8.5 -66q0 -64 -18 -110t-48 -76
t-68 -44.5t-78 -14.5z" />
    <glyph glyph-name="uni1CA2" unicode="&#x1ca2;" horiz-adv-x="731" 
d="M398 353v-173h-117v354q0 42 14 75.5t38.5 56t57 34.5t68.5 12q37 0 70 -12t57.5 -34.5t38.5 -56t14 -75.5q0 -30 -19.5 -60.5t-48.5 -47.5q39 -17 63 -39.5t37.5 -47t18.5 -50t5 -48.5q0 -54 -21.5 -100.5t-61.5 -80.5t-97 -53.5t-128 -19.5q-90 0 -156 29t-109.5 78
t-64.5 113.5t-21 135.5q0 79 23.5 165t68.5 170l112 -59q-18 -30 -34 -65.5t-28 -73.5t-19 -77.5t-7 -76.5q0 -46 12 -87t39 -71.5t71 -48.5t109 -18q39 0 74.5 11.5t62.5 31t43 46.5t16 58q0 18 -8.5 37t-25.5 34t-41.5 24.5t-56.5 9.5h-49zM398 481h53q14 0 27.5 3t24 10
t17 18.5t6.5 28.5q0 27 -19.5 42.5t-47.5 15.5q-26 0 -43.5 -16.5t-17.5 -42.5v-59z" />
    <glyph glyph-name="uni1CA3" unicode="&#x1ca3;" horiz-adv-x="575" 
d="M527 207q0 -49 -18 -89.5t-49 -69.5t-73 -45t-90 -16t-90 16t-73.5 45t-49.5 69.5t-18 89.5q0 19 4.5 41t12.5 45t18 44.5t21 39.5l107 -62q-22 -32 -33 -63t-11 -52q0 -23 9 -41t24 -31t35.5 -20t43.5 -7q46 0 78.5 26t32.5 71v351q0 22 -15.5 36t-36.5 14t-36 -13.5
t-15 -34.5v-131h-120v129q0 26 -13 38t-29 12h-119v105h141q32 0 51.5 -20t28.5 -53q6 19 19 34t30 25.5t36.5 16t38.5 5.5q36 0 65 -13.5t49.5 -36.5t32 -54t11.5 -66v-335z" />
    <glyph glyph-name="uni1CA4" unicode="&#x1ca4;" horiz-adv-x="804" 
d="M637 508q0 27 -6.5 44.5t-17.5 28t-25 14.5t-30 4t-31.5 -4.5t-27.5 -15t-19.5 -29t-7.5 -45.5v-41q0 -55 -11 -103t-37 -84t-68.5 -56.5t-104.5 -20.5q-66 0 -108 22.5t-67 59.5t-34.5 84.5t-9.5 97.5t9.5 95t34 79t67 54t108.5 20q61 0 99 -19t61 -54q27 39 67 56
t88 17q37 0 71 -11.5t60.5 -36t42.5 -63.5t16 -93q0 -55 -11.5 -94.5t-46.5 -64.5q23 -17 40.5 -41.5t17.5 -54.5v-74q0 -54 -21 -90.5t-56.5 -59t-80.5 -32.5t-93 -10q-63 0 -128.5 21.5t-117.5 60.5l68 90q15 -12 35 -23t43 -18.5t47 -12t45 -4.5q27 0 52 3t44.5 12
t31.5 24.5t12 41.5v56q0 21 -21.5 37t-49.5 16h-51v110h52q42 0 56 28.5t14 78.5zM351 463q0 28 -3 53t-13 43.5t-30 29t-53 10.5t-53 -10.5t-31 -29t-14.5 -43.5t-3.5 -53t3.5 -55t14.5 -48t31 -34t52 -13q33 0 52.5 12.5t30 33.5t14 48t3.5 56z" />
    <glyph glyph-name="uni1CA5" unicode="&#x1ca5;" horiz-adv-x="491" 
d="M243 -13q-97 0 -152 60.5t-55 165.5q0 25 5.5 60.5t16.5 73.5l109 -52q-6 -23 -11 -46t-5 -45q0 -18 4.5 -36.5t15.5 -33.5t29.5 -24t46.5 -9q35 0 57.5 31t22.5 102v205q0 19 -10.5 32.5t-27 22.5t-37 13.5t-41.5 4.5q-49 0 -80.5 -22.5t-59.5 -60.5v117q30 38 69 58
t83 20q51 0 104 -29v109h116v-470q0 -78 -15.5 -126t-42.5 -75t-63.5 -36.5t-78.5 -9.5z" />
    <glyph glyph-name="uni1CA6" unicode="&#x1ca6;" horiz-adv-x="803" 
d="M342 473q0 25 -3.5 47.5t-13.5 40t-28.5 28t-47.5 10.5q-31 0 -49.5 -9t-28 -24.5t-12.5 -37.5t-3 -49q0 -59 19 -98t49.5 -65.5t70 -44.5t80.5 -33.5t80.5 -33.5t70 -44t49.5 -64.5t19 -96.5h-121q0 35 -27.5 65t-66.5 52.5t-82.5 35.5t-76.5 13q-28 0 -61.5 -11.5
t-73.5 -36.5l-49 90q21 16 45 28.5t44 19.5q-18 17 -34 37.5t-28 46t-19 56.5t-7 69q0 50 8 95t31.5 79t64.5 54t107 20q58 0 94.5 -18.5t58.5 -49.5q23 32 58 50t97 18q66 0 107 -20t64.5 -54t31.5 -79t8 -95q0 -45 -9 -89t-31.5 -79.5t-60.5 -60.5t-95 -33l-30 112
q34 4 55 18.5t32.5 35t15.5 45.5t4 51q0 28 -2 52.5t-11.5 43t-28 29t-51.5 10.5q-29 0 -47.5 -10.5t-28.5 -28t-13.5 -40t-3.5 -47.5v-82h-120v82z" />
    <glyph glyph-name="uni1CA7" unicode="&#x1ca7;" horiz-adv-x="512" 
d="M464 179q0 -48 -17.5 -84t-46 -60t-66 -36t-77.5 -12q-48 0 -97.5 18.5t-92.5 57.5v141q47 -55 98 -79.5t89 -24.5q37 0 64 20t27 65v87q-20 -19 -44 -30t-56 -11q-66 0 -109 19t-68 52t-34.5 77.5t-9.5 94.5q0 43 8.5 81.5t29.5 70t56.5 55t88.5 37.5l29 -110
q-29 -8 -47 -21t-28 -30t-13.5 -38t-3.5 -45q0 -29 3.5 -52.5t14 -40.5t30 -26.5t51.5 -9.5q33 0 53.5 8t31 23.5t14 37.5t3.5 51v239h119v-525z" />
    <glyph glyph-name="uni1CA8" unicode="&#x1ca8;" horiz-adv-x="545" 
d="M155 574q0 17 -7.5 21t-22.5 4h-109v105h110q33 0 55.5 -12.5t37.5 -33.5q23 24 52.5 39t59.5 15q31 0 61 -11t53 -31.5t37.5 -49.5t14.5 -66v-310q0 -65 -19.5 -113t-51 -80t-72 -48t-82.5 -16t-82.5 16t-72 48t-50.5 80t-19 112q0 60 18 105t48 75.5t69 45.5t81 15
q29 0 58 -7.5t55 -26.5v111q0 20 -16.5 29t-35.5 9t-34.5 -5.5t-15.5 -20.5v-57h-120v58zM377 243q0 35 -8 59.5t-22.5 40t-33.5 22.5t-40 7t-40.5 -7t-33.5 -22.5t-22.5 -40t-8.5 -59.5q0 -69 26.5 -105.5t78.5 -36.5q53 0 78.5 36.5t25.5 105.5z" />
    <glyph glyph-name="uni1CA9" unicode="&#x1ca9;" horiz-adv-x="532" 
d="M340 565q0 15 -20 24.5t-62 9.5q-36 0 -63 -18t-27 -61v-99q92 29 132 65t40 79zM48 521q0 48 17.5 84t47 59.5t67 35.5t77.5 12q49 0 87 -11t63.5 -30.5t38.5 -45.5t13 -56q0 -36 -19 -71t-73 -61q56 -25 92.5 -79.5t36.5 -135.5q0 -30 -9 -63t-25 -65.5t-38 -62.5
t-47 -55l-84 79q18 15 33 35.5t26.5 43.5t18 45.5t6.5 41.5q0 31 -9 54t-23 38t-33 22.5t-38 7.5t-38 -6t-34 -17.5t-24.5 -27.5t-9.5 -36v-256h-120v521z" />
    <glyph glyph-name="uni1CAA" unicode="&#x1caa;" horiz-adv-x="684" 
d="M342 448h104q30 0 49 14.5t19 32.5q0 21 -13.5 32.5t-33.5 19.5t-44 15t-44 19.5t-33.5 32.5t-13.5 55v35h117v-25q0 -5 13.5 -10t34.5 -12.5t44.5 -19.5t44.5 -30t34.5 -43t13.5 -60q0 -32 -16 -65.5t-51 -53.5q42 -18 61.5 -54.5t19.5 -87.5q0 -60 -23 -107.5
t-62 -80.5t-89.5 -50.5t-104.5 -17.5q-65 0 -125.5 24t-106.5 72.5t-73.5 122.5t-27.5 174q0 79 32.5 168.5t89.5 174.5l107 -62q-25 -35 -45 -73.5t-34.5 -77t-22 -76.5t-7.5 -71q0 -66 17.5 -115t47.5 -81.5t69 -49t81 -16.5q31 0 59.5 9.5t50.5 27t34.5 43t12.5 57.5
q0 40 -27 69.5t-85 29.5h-74v111z" />
    <glyph glyph-name="uni1CAB" unicode="&#x1cab;" horiz-adv-x="525" 
d="M477 252q0 -50 -10 -97.5t-34.5 -85t-67 -60t-108.5 -22.5t-109 22.5t-67.5 60t-34.5 85t-10 97.5t9.5 97.5t34.5 84.5t68 59.5t109 22.5q30 0 55 -8.5t45 -22.5v48q0 27 -15 47.5t-38 34.5l29 108q31 -13 57.5 -31t45.5 -41.5t30 -52t11 -62.5v-284zM357 252
q0 28 -3.5 55.5t-14 49t-30 34.5t-52.5 13t-53 -13t-30.5 -34.5t-14 -49t-3.5 -55.5t3.5 -55t14.5 -48.5t30.5 -34.5t52.5 -13t52.5 13t30 34t14 48t3.5 56z" />
    <glyph glyph-name="uni1CAC" unicode="&#x1cac;" horiz-adv-x="545" 
d="M390 516h-120v51q0 15 -15.5 23.5t-34.5 8.5t-35.5 -9t-16.5 -29v-111q26 19 55 26.5t58 7.5q42 0 81 -15t69 -45.5t48 -75.5t18 -105q0 -64 -19.5 -112t-51 -80t-71.5 -48t-82 -16t-82.5 16t-72 48t-51 80t-19.5 113v310q0 37 14.5 66t37.5 49.5t53 31.5t61 11
q30 0 61 -12t51 -41q13 26 36.5 35.5t56.5 9.5h110v-105h-109q-30 0 -30 -31v-52zM168 243q0 -69 25.5 -105.5t78.5 -36.5q52 0 78.5 36.5t26.5 105.5q0 35 -8.5 59.5t-22.5 40t-33.5 22.5t-40.5 7t-40 -7t-33.5 -22.5t-22.5 -40t-8 -59.5z" />
    <glyph glyph-name="uni1CAD" unicode="&#x1cad;" horiz-adv-x="572" 
d="M247 216q-105 0 -154.5 51.5t-49.5 136.5q0 42 13 77.5t39 62t64.5 41t90.5 14.5h76v107h117v-107h94v-114h-94v-272q0 -53 -20 -95t-53 -71t-74.5 -44.5t-83.5 -15.5q-49 0 -97.5 21.5t-90.5 66.5l71 80q28 -26 57.5 -40t61.5 -14q51 0 81.5 28t30.5 70v34
q-14 -8 -37.5 -12.5t-41.5 -4.5zM158 403q0 -32 23.5 -54.5t68.5 -22.5q17 0 40 6t36 16v137h-59q-54 0 -81.5 -23.5t-27.5 -58.5z" />
    <glyph glyph-name="uni1CAE" unicode="&#x1cae;" horiz-adv-x="525" 
d="M48 704h120v-232q19 19 45.5 31.5t58.5 12.5q67 0 109 -22.5t66 -60t33 -85t9 -97.5t-10 -97.5t-34.5 -84.5t-67.5 -59.5t-109 -22.5t-108.5 22.5t-67.5 59.5t-34.5 84.5t-9.5 97.5v453zM168 251q0 -29 3 -56t13.5 -48t30.5 -33.5t53 -12.5t52.5 13t30.5 34t14.5 48
t3.5 55t-3.5 55.5t-14 49t-30.5 35t-53 13.5t-53 -13.5t-30.5 -35t-13.5 -49t-3 -55.5z" />
    <glyph glyph-name="uni1CAF" unicode="&#x1caf;" horiz-adv-x="515" 
d="M81 615h123v97h121v-97h123v-112h-123v-60q0 -11 5 -18.5t14.5 -15.5t23 -17.5t30.5 -23.5q44 -37 62.5 -79.5t18.5 -86.5q0 -47 -15.5 -86t-42.5 -68t-62.5 -45t-75.5 -16q-61 0 -107.5 17t-77.5 47.5t-46.5 73t-15.5 93.5q0 20 5 50t17 67l111 -52q-8 -18 -10.5 -34
t-2.5 -31q0 -24 6 -45.5t19 -37t33.5 -25t49.5 -9.5q24 0 42 8.5t29.5 22t17.5 31t6 36.5q0 28 -11.5 47.5t-28.5 35t-37.5 29t-37.5 30.5t-28.5 39.5t-11.5 56.5v66h-123v112z" />
    <glyph glyph-name="uni1CB0" unicode="&#x1cb0;" horiz-adv-x="500" 
d="M113 593l-27 111h204q30 0 56.5 -11t46 -29.5t31 -43.5t11.5 -52q0 -20 -9 -40.5t-24 -37.5q17 -16 25 -37t8 -41q0 -21 -7.5 -41t-24.5 -36q20 -18 34.5 -50t14.5 -83q0 -54 -10.5 -94.5t-35 -67.5t-64.5 -40t-98 -13q-107 0 -163.5 56.5t-56.5 168.5q0 24 5 52t14 61
l116 -31q-11 -38 -15 -73t5 -61.5t34 -42.5t70 -16q28 0 43.5 8.5t23.5 23.5t10 36t2 47q0 35 -13 49t-25 14h-75v111h75q8 0 14 6.5t6 15.5t-6 16t-14 7h-75v111h75q8 0 14 6.5t6 15.5t-6.5 17t-17.5 8h-177z" />
    <glyph glyph-name="uni1CB1" unicode="&#x1cb1;" horiz-adv-x="668" 
d="M73 424q3 41 12.5 91.5t29 94.5t52 74t82.5 30q23 0 44.5 -7.5t37.5 -23.5t25.5 -39.5t9.5 -54.5q0 -43 -15.5 -79t-41 -65t-58.5 -51.5t-68 -38.5q0 -46 9 -91.5t31 -81.5t59 -58.5t94 -22.5q63 0 101.5 18t38.5 54q0 35 -35 52t-90 27v113q67 -16 78 -16t21.5 5
t10.5 18q0 18 -29.5 31t-80.5 27v111q31 -10 51.5 -14t32.5 -4q15 0 15 15q0 11 -6 19t-21 17l-72 44v128l121 -75q42 -26 66.5 -61.5t24.5 -72.5q0 -24 -5.5 -42t-19.5 -34q20 -20 27.5 -44t7.5 -45t-9 -43.5t-23 -39.5q47 -47 47 -117q0 -42 -19 -76t-53 -58t-80 -37
t-100 -13q-83 0 -139 28.5t-91 74t-52 103t-21 116.5l-47 -19v113zM247 608q-18 0 -33.5 -36t-23.5 -93q31 23 47.5 52t16.5 61q0 16 -7 16z" />
    <glyph glyph-name="uni1CB2" unicode="&#x1cb2;" horiz-adv-x="450" 
d="M364 -16q-32 0 -76 12.5t-88 38.5q-32 -16 -74.5 -31.5t-90.5 -26.5v129q21 1 39.5 2t33.5 4q-27 35 -47 81t-20 95v239q0 37 12.5 70.5t35 59t54 40.5t68.5 15t67.5 -15t52.5 -40.5t34.5 -58.5t14.5 -70v-220q0 -60 -19.5 -109t-54.5 -86q17 -4 30.5 -5t22.5 -2h28v-100
zM151 290q0 -47 16 -79.5t39 -53.5q31 25 48 57.5t17 75.5v237q0 23 -16 42.5t-44 19.5q-29 0 -44.5 -19.5t-15.5 -42.5v-237z" />
    <glyph glyph-name="uni1CB3" unicode="&#x1cb3;" horiz-adv-x="474" 
d="M302 479q31 -9 51.5 -34t33 -58.5t17.5 -71.5t5 -73q0 -51 -6 -97.5t-25.5 -81.5t-58 -55.5t-102.5 -20.5q-46 0 -80 14.5t-56.5 40t-33.5 60t-11 73.5q0 76 50 135l78 -79q-18 -29 -18 -53q0 -15 6 -28.5t16.5 -24.5t24.5 -17.5t30 -6.5q25 0 40 11t23 30t11 44.5
t3 55.5q0 24 -3.5 46t-9.5 39t-15.5 27.5t-21.5 10.5q-20 0 -49 -29l-70 70l105 193h-164v105h352z" />
    <glyph glyph-name="uni1CB4" unicode="&#x1cb4;" horiz-adv-x="478" 
d="M169 575q0 -14 17 -27t42 -26.5t54.5 -28t54.5 -31.5t42 -37t17 -45q0 -13 -4.5 -27t-12.5 -26t-20.5 -21t-28.5 -12q35 -17 59 -51.5t24 -72.5q0 -85 -51.5 -134t-143.5 -49q-44 0 -78 13.5t-57 36t-35 51.5t-12 61q0 46 35 90l96 -55q-11 -12 -15.5 -22t-4.5 -15
q0 -14 19 -30t51 -16q45 0 65.5 20.5t20.5 47.5q0 44 -24.5 59t-71.5 15h-25v119h29q33 0 54 2t21 10q0 9 -16.5 16t-41.5 15t-54 19.5t-54 30t-41.5 46t-16.5 67.5q0 37 13.5 64.5t35.5 45.5t50.5 26.5t58.5 8.5q32 0 59 -11t47 -29t31.5 -41t11.5 -46t-10.5 -46.5
t-33.5 -43.5l-94 50q15 6 22.5 12t10.5 12t2.5 10t-0.5 6q0 4 -12.5 12t-34.5 8q-18 0 -34 -9.5t-16 -21.5z" />
    <glyph glyph-name="uni1CB5" unicode="&#x1cb5;" horiz-adv-x="534" 
d="M38 172q0 30 13.5 57.5t36 48.5t51 34t58.5 13h80v51h-78q-31 0 -60 12.5t-51.5 33.5t-36 48.5t-13.5 58.5q0 44 13.5 78t37.5 57.5t57.5 36t72.5 12.5q37 0 67.5 -12.5t52.5 -35.5t33.5 -55.5t11.5 -72.5v-70h105v-91h-105v-51h105v-89h-105v-73q0 -41 -12 -73.5
t-34 -55t-52.5 -35t-66.5 -12.5q-40 0 -73 12.5t-57 36.5t-37.5 58.5t-13.5 77.5zM238 236q-15 0 -30.5 -2t-29 -9t-22 -19.5t-8.5 -34.5q0 -29 19.5 -49.5t51.5 -20.5q18 0 29.5 7t18 17t8.5 21t2 20v70h-39zM277 534q0 9 -2 20.5t-8.5 21t-18 16.5t-29.5 7
q-19 0 -32.5 -6.5t-22 -16.5t-12.5 -22t-4 -24q0 -21 8.5 -33.5t22 -19t29 -8.5t30.5 -2h39v67z" />
    <glyph glyph-name="uni1CB6" unicode="&#x1cb6;" horiz-adv-x="671" 
d="M282 545q0 25 -9 35t-27 10h-107v114h110q25 0 50.5 -2t45 -16t32 -45t12.5 -89v-32q14 11 30.5 18t32.5 7q39 0 72.5 -13.5t58 -38t38.5 -59.5t14 -78q0 -49 -13.5 -85.5t-36.5 -61t-53 -37t-64 -12.5q-20 0 -42 7t-37 30v-49q0 -28 9 -37.5t27 -9.5h82v-101h-86
q-26 0 -51 3t-44.5 18.5t-31.5 47.5t-12 89v42q-10 -14 -34 -27t-44 -13q-36 0 -66.5 12.5t-53 37.5t-35.5 61.5t-13 84.5q0 49 13 85t36 59t54.5 34t69.5 11q17 0 38 -8.5t35 -19.5v28zM452 274q29 0 46 25t17 57t-17 53.5t-46 21.5q-27 0 -45 -18.5t-18 -56.5
q0 -41 20 -61.5t43 -20.5zM220 274q23 0 42.5 20.5t19.5 61.5q0 38 -18 56.5t-44 18.5q-30 0 -47 -21.5t-17 -53.5q0 -34 17.5 -58t46.5 -24z" />
    <glyph glyph-name="uni1CB7" unicode="&#x1cb7;" horiz-adv-x="479" 
d="M160 420q-79 58 -79 146q0 32 11.5 59t31 46.5t45 30.5t53.5 11t55.5 -8t49.5 -27t35 -49t13 -74q0 -45 -10.5 -77t-28 -56.5t-40 -43t-45.5 -35.5h1q-20 -15 -39 -30.5t-34 -33.5t-24 -40.5t-9 -51.5q0 -30 20 -52.5t67 -22.5q35 0 55.5 17t20.5 47q0 20 -13 44t-43 54
l77 69q43 -33 66 -76.5t23 -85.5q0 -49 -15 -85.5t-41 -60.5t-60 -35.5t-72 -11.5q-50 0 -86.5 16t-60.5 43.5t-36 63.5t-12 76q0 56 17 96.5t42.5 71t55.5 53.5t55.5 44.5t42.5 44t17 52.5q0 6 -2 13t-6.5 13t-12 10.5t-19.5 4.5q-18 0 -27.5 -9.5t-9.5 -21.5
q0 -9 9.5 -26.5t30.5 -43.5z" />
    <glyph glyph-name="uni1CB8" unicode="&#x1cb8;" horiz-adv-x="478" 
d="M143 706v-83q0 -58 20.5 -80t47.5 -22q32 0 47.5 16.5t15.5 39.5q0 14 -10 38t-32 63l98 44q26 -47 40 -84t14 -69q0 -41 -14 -72.5t-38 -53.5t-55 -33t-65 -11q-19 0 -35.5 3t-33.5 12v-219q0 -83 80 -83q39 0 59.5 19t20.5 46q0 34 -65 93l74 77q101 -66 101 -178
q0 -44 -15.5 -77.5t-41.5 -56.5t-60.5 -35t-72.5 -12q-187 0 -187 208v510h107z" />
    <glyph glyph-name="uni1CB9" unicode="&#x1cb9;" 
 />
    <glyph glyph-name="uni1CBA" unicode="&#x1cba;" 
 />
    <glyph glyph-name="uni1CBB" unicode="&#x1cbb;" horiz-adv-x="418" 
d="M211 234q0 32 22 53.5t54 21.5q31 0 53 -21.5t22 -53.5t-22 -54t-53 -22q-32 0 -54 22t-22 54zM41 63q0 32 21.5 54t53.5 22t53.5 -22t21.5 -54t-21.5 -53.5t-53.5 -21.5t-53.5 21.5t-21.5 53.5zM41 404q0 32 21.5 54t53.5 22t53.5 -22t21.5 -54q0 -31 -21.5 -53
t-53.5 -22t-53.5 22t-21.5 53z" />
    <glyph glyph-name="uni1CBC" unicode="&#x1cbc;" 
 />
    <glyph glyph-name="uni1CBD" unicode="&#x1cbd;" 
 />
    <glyph glyph-name="uni1CBE" unicode="&#x1cbe;" 
 />
    <glyph glyph-name="uni1CBF" unicode="&#x1cbf;" 
 />
    <glyph glyph-name="endash" unicode="&#x2013;" horiz-adv-x="625" 
d="M558 325v-116h-514v116h514z" />
    <glyph glyph-name="emdash" unicode="&#x2014;" horiz-adv-x="902" 
d="M819 325v-116h-769v116h769z" />
    <glyph glyph-name="quoteleft" unicode="&#x2018;" horiz-adv-x="216" 
d="M188 533q0 -32 -21.5 -53.5t-53.5 -21.5t-54 23t-22 57l35 168h95l-22 -103q20 -9 31.5 -28t11.5 -42z" />
    <glyph glyph-name="quoteright" unicode="&#x2019;" horiz-adv-x="217" 
d="M37 636q0 32 22 53.5t54 21.5t53.5 -23t21.5 -57l-35 -168h-96l24 103q-20 9 -32 28t-12 42z" />
    <glyph glyph-name="quotesinglbase" unicode="&#x201a;" horiz-adv-x="216" 
d="M37 62q0 32 22 54t54 22t53.5 -23.5t21.5 -57.5l-35 -167h-96l24 102q-20 10 -32 29t-12 41z" />
    <glyph glyph-name="quotedblleft" unicode="&#x201c;" horiz-adv-x="402" 
d="M347 532q0 -32 -22 -53.5t-54 -21.5t-53.5 23t-21.5 57l35 169h95l-23 -105q21 -8 32.5 -27t11.5 -42zM191 532q0 -32 -22 -53.5t-54 -21.5q-31 0 -52.5 23t-21.5 57l34 169h95l-23 -105q21 -8 32.5 -27t11.5 -42z" />
    <glyph glyph-name="quotedblright" unicode="&#x201d;" horiz-adv-x="402" 
d="M41 636q0 32 21.5 53.5t52.5 21.5q32 0 54 -23t22 -57l-36 -168h-93l23 104q-21 8 -32.5 27t-11.5 42zM196 636q0 32 21.5 53.5t53.5 21.5t54 -23t22 -57l-35 -168h-95l23 104q-21 8 -32.5 27t-11.5 42z" />
    <glyph glyph-name="quotedblbase" unicode="&#x201e;" horiz-adv-x="402" 
d="M41 62q0 32 21.5 54t52.5 22q32 0 54 -23.5t22 -57.5l-36 -167h-93l23 103q-21 9 -32.5 27.5t-11.5 41.5zM196 62q0 32 21.5 54t53.5 22t54 -23.5t22 -57.5l-35 -167h-95l23 103q-21 9 -32.5 27.5t-11.5 41.5z" />
    <glyph glyph-name="dagger" unicode="&#x2020;" horiz-adv-x="500" 
d="M304 702v-178h171v-116h-171v-579h-127v579h-171v116h171v178h127z" />
    <glyph glyph-name="bullet" unicode="&#x2022;" horiz-adv-x="382" 
d="M328 275q0 -33 -11.5 -61.5t-31 -48.5t-45.5 -31.5t-56 -11.5q-33 0 -59.5 12t-45.5 33t-29.5 48.5t-10.5 59.5q0 31 10.5 58.5t29 48.5t45.5 33.5t60 12.5q31 0 57.5 -12.5t46 -34t30 -49t10.5 -57.5z" />
    <glyph glyph-name="ellipsis" unicode="&#x2026;" horiz-adv-x="666" 
d="M45 63q0 32 22 54t54 22t54 -22t22 -54t-22 -53.5t-54 -21.5t-54 21.5t-22 53.5zM251 63q0 32 22 54t54 22q31 0 53 -22t22 -54t-22 -53.5t-53 -21.5q-32 0 -54 21.5t-22 53.5zM456 63q0 32 22.5 54t53.5 22q32 0 53.5 -22t21.5 -54t-21.5 -53.5t-53.5 -21.5
q-31 0 -53.5 21.5t-22.5 53.5z" />
    <glyph glyph-name="perthousand" unicode="&#x2030;" horiz-adv-x="1092" 
d="M230 364q-38 0 -70.5 15t-56 41t-37 59.5t-13.5 71.5q0 40 14.5 74.5t39 59.5t56.5 39.5t67 14.5q33 0 64.5 -14.5t56 -39t39.5 -58t16 -72.5l86 168h126l-212 -412q44 30 97 30q52 0 94.5 -31t64.5 -80q21 48 64 79.5t97 31.5q37 0 69 -15t56 -40.5t37.5 -60t13.5 -73.5
t-14 -72.5t-38 -59t-56 -40t-68 -14.5q-53 0 -96 30.5t-65 78.5q-10 -24 -26.5 -44t-37.5 -34.5t-45 -22.5t-50 -8q-36 0 -68 14.5t-56.5 40t-39 59.5t-14.5 72l-87 -169h-126l210 409q-42 -28 -92 -28zM503 225q-31 0 -48.5 -22t-17.5 -51t17 -50.5t49 -21.5
q29 0 46.5 21.5t17.5 50.5q0 30 -17.5 51.5t-46.5 21.5zM230 624q-31 0 -48 -21.5t-17 -51.5q0 -29 16.5 -50t48.5 -21q30 0 47 21t17 50q0 33 -18.5 53t-45.5 20zM823 225q-30 0 -47 -22t-17 -51t16.5 -50.5t47.5 -21.5q29 0 46.5 20.5t17.5 51.5t-17.5 52t-46.5 21z" />
    <glyph glyph-name="guilsinglleft" unicode="&#x2039;" horiz-adv-x="350" 
d="M233 36l-194 207v62l194 207l74 -81l-143 -157l143 -156z" />
    <glyph glyph-name="guilsinglright" unicode="&#x203a;" horiz-adv-x="350" 
d="M172 275l-143 156l76 81l192 -207v-62l-192 -207l-76 82z" />
    <glyph glyph-name="Euro" unicode="&#x20ac;" horiz-adv-x="738" 
d="M265 229q14 -60 47.5 -94t95.5 -34q48 0 78.5 24.5t52.5 69.5h125q-33 -112 -98 -159.5t-158 -47.5q-55 0 -99 17.5t-77 49.5t-55 76t-34 98h-138l84 114h44v13h-128l84 115h53q12 53 34 97t55 76t77 50t100 18q100 0 166.5 -54.5t97.5 -182.5h-121q-15 67 -51.5 96
t-91.5 29q-63 0 -96 -34.5t-47 -94.5h276l-83 -115h-206v-13h289l-83 -114h-193z" />
    <glyph glyph-name="trademark" unicode="&#x2122;" horiz-adv-x="832" 
d="M470 706l83 -245l25 76q13 40 28 85t29 84h119v-429h-113v121l-43 -121h-92l-42 119v-119h-113v312h-96v-312h-111v312h-96v117h422z" />
    <glyph glyph-name="accent" horiz-adv-x="211" 
d="M37 646q0 27 18 45.5t45 18.5q26 0 44.5 -18.5t18.5 -45.5t-18.5 -45t-44.5 -18q-27 0 -45 18t-18 45z" />
    <glyph glyph-name="uni10D0.case" horiz-adv-x="495" 
d="M153 235q0 -64 23 -99t71 -35q24 0 41.5 11.5t29.5 31.5t18 47.5t6 59.5q0 44 -14.5 77.5t-36.5 61.5t-48 53.5t-48 53.5t-36.5 61.5t-14.5 77.5v68h117v-60q0 -28 14.5 -51t36.5 -47t48 -50.5t48 -61t36.5 -79t14.5 -104.5t-15 -109t-42.5 -83.5t-67 -53t-87.5 -18.5
q-101 0 -156 63.5t-55 184.5q0 35 9.5 70t23.5 70h134q-24 -43 -37 -79t-13 -61z" />
    <glyph glyph-name="uni10D1.case" horiz-adv-x="513" 
d="M477 242q0 -50 -10 -96t-34.5 -81.5t-67 -56.5t-108.5 -21t-109 21t-67.5 56.5t-34.5 81.5t-10 96q0 45 7.5 90.5t27.5 83.5t55 64.5t89 34.5v61h-3q-31 0 -55.5 2.5t-41 11.5t-25.5 26t-9 46v54h119v-28q0 -5 2.5 -8.5t7.5 -3.5h187l60 -100h-124v-70q40 -15 68 -43
t44.5 -63.5t24 -76t7.5 -81.5zM357 242q0 28 -3 57t-13.5 52.5t-30 38t-52.5 14.5t-53 -14.5t-31 -38t-14.5 -52.5t-3.5 -57t3.5 -53.5t14.5 -45t30.5 -31t52.5 -11.5t52.5 11.5t30 31t14 45t3.5 53.5z" />
    <glyph glyph-name="uni10D2.case" horiz-adv-x="557" 
d="M262 712q46 0 80.5 -14t57.5 -38t35 -56.5t12 -69.5q0 -40 -16 -84q49 -32 69.5 -87.5t20.5 -119.5q0 -50 -13.5 -96t-43 -81.5t-75.5 -57t-110 -21.5q-65 0 -111 21.5t-75.5 57t-43 81.5t-13.5 96q0 51 14.5 95.5t45.5 77.5t78 52.5t112 19.5h17t15 -1q9 28 9 49
q0 27 -15 45.5t-53 18.5t-85.5 -23t-94.5 -79v137q43 39 89 58t94 19zM402 243q0 21 -5 44.5t-18.5 43t-36 32.5t-56.5 13q-35 0 -59.5 -10.5t-40 -28.5t-23 -42t-7.5 -52t6.5 -54t21 -45.5t38 -31t57.5 -11.5t57.5 11.5t38 31t21 45.5t6.5 54z" />
    <glyph glyph-name="uni10D3.case" horiz-adv-x="804" 
d="M85 117l-49 90q21 16 46 28t48 17q-20 19 -36.5 39t-29.5 44.5t-20 55.5t-7 72q0 48 8.5 92.5t31.5 79.5t63.5 56t103.5 21q59 0 93 -13.5t54 -42.5q23 29 61 42.5t96 13.5q67 0 109.5 -19.5t67 -53t34 -78.5t9.5 -95t-9.5 -93t-34.5 -75t-67.5 -50.5t-108.5 -18.5
t-108.5 18t-67.5 50t-35 76t-10 95q0 27 -2 51t-10 42t-24.5 28.5t-45.5 10.5q-30 0 -48 -11.5t-27 -30t-11.5 -43.5t-2.5 -52q0 -59 19 -97t49.5 -63.5t70 -42t80.5 -30.5t80.5 -30t70 -41.5t49.5 -63t19 -95.5h-121q0 24 -14 46t-36.5 41t-51 34t-57.5 25
q-65 23 -118.5 14.5t-110.5 -43.5zM447 466q0 -28 3.5 -50.5t14.5 -39t30.5 -25.5t52.5 -9t52.5 9t30 25.5t14 39t3.5 50.5t-3.5 52.5t-14 42.5t-30.5 28.5t-53 10.5t-53 -10.5t-30.5 -28.5t-13.5 -42.5t-3 -52.5z" />
    <glyph glyph-name="uni10D4.case" horiz-adv-x="503" 
d="M249 -13q-49 0 -88.5 15.5t-67 44t-42.5 69.5t-15 92q0 32 9.5 81t28.5 98l102 -57q-10 -32 -15 -65.5t-5 -55.5q0 -51 22.5 -79.5t73.5 -28.5q18 0 33 5.5t26.5 20t17.5 39.5t6 63v288q0 45 -23.5 63.5t-58.5 18.5q-24 0 -50 -7.5t-50.5 -20.5t-45.5 -30.5t-34 -36.5
v131q84 77 182 77q41 0 77.5 -12t63.5 -36t43 -60t16 -84v-284q0 -74 -16 -122.5t-44 -76.5t-65.5 -39t-80.5 -11z" />
    <glyph glyph-name="uni10D5.case" horiz-adv-x="504" 
d="M201 475h62q13 0 25.5 2t22 8.5t15.5 17.5t6 29q0 41 -24.5 54.5t-60.5 13.5q-18 0 -40 -5t-46 -16t-48.5 -29t-47.5 -45v147q36 26 85 43t99 17q52 0 90 -15t63 -40t37.5 -57.5t12.5 -67.5q0 -29 -8 -57t-33 -51q29 -20 43 -51t14 -69v-89q0 -64 -18 -107.5t-48 -70.5
t-68.5 -38.5t-79.5 -11.5q-52 0 -94.5 16.5t-72.5 45.5t-46.5 69t-16.5 87q0 36 10.5 75t33.5 81l104 -59q-15 -24 -21.5 -47.5t-6.5 -44.5q0 -47 27.5 -78t73.5 -31q19 0 37.5 5t33 17.5t23 35t8.5 57.5v86q0 10 -4 20.5t-12.5 19.5t-21.5 14.5t-31 5.5h-77v113z" />
    <glyph glyph-name="uni10D6.case" horiz-adv-x="682" 
d="M26 490q0 57 17.5 99t46 69.5t64.5 40.5t73 13q34 0 66 -11t57 -32t40 -51.5t15 -69.5v-15t-1 -15q5 1 10 1h12q66 0 109 -23t67.5 -60.5t34 -85.5t9.5 -98t-9.5 -97.5t-34.5 -84.5t-67.5 -59.5t-108.5 -22.5t-108.5 22.5t-67.5 59.5t-34.5 84.5t-9.5 97.5v13t1 14
q-5 -1 -9 -1h-9q-33 0 -62.5 13.5t-52 40.5t-35.5 66.5t-13 91.5zM526 252q0 28 -3 55.5t-12.5 49.5t-28.5 36t-50 14q-29 0 -49.5 -13.5t-33 -35t-18.5 -49.5t-6 -57q0 -28 3.5 -55t14.5 -48.5t31 -34.5t52 -13q33 0 52.5 13t30 34t14 48t3.5 56zM282 515q0 28 -5.5 45
t-14.5 26t-20.5 11.5t-23.5 2.5q-13 0 -26 -5t-23 -17.5t-16.5 -33.5t-6.5 -54q0 -20 2 -38t8.5 -32t18.5 -22t33 -8q22 0 36.5 11.5t23 29.5t11.5 40.5t3 43.5z" />
    <glyph glyph-name="uni10D7.case" horiz-adv-x="799" 
d="M646 470q0 24 -2.5 47.5t-12 41.5t-27.5 29t-48 11t-48 -12.5t-27.5 -33t-12.5 -46t-3 -51.5v-219q0 -48 -11 -92.5t-36 -79.5t-66.5 -56t-101.5 -21q-65 0 -106.5 22.5t-65.5 60t-33 85.5t-9 99v197q0 49 9.5 96t33.5 84t65.5 59t105.5 22q57 0 93.5 -20t59.5 -53
q21 35 57 54t97 19q63 0 103 -21t63 -57t31.5 -83t8.5 -98v-199q0 -49 -10 -96t-35 -84t-67.5 -61t-106.5 -27l-33 114q44 0 70.5 12t41 31.5t19 44t4.5 50.5v231zM348 466q0 24 -3.5 48t-14 43t-30 30.5t-50.5 11.5t-50.5 -11t-30 -30t-14 -43t-3.5 -49v-227
q0 -26 3.5 -50.5t14 -44t29.5 -31.5t51 -12t51 12t29.5 31.5t14 44t3.5 50.5v227z" />
    <glyph glyph-name="uni10D8.case" horiz-adv-x="515" 
d="M364 461q0 25 -4.5 50t-16.5 44.5t-32.5 31.5t-52.5 12t-52 -12t-32 -31t-16.5 -44t-4.5 -50v-236q0 -38 17.5 -72t59.5 -63l-63 -107q-35 20 -59.5 48t-40.5 61t-23.5 69t-7.5 73v214q0 50 11 97.5t37 84.5t68.5 59.5t105.5 22.5t105.5 -22.5t68 -60t36.5 -85.5t11 -98
v-212q0 -37 -7.5 -73.5t-23 -69.5t-40.5 -61t-61 -47l-58 109q41 28 58 61.5t17 71.5v235z" />
    <glyph glyph-name="uni10D9.case" horiz-adv-x="511" 
d="M200 458h70q13 0 25.5 2.5t22 9t15.5 18t6 29.5q0 44 -28 65.5t-65 21.5h-30v112q47 0 91 -12t77.5 -36t54 -61t20.5 -87q0 -42 -13.5 -69.5t-35.5 -44.5q65 -38 65 -117v-74q0 -64 -19 -107.5t-50.5 -70.5t-71.5 -38.5t-81 -11.5q-49 0 -91 12t-72.5 37.5t-48 66
t-17.5 96.5q0 62 35 138l106 -55q-12 -26 -17 -45t-5 -38q0 -29 9 -48t23.5 -30t33.5 -15.5t39 -4.5q19 0 38 5.5t34 19t24.5 35.5t9.5 55v73q0 20 -16.5 38t-52.5 18h-85v113z" />
    <glyph glyph-name="uni10DA.case" horiz-adv-x="524" 
d="M168 268q0 -33 13 -63t34.5 -53t51 -37t62.5 -14h115v-101h-114q-59 0 -110 21.5t-89.5 59t-60.5 88t-22 109.5v214q0 45 17 85t47 70t70 47.5t86 17.5q45 0 85 -17.5t70 -47.5t47.5 -70t17.5 -85v-231h-120v238q0 21 -8 39t-21.5 31.5t-31.5 21.5t-38 8q-21 0 -39 -8
t-32 -21.5t-22 -31.5t-8 -39v-231z" />
    <glyph glyph-name="uni10DB.case" horiz-adv-x="525" 
d="M477 252q0 -50 -10 -97.5t-34.5 -85t-67 -60t-108.5 -22.5t-109 22.5t-67.5 60t-34.5 85t-10 97.5t9.5 97.5t34 84.5t67 59.5t108.5 22.5q34 0 58.5 -6.5t43.5 -17.5v26q0 44 -26.5 62.5t-61.5 18.5q-20 0 -45 -4.5t-50.5 -15t-50 -29t-44.5 -46.5v134q42 37 92 55.5
t98 18.5q40 0 77.5 -12t66.5 -36t46.5 -60t17.5 -84v-268zM357 252q0 28 -3.5 55.5t-14 49t-30 34.5t-52.5 13t-53 -13t-30.5 -34.5t-14 -49t-3.5 -55.5t3.5 -55t14.5 -48.5t30.5 -34.5t52.5 -13t52.5 13t30 34t14 48t3.5 56z" />
    <glyph glyph-name="uni10DC.case" horiz-adv-x="524" 
d="M48 520q0 48 17.5 82.5t46.5 57t66.5 33.5t77.5 11h191v-105h-188q-37 0 -64 -23t-27 -68v-17q20 12 44.5 18.5t58.5 6.5q66 0 108.5 -23t67 -60.5t33.5 -85.5t9 -98t-10 -97t-34.5 -84t-67.5 -59t-109 -22t-108.5 22.5t-67.5 60t-34.5 85t-9.5 97.5v268zM168 249
q0 -29 3 -55.5t13.5 -47t30.5 -33t53 -12.5t52.5 12.5t30.5 33.5t14.5 47.5t3.5 54.5t-3.5 56t-14 50t-30.5 35.5t-53 13.5t-53 -13.5t-30.5 -35.5t-13.5 -50t-3 -56z" />
    <glyph glyph-name="uni10DD.case" horiz-adv-x="755" 
d="M319 470q0 24 -2.5 47t-11 41.5t-25 29.5t-44.5 11q-30 0 -47 -11.5t-25.5 -30t-10 -43t-1.5 -49.5v-210q0 -26 5 -53t19.5 -49.5t41 -37t70.5 -14.5l-33 -114q-65 3 -107 27t-67 61t-35 84t-10 96v199q0 50 7.5 96.5t29 82.5t60.5 58t102 22q54 0 88 -20t54 -49
q20 31 53.5 50t90.5 19q63 0 102 -22.5t60.5 -59t28.5 -83.5t7 -96v-197q0 -49 -10 -96t-34.5 -84t-67 -61t-107.5 -27l-32 114q44 0 70.5 14.5t41 37t19 49.5t4.5 53v211q0 25 -1.5 49t-10 42.5t-25 30t-46.5 11.5q-28 0 -44 -11t-24.5 -29.5t-10.5 -41.5t-2 -47v-206h-120
v206z" />
    <glyph glyph-name="uni10DE.case" horiz-adv-x="515" 
d="M205 431h85q23 0 35.5 13.5t12.5 43.5q0 23 -16 34.5t-39.5 18t-51.5 12.5t-51.5 18t-39.5 34.5t-16 61.5v37h117v-17q0 -13 16 -20t40.5 -14t53 -17t53 -27.5t40.5 -46t16 -73.5q0 -38 -9.5 -65.5t-25.5 -44.5q27 -19 41 -48t14 -63v-48q0 -73 -19 -118.5t-50 -71
t-71.5 -34.5t-83.5 -9q-55 0 -96 19t-68.5 50.5t-41.5 72t-14 83.5q0 31 6.5 60.5t18.5 61.5l105 -60q-5 -17 -7.5 -32.5t-2.5 -29.5q0 -52 24.5 -81.5t84.5 -29.5q29 0 47.5 8.5t29 24.5t14.5 38t4 48v48q0 10 -4.5 21t-15 20t-26.5 14.5t-39 5.5h-70v102z" />
    <glyph glyph-name="uni10DF.case" horiz-adv-x="639" 
d="M144 465q0 -49 23 -74t54 -25q42 0 61.5 26.5t19.5 68.5t-31 102l-59 -11v117l238 43h143v-490q0 -56 -17.5 -100t-48 -74t-72 -45.5t-89.5 -15.5q-52 0 -107 17.5t-121 55.5l56 106q56 -35 93 -50t72 -15q49 0 81.5 27t32.5 86v388q-22 -5 -38.5 -8.5t-40.5 -8.5
q27 -72 27 -133q0 -48 -15 -85t-41.5 -62t-63.5 -38t-81 -13q-38 0 -73 13.5t-62 40.5t-43 67t-16 93q0 35 17 81l113 -31q-12 -33 -12 -53z" />
    <glyph glyph-name="uni10E0.case" horiz-adv-x="802" 
d="M341 277q0 26 -2.5 49t-11.5 40.5t-26 27.5t-45 10q-33 0 -53 -15.5t-30.5 -39.5t-14 -54t-3.5 -59q0 -17 5 -40t19.5 -44t41 -36t70.5 -15l-28 -114q-67 3 -111 28t-69.5 64t-36 87.5t-10.5 99.5v38q0 98 19 166t50.5 112.5t74 69t89 36t95 14t92.5 2.5h82v-105h-90
q-41 0 -81 -5t-75.5 -16.5t-64.5 -30.5t-47 -47q34 16 75 16q58 0 92 -19t54 -49q23 32 57.5 50t96.5 18q66 0 107 -20t64.5 -54.5t31.5 -79.5t8 -96q0 -48 -10.5 -96.5t-36 -88t-69.5 -65.5t-111 -29l-27 114q43 0 70 15t41 39t19 53t5 58q0 28 -2 53t-11.5 44t-28 30
t-51.5 11q-29 0 -47.5 -10t-28.5 -27.5t-13.5 -40.5t-3.5 -49v-115h-120v115z" />
    <glyph glyph-name="uni10E1.case" horiz-adv-x="524" 
d="M276 -13q-51 0 -93 16.5t-72 47.5t-46.5 76.5t-16.5 102.5v474h121v-474q0 -33 9 -57.5t24 -40.5t34 -23.5t38 -7.5q25 0 43 10t29 26.5t16.5 39t5.5 48.5t-7.5 56.5t-21 62t-32 63t-40.5 59.5l107 63q25 -38 46 -77.5t36 -78.5t23.5 -75t8.5 -66q0 -64 -18 -110t-48 -76
t-68 -44.5t-78 -14.5z" />
    <glyph glyph-name="uni10E2.case" horiz-adv-x="731" 
d="M398 353v-173h-117v354q0 42 14 75.5t38.5 56t57 34.5t68.5 12q37 0 70 -12t57.5 -34.5t38.5 -56t14 -75.5q0 -30 -19.5 -60.5t-48.5 -47.5q39 -17 63 -39.5t37.5 -47t18.5 -50t5 -48.5q0 -54 -21.5 -100.5t-61.5 -80.5t-97 -53.5t-128 -19.5q-90 0 -156 29t-109.5 78
t-64.5 113.5t-21 135.5q0 79 23.5 165t68.5 170l112 -59q-18 -30 -34 -65.5t-28 -73.5t-19 -77.5t-7 -76.5q0 -46 12 -87t39 -71.5t71 -48.5t109 -18q39 0 74.5 11.5t62.5 31t43 46.5t16 58q0 18 -8.5 37t-25.5 34t-41.5 24.5t-56.5 9.5h-49zM398 481h53q14 0 27.5 3t24 10
t17 18.5t6.5 28.5q0 27 -19.5 42.5t-47.5 15.5q-26 0 -43.5 -16.5t-17.5 -42.5v-59z" />
    <glyph glyph-name="uni10E3.case" horiz-adv-x="575" 
d="M527 207q0 -49 -18 -89.5t-49 -69.5t-73 -45t-90 -16t-90 16t-73.5 45t-49.5 69.5t-18 89.5q0 19 4.5 41t12.5 45t18 44.5t21 39.5l107 -62q-22 -32 -33 -63t-11 -52q0 -23 9 -41t24 -31t35.5 -20t43.5 -7q46 0 78.5 26t32.5 71v351q0 22 -15.5 36t-36.5 14t-36 -13.5
t-15 -34.5v-131h-120v129q0 26 -13 38t-29 12h-119v105h141q32 0 51.5 -20t28.5 -53q6 19 19 34t30 25.5t36.5 16t38.5 5.5q36 0 65 -13.5t49.5 -36.5t32 -54t11.5 -66v-335z" />
    <glyph glyph-name="uni10E4.case" horiz-adv-x="804" 
d="M637 508q0 27 -6.5 44.5t-17.5 28t-25 14.5t-30 4t-31.5 -4.5t-27.5 -15t-19.5 -29t-7.5 -45.5v-41q0 -55 -11 -103t-37 -84t-68.5 -56.5t-104.5 -20.5q-66 0 -108 22.5t-67 59.5t-34.5 84.5t-9.5 97.5t9.5 95t34 79t67 54t108.5 20q61 0 99 -19t61 -54q27 39 67 56
t88 17q37 0 71 -11.5t60.5 -36t42.5 -63.5t16 -93q0 -55 -11.5 -94.5t-46.5 -64.5q23 -17 40.5 -41.5t17.5 -54.5v-74q0 -54 -21 -90.5t-56.5 -59t-80.5 -32.5t-93 -10q-63 0 -128.5 21.5t-117.5 60.5l68 90q15 -12 35 -23t43 -18.5t47 -12t45 -4.5q27 0 52 3t44.5 12
t31.5 24.5t12 41.5v56q0 21 -21.5 37t-49.5 16h-51v110h52q42 0 56 28.5t14 78.5zM351 463q0 28 -3 53t-13 43.5t-30 29t-53 10.5t-53 -10.5t-31 -29t-14.5 -43.5t-3.5 -53t3.5 -55t14.5 -48t31 -34t52 -13q33 0 52.5 12.5t30 33.5t14 48t3.5 56z" />
    <glyph glyph-name="uni10E5.case" horiz-adv-x="491" 
d="M243 -13q-97 0 -152 60.5t-55 165.5q0 25 5.5 60.5t16.5 73.5l109 -52q-6 -23 -11 -46t-5 -45q0 -18 4.5 -36.5t15.5 -33.5t29.5 -24t46.5 -9q35 0 57.5 31t22.5 102v205q0 19 -10.5 32.5t-27 22.5t-37 13.5t-41.5 4.5q-49 0 -80.5 -22.5t-59.5 -60.5v117q30 38 69 58
t83 20q51 0 104 -29v109h116v-470q0 -78 -15.5 -126t-42.5 -75t-63.5 -36.5t-78.5 -9.5z" />
    <glyph glyph-name="uni10E6.case" horiz-adv-x="803" 
d="M342 473q0 25 -3.5 47.5t-13.5 40t-28.5 28t-47.5 10.5q-31 0 -49.5 -9t-28 -24.5t-12.5 -37.5t-3 -49q0 -59 19 -98t49.5 -65.5t70 -44.5t80.5 -33.5t80.5 -33.5t70 -44t49.5 -64.5t19 -96.5h-121q0 35 -27.5 65t-66.5 52.5t-82.5 35.5t-76.5 13q-28 0 -61.5 -11.5
t-73.5 -36.5l-49 90q21 16 45 28.5t44 19.5q-18 17 -34 37.5t-28 46t-19 56.5t-7 69q0 50 8 95t31.5 79t64.5 54t107 20q58 0 94.5 -18.5t58.5 -49.5q23 32 58 50t97 18q66 0 107 -20t64.5 -54t31.5 -79t8 -95q0 -45 -9 -89t-31.5 -79.5t-60.5 -60.5t-95 -33l-30 112
q34 4 55 18.5t32.5 35t15.5 45.5t4 51q0 28 -2 52.5t-11.5 43t-28 29t-51.5 10.5q-29 0 -47.5 -10.5t-28.5 -28t-13.5 -40t-3.5 -47.5v-82h-120v82z" />
    <glyph glyph-name="uni10E7.case" horiz-adv-x="512" 
d="M464 179q0 -48 -17.5 -84t-46 -60t-66 -36t-77.5 -12q-48 0 -97.5 18.5t-92.5 57.5v141q47 -55 98 -79.5t89 -24.5q37 0 64 20t27 65v87q-20 -19 -44 -30t-56 -11q-66 0 -109 19t-68 52t-34.5 77.5t-9.5 94.5q0 43 8.5 81.5t29.5 70t56.5 55t88.5 37.5l29 -110
q-29 -8 -47 -21t-28 -30t-13.5 -38t-3.5 -45q0 -29 3.5 -52.5t14 -40.5t30 -26.5t51.5 -9.5q33 0 53.5 8t31 23.5t14 37.5t3.5 51v239h119v-525z" />
    <glyph glyph-name="uni10E8.case" horiz-adv-x="545" 
d="M155 574q0 17 -7.5 21t-22.5 4h-109v105h110q33 0 55.5 -12.5t37.5 -33.5q23 24 52.5 39t59.5 15q31 0 61 -11t53 -31.5t37.5 -49.5t14.5 -66v-310q0 -65 -19.5 -113t-51 -80t-72 -48t-82.5 -16t-82.5 16t-72 48t-50.5 80t-19 112q0 60 18 105t48 75.5t69 45.5t81 15
q29 0 58 -7.5t55 -26.5v111q0 20 -16.5 29t-35.5 9t-34.5 -5.5t-15.5 -20.5v-57h-120v58zM377 243q0 35 -8 59.5t-22.5 40t-33.5 22.5t-40 7t-40.5 -7t-33.5 -22.5t-22.5 -40t-8.5 -59.5q0 -69 26.5 -105.5t78.5 -36.5q53 0 78.5 36.5t25.5 105.5z" />
    <glyph glyph-name="uni10E9.case" horiz-adv-x="532" 
d="M340 565q0 15 -20 24.5t-62 9.5q-36 0 -63 -18t-27 -61v-99q92 29 132 65t40 79zM48 521q0 48 17.5 84t47 59.5t67 35.5t77.5 12q49 0 87 -11t63.5 -30.5t38.5 -45.5t13 -56q0 -36 -19 -71t-73 -61q56 -25 92.5 -79.5t36.5 -135.5q0 -30 -9 -63t-25 -65.5t-38 -62.5
t-47 -55l-84 79q18 15 33 35.5t26.5 43.5t18 45.5t6.5 41.5q0 31 -9 54t-23 38t-33 22.5t-38 7.5t-38 -6t-34 -17.5t-24.5 -27.5t-9.5 -36v-256h-120v521z" />
    <glyph glyph-name="uni10EA.case" horiz-adv-x="684" 
d="M342 448h104q30 0 49 14.5t19 32.5q0 21 -13.5 32.5t-33.5 19.5t-44 15t-44 19.5t-33.5 32.5t-13.5 55v35h117v-25q0 -5 13.5 -10t34.5 -12.5t44.5 -19.5t44.5 -30t34.5 -43t13.5 -60q0 -32 -16 -65.5t-51 -53.5q42 -18 61.5 -54.5t19.5 -87.5q0 -60 -23 -107.5
t-62 -80.5t-89.5 -50.5t-104.5 -17.5q-65 0 -125.5 24t-106.5 72.5t-73.5 122.5t-27.5 174q0 79 32.5 168.5t89.5 174.5l107 -62q-25 -35 -45 -73.5t-34.5 -77t-22 -76.5t-7.5 -71q0 -66 17.5 -115t47.5 -81.5t69 -49t81 -16.5q31 0 59.5 9.5t50.5 27t34.5 43t12.5 57.5
q0 40 -27 69.5t-85 29.5h-74v111z" />
    <glyph glyph-name="uni10EB.case" horiz-adv-x="525" 
d="M477 252q0 -50 -10 -97.5t-34.5 -85t-67 -60t-108.5 -22.5t-109 22.5t-67.5 60t-34.5 85t-10 97.5t9.5 97.5t34.5 84.5t68 59.5t109 22.5q30 0 55 -8.5t45 -22.5v48q0 27 -15 47.5t-38 34.5l29 108q31 -13 57.5 -31t45.5 -41.5t30 -52t11 -62.5v-284zM357 252
q0 28 -3.5 55.5t-14 49t-30 34.5t-52.5 13t-53 -13t-30.5 -34.5t-14 -49t-3.5 -55.5t3.5 -55t14.5 -48.5t30.5 -34.5t52.5 -13t52.5 13t30 34t14 48t3.5 56z" />
    <glyph glyph-name="uni10EC.case" horiz-adv-x="545" 
d="M390 516h-120v51q0 15 -15.5 23.5t-34.5 8.5t-35.5 -9t-16.5 -29v-111q26 19 55 26.5t58 7.5q42 0 81 -15t69 -45.5t48 -75.5t18 -105q0 -64 -19.5 -112t-51 -80t-71.5 -48t-82 -16t-82.5 16t-72 48t-51 80t-19.5 113v310q0 37 14.5 66t37.5 49.5t53 31.5t61 11
q30 0 61 -12t51 -41q13 26 36.5 35.5t56.5 9.5h110v-105h-109q-30 0 -30 -31v-52zM168 243q0 -69 25.5 -105.5t78.5 -36.5q52 0 78.5 36.5t26.5 105.5q0 35 -8.5 59.5t-22.5 40t-33.5 22.5t-40.5 7t-40 -7t-33.5 -22.5t-22.5 -40t-8 -59.5z" />
    <glyph glyph-name="uni10ED.case" horiz-adv-x="572" 
d="M247 216q-105 0 -154.5 51.5t-49.5 136.5q0 42 13 77.5t39 62t64.5 41t90.5 14.5h76v107h117v-107h94v-114h-94v-272q0 -53 -20 -95t-53 -71t-74.5 -44.5t-83.5 -15.5q-49 0 -97.5 21.5t-90.5 66.5l71 80q28 -26 57.5 -40t61.5 -14q51 0 81.5 28t30.5 70v34
q-14 -8 -37.5 -12.5t-41.5 -4.5zM158 403q0 -32 23.5 -54.5t68.5 -22.5q17 0 40 6t36 16v137h-59q-54 0 -81.5 -23.5t-27.5 -58.5z" />
    <glyph glyph-name="uni10EE.case" horiz-adv-x="525" 
d="M48 704h120v-232q19 19 45.5 31.5t58.5 12.5q67 0 109 -22.5t66 -60t33 -85t9 -97.5t-10 -97.5t-34.5 -84.5t-67.5 -59.5t-109 -22.5t-108.5 22.5t-67.5 59.5t-34.5 84.5t-9.5 97.5v453zM168 251q0 -29 3 -56t13.5 -48t30.5 -33.5t53 -12.5t52.5 13t30.5 34t14.5 48
t3.5 55t-3.5 55.5t-14 49t-30.5 35t-53 13.5t-53 -13.5t-30.5 -35t-13.5 -49t-3 -55.5z" />
    <glyph glyph-name="uni10EF.case" horiz-adv-x="515" 
d="M81 615h123v97h121v-97h123v-112h-123v-60q0 -11 5 -18.5t14.5 -15.5t23 -17.5t30.5 -23.5q44 -37 62.5 -79.5t18.5 -86.5q0 -47 -15.5 -86t-42.5 -68t-62.5 -45t-75.5 -16q-61 0 -107.5 17t-77.5 47.5t-46.5 73t-15.5 93.5q0 20 5 50t17 67l111 -52q-8 -18 -10.5 -34
t-2.5 -31q0 -24 6 -45.5t19 -37t33.5 -25t49.5 -9.5q24 0 42 8.5t29.5 22t17.5 31t6 36.5q0 28 -11.5 47.5t-28.5 35t-37.5 29t-37.5 30.5t-28.5 39.5t-11.5 56.5v66h-123v112z" />
    <glyph glyph-name="uni10F0.case" horiz-adv-x="500" 
d="M113 593l-27 111h204q30 0 56.5 -11t46 -29.5t31 -43.5t11.5 -52q0 -20 -9 -40.5t-24 -37.5q17 -16 25 -37t8 -41q0 -21 -7.5 -41t-24.5 -36q20 -18 34.5 -50t14.5 -83q0 -54 -10.5 -94.5t-35 -67.5t-64.5 -40t-98 -13q-107 0 -163.5 56.5t-56.5 168.5q0 24 5 52t14 61
l116 -31q-11 -38 -15 -73t5 -61.5t34 -42.5t70 -16q28 0 43.5 8.5t23.5 23.5t10 36t2 47q0 35 -13 49t-25 14h-75v111h75q8 0 14 6.5t6 15.5t-6 16t-14 7h-75v111h75q8 0 14 6.5t6 15.5t-6.5 17t-17.5 8h-177z" />
    <glyph glyph-name="uni10F1.case" horiz-adv-x="668" 
d="M73 424q3 41 12.5 91.5t29 94.5t52 74t82.5 30q23 0 44.5 -7.5t37.5 -23.5t25.5 -39.5t9.5 -54.5q0 -43 -15.5 -79t-41 -65t-58.5 -51.5t-68 -38.5q0 -46 9 -91.5t31 -81.5t59 -58.5t94 -22.5q63 0 101.5 18t38.5 54q0 35 -35 52t-90 27v113q67 -16 78 -16t21.5 5
t10.5 18q0 18 -29.5 31t-80.5 27v111q31 -10 51.5 -14t32.5 -4q15 0 15 15q0 11 -6 19t-21 17l-72 44v128l121 -75q42 -26 66.5 -61.5t24.5 -72.5q0 -24 -5.5 -42t-19.5 -34q20 -20 27.5 -44t7.5 -45t-9 -43.5t-23 -39.5q47 -47 47 -117q0 -42 -19 -76t-53 -58t-80 -37
t-100 -13q-83 0 -139 28.5t-91 74t-52 103t-21 116.5l-47 -19v113zM247 608q-18 0 -33.5 -36t-23.5 -93q31 23 47.5 52t16.5 61q0 16 -7 16z" />
    <glyph glyph-name="uni10F2.case" horiz-adv-x="440" 
d="M404 -17q-16 0 -40.5 3.5t-51.5 10t-54 16t-49 22.5q-32 -16 -78.5 -31.5t-94.5 -26.5v129q21 1 39.5 2t33.5 4q-27 35 -47 81t-20 95v239q0 37 14 70.5t38 59t56.5 40.5t69.5 15t69 -15t55.5 -40.5t37 -58.5t15.5 -70v-220q0 -60 -19.5 -109t-54.5 -86q17 -4 30.5 -5
t22.5 -2h28v-123zM152 290q0 -47 20 -79.5t43 -53.5q31 25 52 57.5t21 75.5v237q0 12 -5.5 23t-14.5 19.5t-21.5 14t-26.5 5.5q-29 0 -48.5 -19.5t-19.5 -42.5v-237z" />
    <glyph glyph-name="uni10F3.case" horiz-adv-x="474" 
d="M302 479q31 -9 51.5 -34t33 -58.5t17.5 -71.5t5 -73q0 -51 -6 -97.5t-25.5 -81.5t-58 -55.5t-102.5 -20.5q-46 0 -80 14.5t-56.5 40t-33.5 60t-11 73.5q0 76 50 135l78 -79q-18 -29 -18 -53q0 -15 6 -28.5t16.5 -24.5t24.5 -17.5t30 -6.5q25 0 40 11t23 30t11 44.5
t3 55.5q0 24 -3.5 46t-9.5 39t-15.5 27.5t-21.5 10.5q-20 0 -49 -29l-70 70l105 193h-164v105h352z" />
    <glyph glyph-name="uni10F4.case" horiz-adv-x="478" 
d="M169 575q0 -14 17 -27t42 -26.5t54.5 -28t54.5 -31.5t42 -37t17 -45q0 -13 -4.5 -27t-12.5 -26t-20.5 -21t-28.5 -12q35 -17 59 -51.5t24 -72.5q0 -85 -51.5 -134t-143.5 -49q-44 0 -78 13.5t-57 36t-35 51.5t-12 61q0 46 35 90l96 -55q-11 -12 -15.5 -22t-4.5 -15
q0 -14 19 -30t51 -16q45 0 65.5 20.5t20.5 47.5q0 44 -24.5 59t-71.5 15h-25v119h29q33 0 54 2t21 10q0 9 -16.5 16t-41.5 15t-54 19.5t-54 30t-41.5 46t-16.5 67.5q0 37 13.5 64.5t35.5 45.5t50.5 26.5t58.5 8.5q32 0 59 -11t47 -29t31.5 -41t11.5 -46t-10.5 -46.5
t-33.5 -43.5l-94 50q15 6 22.5 12t10.5 12t2.5 10t-0.5 6q0 4 -12.5 12t-34.5 8q-18 0 -34 -9.5t-16 -21.5z" />
    <glyph glyph-name="uni10F5.case" horiz-adv-x="534" 
d="M38 172q0 30 13.5 57.5t36 48.5t51 34t58.5 13h80v51h-78q-31 0 -60 12.5t-51.5 33.5t-36 48.5t-13.5 58.5q0 44 13.5 78t37.5 57.5t57.5 36t72.5 12.5q37 0 67.5 -12.5t52.5 -35.5t33.5 -55.5t11.5 -72.5v-70h105v-91h-105v-51h105v-89h-105v-73q0 -41 -12 -73.5
t-34 -55t-52.5 -35t-66.5 -12.5q-40 0 -73 12.5t-57 36.5t-37.5 58.5t-13.5 77.5zM238 236q-15 0 -30.5 -2t-29 -9t-22 -19.5t-8.5 -34.5q0 -29 19.5 -49.5t51.5 -20.5q18 0 29.5 7t18 17t8.5 21t2 20v70h-39zM277 534q0 9 -2 20.5t-8.5 21t-18 16.5t-29.5 7
q-19 0 -32.5 -6.5t-22 -16.5t-12.5 -22t-4 -24q0 -21 8.5 -33.5t22 -19t29 -8.5t30.5 -2h39v67z" />
    <glyph glyph-name="uni10F6.case" horiz-adv-x="671" 
d="M282 545q0 25 -9 35t-27 10h-107v114h110q25 0 50.5 -2t45 -16t32 -45t12.5 -89v-32q14 11 30.5 18t32.5 7q39 0 72.5 -13.5t58 -38t38.5 -59.5t14 -78q0 -49 -13.5 -85.5t-36.5 -61t-53 -37t-64 -12.5q-20 0 -42 7t-37 30v-49q0 -28 9 -37.5t27 -9.5h82v-101h-86
q-26 0 -51 3t-44.5 18.5t-31.5 47.5t-12 89v42q-10 -14 -34 -27t-44 -13q-36 0 -66.5 12.5t-53 37.5t-35.5 61.5t-13 84.5q0 49 13 85t36 59t54.5 34t69.5 11q17 0 38 -8.5t35 -19.5v28zM452 274q29 0 46 25t17 57t-17 53.5t-46 21.5q-27 0 -45 -18.5t-18 -56.5
q0 -41 20 -61.5t43 -20.5zM220 274q23 0 42.5 20.5t19.5 61.5q0 38 -18 56.5t-44 18.5q-30 0 -47 -21.5t-17 -53.5q0 -34 17.5 -58t46.5 -24z" />
    <glyph glyph-name="uni10F7.case" horiz-adv-x="479" 
d="M189 559q0 -7 4 -17.5t14 -24.5l-74 -74q-52 51 -52 123q0 32 11.5 59t31 46.5t45 30.5t53.5 11t55.5 -8t49.5 -27t35 -49t13 -74q0 -45 -10.5 -77t-28 -56.5t-40 -43t-45.5 -35.5h1q-20 -15 -39 -30.5t-34 -33.5t-24 -40.5t-9 -51.5q0 -30 20 -52.5t67 -22.5
q35 0 55.5 17t20.5 47q0 20 -13 44t-43 54l77 69q43 -33 66 -76.5t23 -85.5q0 -49 -15 -85.5t-41 -60.5t-60 -35.5t-72 -11.5q-50 0 -86.5 16t-60.5 43.5t-36 63.5t-12 76q0 56 17 96.5t42.5 71t55.5 53.5t55.5 44.5t42.5 44t17 52.5q0 6 -2 13t-6.5 13t-12 10.5t-19.5 4.5
q-18 0 -27.5 -9.5t-9.5 -21.5z" />
    <glyph glyph-name="uni10F8.case" horiz-adv-x="478" 
d="M143 706v-83q0 -58 20.5 -80t47.5 -22q32 0 47.5 16.5t15.5 39.5q0 14 -10 38t-32 63l98 44q26 -47 40 -84t14 -69q0 -41 -14 -72.5t-38 -53.5t-55 -33t-65 -11q-19 0 -35.5 3t-33.5 12v-219q0 -83 80 -83q39 0 59.5 19t20.5 46q0 34 -65 93l74 77q101 -66 101 -178
q0 -44 -15.5 -77.5t-41.5 -56.5t-60.5 -35t-72.5 -12q-187 0 -187 208v510h107z" />
    <glyph glyph-name="uni10F9.case" 
 />
    <glyph glyph-name="uni10FA.case" 
 />
    <glyph glyph-name="uni10FB.case" horiz-adv-x="418" 
d="M211 234q0 32 22 53.5t54 21.5q31 0 53 -21.5t22 -53.5t-22 -54t-53 -22q-32 0 -54 22t-22 54zM41 63q0 32 21.5 54t53.5 22t53.5 -22t21.5 -54t-21.5 -53.5t-53.5 -21.5t-53.5 21.5t-21.5 53.5zM41 404q0 32 21.5 54t53.5 22t53.5 -22t21.5 -54q0 -31 -21.5 -53
t-53.5 -22t-53.5 22t-21.5 53z" />
    <glyph glyph-name="uni10FC.case" 
 />
    <glyph glyph-name="uni10FD.case" 
 />
    <glyph glyph-name="uni10FE.case" 
 />
    <glyph glyph-name="uni10FF.case" 
 />
    <glyph glyph-name="NULL" 
 />
    </font>
</defs>
</svg>
