<?xml version="1.0" standalone="no"?>
<!DOCTYPE svg PUBLIC "-//W3C//DTD SVG 1.1//EN" "http://www.w3.org/Graphics/SVG/1.1/DTD/svg11.dtd" >
<svg xmlns="http://www.w3.org/2000/svg" xmlns:xlink="http://www.w3.org/1999/xlink" version="1.1">
<metadata>
Created by FontForge 20170731 at Fri Apr 27 14:55:47 2018
 By Aleksey,,,
Copyright (c) 2018 by www.pharmadepot.ge. All rights reserved.
</metadata>
<defs>
<font id="PharmadepotNusL-Italic" horiz-adv-x="0" >
  <font-face 
    font-family="Pharmadepot Nus L"
    font-weight="400"
    font-style="italic"
    font-stretch="normal"
    units-per-em="1000"
    panose-1="2 0 0 0 0 0 0 0 0 0"
    ascent="800"
    descent="-200"
    x-height="520"
    cap-height="704"
    bbox="10 -300 1136 950"
    underline-thickness="50"
    underline-position="-150"
    unicode-range="U+000D-2122"
  />
<missing-glyph horiz-adv-x="442" 
d="M242 687h250l-201 -942h-250zM64 -236h212l192 904h-212zM241 -213h-134l10 46l58 34h-51l10 46h64l-62 71l97 74l62 -73l-92 -72h65l-10 -47l-64 -32h57zM424 647l-10 -46h-47l-5 -24h47l-10 -47h-134l10 47h43l5 24h-82l49 46h134zM267 140h-32l15 70h11
q32 0 46.5 -14.5t14.5 -36.5q0 -17 -7 -31.5t-18.5 -25.5t-27 -17.5t-32.5 -6.5q-28 0 -43.5 14t-15.5 37q0 25 14.5 44t36.5 30l8 -41q-15 -9 -15 -21q0 -14 25 -14q11 0 21 4.5t10 18.5q0 8 -6 10zM375 415h-134l11 53q12 55 61 55q36 0 36 -30v-9t-2 -10l-11 -11h49z
M355 324h-58l-84 -41l11 53l33 12l-28 12l11 53l68 -41h58zM334 225h-134l10 47h88l9 42h46zM229 -38l9 39h-41l-9 -39h41zM290 463h18l1 4v3q0 8 -6 8q-11 0 -12 -11z" />
    <glyph glyph-name=".notdef" horiz-adv-x="442" 
d="M242 687h250l-201 -942h-250zM64 -236h212l192 904h-212zM241 -213h-134l10 46l58 34h-51l10 46h64l-62 71l97 74l62 -73l-92 -72h65l-10 -47l-64 -32h57zM424 647l-10 -46h-47l-5 -24h47l-10 -47h-134l10 47h43l5 24h-82l49 46h134zM267 140h-32l15 70h11
q32 0 46.5 -14.5t14.5 -36.5q0 -17 -7 -31.5t-18.5 -25.5t-27 -17.5t-32.5 -6.5q-28 0 -43.5 14t-15.5 37q0 25 14.5 44t36.5 30l8 -41q-15 -9 -15 -21q0 -14 25 -14q11 0 21 4.5t10 18.5q0 8 -6 10zM375 415h-134l11 53q12 55 61 55q36 0 36 -30v-9t-2 -10l-11 -11h49z
M355 324h-58l-84 -41l11 53l33 12l-28 12l11 53l68 -41h58zM334 225h-134l10 47h88l9 42h46zM229 -38l9 39h-41l-9 -39h41zM290 463h18l1 4v3q0 8 -6 8q-11 0 -12 -11z" />
    <glyph glyph-name=".null" 
 />
    <glyph glyph-name="nonmarkingreturn" unicode="&#xd;" 
 />
    <glyph glyph-name="NULL" 
 />
    <glyph glyph-name="NULL" 
 />
    <glyph glyph-name="space" unicode=" " horiz-adv-x="410" 
 />
    <glyph glyph-name="exclam" unicode="!" horiz-adv-x="214" 
d="M180 200h-72l109 512h83zM64 0l17 84h86l-17 -84h-86z" />
    <glyph glyph-name="quotedbl" unicode="&#x22;" horiz-adv-x="375" 
d="M347 542l36 170h79l-36 -170h-79zM179 542l36 170h79l-36 -170h-79z" />
    <glyph glyph-name="numbersign" unicode="#" horiz-adv-x="653" 
d="M584 432l-53 -141h89l-13 -64h-99l-84 -227h-74l84 227h-160l-83 -227h-74l84 227h-89l13 64h100l53 141h-92l14 66h101l80 215h75l-81 -215h159l80 215h73l-80 -215h87l-14 -66h-96zM351 432l-53 -141h159l53 141h-159z" />
    <glyph glyph-name="dollar" unicode="$" horiz-adv-x="626" 
d="M603 196q-9 -44 -32 -79t-57 -61t-77.5 -41.5t-93.5 -18.5l-24 -110h-60l23 108q-70 3 -116.5 25t-83.5 69l63 52q32 -40 68.5 -57.5t87.5 -19.5l56 265l-19 2q-75 8 -113 45.5t-38 97.5q0 51 19.5 94t53 75t79 51.5t97.5 23.5l19 89h60l-19 -89q57 -3 96.5 -21.5
t73.5 -55.5l-60 -49q-23 26 -52.5 41.5t-74.5 18.5l-55 -259l30 -5q83 -14 119 -50t36 -91q0 -23 -6 -50zM527 194q3 18 3 32q0 27 -11 44t-28.5 27t-39 15t-42.5 8l-55 -257q69 5 114.5 39t58.5 92zM426 651q-34 -3 -63.5 -16t-51 -33.5t-34 -48.5t-12.5 -61
q0 -24 9.5 -40.5t24.5 -27t34 -16.5t39 -9z" />
    <glyph glyph-name="percent" unicode="%" horiz-adv-x="752" 
d="M707 128q-7 -31 -22.5 -56t-37.5 -42.5t-48.5 -27t-55.5 -9.5t-52 9.5t-37 27t-19 42.5t2 56l22 105q13 62 59 98.5t105 36.5q58 0 88.5 -36.5t17.5 -98.5zM443 479q-6 -30 -21.5 -55t-37.5 -42.5t-48.5 -27t-55.5 -9.5q-59 0 -89.5 36.5t-17.5 97.5l23 105
q13 62 58.5 98.5t104.5 36.5q58 0 89 -36.5t18 -98.5zM239 0h-60l485 712h60zM672 231q8 40 -5.5 63.5t-54.5 23.5q-42 0 -65 -23t-31 -64l-22 -101q-8 -41 5 -64t55 -23q41 0 64.5 23.5t31.5 63.5zM408 582q8 40 -5 63.5t-54 23.5q-42 0 -65 -23t-32 -64l-21 -101
q-9 -41 4.5 -63.5t54.5 -22.5t64.5 23t32.5 63z" />
    <glyph glyph-name="ampersand" unicode="&#x26;" horiz-adv-x="722" 
d="M563 0l-48 78q-13 -10 -34.5 -24.5t-50 -27.5t-64.5 -22.5t-79 -9.5q-90 0 -138.5 42.5t-48.5 114.5q0 52 18 91.5t47 70.5t65.5 55t74.5 46q-17 26 -32 56.5t-15 68.5q0 37 16 69.5t43 57t61.5 38.5t71.5 14q58 0 92 -33t34 -84q0 -40 -13 -67.5t-36 -48.5t-53.5 -39.5
t-66.5 -40.5l135 -219q14 16 25 32.5t20 35.5t16 42t14 53h72q-15 -68 -42 -122t-71 -96l82 -131h-95zM337 366q-29 -18 -57.5 -36.5t-51.5 -41t-37 -51.5t-14 -68q0 -50 33 -79t90 -29q40 0 84 14t99 55zM502 568q1 5 1.5 9.5t0.5 9.5q0 29 -18.5 47.5t-49.5 18.5
q-20 0 -38 -8t-32 -21.5t-22.5 -32t-8.5 -39.5q0 -20 9.5 -42t31.5 -57q22 13 42.5 24.5t38 25t29.5 29t16 36.5z" />
    <glyph glyph-name="quotesingle" unicode="'" horiz-adv-x="207" 
d="M185 542l36 170h67l-36 -170h-67z" />
    <glyph glyph-name="parenleft" unicode="(" horiz-adv-x="270" 
d="M137 -94q-13 16 -24 31t-19.5 30t-13 32t-4.5 37q0 14 2.5 29t5.5 30l111 522q6 28 16.5 52t26 46.5t38 44.5t52.5 46l38 -49q-18 -15 -34 -29t-29 -30t-22.5 -37t-15.5 -50l-108 -510q-6 -27 -6 -47q0 -34 13 -54.5t32 -44.5z" />
    <glyph glyph-name="parenright" unicode=")" horiz-adv-x="271" 
d="M227 95q-6 -26 -15 -52t-27 -51q-19 -25 -40 -43.5t-50 -42.5l-41 51q19 15 34.5 28.5t28 29t22 36t15.5 50.5l108 510q6 28 6 48q0 33 -13 52.5t-31 43.5l62 51q12 -16 23 -30t19.5 -29t13 -31t4.5 -36q0 -16 -2.5 -31.5t-5.5 -31.5z" />
    <glyph glyph-name="asterisk" unicode="*" horiz-adv-x="468" 
d="M465 423l-97 71l-30 -137h-54l30 137l-132 -71l-18 49l134 65l-106 66l39 48l97 -71l29 137h54l-29 -137l132 71l18 -48l-134 -66l106 -65z" />
    <glyph glyph-name="plus" unicode="+" horiz-adv-x="546" 
d="M373 313l-37 -176h-67l37 176h-176l14 67h176l37 174h67l-37 -174h175l-14 -67h-175z" />
    <glyph glyph-name="comma" unicode="," horiz-adv-x="234" 
d="M72 39q5 22 23.5 37.5t40.5 15.5q19 0 31 -12.5t12 -30.5q0 -7 -1 -10l-67 -158h-43l46 105q-20 0 -31.5 12t-11.5 30q0 7 1 11z" />
    <glyph glyph-name="hyphen" unicode="-" horiz-adv-x="402" 
d="M114 236l14 67h274l-14 -67h-274z" />
    <glyph glyph-name="period" unicode="." horiz-adv-x="222" 
d="M72 40q5 22 23.5 37.5t40.5 15.5q19 0 31 -12.5t12 -30.5q0 -25 -20.5 -44t-44.5 -19q-20 0 -31.5 12t-11.5 30q0 7 1 11z" />
    <glyph glyph-name="slash" unicode="/" horiz-adv-x="484" 
d="M101 -156h-71l468 860h71z" />
    <glyph glyph-name="zero" unicode="0" horiz-adv-x="550" 
d="M524 183q-9 -44 -34 -80.5t-59.5 -62t-75.5 -39.5t-83 -14q-37 0 -69 11t-55.5 31t-37 48.5t-13.5 64.5q0 18 5 41l71 333q9 44 34.5 80.5t60 62t75.5 39.5t83 14q36 0 68 -11t55 -31t36.5 -48.5t13.5 -64.5q0 -22 -4 -41zM522 512q3 15 3 30q0 48 -31 77t-82 29
q-30 0 -57.5 -10.5t-50 -28.5t-38.5 -43t-22 -54l-69 -325q-3 -15 -3 -30q0 -47 30.5 -76.5t82.5 -29.5q30 0 57.5 10.5t50 28.5t38.5 43t22 54z" />
    <glyph glyph-name="one" unicode="1" horiz-adv-x="309" 
d="M165 0l132 624l-158 -117l18 82l157 115h72l-149 -704h-72z" />
    <glyph glyph-name="two" unicode="2" horiz-adv-x="520" 
d="M64 0l13 64l356 357q32 33 49 66.5t17 74.5q0 42 -25.5 67t-74.5 25q-25 0 -49 -7t-44.5 -23t-36 -40.5t-22.5 -58.5l-12 -56h-72l12 56q9 42 30.5 77.5t52.5 61t70 40t84 14.5q75 0 117.5 -38.5t42.5 -105.5q0 -59 -23.5 -103t-68.5 -89l-317 -318h306l-13 -64h-392z
" />
    <glyph glyph-name="three" unicode="3" horiz-adv-x="530" 
d="M507 194q-11 -49 -35 -86.5t-58 -63t-75 -38.5t-84 -13q-38 0 -69.5 9t-54.5 27t-36 46t-13 66q0 9 1 19t3 21h72q-1 -7 -1.5 -13t-0.5 -12q0 -27 9 -45.5t24.5 -30.5t36 -17.5t43.5 -5.5q33 0 63.5 12.5t54.5 35.5t38.5 57t14.5 76q0 46 -27.5 72.5t-87.5 26.5h-31
l14 64h31q70 0 113.5 41.5t43.5 117.5q0 47 -27.5 71t-72.5 24q-57 0 -97 -32t-57 -87h-72q12 43 36 77t55.5 57.5t69 36t78.5 12.5q75 0 117.5 -39.5t42.5 -105.5q0 -75 -36 -126t-97 -76q77 -32 77 -123q0 -25 -6 -55z" />
    <glyph glyph-name="four" unicode="4" horiz-adv-x="554" 
d="M446 161l-34 -161h-72l34 161h-292l16 75l352 468h82l-360 -479h215l43 203h72l-43 -203h94l-13 -64h-94z" />
    <glyph glyph-name="five" unicode="5" horiz-adv-x="552" 
d="M538 238q-9 -42 -28.5 -86.5t-52 -81t-79 -60t-109.5 -23.5q-86 0 -129 43.5t-43 109.5q0 7 0.5 13.5t1.5 14.5h72q-1 -5 -1 -13q0 -48 29.5 -76t82.5 -28q56 0 93 29t58.5 68.5t30 81t8.5 65.5q0 33 -9.5 57.5t-25 40t-36.5 23t-43 7.5q-41 0 -76 -22t-58 -63h-72
l78 366h360l-13 -64h-288l-47 -218q68 65 145 65q31 0 60 -9.5t51 -30t35.5 -52.5t13.5 -78q0 -36 -9 -79z" />
    <glyph glyph-name="six" unicode="6" horiz-adv-x="534" 
d="M475 704l-182 -276q19 11 42.5 14t40.5 3q36 0 66.5 -10.5t53 -30.5t35 -48t12.5 -63q0 -19 -5 -44l-14 -66q-9 -44 -34 -80.5t-59.5 -62t-75 -39.5t-82.5 -14q-37 0 -69 11t-56 31t-37.5 48.5t-13.5 64.5q0 18 5 41l14 66q1 5 5.5 17t11.5 27t15.5 30.5t17.5 29.5
l230 351h79zM466 245q3 15 3 29q0 48 -30.5 77.5t-82.5 29.5q-30 0 -57.5 -10.5t-50 -28.5t-38.5 -43t-22 -54l-13 -58q-3 -15 -3 -29q0 -48 31 -77.5t83 -29.5q30 0 57.5 10.5t49.5 28.5t37.5 43t22.5 54z" />
    <glyph glyph-name="seven" unicode="7" horiz-adv-x="491" 
d="M196 0h-76l383 640h-248l-24 -112h-71l37 176h395l-13 -64z" />
    <glyph glyph-name="eight" unicode="8" horiz-adv-x="548" 
d="M525 196q-9 -45 -33.5 -83.5t-58.5 -66t-76 -43.5t-86 -16q-39 0 -70.5 12t-54 33.5t-34.5 51.5t-12 66q0 40 12.5 74t33 61t47.5 48t56 36q-30 20 -47.5 47t-17.5 66q0 49 20.5 91t54 73t77 48.5t89.5 17.5q36 0 65.5 -10.5t50.5 -30t32.5 -46.5t11.5 -60q0 -37 -10 -67
t-27.5 -54t-41 -42.5t-50.5 -32.5q32 -21 53 -53t21 -77q0 -11 -1.5 -21.5t-3.5 -21.5zM453 197q3 16 3 31q0 48 -30 78t-81 30q-33 0 -63.5 -13.5t-54.5 -36.5t-38.5 -54t-14.5 -66q0 -49 29.5 -82t80.5 -33q29 0 57 11.5t51 31.5t39 46.5t22 56.5zM508 520q3 16 3 31
q0 44 -26.5 70.5t-73.5 26.5q-30 0 -58 -12.5t-49.5 -34t-34.5 -50.5t-13 -62q0 -43 27 -66.5t75 -23.5q55 0 96.5 32t53.5 89z" />
    <glyph glyph-name="nine" unicode="9" horiz-adv-x="550" 
d="M221 0l183 270q-19 -11 -42.5 -14t-40.5 -3q-36 0 -67 10.5t-53 30.5t-34.5 48t-12.5 63q0 19 5 44l14 66q9 44 34 80.5t59.5 62t75.5 39.5t83 14q37 0 68.5 -11t55 -31t37 -48.5t13.5 -64.5q0 -22 -4 -41l-14 -66q-1 -5 -5.5 -17t-11.5 -27t-15 -31t-17 -29l-232 -345
h-79zM232 453q-2 -8 -3 -15.5t-1 -15.5q0 -47 31 -76t82 -29q29 0 57 10.5t51 28.5t39 43t22 54l12 58q3 15 3 30q0 47 -31.5 76.5t-82.5 29.5q-29 0 -56.5 -10.5t-50 -28.5t-38.5 -43t-22 -54z" />
    <glyph glyph-name="colon" unicode=":" horiz-adv-x="222" 
d="M81 84q5 22 24 37.5t41 15.5q19 0 30.5 -12t11.5 -29q0 -26 -20 -45.5t-45 -19.5q-20 0 -31.5 12t-11.5 30q0 7 1 11zM145 384q5 22 23.5 37.5t40.5 15.5q19 0 31 -12.5t12 -30.5q0 -25 -20.5 -44t-44.5 -19q-20 0 -31.5 12t-11.5 30q0 7 1 11z" />
    <glyph glyph-name="semicolon" unicode=";" horiz-adv-x="222" 
d="M72 39q5 22 23.5 37.5t40.5 15.5q19 0 31 -12.5t12 -30.5q0 -7 -1 -10l-67 -158h-43l46 105q-20 0 -31.5 12t-11.5 30q0 7 1 11zM145 384q5 22 23.5 37.5t40.5 15.5q19 0 31 -12.5t12 -30.5q0 -25 -20.5 -44t-44.5 -19q-20 0 -31.5 12t-11.5 30q0 7 1 11z" />
    <glyph glyph-name="less" unicode="&#x3c;" horiz-adv-x="459" 
d="M114 236l14 66l366 168l-16 -77l-276 -124l223 -124l-16 -77z" />
    <glyph glyph-name="equal" unicode="=" horiz-adv-x="546" 
d="M146 390l15 67h418l-15 -67h-418zM110 221l15 66h418l-15 -66h-418z" />
    <glyph glyph-name="greater" unicode="&#x3e;" horiz-adv-x="459" 
d="M78 68l16 77l277 124l-224 124l16 77l296 -168l-14 -66z" />
    <glyph glyph-name="question" unicode="?" horiz-adv-x="503" 
d="M552 536q-8 -35 -26 -63.5t-44 -57.5l-107 -118q-12 -14 -20.5 -30t-10.5 -28l-8 -39h-72l9 40q7 29 18 50t32 44l106 117q23 26 38.5 51t15.5 63q0 39 -24.5 64t-67.5 25q-27 0 -50.5 -9.5t-42 -26t-31.5 -38t-18 -45.5h-72q8 38 29.5 71.5t52 58t67.5 39t78 14.5
q69 0 110.5 -38.5t41.5 -102.5q0 -22 -4 -41zM215 0l17 84h86l-17 -84h-86z" />
    <glyph glyph-name="at" unicode="@" horiz-adv-x="697" 
d="M564 0l11 55q-32 -32 -66.5 -47t-80.5 -15q-68 0 -104 34t-36 111q0 43 12 100q28 130 84.5 187.5t146.5 57.5q44 0 73 -15.5t48 -47.5l16 78q2 12 3.5 23t1.5 22q0 53 -31.5 81t-90.5 28h-130q-68 0 -117 -39t-65 -115l-71 -337q-3 -15 -5 -27t-2 -23q0 -22 9 -38
t29 -33l-59 -49q-27 23 -39 45t-12 54q0 28 9 70l71 336q21 101 88 159t168 58h148q83 0 127.5 -41t44.5 -115q0 -30 -7 -61l-106 -497zM613 238q5 22 8 43.5t3 41.5q0 42 -19.5 70t-73.5 28q-39 0 -66.5 -15.5t-45.5 -41t-29.5 -58.5t-18.5 -68q-5 -23 -8 -44t-3 -41
q0 -42 19.5 -70t73.5 -28q39 0 66.5 15.5t45.5 41t29 58.5t19 68z" />
    <glyph glyph-name="A" unicode="A" horiz-adv-x="645" 
d="M453 621l-183 -328h229zM233 225l-126 -225h-71l396 704h79l98 -704h-72l-30 225h-274z" />
    <glyph glyph-name="B" unicode="B" horiz-adv-x="632" 
d="M272 640l-50 -235h207q34 0 63 11t50 30.5t33 45.5t12 56q0 42 -28.5 67t-79.5 25h-207zM207 336l-58 -272h226q36 0 66.5 14.5t52.5 37.5t34.5 53t12.5 60q0 48 -33.5 77.5t-92.5 29.5h-208zM213 704h283q77 0 120 -40t43 -103q0 -30 -9 -59t-25.5 -54.5t-39.5 -45
t-50 -30.5q37 -14 58 -49t21 -83q0 -52 -20.5 -96t-54.5 -76t-79.5 -50t-94.5 -18h-301z" />
    <glyph glyph-name="C" unicode="C" horiz-adv-x="715" 
d="M361 -13q-113 0 -174 68.5t-61 186.5q0 102 31.5 188t85 148.5t124 98t148.5 35.5q195 0 231 -203l-67 -29q-15 83 -57.5 125.5t-120.5 42.5q-62 0 -117 -31t-96 -84.5t-65 -124.5t-24 -152q0 -45 11 -83t33 -65t54.5 -42t76.5 -15q39 0 75.5 12t68 33.5t57.5 52t44 67.5
l56 -28q-61 -105 -138.5 -153t-175.5 -48z" />
    <glyph glyph-name="D" unicode="D" horiz-adv-x="659" 
d="M444 704q56 0 101.5 -19t77 -53.5t48.5 -82.5t17 -106q0 -93 -33.5 -173.5t-88.5 -140.5t-125.5 -94.5t-145.5 -34.5h-231l149 704h231zM606 352q5 20 6.5 39t1.5 38q0 45 -12.5 84t-36 67t-57.5 44t-77 16h-159l-123 -576h159q53 0 101.5 23t88 62t68 91.5t40.5 111.5z
" />
    <glyph glyph-name="E" unicode="E" horiz-adv-x="527" 
d="M640 704l-13 -64h-355l-51 -240h303l-14 -64h-303l-58 -272h355l-13 -64h-427l149 704h427z" />
    <glyph glyph-name="F" unicode="F" horiz-adv-x="515" 
d="M640 704l-13 -64h-355l-51 -240h303l-14 -64h-303l-71 -336h-72l149 704h427z" />
    <glyph glyph-name="G" unicode="G" horiz-adv-x="696" 
d="M470 363h247l-77 -363h-43v91l-2 -1q-100 -103 -242 -103q-113 0 -174 68.5t-61 186.5q0 102 31.5 188t85 148.5t124 98t148.5 35.5q191 0 230 -194l-67 -32q-16 80 -57.5 121t-119.5 41q-62 0 -117 -31t-96 -84.5t-65 -124.5t-24 -152q0 -45 11 -83t33 -65t54.5 -42
t76.5 -15q59 0 104.5 19t78.5 52t55 78.5t35 98.5h-208z" />
    <glyph glyph-name="H" unicode="H" horiz-adv-x="617" 
d="M293 704l-64 -304h329l64 304h72l-149 -704h-72l71 336h-329l-71 -336h-72l149 704h72z" />
    <glyph glyph-name="I" unicode="I" horiz-adv-x="216" 
d="M293 704l-149 -704h-72l149 704h72z" />
    <glyph glyph-name="J" unicode="J" horiz-adv-x="521" 
d="M250 -13q-77 0 -113.5 36t-36.5 109q0 14 1.5 28t3.5 31l78 32l-2 -9q-4 -18 -6 -34t-2 -31q0 -45 21 -71.5t69 -26.5q63 0 103.5 45.5t55.5 117.5l104 490h72l-103 -486q-24 -113 -85 -172t-160 -59z" />
    <glyph glyph-name="K" unicode="K" horiz-adv-x="619" 
d="M213 704h72l-62 -293l382 293h110l-340 -250l220 -454h-87l-198 406l-106 -84l-68 -322h-72z" />
    <glyph glyph-name="L" unicode="L" horiz-adv-x="451" 
d="M285 704l-136 -640h275l-13 -64h-347l149 704h72z" />
    <glyph glyph-name="M" unicode="M" horiz-adv-x="787" 
d="M406 80l370 624h88l-149 -704h-72l105 494l29 78l-349 -572h-77l-96 572l-6 -76l-105 -496h-72l149 704h79z" />
    <glyph glyph-name="N" unicode="N" horiz-adv-x="649" 
d="M308 704l225 -613v42l121 571h72l-149 -704h-93l-219 613v-42l-121 -571h-72l149 704h87z" />
    <glyph glyph-name="O" unicode="O" horiz-adv-x="738" 
d="M379 51q63 0 118.5 32.5t97.5 86.5t66.5 125t24.5 148q0 46 -11.5 83.5t-34 64.5t-56.5 42t-78 15q-62 0 -117.5 -30.5t-97.5 -83t-66.5 -123t-24.5 -151.5q0 -47 11.5 -85t34 -66t56 -43t77.5 -15zM138 352q18 82 54 148.5t86.5 113.5t112 72.5t129.5 25.5
q115 0 177.5 -68t62.5 -185q0 -50 -12 -107q-18 -83 -54 -150.5t-86.5 -115t-112 -73.5t-129.5 -26q-57 0 -102 18t-75.5 51.5t-46.5 81t-16 106.5q0 49 12 108z" />
    <glyph glyph-name="P" unicode="P" horiz-adv-x="545" 
d="M447 704q36 0 66 -13t51 -35t32.5 -51t11.5 -62q0 -44 -21 -87t-55.5 -77t-78.5 -54.5t-91 -20.5h-162l-64 -304h-72l149 704h234zM214 368h162q32 0 61 14.5t50.5 38t34.5 53t13 58.5q0 21 -7 40.5t-19.5 34.5t-31.5 24t-43 9h-162z" />
    <glyph glyph-name="Q" unicode="Q" horiz-adv-x="731" 
d="M512 204l57 -62q53 62 84.5 140.5t31.5 162.5q0 94 -48.5 148.5t-135.5 54.5q-63 0 -118 -31t-95.5 -84t-64 -125t-23.5 -153q0 -97 44.5 -150.5t124.5 -53.5q38 0 74 11t71 36l-73 79zM140 358q16 79 51.5 144.5t84.5 112t110 72t129 25.5q57 0 102.5 -18.5t76.5 -52
t47.5 -81t16.5 -105.5q0 -51 -12 -100.5t-32 -96t-47 -87.5t-57 -74l63 -66l-53 -47l-61 68q-48 -33 -99.5 -49t-103.5 -16q-108 0 -168.5 68.5t-60.5 188.5q0 55 13 114z" />
    <glyph glyph-name="R" unicode="R" horiz-adv-x="592" 
d="M556 0h-74l-119 336h-156l-71 -336h-72l149 704h249q79 0 128 -39.5t49 -106.5q0 -33 -14.5 -68.5t-40.5 -66.5t-64 -53t-84 -28zM221 400h177q40 0 71.5 13t53 33.5t32.5 46.5t11 52q0 42 -30 68.5t-87 26.5h-177z" />
    <glyph glyph-name="S" unicode="S" horiz-adv-x="621" 
d="M459 712q39 0 74.5 -10t62.5 -30.5t43.5 -51.5t16.5 -73q0 -7 -0.5 -14t-1.5 -15l-71 -37l3 14q3 13 3 27q0 26 -10.5 49t-29.5 40t-46 27t-60 10q-34 0 -66.5 -8.5t-58 -26.5t-41 -44.5t-15.5 -62.5q0 -38 25 -60.5t63 -37.5t81.5 -27t81.5 -29.5t63 -45.5t25 -74
q0 -21 -4 -40q-21 -101 -93.5 -153t-193.5 -52q-105 0 -155 40t-50 133v14l76 39q-6 -27 -6 -50q0 -112 148 -112q47 0 85 13.5t64.5 36t40.5 51.5t14 59q0 37 -25 58t-63 35t-82 25.5t-82 29.5t-63 48t-25 81q0 55 24 97t63 70t87.5 42.5t97.5 14.5z" />
    <glyph glyph-name="T" unicode="T" horiz-adv-x="575" 
d="M676 704l-13 -64h-199l-136 -640h-72l136 640h-208l13 64h479z" />
    <glyph glyph-name="U" unicode="U" horiz-adv-x="633" 
d="M285 704l-95 -448q-3 -16 -5 -30.5t-2 -28.5q0 -66 35.5 -106t103.5 -40q39 0 76 15t68 42.5t53 65t32 82.5l95 448h72l-96 -450q-13 -62 -43 -111t-71.5 -84t-92.5 -53.5t-106 -18.5q-94 0 -147 51t-53 142q0 17 1.5 35.5t6.5 38.5l96 450h72z" />
    <glyph glyph-name="V" unicode="V" horiz-adv-x="644" 
d="M256 704l83 -622l347 622h71l-395 -704h-79l-98 704h71z" />
    <glyph glyph-name="W" unicode="W" horiz-adv-x="884" 
d="M651 98l279 606h67l-324 -704h-103v599l-278 -599h-107v704h88v-607l279 607h99v-606z" />
    <glyph glyph-name="X" unicode="X" horiz-adv-x="648" 
d="M667 704h77l-305 -339l173 -365h-76l-147 309l-276 -309h-77l328 365l-161 339h76l134 -285z" />
    <glyph glyph-name="Y" unicode="Y" horiz-adv-x="631" 
d="M339 260l-154 444h75l124 -383l285 383h75l-333 -444l-55 -260h-72z" />
    <glyph glyph-name="Z" unicode="Z" horiz-adv-x="609" 
d="M694 704l-14 -65l-536 -575h430l-13 -64h-513l13 65l536 575h-395l13 64h479z" />
    <glyph glyph-name="bracketleft" unicode="[" horiz-adv-x="322" 
d="M407 704l-13 -64h-114l-159 -745h114l-13 -64h-186l185 873h186z" />
    <glyph glyph-name="backslash" unicode="\" horiz-adv-x="510" 
d="M281 704l199 -865h-64l-203 865h68z" />
    <glyph glyph-name="bracketright" unicode="]" horiz-adv-x="322" 
d="M28 -169l13 64h114l159 745h-114l13 64h186l-185 -873h-186z" />
    <glyph glyph-name="asciicircum" unicode="^" horiz-adv-x="563" 
d="M451 704l89 -278h-71l-58 181l-137 -181h-71l208 278h40z" />
    <glyph glyph-name="underscore" unicode="_" horiz-adv-x="625" 
d="M550 -48l-13 -64h-497l13 64h497z" />
    <glyph glyph-name="grave" unicode="`" horiz-adv-x="302" 
d="M218 728h84l58 -154h-83z" />
    <glyph glyph-name="a" unicode="a" horiz-adv-x="596" 
d="M385 469q-72 0 -116 -28t-58 -86l-68 27q13 34 38 62t58.5 48t74 30.5t84.5 10.5q91 0 135.5 -33.5t44.5 -96.5q0 -11 -1.5 -21.5t-3.5 -22.5l-48 -227q-6 -27 -6 -41q0 -18 10 -22.5t33 -4.5l-13 -64h-23q-39 0 -58.5 16.5t-20.5 44.5q-17 -17 -40.5 -30.5t-51.5 -23.5
t-58 -15t-59 -5q-75 0 -119 31.5t-44 93.5q0 23 10 51t32 53.5t57.5 45t86.5 27.5q55 8 101 15.5t78.5 19t50.5 28.5t18 44q0 31 -32 52t-92 21zM487 286q-21 -19 -57.5 -30.5t-74.5 -19t-72 -12.5t-50 -10q-42 -14 -65 -38.5t-23 -55.5q0 -34 29.5 -51.5t77.5 -17.5
q33 0 68 7.5t65 23t51.5 40t28.5 58.5z" />
    <glyph glyph-name="b" unicode="b" horiz-adv-x="546" 
d="M278 704l-56 -262h5q32 45 78.5 68t92.5 23q38 0 68.5 -13.5t52 -38.5t33 -60t11.5 -78q0 -37 -9 -77q-14 -65 -41.5 -116.5t-64.5 -87.5t-80.5 -55.5t-89.5 -19.5t-83 19t-54 54l-28 -60h-57l149 704h73zM377 469q-39 0 -75.5 -24t-64.5 -63.5t-44.5 -89t-16.5 -100.5
q0 -63 29 -102t83 -39q40 0 76 22.5t63.5 60.5t43.5 87.5t16 103.5q0 63 -28 103.5t-82 40.5z" />
    <glyph glyph-name="c" unicode="c" horiz-adv-x="516" 
d="M392 533q35 0 66 -10t54 -29t36 -47t13 -64l-69 -29q0 51 -31.5 83t-82.5 32q-45 0 -84 -24t-67.5 -63.5t-44.5 -89.5t-16 -102q0 -63 30.5 -101t92.5 -38q51 0 93.5 26.5t70.5 81.5l50 -32q-17 -34 -42 -60t-55 -44t-63.5 -27t-66.5 -9q-44 0 -78.5 14t-57.5 39.5
t-35 61.5t-12 79q0 73 25 137.5t66.5 112t95.5 75t112 27.5z" />
    <glyph glyph-name="d" unicode="d" horiz-adv-x="546" 
d="M639 704l-149 -704h-57l-4 60q-32 -35 -76.5 -54t-90.5 -19q-76 0 -122 51t-46 142q0 76 24 140.5t63.5 111.5t89.5 74t103 27q46 0 82 -23t49 -68h5l56 262h73zM367 469q-39 0 -75 -23t-63.5 -61t-44.5 -88t-17 -105q0 -62 28.5 -101.5t82.5 -39.5q38 0 74 21.5t64 58
t45 85.5t17 105q0 63 -28.5 105.5t-82.5 42.5z" />
    <glyph glyph-name="e" unicode="e" horiz-adv-x="547" 
d="M170 232q-3 -21 -3 -39q0 -68 31.5 -105t84.5 -37q43 0 89 22.5t77 70.5l55 -31q-43 -57 -102 -91.5t-122 -34.5q-41 0 -75 14t-58.5 40t-38 63t-13.5 83q0 17 1.5 35t6.5 38q27 128 101.5 200.5t184.5 72.5q81 0 127 -52.5t46 -142.5q0 -18 -1.5 -37.5t-6.5 -40.5
l-6 -28h-378zM372 469q-29 0 -59 -12t-55.5 -34.5t-45 -54.5t-28.5 -72h303q2 12 3.5 23t1.5 22q0 30 -9.5 54t-26 40.5t-38.5 25t-46 8.5z" />
    <glyph glyph-name="f" unicode="f" horiz-adv-x="291" 
d="M198 520l9 43q14 65 51 101t101 36h44l-14 -67h-39q-27 0 -46.5 -23.5t-28.5 -65.5l-5 -24h95l-14 -64h-95l-96 -456h-72l96 456h-52l14 64h52z" />
    <glyph glyph-name="g" unicode="g" horiz-adv-x="546" 
d="M600 520l-122 -573q-8 -38 -30 -69.5t-55 -54t-74.5 -35.5t-88.5 -13q-77 0 -125.5 32.5t-53.5 92.5l73 38q1 -48 33.5 -73.5t86.5 -25.5q67 0 110.5 33.5t55.5 93.5l19 94q-32 -35 -76.5 -54t-90.5 -19q-76 0 -122 51t-46 142q0 76 24 140.5t63.5 111.5t89.5 74t103 27
q46 0 82 -23t49 -68h5l17 78h73zM367 469q-39 0 -75 -23t-63.5 -61t-44.5 -88t-17 -105q0 -62 28.5 -101.5t82.5 -39.5q38 0 74 21.5t64 58t45 85.5t17 105q0 63 -28.5 105.5t-82.5 42.5z" />
    <glyph glyph-name="h" unicode="h" horiz-adv-x="537" 
d="M269 704l-53 -252h6q32 36 75 58.5t94 22.5q37 0 67 -12t51.5 -33t33 -51t11.5 -66q0 -11 -1 -23.5t-4 -25.5l-68 -322h-72l64 303q5 25 5 44q0 56 -32 89t-86 33q-33 0 -62 -12.5t-52 -34.5t-39 -52.5t-23 -66.5l-64 -303h-72l149 704h72z" />
    <glyph glyph-name="i" unicode="i" horiz-adv-x="184" 
d="M238 520l-110 -520h-72l110 520h72zM192 644h72l-14 -68h-72z" />
    <glyph glyph-name="j" unicode="j" horiz-adv-x="297" 
d="M359 520l-129 -608q-14 -64 -58 -100.5t-105 -36.5h-42l-12 64h62q20 0 34 4t24 16t17.5 33.5t15.5 56.5l121 571h72zM386 648l-15 -72h-72l15 72h72z" />
    <glyph glyph-name="k" unicode="k" horiz-adv-x="519" 
d="M276 699l-85 -401l284 222h95l-269 -206l170 -314h-83l-145 268l-72 -61l-43 -207h-72l148 699h72z" />
    <glyph glyph-name="l" unicode="l" horiz-adv-x="184" 
d="M276 699l-148 -699h-72l148 699h72z" />
    <glyph glyph-name="m" unicode="m" horiz-adv-x="778" 
d="M128 0h-72l110 520h72l-12 -56q29 35 67 52t77 17q46 0 79 -24t41 -72q32 45 78 70.5t94 25.5q63 0 99 -41t36 -108q0 -26 -6 -56l-69 -328h-72l69 329q5 25 5 41q0 48 -25.5 73.5t-63.5 25.5q-50 0 -86.5 -37t-50.5 -103l-69 -329h-72l69 329q5 25 5 42q0 48 -25 73
t-64 25q-24 0 -47 -9t-42.5 -27t-34 -44t-21.5 -60z" />
    <glyph glyph-name="n" unicode="n" horiz-adv-x="537" 
d="M230 520l-15 -73q32 41 81 63.5t103 22.5q75 0 119.5 -43t44.5 -114q0 -12 -1.5 -24t-3.5 -25l-69 -327h-72l65 308q2 11 3.5 21.5t1.5 21.5q0 56 -32.5 87t-86.5 31q-33 0 -63 -11.5t-54 -33t-41.5 -51t-24.5 -65.5l-65 -308h-72l110 520h72z" />
    <glyph glyph-name="o" unicode="o" horiz-adv-x="547" 
d="M383 533q40 0 73 -13.5t56.5 -39t36.5 -62t13 -82.5q0 -80 -25.5 -144t-67 -110t-94.5 -70.5t-108 -24.5q-83 0 -128.5 49t-45.5 138q0 79 25 145.5t65.5 113.5t92.5 73.5t107 26.5zM481 257q8 40 8 71q0 66 -30.5 103.5t-89.5 37.5q-45 0 -82.5 -24t-64.5 -64t-42 -92
t-15 -108q0 -62 28.5 -96t87.5 -34q37 0 69.5 15t58 42t44 65t28.5 84z" />
    <glyph glyph-name="p" unicode="p" horiz-adv-x="546" 
d="M10 -212l156 732h64l-15 -72h4q35 43 82.5 64t92.5 21q76 0 121.5 -51.5t45.5 -142.5q0 -76 -24 -140.5t-63 -111.5t-89 -73.5t-103 -26.5q-46 0 -82.5 22.5t-49.5 67.5h-5l-62 -289h-73zM288 51q39 0 75 22.5t63.5 60.5t44.5 88t17 105q0 63 -28.5 102.5t-82.5 39.5
q-38 0 -74 -21.5t-64 -58.5t-45 -86.5t-17 -104.5q0 -31 7 -58t21.5 -46.5t35 -31t47.5 -11.5z" />
    <glyph glyph-name="q" unicode="q" horiz-adv-x="546" 
d="M371 -212l62 289h-5q-32 -45 -78 -67.5t-92 -22.5q-76 0 -120.5 51t-44.5 139q0 81 26 146.5t67.5 112t92 72t99.5 25.5q45 0 83.5 -21t55.5 -64h4l15 72h64l-156 -732h-73zM278 51q39 0 75.5 24t64.5 63t44.5 88.5t16.5 100.5q0 63 -29 102.5t-83 39.5
q-39 0 -75.5 -22.5t-64 -61t-44 -88t-16.5 -103.5q0 -63 28.5 -103t82.5 -40z" />
    <glyph glyph-name="r" unicode="r" horiz-adv-x="316" 
d="M238 520l-14 -66q16 21 33.5 35.5t39 24.5t47.5 14.5t61 4.5l-14 -64q-46 0 -79.5 -9.5t-57 -30.5t-39 -54t-25.5 -80l-62 -295h-72l110 520h72z" />
    <glyph glyph-name="s" unicode="s" horiz-adv-x="510" 
d="M366 533q82 0 128 -34.5t46 -100.5v-13l-74 -26q1 5 1.5 9.5t0.5 9.5q0 22 -10.5 39.5t-27 28.5t-37.5 17t-42 6q-23 0 -46.5 -5.5t-42 -17.5t-30 -31t-11.5 -46q0 -37 36 -54.5t92 -28.5q80 -17 112 -45t32 -72q0 -43 -18 -77t-49.5 -57t-75 -35.5t-95.5 -12.5
q-37 0 -69.5 7.5t-56.5 24t-38 42.5t-14 62v10t1 10l67 22q-1 -5 -1.5 -9.5t-0.5 -9.5q0 -45 32 -70t85 -25q71 0 115.5 23t44.5 77q0 19 -11 31.5t-27.5 20.5t-36 13t-36.5 9q-40 9 -70 20t-50.5 25t-31 34t-10.5 47q0 6 2 22t9 36t21 42t38.5 40t60.5 30t88 12z" />
    <glyph glyph-name="t" unicode="t" horiz-adv-x="307" 
d="M215 520l39 184h72l-39 -184h94l-14 -64h-94l-56 -265q-6 -29 -10 -50.5t-4 -36.5q0 -21 9 -30.5t32 -9.5h40l-13 -64h-45q-49 0 -73.5 24t-24.5 69q0 10 1.5 20.5t3.5 22.5l68 320h-69l14 64h69z" />
    <glyph glyph-name="u" unicode="u" horiz-adv-x="553" 
d="M417 0l15 71q-32 -38 -82 -61t-103 -23q-72 0 -114.5 40.5t-42.5 111.5q0 23 6 52l70 329h72l-65 -307q-6 -27 -6 -49q0 -53 29 -83t83 -30q33 0 62.5 11t53.5 32t41.5 51t25.5 68l65 307h72l-110 -520h-72z" />
    <glyph glyph-name="v" unicode="v" horiz-adv-x="513" 
d="M211 520l62 -442l250 442h76l-303 -520h-79l-83 520h77z" />
    <glyph glyph-name="w" unicode="w" horiz-adv-x="751" 
d="M206 520l26 -425l211 425h86l30 -425l206 425h72l-259 -520h-78l-37 416l-212 -416h-78l-39 520h72z" />
    <glyph glyph-name="x" unicode="x" horiz-adv-x="519" 
d="M105 0h-81l252 269l-125 251h81l95 -198l179 198h81l-230 -251l138 -269h-81l-110 212z" />
    <glyph glyph-name="y" unicode="y" horiz-adv-x="512" 
d="M86 -148q20 0 40 14.5t37 36t28.5 45t15.5 41.5q2 8 3 16.5t1 18.5v8t-1 9l-76 479h76l66 -428l252 428h70l-324 -553q-23 -39 -46 -71.5t-47.5 -56.5t-51.5 -37.5t-57 -13.5h-40l14 64h40z" />
    <glyph glyph-name="z" unicode="z" horiz-adv-x="502" 
d="M564 520l-14 -64l-403 -392h320l-13 -64h-406l13 64l396 389h-297l14 67h390z" />
    <glyph glyph-name="braceleft" unicode="{" horiz-adv-x="341" 
d="M122 274q15 6 30 18.5t27 30t21 37t13 39.5l44 205q26 123 114 123h70q-32 -16 -51.5 -27t-31 -24t-17.5 -29.5t-12 -42.5l-48 -224q-11 -48 -28.5 -74.5t-52.5 -37.5q20 -9 29.5 -23t9.5 -40q0 -20 -6 -50l-47 -225q-2 -11 -3.5 -20t-1.5 -17q0 -16 4.5 -27.5t13 -20.5
t21 -17.5t27.5 -17.5h-71q-68 0 -68 71q0 20 6 49l43 206q4 16 4 36q0 32 -11 57t-31 33z" />
    <glyph glyph-name="bar" unicode="|" horiz-adv-x="200" 
d="M287 712l-151 -712h-72l151 712h72z" />
    <glyph glyph-name="braceright" unicode="}" horiz-adv-x="341" 
d="M343 262q-15 -5 -29.5 -18t-27 -30t-22 -37.5t-13.5 -40.5l-43 -206q-13 -61 -42 -90.5t-72 -29.5h-71q24 12 42.5 21.5t32.5 22.5t23 31t15 45l47 225q11 52 30 76t51 37q-39 16 -39 64q0 21 6 48l48 224q6 28 6 46q0 24 -14.5 39t-51.5 38h70q68 0 68 -75q0 -21 -6 -48
l-44 -205q-4 -15 -4 -34q0 -31 11 -56.5t32 -34.5z" />
    <glyph glyph-name="asciitilde" unicode="~" horiz-adv-x="608" 
d="M113 232q42 38 86 63t90 25q21 0 42.5 -10.5t43 -23.5t43.5 -23.5t44 -10.5q10 0 24 6.5t27.5 16.5t25.5 22t20 23l46 -40q-29 -37 -70 -65.5t-89 -28.5q-21 0 -43 10.5t-44 22.5t-44 22.5t-43 10.5q-20 0 -48.5 -17t-55.5 -49z" />
    <glyph glyph-name="exclamdown" unicode="&#xa1;" horiz-adv-x="214" 
d="M149 0h-73l108 512h62zM301 712l-18 -84h-86l18 84h86z" />
    <glyph glyph-name="cent" unicode="&#xa2;" horiz-adv-x="548" 
d="M457 626l-20 -95q30 -4 55.5 -15t44.5 -29.5t30 -44t11 -57.5q0 -16 -3 -32h-67q0 44 -22.5 74t-62.5 39l-89 -413q42 7 76.5 33t59.5 74h64q-13 -38 -35 -67.5t-50.5 -51.5t-61 -35t-66.5 -17l-16 -75h-72l16 77q-68 13 -104 64t-36 126q0 66 20.5 125t56 105.5
t81.5 77.5t97 40l21 97h72zM190 257q-8 -38 -8 -69q0 -51 20 -85.5t61 -46.5l87 406q-30 -9 -56 -28.5t-46.5 -46.5t-35.5 -60.5t-22 -69.5z" />
    <glyph glyph-name="sterling" unicode="&#xa3;" horiz-adv-x="592" 
d="M290 264l-43 -200h275l-13 -64h-347l56 264h-98l46 67h66l41 194q9 42 30.5 77.5t52.5 61t70 40t84 14.5q58 0 97 -23.5t54 -65.5l-68 -36q-9 29 -33 45t-63 16q-25 0 -49 -7t-44.5 -23t-36 -40.5t-22.5 -58.5l-41 -194h136l-46 -67h-104z" />
    <glyph glyph-name="currency" unicode="&#xa4;" horiz-adv-x="610" 
d="M85 102l109 90q-14 31 -14 64q0 35 14 70.5t42 66.5l-70 89l62 51l71 -90q50 29 103 29t94 -32l112 93l40 -51l-113 -93q12 -29 12 -61q0 -70 -54 -132l74 -94l-62 -51l-73 93q-54 -31 -108 -31q-25 0 -48 7t-42 21l-109 -90zM294 380q-28 -23 -42.5 -52.5t-14.5 -58.5
q0 -42 28 -70.5t72 -28.5q28 0 55 12.5t48.5 32.5t35 46.5t13.5 54.5q0 42 -28 71t-72 29q-23 0 -48 -9t-47 -27z" />
    <glyph glyph-name="yen" unicode="&#xa5;" horiz-adv-x="631" 
d="M374 87l-18 -87h-72l18 87h-178l14 66h178l15 71h-178l14 67h169l-151 413h75l127 -367l282 367h75l-319 -413h160l-14 -67h-168l-15 -71h168l-14 -66h-168z" />
    <glyph glyph-name="brokenbar" unicode="&#xa6;" horiz-adv-x="244" 
d="M133 224h72l-93 -436h-72zM235 704h72l-85 -402h-72z" />
    <glyph glyph-name="section" unicode="&#xa7;" horiz-adv-x="534" 
d="M460 535q5 8 9.5 24.5t4.5 31.5q0 29 -20 47t-47 18q-17 0 -34.5 -7.5t-32 -22t-24 -35t-9.5 -46.5q0 -22 12.5 -40.5t45.5 -45.5t61.5 -50t49.5 -46t33 -47.5t12 -55.5q0 -30 -12 -62.5t-34.5 -59.5t-54.5 -44.5t-72 -17.5q33 -26 46.5 -58t13.5 -66q0 -39 -15 -72
t-40 -56t-58.5 -36t-69.5 -13q-68 0 -103 30t-35 70q0 23 7 44.5t11 32.5h77q-4 -11 -11 -29t-7 -37q0 -26 20 -40.5t50 -14.5q24 0 42 11t30 27.5t18 35t6 34.5q0 35 -22 63t-64 60q-26 20 -49.5 39t-40.5 39.5t-27 43t-10 50.5q0 34 14 67t39.5 58.5t61 41.5t77.5 16
q-37 21 -57.5 56t-20.5 71q0 27 13.5 56.5t38.5 54.5t59.5 41t75.5 16q62 0 95.5 -34t33.5 -85q0 -16 -3 -32l-7 -26h-77zM196 268q-3 -12 -3 -23q0 -29 13 -52t32.5 -39.5t43 -25.5t43.5 -9q19 0 40 9t38 26t28.5 41t11.5 54q0 26 -10.5 49t-27 40t-36 27t-37.5 10
q-24 0 -46.5 -7.5t-40.5 -21.5t-31 -34t-18 -44z" />
    <glyph glyph-name="dieresis" unicode="&#xa8;" horiz-adv-x="434" 
d="M397 627q5 22 23.5 37.5t40.5 15.5q19 0 31 -12.5t12 -30.5q0 -25 -20.5 -44t-44.5 -19q-20 0 -31.5 12t-11.5 30q0 7 1 11zM197 627q5 22 23.5 37.5t40.5 15.5q19 0 31 -12.5t12 -30.5q0 -25 -20.5 -44t-44.5 -19q-20 0 -31.5 12t-11.5 30q0 7 1 11z" />
    <glyph glyph-name="copyright" unicode="&#xa9;" horiz-adv-x="843" 
d="M131 316q15 72 53.5 133t92 105.5t118.5 69.5t133 25q58 0 107 -19t84 -53.5t54.5 -82.5t19.5 -105q0 -85 -35.5 -159t-93 -129t-130 -86.5t-147.5 -31.5q-59 0 -107.5 19t-83.5 53t-54 81.5t-19 104.5q0 18 1.5 36.5t6.5 38.5zM184 316q-7 -31 -7 -63q0 -48 16 -88.5
t45.5 -69.5t70 -45.5t89.5 -16.5q63 0 123.5 27.5t108.5 74.5t77.5 109.5t29.5 133.5q0 48 -16 88.5t-44.5 70t-69 46t-89.5 16.5q-57 0 -111.5 -22t-100 -60t-78 -89.5t-44.5 -111.5zM588 390q0 42 -26.5 65t-69.5 23q-37 0 -69 -18.5t-55.5 -49t-37 -71t-13.5 -84.5
q0 -52 26 -81t78 -29q42 0 77 17.5t59 65.5h70q-12 -35 -36 -61.5t-54 -45.5t-64 -28.5t-65 -9.5q-38 0 -69 12.5t-52.5 35.5t-33.5 54.5t-12 69.5q0 60 23 112t60.5 90.5t85 60.5t95.5 22q29 0 57.5 -8.5t51 -25t36 -40t13.5 -54.5q0 -5 -0.5 -10.5t-1.5 -11.5h-73z" />
    <glyph glyph-name="guillemotleft" unicode="&#xab;" horiz-adv-x="521" 
d="M321 339q-34 -23 -68.5 -45.5t-69.5 -45.5l99 -90l-15 -72l-155 142l9 43l215 140zM544 411l-16 -73l-138 -90l100 -90l-15 -71l-155 140l9 45z" />
    <glyph glyph-name="logicalnot" unicode="&#xac;" horiz-adv-x="600" 
d="M632 386l-43 -202h-62l29 140h-438l14 62h500z" />
    <glyph glyph-name="softhyphen" unicode="&#xad;" horiz-adv-x="422" 
d="M144 310h264l-18 -85h-264z" />
    <glyph glyph-name="registered" unicode="&#xae;" horiz-adv-x="833" 
d="M131 316q15 72 53.5 133t92 105.5t118.5 69.5t133 25q58 0 107 -19t84 -53.5t54.5 -82.5t19.5 -105q0 -85 -35.5 -159t-93 -129t-130 -86.5t-147.5 -31.5q-59 0 -107.5 19t-83.5 53t-54 81.5t-19 104.5q0 18 1.5 36.5t6.5 38.5zM184 316q-7 -31 -7 -63q0 -48 16 -88.5
t45.5 -69.5t70 -45.5t89.5 -16.5q63 0 123.5 27.5t108.5 74.5t77.5 109.5t29.5 133.5q0 48 -16 88.5t-44.5 70t-69 46t-89.5 16.5q-57 0 -111.5 -22t-100 -60t-78 -89.5t-44.5 -111.5zM584 126h-73l-80 148h-66l-32 -148h-64l84 392h168q54 0 85.5 -30t31.5 -74
q0 -22 -9.5 -44.5t-27 -42t-42.5 -33.5t-56 -17zM375 321h88q25 0 45.5 7.5t35 19t22 26.5t7.5 30q0 24 -19 42.5t-61 18.5h-88z" />
    <glyph glyph-name="macron" unicode="&#xaf;" horiz-adv-x="448" 
 />
    <glyph glyph-name="degree" unicode="&#xb0;" horiz-adv-x="347" 
d="M332 747q-33 0 -56.5 -23t-23.5 -65q0 -49 51 -49q32 0 56 23.5t24 65.5q0 23 -13.5 35.5t-37.5 12.5zM343 797q42 0 64.5 -23.5t22.5 -62.5q0 -33 -10.5 -61t-29 -47.5t-43.5 -30.5t-54 -11q-45 0 -67 22.5t-22 61.5q0 33 11 61t30 48t44.5 31.5t53.5 11.5z" />
    <glyph glyph-name="plusminus" unicode="&#xb1;" horiz-adv-x="590" 
d="M348 496q5 22 23.5 37.5t40.5 15.5q19 0 31 -12.5t12 -30.5q0 -25 -20.5 -44t-44.5 -19q-20 0 -31.5 12t-11.5 30q0 7 1 11zM130 311l13 64h462l-13 -64h-462zM283 190q5 22 23.5 37.5t40.5 15.5q19 0 31 -12.5t12 -30.5q0 -25 -20.5 -44t-44.5 -19q-20 0 -31.5 12
t-11.5 30q0 7 1 11z" />
    <glyph glyph-name="twosuperior" unicode="&#xb2;" horiz-adv-x="520" 
d="M134.449 332l6.99707 34.4062l191.624 191.922q17.2246 17.7412 26.375 35.751q9.15137 18.0088 9.15137 40.0508q0 22.5791 -13.7266 36.0186q-13.7256 13.4404 -40.1006 13.4404q-13.457 0 -26.375 -3.7627q-12.9189 -3.76367 -23.9531 -12.3652
q-11.0352 -8.60156 -19.3779 -21.7725t-12.1113 -31.4502l-6.45898 -30.1055h-38.7549l6.45898 30.1055q4.84375 22.5801 16.417 41.6641q11.5732 19.085 28.2588 32.7939q16.6865 13.708 37.6797 21.5039q20.9922 7.79492 45.2139 7.79492q40.3701 0 63.2471 -20.6973
q22.876 -20.6982 22.876 -56.7168q0 -31.7178 -12.6494 -55.3721t-36.8711 -47.8467l-170.631 -170.956h164.71l-6.99707 -34.4062h-211.002z" />
    <glyph glyph-name="threesuperior" unicode="&#xb3;" horiz-adv-x="530" 
d="M363.695 437.95q-5.89453 -26.2549 -18.7559 -46.3486t-31.082 -33.7568q-18.2197 -13.6641 -40.1914 -20.6299q-21.9707 -6.96582 -45.0146 -6.96582q-20.3633 0 -37.2441 4.82227q-16.8799 4.82324 -29.2061 14.4678q-12.3252 9.64453 -19.292 24.6484
q-6.96582 15.0029 -6.96582 35.3643q0 4.82227 0.535156 10.1807q0.536133 5.3584 1.60742 11.252h38.584q-0.535156 -3.75 -0.803711 -6.96484q-0.267578 -3.21582 -0.267578 -6.43066q0 -14.4668 4.82324 -24.3799q4.82227 -9.91309 13.1289 -16.3428t19.292 -9.37695
t23.3115 -2.94727q17.6836 0 34.0283 6.69824q16.3447 6.69727 29.2061 19.0215t20.6318 30.542q7.77051 18.2188 7.77051 40.7236q0 24.6475 -14.7373 38.8467q-14.7363 14.2002 -46.8896 14.2002h-16.6133l7.50293 34.293h16.6123q37.5127 0 60.8232 22.2363
q23.3115 22.2373 23.3115 62.96q0 25.1836 -14.7373 38.0439q-14.7363 12.8594 -38.8516 12.8594q-30.5459 0 -51.9814 -17.1465t-30.5449 -46.6172h-38.584q6.42969 23.041 19.291 41.2588q12.8613 18.2188 29.7422 30.8105t36.9766 19.29q20.0957 6.69727 42.0674 6.69727
q40.1914 0 62.9668 -21.165t22.7754 -56.5293q0 -40.1875 -19.292 -67.5146t-51.9814 -40.7227q41.2637 -17.1465 41.2637 -65.9072q0 -13.3955 -3.21582 -29.4707z" />
    <glyph glyph-name="acute" unicode="&#xb4;" horiz-adv-x="325" 
d="M276 574h-67l111 138h84z" />
    <glyph glyph-name="mu" unicode="&#xb5;" horiz-adv-x="580" 
d="M133 -185h-88l147 693h88l-58 -277q-5 -23 -7.5 -42.5t-2.5 -36.5q0 -102 88 -102q58 0 97.5 45t58.5 136l58 277h88l-82 -386q-2 -9 -3 -16.5t-1 -14.5q0 -14 7 -22t27 -8l11 1l-13 -62l-31.5 -3t-12.5 -1q-86 0 -86 50q0 4 0.5 7.5t1.5 8.5q-60 -82 -135 -82
q-33 0 -60.5 19t-40.5 53z" />
    <glyph glyph-name="paragraph" unicode="&#xb6;" horiz-adv-x="544" 
d="M287 374q-56 2 -84.5 38t-28.5 87q0 43 15.5 80t42 65t60.5 44t71 16h266l-14 -68h-52l-171 -805h-64l171 805h-92l-171 -805h-64z" />
    <glyph glyph-name="periodcentered" unicode="&#xb7;" horiz-adv-x="287" 
d="M146 388h159l-34 -159h-159z" />
    <glyph glyph-name="onesuperior" unicode="&#xb9;" horiz-adv-x="325" 
d="M208.247 327l84.9971 337.403l-101.739 -63.2627l11.5908 44.3379l101.096 62.1816h46.3623l-95.9443 -380.66h-46.3623z" />
    <glyph glyph-name="ordmasculine" unicode="&#xba;" horiz-adv-x="579" 
d="M315.854 702.706q22.4385 0 40.9512 -7.56543q18.5117 -7.56543 31.6943 -21.8564t20.4756 -34.7461q7.29297 -20.4561 7.29297 -46.2354q0 -44.834 -14.3047 -80.7012t-37.5859 -61.6465q-23.2803 -25.7793 -53.0117 -39.5098t-60.585 -13.7305
q-46.5615 0 -72.085 27.4609q-25.5244 27.46 -25.5244 77.3379q0 44.2734 14.0244 81.542t36.7432 63.6084q22.7197 26.3398 51.8906 41.1914q29.1709 14.8506 60.0244 14.8506zM370.828 548.029q4.48828 22.417 4.48828 39.79q0 36.9883 -17.1094 58.0039
q-17.1104 21.0156 -50.208 21.0156q-25.2432 0 -46.2803 -13.4502q-21.0361 -13.4502 -36.1826 -35.8672t-23.5605 -51.5586q-8.41504 -29.1426 -8.41504 -60.5264q0 -34.7461 15.9883 -53.8008q15.9873 -19.0537 49.085 -19.0537q20.7559 0 38.9873 8.40625
q18.2324 8.40625 32.5371 23.5371q14.3047 15.1318 24.6826 36.4277q10.3779 21.2969 15.9873 47.0762z" />
    <glyph glyph-name="guillemotright" unicode="&#xbb;" horiz-adv-x="521" 
d="M306 272l-9 -45l-215 -140l15 71l138 90l-100 90l16 73zM359 411l155 -140l-9 -43l-215 -142l15 72l137 90q-25 23 -50 45.5t-48 45.5z" />
    <glyph glyph-name="onequarter" unicode="&#xbc;" horiz-adv-x="642" 
d="M211 346l70 330l-84 -62l9 44l84 61h38l-79 -373h-38zM286 267h-39l257 452h40zM595 352l-18 -86h-38l18 86h-155l9 40l187 249h44l-191 -255h114l23 108h38l-23 -108h51l-8 -34h-51z" />
    <glyph glyph-name="onehalf" unicode="&#xbd;" horiz-adv-x="1329" 
d="M422 150l8 35l192 193q36 36 36 76q0 23 -14 36.5t-40 13.5q-28 0 -51 -16t-31 -54l-7 -30h-39l7 30q11 46 44.5 75.5t83.5 29.5q41 0 64 -21t23 -58q0 -32 -13.5 -55.5t-37.5 -47.5l-171 -172h166l-8 -35h-212zM213 335l70 330l-84 -62l9 44l84 61h38l-79 -373h-38z
M240 111h-45l300 545h44z" />
    <glyph glyph-name="threequarters" unicode="&#xbe;" horiz-adv-x="738" 
d="M379 439q-6 -26 -18.5 -46t-30.5 -33.5t-40 -20.5t-45 -7q-40 0 -66 19.5t-26 60.5q0 5 0.5 10t1.5 10h39q-1 -5 -1 -14q0 -28 17.5 -40t41.5 -12q18 0 34.5 7t29 19.5t20.5 30.5t8 40q0 25 -14.5 39t-46.5 14h-17l7 34h17q37 0 60 21.5t23 63.5q0 25 -15 37.5t-38 12.5
q-29 0 -50.5 -17t-29.5 -46h-39q14 46 48.5 71.5t77.5 25.5q40 0 63 -21t23 -56q0 -41 -19.5 -67.5t-51.5 -40.5q40 -16 40 -65q0 -14 -3 -30zM329 116h-45l300 545h44zM674 242l-18 -86h-38l18 86h-155l8 40l187 249h44l-191 -255h114l23 108h38l-23 -108h51l-7 -34h-51z
" />
    <glyph glyph-name="questiondown" unicode="&#xbf;" horiz-adv-x="503" 
d="M55.0332 -42.9668q8 34.9971 25.999 63.4961q17.999 28.498 43.9971 57.4961l106.993 117.993q12 13.999 20.499 29.998q8.5 15.999 10.5 27.998l7.99902 38.9971h71.9951l-8.99902 -39.9971q-6.99902 -28.998 -17.999 -49.9971q-10.999 -20.999 -31.998 -43.9971
l-105.993 -116.993q-22.999 -25.998 -38.498 -50.9971q-15.499 -24.998 -15.499 -62.9961q0 -38.9971 24.499 -63.9961q24.498 -24.998 67.4951 -24.998q26.999 0 50.4971 9.49902q23.499 9.5 41.998 25.999t31.498 37.9971q12.999 21.499 17.999 45.4971h71.9951
q-7.99902 -37.9971 -29.498 -71.4951t-51.9971 -57.9961q-30.498 -24.499 -67.4961 -38.998q-36.9971 -14.499 -77.9951 -14.499q-68.9951 0 -110.493 38.4971q-41.4971 38.498 -41.4971 102.494q0 21.999 3.99902 40.998zM392.013 493l-16.999 -83.9951h-85.9941
l16.999 83.9951h85.9941z" />
    <glyph glyph-name="Agrave" unicode="&#xc0;" horiz-adv-x="701" 
d="M481 621l-183 -328h229zM261 225l-126 -225h-71l396 704h79l98 -704h-72l-30 225h-274zM459 927h84l58 -154h-83z" />
    <glyph glyph-name="Aacute" unicode="&#xc1;" horiz-adv-x="701" 
d="M481 621l-183 -328h229zM261 225l-126 -225h-71l396 704h79l98 -704h-72l-30 225h-274zM494 773h-67l111 138h84z" />
    <glyph glyph-name="Acircumflex" unicode="&#xc2;" horiz-adv-x="701" 
d="M481 621l-183 -328h229zM261 225l-126 -225h-71l396 704h79l98 -704h-72l-30 225h-274zM568 930l94 -191h-78l-50 123l-103 -123h-78l175 191h40z" />
    <glyph glyph-name="Atilde" unicode="&#xc3;" horiz-adv-x="645" 
d="M453 621l-183 -328h229zM233 225l-126 -225h-71l396 704h79l98 -704h-72l-30 225h-274zM303.274 782.592q32.0664 28.9238 65.6602 47.9531q33.5928 19.0293 68.7139 19.0293q16.0332 0 32.4482 -7.99219t32.8301 -17.8877t33.2119 -17.8877t33.5928 -7.99219
q7.63574 0 18.3242 4.94824q10.6885 4.94727 20.9961 12.5586q10.3066 7.6123 19.4688 16.7461t15.2695 17.5068l35.1211 -30.4473q-22.1416 -28.1631 -53.4443 -49.8564q-31.3037 -21.6934 -67.9512 -21.6934q-16.0332 0 -32.8301 7.99219
q-16.7959 7.99316 -33.5928 17.127t-33.5938 17.126t-32.8301 7.99219q-15.2695 0 -37.0293 -12.9395q-21.7598 -12.9404 -42.374 -37.2979z" />
    <glyph glyph-name="Adieresis" unicode="&#xc4;" horiz-adv-x="701" 
d="M481 621l-183 -328h229zM261 225l-126 -225h-71l396 704h79l98 -704h-72l-30 225h-274zM568 806q5 22 23.5 37.5t40.5 15.5q19 0 31 -12.5t12 -30.5q0 -25 -20.5 -44t-44.5 -19q-20 0 -31.5 12t-11.5 30q0 7 1 11zM368 806q5 22 23.5 37.5t40.5 15.5q19 0 31 -12.5
t12 -30.5q0 -25 -20.5 -44t-44.5 -19q-20 0 -31.5 12t-11.5 30q0 7 1 11z" />
    <glyph glyph-name="Aring" unicode="&#xc5;" horiz-adv-x="645" 
d="M453 621l-183 -328h229zM233 225l-126 -225h-71l396 704h79l98 -704h-72l-30 225h-274zM431 828q-1 -4 -1 -12q0 -22 14 -36.5t37 -14.5q15 0 28.5 6.5t24.5 17t17.5 24.5t6.5 29q0 20 -14 34t-36 14q-26 0 -48.5 -18t-28.5 -44zM403 828q4 19 15 35.5t26 29t33 19.5
t37 7q32 0 52.5 -20.5t20.5 -51.5q0 -22 -9.5 -42t-25 -35t-36 -24t-41.5 -9q-33 0 -53.5 20.5t-20.5 52.5q0 5 0.5 9t1.5 9z" />
    <glyph glyph-name="AE" unicode="&#xc6;" horiz-adv-x="1049" 
d="M1134 704l-13 -64h-355l-51 -240h303l-14 -64h-299l-58 -272h351l-13 -64h-427l47 225h-273l-197 -225h-71l620 704h450zM679 621l-288 -328h219z" />
    <glyph glyph-name="Egrave" unicode="&#xc8;" horiz-adv-x="555" 
d="M640 704l-13 -64h-355l-51 -240h303l-14 -64h-303l-58 -272h355l-13 -64h-427l149 704h427zM386 927h84l58 -154h-83z" />
    <glyph glyph-name="Eacute" unicode="&#xc9;" horiz-adv-x="555" 
d="M640 704l-13 -64h-355l-51 -240h303l-14 -64h-303l-58 -272h355l-13 -64h-427l149 704h427zM443 755h-67l111 138h84z" />
    <glyph glyph-name="Ecircumflex" unicode="&#xca;" horiz-adv-x="527" 
d="M640 704l-13 -64h-355l-51 -240h303l-14 -64h-303l-58 -272h355l-13 -64h-427l149 704h427zM481 930l94 -191h-78l-50 123l-103 -123h-78l175 191h40z" />
    <glyph glyph-name="Edieresis" unicode="&#xcb;" horiz-adv-x="527" 
d="M640 704l-13 -64h-355l-51 -240h303l-14 -64h-303l-58 -272h355l-13 -64h-427l149 704h427zM481 806q5 22 23.5 37.5t40.5 15.5q19 0 31 -12.5t12 -30.5q0 -25 -20.5 -44t-44.5 -19q-20 0 -31.5 12t-11.5 30q0 7 1 11zM281 806q5 22 23.5 37.5t40.5 15.5q19 0 31 -12.5
t12 -30.5q0 -25 -20.5 -44t-44.5 -19q-20 0 -31.5 12t-11.5 30q0 7 1 11z" />
    <glyph glyph-name="Igrave" unicode="&#xcc;" horiz-adv-x="192" 
d="M286 704l-149 -704h-72l149 704h72zM207 927h84l58 -154h-83z" />
    <glyph glyph-name="Iacute" unicode="&#xcd;" horiz-adv-x="192" 
d="M286 704l-149 -704h-72l149 704h72zM242 773h-67l111 138h84z" />
    <glyph glyph-name="Icircumflex" unicode="&#xce;" horiz-adv-x="200" 
d="M286 704l-149 -704h-72l149 704h72zM320 930l94 -191h-78l-50 123l-103 -123h-78l175 191h40z" />
    <glyph glyph-name="Idieresis" unicode="&#xcf;" horiz-adv-x="200" 
d="M286 704l-149 -704h-72l149 704h72zM320 806q5 22 23.5 37.5t40.5 15.5q19 0 31 -12.5t12 -30.5q0 -25 -20.5 -44t-44.5 -19q-20 0 -31.5 12t-11.5 30q0 7 1 11zM120 806q5 22 23.5 37.5t40.5 15.5q19 0 31 -12.5t12 -30.5q0 -25 -20.5 -44t-44.5 -19q-20 0 -31.5 12
t-11.5 30q0 7 1 11z" />
    <glyph glyph-name="Ntilde" unicode="&#xd1;" horiz-adv-x="633" 
d="M301 704l225 -613v42l121 571h72l-149 -704h-93l-219 613v-42l-121 -571h-72l149 704h87zM286.916 745.137q32.6768 28.3584 66.9092 47.0146q34.2324 18.6572 70.0215 18.6572q16.3379 0 33.0654 -7.83594t33.4541 -17.5371q16.7275 -9.70215 33.8438 -17.5381
t34.2334 -7.83594q7.7793 0 18.6719 4.85059q10.8926 4.85156 21.3955 12.3145q10.5029 7.46191 19.8398 16.418q9.33594 8.95508 15.5596 17.1641l35.7891 -29.8516q-22.5625 -27.6113 -54.4609 -48.8809q-31.8984 -21.2686 -69.2432 -21.2686q-16.3389 0 -33.4551 7.83594
t-34.2324 16.791t-34.2324 16.791q-17.1172 7.83594 -33.4551 7.83594q-15.5605 0 -37.7334 -12.6865q-22.1738 -12.6865 -43.1797 -36.5674z" />
    <glyph glyph-name="Ograve" unicode="&#xd2;" horiz-adv-x="729" 
d="M379 51q63 0 118.5 32.5t97.5 86.5t66.5 125t24.5 148q0 46 -11.5 83.5t-34 64.5t-56.5 42t-78 15q-62 0 -117.5 -30.5t-97.5 -83t-66.5 -123t-24.5 -151.5q0 -47 11.5 -85t34 -66t56 -43t77.5 -15zM138 352q18 82 54 148.5t86.5 113.5t112 72.5t129.5 25.5
q115 0 177.5 -68t62.5 -185q0 -50 -12 -107q-18 -83 -54 -150.5t-86.5 -115t-112 -73.5t-129.5 -26q-57 0 -102 18t-75.5 51.5t-46.5 81t-16 106.5q0 49 12 108zM473 927h84l58 -154h-83z" />
    <glyph glyph-name="Oacute" unicode="&#xd3;" horiz-adv-x="729" 
d="M379 51q63 0 118.5 32.5t97.5 86.5t66.5 125t24.5 148q0 46 -11.5 83.5t-34 64.5t-56.5 42t-78 15q-62 0 -117.5 -30.5t-97.5 -83t-66.5 -123t-24.5 -151.5q0 -47 11.5 -85t34 -66t56 -43t77.5 -15zM138 352q18 82 54 148.5t86.5 113.5t112 72.5t129.5 25.5
q115 0 177.5 -68t62.5 -185q0 -50 -12 -107q-18 -83 -54 -150.5t-86.5 -115t-112 -73.5t-129.5 -26q-57 0 -102 18t-75.5 51.5t-46.5 81t-16 106.5q0 49 12 108zM508 773h-67l111 138h84z" />
    <glyph glyph-name="Ocircumflex" unicode="&#xd4;" horiz-adv-x="738" 
d="M379 51q63 0 118.5 32.5t97.5 86.5t66.5 125t24.5 148q0 46 -11.5 83.5t-34 64.5t-56.5 42t-78 15q-62 0 -117.5 -30.5t-97.5 -83t-66.5 -123t-24.5 -151.5q0 -47 11.5 -85t34 -66t56 -43t77.5 -15zM138 352q18 82 54 148.5t86.5 113.5t112 72.5t129.5 25.5
q115 0 177.5 -68t62.5 -185q0 -50 -12 -107q-18 -83 -54 -150.5t-86.5 -115t-112 -73.5t-129.5 -26q-57 0 -102 18t-75.5 51.5t-46.5 81t-16 106.5q0 49 12 108zM586 930l94 -191h-78l-50 123l-103 -123h-78l175 191h40z" />
    <glyph glyph-name="Otilde" unicode="&#xd5;" horiz-adv-x="738" 
d="M379 51q63 0 118.5 32.5t97.5 86.5t66.5 125t24.5 148q0 46 -11.5 83.5t-34 64.5t-56.5 42t-78 15q-62 0 -117.5 -30.5t-97.5 -83t-66.5 -123t-24.5 -151.5q0 -47 11.5 -85t34 -66t56 -43t77.5 -15zM138 352q18 82 54 148.5t86.5 113.5t112 72.5t129.5 25.5
q115 0 177.5 -68t62.5 -185q0 -50 -12 -107q-18 -83 -54 -150.5t-86.5 -115t-112 -73.5t-129.5 -26q-57 0 -102 18t-75.5 51.5t-46.5 81t-16 106.5q0 49 12 108zM306 772q42 38 86 63t90 25q21 0 42.5 -10.5t43 -23.5t43.5 -23.5t44 -10.5q10 0 24 6.5t27.5 16.5t25.5 22
t20 23l46 -40q-29 -37 -70 -65.5t-89 -28.5q-21 0 -43 10.5t-44 22.5t-44 22.5t-43 10.5q-20 0 -48.5 -17t-55.5 -49z" />
    <glyph glyph-name="Odieresis" unicode="&#xd6;" horiz-adv-x="738" 
d="M379 51q63 0 118.5 32.5t97.5 86.5t66.5 125t24.5 148q0 46 -11.5 83.5t-34 64.5t-56.5 42t-78 15q-62 0 -117.5 -30.5t-97.5 -83t-66.5 -123t-24.5 -151.5q0 -47 11.5 -85t34 -66t56 -43t77.5 -15zM138 352q18 82 54 148.5t86.5 113.5t112 72.5t129.5 25.5
q115 0 177.5 -68t62.5 -185q0 -50 -12 -107q-18 -83 -54 -150.5t-86.5 -115t-112 -73.5t-129.5 -26q-57 0 -102 18t-75.5 51.5t-46.5 81t-16 106.5q0 49 12 108zM587 806q5 22 23.5 37.5t40.5 15.5q19 0 31 -12.5t12 -30.5q0 -25 -20.5 -44t-44.5 -19q-20 0 -31.5 12
t-11.5 30q0 7 1 11zM387 806q5 22 23.5 37.5t40.5 15.5q19 0 31 -12.5t12 -30.5q0 -25 -20.5 -44t-44.5 -19q-20 0 -31.5 12t-11.5 30q0 7 1 11z" />
    <glyph glyph-name="multiply" unicode="&#xd7;" horiz-adv-x="523" 
d="M264 292l-115 145l62 51l114 -145l176 145l40 -51l-175 -145l114 -145l-62 -51l-114 145l-176 -145l-40 51z" />
    <glyph glyph-name="Oslash" unicode="&#xd8;" horiz-adv-x="738" 
d="M379 51q63 0 118.5 32.5t97.5 86.5t66.5 125t24.5 148q0 46 -11.5 83.5t-34 64.5t-56.5 42t-78 15q-62 0 -117.5 -30.5t-97.5 -83t-66.5 -123t-24.5 -151.5q0 -47 11.5 -85t34 -66t56 -43t77.5 -15zM138 352q18 82 54 148.5t86.5 113.5t112 72.5t129.5 25.5
q115 0 177.5 -68t62.5 -185q0 -50 -12 -107q-18 -83 -54 -150.5t-86.5 -115t-112 -73.5t-129.5 -26q-57 0 -102 18t-75.5 51.5t-46.5 81t-16 106.5q0 49 12 108zM185 -156h-71l468 860h71z" />
    <glyph glyph-name="Ugrave" unicode="&#xd9;" horiz-adv-x="625" 
d="M285 704l-95 -448q-3 -16 -5 -30.5t-2 -28.5q0 -66 35.5 -106t103.5 -40q39 0 76 15t68 42.5t53 65t32 82.5l95 448h72l-96 -450q-13 -62 -43 -111t-71.5 -84t-92.5 -53.5t-106 -18.5q-94 0 -147 51t-53 142q0 17 1.5 35.5t6.5 38.5l96 450h72zM421 927h84l58 -154h-83z
" />
    <glyph glyph-name="Uacute" unicode="&#xda;" horiz-adv-x="625" 
d="M285 704l-95 -448q-3 -16 -5 -30.5t-2 -28.5q0 -66 35.5 -106t103.5 -40q39 0 76 15t68 42.5t53 65t32 82.5l95 448h72l-96 -450q-13 -62 -43 -111t-71.5 -84t-92.5 -53.5t-106 -18.5q-94 0 -147 51t-53 142q0 17 1.5 35.5t6.5 38.5l96 450h72zM456 773h-67l111 138h84z
" />
    <glyph glyph-name="Ucircumflex" unicode="&#xdb;" horiz-adv-x="633" 
d="M285 704l-95 -448q-3 -16 -5 -30.5t-2 -28.5q0 -66 35.5 -106t103.5 -40q39 0 76 15t68 42.5t53 65t32 82.5l95 448h72l-96 -450q-13 -62 -43 -111t-71.5 -84t-92.5 -53.5t-106 -18.5q-94 0 -147 51t-53 142q0 17 1.5 35.5t6.5 38.5l96 450h72zM534 930l94 -191h-78
l-50 123l-103 -123h-78l175 191h40z" />
    <glyph glyph-name="Udieresis" unicode="&#xdc;" horiz-adv-x="633" 
d="M285 704l-95 -448q-3 -16 -5 -30.5t-2 -28.5q0 -66 35.5 -106t103.5 -40q39 0 76 15t68 42.5t53 65t32 82.5l95 448h72l-96 -450q-13 -62 -43 -111t-71.5 -84t-92.5 -53.5t-106 -18.5q-94 0 -147 51t-53 142q0 17 1.5 35.5t6.5 38.5l96 450h72zM534 806q5 22 23.5 37.5
t40.5 15.5q19 0 31 -12.5t12 -30.5q0 -25 -20.5 -44t-44.5 -19q-20 0 -31.5 12t-11.5 30q0 7 1 11zM334 806q5 22 23.5 37.5t40.5 15.5q19 0 31 -12.5t12 -30.5q0 -25 -20.5 -44t-44.5 -19q-20 0 -31.5 12t-11.5 30q0 7 1 11z" />
    <glyph glyph-name="Yacute" unicode="&#xdd;" horiz-adv-x="687" 
d="M367 260l-154 444h75l124 -383l285 383h75l-333 -444l-55 -260h-72zM487 773h-67l111 138h84z" />
    <glyph glyph-name="agrave" unicode="&#xe0;" horiz-adv-x="628" 
d="M400 469q-72 0 -116 -28t-58 -86l-68 27q13 34 38 62t58.5 48t74 30.5t84.5 10.5q91 0 135.5 -33.5t44.5 -96.5q0 -11 -1.5 -21.5t-3.5 -22.5l-48 -227q-6 -27 -6 -41q0 -18 10 -22.5t33 -4.5l-13 -64h-23q-39 0 -58.5 16.5t-20.5 44.5q-17 -17 -40.5 -30.5t-51.5 -23.5
t-58 -15t-59 -5q-75 0 -119 31.5t-44 93.5q0 23 10 51t32 53.5t57.5 45t86.5 27.5q55 8 101 15.5t78.5 19t50.5 28.5t18 44q0 31 -32 52t-92 21zM502 286q-21 -19 -57.5 -30.5t-74.5 -19t-72 -12.5t-50 -10q-42 -14 -65 -38.5t-23 -55.5q0 -34 29.5 -51.5t77.5 -17.5
q33 0 68 7.5t65 23t51.5 40t28.5 58.5zM381 728h84l58 -154h-83z" />
    <glyph glyph-name="aacute" unicode="&#xe1;" horiz-adv-x="628" 
d="M400 469q-72 0 -116 -28t-58 -86l-68 27q13 34 38 62t58.5 48t74 30.5t84.5 10.5q91 0 135.5 -33.5t44.5 -96.5q0 -11 -1.5 -21.5t-3.5 -22.5l-48 -227q-6 -27 -6 -41q0 -18 10 -22.5t33 -4.5l-13 -64h-23q-39 0 -58.5 16.5t-20.5 44.5q-17 -17 -40.5 -30.5t-51.5 -23.5
t-58 -15t-59 -5q-75 0 -119 31.5t-44 93.5q0 23 10 51t32 53.5t57.5 45t86.5 27.5q55 8 101 15.5t78.5 19t50.5 28.5t18 44q0 31 -32 52t-92 21zM502 286q-21 -19 -57.5 -30.5t-74.5 -19t-72 -12.5t-50 -10q-42 -14 -65 -38.5t-23 -55.5q0 -34 29.5 -51.5t77.5 -17.5
q33 0 68 7.5t65 23t51.5 40t28.5 58.5zM416 574h-67l111 138h84z" />
    <glyph glyph-name="acircumflex" unicode="&#xe2;" horiz-adv-x="628" 
d="M400 469q-72 0 -116 -28t-58 -86l-68 27q13 34 38 62t58.5 48t74 30.5t84.5 10.5q91 0 135.5 -33.5t44.5 -96.5q0 -11 -1.5 -21.5t-3.5 -22.5l-48 -227q-6 -27 -6 -41q0 -18 10 -22.5t33 -4.5l-13 -64h-23q-39 0 -58.5 16.5t-20.5 44.5q-17 -17 -40.5 -30.5t-51.5 -23.5
t-58 -15t-59 -5q-75 0 -119 31.5t-44 93.5q0 23 10 51t32 53.5t57.5 45t86.5 27.5q55 8 101 15.5t78.5 19t50.5 28.5t18 44q0 31 -32 52t-92 21zM502 286q-21 -19 -57.5 -30.5t-74.5 -19t-72 -12.5t-50 -10q-42 -14 -65 -38.5t-23 -55.5q0 -34 29.5 -51.5t77.5 -17.5
q33 0 68 7.5t65 23t51.5 40t28.5 58.5zM493 751l94 -191h-78l-50 123l-103 -123h-78l175 191h40z" />
    <glyph glyph-name="atilde" unicode="&#xe3;" horiz-adv-x="628" 
d="M400 469q-72 0 -116 -28t-58 -86l-68 27q13 34 38 62t58.5 48t74 30.5t84.5 10.5q91 0 135.5 -33.5t44.5 -96.5q0 -11 -1.5 -21.5t-3.5 -22.5l-48 -227q-6 -27 -6 -41q0 -18 10 -22.5t33 -4.5l-13 -64h-23q-39 0 -58.5 16.5t-20.5 44.5q-17 -17 -40.5 -30.5t-51.5 -23.5
t-58 -15t-59 -5q-75 0 -119 31.5t-44 93.5q0 23 10 51t32 53.5t57.5 45t86.5 27.5q55 8 101 15.5t78.5 19t50.5 28.5t18 44q0 31 -32 52t-92 21zM502 286q-21 -19 -57.5 -30.5t-74.5 -19t-72 -12.5t-50 -10q-42 -14 -65 -38.5t-23 -55.5q0 -34 29.5 -51.5t77.5 -17.5
q33 0 68 7.5t65 23t51.5 40t28.5 58.5zM246.743 617.516q32.2412 30.0586 66.0166 49.834q33.7764 19.7754 69.0879 19.7754q16.1201 0 32.625 -8.30566q16.5039 -8.30566 33.0078 -18.5889q16.5049 -10.2832 33.3926 -18.5889q16.8887 -8.30566 33.7764 -8.30566
q7.67676 0 18.4229 5.1416q10.7471 5.1416 21.1104 13.0518t19.5752 17.4023q9.21094 9.49219 15.3525 18.1934l35.3115 -31.6406q-22.2617 -29.2676 -53.7354 -51.8115q-31.4727 -22.5439 -68.3193 -22.5439q-16.1201 0 -33.0088 8.30566
q-16.8877 8.30566 -33.7764 17.7979q-16.8877 9.49219 -33.7754 17.7979q-16.8887 8.30566 -33.0088 8.30566q-15.3525 0 -37.2305 -13.4473t-42.6045 -38.7598z" />
    <glyph glyph-name="adieresis" unicode="&#xe4;" horiz-adv-x="628" 
d="M400 469q-72 0 -116 -28t-58 -86l-68 27q13 34 38 62t58.5 48t74 30.5t84.5 10.5q91 0 135.5 -33.5t44.5 -96.5q0 -11 -1.5 -21.5t-3.5 -22.5l-48 -227q-6 -27 -6 -41q0 -18 10 -22.5t33 -4.5l-13 -64h-23q-39 0 -58.5 16.5t-20.5 44.5q-17 -17 -40.5 -30.5t-51.5 -23.5
t-58 -15t-59 -5q-75 0 -119 31.5t-44 93.5q0 23 10 51t32 53.5t57.5 45t86.5 27.5q55 8 101 15.5t78.5 19t50.5 28.5t18 44q0 31 -32 52t-92 21zM502 286q-21 -19 -57.5 -30.5t-74.5 -19t-72 -12.5t-50 -10q-42 -14 -65 -38.5t-23 -55.5q0 -34 29.5 -51.5t77.5 -17.5
q33 0 68 7.5t65 23t51.5 40t28.5 58.5zM494 627q5 22 23.5 37.5t40.5 15.5q19 0 31 -12.5t12 -30.5q0 -25 -20.5 -44t-44.5 -19q-20 0 -31.5 12t-11.5 30q0 7 1 11zM294 627q5 22 23.5 37.5t40.5 15.5q19 0 31 -12.5t12 -30.5q0 -25 -20.5 -44t-44.5 -19q-20 0 -31.5 12
t-11.5 30q0 7 1 11z" />
    <glyph glyph-name="aring" unicode="&#xe5;" horiz-adv-x="628" 
d="M400 469q-72 0 -116 -28t-58 -86l-68 27q13 34 38 62t58.5 48t74 30.5t84.5 10.5q91 0 135.5 -33.5t44.5 -96.5q0 -11 -1.5 -21.5t-3.5 -22.5l-48 -227q-6 -27 -6 -41q0 -18 10 -22.5t33 -4.5l-13 -64h-23q-39 0 -58.5 16.5t-20.5 44.5q-17 -17 -40.5 -30.5t-51.5 -23.5
t-58 -15t-59 -5q-75 0 -119 31.5t-44 93.5q0 23 10 51t32 53.5t57.5 45t86.5 27.5q55 8 101 15.5t78.5 19t50.5 28.5t18 44q0 31 -32 52t-92 21zM502 286q-21 -19 -57.5 -30.5t-74.5 -19t-72 -12.5t-50 -10q-42 -14 -65 -38.5t-23 -55.5q0 -34 29.5 -51.5t77.5 -17.5
q33 0 68 7.5t65 23t51.5 40t28.5 58.5zM394 673q-1 -4 -1 -12q0 -22 14 -36.5t37 -14.5q15 0 28.5 6.5t24.5 17t17.5 24.5t6.5 29q0 20 -14 34t-36 14q-26 0 -48.5 -18t-28.5 -44zM366 673q4 19 15 35.5t26 29t33 19.5t37 7q32 0 52.5 -20.5t20.5 -51.5q0 -22 -9.5 -42
t-25 -35t-36 -24t-41.5 -9q-33 0 -53.5 20.5t-20.5 52.5q0 5 0.5 9t1.5 9z" />
    <glyph glyph-name="egrave" unicode="&#xe8;" horiz-adv-x="571" 
d="M186 232q-3 -21 -3 -39q0 -68 31.5 -105t84.5 -37q43 0 89 22.5t77 70.5l55 -31q-43 -57 -102 -91.5t-122 -34.5q-41 0 -75 14t-58.5 40t-38 63t-13.5 83q0 17 1.5 35t6.5 38q27 128 101.5 200.5t184.5 72.5q81 0 127 -52.5t46 -142.5q0 -18 -1.5 -37.5t-6.5 -40.5
l-6 -28h-378zM388 469q-29 0 -59 -12t-55.5 -34.5t-45 -54.5t-28.5 -72h303q2 12 3.5 23t1.5 22q0 30 -9.5 54t-26 40.5t-38.5 25t-46 8.5zM352 728h84l58 -154h-83z" />
    <glyph glyph-name="eacute" unicode="&#xe9;" horiz-adv-x="571" 
d="M186 232q-3 -21 -3 -39q0 -68 31.5 -105t84.5 -37q43 0 89 22.5t77 70.5l55 -31q-43 -57 -102 -91.5t-122 -34.5q-41 0 -75 14t-58.5 40t-38 63t-13.5 83q0 17 1.5 35t6.5 38q27 128 101.5 200.5t184.5 72.5q81 0 127 -52.5t46 -142.5q0 -18 -1.5 -37.5t-6.5 -40.5
l-6 -28h-378zM388 469q-29 0 -59 -12t-55.5 -34.5t-45 -54.5t-28.5 -72h303q2 12 3.5 23t1.5 22q0 30 -9.5 54t-26 40.5t-38.5 25t-46 8.5zM387 574h-67l111 138h84z" />
    <glyph glyph-name="ecircumflex" unicode="&#xea;" horiz-adv-x="571" 
d="M186 232q-3 -21 -3 -39q0 -68 31.5 -105t84.5 -37q43 0 89 22.5t77 70.5l55 -31q-43 -57 -102 -91.5t-122 -34.5q-41 0 -75 14t-58.5 40t-38 63t-13.5 83q0 17 1.5 35t6.5 38q27 128 101.5 200.5t184.5 72.5q81 0 127 -52.5t46 -142.5q0 -18 -1.5 -37.5t-6.5 -40.5
l-6 -28h-378zM388 469q-29 0 -59 -12t-55.5 -34.5t-45 -54.5t-28.5 -72h303q2 12 3.5 23t1.5 22q0 30 -9.5 54t-26 40.5t-38.5 25t-46 8.5zM465 751l94 -191h-78l-50 123l-103 -123h-78l175 191h40z" />
    <glyph glyph-name="edieresis" unicode="&#xeb;" horiz-adv-x="571" 
d="M186 232q-3 -21 -3 -39q0 -68 31.5 -105t84.5 -37q43 0 89 22.5t77 70.5l55 -31q-43 -57 -102 -91.5t-122 -34.5q-41 0 -75 14t-58.5 40t-38 63t-13.5 83q0 17 1.5 35t6.5 38q27 128 101.5 200.5t184.5 72.5q81 0 127 -52.5t46 -142.5q0 -18 -1.5 -37.5t-6.5 -40.5
l-6 -28h-378zM388 469q-29 0 -59 -12t-55.5 -34.5t-45 -54.5t-28.5 -72h303q2 12 3.5 23t1.5 22q0 30 -9.5 54t-26 40.5t-38.5 25t-46 8.5zM465 627q5 22 23.5 37.5t40.5 15.5q19 0 31 -12.5t12 -30.5q0 -25 -20.5 -44t-44.5 -19q-20 0 -31.5 12t-11.5 30q0 7 1 11zM265 627
q5 22 23.5 37.5t40.5 15.5q19 0 31 -12.5t12 -30.5q0 -25 -20.5 -44t-44.5 -19q-20 0 -31.5 12t-11.5 30q0 7 1 11z" />
    <glyph glyph-name="igrave" unicode="&#xec;" horiz-adv-x="192" 
d="M246 520l-110 -520h-72l110 520h72zM163 728h84l58 -154h-83z" />
    <glyph glyph-name="iacute" unicode="&#xed;" horiz-adv-x="192" 
d="M246 520l-110 -520h-72l110 520h72zM202 574h-67l111 138h84z" />
    <glyph glyph-name="icircumflex" unicode="&#xee;" horiz-adv-x="192" 
d="M246 520l-110 -520h-72l110 520h72zM276 751l94 -191h-78l-50 123l-103 -123h-78l175 191h40z" />
    <glyph glyph-name="idieresis" unicode="&#xef;" horiz-adv-x="192" 
d="M246 520l-110 -520h-72l110 520h72zM276 627q5 22 23.5 37.5t40.5 15.5q19 0 31 -12.5t12 -30.5q0 -25 -20.5 -44t-44.5 -19q-20 0 -31.5 12t-11.5 30q0 7 1 11zM76 627q5 22 23.5 37.5t40.5 15.5q19 0 31 -12.5t12 -30.5q0 -25 -20.5 -44t-44.5 -19q-20 0 -31.5 12
t-11.5 30q0 7 1 11z" />
    <glyph glyph-name="ntilde" unicode="&#xf1;" horiz-adv-x="553" 
d="M238 520l-15 -73q32 41 81 63.5t103 22.5q75 0 119.5 -43t44.5 -114q0 -12 -1.5 -24t-3.5 -25l-69 -327h-72l65 308q2 11 3.5 21.5t1.5 21.5q0 56 -32.5 87t-86.5 31q-33 0 -63 -11.5t-54 -33t-41.5 -51t-24.5 -65.5l-65 -308h-72l110 520h72zM229.15 634.788
q32.7637 29.7754 67.0879 49.3652q34.3232 19.5889 70.208 19.5889q16.3818 0 33.1533 -8.22754q16.7725 -8.22754 33.5439 -18.4141q16.7725 -10.1865 33.9346 -18.4141t34.3232 -8.22754q7.80176 0 18.7227 5.09375q10.9209 5.09277 21.4521 12.9287t19.8926 17.2383
q9.36133 9.40332 15.6016 18.0225l35.8848 -31.3428q-22.623 -28.9922 -54.6064 -51.3242q-31.9844 -22.3311 -69.4287 -22.3311q-16.3818 0 -33.5439 8.22754q-17.1611 8.22754 -34.3232 17.6299q-17.1621 9.40332 -34.3242 17.6309q-17.1621 8.22656 -33.5439 8.22656
q-15.6016 0 -37.834 -13.3203q-22.2334 -13.3203 -43.2959 -38.3945z" />
    <glyph glyph-name="ograve" unicode="&#xf2;" horiz-adv-x="570" 
d="M399 533q40 0 73 -13.5t56.5 -39t36.5 -62t13 -82.5q0 -80 -25.5 -144t-67 -110t-94.5 -70.5t-108 -24.5q-83 0 -128.5 49t-45.5 138q0 79 25 145.5t65.5 113.5t92.5 73.5t107 26.5zM497 257q8 40 8 71q0 66 -30.5 103.5t-89.5 37.5q-45 0 -82.5 -24t-64.5 -64t-42 -92
t-15 -108q0 -62 28.5 -96t87.5 -34q37 0 69.5 15t58 42t44 65t28.5 84zM352 728h84l58 -154h-83z" />
    <glyph glyph-name="oacute" unicode="&#xf3;" horiz-adv-x="570" 
d="M399 533q40 0 73 -13.5t56.5 -39t36.5 -62t13 -82.5q0 -80 -25.5 -144t-67 -110t-94.5 -70.5t-108 -24.5q-83 0 -128.5 49t-45.5 138q0 79 25 145.5t65.5 113.5t92.5 73.5t107 26.5zM497 257q8 40 8 71q0 66 -30.5 103.5t-89.5 37.5q-45 0 -82.5 -24t-64.5 -64t-42 -92
t-15 -108q0 -62 28.5 -96t87.5 -34q37 0 69.5 15t58 42t44 65t28.5 84zM406 574h-67l111 138h84z" />
    <glyph glyph-name="ocircumflex" unicode="&#xf4;" horiz-adv-x="570" 
d="M399 533q40 0 73 -13.5t56.5 -39t36.5 -62t13 -82.5q0 -80 -25.5 -144t-67 -110t-94.5 -70.5t-108 -24.5q-83 0 -128.5 49t-45.5 138q0 79 25 145.5t65.5 113.5t92.5 73.5t107 26.5zM497 257q8 40 8 71q0 66 -30.5 103.5t-89.5 37.5q-45 0 -82.5 -24t-64.5 -64t-42 -92
t-15 -108q0 -62 28.5 -96t87.5 -34q37 0 69.5 15t58 42t44 65t28.5 84zM464 751l94 -191h-78l-50 123l-103 -123h-78l175 191h40z" />
    <glyph glyph-name="otilde" unicode="&#xf5;" horiz-adv-x="579" 
d="M399 533q40 0 73 -13.5t56.5 -39t36.5 -62t13 -82.5q0 -80 -25.5 -144t-67 -110t-94.5 -70.5t-108 -24.5q-83 0 -128.5 49t-45.5 138q0 79 25 145.5t65.5 113.5t92.5 73.5t107 26.5zM497 257q8 40 8 71q0 66 -30.5 103.5t-89.5 37.5q-45 0 -82.5 -24t-64.5 -64t-42 -92
t-15 -108q0 -62 28.5 -96t87.5 -34q37 0 69.5 15t58 42t44 65t28.5 84zM223.385 623.909q32.8506 31.7607 67.2666 52.6562q34.415 20.8955 70.3945 20.8955q16.4258 0 33.2422 -8.77637q16.8164 -8.77539 33.6328 -19.6416q16.8164 -10.8652 34.0244 -19.6416
q17.207 -8.77637 34.415 -8.77637q7.82129 0 18.7725 5.43359q10.9502 5.43262 21.5088 13.791q10.5596 8.35742 19.9453 18.3877q9.38672 10.0293 15.6436 19.2236l35.9795 -33.4326q-22.6826 -30.9248 -54.751 -54.7461q-32.0693 -23.8203 -69.6133 -23.8203
q-16.4258 0 -33.6328 8.77539q-17.208 8.77637 -34.415 18.8066q-17.208 10.0293 -34.416 18.8057q-17.207 8.77539 -33.6328 8.77539q-15.6436 0 -37.9346 -14.208q-22.292 -14.209 -43.4102 -40.9551z" />
    <glyph glyph-name="odieresis" unicode="&#xf6;" horiz-adv-x="579" 
d="M399 533q40 0 73 -13.5t56.5 -39t36.5 -62t13 -82.5q0 -80 -25.5 -144t-67 -110t-94.5 -70.5t-108 -24.5q-83 0 -128.5 49t-45.5 138q0 79 25 145.5t65.5 113.5t92.5 73.5t107 26.5zM497 257q8 40 8 71q0 66 -30.5 103.5t-89.5 37.5q-45 0 -82.5 -24t-64.5 -64t-42 -92
t-15 -108q0 -62 28.5 -96t87.5 -34q37 0 69.5 15t58 42t44 65t28.5 84zM469 627q5 22 23.5 37.5t40.5 15.5q19 0 31 -12.5t12 -30.5q0 -25 -20.5 -44t-44.5 -19q-20 0 -31.5 12t-11.5 30q0 7 1 11zM269 627q5 22 23.5 37.5t40.5 15.5q19 0 31 -12.5t12 -30.5
q0 -25 -20.5 -44t-44.5 -19q-20 0 -31.5 12t-11.5 30q0 7 1 11z" />
    <glyph glyph-name="divide" unicode="&#xf7;" horiz-adv-x="418" 
d="M111 224h290l-13 -64h-290zM224 301l20 94h94l-20 -94h-94zM161 0l19 94h94l-19 -94h-94z" />
    <glyph glyph-name="oslash" unicode="&#xf8;" horiz-adv-x="579" 
d="M201 -94h-71l57 104q-78 46 -78 163q0 79 25 145.5t65.5 114t92.5 74t107 26.5q35 0 65 -11l53 97h72l-70 -129q28 -26 43.5 -64.5t15.5 -89.5q0 -80 -25.5 -144t-67 -110t-94.5 -70.5t-108 -24.5q-19 0 -37 3zM385 469q-45 0 -82.5 -24t-64.5 -64.5t-42 -92.5t-15 -108
q0 -73 40 -106l210 387q-21 8 -46 8zM497 257q8 40 8 71q0 58 -24 94l-201 -370q4 -1 8 -1h9q37 0 69.5 15t58 42t44 65t28.5 84z" />
    <glyph glyph-name="ugrave" unicode="&#xf9;" horiz-adv-x="553" 
d="M425 0l15 71q-32 -38 -82 -61t-103 -23q-72 0 -114.5 40.5t-42.5 111.5q0 23 6 52l70 329h72l-65 -307q-6 -27 -6 -49q0 -53 29 -83t83 -30q33 0 62.5 11t53.5 32t41.5 51t25.5 68l65 307h72l-110 -520h-72zM328 728h84l58 -154h-83z" />
    <glyph glyph-name="uacute" unicode="&#xfa;" horiz-adv-x="553" 
d="M425 0l15 71q-32 -38 -82 -61t-103 -23q-72 0 -114.5 40.5t-42.5 111.5q0 23 6 52l70 329h72l-65 -307q-6 -27 -6 -49q0 -53 29 -83t83 -30q33 0 62.5 11t53.5 32t41.5 51t25.5 68l65 307h72l-110 -520h-72zM378 574h-67l111 138h84z" />
    <glyph glyph-name="ucircumflex" unicode="&#xfb;" horiz-adv-x="553" 
d="M425 0l15 71q-32 -38 -82 -61t-103 -23q-72 0 -114.5 40.5t-42.5 111.5q0 23 6 52l70 329h72l-65 -307q-6 -27 -6 -49q0 -53 29 -83t83 -30q33 0 62.5 11t53.5 32t41.5 51t25.5 68l65 307h72l-110 -520h-72zM456 751l94 -191h-78l-50 123l-103 -123h-78l175 191h40z" />
    <glyph glyph-name="udieresis" unicode="&#xfc;" horiz-adv-x="561" 
d="M425 0l15 71q-32 -38 -82 -61t-103 -23q-72 0 -114.5 40.5t-42.5 111.5q0 23 6 52l70 329h72l-65 -307q-6 -27 -6 -49q0 -53 29 -83t83 -30q33 0 62.5 11t53.5 32t41.5 51t25.5 68l65 307h72l-110 -520h-72zM460 627q5 22 23.5 37.5t40.5 15.5q19 0 31 -12.5t12 -30.5
q0 -25 -20.5 -44t-44.5 -19q-20 0 -31.5 12t-11.5 30q0 7 1 11zM260 627q5 22 23.5 37.5t40.5 15.5q19 0 31 -12.5t12 -30.5q0 -25 -20.5 -44t-44.5 -19q-20 0 -31.5 12t-11.5 30q0 7 1 11z" />
    <glyph glyph-name="yacute" unicode="&#xfd;" horiz-adv-x="592" 
d="M126 -148q20 0 40 14.5t37 36t28.5 45t15.5 41.5q2 8 3 16.5t1 18.5v8t-1 9l-76 479h76l66 -428l252 428h70l-324 -553q-23 -39 -46 -71.5t-47.5 -56.5t-51.5 -37.5t-57 -13.5h-40l14 64h40zM428 574h-67l111 138h84z" />
    <glyph glyph-name="ydieresis" unicode="&#xff;" horiz-adv-x="548" 
d="M110 -148q20 0 40 14.5t37 36t28.5 45t15.5 41.5q2 8 3 16.5t1 18.5v8t-1 9l-76 479h76l66 -428l252 428h70l-324 -553q-23 -39 -46 -71.5t-47.5 -56.5t-51.5 -37.5t-57 -13.5h-40l14 64h40zM454 627q5 22 23.5 37.5t40.5 15.5q19 0 31 -12.5t12 -30.5q0 -25 -20.5 -44
t-44.5 -19q-20 0 -31.5 12t-11.5 30q0 7 1 11zM254 627q5 22 23.5 37.5t40.5 15.5q19 0 31 -12.5t12 -30.5q0 -25 -20.5 -44t-44.5 -19q-20 0 -31.5 12t-11.5 30q0 7 1 11z" />
    <glyph glyph-name="Abreve" unicode="&#x102;" horiz-adv-x="701" 
d="M481 621l-183 -328h229zM261 225l-126 -225h-71l396 704h79l98 -704h-72l-30 225h-274zM518 794q38 0 70.5 24t52.5 63h48q-28 -60 -74.5 -94.5t-105.5 -34.5q-58 0 -91 34.5t-35 94.5h48q4 -40 26.5 -63.5t60.5 -23.5z" />
    <glyph glyph-name="abreve" unicode="&#x103;" horiz-adv-x="628" 
d="M400 469q-72 0 -116 -28t-58 -86l-68 27q13 34 38 62t58.5 48t74 30.5t84.5 10.5q91 0 135.5 -33.5t44.5 -96.5q0 -11 -1.5 -21.5t-3.5 -22.5l-48 -227q-6 -27 -6 -41q0 -18 10 -22.5t33 -4.5l-13 -64h-23q-39 0 -58.5 16.5t-20.5 44.5q-17 -17 -40.5 -30.5t-51.5 -23.5
t-58 -15t-59 -5q-75 0 -119 31.5t-44 93.5q0 23 10 51t32 53.5t57.5 45t86.5 27.5q55 8 101 15.5t78.5 19t50.5 28.5t18 44q0 31 -32 52t-92 21zM502 286q-21 -19 -57.5 -30.5t-74.5 -19t-72 -12.5t-50 -10q-42 -14 -65 -38.5t-23 -55.5q0 -34 29.5 -51.5t77.5 -17.5
q33 0 68 7.5t65 23t51.5 40t28.5 58.5zM440 595q38 0 70.5 24t52.5 63h48q-28 -60 -74.5 -94.5t-105.5 -34.5q-58 0 -91 34.5t-35 94.5h48q4 -40 26.5 -63.5t60.5 -23.5z" />
    <glyph glyph-name="Cacute" unicode="&#x106;" horiz-adv-x="715" 
d="M361 -13q-113 0 -174 68.5t-61 186.5q0 102 31.5 188t85 148.5t124 98t148.5 35.5q195 0 231 -203l-67 -29q-15 83 -57.5 125.5t-120.5 42.5q-62 0 -117 -31t-96 -84.5t-65 -124.5t-24 -152q0 -45 11 -83t33 -65t54.5 -42t76.5 -15q39 0 75.5 12t68 33.5t57.5 52t44 67.5
l56 -28q-61 -105 -138.5 -153t-175.5 -48zM528 756h-67l111 138h84z" />
    <glyph glyph-name="cacute" unicode="&#x107;" horiz-adv-x="564" 
d="M408 533q35 0 66 -10t54 -29t36 -47t13 -64l-69 -29q0 51 -31.5 83t-82.5 32q-45 0 -84 -24t-67.5 -63.5t-44.5 -89.5t-16 -102q0 -63 30.5 -101t92.5 -38q51 0 93.5 26.5t70.5 81.5l50 -32q-17 -34 -42 -60t-55 -44t-63.5 -27t-66.5 -9q-44 0 -78.5 14t-57.5 39.5
t-35 61.5t-12 79q0 73 25 137.5t66.5 112t95.5 75t112 27.5zM384 574h-67l111 138h84z" />
    <glyph glyph-name="Ccaron" unicode="&#x10c;" horiz-adv-x="715" 
d="M361 -13q-113 0 -174 68.5t-61 186.5q0 102 31.5 188t85 148.5t124 98t148.5 35.5q195 0 231 -203l-67 -29q-15 83 -57.5 125.5t-120.5 42.5q-62 0 -117 -31t-96 -84.5t-65 -124.5t-24 -152q0 -45 11 -83t33 -65t54.5 -42t76.5 -15q39 0 75.5 12t68 33.5t57.5 52t44 67.5
l56 -28q-61 -105 -138.5 -153t-175.5 -48zM498 759l-94 191h78l50 -123l103 123h78l-175 -191h-40z" />
    <glyph glyph-name="ccaron" unicode="&#x10d;" horiz-adv-x="564" 
d="M408 533q35 0 66 -10t54 -29t36 -47t13 -64l-69 -29q0 51 -31.5 83t-82.5 32q-45 0 -84 -24t-67.5 -63.5t-44.5 -89.5t-16 -102q0 -63 30.5 -101t92.5 -38q51 0 93.5 26.5t70.5 81.5l50 -32q-17 -34 -42 -60t-55 -44t-63.5 -27t-66.5 -9q-44 0 -78.5 14t-57.5 39.5
t-35 61.5t-12 79q0 73 25 137.5t66.5 112t95.5 75t112 27.5zM380 560l-94 191h78l50 -123l103 123h78l-175 -191h-40z" />
    <glyph glyph-name="Dcaron" unicode="&#x10e;" horiz-adv-x="659" 
d="M444 704q56 0 101.5 -19t77 -53.5t48.5 -82.5t17 -106q0 -93 -33.5 -173.5t-88.5 -140.5t-125.5 -94.5t-145.5 -34.5h-231l149 704h231zM606 352q5 20 6.5 39t1.5 38q0 45 -12.5 84t-36 67t-57.5 44t-77 16h-159l-123 -576h159q53 0 101.5 23t88 62t68 91.5t40.5 111.5z
M415 757l-94 191h78l50 -123l103 123h78l-175 -191h-40z" />
    <glyph glyph-name="Ecaron" unicode="&#x11a;" horiz-adv-x="555" 
d="M640 704l-13 -64h-355l-51 -240h303l-14 -64h-303l-58 -272h355l-13 -64h-427l149 704h427zM421 752l-94 191h78l50 -123l103 123h78l-175 -191h-40z" />
    <glyph glyph-name="ecaron" unicode="&#x11b;" horiz-adv-x="571" 
d="M186 232q-3 -21 -3 -39q0 -68 31.5 -105t84.5 -37q43 0 89 22.5t77 70.5l55 -31q-43 -57 -102 -91.5t-122 -34.5q-41 0 -75 14t-58.5 40t-38 63t-13.5 83q0 17 1.5 35t6.5 38q27 128 101.5 200.5t184.5 72.5q81 0 127 -52.5t46 -142.5q0 -18 -1.5 -37.5t-6.5 -40.5
l-6 -28h-378zM388 469q-29 0 -59 -12t-55.5 -34.5t-45 -54.5t-28.5 -72h303q2 12 3.5 23t1.5 22q0 30 -9.5 54t-26 40.5t-38.5 25t-46 8.5zM384 560l-94 191h78l50 -123l103 123h78l-175 -191h-40z" />
    <glyph glyph-name="Gbreve" unicode="&#x11e;" horiz-adv-x="715" 
d="M478 363h247l-77 -363h-43v91l-2 -1q-100 -103 -242 -103q-113 0 -174 68.5t-61 186.5q0 102 31.5 188t85 148.5t124 98t148.5 35.5q191 0 230 -194l-67 -32q-16 80 -57.5 121t-119.5 41q-62 0 -117 -31t-96 -84.5t-65 -124.5t-24 -152q0 -45 11 -83t33 -65t54.5 -42
t76.5 -15q59 0 104.5 19t78.5 52t55 78.5t35 98.5h-208zM521 774q38 0 70.5 24t52.5 63h48q-28 -60 -74.5 -94.5t-105.5 -34.5q-58 0 -91 34.5t-35 94.5h48q4 -40 26.5 -63.5t60.5 -23.5z" />
    <glyph glyph-name="gbreve" unicode="&#x11f;" horiz-adv-x="553" 
d="M607 520l-122 -573q-8 -38 -30 -69.5t-55 -54t-74.5 -35.5t-88.5 -13q-77 0 -125.5 32.5t-53.5 92.5l73 38q1 -48 33.5 -73.5t86.5 -25.5q67 0 110.5 33.5t55.5 93.5l19 94q-32 -35 -76.5 -54t-90.5 -19q-76 0 -122 51t-46 142q0 76 24 140.5t63.5 111.5t89.5 74t103 27
q46 0 82 -23t49 -68h5l17 78h73zM374 469q-39 0 -75 -23t-63.5 -61t-44.5 -88t-17 -105q0 -62 28.5 -101.5t82.5 -39.5q38 0 74 21.5t64 58t45 85.5t17 105q0 63 -28.5 105.5t-82.5 42.5zM428 629q38 0 70.5 24t52.5 63h48q-28 -60 -74.5 -94.5t-105.5 -34.5q-58 0 -91 34.5
t-35 94.5h48q4 -40 26.5 -63.5t60.5 -23.5z" />
    <glyph glyph-name="Idotaccent" unicode="&#x130;" horiz-adv-x="200" 
d="M286 704l-149 -704h-72l149 704h72zM225 774q4 17 18.5 29.5t31.5 12.5q15 0 24.5 -9.5t9.5 -23.5q0 -20 -16.5 -35t-35.5 -15q-15 0 -24 9t-9 23q0 6 1 9z" />
    <glyph glyph-name="dotlessi" unicode="&#x131;" horiz-adv-x="192" 
d="M246 520l-110 -520h-72l110 520h72z" />
    <glyph glyph-name="Lcaron" unicode="&#x13d;" horiz-adv-x="539" 
d="M285 704l-136 -640h275l-13 -64h-347l149 704h72zM404 857q5 22 24 37.5t41 15.5q19 0 30.5 -12t11.5 -29q0 -8 -1 -12l-66 -158h-43l45 105q-20 0 -31.5 12t-11.5 30q0 7 1 11z" />
    <glyph glyph-name="lcaron" unicode="&#x13e;" horiz-adv-x="409" 
d="M284 699l-148 -699h-72l148 699h72zM395 658q5 22 24 37.5t41 15.5q19 0 30.5 -12t11.5 -29q0 -8 -1 -12l-66 -158h-43l45 105q-20 0 -31.5 12t-11.5 30q0 7 1 11z" />
    <glyph glyph-name="Nacute" unicode="&#x143;" horiz-adv-x="625" 
d="M301 704l225 -613v42l121 571h72l-149 -704h-93l-219 613v-42l-121 -571h-72l149 704h87zM475 749h-67l111 138h84z" />
    <glyph glyph-name="nacute" unicode="&#x144;" horiz-adv-x="553" 
d="M238 520l-15 -73q32 41 81 63.5t103 22.5q75 0 119.5 -43t44.5 -114q0 -12 -1.5 -24t-3.5 -25l-69 -327h-72l65 308q2 11 3.5 21.5t1.5 21.5q0 56 -32.5 87t-86.5 31q-33 0 -63 -11.5t-54 -33t-41.5 -51t-24.5 -65.5l-65 -308h-72l110 520h72zM378 574h-67l111 138h84z
" />
    <glyph glyph-name="Ncaron" unicode="&#x147;" horiz-adv-x="625" 
d="M301 704l225 -613v42l121 571h72l-149 -704h-93l-219 613v-42l-121 -571h-72l149 704h87zM454 747l-94 191h78l50 -123l103 123h78l-175 -191h-40z" />
    <glyph glyph-name="ncaron" unicode="&#x148;" horiz-adv-x="553" 
d="M238 520l-15 -73q32 41 81 63.5t103 22.5q75 0 119.5 -43t44.5 -114q0 -12 -1.5 -24t-3.5 -25l-69 -327h-72l65 308q2 11 3.5 21.5t1.5 21.5q0 56 -32.5 87t-86.5 31q-33 0 -63 -11.5t-54 -33t-41.5 -51t-24.5 -65.5l-65 -308h-72l110 520h72zM375 560l-94 191h78
l50 -123l103 123h78l-175 -191h-40z" />
    <glyph glyph-name="Ohungarumlaut" unicode="&#x150;" horiz-adv-x="738" 
d="M379 51q63 0 118.5 32.5t97.5 86.5t66.5 125t24.5 148q0 46 -11.5 83.5t-34 64.5t-56.5 42t-78 15q-62 0 -117.5 -30.5t-97.5 -83t-66.5 -123t-24.5 -151.5q0 -47 11.5 -85t34 -66t56 -43t77.5 -15zM138 352q18 82 54 148.5t86.5 113.5t112 72.5t129.5 25.5
q115 0 177.5 -68t62.5 -185q0 -50 -12 -107q-18 -83 -54 -150.5t-86.5 -115t-112 -73.5t-129.5 -26q-57 0 -102 18t-75.5 51.5t-46.5 81t-16 106.5q0 49 12 108zM467 752h-69l101 127h70zM669 752h-69l102 127h69z" />
    <glyph glyph-name="ohungarumlaut" unicode="&#x151;" horiz-adv-x="579" 
d="M399 533q40 0 73 -13.5t56.5 -39t36.5 -62t13 -82.5q0 -80 -25.5 -144t-67 -110t-94.5 -70.5t-108 -24.5q-83 0 -128.5 49t-45.5 138q0 79 25 145.5t65.5 113.5t92.5 73.5t107 26.5zM497 257q8 40 8 71q0 66 -30.5 103.5t-89.5 37.5q-45 0 -82.5 -24t-64.5 -64t-42 -92
t-15 -108q0 -62 28.5 -96t87.5 -34q37 0 69.5 15t58 42t44 65t28.5 84zM347 573h-69l101 127h70zM549 573h-69l102 127h69z" />
    <glyph glyph-name="OE" unicode="&#x152;" horiz-adv-x="941" 
d="M520 712q26 0 48.5 -3.5t43.5 -10.5h413l-14 -64h-355l-51 -240h303l-13 -64h-303l-58 -272h355l-14 -64h-427l1 4q-42 -11 -83 -11q-57 0 -102 18t-75.5 51.5t-46.5 81t-16 106.5q0 104 33 190t88 148t126 96t147 34zM379 51q43 0 85 15l120 566q-37 16 -78 16
q-62 0 -117.5 -30.5t-97.5 -83t-66.5 -123t-24.5 -151.5q0 -47 11.5 -85t34 -66t56 -43t77.5 -15z" />
    <glyph glyph-name="oe" unicode="&#x153;" horiz-adv-x="958" 
d="M399 533q60 0 103 -30t63 -84q38 52 93 83t122 31q40 0 72.5 -15t54.5 -42t34 -63.5t12 -79.5q0 -18 -2 -36t-6 -37l-6 -28h-376q-2 -10 -2 -19.5v-17.5q0 -72 31 -108t82 -36q24 0 49.5 7t49 21t44.5 36t36 51h76q-21 -39 -49.5 -72t-62.5 -56.5t-71 -37t-75 -13.5
q-61 0 -105.5 30t-65.5 84q-42 -55 -97.5 -84.5t-119.5 -29.5q-83 0 -128.5 49t-45.5 138q0 79 25 145.5t65.5 113.5t92.5 73.5t107 26.5zM385 469q-45 0 -82.5 -24t-64.5 -64t-42 -92t-15 -108q0 -62 28.5 -96t87.5 -34q48 0 86 25t65 64t41.5 86.5t14.5 92.5q0 30 -7 57.5
t-21.5 48t-37 32.5t-53.5 12zM763 469q-58 0 -109.5 -45.5t-77.5 -126.5l302 -1q1 8 1.5 15.5t0.5 15.5q0 68 -32.5 105t-84.5 37z" />
    <glyph glyph-name="Racute" unicode="&#x154;" horiz-adv-x="620" 
d="M556 0h-74l-119 336h-156l-71 -336h-72l149 704h249q79 0 128 -39.5t49 -106.5q0 -33 -14.5 -68.5t-40.5 -66.5t-64 -53t-84 -28zM221 400h177q40 0 71.5 13t53 33.5t32.5 46.5t11 52q0 42 -30 68.5t-87 26.5h-177zM454 773h-67l111 138h84z" />
    <glyph glyph-name="racute" unicode="&#x155;" horiz-adv-x="364" 
d="M246 520l-14 -66q16 21 33.5 35.5t39 24.5t47.5 14.5t61 4.5l-14 -64q-46 0 -79.5 -9.5t-57 -30.5t-39 -54t-25.5 -80l-62 -295h-72l110 520h72zM284 574h-67l111 138h84z" />
    <glyph glyph-name="Rcaron" unicode="&#x158;" horiz-adv-x="620" 
d="M556 0h-74l-119 336h-156l-71 -336h-72l149 704h249q79 0 128 -39.5t49 -106.5q0 -33 -14.5 -68.5t-40.5 -66.5t-64 -53t-84 -28zM221 400h177q40 0 71.5 13t53 33.5t32.5 46.5t11 52q0 42 -30 68.5t-87 26.5h-177zM450 759l-94 191h78l50 -123l103 123h78l-175 -191h-40
z" />
    <glyph glyph-name="rcaron" unicode="&#x159;" horiz-adv-x="364" 
d="M246 520l-14 -66q16 21 33.5 35.5t39 24.5t47.5 14.5t61 4.5l-14 -64q-46 0 -79.5 -9.5t-57 -30.5t-39 -54t-25.5 -80l-62 -295h-72l110 520h72zM282 560l-94 191h78l50 -123l103 123h78l-175 -191h-40z" />
    <glyph glyph-name="Sacute" unicode="&#x15a;" horiz-adv-x="626" 
d="M459 712q39 0 74.5 -10t62.5 -30.5t43.5 -51.5t16.5 -73q0 -7 -0.5 -14t-1.5 -15l-71 -37l3 14q3 13 3 27q0 26 -10.5 49t-29.5 40t-46 27t-60 10q-34 0 -66.5 -8.5t-58 -26.5t-41 -44.5t-15.5 -62.5q0 -38 25 -60.5t63 -37.5t81.5 -27t81.5 -29.5t63 -45.5t25 -74
q0 -21 -4 -40q-21 -101 -93.5 -153t-193.5 -52q-105 0 -155 40t-50 133v14l76 39q-6 -27 -6 -50q0 -112 148 -112q47 0 85 13.5t64.5 36t40.5 51.5t14 59q0 37 -25 58t-63 35t-82 25.5t-82 29.5t-63 48t-25 81q0 55 24 97t63 70t87.5 42.5t97.5 14.5zM457 773h-67l111 138
h84z" />
    <glyph glyph-name="sacute" unicode="&#x15b;" horiz-adv-x="537" 
d="M383 533q82 0 128 -34.5t46 -100.5v-13l-74 -26q1 5 1.5 9.5t0.5 9.5q0 22 -10.5 39.5t-27 28.5t-37.5 17t-42 6q-23 0 -46.5 -5.5t-42 -17.5t-30 -31t-11.5 -46q0 -37 36 -54.5t92 -28.5q80 -17 112 -45t32 -72q0 -43 -18 -77t-49.5 -57t-75 -35.5t-95.5 -12.5
q-37 0 -69.5 7.5t-56.5 24t-38 42.5t-14 62v10t1 10l67 22q-1 -5 -1.5 -9.5t-0.5 -9.5q0 -45 32 -70t85 -25q71 0 115.5 23t44.5 77q0 19 -11 31.5t-27.5 20.5t-36 13t-36.5 9q-40 9 -70 20t-50.5 25t-31 34t-10.5 47q0 6 2 22t9 36t21 42t38.5 40t60.5 30t88 12zM370 574
h-67l111 138h84z" />
    <glyph glyph-name="Scaron" unicode="&#x160;" horiz-adv-x="626" 
d="M459 712q39 0 74.5 -10t62.5 -30.5t43.5 -51.5t16.5 -73q0 -7 -0.5 -14t-1.5 -15l-71 -37l3 14q3 13 3 27q0 26 -10.5 49t-29.5 40t-46 27t-60 10q-34 0 -66.5 -8.5t-58 -26.5t-41 -44.5t-15.5 -62.5q0 -38 25 -60.5t63 -37.5t81.5 -27t81.5 -29.5t63 -45.5t25 -74
q0 -21 -4 -40q-21 -101 -93.5 -153t-193.5 -52q-105 0 -155 40t-50 133v14l76 39q-6 -27 -6 -50q0 -112 148 -112q47 0 85 13.5t64.5 36t40.5 51.5t14 59q0 37 -25 58t-63 35t-82 25.5t-82 29.5t-63 48t-25 81q0 55 24 97t63 70t87.5 42.5t97.5 14.5zM453 759l-94 191h78
l50 -123l103 123h78l-175 -191h-40z" />
    <glyph glyph-name="scaron" unicode="&#x161;" horiz-adv-x="537" 
d="M383 533q82 0 128 -34.5t46 -100.5v-13l-74 -26q1 5 1.5 9.5t0.5 9.5q0 22 -10.5 39.5t-27 28.5t-37.5 17t-42 6q-23 0 -46.5 -5.5t-42 -17.5t-30 -31t-11.5 -46q0 -37 36 -54.5t92 -28.5q80 -17 112 -45t32 -72q0 -43 -18 -77t-49.5 -57t-75 -35.5t-95.5 -12.5
q-37 0 -69.5 7.5t-56.5 24t-38 42.5t-14 62v10t1 10l67 22q-1 -5 -1.5 -9.5t-0.5 -9.5q0 -45 32 -70t85 -25q71 0 115.5 23t44.5 77q0 19 -11 31.5t-27.5 20.5t-36 13t-36.5 9q-40 9 -70 20t-50.5 25t-31 34t-10.5 47q0 6 2 22t9 36t21 42t38.5 40t60.5 30t88 12zM367 560
l-94 191h78l50 -123l103 123h78l-175 -191h-40z" />
    <glyph glyph-name="Tcaron" unicode="&#x164;" horiz-adv-x="607" 
d="M692 704l-13 -64h-199l-136 -640h-72l136 640h-208l13 64h479zM444 759l-94 191h78l50 -123l103 123h78l-175 -191h-40z" />
    <glyph glyph-name="tcaron" unicode="&#x165;" horiz-adv-x="580" 
d="M243 520l39 184h72l-39 -184h94l-14 -64h-94l-56 -265q-6 -29 -10 -50.5t-4 -36.5q0 -21 9 -30.5t32 -9.5h40l-13 -64h-45q-49 0 -73.5 24t-24.5 69q0 10 1.5 20.5t3.5 22.5l68 320h-69l14 64h69zM566 658q5 22 24 37.5t41 15.5q19 0 30.5 -12t11.5 -29q0 -8 -1 -12
l-66 -158h-43l45 105q-20 0 -31.5 12t-11.5 30q0 7 1 11z" />
    <glyph glyph-name="Uring" unicode="&#x16e;" horiz-adv-x="633" 
d="M285 704l-95 -448q-3 -16 -5 -30.5t-2 -28.5q0 -66 35.5 -106t103.5 -40q39 0 76 15t68 42.5t53 65t32 82.5l95 448h72l-96 -450q-13 -62 -43 -111t-71.5 -84t-92.5 -53.5t-106 -18.5q-94 0 -147 51t-53 142q0 17 1.5 35.5t6.5 38.5l96 450h72z" />
    <glyph glyph-name="uring" unicode="&#x16f;" horiz-adv-x="561" 
d="M425 0l15 71q-32 -38 -82 -61t-103 -23q-72 0 -114.5 40.5t-42.5 111.5q0 23 6 52l70 329h72l-65 -307q-6 -27 -6 -49q0 -53 29 -83t83 -30q33 0 62.5 11t53.5 32t41.5 51t25.5 68l65 307h72l-110 -520h-72zM373 665q-1 -4 -1 -12q0 -22 14 -36.5t37 -14.5q15 0 28.5 6.5
t24.5 17t17.5 24.5t6.5 29q0 20 -14 34t-36 14q-26 0 -48.5 -18t-28.5 -44zM345 665q4 19 15 35.5t26 29t33 19.5t37 7q32 0 52.5 -20.5t20.5 -51.5q0 -22 -9.5 -42t-25 -35t-36 -24t-41.5 -9q-33 0 -53.5 20.5t-20.5 52.5q0 5 0.5 9t1.5 9z" />
    <glyph glyph-name="Uhungarumlaut" unicode="&#x170;" horiz-adv-x="625" 
d="M285 704l-95 -448q-3 -16 -5 -30.5t-2 -28.5q0 -66 35.5 -106t103.5 -40q39 0 76 15t68 42.5t53 65t32 82.5l95 448h72l-96 -450q-13 -62 -43 -111t-71.5 -84t-92.5 -53.5t-106 -18.5q-94 0 -147 51t-53 142q0 17 1.5 35.5t6.5 38.5l96 450h72zM406 753h-69l101 127h70z
M608 753h-69l102 127h69z" />
    <glyph glyph-name="uhungarumlaut" unicode="&#x171;" horiz-adv-x="561" 
d="M425 0l15 71q-32 -38 -82 -61t-103 -23q-72 0 -114.5 40.5t-42.5 111.5q0 23 6 52l70 329h72l-65 -307q-6 -27 -6 -49q0 -53 29 -83t83 -30q33 0 62.5 11t53.5 32t41.5 51t25.5 68l65 307h72l-110 -520h-72zM346 573h-69l101 127h70zM548 573h-69l102 127h69z" />
    <glyph glyph-name="Ydieresis" unicode="&#x178;" horiz-adv-x="631" 
d="M339 260l-154 444h75l124 -383l285 383h75l-333 -444l-55 -260h-72zM533 806q5 22 23.5 37.5t40.5 15.5q19 0 31 -12.5t12 -30.5q0 -25 -20.5 -44t-44.5 -19q-20 0 -31.5 12t-11.5 30q0 7 1 11zM333 806q5 22 23.5 37.5t40.5 15.5q19 0 31 -12.5t12 -30.5
q0 -25 -20.5 -44t-44.5 -19q-20 0 -31.5 12t-11.5 30q0 7 1 11z" />
    <glyph glyph-name="Zacute" unicode="&#x179;" horiz-adv-x="641" 
d="M710 704l-14 -65l-536 -575h430l-13 -64h-513l13 65l536 575h-395l13 64h479zM464 773h-67l111 138h84z" />
    <glyph glyph-name="zacute" unicode="&#x17a;" horiz-adv-x="534" 
d="M580 520l-14 -64l-403 -392h320l-13 -64h-406l13 64l396 389h-297l14 67h390zM369 574h-67l111 138h84z" />
    <glyph glyph-name="zdotaccent" unicode="&#x17c;" horiz-adv-x="502" 
d="M345 603q5 22 23.5 37.5t40.5 15.5q19 0 31 -12.5t12 -30.5q0 -12 -6 -23.5t-15 -20.5t-21 -14t-24 -5q-19 0 -30.5 12t-11.5 30q0 7 1 11zM564 520l-14 -64l-403 -392h320l-13 -64h-406l13 64l396 389h-297l14 67h390z" />
    <glyph glyph-name="Zcaron" unicode="&#x17d;" horiz-adv-x="641" 
d="M710 704l-14 -65l-536 -575h430l-13 -64h-513l13 65l536 575h-395l13 64h479zM461 759l-94 191h78l50 -123l103 123h78l-175 -191h-40z" />
    <glyph glyph-name="zcaron" unicode="&#x17e;" horiz-adv-x="534" 
d="M580 520l-14 -64l-403 -392h320l-13 -64h-406l13 64l396 389h-297l14 67h390zM365 560l-94 191h78l50 -123l103 123h78l-175 -191h-40z" />
    <glyph glyph-name="circumflex" unicode="&#x2c6;" horiz-adv-x="437" 
d="M398 751l94 -191h-78l-50 123l-103 -123h-78l175 191h40z" />
    <glyph glyph-name="caron" unicode="&#x2c7;" horiz-adv-x="437" 
d="M317 560l-94 191h78l50 -123l103 123h78l-175 -191h-40z" />
    <glyph glyph-name="breve" unicode="&#x2d8;" horiz-adv-x="434" 
d="M343 595q38 0 70.5 24t52.5 63h48q-28 -60 -74.5 -94.5t-105.5 -34.5q-58 0 -91 34.5t-35 94.5h48q4 -40 26.5 -63.5t60.5 -23.5z" />
    <glyph glyph-name="ring" unicode="&#x2da;" horiz-adv-x="334" 
d="M245 738q-1 -4 -1 -12q0 -22 14 -36.5t37 -14.5q15 0 28.5 6.5t24.5 17t17.5 24.5t6.5 29q0 20 -14 34t-36 14q-26 0 -48.5 -18t-28.5 -44zM217 738q4 19 15 35.5t26 29t33 19.5t37 7q32 0 52.5 -20.5t20.5 -51.5q0 -22 -9.5 -42t-25 -35t-36 -24t-41.5 -9
q-33 0 -53.5 20.5t-20.5 52.5q0 5 0.5 9t1.5 9z" />
    <glyph glyph-name="tilde" unicode="&#x2dc;" horiz-adv-x="612" 
d="M113 232q42 38 86 63t90 25q21 0 42.5 -10.5t43 -23.5t43.5 -23.5t44 -10.5q10 0 24 6.5t27.5 16.5t25.5 22t20 23l46 -40q-29 -37 -70 -65.5t-89 -28.5q-21 0 -43 10.5t-44 22.5t-44 22.5t-43 10.5q-20 0 -48.5 -17t-55.5 -49z" />
    <glyph glyph-name="hungarumlaut" unicode="&#x2dd;" horiz-adv-x="474" 
d="M254 573h-69l101 127h70zM456 573h-69l102 127h69z" />
    <glyph glyph-name="uni0405" unicode="&#x405;" horiz-adv-x="621" 
d="M459 712q39 0 74.5 -10t62.5 -30.5t43.5 -51.5t16.5 -73q0 -7 -0.5 -14t-1.5 -15l-71 -37l3 14q3 13 3 27q0 26 -10.5 49t-29.5 40t-46 27t-60 10q-34 0 -66.5 -8.5t-58 -26.5t-41 -44.5t-15.5 -62.5q0 -38 25 -60.5t63 -37.5t81.5 -27t81.5 -29.5t63 -45.5t25 -74
q0 -21 -4 -40q-21 -101 -93.5 -153t-193.5 -52q-105 0 -155 40t-50 133v14l76 39q-6 -27 -6 -50q0 -112 148 -112q47 0 85 13.5t64.5 36t40.5 51.5t14 59q0 37 -25 58t-63 35t-82 25.5t-82 29.5t-63 48t-25 81q0 55 24 97t63 70t87.5 42.5t97.5 14.5z" />
    <glyph glyph-name="uni040E" unicode="&#x40e;" horiz-adv-x="665" 
d="M288 704l99 -447l288 447h75l-375 -570q-43 -65 -89.5 -99.5t-108.5 -34.5h-40l13 64h58q20 0 41 15t38.5 37.5t28.5 48.5t11 49q0 9 -1 14l-113 476h75z" />
    <glyph glyph-name="uni0410" unicode="&#x410;" horiz-adv-x="669" 
d="M465 621q-46 -84 -90.5 -163.5t-92.5 -164.5h229zM245 225l-126 -225h-71l396 704h79l98 -704h-72l-30 225h-274z" />
    <glyph glyph-name="uni0411" unicode="&#x411;" horiz-adv-x="585" 
d="M72 0l149 704h411l-13 -64h-339l-51 -240h194q36 0 65.5 -13t50.5 -34.5t32.5 -51t11.5 -62.5q0 -44 -20.5 -87t-55 -77t-78.5 -54.5t-91 -20.5h-266zM157 64h194q33 0 61.5 15t50.5 39t34.5 53.5t12.5 58.5q0 43 -26 74.5t-75 31.5h-194z" />
    <glyph glyph-name="uni0412" unicode="&#x412;" horiz-adv-x="640" 
d="M280 640l-51 -240h211q34 0 63 11.5t50 31.5t33 46.5t12 56.5q0 42 -28 68t-79 26h-211zM215 336l-58 -272h229q36 0 66.5 14.5t52.5 37.5t34.5 53t12.5 60q0 48 -33.5 77.5t-92.5 29.5h-211zM221 704h283q77 0 120 -40t43 -103q0 -30 -9 -59t-25.5 -54.5t-39.5 -45
t-50 -30.5q37 -14 58 -49t21 -83q0 -52 -20.5 -96t-54.5 -76t-79.5 -50t-94.5 -18h-301z" />
    <glyph glyph-name="uni0413" unicode="&#x413;" horiz-adv-x="452" 
d="M221 704h348l-14 -68h-276l-135 -636h-72z" />
    <glyph glyph-name="uni0414" unicode="&#x414;" horiz-adv-x="736" 
d="M136 0l-32 -149h-72l45 213h40q17 0 35 15.5t34.5 43.5t31 67t24.5 87l91 427h428l-136 -640h60l-45 -213h-72l32 149h-464zM392 640l-78 -363q-16 -74 -44.5 -130.5t-60.5 -82.5h344l123 576h-284z" />
    <glyph glyph-name="uni0415" unicode="&#x415;" horiz-adv-x="547" 
d="M648 704l-13 -64h-355l-50 -235h303l-15 -69h-303l-58 -272h355l-13 -64h-427l149 704h427z" />
    <glyph glyph-name="uni0416" unicode="&#x416;" horiz-adv-x="1040" 
d="M552 319l-71 87l-370 -406h-87l412 454l-234 250h110l259 -295l63 295h72l-62 -293l382 293h110l-340 -250l220 -454h-87l-198 406l-106 -84l-68 -322h-72z" />
    <glyph glyph-name="uni0417" unicode="&#x417;" horiz-adv-x="644" 
d="M450 640q-85 0 -141 -38.5t-82 -122.5l-68 32q19 52 50 90t70.5 63t87 37t98.5 12q98 0 151 -39t53 -110q0 -38 -11.5 -69t-31.5 -55.5t-47.5 -43.5t-59.5 -32q50 -12 82.5 -43t32.5 -83q0 -57 -26 -103.5t-70.5 -79t-103 -50.5t-123.5 -18q-51 0 -92 10t-70.5 31
t-45.5 53t-16 76v11t1 12l78 37q0 -5 -0.5 -9t-0.5 -9q0 -81 37 -114.5t122 -33.5q51 0 94.5 11.5t75 34t49.5 55t18 73.5q0 45 -38.5 73t-104.5 28h-92l14 69h75q34 0 66.5 12t58 32.5t40.5 48t15 59.5q0 46 -37.5 69.5t-107.5 23.5z" />
    <glyph glyph-name="uni0418" unicode="&#x418;" horiz-adv-x="657" 
d="M585 0h-72l123 583l19 36l-497 -619h-86l149 704h72l-122 -575l-21 -45l498 620h86z" />
    <glyph glyph-name="uni0419" unicode="&#x419;" horiz-adv-x="641" 
d="M378 823h254l-14 -68h-254zM569 0h-64l123 583l19 36l-497 -619h-78l149 704h64l-122 -575l-21 -45l498 620h78z" />
    <glyph glyph-name="uni041A" unicode="&#x41a;" horiz-adv-x="645" 
d="M222 704h72l-62 -293l382 293h110l-340 -250l220 -454h-87l-198 406l-106 -84l-68 -322h-72z" />
    <glyph glyph-name="uni041B" unicode="&#x41b;" horiz-adv-x="622" 
d="M508 704l90 -704h-76l-80 621l-342 -621h-76l388 704h96z" />
    <glyph glyph-name="uni041C" unicode="&#x41c;" horiz-adv-x="787" 
d="M406 80l370 624h88l-149 -704h-72l105 494l29 78l-349 -572h-77l-96 572l-6 -76l-105 -496h-72l149 704h79z" />
    <glyph glyph-name="uni041D" unicode="&#x41d;" horiz-adv-x="617" 
d="M293 704l-64 -304h329l64 304h72l-149 -704h-72l71 336h-329l-71 -336h-72l149 704h72z" />
    <glyph glyph-name="uni041E" unicode="&#x41e;" horiz-adv-x="738" 
d="M379 51q63 0 118.5 32.5t97.5 86.5t66.5 125t24.5 148q0 46 -11.5 83.5t-34 64.5t-56.5 42t-78 15q-62 0 -117.5 -30.5t-97.5 -83t-66.5 -123t-24.5 -151.5q0 -47 11.5 -85t34 -66t56 -43t77.5 -15zM138 352q18 82 54 148.5t86.5 113.5t112 72.5t129.5 25.5
q115 0 177.5 -68t62.5 -185q0 -50 -12 -107q-18 -83 -54 -150.5t-86.5 -115t-112 -73.5t-129.5 -26q-57 0 -102 18t-75.5 51.5t-46.5 81t-16 106.5q0 49 12 108z" />
    <glyph glyph-name="uni041F" unicode="&#x41f;" horiz-adv-x="617" 
d="M694 704l-149 -704h-72l136 640h-329l-136 -640h-72l149 704h473z" />
    <glyph glyph-name="uni0420" unicode="&#x420;" horiz-adv-x="553" 
d="M455 704q36 0 66 -13t51 -35t32.5 -51t11.5 -62q0 -44 -21 -87t-55.5 -77t-78.5 -54.5t-91 -20.5h-162l-64 -304h-72l149 704h234zM222 368h162q32 0 61 14.5t50.5 38t34.5 53t13 58.5q0 21 -7 40.5t-19.5 34.5t-31.5 24t-43 9h-162z" />
    <glyph glyph-name="uni0421" unicode="&#x421;" horiz-adv-x="686" 
d="M361 -13q-113 0 -174 68.5t-61 186.5q0 102 31.5 188t85 148.5t124 98t148.5 35.5q195 0 231 -203l-67 -29q-15 83 -57.5 125.5t-120.5 42.5q-62 0 -117 -31t-96 -84.5t-65 -124.5t-24 -152q0 -45 11 -83t33 -65t54.5 -42t76.5 -15q39 0 75.5 12t68 33.5t57.5 52t44 67.5
l56 -28q-61 -105 -138.5 -153t-175.5 -48z" />
    <glyph glyph-name="uni0422" unicode="&#x422;" horiz-adv-x="575" 
d="M676 704l-13 -64h-199l-136 -640h-72l136 640h-208l13 64h479z" />
    <glyph glyph-name="uni0423" unicode="&#x423;" horiz-adv-x="665" 
d="M288 704l99 -447l288 447h75l-375 -570q-43 -65 -89.5 -99.5t-108.5 -34.5h-40l13 64h58q20 0 41 15t38.5 37.5t28.5 48.5t11 49q0 9 -1 14l-113 476h75z" />
    <glyph glyph-name="uni0424" unicode="&#x424;" horiz-adv-x="849" 
d="M393 0l31 149h-98q-43 0 -77.5 13.5t-59 38t-37.5 57.5t-13 72q0 61 25 115.5t67.5 95t97.5 64.5t115 24h82l16 75h72l-16 -75h72q47 0 84.5 -14.5t63.5 -40t40 -60.5t14 -76q0 -59 -24 -111t-63.5 -92t-91.5 -63t-108 -23h-89l-31 -149h-72zM430 561q-44 0 -83.5 -16
t-69 -44.5t-46.5 -67t-17 -83.5q0 -60 38.5 -96t104.5 -36h82l73 343h-82zM511 218h72q42 0 81 15.5t69 44t48 67t18 85.5q0 60 -38.5 95.5t-104.5 35.5h-72z" />
    <glyph glyph-name="uni0425" unicode="&#x425;" horiz-adv-x="672" 
d="M679 704h85l-305 -339l173 -365h-84l-147 309l-276 -309h-85l328 365l-161 339h84l134 -285z" />
    <glyph glyph-name="uni0426" unicode="&#x426;" horiz-adv-x="685" 
d="M293 704l-136 -640h361l136 640h72l-136 -640h52l-45 -213h-72l32 149h-485l149 704h72z" />
    <glyph glyph-name="uni0427" unicode="&#x427;" horiz-adv-x="606" 
d="M331 256q-173 0 -173 153q0 34 9 78l46 217h72l-50 -236q-2 -10 -3 -19.5t-1 -18.5q0 -46 25.5 -75.5t72.5 -29.5h202l80 379h72l-149 -704h-72l54 256h-185z" />
    <glyph glyph-name="uni0428" unicode="&#x428;" horiz-adv-x="943" 
d="M293 704l-136 -640h292l136 640h72l-136 -640h291l136 640h72l-149 -704h-799l149 704h72z" />
    <glyph glyph-name="uni0429" unicode="&#x429;" horiz-adv-x="986" 
d="M293 704l-136 -640h292l136 640h72l-136 -640h291l136 640h72l-135 -636h83l-50 -237h-72l36 169h-810l149 704h72z" />
    <glyph glyph-name="uni042A" unicode="&#x42a;" horiz-adv-x="672" 
d="M367 704l-64 -304h169q42 0 75.5 -11.5t57 -32.5t36.5 -50t13 -63q0 -51 -22.5 -95t-59.5 -77t-85 -52t-100 -19h-241l136 640h-122l13 64h194zM400 64q37 0 70 13.5t57.5 36.5t39 53.5t14.5 64.5q0 47 -33 75.5t-90 28.5h-169l-58 -272h169z" />
    <glyph glyph-name="uni042B" unicode="&#x42b;" horiz-adv-x="757" 
d="M613 0l149 704h72l-149 -704h-72zM293 704l-64 -304h153q42 0 75.5 -11.5t57 -32.5t36.5 -50t13 -63q0 -51 -22.5 -95t-59.5 -77t-85 -52t-100 -19h-225l149 704h72zM310 64q37 0 70 13.5t57.5 36.5t39 53.5t14.5 64.5q0 47 -33 75.5t-90 28.5h-153l-58 -272h153z" />
    <glyph glyph-name="uni042C" unicode="&#x42c;" horiz-adv-x="598" 
d="M293 704l-64 -304h169q42 0 75.5 -11.5t57 -32.5t36.5 -50t13 -63q0 -51 -22.5 -95t-59.5 -77t-85 -52t-100 -19h-241l149 704h72zM326 64q37 0 70 13.5t57.5 36.5t39 53.5t14.5 64.5q0 47 -33 75.5t-90 28.5h-169l-58 -272h169z" />
    <glyph glyph-name="uni042D" unicode="&#x42d;" horiz-adv-x="715" 
d="M375 394h291q1 9 1 17.5v16.5q0 47 -12.5 86t-35.5 67t-56.5 43.5t-76.5 15.5q-79 0 -142 -42.5t-109 -121.5h-70q125 236 336 236q57 0 102 -19t76 -54t47.5 -83.5t16.5 -108.5q0 -105 -33.5 -190t-89 -145t-127 -92.5t-146.5 -32.5q-107 0 -164.5 58t-68.5 179h72
q1 -81 47.5 -127t126.5 -46q52 0 100 20.5t87 57t67 87t42 109.5h-295z" />
    <glyph glyph-name="uni042E" unicode="&#x42e;" horiz-adv-x="942" 
d="M230 405h126q22 70 58.5 127t84.5 97t105.5 61.5t119.5 21.5q115 0 177.5 -68t62.5 -185q0 -50 -12 -107q-18 -83 -54 -150.5t-86.5 -115t-112 -73.5t-129.5 -26q-115 0 -178 68.5t-63 186.5q0 22 2.5 45.5t7.5 48.5h-124l-71 -336h-72l149 704h72zM583 51
q63 0 118.5 32.5t97.5 86.5t66.5 125t24.5 148q0 46 -11.5 83.5t-34 64.5t-56.5 42t-78 15q-62 0 -117.5 -30.5t-97.5 -83t-66.5 -123t-24.5 -151.5q0 -47 11.5 -85t34 -66t56 -43t77.5 -15z" />
    <glyph glyph-name="uni042F" unicode="&#x42f;" horiz-adv-x="612" 
d="M312 342q-32 4 -56 17.5t-39.5 33t-23.5 43t-8 49.5q0 48 21.5 88.5t57.5 69.5t82 45t94 16h249l-149 -704h-72l71 336h-156l-261 -336h-74zM604 640h-177q-36 0 -67 -11.5t-53.5 -31t-35.5 -46t-13 -56.5q0 -38 28.5 -66.5t89.5 -28.5h177z" />
    <glyph glyph-name="uni0430" unicode="&#x430;" horiz-adv-x="580" 
d="M392 469q-72 0 -116 -28t-58 -86l-68 27q13 34 38 62t58.5 48t74 30.5t84.5 10.5q91 0 135.5 -33.5t44.5 -96.5q0 -11 -1.5 -21.5t-3.5 -22.5l-48 -227q-6 -27 -6 -41q0 -18 10 -22.5t33 -4.5l-13 -64h-23q-39 0 -58.5 16.5t-20.5 44.5q-17 -17 -40.5 -30.5t-51.5 -23.5
t-58 -15t-59 -5q-75 0 -119 31.5t-44 93.5q0 23 10 51t32 53.5t57.5 45t86.5 27.5q55 8 101 15.5t78.5 19t50.5 28.5t18 44q0 31 -32 52t-92 21zM494 286q-21 -19 -57.5 -30.5t-74.5 -19t-72 -12.5t-50 -10q-42 -14 -65 -38.5t-23 -55.5q0 -34 29.5 -51.5t77.5 -17.5
q33 0 68 7.5t65 23t51.5 40t28.5 58.5z" />
    <glyph glyph-name="uni0431" unicode="&#x431;" horiz-adv-x="538" 
d="M207 424q15 24 36.5 44.5t46.5 34.5t51 22t49 8q38 0 68.5 -13.5t52 -38.5t33 -60t11.5 -78q0 -37 -9 -77q-14 -65 -41.5 -116.5t-64.5 -87.5t-80.5 -55.5t-89.5 -19.5q-13 0 -31 1t-38 5.5t-39 15.5t-34.5 30.5t-25 49.5t-9.5 74q0 18 1.5 40t6.5 47q25 123 51 201
t59.5 126t77 73.5t105.5 43.5q22 6 44 10.5t49 7.5t61.5 4.5t81.5 1.5l-8 -25q-10 -31 -40 -39.5t-70 -10t-86.5 -4.5t-90 -22.5t-79 -64t-54.5 -128.5h5zM369 469q-39 0 -75.5 -24t-64.5 -63.5t-44.5 -89t-16.5 -100.5q0 -63 29 -102t83 -39q40 0 76 22.5t63.5 60.5
t43.5 87.5t16 103.5q0 63 -28 103.5t-82 40.5z" />
    <glyph glyph-name="uni0432" unicode="&#x432;" horiz-adv-x="537" 
d="M166 520h265q51 0 82.5 -32.5t31.5 -80.5q0 -46 -25 -81.5t-63 -54.5q30 -14 48 -38.5t18 -58.5q0 -33 -15.5 -64.5t-40 -55.5t-56 -39t-63.5 -15h-292zM178 237l-37 -173h202q20 0 39.5 8.5t34.5 23t24 33.5t9 40q0 29 -19.5 48.5t-50.5 19.5h-202zM224 456l-33 -155
h193q18 0 35.5 7.5t31 20t22 29.5t8.5 36q0 26 -18 44t-46 18h-193z" />
    <glyph glyph-name="uni0433" unicode="&#x433;" horiz-adv-x="509" 
d="M195 357l-64 25q24 73 87.5 112t151.5 39q47 0 77.5 -11t48 -27.5t24.5 -37t7 -39.5q0 -14 -3 -26q-8 -39 -26 -66t-46 -45.5t-67 -31.5t-90 -24q-23 -5 -49 -11t-48 -18t-37 -31t-15 -49q0 -35 31.5 -50t92.5 -15q57 0 102 29t61 80l58 -18q-13 -41 -37.5 -70.5t-57 -48
t-70.5 -27.5t-77 -9q-80 0 -129 29.5t-49 85.5q0 73 50 118t160 66q36 7 67.5 15.5t54.5 22t36.5 32.5t13.5 48q0 35 -28.5 50t-67.5 15q-24 0 -50 -7t-49 -21t-39.5 -34.5t-22.5 -48.5z" />
    <glyph glyph-name="uni0434" unicode="&#x434;" horiz-adv-x="668" 
d="M61 64h73l265 456h79l70 -456h85l-45 -212h-72l32 148h-428l-32 -148h-72zM204 64h275l-57 377z" />
    <glyph glyph-name="uni0435" unicode="&#x435;" horiz-adv-x="547" 
d="M170 232q-3 -21 -3 -39q0 -68 31.5 -105t84.5 -37q43 0 89 22.5t77 70.5l55 -31q-43 -57 -102 -91.5t-122 -34.5q-41 0 -75 14t-58.5 40t-38 63t-13.5 83q0 17 1.5 35t6.5 38q27 128 101.5 200.5t184.5 72.5q81 0 127 -52.5t46 -142.5q0 -18 -1.5 -37.5t-6.5 -40.5
l-6 -28h-378zM372 469q-29 0 -59 -12t-55.5 -34.5t-45 -54.5t-28.5 -72h303q2 12 3.5 23t1.5 22q0 30 -9.5 54t-26 40.5t-38.5 25t-46 8.5z" />
    <glyph glyph-name="uni0436" unicode="&#x436;" horiz-adv-x="848" 
d="M570 520l-47 -222l287 222h96l-264 -206l170 -314h-83l-145 268l-81 -61l-43 -207h-72l43 207l-55 61l-257 -268h-83l302 314l-176 206h96l193 -222l47 222h72z" />
    <glyph glyph-name="uni0437" unicode="&#x437;" horiz-adv-x="563" 
d="M367 469q-69 0 -112 -29.5t-65 -86.5l-62 24q13 37 38.5 66t59 49t73.5 30.5t82 10.5q88 0 135.5 -34t47.5 -91q0 -20 -6.5 -42.5t-19.5 -42.5t-32.5 -35.5t-44.5 -21.5q51 -17 68.5 -44t17.5 -56q0 -40 -21 -73t-58.5 -56.5t-89 -36.5t-113.5 -13q-88 0 -138.5 32.5
t-50.5 98.5v6.5t1 7.5l71 25q-2 -6 -2 -11v-10q0 -44 38 -64.5t96 -20.5q35 0 70 6.5t62.5 20t44.5 33t17 45.5q0 35 -33.5 55.5t-90.5 20.5h-74l13 64h74q31 0 55 8.5t40 22.5t24 31t8 35q0 33 -33.5 54.5t-89.5 21.5z" />
    <glyph glyph-name="uni0438" unicode="&#x438;" horiz-adv-x="537" 
d="M410 0l15 71q-32 -38 -82 -61t-103 -23q-72 0 -114.5 40.5t-42.5 111.5q0 23 6 52l70 329h72l-65 -307q-6 -27 -6 -49q0 -53 29 -83t83 -30q33 0 62.5 11t53.5 32t41.5 51t25.5 68l65 307h72l-110 -520h-72z" />
    <glyph glyph-name="uni0439" unicode="&#x439;" horiz-adv-x="537" 
d="M270 640h253l-14 -64h-253zM409 0l15 71q-32 -38 -82 -61t-103 -23q-72 0 -114.5 40.5t-42.5 111.5q0 23 6 52l70 329h72l-65 -307q-6 -27 -6 -49q0 -53 29 -83t83 -30q33 0 62.5 11t53.5 32t41.5 51t25.5 68l65 307h72l-110 -520h-72z" />
    <glyph glyph-name="uni043A" unicode="&#x43a;" horiz-adv-x="507" 
d="M238 520l-47 -222l284 222h95l-269 -206l170 -314h-83l-145 268l-72 -61l-43 -207h-72l110 520h72z" />
    <glyph glyph-name="uni043B" unicode="&#x43b;" horiz-adv-x="580" 
d="M31 64h69l279 455h84l84 -519h-77l-67 436l-263 -436h-122z" />
    <glyph glyph-name="uni043C" unicode="&#x43c;" horiz-adv-x="683" 
d="M651 520h86l-110 -520h-72l84 396l-272 -396h-59l-96 396l-84 -396h-72l110 520h90l99 -433z" />
    <glyph glyph-name="uni043D" unicode="&#x43d;" horiz-adv-x="545" 
d="M466 232h-289l-49 -232h-72l110 519h72l-48 -223h289l48 223h72l-110 -519h-72z" />
    <glyph glyph-name="uni043E" unicode="&#x43e;" horiz-adv-x="547" 
d="M383 533q40 0 73 -13.5t56.5 -39t36.5 -62t13 -82.5q0 -80 -25.5 -144t-67 -110t-94.5 -70.5t-108 -24.5q-83 0 -128.5 49t-45.5 138q0 79 25 145.5t65.5 113.5t92.5 73.5t107 26.5zM481 257q8 40 8 71q0 66 -30.5 103.5t-89.5 37.5q-45 0 -82.5 -24t-64.5 -64t-42 -92
t-15 -108q0 -62 28.5 -96t87.5 -34q37 0 69.5 15t58 42t44 65t28.5 84z" />
    <glyph glyph-name="uni043F" unicode="&#x43f;" horiz-adv-x="553" 
d="M238 520l-15 -73q32 41 81 63.5t103 22.5q75 0 119.5 -43t44.5 -114q0 -12 -1.5 -24t-3.5 -25l-69 -327h-72l65 308q2 11 3.5 21.5t1.5 21.5q0 56 -32.5 87t-86.5 31q-33 0 -63 -11.5t-54 -33t-41.5 -51t-24.5 -65.5l-65 -308h-72l110 520h72z" />
    <glyph glyph-name="uni0440" unicode="&#x440;" horiz-adv-x="546" 
d="M10 -212l156 732h64l-15 -72h4q35 43 82.5 64t92.5 21q76 0 121.5 -51.5t45.5 -142.5q0 -76 -24 -140.5t-63 -111.5t-89 -73.5t-103 -26.5q-46 0 -82.5 22.5t-49.5 67.5h-5l-62 -289h-73zM288 51q39 0 75 22.5t63.5 60.5t44.5 88t17 105q0 63 -28.5 102.5t-82.5 39.5
q-38 0 -74 -21.5t-64 -58.5t-45 -86.5t-17 -104.5q0 -31 7 -58t21.5 -46.5t35 -31t47.5 -11.5z" />
    <glyph glyph-name="uni0441" unicode="&#x441;" horiz-adv-x="528" 
d="M392 533q35 0 66 -10t54 -29t36 -47t13 -64l-69 -29q0 51 -31.5 83t-82.5 32q-45 0 -84 -24t-67.5 -63.5t-44.5 -89.5t-16 -102q0 -63 30.5 -101t92.5 -38q51 0 93.5 26.5t70.5 81.5l50 -32q-17 -34 -42 -60t-55 -44t-63.5 -27t-66.5 -9q-44 0 -78.5 14t-57.5 39.5
t-35 61.5t-12 79q0 73 25 137.5t66.5 112t95.5 75t112 27.5z" />
    <glyph glyph-name="uni0442" unicode="&#x442;" horiz-adv-x="778" 
d="M128 0h-72l110 520h72l-12 -56q29 35 67 52t77 17q46 0 79 -24t41 -72q32 45 78 70.5t94 25.5q63 0 99 -41t36 -108q0 -26 -6 -56l-69 -328h-72l69 329q5 25 5 41q0 48 -25.5 73.5t-63.5 25.5q-50 0 -86.5 -37t-50.5 -103l-69 -329h-72l69 329q5 25 5 42q0 48 -25 73
t-64 25q-24 0 -47 -9t-42.5 -27t-34 -44t-21.5 -60z" />
    <glyph glyph-name="uni0443" unicode="&#x443;" horiz-adv-x="512" 
d="M86 -148q20 0 40 14.5t37 36t28.5 45t15.5 41.5q2 8 3 16.5t1 18.5v8t-1 9l-76 479h76l66 -428l252 428h70l-324 -553q-23 -39 -46 -71.5t-47.5 -56.5t-51.5 -37.5t-57 -13.5h-40l14 64h40z" />
    <glyph glyph-name="uni0444" unicode="&#x444;" horiz-adv-x="907" 
d="M371 -212l62 289h-5q-32 -45 -78 -67.5t-92 -22.5q-76 0 -120.5 51t-44.5 139q0 81 26 146.5t67.5 112t92 72t99.5 25.5q45 0 83.5 -21t55.5 -64h4l15 72h55l-15 -72h4q35 43 82.5 64t92.5 21q76 0 121.5 -51.5t45.5 -142.5q0 -76 -24 -140.5t-63 -111.5t-89 -73.5
t-103 -26.5q-46 0 -82.5 22.5t-49.5 67.5h-5l-62 -289h-73zM649 51q39 0 75 22.5t63.5 60.5t44.5 88t17 105q0 63 -28.5 102.5t-82.5 39.5q-32 0 -62.5 -15t-56 -41.5t-44.5 -63t-28 -78.5l-4 -18q-3 -14 -4 -27.5t-1 -27.5q0 -31 7 -58t21.5 -46.5t35 -31t47.5 -11.5z
M278 51q32 0 63 16t56.5 43.5t44.5 64.5t28 78l4 18q3 14 4 28t1 28q0 63 -29 102.5t-83 39.5q-39 0 -75.5 -22.5t-64 -61t-44 -88t-16.5 -103.5q0 -63 28.5 -103t82.5 -40z" />
    <glyph glyph-name="uni0445" unicode="&#x445;" horiz-adv-x="535" 
d="M113 0h-81l252 269l-125 251h81l95 -198l179 198h81l-230 -251l138 -269h-81l-110 212z" />
    <glyph glyph-name="uni0446" unicode="&#x446;" horiz-adv-x="598" 
d="M478 0h-61l15 71q-32 -38 -82 -61t-103 -23q-72 0 -114.5 40.5t-42.5 111.5q0 23 6 52l70 329h72l-65 -307q-6 -27 -6 -49q0 -53 29 -83t83 -30q33 0 62.5 11t53.5 32t41.5 51t25.5 68l65 307h72l-97 -456h61l-43 -204h-72z" />
    <glyph glyph-name="uni0447" unicode="&#x447;" horiz-adv-x="520" 
d="M392 0l44 211q-32 -35 -77.5 -53.5t-89.5 -18.5q-72 0 -113 41t-41 111q0 25 6 54l37 175h72l-37 -175q-2 -11 -3.5 -21t-1.5 -20q0 -45 26.5 -73t80.5 -28q30 0 58 10t50.5 28.5t38.5 45t23 58.5l37 175h72l-110 -520h-72z" />
    <glyph glyph-name="uni0448" unicode="&#x448;" horiz-adv-x="816" 
d="M640 0l12 57q-28 -33 -66.5 -51.5t-78.5 -18.5q-46 0 -80.5 25.5t-39.5 68.5q-14 -23 -33.5 -40.5t-42.5 -29.5t-47.5 -18t-48.5 -6q-59 0 -92.5 37t-33.5 104q0 31 7 63l70 328h72l-69 -326q-6 -27 -6 -49q0 -45 21 -69t59 -24q24 0 47 10t42.5 28t34 44.5t21.5 59.5
l69 327h72l-69 -327q-6 -27 -6 -49q0 -45 21 -69t61 -24q24 0 47.5 10.5t43 29.5t33.5 45t21 57l69 327h72l-97 -456h56l-13 -64h-128z" />
    <glyph glyph-name="uni0449" unicode="&#x449;" horiz-adv-x="824" 
d="M696 0h-56l12 57q-28 -33 -66.5 -51.5t-78.5 -18.5q-46 0 -80.5 25.5t-39.5 68.5q-14 -23 -33.5 -40.5t-42.5 -29.5t-47.5 -18t-48.5 -6q-59 0 -92.5 37t-33.5 104q0 31 7 63l70 328h72l-69 -326q-6 -27 -6 -49q0 -45 21 -69t59 -24q24 0 47 10t42.5 28t34 44.5
t21.5 59.5l69 327h72l-69 -327q-6 -27 -6 -49q0 -45 21 -69t61 -24q24 0 47.5 10.5t43 29.5t33.5 45t21 57l69 327h72l-97 -456h56l-48 -225h-72z" />
    <glyph glyph-name="uni044A" unicode="&#x44a;" horiz-adv-x="549" 
d="M134 520h152l-38 -179h146q34 0 61.5 -11.5t46.5 -31t29 -44.5t10 -53q0 -38 -18.5 -74.5t-49 -64.5t-70 -45t-81.5 -17h-218l99 469h-80zM335 64q31 0 55.5 12.5t41.5 31.5t26.5 41.5t9.5 41.5q0 33 -22 57.5t-66 24.5h-146l-45 -209h146z" />
    <glyph glyph-name="uni044B" unicode="&#x44b;" horiz-adv-x="647" 
d="M519 0l110 520h72l-110 -520h-72zM271 64q31 0 55.5 12.5t41.5 31.5t26.5 41.5t9.5 41.5q0 33 -22 57.5t-66 24.5h-130l-45 -209h130zM330 341q34 0 61.5 -11.5t46.5 -31t29 -44.5t10 -53q0 -38 -18.5 -74.5t-49 -64.5t-70 -45t-81.5 -17h-202l110 520h72l-38 -179h130z
" />
    <glyph glyph-name="uni044C" unicode="&#x44c;" horiz-adv-x="494" 
d="M287 64q31 0 55.5 12.5t41.5 31.5t26.5 41.5t9.5 41.5q0 33 -22 57.5t-66 24.5h-146l-45 -209h146zM346 341q34 0 61.5 -11.5t46.5 -31t29 -44.5t10 -53q0 -38 -18.5 -74.5t-49 -64.5t-70 -45t-81.5 -17h-218l110 520h72l-38 -179h146z" />
    <glyph glyph-name="uni044D" unicode="&#x44d;" horiz-adv-x="516" 
d="M248 296h208q1 7 1 13.5v12.5q0 63 -30 105t-91 42q-25 0 -49.5 -8.5t-46 -23.5t-39 -36t-27.5 -46l-57 30q15 36 40.5 63.5t57 46t66 28.5t69.5 10q43 0 76.5 -14.5t57 -40.5t35.5 -62.5t12 -80.5q0 -71 -24 -134.5t-64.5 -111t-94.5 -75t-114 -27.5q-34 0 -64 9.5
t-53 28t-37 45t-16 61.5l66 25q5 -54 36 -79.5t81 -25.5q36 0 66.5 13.5t56 37.5t44 57t30.5 73h-209z" />
    <glyph glyph-name="uni044E" unicode="&#x44e;" horiz-adv-x="699" 
d="M191 299h74q16 54 43.5 97t62.5 73.5t77 47t87 16.5q40 0 73 -13.5t56.5 -39t36.5 -62t13 -82.5q0 -80 -25.5 -144t-67 -110t-94.5 -70.5t-108 -24.5q-83 0 -129 49.5t-46 138.5q0 14 1.5 28t3.5 29h-72l-49 -232h-72l110 519h72zM633 257q8 40 8 71q0 66 -30.5 103.5
t-89.5 37.5q-45 0 -82.5 -24t-64.5 -64t-42 -92t-15 -108q0 -62 28.5 -96t87.5 -34q37 0 69.5 15t58 42t44 65t28.5 84z" />
    <glyph glyph-name="uni044F" unicode="&#x44f;" horiz-adv-x="516" 
d="M230 208q-51 5 -81.5 38t-30.5 83q0 38 16.5 72.5t43.5 61t61.5 42t71.5 15.5h259l-110 -520h-73l43 207h-119l-196 -207h-79zM194 364q-2 -5 -2 -10.5v-10.5q0 -32 22 -51.5t58 -19.5h172l39 184h-172q-42 0 -75 -25t-42 -67z" />
    <glyph glyph-name="uni10D0" unicode="&#x10d0;" horiz-adv-x="472" 
d="M207 287q-30 -41 -46 -77.5t-16 -68.5q0 -38 25.5 -64t79.5 -26q47 0 77.5 22t48.5 55t25 71t7 70q0 36 -9.5 63t-26.5 50.5t-39.5 46.5t-49.5 50l59 47l49 -49t45 -54.5t33 -65t13 -81.5q0 -76 -23 -130.5t-59 -90t-79 -52t-83 -16.5t-71 11.5t-52 31t-32 46.5t-11 59
q0 41 19 87t60 95z" />
    <glyph glyph-name="uni10D1" unicode="&#x10d1;" horiz-adv-x="498" 
d="M507 233q-10 -48 -29 -92.5t-49.5 -78.5t-75.5 -54.5t-107 -20.5q-48 0 -80 12t-51.5 33t-27.5 50t-8 63q0 51 14 112t45 114t80 90t120 41l23 108h-32q-46 0 -72.5 11t-26.5 44q0 9 3 21l7 30h72l-4 -17q-2 -8 -2 -11q0 -8 7 -12t27 -4h185l20 -62h-113l-24 -113
q31 -8 52 -24t34 -38t18.5 -49t5.5 -57q0 -46 -11 -96zM435 233q5 23 8.5 46.5t3.5 45.5q0 23 -5 43.5t-17 35.5t-32 23.5t-51 8.5q-55 0 -92 -30t-59 -73.5t-31 -92.5t-9 -86q0 -22 5 -41t17.5 -32.5t33 -21.5t52.5 -8q45 0 75 15t50 40t31.5 58t19.5 69z" />
    <glyph glyph-name="uni10D2" unicode="&#x10d2;" horiz-adv-x="546" 
d="M361 500q72 0 107.5 -30.5t35.5 -82.5q0 -29 -13 -70.5t-40 -83.5q36 -21 51.5 -56t15.5 -80q0 -57 -18.5 -114.5t-55 -103.5t-91.5 -75t-128 -29q-51 0 -87 14t-58.5 38t-33 56.5t-10.5 70.5q0 60 19.5 115t57.5 97t94 67.5t129 25.5q15 0 28 -1.5t26 -3.5
q18 35 29.5 67.5t11.5 55.5q0 29 -20 44t-67 15t-95 -20.5t-87 -57.5l16 76q88 66 183 66zM438 23q2 12 4 25t2 26q0 23 -6 44.5t-20 38.5t-37.5 27.5t-58.5 10.5q-52 0 -91.5 -19t-66.5 -50.5t-40.5 -73t-13.5 -86.5q0 -27 7 -50t22 -40t39.5 -27t59.5 -10q45 0 79 15
t58.5 40.5t39.5 59t23 69.5z" />
    <glyph glyph-name="uni10D3" unicode="&#x10d3;" horiz-adv-x="813" 
d="M329 436q-41 0 -68.5 -14.5t-46.5 -41.5t-31.5 -66t-22.5 -88q-5 -23 -7.5 -45t-2.5 -42q0 -67 24.5 -120.5t71 -91t113.5 -57.5t151 -20h58l-14 -64h-60q-96 0 -173 22.5t-131.5 65.5t-84 105.5t-29.5 142.5q0 48 12 104q13 64 33 114.5t49.5 86t71.5 54.5t100 19
q37 0 61.5 -5.5t40 -16.5t23 -28t10.5 -40h4q28 46 71.5 68t117.5 22q48 0 80 -11.5t51.5 -32t28 -48.5t8.5 -61q0 -60 -15 -118.5t-47.5 -105t-83.5 -75.5t-124 -29q-48 0 -80.5 11.5t-52.5 31.5t-28.5 48.5t-8.5 61.5q0 21 3.5 44.5t7.5 47t7.5 46t3.5 41.5
q0 38 -18.5 61.5t-72.5 23.5zM482 259q-5 -21 -8 -41t-3 -37q0 -44 23.5 -71t86.5 -27q44 0 74 14t50 38t31.5 56t19.5 68q9 40 9 76q0 22 -5 40.5t-18 32t-34 21t-53 7.5q-45 0 -75 -14t-49.5 -38.5t-30.5 -56.5t-18 -68z" />
    <glyph glyph-name="uni10D4" unicode="&#x10d4;" horiz-adv-x="483" 
d="M193 -225q-78 0 -121 39.5t-43 111.5q0 23 6.5 54.5t19 66t31 70t42.5 66.5l54 -35q-18 -21 -33 -49t-25.5 -58t-16 -58t-5.5 -47q0 -46 25 -71.5t82 -25.5q26 0 49.5 8t43.5 27t35.5 51.5t26.5 82.5l66 310q4 17 4 35q0 44 -27 63.5t-70 19.5q-47 0 -95.5 -24t-88.5 -61
l18 83q88 66 183 66q66 0 110 -33.5t44 -100.5q0 -11 -1.5 -22t-3.5 -23l-65 -306q-15 -71 -40.5 -117.5t-57.5 -73.5t-69.5 -38t-77.5 -11z" />
    <glyph glyph-name="uni10D5" unicode="&#x10d5;" horiz-adv-x="509" 
d="M281 244h39q21 0 43 4.5t40.5 18t30.5 37t12 62.5q0 42 -29 56t-74 14t-95 -18.5t-88 -53.5l18 85q35 23 84 37t98 14q42 0 72 -10t49.5 -27.5t28.5 -41t9 -50.5q0 -20 -4.5 -41.5t-16 -42.5t-31 -40t-50.5 -34q32 -10 49 -34.5t17 -58.5q0 -8 -1 -16t-3 -16l-20 -95
q-13 -61 -38.5 -102.5t-59 -67t-72.5 -37t-78 -11.5q-40 0 -73.5 9.5t-57.5 28t-37 47.5t-13 68q0 46 19 100.5t54 103.5l55 -36q-28 -38 -41.5 -80t-13.5 -75q0 -27 9 -46.5t24 -32t35 -18t43 -5.5q27 0 53.5 7t49.5 24.5t41 47.5t28 76l20 94q1 5 1.5 9t0.5 9
q0 28 -19.5 51.5t-65.5 23.5h-55z" />
    <glyph glyph-name="uni10D6" unicode="&#x10d6;" horiz-adv-x="684" 
d="M138 501q12 55 36.5 94.5t57 65.5t68.5 38.5t71 12.5q27 0 51.5 -7.5t43 -22.5t29 -37t10.5 -50q0 -24 -8 -51t-19 -51q14 5 29.5 7.5t33.5 2.5q47 0 78.5 -13t51 -35.5t27.5 -52.5t8 -64q0 -57 -14.5 -118.5t-47 -113.5t-85 -85.5t-127.5 -33.5q-47 0 -79 13t-51.5 35
t-27.5 52t-8 65q0 41 9.5 83.5t31.5 80.5q-35 -16 -65 -16q-48 0 -80 34.5t-32 100.5q0 28 8 66zM623 243q5 23 8.5 46t3.5 44q0 22 -5 41.5t-16.5 33.5t-30.5 22.5t-48 8.5q-51 0 -88 -27t-61 -68.5t-36 -91t-12 -93.5q0 -23 5 -42.5t17.5 -34t33 -23t51.5 -8.5
q45 0 75.5 16.5t50.5 43.5t32 61.5t20 70.5zM420 527q6 28 6 49q0 23 -6.5 37.5t-17.5 22t-25.5 10t-29.5 2.5q-20 0 -40 -6.5t-38.5 -23.5t-34 -45.5t-24.5 -71.5q-4 -17 -6.5 -33t-2.5 -31q0 -32 16 -53t60 -21q33 0 57 15t41.5 39t28 53t16.5 57z" />
    <glyph glyph-name="uni10D7" unicode="&#x10d7;" horiz-adv-x="845" 
d="M776 243q5 25 9 49t4 47q0 21 -4.5 38.5t-16 30.5t-31 20.5t-49.5 7.5q-45 0 -74 -19t-48.5 -49.5t-31 -68.5t-20.5 -75h-1q-11 -46 -31 -88.5t-50.5 -75.5t-74.5 -53t-103 -20q-47 0 -79 13t-51.5 35t-27.5 52t-8 65q0 57 15 118.5t47.5 112.5t85 84t127.5 33
q38 0 65 -8.5t44 -23.5t26.5 -35.5t12.5 -45.5q13 25 30 45.5t40.5 35.5t53 23.5t68.5 8.5q45 0 75.5 -12t49 -32.5t26 -48.5t7.5 -61q0 -56 -13.5 -117t-44.5 -113.5t-80.5 -88t-121.5 -39.5l-4 63h1q45 0 75.5 16.5t50.5 43.5t32 61.5t20 70.5zM445 243q5 23 8 45t3 42
q0 22 -5 41.5t-17.5 34t-33 22.5t-51.5 8q-54 0 -90.5 -28t-58.5 -69.5t-31 -90t-9 -89.5q0 -23 5 -42.5t17.5 -34t33 -23t51.5 -8.5q45 0 75.5 16.5t50.5 43.5t32 61.5t20 70.5z" />
    <glyph glyph-name="uni10D8" unicode="&#x10d8;" horiz-adv-x="514" 
d="M453 240q7 36 9 71t-8 63t-35 45t-70 17t-76.5 -17t-53.5 -45t-35.5 -63t-20.5 -71q-6 -26 -8.5 -55t0 -56t10.5 -49.5t25 -34.5l-45 -58q-26 16 -40 44.5t-20 63t-4 72.5t10 73q10 49 30 95.5t53 83t79.5 59t109.5 22.5t99.5 -22.5t54 -59t18 -83t-9.5 -95.5
q-8 -36 -20.5 -74t-31.5 -72.5t-46 -62.5t-64 -44l-20 59q21 12 39 34t32 49t23.5 56t15.5 55z" />
    <glyph glyph-name="uni10D9" unicode="&#x10d9;" horiz-adv-x="509" 
d="M278 228h47q20 0 42 4.5t40.5 17.5t30.5 37t12 62q0 46 -31 67t-76 21h-4l14 64h2q34 0 65.5 -8t54.5 -25t37 -43t14 -62q0 -39 -11 -67.5t-28 -48.5t-39.5 -32t-44.5 -18q41 -14 62.5 -39t21.5 -60q0 -13 -3 -26l-17 -79q-13 -61 -39 -102.5t-60 -67t-73.5 -37
t-79.5 -11.5t-74 9t-58.5 28t-38.5 48t-14 68q0 47 19.5 101.5t54.5 103.5l55 -36q-27 -38 -41.5 -79t-14.5 -75q0 -28 9.5 -47.5t25.5 -31.5t37 -17.5t44 -5.5q27 0 54 7.5t51 25.5t42.5 47.5t27.5 72.5l17 78q1 5 1.5 9t0.5 9q0 28 -19.5 51.5t-65.5 23.5h-63z" />
    <glyph glyph-name="uni10DA" unicode="&#x10da;" horiz-adv-x="513" 
d="M163 230q-17 -79 -19.5 -146t17 -118t64.5 -85t125 -46l-12 -60q-97 11 -155 50t-85 99t-26.5 138t19.5 168q11 50 34.5 98.5t59 86.5t82 61.5t103.5 23.5t93 -21.5t55 -57t22 -81.5t-7 -94q-11 -54 -34.5 -105t-55.5 -90h-72q12 15 26 37.5t26.5 50t23.5 58t17 60.5
q7 35 6 67.5t-13 57t-36.5 39.5t-63.5 15q-28 0 -57.5 -12.5t-56 -38t-48 -64.5t-32.5 -91z" />
    <glyph glyph-name="uni10DB" unicode="&#x10db;" horiz-adv-x="506" 
d="M509 243q-10 -48 -29 -94t-50.5 -82t-76.5 -58t-107 -22q-47 0 -79 13t-51.5 35t-27.5 52t-8 65q0 57 14.5 118.5t47 112.5t84.5 84t127 33q53 0 82 -18t44 -43l19 91q2 9 3 16.5t1 15.5q0 46 -30 66t-73 20q-25 0 -52.5 -6t-53.5 -17t-49 -25.5t-39 -32.5l17 79
q45 33 94.5 49.5t96.5 16.5q33 0 62.5 -8.5t51.5 -26t35 -43.5t13 -60q0 -21 -4 -41zM437 243q5 23 8 45t3 42q0 22 -5 41.5t-17.5 34t-33 22.5t-51.5 8q-54 0 -90.5 -28t-58.5 -69.5t-31 -90t-9 -89.5q0 -23 5 -42.5t17.5 -34t33 -23t51.5 -8.5q45 0 75.5 16.5t50.5 43.5
t32 61.5t20 70.5z" />
    <glyph glyph-name="uni10DC" unicode="&#x10dc;" horiz-adv-x="514" 
d="M111 259l58 274q9 45 32.5 77t55 53t69 31t75.5 10h178l-13 -64h-175q-26 0 -50.5 -7t-45 -22t-35.5 -37.5t-22 -53.5l-18 -83q26 26 63 44.5t91 18.5q47 0 78 -12.5t50 -34.5t26.5 -51.5t7.5 -63.5q0 -58 -14.5 -120t-47 -113t-84.5 -84t-128 -33q-47 0 -79 12.5
t-51.5 35t-27.5 52t-8 64.5q0 21 2.5 44.5t8.5 46.5zM179 240q-5 -22 -8 -42.5t-3 -40.5q0 -23 5 -42t17.5 -33t33.5 -22t52 -8q54 0 90 27t57.5 68t30.5 89t9 90q0 23 -5 43t-17 35t-32.5 23.5t-51.5 8.5q-45 0 -76 -17t-51 -45t-32 -63t-19 -71z" />
    <glyph glyph-name="uni10DD" unicode="&#x10dd;" horiz-adv-x="780" 
d="M407 254q5 22 8.5 43.5t2.5 41.5q0 21 -4.5 38.5t-15 30.5t-28.5 20.5t-45 7.5q-45 0 -73 -16.5t-45.5 -44t-26.5 -62t-17 -70.5q-5 -22 -8 -43.5t-3 -41.5q0 -23 5 -42.5t17.5 -33.5t33 -22.5t52.5 -8.5l-30 -64q-42 2 -71 16t-46.5 36t-25 50.5t-7.5 61.5q0 43 11 92
q10 49 26.5 95t44.5 82t70.5 58t105.5 22q37 0 61.5 -8t39.5 -22t23 -34t11 -44q13 24 29 44t37 34t49 22t66 8q44 0 73 -11t46.5 -30.5t24.5 -46t7 -57.5q0 -37 -6 -78t-18.5 -81t-33 -76.5t-49.5 -65.5t-67 -47t-87 -20l-3 64q45 0 75.5 16.5t50.5 43.5t32 61.5t20 70.5
q6 28 11 54.5t5 49.5q0 39 -20 64t-76 25q-40 0 -67.5 -15.5t-45.5 -41t-29 -58.5t-18 -67l-16 -79h-72z" />
    <glyph glyph-name="uni10DE" unicode="&#x10de;" horiz-adv-x="501" 
d="M308 408h63q19 0 37 6.5t32.5 20t23 34t8.5 49.5q0 25 -14.5 38.5t-36 21.5t-46.5 13.5t-46.5 13.5t-36 22.5t-14.5 41.5q0 9 3 23l4 20h70l-3 -13q-1 -2 -1 -6q0 -14 14.5 -22t37 -14t48 -13t48 -19t37 -33t14.5 -55q0 -38 -9 -65.5t-23.5 -46.5t-33.5 -30.5t-39 -16.5
q36 -7 55 -32.5t19 -58.5q0 -13 -3 -26l-11 -52q-15 -70 -42 -113.5t-61.5 -67.5t-75 -32.5t-81.5 -8.5q-44 0 -75.5 13t-52.5 34.5t-31 51t-10 62.5q0 56 19 101t45 86l55 -36q-20 -35 -33.5 -72.5t-13.5 -77.5q0 -46 27.5 -72t92.5 -26q40 0 68 11.5t47 32.5t31 50t19 64
l9 43q2 10 2 17q0 14 -5.5 27.5t-17.5 24.5t-31.5 17.5t-47.5 6.5h-47z" />
    <glyph glyph-name="uni10DF" unicode="&#x10df;" horiz-adv-x="615" 
d="M247 149q24 0 44.5 13t35.5 33t23 44t8 47q0 32 -17.5 55t-57.5 23l-34 -5l14 67l330 73h72l-106 -499q-12 -54 -37.5 -95.5t-61 -70.5t-78 -44t-87.5 -15q-52 0 -98.5 15t-96.5 47l48 64q19 -12 35.5 -23.5t34 -20t37.5 -13.5t46 -5q65 0 116 37.5t68 115.5l94 441
l-178 -47q16 -20 23.5 -44t7.5 -49q0 -38 -15.5 -75t-42 -66.5t-61.5 -48t-75 -18.5q-46 0 -76 12t-47 30.5t-24 41.5t-7 44q0 26 6.5 46.5t16.5 39.5l54 -35q-5 -10 -6.5 -22.5t-1.5 -21.5q0 -20 8 -34t21 -22t30 -11.5t35 -3.5z" />
    <glyph glyph-name="uni10E0" unicode="&#x10e0;" horiz-adv-x="812" 
d="M427 270q5 21 7.5 40.5t2.5 36.5q0 40 -20.5 64.5t-75.5 24.5q-52 0 -88 -28t-58 -68.5t-32 -87.5t-10 -84q0 -21 4.5 -42t16.5 -37.5t33 -27t53 -10.5l-30 -63q-42 2 -70 16t-45 37t-24.5 52.5t-7.5 63.5q0 25 3.5 50.5t8.5 51.5l8 41q21 99 55 168t76 114.5t90.5 71.5
t98.5 39t99 16t94 3h61l-14 -64h-69q-62 0 -124 -10.5t-115 -36t-93 -68.5t-59 -109q29 32 67 54t84 22q37 0 61.5 -8t39.5 -22t23 -34t11 -44q26 48 70 78t119 30q46 0 77 -11t49.5 -30t26 -46t7.5 -58q0 -51 -14 -113t-45 -117.5t-81 -94t-122 -42.5l-3 63q57 0 94 33
t59.5 80t31.5 97t9 85q0 20 -5 36.5t-17 28.5t-32 18.5t-50 6.5q-40 0 -68 -13t-47 -35.5t-30.5 -53t-18.5 -64.5l-20 -95h-72z" />
    <glyph glyph-name="uni10E1" unicode="&#x10e1;" horiz-adv-x="497" 
d="M252 -17q-79 0 -119.5 41t-40.5 117q0 34 9 75l104 488h73l-104 -488q-7 -31 -7 -60q0 -56 26.5 -83t69.5 -27t75.5 20.5t54.5 53.5t32.5 74.5t10.5 83.5q0 51 -12.5 101t-34.5 89l71 36q23 -51 36 -108.5t13 -111.5q0 -79 -25.5 -136t-63.5 -93.5t-83 -54t-85 -17.5z
" />
    <glyph glyph-name="uni10E2" unicode="&#x10e2;" horiz-adv-x="718" 
d="M394 212l-48 -225h-72l82 387q8 38 27.5 67.5t47 50t60.5 31.5t68 11q61 0 100.5 -32t39.5 -91q0 -27 -8.5 -53t-24.5 -48.5t-39 -39t-51 -24.5q35 -11 57.5 -27t35.5 -35.5t18 -41t5 -43.5q0 -66 -25.5 -125t-72 -103.5t-112.5 -70t-147 -25.5q-145 0 -213 65.5
t-68 180.5q0 46 11 101.5t33 116t54.5 123.5t74.5 124l61 -36q-77 -113 -119 -222t-42 -194q0 -90 52.5 -142.5t163.5 -52.5q52 0 101.5 18t87.5 49t61.5 73.5t23.5 91.5q0 25 -8 50t-25 45t-43.5 33t-63.5 13h-83zM407 276h87q21 0 44.5 5.5t44 19.5t33.5 37t13 59
q0 35 -23.5 56.5t-59.5 21.5q-42 0 -75 -28t-43 -73z" />
    <glyph glyph-name="uni10E3" unicode="&#x10e3;" horiz-adv-x="567" 
d="M318 224h-72l28 129q1 5 1.5 10.5t0.5 10.5q0 32 -17 47t-42 15h-101l14 64h110q40 0 59.5 -15.5t24.5 -60.5q26 35 64.5 55.5t80.5 20.5q54 0 86.5 -33t32.5 -83q0 -16 -3 -32l-78 -368q-10 -47 -35 -85t-61 -66t-79 -43t-89 -15q-40 0 -73.5 11.5t-57.5 33t-37.5 52
t-13.5 67.5q0 22 6 46t16 48t24 47t30 42l56 -37q-14 -13 -25 -31.5t-18.5 -38.5t-11.5 -38.5t-4 -31.5q0 -49 34 -77.5t88 -28.5q31 0 60 9.5t52.5 27.5t40.5 43t24 56l80 377q1 5 1.5 9t0.5 8q0 29 -19 48t-49 19q-35 0 -64.5 -24.5t-37.5 -59.5z" />
    <glyph glyph-name="uni10E4" unicode="&#x10e4;" horiz-adv-x="806" 
d="M755 291q3 12 4 23.5t1 21.5q0 50 -25 75t-63 25q-23 0 -46.5 -9.5t-44 -28t-37 -46t-24.5 -64.5l-10 -45q-12 -53 -32 -99.5t-52 -81.5t-76 -55t-104 -20q-47 0 -79 13t-51.5 35t-27.5 52t-8 65q0 57 15 118.5t47.5 112.5t85 84t127.5 33q38 0 64 -8t43.5 -23
t26.5 -35.5t13 -44.5q34 58 85 84.5t108 26.5q29 0 54.5 -9.5t44 -28.5t29.5 -46.5t11 -64.5q0 -89 -35.5 -149t-102.5 -83q13 -6 26 -14.5t23.5 -20t17.5 -25t7 -29.5q0 -9 -1 -14l-13 -63q-11 -50 -38.5 -84t-66.5 -55t-85 -30t-92 -9q-63 0 -119 17t-92 48l49 50
q23 -21 70 -36t97 -15q34 0 67.5 4.5t61.5 17.5t48 36t28 59l9 43q1 3 1 6.5v6.5q0 30 -25.5 51.5t-61.5 21.5h-44l13 62h45q31 0 53.5 10t38 28.5t25.5 45.5t17 60zM437 243q5 23 8.5 45.5t3.5 42.5q0 22 -5 41.5t-17.5 34t-33 22.5t-51.5 8q-55 0 -91.5 -28t-58.5 -70
t-31 -90.5t-9 -89.5q0 -23 5 -42.5t17.5 -34t33 -23t51.5 -8.5q45 0 75.5 16.5t50.5 43.5t32 61.5t20 70.5z" />
    <glyph glyph-name="uni10E5" unicode="&#x10e5;" horiz-adv-x="491" 
d="M193 -225q-78 0 -119 45t-41 118q0 62 28.5 132.5t86.5 135.5l40 -51q-18 -20 -33.5 -45t-26 -52.5t-16.5 -56t-6 -53.5q0 -48 24 -78.5t80 -30.5q26 0 49 7.5t43 26t35.5 51.5t26.5 84l59 278q4 17 4 36q0 43 -26.5 63t-69.5 20q-47 0 -87.5 -21t-79.5 -58l16 76
q45 33 82.5 49.5t84.5 16.5q32 0 58.5 -12t46.5 -33l60 281h72l-100 -473l-48 -223q-16 -74 -40.5 -119.5t-56 -70.5t-68.5 -34t-78 -9z" />
    <glyph glyph-name="uni10E6" unicode="&#x10e6;" horiz-adv-x="812" 
d="M403 159l24 111q8 37 8 66q0 43 -22 71.5t-80 28.5q-47 0 -76.5 -17.5t-48 -46.5t-29 -67t-19.5 -79q-10 -44 -10 -87q0 -67 24.5 -120.5t71 -91t113.5 -57.5t151 -20h58l-14 -64h-60q-96 0 -173 22.5t-131.5 65.5t-84 105.5t-29.5 142.5q0 48 12 104q13 62 33 112.5
t50.5 86.5t73 55.5t101.5 19.5q37 0 63 -8t42.5 -22t25.5 -34t12 -44q13 28 33.5 48t45 33.5t53 20t57.5 6.5q45 0 75.5 -12t49 -32.5t26 -48.5t7.5 -61q0 -38 -9.5 -84.5t-28.5 -94.5t-48 -94.5t-68 -85.5l-52 34q37 32 62.5 75.5t41.5 88.5t23 86t7 68q0 21 -4.5 38.5
t-16 30.5t-31 20.5t-49.5 7.5q-41 0 -69 -14t-47 -37t-30 -53t-18 -62l-24 -111h-72z" />
    <glyph glyph-name="uni10E7" unicode="&#x10e7;" horiz-adv-x="505" 
d="M439 -46q-9 -45 -32.5 -78.5t-55.5 -56t-69.5 -33.5t-75.5 -11q-47 0 -90 16.5t-73 49.5l16 79q24 -37 67.5 -58t90.5 -21q25 0 49.5 7t45 21.5t36 37t21.5 53.5l32 154q-65 -62 -158 -62q-43 0 -72.5 11t-48 30t-27 45t-8.5 57q0 36 10.5 77t28 82.5t40.5 81t47 72.5
l54 -35q-17 -24 -36 -56.5t-34.5 -68.5t-26 -72.5t-10.5 -67.5q0 -41 22 -66.5t77 -25.5q24 0 49 6.5t48 22.5t43 43t32 68l51 237h71z" />
    <glyph glyph-name="uni10E8" unicode="&#x10e8;" horiz-adv-x="542" 
d="M535 234q-27 -127 -96 -187t-169 -60q-82 0 -127 39.5t-45 122.5q0 77 22 139t60 105t88.5 66t106.5 23q42 0 74 -20t51 -53l36 168q1 4 1 7.5v6.5q0 29 -21.5 42.5t-50.5 13.5q-15 0 -31 -4t-29.5 -12t-23 -20t-12.5 -28l-10 -51h-72l10 48q2 6 2 11v10q0 29 -18.5 38
t-43.5 9h-76l14 64h69q20 0 38.5 -3t32 -10.5t21.5 -21t8 -35.5v-11q12 24 29 39.5t36 24.5t39 12.5t39 3.5q24 0 46.5 -7.5t39.5 -22t27 -35.5t10 -47q0 -14 -3 -29zM463 234q6 31 6 58q0 61 -30 93.5t-78 32.5q-33 0 -66.5 -17t-61 -49.5t-44.5 -79t-17 -106.5
q0 -115 111 -115q71 0 116 47t64 136z" />
    <glyph glyph-name="uni10E9" unicode="&#x10e9;" horiz-adv-x="514" 
d="M169 534q9 45 32.5 78t56 55.5t70.5 33.5t76 11q83 0 123.5 -30t40.5 -75q0 -20 -6.5 -40.5t-21.5 -40t-39 -36.5t-60 -29l-36 48q53 12 71.5 34.5t18.5 48.5q0 25 -25 40.5t-79 15.5q-51 0 -93.5 -26t-56.5 -89l-36 -167q41 36 85.5 52t81.5 16q34 0 63 -11t50.5 -32.5
t34 -52.5t12.5 -70q0 -35 -11.5 -74t-32 -78t-48 -75t-59.5 -63l-39 48q23 21 44 50t37.5 60.5t26.5 62.5t10 57q0 29 -9 50.5t-24.5 35.5t-35.5 21t-42 7q-26 0 -53 -8.5t-51 -24t-41.5 -38.5t-23.5 -52l-52 -247h-72l113 534v0z" />
    <glyph glyph-name="uni10EA" unicode="&#x10ea;" horiz-adv-x="659" 
d="M396 244h93q26 0 48.5 9t39 23.5t25.5 32.5t9 36q0 23 -12.5 42.5t-31.5 36t-41.5 29.5t-41.5 24l56 34q19 -8 44 -21.5t47.5 -33t38 -45t15.5 -56.5q0 -18 -7.5 -41t-23 -44t-39.5 -38t-57 -24l-1 -2q40 -17 56.5 -49.5t16.5 -73.5q0 -72 -30 -129.5t-77 -97
t-104.5 -60.5t-113.5 -21q-63 0 -109.5 18.5t-77.5 52.5t-46 80.5t-15 103.5q0 103 48.5 223t154.5 248l58 -37q-45 -47 -80 -101.5t-59.5 -111t-37 -111t-12.5 -102.5q0 -53 14.5 -91t39 -62t57.5 -35t70 -11q60 0 106 20.5t76.5 52.5t46.5 71t16 76q0 25 -7 47t-21 38.5
t-34.5 26.5t-48.5 10h-61z" />
    <glyph glyph-name="uni10EB" unicode="&#x10eb;" horiz-adv-x="506" 
d="M509 243q-10 -48 -29 -94t-50.5 -82t-76.5 -58t-107 -22q-47 0 -79 13t-51.5 35t-27.5 52t-8 65q0 57 15 118.5t47.5 112.5t85 84t127.5 33q50 0 78 -21.5t39 -51.5h4l27 124q3 15 3 29q0 26 -9.5 43.5t-26.5 28.5l32 65q35 -16 56.5 -46t21.5 -75q0 -17 -5 -42zM437 243
q5 23 8 45t3 42q0 22 -5 41.5t-17.5 34t-33 22.5t-51.5 8q-54 0 -90.5 -28t-58.5 -69.5t-31 -90t-9 -89.5q0 -23 5 -42.5t17.5 -34t33 -23t51.5 -8.5q45 0 75.5 16.5t50.5 43.5t32 61.5t20 70.5z" />
    <glyph glyph-name="uni10EC" unicode="&#x10ec;" horiz-adv-x="518" 
d="M473 532h-72l11 52q1 4 1 12q0 26 -21 39t-49 13q-16 0 -32.5 -4.5t-30.5 -13t-24 -21.5t-14 -31l-36 -169h4q33 37 75 55t83 18q81 0 123.5 -39t42.5 -120q0 -42 -10 -89q-27 -127 -96.5 -187t-169.5 -60q-82 0 -126.5 39t-44.5 123q0 39 10 85l72 337q7 36 26 62.5
t44 44t53.5 26t56.5 8.5q18 0 35 -3t31.5 -11t24.5 -22t14 -36h3q9 23 21.5 37t27.5 22t31 10.5t33 2.5h91l-14 -64h-97q-19 0 -37.5 -8.5t-25.5 -40.5zM169 234q-8 -40 -8 -69q0 -56 27 -85t83 -29q71 0 116.5 47t64.5 136q6 31 6 57q0 62 -30.5 94.5t-78.5 32.5
q-29 0 -57.5 -12t-52.5 -35.5t-42.5 -58t-27.5 -78.5z" />
    <glyph glyph-name="uni10ED" unicode="&#x10ed;" horiz-adv-x="585" 
d="M426 198q-29 -23 -63 -34t-67 -11q-31 0 -58 8.5t-46.5 24.5t-31 39t-11.5 52q0 35 14.5 72.5t43.5 68t71.5 50t98.5 19.5h110l45 213h72l-45 -213h105l-14 -64h-105l-91 -430q-13 -61 -38.5 -102.5t-58.5 -67t-72 -37t-78 -11.5q-40 0 -73.5 9.5t-57.5 28t-37 47.5
t-13 68q0 38 13 83.5t39 89.5l56 -36q-17 -32 -26 -64.5t-9 -59.5t9 -46.5t24 -32t35 -18t43 -5.5q27 0 53 7t49.5 24.5t41.5 47.5t28 76zM314 217q19 0 40.5 5.5t41 16.5t33.5 27t19 37l25 120h-97q-39 0 -67.5 -12.5t-48 -32t-29 -42.5t-9.5 -45q0 -31 23.5 -52.5
t68.5 -21.5z" />
    <glyph glyph-name="uni10EE" unicode="&#x10ee;" horiz-adv-x="514" 
d="M205 704h72l-57 -267q26 26 61.5 44.5t89.5 18.5q47 0 79 -12.5t51 -34.5t27 -51.5t8 -63.5q0 -57 -14.5 -119t-47 -113t-85 -84.5t-127.5 -33.5q-47 0 -79 12.5t-51.5 35t-27.5 52t-8 64.5q0 42 11 91zM179 243q-5 -22 -7.5 -43t-2.5 -41q0 -23 5 -42.5t17 -34
t32.5 -22.5t52.5 -8q44 0 74.5 16.5t50.5 43.5t32 61t20 70q5 22 8 43.5t3 41.5q0 23 -5 42.5t-17.5 34t-33 23t-51.5 8.5q-45 0 -75.5 -16.5t-51 -44t-32 -62t-19.5 -70.5z" />
    <glyph glyph-name="uni10EF" unicode="&#x10ef;" horiz-adv-x="500" 
d="M175 415h134l31 149h73l-31 -149h133l-14 -64h-133l-20 -95q-1 -5 -1.5 -9t-0.5 -9q0 -31 21 -54t45 -48q25 -26 36.5 -55.5t11.5 -60.5q0 -45 -20 -88.5t-53 -78.5t-74.5 -56.5t-83.5 -21.5q-100 0 -148.5 44.5t-48.5 119.5q0 77 50 172l62 -27q-17 -35 -28 -68t-11 -67
q0 -47 26.5 -78.5t90.5 -31.5q38 0 68.5 15.5t51.5 39.5t32 54t11 59q0 37 -18 61.5t-39.5 46.5t-39.5 45.5t-18 58.5q0 14 3 29l22 103h-134z" />
    <glyph glyph-name="uni10F0" unicode="&#x10f0;" horiz-adv-x="485" 
d="M263 637v63h184q47 0 76 -27t29 -68q0 -31 -20.5 -61t-55.5 -44q22 -9 31 -26.5t9 -37.5q0 -29 -20.5 -59t-55.5 -45q19 -10 34.5 -31t15.5 -63q0 -11 -1 -23t-4 -26q-12 -51 -30.5 -89t-47 -63t-68 -37.5t-94.5 -12.5q-84 0 -127.5 36.5t-43.5 110.5q0 36 11 78t28 75
l65 -19q-14 -32 -22.5 -66t-8.5 -61q0 -48 28.5 -69t92.5 -21q40 0 65.5 11t41 31.5t24.5 48.5t16 63q3 16 3 31q0 35 -17.5 50t-34.5 15h-87l14 63h87q12 0 23 5.5t19.5 14.5t14 20t5.5 23q0 17 -11 29.5t-29 12.5h-87l14 63h87q12 0 23 5.5t19.5 14.5t14 20t5.5 22
q0 18 -12 30.5t-32 12.5h-171z" />
    <glyph glyph-name="uni10F1" unicode="&#x10f1;" horiz-adv-x="716" 
d="M192 409q11 40 30 92.5t47.5 100t66 80t84.5 32.5q34 0 56.5 -19.5t22.5 -58.5q0 -48 -24 -89t-60.5 -74t-81 -58t-85.5 -41l-3 -13q-7 -29 -10 -58t-3 -58q0 -41 8.5 -78t29.5 -65t56 -44.5t87 -16.5q44 0 82 10.5t65.5 29t43.5 44t16 56.5q0 22 -10.5 37t-28.5 25.5
t-43 17t-55 11.5l13 62q29 -8 48 -11t30 -3t24 3t24.5 10.5t19 20t7.5 31.5q0 31 -34 48.5t-91 31.5l13 60q51 -18 83 -18q26 0 41 18t15 44q0 14 -7 24.5t-24 23.5l-1 -1l-76 54l15 72l97 -71q29 -21 45 -47.5t16 -54.5q0 -33 -18 -59.5t-44 -42.5q19 -15 27 -34.5t8 -39.5
q0 -32 -20 -62t-52 -48q44 -31 44 -88q0 -45 -22.5 -84t-61 -67.5t-90.5 -45t-111 -16.5q-68 0 -113 21.5t-71.5 56.5t-37.5 81t-11 96q0 28 3 56.5t8 55.5l-53 -21l13 60zM406 656q-17 0 -37 -17.5t-39.5 -47.5t-36.5 -70t-29 -86q36 16 67.5 37.5t54 46t35.5 52t13 56.5
t-28 29zM260 419l4 16l-16 -7z" />
    <glyph glyph-name="uni10F2" unicode="&#x10f2;" horiz-adv-x="450" 
d="M384 -18q-26 3 -46.5 6.5t-38.5 8.5t-35 11.5t-37 15.5q-86 -32 -175 -42l12 59q50 2 108 19q-28 17 -48.5 44.5t-20.5 72.5q0 42 16 78.5t43 63.5t63 42.5t77 15.5q63 0 95.5 -33t32.5 -87q0 -39 -12 -70.5t-31 -55.5t-42.5 -41t-47.5 -29q27 -8 51.5 -13.5t47.5 -7.5z
M173 218q-3 -15 -3 -29q0 -63 70 -100q-2 0 -2 -0.5t-1 -0.5h5q-1 0 -2 1q60 26 93 65.5t33 90.5q0 33 -19 53.5t-58 20.5q-47 0 -77 -28.5t-39 -72.5z" />
    <glyph glyph-name="uni10F3" unicode="&#x10f3;" horiz-adv-x="474" 
d="M291 136q5 1 9 1h8q29 0 48.5 -8.5t31.5 -23.5t17 -35t5 -43q0 -20 -3 -42t-8 -45q-11 -49 -25.5 -92.5t-40.5 -76.5t-66.5 -52t-102.5 -19q-73 0 -107.5 33.5t-34.5 87.5q0 58 27.5 106.5t76.5 82.5l29 -35q-29 -24 -47.5 -59t-18.5 -73q0 -39 26 -61.5t67 -22.5
q37 0 62 12.5t42 36t28.5 57t20.5 75.5q8 38 8 64q0 79 -62 79q-34 0 -65 -27l-29 34l171 212h-198l12 58h300z" />
    <glyph glyph-name="uni10F4" unicode="&#x10f4;" horiz-adv-x="478" 
d="M189 102q36 0 70.5 9.5t61.5 27t43.5 42.5t16.5 56q0 28 -17.5 48t-39.5 34q-63 38 -96.5 82.5t-33.5 103.5q0 41 14 82t39.5 73.5t61 53t77.5 20.5q52 0 83 -25.5t31 -68.5q0 -19 -7.5 -39.5t-21 -40t-32.5 -37t-43 -29.5l-28 36q29 15 47.5 40t18.5 57q0 26 -17.5 37.5
t-40.5 11.5q-18 0 -38.5 -10.5t-37.5 -30t-28.5 -48.5t-11.5 -66q0 -45 25.5 -73t64.5 -54q22 -15 40.5 -29.5t31.5 -30.5t20 -33.5t7 -39.5q0 -19 -6 -43.5t-21 -49.5t-41.5 -48t-68.5 -39q43 -12 65.5 -46.5t22.5 -83.5q0 -51 -19 -97t-51 -80t-74.5 -54t-90.5 -20
q-72 0 -108 36t-36 87q0 78 70 138l31 -29q-34 -49 -34 -92q0 -34 22 -57.5t65 -23.5q36 0 65.5 15.5t50 41t32 58t11.5 65.5q0 45 -29.5 74t-100.5 29q-2 0 -3.5 -0.5t-4.5 -0.5h-20z" />
    <glyph glyph-name="uni10F5" unicode="&#x10f5;" horiz-adv-x="562" 
d="M401 381h-86q-71 0 -109 35t-38 94q0 49 17.5 87.5t47 65.5t68 41t79.5 14q60 0 92.5 -30.5t32.5 -84.5q0 -22 -4 -41l-26 -122h116l-13 -59h-116l-13 -62h116l-12 -58h-116l-26 -123q-8 -36 -25.5 -65t-42 -49t-55 -31t-64.5 -11q-66 0 -104 32t-38 91q0 46 17 85
t47 67.5t70 45t86 16.5h86zM304 261q-20 0 -46.5 -4.5t-50.5 -19.5t-41 -43.5t-17 -75.5q0 -37 22.5 -57t64.5 -20q30 0 50.5 9.5t33.5 24.5t20 32.5t10 33.5l26 120h-72zM439 559q2 8 3 16t1 17q0 13 -3.5 25t-12 21.5t-23 15t-36.5 5.5q-35 0 -60 -12.5t-41.5 -32
t-24.5 -44t-8 -49.5q0 -26 10 -42t26 -24.5t35 -11.5t37 -3h72z" />
    <glyph glyph-name="uni10F6" unicode="&#x10f6;" horiz-adv-x="707" 
d="M438 569q6 27 6 47q0 60 -52 60q-32 0 -57 -28t-36 -76h-57q9 40 26.5 70.5t40 50.5t48.5 30.5t52 10.5q19 0 36.5 -4.5t31 -16t22 -31.5t8.5 -50q0 -25 -8 -63l-50 -238q23 23 51 34.5t58 11.5t53.5 -11.5t39.5 -31t24 -46t8 -57.5q0 -55 -19.5 -100.5t-50 -78.5
t-67.5 -51.5t-72 -18.5q-28 0 -51.5 12.5t-37.5 34.5l-35 -163q-6 -26 -6 -46q0 -61 52 -61q31 0 57 28t36 76h58q-8 -39 -25.5 -69.5t-40 -51.5t-49 -31.5t-52.5 -10.5q-19 0 -37 4.5t-31.5 16t-22 31.5t-8.5 50q0 14 2 29.5t6 34.5l35 163q-23 -22 -51 -34.5t-57 -12.5
q-57 0 -92 39.5t-35 105.5q0 51 18 96.5t47.5 79.5t67.5 54t78 20q65 0 88 -46zM228 41q19 0 42.5 12.5t43.5 36t33.5 57t13.5 76.5q0 44 -20 70t-54 26q-29 0 -53 -17t-41.5 -43.5t-27.5 -58.5t-10 -62q0 -42 19 -69.5t54 -27.5zM486 41q27 0 51 17t42 43.5t28.5 58
t10.5 61.5q0 41 -18 69.5t-55 28.5q-24 0 -48 -14t-42.5 -38.5t-30.5 -57.5t-12 -71q0 -47 22 -72t52 -25z" />
    <glyph glyph-name="uni10F7" unicode="&#x10f7;" horiz-adv-x="485" 
d="M193 137q-39 33 -39 84q0 34 14 62.5t36.5 49.5t51 32.5t58.5 11.5q22 0 43 -5.5t37.5 -17.5t26 -31t9.5 -46q0 -19 -4 -36q-9 -40 -25 -68.5t-39.5 -50.5t-53 -40t-64.5 -37q-27 -15 -54 -31.5t-49 -39t-36 -52.5t-14 -71q0 -39 23.5 -65.5t78.5 -26.5q61 0 101 39
t40 108q0 40 -23 69l44 34q22 -20 33 -47.5t11 -56.5q0 -52 -21 -90.5t-53.5 -64t-71 -38t-74.5 -12.5q-40 0 -69 10.5t-48 29t-28 43.5t-9 54q0 20 5 45q13 58 42.5 96.5t66.5 65.5t76.5 47t72.5 42.5t54 51.5t21 74q0 22 -12 41t-46 19q-20 0 -36.5 -8.5t-28 -22.5
t-17.5 -31t-6 -34q0 -27 16 -52z" />
    <glyph glyph-name="uni10F8" unicode="&#x10f8;" horiz-adv-x="478" 
d="M197 377l-12 -54q-7 -32 -7 -59q0 -52 23.5 -72t55.5 -20q28 0 51 10.5t38.5 28.5t24 41.5t8.5 48.5q0 31 -11 63l57 24q18 -48 18 -88q0 -44 -17.5 -78.5t-45.5 -58.5t-63.5 -36.5t-70.5 -12.5q-63 0 -96 44l-57 -268q-3 -12 -4 -23t-1 -22q0 -86 95 -86q32 0 58.5 11.5
t45.5 31t29.5 44.5t10.5 52q0 43 -33 78l44 38q53 -39 53 -109q0 -49 -19 -87t-50 -64.5t-70.5 -40t-80.5 -13.5q-147 0 -147 127q0 26 8 64l104 486h61z" />
    <glyph glyph-name="uni10F9" unicode="&#x10f9;" 
 />
    <glyph glyph-name="uni10FA" unicode="&#x10fa;" 
 />
    <glyph glyph-name="uni10FB" unicode="&#x10fb;" horiz-adv-x="418" 
d="M295 224q5 22 23.5 37.5t40.5 15.5q19 0 31 -12.5t12 -30.5q0 -25 -20.5 -44t-44.5 -19q-20 0 -31.5 12t-11.5 30q0 7 1 11zM72 40q5 22 23.5 37.5t40.5 15.5q19 0 31 -12.5t12 -30.5q0 -25 -20.5 -44t-44.5 -19q-20 0 -31.5 12t-11.5 30q0 7 1 11zM150 408
q5 22 23.5 37.5t40.5 15.5q19 0 31 -12.5t12 -30.5q0 -25 -20.5 -44t-44.5 -19q-20 0 -31.5 12t-11.5 30q0 7 1 11z" />
    <glyph glyph-name="uni10FC" unicode="&#x10fc;" 
 />
    <glyph glyph-name="uni10FD" unicode="&#x10fd;" 
 />
    <glyph glyph-name="uni10FE" unicode="&#x10fe;" 
 />
    <glyph glyph-name="uni10FF" unicode="&#x10ff;" 
 />
    <glyph glyph-name="uni1C90" unicode="&#x1c90;" horiz-adv-x="491" 
d="M162 239q-9 -42 -9 -75q0 -55 25 -84t77 -29q37 0 70.5 18t58 52t39 83.5t14.5 111.5q0 52 -12 100.5t-29.5 93.5t-36.5 87t-34 81l63 36q15 -36 35.5 -81t39.5 -96t32.5 -106.5t13.5 -112.5q0 -75 -22 -136t-59 -104.5t-85.5 -67t-100.5 -23.5q-79 0 -120 45t-41 125
q0 51 16 102t43 96h75q-39 -50 -53 -116z" />
    <glyph glyph-name="uni1C91" unicode="&#x1c91;" horiz-adv-x="498" 
d="M507 233q-10 -48 -29 -92.5t-49.5 -78.5t-75.5 -54.5t-107 -20.5q-48 0 -80 12t-51.5 33t-27.5 50t-8 63q0 51 14 112t45 114t80 90t120 41l23 108h-32q-46 0 -72.5 11t-26.5 44q0 9 3 21l7 30h72l-4 -17q-2 -8 -2 -11q0 -8 7 -12t27 -4h153l20 -62h-81l-24 -112
q31 -8 52 -24t34 -38t18.5 -49.5t5.5 -57.5q0 -46 -11 -96zM435 233q5 23 8.5 46.5t3.5 45.5q0 23 -5 43.5t-17 35.5t-32 23.5t-51 8.5q-55 0 -92 -30t-59 -73.5t-31 -92.5t-9 -86q0 -22 5 -41t17.5 -32.5t33 -21.5t52.5 -8q45 0 75 15t50 40t31.5 58t19.5 69z" />
    <glyph glyph-name="uni1C92" unicode="&#x1c92;" horiz-adv-x="546" 
d="M406 712q72 0 106 -35t34 -89q0 -68 -49 -143q35 -21 50.5 -56t15.5 -80q0 -57 -18 -114.5t-55 -103.5t-92 -75t-128 -29q-51 0 -87 14t-58.5 38t-33 56.5t-10.5 70.5q0 60 19.5 115t57.5 97t94 67.5t129 25.5q15 0 28.5 -1.5t26.5 -3.5q17 30 27 59.5t10 53.5
q0 31 -19 50t-65 19q-47 0 -95 -20.5t-87 -57.5l16 76q88 66 183 66zM483 235q2 12 4 25t2 26q0 23 -6 44.5t-20 38.5t-37.5 27.5t-58.5 10.5q-52 0 -91.5 -19t-66.5 -50.5t-40.5 -73t-13.5 -86.5q0 -27 7 -50t22 -40t39.5 -27t59.5 -10q45 0 79 15t58.5 40.5t39.5 59
t23 69.5z" />
    <glyph glyph-name="uni1C93" unicode="&#x1c93;" horiz-adv-x="813" 
d="M374 648q-41 0 -68.5 -14.5t-46.5 -41.5t-31.5 -66t-22.5 -88q-5 -23 -7.5 -45t-2.5 -42q0 -67 24.5 -120.5t71 -90.5t113.5 -56.5t151 -19.5h58l-13 -64h-60q-96 0 -173 22.5t-132 65t-84.5 105t-29.5 142.5q0 47 12 103q13 64 33 114.5t49.5 86t71.5 54.5t100 19
q37 0 61.5 -5.5t40 -16.5t23 -28t10.5 -40h4q28 46 71.5 68t117.5 22q48 0 80 -11.5t51.5 -32t28 -48.5t8.5 -61q0 -60 -15 -118.5t-47.5 -105t-83.5 -75.5t-124 -29q-47 0 -80 11t-53 31t-29 47.5t-9 60.5q0 21 3.5 45t8 47.5t8.5 46t4 42.5q0 38 -19 62t-73 24zM527 471
q-5 -21 -8 -41t-3 -37q0 -44 23.5 -71t86.5 -27q44 0 74 14t50 38t31.5 56t19.5 68q9 40 9 76q0 22 -5 40.5t-18 32t-34 21t-53 7.5q-45 0 -75 -14t-49.5 -38.5t-30.5 -56.5t-18 -68z" />
    <glyph glyph-name="uni1C94" unicode="&#x1c94;" horiz-adv-x="483" 
d="M238 -13q-78 0 -120.5 40t-42.5 112q0 23 6.5 54.5t18.5 66t30.5 69.5t42.5 66l54 -35q-18 -21 -32.5 -49t-25 -57.5t-16.5 -57.5t-6 -48q0 -46 25 -71.5t82 -25.5q26 0 49.5 8t43.5 27t35.5 51.5t26.5 82.5l66 310q4 17 4 35q0 44 -27 63.5t-70 19.5q-47 0 -95.5 -24
t-88.5 -61l18 83q88 66 183 66q66 0 110 -33.5t44 -100.5q0 -11 -1.5 -22t-3.5 -23l-65 -306q-15 -71 -40.5 -117.5t-57.5 -73.5t-69.5 -38t-77.5 -11z" />
    <glyph glyph-name="uni1C95" unicode="&#x1c95;" horiz-adv-x="509" 
d="M326 456h39q20 0 42.5 4.5t41 17.5t30.5 37t12 62q0 43 -29.5 57t-73.5 14q-45 0 -95 -18.5t-88 -53.5l18 85q35 23 84 37t98 14q42 0 72 -10t49.5 -28t29 -41.5t9.5 -50.5q0 -20 -4.5 -42t-16.5 -42.5t-32 -39.5t-50 -33q32 -10 49 -34.5t17 -58.5q0 -8 -1 -16t-3 -16
l-20 -95q-13 -61 -38.5 -102.5t-59 -67t-72.5 -37t-78 -11.5q-40 0 -73.5 9.5t-57.5 28t-37 47.5t-13 68q0 46 19 100.5t54 103.5l55 -36q-28 -38 -41.5 -80t-13.5 -75q0 -27 9 -46.5t24 -32t35 -18t43 -5.5q27 0 53.5 7t49.5 24.5t41 47.5t28 76l20 94q1 5 1.5 9t0.5 9
q0 28 -19.5 51.5t-65.5 23.5h-55z" />
    <glyph glyph-name="uni1C96" unicode="&#x1c96;" horiz-adv-x="684" 
d="M138 501q12 55 36.5 94.5t57 65.5t68.5 38.5t71 12.5q27 0 51.5 -7.5t43 -22.5t29 -37t10.5 -50q0 -24 -8 -51t-19 -51q14 5 29.5 7.5t33.5 2.5q47 0 78.5 -13t51 -35.5t27.5 -52.5t8 -64q0 -57 -14.5 -118.5t-47 -113.5t-85 -85.5t-127.5 -33.5q-47 0 -79 13t-51.5 35
t-27.5 52t-8 65q0 41 9.5 83.5t31.5 80.5q-35 -16 -65 -16q-48 0 -80 34.5t-32 100.5q0 28 8 66zM623 243q5 23 8.5 46t3.5 44q0 22 -5 41.5t-16.5 33.5t-30.5 22.5t-48 8.5q-51 0 -88 -27t-61 -68.5t-36 -91t-12 -93.5q0 -23 5 -42.5t17.5 -34t33 -23t51.5 -8.5
q45 0 75.5 16.5t50.5 43.5t32 61.5t20 70.5zM420 527q6 28 6 49q0 23 -6.5 37.5t-17.5 22t-25.5 10t-29.5 2.5q-20 0 -40 -6.5t-38.5 -23.5t-34 -45.5t-24.5 -71.5q-4 -17 -6.5 -33t-2.5 -31q0 -32 16 -53t60 -21q33 0 57 15t41.5 39t28 53t16.5 57z" />
    <glyph glyph-name="uni1C97" unicode="&#x1c97;" horiz-adv-x="829" 
d="M816 466q5 22 8 43t3 40q0 43 -21.5 71t-80.5 28q-42 0 -71.5 -17.5t-49.5 -45t-32 -63t-19 -71.5l-48 -227q-10 -46 -29.5 -88.5t-50.5 -75.5t-75.5 -53t-103.5 -20q-47 0 -79 13t-51.5 35t-27.5 52t-8 65q0 42 11 91l47 219q10 48 29 93t50 80t76 56t107 21
q38 0 65 -8.5t44 -23.5t26.5 -35.5t12.5 -45.5q13 25 30 45.5t40.5 35.5t53 23.5t68.5 8.5q45 0 75.5 -11.5t49 -31.5t26.5 -47.5t8 -60.5q0 -23 -3.5 -47t-8.5 -50l-47 -221q-10 -47 -28.5 -91.5t-47.5 -80t-71 -58t-100 -25.5l-4 63h1q45 0 75 16.5t50.5 43.5t32.5 61.5
t20 70.5zM437 243l3.5 16.5t9 40.5t11 52.5t11 52.5t9 40t3.5 17q4 20 6.5 39.5t2.5 38.5q0 22 -5 42t-17 34.5t-33 23t-52 8.5q-44 0 -74 -15.5t-50 -41.5t-32.5 -59.5t-19.5 -69.5q0 -1 -3.5 -17t-9 -40t-11 -52.5t-11 -52.5t-9 -40.5l-3.5 -16.5q-5 -22 -8 -43t-3 -41
q0 -23 5 -42.5t17.5 -34t33 -23t51.5 -8.5q45 0 75.5 16.5t50.5 43.5t32 61.5t20 70.5z" />
    <glyph glyph-name="uni1C98" unicode="&#x1c98;" horiz-adv-x="514" 
d="M498 456q4 19 6.5 38t2.5 37q0 24 -5.5 45.5t-18.5 37.5t-34.5 25t-54.5 9q-44 0 -75.5 -16.5t-53.5 -43.5t-35.5 -61t-20.5 -70l-52 -245q-8 -38 -8 -70q0 -33 9 -59.5t31 -43.5l-46 -58q-36 23 -51.5 63t-15.5 88q0 39 9 80l52 246q10 48 30.5 93.5t53.5 81.5t79 57.5
t108 21.5q48 0 81 -13.5t53 -37t29 -54.5t9 -66q0 -21 -2.5 -42t-7.5 -43l-51 -244q-8 -36 -21.5 -70.5t-33 -64.5t-45.5 -55t-58 -41l-19 59q43 25 68.5 72t36.5 100z" />
    <glyph glyph-name="uni1C99" unicode="&#x1c99;" horiz-adv-x="509" 
d="M323 440h47q20 0 42 4.5t40.5 17.5t30.5 37t12 62q0 46 -31 67t-76 21h-4l14 64h2q34 0 65.5 -8t54.5 -25t37 -43t14 -62q0 -39 -11 -67.5t-28 -48.5t-39.5 -32t-44.5 -18q41 -14 62.5 -39t21.5 -60q0 -13 -3 -26l-17 -79q-13 -61 -39 -102.5t-60 -67t-73.5 -37
t-79.5 -11.5t-74 9t-58.5 28t-38.5 48t-14 69q0 47 19.5 101.5t54.5 102.5l55 -36q-27 -38 -41.5 -79t-14.5 -75q0 -28 9.5 -47.5t25.5 -31.5t37 -17.5t44 -5.5q27 0 54 7.5t51 25.5t42.5 47.5t27.5 72.5l17 78q1 5 1.5 9t0.5 9q0 28 -19.5 51.5t-65.5 23.5h-63z" />
    <glyph glyph-name="uni1C9A" unicode="&#x1c9a;" horiz-adv-x="513" 
d="M208 442q-17 -79 -19.5 -146t17 -118t65 -85t124.5 -46l-12 -60q-97 11 -155 50t-85 99t-26.5 138t19.5 168q11 50 34.5 98.5t59 86.5t82 61.5t103.5 23.5t93 -21.5t55 -57t22 -81.5t-7 -94q-11 -54 -34.5 -105t-55.5 -90h-72q12 15 26 37.5t26.5 50t23.5 58t17 60.5
q7 35 6 67.5t-13 57t-36.5 39.5t-63.5 15q-28 0 -57.5 -12.5t-56 -38t-48 -64.5t-32.5 -91z" />
    <glyph glyph-name="uni1C9B" unicode="&#x1c9b;" horiz-adv-x="506" 
d="M509 243q-10 -48 -29 -94t-50.5 -82t-76.5 -58t-107 -22q-47 0 -79 13t-51.5 35t-27.5 52t-8 65q0 57 14.5 118.5t47 112.5t84.5 84t127 33q53 0 82 -18t44 -43l19 91q2 9 3 16.5t1 15.5q0 46 -30 66t-73 20q-25 0 -52.5 -6t-53.5 -17t-49 -25.5t-39 -32.5l17 79
q45 33 94.5 49.5t96.5 16.5q33 0 62.5 -8.5t51.5 -26t35 -43.5t13 -60q0 -21 -4 -41zM437 243q5 23 8 45t3 42q0 22 -5 41.5t-17.5 34t-33 22.5t-51.5 8q-54 0 -90.5 -28t-58.5 -69.5t-31 -90t-9 -89.5q0 -23 5 -42.5t17.5 -34t33 -23t51.5 -8.5q45 0 75.5 16.5t50.5 43.5
t32 61.5t20 70.5z" />
    <glyph glyph-name="uni1C9C" unicode="&#x1c9c;" horiz-adv-x="514" 
d="M111 259l58 274q9 45 32.5 77t55 53t69 31t75.5 10h178l-13 -64h-175q-26 0 -50.5 -7t-45 -22t-35.5 -37.5t-22 -53.5l-18 -83q26 26 63 44.5t91 18.5q47 0 78 -12.5t50 -34.5t26.5 -51.5t7.5 -63.5q0 -58 -14.5 -120t-47 -113t-84.5 -84t-128 -33q-47 0 -79 12.5
t-51.5 35t-27.5 52t-8 64.5q0 21 2.5 44.5t8.5 46.5zM179 240q-5 -22 -8 -42.5t-3 -40.5q0 -23 5 -42t17.5 -33t33.5 -22t52 -8q54 0 90 27t57.5 68t30.5 89t9 90q0 23 -5 43t-17 35t-32.5 23.5t-51.5 8.5q-45 0 -76 -17t-51 -45t-32 -63t-19 -71z" />
    <glyph glyph-name="uni1C9D" unicode="&#x1c9d;" horiz-adv-x="780" 
d="M453 466q10 46 11 84q0 21 -4.5 39t-15 31t-29 20.5t-45.5 7.5q-44 0 -72 -16t-45.5 -42.5t-27 -60t-16.5 -68.5l-46 -218q-5 -22 -8 -43.5t-3 -41.5q0 -23 5 -42.5t17.5 -33.5t33 -22.5t52.5 -8.5l-30 -64q-42 2 -71 16t-46.5 36t-25 50.5t-7.5 61.5q0 43 11 92l47 221
q10 48 26.5 92.5t45 79t70.5 55.5t103 21q37 0 61.5 -8t39.5 -22t23 -34t11 -44q13 24 29 44t37 34t49 22t66 8q44 0 73 -11.5t46.5 -31t24.5 -46.5t7 -58q0 -24 -3.5 -50.5t-8.5 -52.5l-47 -219q-10 -47 -28.5 -91.5t-47.5 -80t-71 -58.5t-100 -26l-3 64q45 0 75 16.5
t50.5 43.5t32.5 61.5t20 70.5l47 219q5 26 9.5 50.5t4.5 46.5q0 39 -20 64t-76 25q-40 0 -67.5 -15.5t-45.5 -41t-28.5 -58.5t-17.5 -67l-52 -243h-72z" />
    <glyph glyph-name="uni1C9E" unicode="&#x1c9e;" horiz-adv-x="501" 
d="M308 408h63q19 0 37 6.5t32.5 20t23 34t8.5 49.5q0 25 -14.5 38.5t-36 21.5t-46.5 13.5t-46.5 13.5t-36 22.5t-14.5 41.5q0 9 3 23l4 20h70l-3 -13q-1 -2 -1 -6q0 -14 14.5 -22t37 -14t48 -13t48 -19t37 -33t14.5 -55q0 -38 -9 -65.5t-23.5 -46.5t-33.5 -30.5t-39 -16.5
q36 -7 55 -32.5t19 -58.5q0 -13 -3 -26l-11 -52q-15 -70 -42 -113.5t-61.5 -67.5t-75 -32.5t-81.5 -8.5q-44 0 -75.5 13t-52.5 34.5t-31 51t-10 62.5q0 56 19 101t45 86l55 -36q-20 -35 -33.5 -72.5t-13.5 -77.5q0 -46 27.5 -72t92.5 -26q40 0 68 11.5t47 32.5t31 50t19 64
l9 43q2 10 2 17q0 14 -5.5 27.5t-17.5 24.5t-31.5 17.5t-47.5 6.5h-47z" />
    <glyph glyph-name="uni1C9F" unicode="&#x1c9f;" horiz-adv-x="615" 
d="M291 353q24 0 44.5 13t35 33t22.5 44t8 47q0 32 -17.5 55t-57.5 23l-34 -5l14 67l330 73h72l-105 -492q-12 -54 -37 -95.5t-60 -70.5t-77.5 -44t-88.5 -15q-52 0 -98.5 15t-96.5 47l48 64q19 -12 35.5 -23.5t34 -20t37.5 -13.5t46 -5q65 0 116 37.5t68 115.5l92 434
l-178 -47q32 -41 32 -94q0 -37 -15.5 -74t-42.5 -66.5t-62.5 -48t-74.5 -18.5q-46 0 -76 12t-47 30.5t-24 41.5t-7 44q0 26 6.5 46.5t16.5 39.5l54 -35l-5 -17q-3 -15 -3 -26q0 -21 8 -34.5t21 -22t30.5 -12t35.5 -3.5z" />
    <glyph glyph-name="uni1CA0" unicode="&#x1ca0;" horiz-adv-x="812" 
d="M427 270q5 21 7.5 40.5t2.5 36.5q0 40 -20.5 64.5t-75.5 24.5q-52 0 -88 -28t-58 -68.5t-32 -87.5t-10 -84q0 -21 4.5 -42t16.5 -37.5t33 -27t53 -10.5l-30 -63q-42 2 -70 16t-45 37t-24.5 52.5t-7.5 63.5q0 25 3.5 50.5t8.5 51.5l8 41q21 99 55 168t76 114.5t90.5 71.5
t98.5 39t99 16t94 3h61l-14 -64h-69q-62 0 -124 -10.5t-115 -36t-93 -68.5t-59 -109q29 32 67 54t84 22q37 0 61.5 -8t39.5 -22t23 -34t11 -44q26 48 70 78t119 30q46 0 77 -11t49.5 -30t26 -46t7.5 -58q0 -51 -14 -113t-45 -117.5t-81 -94t-122 -42.5l-3 63q57 0 94 33
t59.5 80t31.5 97t9 85q0 20 -5 36.5t-17 28.5t-32 18.5t-50 6.5q-40 0 -68 -13t-47 -35.5t-30.5 -53t-18.5 -64.5l-20 -95h-72z" />
    <glyph glyph-name="uni1CA1" unicode="&#x1ca1;" horiz-adv-x="497" 
d="M252 -17q-79 0 -119.5 41t-40.5 117q0 34 9 75l104 488h73l-104 -488q-7 -31 -7 -60q0 -56 26.5 -83t69.5 -27t75.5 20.5t54.5 53.5t32.5 74.5t10.5 83.5q0 51 -12.5 101t-34.5 89l71 36q23 -51 36 -108.5t13 -111.5q0 -79 -25.5 -136t-63.5 -93.5t-83 -54t-85 -17.5z
" />
    <glyph glyph-name="uni1CA2" unicode="&#x1ca2;" horiz-adv-x="718" 
d="M432 391l-41 -192h-72l75 354q8 38 27.5 67.5t47 50t60.5 31.5t68 11q61 0 100.5 -32t39.5 -90q0 -26 -8.5 -53t-24.5 -50.5t-39 -40.5t-51 -22q36 -11 59 -26t36.5 -33t18.5 -38t5 -41q0 -67 -25.5 -122t-72 -94.5t-111.5 -61.5t-144 -22q-75 0 -128 19.5t-86.5 53
t-49 80t-15.5 100.5q0 50 12 104t33.5 109t51.5 108.5t67 103.5l61 -36q-33 -44 -61 -93.5t-49 -99.5t-33 -99.5t-12 -94.5q0 -41 11.5 -76t37.5 -60.5t67.5 -40t100.5 -14.5q51 0 99.5 14.5t86.5 42t61.5 66.5t23.5 89q0 24 -8.5 47t-26.5 41t-45 29t-64 11h-83zM445 455
h87q21 0 44.5 5.5t44 19.5t33.5 37t13 59q0 35 -23 56.5t-59 21.5q-42 0 -75.5 -28t-43.5 -73z" />
    <glyph glyph-name="uni1CA3" unicode="&#x1ca3;" horiz-adv-x="567" 
d="M552 196q-10 -47 -35.5 -85t-61 -66t-78.5 -43t-89 -15q-40 0 -73.5 11.5t-57.5 33t-37.5 52t-13.5 67.5q0 22 6 46t16 48t24 47t30 42l56 -37q-14 -13 -25 -31.5t-18.5 -38.5t-11.5 -38.5t-4 -31.5q0 -49 34 -77.5t88 -28.5q31 0 60 9.5t52.5 27.5t40.5 43t24 56l81 379
q1 5 1.5 9t0.5 8q0 29 -19.5 47t-50.5 18q-35 0 -64 -22.5t-36 -57.5l-27 -132h-72l27 129q1 5 1.5 10.5t0.5 10.5q0 32 -17 47t-42 15h-117l14 64h126q40 0 59.5 -16t24.5 -63h3q23 44 54.5 61.5t82.5 17.5q57 0 90 -34.5t33 -87.5q0 -16 -3 -34z" />
    <glyph glyph-name="uni1CA4" unicode="&#x1ca4;" horiz-adv-x="806" 
d="M800 503q3 12 4 23.5t1 21.5q0 50 -25 75t-63 25q-23 0 -46.5 -9.5t-44.5 -28t-37.5 -46t-23.5 -64.5l-6 -29q-11 -53 -31 -97t-51.5 -76t-75.5 -49.5t-103 -17.5q-48 0 -80 11.5t-52 32t-28.5 48.5t-8.5 61q0 20 3 42t8 45q10 49 28.5 92.5t49 76.5t75 52.5t107.5 19.5
q38 0 64 -8t43.5 -23t26.5 -35.5t13 -44.5q34 58 85 84.5t108 26.5q29 0 54.5 -9.5t44 -28t29.5 -46.5t11 -64q0 -88 -36 -151t-103 -86q13 -6 26 -14.5t24 -19t18 -23.5t7 -29v-6.5t-1 -6.5l-13 -63q-10 -49 -36.5 -83t-63.5 -55t-81 -30.5t-89 -9.5q-79 0 -146.5 24.5
t-109.5 62.5l51 56q15 -15 38.5 -29.5t52.5 -25.5t62.5 -17.5t68.5 -6.5q31 0 61 6t54.5 20t41.5 36t24 55l9 43q1 3 1 6.5v6.5q0 30 -25.5 51.5t-61.5 21.5h-44l13 62h45q31 0 53.5 10t38 28.5t25.5 45.5t17 60zM486 471q5 21 7.5 41.5t2.5 38.5q0 21 -5 39t-17.5 31
t-33.5 20.5t-53 7.5q-45 0 -75 -14.5t-49.5 -38.5t-31.5 -56.5t-19 -68.5q-5 -21 -7.5 -40.5t-2.5 -36.5q0 -44 23 -71.5t86 -27.5q45 0 75 14t49.5 38t31 56t19.5 68z" />
    <glyph glyph-name="uni1CA5" unicode="&#x1ca5;" horiz-adv-x="491" 
d="M238 -13q-78 0 -120.5 40t-42.5 112q0 18 4 42.5t11.5 52t19.5 56t28 54.5l59 -36q-22 -42 -37 -85t-15 -78q0 -42 24.5 -68t85.5 -26q26 0 49 7.5t43 26t35.5 51.5t26.5 84l39 182q1 5 1.5 10t0.5 10q0 21 -9 39t-24 31.5t-35 21t-43 7.5q-47 0 -87.5 -24t-80.5 -61
l17 79q45 33 83 51t85 18q32 0 64 -14t54 -47l38 181h72l-103 -484q-16 -74 -40.5 -119.5t-56 -70.5t-69 -34t-77.5 -9z" />
    <glyph glyph-name="uni1CA6" unicode="&#x1ca6;" horiz-adv-x="812" 
d="M448 371l24 111q8 37 8 66q0 43 -22 71.5t-80 28.5q-47 0 -76.5 -17.5t-48 -46.5t-29 -67t-19.5 -79q-10 -44 -10 -87q0 -67 24.5 -120.5t71 -90.5t113.5 -56.5t151 -19.5h58l-13 -64h-60q-96 0 -173 22.5t-132 65t-84.5 105t-29.5 142.5q0 47 12 103q13 62 33 112.5
t50.5 86.5t73 55.5t101.5 19.5q37 0 63 -8t42.5 -22t25.5 -34t12 -44q13 28 33.5 48t45 33.5t53 20t57.5 6.5q45 0 75.5 -12t49 -32.5t26 -48.5t7.5 -61q0 -38 -9.5 -84.5t-28.5 -94.5t-48 -94.5t-68 -85.5l-52 34q37 32 62.5 75.5t41.5 88.5t23 86t7 68q0 21 -4.5 38.5
t-16 30.5t-31 20.5t-49.5 7.5q-41 0 -69 -14t-47 -37t-30 -53t-18 -62l-24 -111h-72z" />
    <glyph glyph-name="uni1CA7" unicode="&#x1ca7;" horiz-adv-x="505" 
d="M484 166q-9 -45 -32.5 -78.5t-55.5 -56t-69.5 -33.5t-75.5 -11q-47 0 -90 16.5t-73 49.5l17 79q23 -37 66 -59t90 -22q25 0 50 7t45.5 22t35.5 38t22 54l33 154q-65 -62 -159 -62q-43 0 -72.5 11t-48 30t-27 45t-8.5 57q0 36 10.5 77t28 82.5t40.5 81t48 72.5l53 -35
q-17 -24 -36 -56.5t-34.5 -68.5t-26 -72.5t-10.5 -67.5q0 -41 22 -66.5t77 -25.5q24 0 49.5 6.5t48.5 23t43 43.5t32 68l50 236h71z" />
    <glyph glyph-name="uni1CA8" unicode="&#x1ca8;" horiz-adv-x="542" 
d="M297 580q6 28 6 43t-7.5 20t-26.5 5h-108l14 64h101q38 0 53.5 -11.5t15.5 -48.5v-12h4q26 43 63.5 57.5t74.5 14.5q24 0 46.5 -7.5t39.5 -22t27 -35.5t10 -48q0 -14 -3 -29l-72 -336q-27 -127 -96 -187t-169 -60q-82 0 -127 39.5t-45 122.5q0 41 10 85
q27 127 96.5 187.5t170.5 60.5q42 0 74 -20t51 -53l36 168q1 4 1 7.5v6.5q0 29 -21.5 43t-50.5 14q-15 0 -31 -4.5t-29.5 -12.5t-23 -20t-12.5 -28l-10 -51h-72zM463 234q6 31 6 58q0 61 -30 93.5t-78 32.5q-33 0 -66.5 -17t-61 -49.5t-44.5 -79t-17 -106.5q0 -115 111 -115
q71 0 116 47t64 136z" />
    <glyph glyph-name="uni1CA9" unicode="&#x1ca9;" horiz-adv-x="514" 
d="M169 534q9 45 32.5 78t56 55.5t70.5 33.5t76 11q83 0 123.5 -30t40.5 -75q0 -20 -6.5 -40.5t-21.5 -40t-39 -36.5t-60 -29l-36 48q53 12 71.5 34.5t18.5 48.5q0 25 -25 40.5t-79 15.5q-51 0 -93.5 -26t-56.5 -89l-36 -167q41 36 85.5 52t81.5 16q34 0 63 -11t50.5 -32.5
t34 -52.5t12.5 -70q0 -35 -11.5 -74t-32 -78t-48 -75t-59.5 -63l-39 48q23 21 44 50t37.5 60.5t26.5 62.5t10 57q0 29 -9 50.5t-24.5 35.5t-35.5 21t-42 7q-26 0 -53 -8.5t-51 -24t-41.5 -38.5t-23.5 -52l-52 -247h-72l113 534v0z" />
    <glyph glyph-name="uni1CAA" unicode="&#x1caa;" horiz-adv-x="675" 
d="M449 456h93q26 0 48.5 9t39 23.5t25.5 32.5t9 36q0 23 -12.5 42.5t-31.5 36t-41.5 29.5t-41.5 24l56 34q19 -8 44 -21.5t47.5 -33t38 -45t15.5 -56.5q0 -18 -7.5 -41t-23 -44t-39.5 -38t-57 -24l-1 -2q41 -17 57 -49t16 -73q0 -72 -29.5 -129.5t-76.5 -97.5t-105 -61
t-114 -21q-63 0 -109.5 18.5t-77.5 52.5t-46 80.5t-15 103.5q0 103 48.5 223t154.5 248l58 -37q-45 -47 -80 -101.5t-59.5 -111t-37 -111t-12.5 -102.5q0 -53 14.5 -91t39 -62t57.5 -35t70 -11q60 0 106 20.5t76.5 52.5t46.5 71t16 76q0 25 -7 47t-21 38.5t-34.5 26.5
t-48.5 10h-61z" />
    <glyph glyph-name="uni1CAB" unicode="&#x1cab;" horiz-adv-x="506" 
d="M509 243q-10 -48 -29 -94t-50.5 -82t-76.5 -58t-107 -22q-47 0 -79 13t-51.5 35t-27.5 52t-8 65q0 57 15 118.5t47.5 112.5t85 84t127.5 33q50 0 78 -21.5t39 -51.5h4l27 124q3 15 3 29q0 26 -9.5 43.5t-26.5 28.5l32 65q35 -16 56.5 -46t21.5 -75q0 -17 -5 -42zM437 243
q5 23 8 45t3 42q0 22 -5 41.5t-17.5 34t-33 22.5t-51.5 8q-54 0 -90.5 -28t-58.5 -69.5t-31 -90t-9 -89.5q0 -23 5 -42.5t17.5 -34t33 -23t51.5 -8.5q45 0 75.5 16.5t50.5 43.5t32 61.5t20 70.5z" />
    <glyph glyph-name="uni1CAC" unicode="&#x1cac;" horiz-adv-x="518" 
d="M473 533h-72l11 51q1 4 1 11q0 26 -22 39.5t-51 13.5q-32 0 -61 -17t-37 -53l-36 -169h4q33 37 75 55t83 18q81 0 123.5 -39t42.5 -120q0 -42 -10 -89q-27 -127 -96.5 -187t-169.5 -60q-82 0 -126.5 39t-44.5 123q0 39 10 85l72 337q7 33 25.5 59t43.5 44.5t54 28t57 9.5
q18 0 35 -3t31.5 -11t24.5 -22t14 -36h3q9 23 21.5 37t27.5 22t31 10.5t33 2.5h91l-14 -64h-97q-19 0 -37.5 -8.5t-25.5 -40.5zM169 234q-8 -40 -8 -69q0 -56 27 -85t83 -29q71 0 116.5 47t64.5 136q6 31 6 57q0 62 -30.5 94.5t-78.5 32.5q-29 0 -57.5 -12t-52.5 -35.5
t-42.5 -58t-27.5 -78.5z" />
    <glyph glyph-name="uni1CAD" unicode="&#x1cad;" horiz-adv-x="549" 
d="M398 296q-29 -23 -62.5 -34t-66.5 -11q-31 0 -58 8.5t-47 24.5t-31.5 39t-11.5 52q0 35 15 72.5t44 68t71.5 50t98.5 19.5h110l25 119h72l-25 -119h105l-14 -64h-105l-69 -324q-10 -46 -32 -84.5t-54 -66.5t-73.5 -43.5t-89.5 -15.5q-28 0 -49.5 3.5t-39 11.5t-33 20.5
t-31.5 30.5l57 47q11 -12 21 -21t22 -15.5t27.5 -9.5t36.5 -3q35 0 63 11.5t49 31.5t34.5 47t20.5 59zM286 315q19 0 40.5 5.5t41 16.5t34 27t19.5 37l25 120h-97q-39 0 -67.5 -12.5t-48 -32t-29 -43t-9.5 -45.5q0 -30 23 -51.5t68 -21.5z" />
    <glyph glyph-name="uni1CAE" unicode="&#x1cae;" horiz-adv-x="514" 
d="M205 704h72l-57 -267q26 26 61.5 44.5t89.5 18.5q47 0 79 -12.5t51 -34.5t27 -51.5t8 -63.5q0 -57 -14.5 -119t-47 -113t-85 -84.5t-127.5 -33.5q-47 0 -79 12.5t-51.5 35t-27.5 52t-8 64.5q0 42 11 91zM179 243q-5 -22 -7.5 -43t-2.5 -41q0 -23 5 -42.5t17 -34
t32.5 -22.5t52.5 -8q44 0 74.5 16.5t50.5 43.5t32 61t20 70q5 22 8 43.5t3 41.5q0 23 -5 42.5t-17.5 34t-33 23t-51.5 8.5q-45 0 -75.5 -16.5t-51 -44t-32 -62t-19.5 -70.5z" />
    <glyph glyph-name="uni1CAF" unicode="&#x1caf;" horiz-adv-x="500" 
d="M213 595h134l23 109h73l-23 -109h133l-14 -64h-133l-13 -63q-1 -5 -1.5 -9t-0.5 -8q1 -32 21.5 -55t44.5 -48q48 -51 48 -116q0 -45 -20 -88.5t-53 -78.5t-74.5 -56.5t-83.5 -21.5q-100 0 -148.5 44.5t-48.5 119.5q0 77 50 172l62 -27q-17 -35 -28 -68t-11 -67
q0 -47 26.5 -78.5t90.5 -31.5q38 0 68.5 15.5t51.5 39.5t32 54t11 59q0 37 -18 61.5t-39.5 46.5t-39.5 45.5t-18 58.5q0 14 3 29l15 71h-134z" />
    <glyph glyph-name="uni1CB0" unicode="&#x1cb0;" horiz-adv-x="485" 
d="M263 637v63h184q47 0 76 -27t29 -68q0 -31 -20.5 -61t-55.5 -44q22 -9 31 -26.5t9 -37.5q0 -29 -20.5 -59t-55.5 -45q19 -10 34.5 -31t15.5 -63q0 -11 -1 -23t-4 -26q-12 -51 -30.5 -89t-47 -63t-68 -37.5t-94.5 -12.5q-84 0 -127.5 36.5t-43.5 110.5q0 36 11 78t28 75
l65 -19q-14 -32 -22.5 -66t-8.5 -61q0 -48 28.5 -69t92.5 -21q40 0 65.5 11t41 31.5t24.5 48.5t16 63q3 16 3 31q0 35 -17.5 50t-34.5 15h-87l14 63h87q12 0 23 5.5t19.5 14.5t14 20t5.5 23q0 17 -11 29.5t-29 12.5h-87l14 63h87q12 0 23 5.5t19.5 14.5t14 20t5.5 22
q0 18 -12 30.5t-32 12.5h-171z" />
    <glyph glyph-name="uni1CB1" unicode="&#x1cb1;" 
d="M192 409q11 40 30 92.5t47.5 100t66 80t84.5 32.5q34 0 56.5 -19.5t22.5 -58.5q0 -48 -24 -89t-60.5 -74t-81 -58t-85.5 -41l-3 -13q-7 -29 -10 -58t-3 -58q0 -41 8.5 -78t29.5 -65t56 -44.5t87 -16.5q44 0 82 10.5t65.5 29t43.5 44t16 56.5q0 22 -10.5 37t-28.5 25.5
t-43 17t-55 11.5l13 62q29 -8 48 -11t30 -3t24 3t24.5 10.5t19 20t7.5 31.5q0 31 -34 48.5t-91 31.5l13 60q51 -18 83 -18q26 0 41 18t15 44q0 14 -7 24.5t-24 23.5l-1 -1l-76 54l15 72l97 -71q29 -21 45 -47.5t16 -54.5q0 -33 -18 -59.5t-44 -42.5q19 -15 27 -34.5t8 -39.5
q0 -32 -20 -62t-52 -48q44 -31 44 -88q0 -45 -22.5 -84t-61 -67.5t-90.5 -45t-111 -16.5q-68 0 -113 21.5t-71.5 56.5t-37.5 81t-11 96q0 28 3 56.5t8 55.5l-53 -21l13 60zM406 656q-17 0 -37 -17.5t-39.5 -47.5t-36.5 -70t-29 -86q36 16 67.5 37.5t54 46t35.5 52t13 56.5
t-28 29zM260 419l4 16l-16 -7z" />
    <glyph glyph-name="uni1CB2" unicode="&#x1cb2;" horiz-adv-x="450" 
d="M384 -18q-35 0 -80 15t-86 45q-38 -20 -80 -34.5t-86 -25.5l12 59q64 2 125 26q-32 31 -52.5 71.5t-20.5 91.5q0 12 1 24.5t4 25.5l56 265q7 33 25 63t44.5 53t59 36.5t67.5 13.5q31 0 54.5 -10.5t39.5 -28.5t24 -42.5t8 -52.5v-15.5t-2 -15.5l-52 -244
q-16 -75 -63.5 -132.5t-114.5 -99.5q18 -9 37.5 -15t36.5 -9t31.5 -4t23.5 -2zM186 282q-7 -34 -7 -65q0 -46 15.5 -76.5t40.5 -50.5q53 32 90 80.5t51 111.5l56 263q3 12 3 25q0 33 -19 58t-56 25q-22 0 -41.5 -9.5t-35.5 -24.5t-26.5 -34.5t-14.5 -39.5z" />
    <glyph glyph-name="uni1CB3" unicode="&#x1cb3;" horiz-adv-x="474" 
d="M360 458q5 1 8.5 1h7.5q29 0 48.5 -8.5t31.5 -23.5t17 -35t5 -43q0 -20 -3 -42t-8 -45q-11 -49 -26.5 -98t-43 -88.5t-69 -64t-103.5 -24.5q-73 0 -107.5 35t-34.5 89q0 57 28 106t76 83l30 -35q-29 -24 -48 -58.5t-19 -72.5q0 -39 26 -61t68 -22q37 0 63 17t44.5 46.5
t30.5 67.5t21 80q8 40 8 65q0 78 -61 78q-34 0 -65 -27l-30 34l176 236h-198l12 56h300z" />
    <glyph glyph-name="uni1CB4" unicode="&#x1cb4;" horiz-adv-x="478" 
d="M236 323h53q24 0 46.5 1.5t39.5 7.5t27.5 18t10.5 34q0 17 -15.5 28.5t-38 21t-49.5 20t-49.5 24.5t-38 34.5t-15.5 50.5q0 38 16.5 66t42 46.5t56.5 27.5t60 9q53 0 84 -27t31 -61q0 -25 -20.5 -56t-69.5 -48l-28 37q29 9 45.5 26t16.5 34q0 19 -19 31t-52 12
q-16 0 -33.5 -3.5t-32 -12.5t-24 -24t-9.5 -38q0 -24 15.5 -39.5t38.5 -27.5t49.5 -22.5t49.5 -24t38.5 -32t15.5 -45.5q0 -38 -26.5 -66t-91.5 -37q45 -11 68 -35.5t23 -66.5q0 -45 -17.5 -82t-48 -63t-71.5 -40t-88 -14q-74 0 -110.5 33t-36.5 80q0 65 66 116l40 -32
q-21 -20 -30 -38.5t-9 -34.5q0 -27 24.5 -43.5t67.5 -16.5q71 0 109.5 31.5t38.5 96.5q0 27 -11.5 44.5t-31 28t-45 14.5t-53.5 4h-20z" />
    <glyph glyph-name="uni1CB5" unicode="&#x1cb5;" horiz-adv-x="534" 
d="M401 381h-86q-71 0 -109.5 32.5t-38.5 91.5q0 49 17.5 87.5t47 65t68 40.5t79.5 14q60 0 92.5 -30.5t32.5 -84.5q0 -22 -4 -41l-25 -116h116l-13 -59h-116l-13 -62h116l-12 -58h-116l-25 -119q-8 -36 -25.5 -65t-42 -49t-55 -31t-64.5 -11q-66 0 -104 32t-38 91
q0 46 17 84.5t46.5 66.5t69.5 43.5t86 15.5h86zM304 261q-21 0 -44 -3t-44.5 -14.5t-38.5 -33.5t-25 -60q-3 -15 -3 -28q0 -37 23 -57t65 -20q30 0 50 9.5t33 24.5t20.5 32.5t10.5 33.5l25 116h-72zM438 553q2 8 3 16t1 16q0 13 -3.5 25t-12 21.5t-23.5 15.5t-37 6
q-35 0 -60 -12.5t-41 -32t-24 -44t-8 -48.5q0 -26 10.5 -41t26 -22.5t35 -10t37.5 -2.5h72z" />
    <glyph glyph-name="uni1CB6" unicode="&#x1cb6;" horiz-adv-x="707" 
d="M440 575q5 25 5 38q0 27 -15 34t-42 7q-26 0 -46 -8.5t-32 -36.5h-58q10 30 26.5 50t36.5 32t43 16.5t46 4.5q19 0 37.5 -1.5t33.5 -9.5t24 -24t9 -46q0 -25 -7 -56l-22 -102q23 23 52.5 42.5t59.5 19.5q62 0 95.5 -36t33.5 -95q0 -56 -19.5 -99t-49.5 -72.5t-66.5 -44.5
t-70.5 -15q-22 0 -35.5 6t-22.5 15t-14.5 20t-12.5 22l-22 -100q-3 -12 -4 -22t-1 -18q0 -29 14.5 -40t40.5 -11q25 0 45 7t32 36h59q-11 -30 -27 -50t-36 -31.5t-42.5 -16t-46.5 -4.5q-19 0 -37.5 3t-32.5 12t-23 27t-9 48q0 28 7 60l22 100q-12 -11 -23 -22t-24 -20
t-28.5 -15t-36.5 -6q-57 0 -93.5 34.5t-36.5 98.5q0 53 18 95.5t47 72t66 45.5t76 16q32 0 52.5 -19t32.5 -43zM527 232q26 0 49.5 13t41 35.5t27.5 51.5t10 61q0 38 -19 61t-57 23q-23 0 -46 -10t-41.5 -30t-30 -49.5t-11.5 -69.5q0 -45 23.5 -65.5t53.5 -20.5zM269 232
q18 0 40.5 9t42 29t33 51t13.5 75q0 42 -21.5 61.5t-55.5 19.5q-27 0 -50 -12.5t-40.5 -34t-27.5 -50.5t-10 -61q0 -40 19.5 -63.5t56.5 -23.5z" />
    <glyph glyph-name="uni1CB7" unicode="&#x1cb7;" horiz-adv-x="479" 
d="M264 472q-39 33 -39 84q0 34 14 62.5t36.5 49.5t51 32.5t58.5 11.5q22 0 43 -5.5t37.5 -17.5t26 -31t9.5 -46q0 -19 -4 -36q-12 -55 -38.5 -91.5t-60.5 -63t-72 -49t-72 -49t-60.5 -63t-38.5 -91.5q-3 -17 -3 -31q0 -39 23.5 -65.5t78.5 -26.5q61 0 101 39t40 108
q0 40 -23 69l44 34q22 -20 33 -47.5t11 -56.5q0 -52 -21 -90.5t-53.5 -64t-71 -38t-74.5 -12.5q-40 0 -69 10.5t-48 29t-28 43.5t-9 54q0 20 5 45q12 57 39.5 97.5t62.5 71t73.5 55t72 50t59 55.5t34.5 72q1 5 1.5 10t0.5 11q0 11 -2.5 22t-9 20t-17.5 15t-28 6
q-21 0 -37 -8.5t-27.5 -22.5t-17.5 -31t-6 -33q0 -28 15 -53z" />
    <glyph glyph-name="uni1CB8" unicode="&#x1cb8;" horiz-adv-x="478" 
d="M266 705l-11 -54q-4 -17 -6 -32t-1 -28q0 -51 23.5 -71t55.5 -20q29 0 51.5 11t38.5 29.5t24 42t8 48.5q0 29 -11 61l57 24q18 -48 18 -88q0 -44 -17.5 -78.5t-46 -58.5t-64 -36.5t-70.5 -12.5q-62 0 -95 44l-66 -309q-3 -12 -4 -23t-1 -22q0 -86 95 -86q32 0 58.5 11.5
t45.5 31t29.5 44.5t10.5 52q0 43 -33 78l44 38q53 -39 53 -109q0 -49 -19 -87t-50 -64.5t-70.5 -40t-80.5 -13.5q-147 0 -147 127q0 26 8 64l112 527h61z" />
    <glyph glyph-name="uni1CB9" unicode="&#x1cb9;" 
 />
    <glyph glyph-name="uni1CBA" unicode="&#x1cba;" 
 />
    <glyph glyph-name="uni1CBB" unicode="&#x1cbb;" horiz-adv-x="418" 
d="M295 224q5 22 23.5 37.5t40.5 15.5q19 0 31 -12.5t12 -30.5q0 -25 -20.5 -44t-44.5 -19q-20 0 -31.5 12t-11.5 30q0 7 1 11zM72 40q5 22 23.5 37.5t40.5 15.5q19 0 31 -12.5t12 -30.5q0 -25 -20.5 -44t-44.5 -19q-20 0 -31.5 12t-11.5 30q0 7 1 11zM150 408
q5 22 23.5 37.5t40.5 15.5q19 0 31 -12.5t12 -30.5q0 -25 -20.5 -44t-44.5 -19q-20 0 -31.5 12t-11.5 30q0 7 1 11z" />
    <glyph glyph-name="uni1CBC" unicode="&#x1cbc;" 
 />
    <glyph glyph-name="uni1CBD" unicode="&#x1cbd;" 
 />
    <glyph glyph-name="uni1CBE" unicode="&#x1cbe;" 
 />
    <glyph glyph-name="uni1CBF" unicode="&#x1cbf;" 
 />
    <glyph glyph-name="endash" unicode="&#x2013;" 
 />
    <glyph glyph-name="emdash" unicode="&#x2014;" 
 />
    <glyph glyph-name="quoteleft" unicode="&#x2018;" 
 />
    <glyph glyph-name="quoteright" unicode="&#x2019;" horiz-adv-x="217" 
d="M203 658q5 22 24 37.5t41 15.5q19 0 30.5 -12t11.5 -29q0 -8 -1 -12l-66 -158h-43l45 105q-20 0 -31.5 12t-11.5 30q0 7 1 11z" />
    <glyph glyph-name="quotesinglbase" unicode="&#x201a;" horiz-adv-x="216" 
d="M72 39q5 22 23.5 37.5t40.5 15.5q19 0 31 -12.5t12 -30.5q0 -7 -1 -10l-67 -158h-43l46 105q-20 0 -31.5 12t-11.5 30q0 7 1 11z" />
    <glyph glyph-name="quotedblleft" unicode="&#x201c;" horiz-adv-x="402" 
d="M454 546q-5 -22 -24 -37.5t-41 -15.5q-19 0 -31 11.5t-12 29.5q0 4 2 12l66 158h43l-45 -105q19 0 31 -12.5t12 -30.5q0 -7 -1 -10zM286 546q-5 -22 -24 -37.5t-41 -15.5q-19 0 -31 11.5t-12 29.5q0 4 2 12l66 158h43l-45 -105q19 0 31 -12.5t12 -30.5q0 -7 -1 -10z" />
    <glyph glyph-name="quotedblright" unicode="&#x201d;" horiz-adv-x="402" 
d="M203 658q5 22 24 37.5t41 15.5q19 0 30.5 -12t11.5 -29q0 -8 -1 -12l-66 -158h-43l45 105q-20 0 -31.5 12t-11.5 30q0 7 1 11zM371 658q5 22 24 37.5t41 15.5q19 0 30.5 -12t11.5 -29q0 -8 -1 -12l-66 -158h-43l45 105q-20 0 -31.5 12t-11.5 30q0 7 1 11z" />
    <glyph glyph-name="quotedblbase" unicode="&#x201e;" horiz-adv-x="402" 
d="M72 39q5 22 23.5 37.5t40.5 15.5q19 0 31 -12.5t12 -30.5q0 -7 -1 -10l-67 -158h-43l46 105q-20 0 -31.5 12t-11.5 30q0 7 1 11zM240 39q5 22 23.5 37.5t40.5 15.5q19 0 31 -12.5t12 -30.5q0 -7 -1 -10l-67 -158h-43l46 105q-20 0 -31.5 12t-11.5 30q0 7 1 11z" />
    <glyph glyph-name="dagger" unicode="&#x2020;" horiz-adv-x="500" 
d="M438 700l-41 -192h185l-14 -68h-185l-133 -625h-81l133 625h-184l14 68h184l41 192h81z" />
    <glyph glyph-name="bullet" unicode="&#x2022;" horiz-adv-x="382" 
d="M374 268q-6 -30 -21.5 -55t-36.5 -43.5t-46 -28.5t-52 -10q-50 0 -75.5 29.5t-25.5 74.5q0 33 12.5 63.5t34.5 54t51 38t62 14.5q48 0 74 -30t26 -75q0 -16 -3 -32z" />
    <glyph glyph-name="ellipsis" unicode="&#x2026;" horiz-adv-x="666" 
d="M72 40q5 22 23.5 37.5t40.5 15.5q19 0 31 -12.5t12 -30.5q0 -25 -20.5 -44t-44.5 -19q-20 0 -31.5 12t-11.5 30q0 7 1 11zM294 40q5 22 23.5 37.5t40.5 15.5q19 0 31 -12.5t12 -30.5q0 -25 -20.5 -44t-44.5 -19q-20 0 -31.5 12t-11.5 30q0 7 1 11zM516 40q5 22 23.5 37.5
t40.5 15.5q19 0 31 -12.5t12 -30.5q0 -25 -20.5 -44t-44.5 -19q-20 0 -31.5 12t-11.5 30q0 7 1 11z" />
    <glyph glyph-name="perthousand" unicode="&#x2030;" horiz-adv-x="1092" 
d="M572 243q-26 0 -49 -11.5t-40 -30t-26.5 -42.5t-9.5 -49q0 -34 20 -57t60 -23q26 0 48.5 11.5t39 30t26 42.5t9.5 49q0 35 -20 57.5t-58 22.5zM513 -37q-29 0 -53 10.5t-41 29t-27 43.5t-10 54q0 39 17.5 77t46 68t65.5 48t76 18q28 0 51.5 -11t40.5 -29.5t26.5 -44
t9.5 -53.5q0 -41 -17.5 -79t-46 -67t-65 -46.5t-73.5 -17.5zM369 674q-27 0 -49.5 -11.5t-39 -30t-26 -43t-9.5 -50.5q0 -33 19 -55.5t59 -22.5q27 0 49.5 11.5t39 30t26 42.5t9.5 50q0 36 -21.5 57.5t-56.5 21.5zM309 393q-30 0 -54 10.5t-40.5 28.5t-25.5 42.5t-9 53.5
q0 43 18 82t47.5 68t65.5 46t72 17q27 0 51 -10.5t41 -29t27 -43.5t10 -55q0 -42 -18 -80t-47 -67t-65 -46t-73 -17zM918 243q-26 0 -49 -11.5t-39.5 -30.5t-26 -43t-9.5 -49q0 -34 19.5 -56.5t59.5 -22.5q24 0 46 10.5t39 28.5t27 42.5t10 52.5q0 35 -20 57t-57 22z
M859 -37q-29 0 -52.5 10t-41 28t-27 43t-9.5 55q0 41 18 79.5t46.5 68t65 47t74.5 17.5q29 0 52.5 -10.5t40 -28.5t25.5 -43t9 -53q0 -42 -17.5 -81t-46 -68t-64.5 -46.5t-73 -17.5zM752 723l-537 -742h-74l538 742h73z" />
    <glyph glyph-name="guilsinglleft" unicode="&#x2039;" horiz-adv-x="350" 
d="M255 54l-139 192l9 43l221 192l32 -45l-192 -168q29 -40 60.5 -85t60.5 -84z" />
    <glyph glyph-name="guilsinglright" unicode="&#x203a;" horiz-adv-x="350" 
d="M276 268l-120 168l53 45l138 -192l-9 -43l-220 -192l-33 45z" />
    <glyph glyph-name="Euro" unicode="&#x20ac;" horiz-adv-x="738" 
d="M289 247q-1 -6 -1 -11.5v-11.5q0 -78 34 -125.5t114 -47.5q61 0 104.5 27t77.5 76h79q-45 -91 -114 -129t-160 -38q-107 0 -157 62t-50 169v14t1 15h-117l62 66h63l14 71h-110l62 67h68q22 59 52.5 107.5t70.5 82.5t88.5 52.5t106.5 18.5q97 0 149.5 -45.5t56.5 -153.5
h-70q-1 72 -40 103.5t-110 31.5q-43 0 -78.5 -14.5t-64 -40.5t-50.5 -62t-38 -80h277l-62 -67h-235l-8 -32l-7 -39h283l-62 -66h-229z" />
    <glyph glyph-name="uni20BE" unicode="&#x20be;" horiz-adv-x="806" 
d="M660 600l-56 -262l-83 -52l67 314h-96l-56 -262l-83 -52l67 314h-18q-44 0 -71.5 -13.5t-44 -37t-25.5 -54.5t-16 -66l-30 -141q-4 -16 -4 -36q0 -33 12 -66.5t34.5 -60.5t54 -44t71.5 -17h307l-45 -64h-573l45 64h103q-43 21 -63.5 66.5t-20.5 97.5q0 15 2 30.5t5 29.5
l30 144q10 48 26.5 90t44 73.5t69 50t102.5 18.5h19l8 41l83 52l-19 -93h96l8 41l83 52l-19 -93h9q45 0 74.5 -10t47 -28.5t25 -43.5t7.5 -55q0 -23 -3.5 -47t-8.5 -50l-26 -123l-87 -68l41 191q5 25 9 47t4 42q0 37 -20 59t-78 22h-8z" />
    <glyph glyph-name="trademark" unicode="&#x2122;" horiz-adv-x="832" 
d="M484 704l-14 -68h-105l-57 -269h-63l57 269h-103l14 68h271zM621 704l54 -255l162 255h80l-71 -337h-64l42 201l-136 -201h-61l-50 203l-43 -203h-50l57 337h80z" />
    <glyph glyph-name="accent" horiz-adv-x="211" 
d="M210 689q4 17 18.5 29.5t31.5 12.5q15 0 24.5 -9.5t9.5 -23.5q0 -20 -16.5 -35t-35.5 -15q-15 0 -24 9t-9 23q0 6 1 9z" />
    <glyph glyph-name="uni10D0.case" horiz-adv-x="491" 
d="M162 239q-9 -42 -9 -75q0 -55 25 -84t77 -29q37 0 70.5 18t58 52t39 83.5t14.5 111.5q0 52 -12 100.5t-29.5 93.5t-36.5 87t-34 81l63 36q15 -36 35.5 -81t39.5 -96t32.5 -106.5t13.5 -112.5q0 -75 -22 -136t-59 -104.5t-85.5 -67t-100.5 -23.5q-79 0 -120 45t-41 125
q0 51 16 102t43 96h75q-39 -50 -53 -116z" />
    <glyph glyph-name="uni10D1.case" horiz-adv-x="498" 
d="M507 233q-10 -48 -29 -92.5t-49.5 -78.5t-75.5 -54.5t-107 -20.5q-48 0 -80 12t-51.5 33t-27.5 50t-8 63q0 51 14 112t45 114t80 90t120 41l23 108h-32q-46 0 -72.5 11t-26.5 44q0 9 3 21l7 30h72l-4 -17q-2 -8 -2 -11q0 -8 7 -12t27 -4h153l20 -62h-81l-24 -112
q31 -8 52 -24t34 -38t18.5 -49.5t5.5 -57.5q0 -46 -11 -96zM435 233q5 23 8.5 46.5t3.5 45.5q0 23 -5 43.5t-17 35.5t-32 23.5t-51 8.5q-55 0 -92 -30t-59 -73.5t-31 -92.5t-9 -86q0 -22 5 -41t17.5 -32.5t33 -21.5t52.5 -8q45 0 75 15t50 40t31.5 58t19.5 69z" />
    <glyph glyph-name="uni10D2.case" horiz-adv-x="546" 
d="M406 712q72 0 106 -35t34 -89q0 -68 -49 -143q35 -21 50.5 -56t15.5 -80q0 -57 -18 -114.5t-55 -103.5t-92 -75t-128 -29q-51 0 -87 14t-58.5 38t-33 56.5t-10.5 70.5q0 60 19.5 115t57.5 97t94 67.5t129 25.5q15 0 28.5 -1.5t26.5 -3.5q17 30 27 59.5t10 53.5
q0 31 -19 50t-65 19q-47 0 -95 -20.5t-87 -57.5l16 76q88 66 183 66zM483 235q2 12 4 25t2 26q0 23 -6 44.5t-20 38.5t-37.5 27.5t-58.5 10.5q-52 0 -91.5 -19t-66.5 -50.5t-40.5 -73t-13.5 -86.5q0 -27 7 -50t22 -40t39.5 -27t59.5 -10q45 0 79 15t58.5 40.5t39.5 59
t23 69.5z" />
    <glyph glyph-name="uni10D3.case" horiz-adv-x="813" 
d="M374 648q-41 0 -68.5 -14.5t-46.5 -41.5t-31.5 -66t-22.5 -88q-5 -23 -7.5 -45t-2.5 -42q0 -67 24.5 -120.5t71 -90.5t113.5 -56.5t151 -19.5h58l-13 -64h-60q-96 0 -173 22.5t-132 65t-84.5 105t-29.5 142.5q0 47 12 103q13 64 33 114.5t49.5 86t71.5 54.5t100 19
q37 0 61.5 -5.5t40 -16.5t23 -28t10.5 -40h4q28 46 71.5 68t117.5 22q48 0 80 -11.5t51.5 -32t28 -48.5t8.5 -61q0 -60 -15 -118.5t-47.5 -105t-83.5 -75.5t-124 -29q-47 0 -80 11t-53 31t-29 47.5t-9 60.5q0 21 3.5 45t8 47.5t8.5 46t4 42.5q0 38 -19 62t-73 24zM527 471
q-5 -21 -8 -41t-3 -37q0 -44 23.5 -71t86.5 -27q44 0 74 14t50 38t31.5 56t19.5 68q9 40 9 76q0 22 -5 40.5t-18 32t-34 21t-53 7.5q-45 0 -75 -14t-49.5 -38.5t-30.5 -56.5t-18 -68z" />
    <glyph glyph-name="uni10D4.case" horiz-adv-x="483" 
d="M238 -13q-78 0 -120.5 40t-42.5 112q0 23 6.5 54.5t18.5 66t30.5 69.5t42.5 66l54 -35q-18 -21 -32.5 -49t-25 -57.5t-16.5 -57.5t-6 -48q0 -46 25 -71.5t82 -25.5q26 0 49.5 8t43.5 27t35.5 51.5t26.5 82.5l66 310q4 17 4 35q0 44 -27 63.5t-70 19.5q-47 0 -95.5 -24
t-88.5 -61l18 83q88 66 183 66q66 0 110 -33.5t44 -100.5q0 -11 -1.5 -22t-3.5 -23l-65 -306q-15 -71 -40.5 -117.5t-57.5 -73.5t-69.5 -38t-77.5 -11z" />
    <glyph glyph-name="uni10D5.case" horiz-adv-x="509" 
d="M326 456h39q20 0 42.5 4.5t41 17.5t30.5 37t12 62q0 43 -29.5 57t-73.5 14q-45 0 -95 -18.5t-88 -53.5l18 85q35 23 84 37t98 14q42 0 72 -10t49.5 -28t29 -41.5t9.5 -50.5q0 -20 -4.5 -42t-16.5 -42.5t-32 -39.5t-50 -33q32 -10 49 -34.5t17 -58.5q0 -8 -1 -16t-3 -16
l-20 -95q-13 -61 -38.5 -102.5t-59 -67t-72.5 -37t-78 -11.5q-40 0 -73.5 9.5t-57.5 28t-37 47.5t-13 68q0 46 19 100.5t54 103.5l55 -36q-28 -38 -41.5 -80t-13.5 -75q0 -27 9 -46.5t24 -32t35 -18t43 -5.5q27 0 53.5 7t49.5 24.5t41 47.5t28 76l20 94q1 5 1.5 9t0.5 9
q0 28 -19.5 51.5t-65.5 23.5h-55z" />
    <glyph glyph-name="uni10D6.case" horiz-adv-x="684" 
d="M138 501q12 55 36.5 94.5t57 65.5t68.5 38.5t71 12.5q27 0 51.5 -7.5t43 -22.5t29 -37t10.5 -50q0 -24 -8 -51t-19 -51q14 5 29.5 7.5t33.5 2.5q47 0 78.5 -13t51 -35.5t27.5 -52.5t8 -64q0 -57 -14.5 -118.5t-47 -113.5t-85 -85.5t-127.5 -33.5q-47 0 -79 13t-51.5 35
t-27.5 52t-8 65q0 41 9.5 83.5t31.5 80.5q-35 -16 -65 -16q-48 0 -80 34.5t-32 100.5q0 28 8 66zM623 243q5 23 8.5 46t3.5 44q0 22 -5 41.5t-16.5 33.5t-30.5 22.5t-48 8.5q-51 0 -88 -27t-61 -68.5t-36 -91t-12 -93.5q0 -23 5 -42.5t17.5 -34t33 -23t51.5 -8.5
q45 0 75.5 16.5t50.5 43.5t32 61.5t20 70.5zM420 527q6 28 6 49q0 23 -6.5 37.5t-17.5 22t-25.5 10t-29.5 2.5q-20 0 -40 -6.5t-38.5 -23.5t-34 -45.5t-24.5 -71.5q-4 -17 -6.5 -33t-2.5 -31q0 -32 16 -53t60 -21q33 0 57 15t41.5 39t28 53t16.5 57z" />
    <glyph glyph-name="uni10D7.case" horiz-adv-x="829" 
d="M816 466q5 22 8 43t3 40q0 43 -21.5 71t-80.5 28q-42 0 -71.5 -17.5t-49.5 -45t-32 -63t-19 -71.5l-48 -227q-10 -46 -29.5 -88.5t-50.5 -75.5t-75.5 -53t-103.5 -20q-47 0 -79 13t-51.5 35t-27.5 52t-8 65q0 42 11 91l47 219q10 48 29 93t50 80t76 56t107 21
q38 0 65 -8.5t44 -23.5t26.5 -35.5t12.5 -45.5q13 25 30 45.5t40.5 35.5t53 23.5t68.5 8.5q45 0 75.5 -11.5t49 -31.5t26.5 -47.5t8 -60.5q0 -23 -3.5 -47t-8.5 -50l-47 -221q-10 -47 -28.5 -91.5t-47.5 -80t-71 -58t-100 -25.5l-4 63h1q45 0 75 16.5t50.5 43.5t32.5 61.5
t20 70.5zM437 243l3.5 16.5t9 40.5t11 52.5t11 52.5t9 40t3.5 17q4 20 6.5 39.5t2.5 38.5q0 22 -5 42t-17 34.5t-33 23t-52 8.5q-44 0 -74 -15.5t-50 -41.5t-32.5 -59.5t-19.5 -69.5q0 -1 -3.5 -17t-9 -40t-11 -52.5t-11 -52.5t-9 -40.5l-3.5 -16.5q-5 -22 -8 -43t-3 -41
q0 -23 5 -42.5t17.5 -34t33 -23t51.5 -8.5q45 0 75.5 16.5t50.5 43.5t32 61.5t20 70.5z" />
    <glyph glyph-name="uni10D8.case" horiz-adv-x="514" 
d="M498 456q4 19 6.5 38t2.5 37q0 24 -5.5 45.5t-18.5 37.5t-34.5 25t-54.5 9q-44 0 -75.5 -16.5t-53.5 -43.5t-35.5 -61t-20.5 -70l-46 -214q-8 -38 -8 -70q0 -33 9 -59.5t31 -43.5l-45 -58q-37 23 -52.5 63t-15.5 88q0 39 9 80l46 215q10 48 30.5 93.5t53.5 81.5t79 57.5
t108 21.5q48 0 81 -13.5t53 -37t29 -54.5t9 -66q0 -21 -2.5 -42t-7.5 -43l-45 -213q-8 -36 -21 -70.5t-32.5 -64.5t-45.5 -55t-58 -41l-19 59q43 25 68 72t36 100z" />
    <glyph glyph-name="uni10D9.case" horiz-adv-x="509" 
d="M323 440h47q20 0 42 4.5t40.5 17.5t30.5 37t12 62q0 46 -31 67t-76 21h-4l14 64h2q34 0 65.5 -8t54.5 -25t37 -43t14 -62q0 -39 -11 -67.5t-28 -48.5t-39.5 -32t-44.5 -18q41 -14 62.5 -39t21.5 -60q0 -13 -3 -26l-17 -79q-13 -61 -39 -102.5t-60 -67t-73.5 -37
t-79.5 -11.5t-74 9t-58.5 28t-38.5 48t-14 69q0 47 19.5 101.5t54.5 102.5l55 -36q-27 -38 -41.5 -79t-14.5 -75q0 -28 9.5 -47.5t25.5 -31.5t37 -17.5t44 -5.5q27 0 54 7.5t51 25.5t42.5 47.5t27.5 72.5l17 78q1 5 1.5 9t0.5 9q0 28 -19.5 51.5t-65.5 23.5h-63z" />
    <glyph glyph-name="uni10DA.case" horiz-adv-x="513" 
d="M208 442q-17 -79 -19.5 -146t17 -118t65 -85t124.5 -46l-12 -60q-97 11 -155 50t-85 99t-26.5 138t19.5 168q11 50 34.5 98.5t59 86.5t82 61.5t103.5 23.5t93 -21.5t55 -57t22 -81.5t-7 -94q-11 -54 -34.5 -105t-55.5 -90h-72q12 15 26 37.5t26.5 50t23.5 58t17 60.5
q7 35 6 67.5t-13 57t-36.5 39.5t-63.5 15q-28 0 -57.5 -12.5t-56 -38t-48 -64.5t-32.5 -91z" />
    <glyph glyph-name="uni10DB.case" horiz-adv-x="506" 
d="M509 243q-10 -48 -29 -94t-50.5 -82t-76.5 -58t-107 -22q-47 0 -79 13t-51.5 35t-27.5 52t-8 65q0 57 14.5 118.5t47 112.5t84.5 84t127 33q53 0 82 -18t44 -43l19 91q2 9 3 16.5t1 15.5q0 46 -30 66t-73 20q-25 0 -52.5 -6t-53.5 -17t-49 -25.5t-39 -32.5l17 79
q45 33 94.5 49.5t96.5 16.5q33 0 62.5 -8.5t51.5 -26t35 -43.5t13 -60q0 -21 -4 -41zM437 243q5 23 8 45t3 42q0 22 -5 41.5t-17.5 34t-33 22.5t-51.5 8q-54 0 -90.5 -28t-58.5 -69.5t-31 -90t-9 -89.5q0 -23 5 -42.5t17.5 -34t33 -23t51.5 -8.5q45 0 75.5 16.5t50.5 43.5
t32 61.5t20 70.5z" />
    <glyph glyph-name="uni10DC.case" horiz-adv-x="514" 
d="M111 259l58 274q9 45 32.5 77t55 53t69 31t75.5 10h178l-13 -64h-175q-26 0 -50.5 -7t-45 -22t-35.5 -37.5t-22 -53.5l-18 -83q26 26 63 44.5t91 18.5q47 0 78 -12.5t50 -34.5t26.5 -51.5t7.5 -63.5q0 -58 -14.5 -120t-47 -113t-84.5 -84t-128 -33q-47 0 -79 12.5
t-51.5 35t-27.5 52t-8 64.5q0 21 2.5 44.5t8.5 46.5zM179 240q-5 -22 -8 -42.5t-3 -40.5q0 -23 5 -42t17.5 -33t33.5 -22t52 -8q54 0 90 27t57.5 68t30.5 89t9 90q0 23 -5 43t-17 35t-32.5 23.5t-51.5 8.5q-45 0 -76 -17t-51 -45t-32 -63t-19 -71z" />
    <glyph glyph-name="uni10DD.case" horiz-adv-x="780" 
d="M453 466q10 46 11 84q0 21 -4.5 39t-15 31t-29 20.5t-45.5 7.5q-44 0 -72 -16t-45.5 -42.5t-27 -60t-16.5 -68.5l-46 -218q-5 -22 -8 -43.5t-3 -41.5q0 -23 5 -42.5t17.5 -33.5t33 -22.5t52.5 -8.5l-30 -64q-42 2 -71 16t-46.5 36t-25 50.5t-7.5 61.5q0 43 11 92l47 221
q10 48 26.5 92.5t45 79t70.5 55.5t103 21q37 0 61.5 -8t39.5 -22t23 -34t11 -44q13 24 29 44t37 34t49 22t66 8q44 0 73 -11.5t46.5 -31t24.5 -46.5t7 -58q0 -24 -3.5 -50.5t-8.5 -52.5l-47 -219q-10 -47 -28.5 -91.5t-47.5 -80t-71 -58.5t-100 -26l-3 64q45 0 75 16.5
t50.5 43.5t32.5 61.5t20 70.5l47 219q5 26 9.5 50.5t4.5 46.5q0 39 -20 64t-76 25q-40 0 -67.5 -15.5t-45.5 -41t-28.5 -58.5t-17.5 -67l-52 -243h-72z" />
    <glyph glyph-name="uni10DE.case" horiz-adv-x="501" 
d="M308 408h63q19 0 37 6.5t32.5 20t23 34t8.5 49.5q0 25 -14.5 38.5t-36 21.5t-46.5 13.5t-46.5 13.5t-36 22.5t-14.5 41.5q0 9 3 23l4 20h70l-3 -13q-1 -2 -1 -6q0 -14 14.5 -22t37 -14t48 -13t48 -19t37 -33t14.5 -55q0 -38 -9 -65.5t-23.5 -46.5t-33.5 -30.5t-39 -16.5
q36 -7 55 -32.5t19 -58.5q0 -13 -3 -26l-11 -52q-15 -70 -42 -113.5t-61.5 -67.5t-75 -32.5t-81.5 -8.5q-44 0 -75.5 13t-52.5 34.5t-31 51t-10 62.5q0 56 19 101t45 86l55 -36q-20 -35 -33.5 -72.5t-13.5 -77.5q0 -46 27.5 -72t92.5 -26q40 0 68 11.5t47 32.5t31 50t19 64
l9 43q2 10 2 17q0 14 -5.5 27.5t-17.5 24.5t-31.5 17.5t-47.5 6.5h-47z" />
    <glyph glyph-name="uni10DF.case" horiz-adv-x="615" 
d="M291 353q24 0 44.5 13t35 33t22.5 44t8 47q0 32 -17.5 55t-57.5 23l-34 -5l14 67l330 73h72l-105 -492q-12 -54 -37 -95.5t-60 -70.5t-77.5 -44t-88.5 -15q-52 0 -98.5 15t-96.5 47l48 64q19 -12 35.5 -23.5t34 -20t37.5 -13.5t46 -5q65 0 116 37.5t68 115.5l92 434
l-178 -47q32 -41 32 -94q0 -37 -15.5 -74t-42.5 -66.5t-62.5 -48t-74.5 -18.5q-46 0 -76 12t-47 30.5t-24 41.5t-7 44q0 26 6.5 46.5t16.5 39.5l54 -35l-5 -17q-3 -15 -3 -26q0 -21 8 -34.5t21 -22t30.5 -12t35.5 -3.5z" />
    <glyph glyph-name="uni10E0.case" horiz-adv-x="812" 
d="M427 270q5 21 7.5 40.5t2.5 36.5q0 40 -20.5 64.5t-75.5 24.5q-52 0 -88 -28t-58 -68.5t-32 -87.5t-10 -84q0 -21 4.5 -42t16.5 -37.5t33 -27t53 -10.5l-30 -63q-42 2 -70 16t-45 37t-24.5 52.5t-7.5 63.5q0 25 3.5 50.5t8.5 51.5l8 41q21 99 55 168t76 114.5t90.5 71.5
t98.5 39t99 16t94 3h61l-14 -64h-69q-62 0 -124 -10.5t-115 -36t-93 -68.5t-59 -109q29 32 67 54t84 22q37 0 61.5 -8t39.5 -22t23 -34t11 -44q26 48 70 78t119 30q46 0 77 -11t49.5 -30t26 -46t7.5 -58q0 -51 -14 -113t-45 -117.5t-81 -94t-122 -42.5l-3 63q57 0 94 33
t59.5 80t31.5 97t9 85q0 20 -5 36.5t-17 28.5t-32 18.5t-50 6.5q-40 0 -68 -13t-47 -35.5t-30.5 -53t-18.5 -64.5l-20 -95h-72z" />
    <glyph glyph-name="uni10E1.case" horiz-adv-x="497" 
d="M252 -17q-79 0 -119.5 41t-40.5 117q0 34 9 75l104 488h73l-104 -488q-7 -31 -7 -60q0 -56 26.5 -83t69.5 -27t75.5 20.5t54.5 53.5t32.5 74.5t10.5 83.5q0 51 -12.5 101t-34.5 89l71 36q23 -51 36 -108.5t13 -111.5q0 -79 -25.5 -136t-63.5 -93.5t-83 -54t-85 -17.5z
" />
    <glyph glyph-name="uni10E2.case" horiz-adv-x="718" 
d="M432 391l-41 -192h-72l75 354q8 38 27.5 67.5t47 50t60.5 31.5t68 11q61 0 100.5 -32t39.5 -90q0 -26 -8.5 -53t-24.5 -50.5t-39 -40.5t-51 -22q36 -11 59 -26t36.5 -33t18.5 -38t5 -41q0 -67 -25.5 -122t-72 -94.5t-111.5 -61.5t-144 -22q-75 0 -128 19.5t-86.5 53
t-49 80t-15.5 100.5q0 50 12 104t33.5 109t51.5 108.5t67 103.5l61 -36q-33 -44 -61 -93.5t-49 -99.5t-33 -99.5t-12 -94.5q0 -41 11.5 -76t37.5 -60.5t67.5 -40t100.5 -14.5q51 0 99.5 14.5t86.5 42t61.5 66.5t23.5 89q0 24 -8.5 47t-26.5 41t-45 29t-64 11h-83zM445 455
h87q21 0 44.5 5.5t44 19.5t33.5 37t13 59q0 35 -23 56.5t-59 21.5q-42 0 -75.5 -28t-43.5 -73z" />
    <glyph glyph-name="uni10E3.case" horiz-adv-x="567" 
d="M552 196q-10 -47 -35.5 -85t-61 -66t-78.5 -43t-89 -15q-40 0 -73.5 11.5t-57.5 33t-37.5 52t-13.5 67.5q0 22 6 46t16 48t24 47t30 42l56 -37q-14 -13 -25 -31.5t-18.5 -38.5t-11.5 -38.5t-4 -31.5q0 -49 34 -77.5t88 -28.5q31 0 60 9.5t52.5 27.5t40.5 43t24 56l81 379
q1 5 1.5 9t0.5 8q0 29 -19.5 47t-50.5 18q-35 0 -64 -22.5t-36 -57.5l-27 -132h-72l27 129q1 5 1.5 10.5t0.5 10.5q0 32 -17 47t-42 15h-117l14 64h126q40 0 59.5 -16t24.5 -63h3q23 44 54.5 61.5t82.5 17.5q57 0 90 -34.5t33 -87.5q0 -16 -3 -34z" />
    <glyph glyph-name="uni10E4.case" horiz-adv-x="806" 
d="M800 503q3 12 4 23.5t1 21.5q0 50 -25 75t-63 25q-23 0 -46.5 -9.5t-44.5 -28t-37.5 -46t-23.5 -64.5l-6 -29q-11 -53 -31 -97t-51.5 -76t-75.5 -49.5t-103 -17.5q-48 0 -80 11.5t-52 32t-28.5 48.5t-8.5 61q0 20 3 42t8 45q10 49 28.5 92.5t49 76.5t75 52.5t107.5 19.5
q38 0 64 -8t43.5 -23t26.5 -35.5t13 -44.5q34 58 85 84.5t108 26.5q29 0 54.5 -9.5t44 -28t29.5 -46.5t11 -64q0 -88 -36 -151t-103 -86q13 -6 26 -14.5t24 -19t18 -23.5t7 -29v-6.5t-1 -6.5l-13 -63q-10 -49 -36.5 -83t-63.5 -55t-81 -30.5t-89 -9.5q-79 0 -146.5 24.5
t-109.5 62.5l51 56q15 -15 38.5 -29.5t52.5 -25.5t62.5 -17.5t68.5 -6.5q31 0 61 6t54.5 20t41.5 36t24 55l9 43q1 3 1 6.5v6.5q0 30 -25.5 51.5t-61.5 21.5h-44l13 62h45q31 0 53.5 10t38 28.5t25.5 45.5t17 60zM486 471q5 21 7.5 41.5t2.5 38.5q0 21 -5 39t-17.5 31
t-33.5 20.5t-53 7.5q-45 0 -75 -14.5t-49.5 -38.5t-31.5 -56.5t-19 -68.5q-5 -21 -7.5 -40.5t-2.5 -36.5q0 -44 23 -71.5t86 -27.5q45 0 75 14t49.5 38t31 56t19.5 68z" />
    <glyph glyph-name="uni10E5.case" horiz-adv-x="491" 
d="M238 -13q-78 0 -120.5 40t-42.5 112q0 18 4 42.5t11.5 52t19.5 56t28 54.5l59 -36q-22 -42 -37 -85t-15 -78q0 -42 24.5 -68t85.5 -26q26 0 49 7.5t43 26t35.5 51.5t26.5 84l39 182q4 17 4 35q0 44 -27 64t-70 20q-47 0 -95.5 -24t-88.5 -61l17 79q45 33 91 51t93 18
q32 0 58.5 -12t46.5 -33l35 165h72l-103 -484q-16 -74 -40.5 -119.5t-56 -70.5t-69 -34t-77.5 -9z" />
    <glyph glyph-name="uni10E6.case" horiz-adv-x="812" 
d="M448 371l24 111q8 37 8 66q0 43 -22 71.5t-80 28.5q-47 0 -76.5 -17.5t-48 -46.5t-29 -67t-19.5 -79q-10 -44 -10 -87q0 -67 24.5 -120.5t71 -90.5t113.5 -56.5t151 -19.5h58l-13 -64h-60q-96 0 -173 22.5t-132 65t-84.5 105t-29.5 142.5q0 47 12 103q13 62 33 112.5
t50.5 86.5t73 55.5t101.5 19.5q37 0 63 -8t42.5 -22t25.5 -34t12 -44q13 28 33.5 48t45 33.5t53 20t57.5 6.5q45 0 75.5 -12t49 -32.5t26 -48.5t7.5 -61q0 -38 -9.5 -84.5t-28.5 -94.5t-48 -94.5t-68 -85.5l-52 34q37 32 62.5 75.5t41.5 88.5t23 86t7 68q0 21 -4.5 38.5
t-16 30.5t-31 20.5t-49.5 7.5q-41 0 -69 -14t-47 -37t-30 -53t-18 -62l-24 -111h-72z" />
    <glyph glyph-name="uni10E7.case" horiz-adv-x="505" 
d="M484 166q-9 -45 -32.5 -78.5t-55.5 -56t-69.5 -33.5t-75.5 -11q-47 0 -90 16.5t-73 49.5l17 79q23 -37 66 -59t90 -22q25 0 50 7t45.5 22t35.5 38t22 54l33 154q-65 -62 -159 -62q-43 0 -72.5 11t-48 30t-27 45t-8.5 57q0 36 10.5 77t28 82.5t40.5 81t48 72.5l53 -35
q-17 -24 -36 -56.5t-34.5 -68.5t-26 -72.5t-10.5 -67.5q0 -41 22 -66.5t77 -25.5q24 0 49.5 6.5t48.5 23t43 43.5t32 68l50 236h71z" />
    <glyph glyph-name="uni10E8.case" horiz-adv-x="542" 
d="M297 580q6 28 6 43t-7.5 20t-26.5 5h-108l14 64h101q38 0 53.5 -11.5t15.5 -48.5v-12h4q26 43 63.5 57.5t74.5 14.5q24 0 46.5 -7.5t39.5 -22t27 -35.5t10 -48q0 -14 -3 -29l-72 -336q-27 -127 -96 -187t-169 -60q-82 0 -127 39.5t-45 122.5q0 41 10 85
q27 127 96.5 187.5t170.5 60.5q42 0 74 -20t51 -53l36 168q1 4 1 7.5v6.5q0 29 -21.5 43t-50.5 14q-15 0 -31 -4.5t-29.5 -12.5t-23 -20t-12.5 -28l-10 -51h-72zM463 234q6 31 6 58q0 61 -30 93.5t-78 32.5q-33 0 -66.5 -17t-61 -49.5t-44.5 -79t-17 -106.5q0 -115 111 -115
q71 0 116 47t64 136z" />
    <glyph glyph-name="uni10E9.case" horiz-adv-x="514" 
d="M169 534q9 45 32.5 78t56 55.5t70.5 33.5t76 11q83 0 123.5 -30t40.5 -75q0 -20 -6.5 -40.5t-21.5 -40t-39 -36.5t-60 -29l-36 48q53 12 71.5 34.5t18.5 48.5q0 25 -25 40.5t-79 15.5q-51 0 -93.5 -26t-56.5 -89l-36 -167q41 36 85.5 52t81.5 16q34 0 63 -11t50.5 -32.5
t34 -52.5t12.5 -70q0 -35 -11.5 -74t-32 -78t-48 -75t-59.5 -63l-39 48q23 21 44 50t37.5 60.5t26.5 62.5t10 57q0 29 -9 50.5t-24.5 35.5t-35.5 21t-42 7q-26 0 -53 -8.5t-51 -24t-41.5 -38.5t-23.5 -52l-52 -247h-72l113 534v0z" />
    <glyph glyph-name="uni10EA.case" horiz-adv-x="675" 
d="M449 456h93q26 0 48.5 9t39 23.5t25.5 32.5t9 36q0 23 -12.5 42.5t-31.5 36t-41.5 29.5t-41.5 24l56 34q19 -8 44 -21.5t47.5 -33t38 -45t15.5 -56.5q0 -18 -7.5 -41t-23 -44t-39.5 -38t-57 -24l-1 -2q41 -17 57 -49t16 -73q0 -72 -29.5 -129.5t-76.5 -97.5t-105 -61
t-114 -21q-63 0 -109.5 18.5t-77.5 52.5t-46 80.5t-15 103.5q0 103 48.5 223t154.5 248l58 -37q-45 -47 -80 -101.5t-59.5 -111t-37 -111t-12.5 -102.5q0 -53 14.5 -91t39 -62t57.5 -35t70 -11q60 0 106 20.5t76.5 52.5t46.5 71t16 76q0 25 -7 47t-21 38.5t-34.5 26.5
t-48.5 10h-61z" />
    <glyph glyph-name="uni10EB.case" horiz-adv-x="506" 
d="M509 243q-10 -48 -29 -94t-50.5 -82t-76.5 -58t-107 -22q-47 0 -79 13t-51.5 35t-27.5 52t-8 65q0 57 15 118.5t47.5 112.5t85 84t127.5 33q50 0 78 -21.5t39 -51.5h4l27 124q3 15 3 29q0 26 -9.5 43.5t-26.5 28.5l32 65q35 -16 56.5 -46t21.5 -75q0 -17 -5 -42zM437 243
q5 23 8 45t3 42q0 22 -5 41.5t-17.5 34t-33 22.5t-51.5 8q-54 0 -90.5 -28t-58.5 -69.5t-31 -90t-9 -89.5q0 -23 5 -42.5t17.5 -34t33 -23t51.5 -8.5q45 0 75.5 16.5t50.5 43.5t32 61.5t20 70.5z" />
    <glyph glyph-name="uni10EC.case" horiz-adv-x="518" 
d="M473 533h-72l11 51q1 4 1 11q0 26 -22 39.5t-51 13.5q-32 0 -61 -17t-37 -53l-36 -169h4q33 37 75 55t83 18q81 0 123.5 -39t42.5 -120q0 -42 -10 -89q-27 -127 -96.5 -187t-169.5 -60q-82 0 -126.5 39t-44.5 123q0 39 10 85l72 337q7 33 25.5 59t43.5 44.5t54 28t57 9.5
q18 0 35 -3t31.5 -11t24.5 -22t14 -36h3q9 23 21.5 37t27.5 22t31 10.5t33 2.5h91l-14 -64h-97q-19 0 -37.5 -8.5t-25.5 -40.5zM169 234q-8 -40 -8 -69q0 -56 27 -85t83 -29q71 0 116.5 47t64.5 136q6 31 6 57q0 62 -30.5 94.5t-78.5 32.5q-29 0 -57.5 -12t-52.5 -35.5
t-42.5 -58t-27.5 -78.5z" />
    <glyph glyph-name="uni10ED.case" horiz-adv-x="549" 
d="M398 296q-29 -23 -62.5 -34t-66.5 -11q-31 0 -58 8.5t-47 24.5t-31.5 39t-11.5 52q0 35 15 72.5t44 68t71.5 50t98.5 19.5h110l25 119h72l-25 -119h105l-14 -64h-105l-69 -324q-10 -46 -32 -84.5t-54 -66.5t-73.5 -43.5t-89.5 -15.5q-28 0 -49.5 3.5t-39 11.5t-33 20.5
t-31.5 30.5l57 47q11 -12 21 -21t22 -15.5t27.5 -9.5t36.5 -3q35 0 63 11.5t49 31.5t34.5 47t20.5 59zM286 315q19 0 40.5 5.5t41 16.5t34 27t19.5 37l25 120h-97q-39 0 -67.5 -12.5t-48 -32t-29 -43t-9.5 -45.5q0 -30 23 -51.5t68 -21.5z" />
    <glyph glyph-name="uni10EE.case" horiz-adv-x="514" 
d="M205 704h72l-57 -267q26 26 61.5 44.5t89.5 18.5q47 0 79 -12.5t51 -34.5t27 -51.5t8 -63.5q0 -57 -14.5 -119t-47 -113t-85 -84.5t-127.5 -33.5q-47 0 -79 12.5t-51.5 35t-27.5 52t-8 64.5q0 42 11 91zM179 243q-5 -22 -7.5 -43t-2.5 -41q0 -23 5 -42.5t17 -34
t32.5 -22.5t52.5 -8q44 0 74.5 16.5t50.5 43.5t32 61t20 70q5 22 8 43.5t3 41.5q0 23 -5 42.5t-17.5 34t-33 23t-51.5 8.5q-45 0 -75.5 -16.5t-51 -44t-32 -62t-19.5 -70.5z" />
    <glyph glyph-name="uni10EF.case" horiz-adv-x="500" 
d="M213 595h134l23 109h73l-23 -109h133l-14 -64h-133l-13 -63q-1 -5 -1.5 -9t-0.5 -8q1 -32 21.5 -55t44.5 -48q48 -51 48 -116q0 -45 -20 -88.5t-53 -78.5t-74.5 -56.5t-83.5 -21.5q-100 0 -148.5 44.5t-48.5 119.5q0 77 50 172l62 -27q-17 -35 -28 -68t-11 -67
q0 -47 26.5 -78.5t90.5 -31.5q38 0 68.5 15.5t51.5 39.5t32 54t11 59q0 37 -18 61.5t-39.5 46.5t-39.5 45.5t-18 58.5q0 14 3 29l15 71h-134z" />
    <glyph glyph-name="uni10F0.case" horiz-adv-x="485" 
d="M263 637v63h184q47 0 76 -27t29 -68q0 -31 -20.5 -61t-55.5 -44q22 -9 31 -26.5t9 -37.5q0 -29 -20.5 -59t-55.5 -45q19 -10 34.5 -31t15.5 -63q0 -11 -1 -23t-4 -26q-12 -51 -30.5 -89t-47 -63t-68 -37.5t-94.5 -12.5q-84 0 -127.5 36.5t-43.5 110.5q0 36 11 78t28 75
l65 -19q-14 -32 -22.5 -66t-8.5 -61q0 -48 28.5 -69t92.5 -21q40 0 65.5 11t41 31.5t24.5 48.5t16 63q3 16 3 31q0 35 -17.5 50t-34.5 15h-87l14 63h87q12 0 23 5.5t19.5 14.5t14 20t5.5 23q0 17 -11 29.5t-29 12.5h-87l14 63h87q12 0 23 5.5t19.5 14.5t14 20t5.5 22
q0 18 -12 30.5t-32 12.5h-171z" />
    <glyph glyph-name="uni10F1.case" 
 />
    <glyph glyph-name="uni10F2.case" 
 />
    <glyph glyph-name="uni10F3.case" 
 />
    <glyph glyph-name="uni10F4.case" 
 />
    <glyph glyph-name="uni10F5.case" 
 />
    <glyph glyph-name="uni10F6.case" 
 />
    <glyph glyph-name="uni10F7.case" 
 />
    <glyph glyph-name="uni10F8.case" 
 />
    <glyph glyph-name="uni10F9.case" 
 />
    <glyph glyph-name="uni10FA.case" 
 />
    <glyph glyph-name="uni10FB.case" 
 />
    <glyph glyph-name="uni10FC.case" 
 />
    <glyph glyph-name="uni10FD.case" 
 />
    <glyph glyph-name="uni10FE.case" 
 />
    <glyph glyph-name="uni10FF.case" 
 />
    </font>
</defs>
</svg>
