<?xml version="1.0" standalone="no"?>
<!DOCTYPE svg PUBLIC "-//W3C//DTD SVG 1.1//EN" "http://www.w3.org/Graphics/SVG/1.1/DTD/svg11.dtd" >
<svg xmlns="http://www.w3.org/2000/svg" xmlns:xlink="http://www.w3.org/1999/xlink" version="1.1">
<metadata>
Created by FontForge 20170731 at Fri Apr 27 16:03:02 2018
 By Aleksey,,,
Copyright (c) 2018 by  http://www.pharmadepot.ge. All rights reserved.
</metadata>
<defs>
<font id="PharmadepotMtL-BlackItalic" horiz-adv-x="553" >
  <font-face 
    font-family="Pharmadepot Mt L"
    font-weight="900"
    font-style="italic"
    font-stretch="normal"
    units-per-em="1000"
    panose-1="2 0 0 0 0 0 0 0 0 0"
    ascent="800"
    descent="-200"
    x-height="520"
    cap-height="705"
    bbox="-12 -257 1153 986"
    underline-thickness="50"
    underline-position="-150"
    unicode-range="U+000D-2122"
  />
<missing-glyph horiz-adv-x="410" 
 />
    <glyph glyph-name=".notdef" horiz-adv-x="410" 
 />
    <glyph glyph-name=".null" horiz-adv-x="0" 
 />
    <glyph glyph-name="nonmarkingreturn" unicode="&#xd;" horiz-adv-x="410" 
 />
    <glyph glyph-name="space" unicode=" " horiz-adv-x="410" 
 />
    <glyph glyph-name="exclam" unicode="!" horiz-adv-x="214" 
d="M88 167l114 537h116l-114 -537h-116zM45 0l27 131h132l-27 -131h-132z" />
    <glyph glyph-name="quotedbl" unicode="&#x22;" horiz-adv-x="375" 
d="M304 516l40 188h127l-40 -188h-127zM148 516l40 188h127l-40 -188h-127z" />
    <glyph glyph-name="numbersign" unicode="#" horiz-adv-x="653" 
d="M577 400q-6 -17 -10 -26.5t-7 -17t-6.5 -14.5t-7.5 -19h78l-24 -112h-95q-19 -51 -39.5 -106t-38.5 -105h-122l77 211h-93q-18 -51 -38.5 -106t-37.5 -105h-124l78 211h-78l24 112h96l30 77h-80l24 114h96q17 48 37 100t37 99h124l-75 -199h93l75 199h121l-73 -199h75
l-24 -114h-92zM362 400q-8 -20 -16 -37.5t-16 -39.5h93l31 77h-92z" />
    <glyph glyph-name="dollar" unicode="$" horiz-adv-x="626" 
d="M602 208q-19 -88 -84 -142t-162 -67l-14 -69h-109l13 65q-113 15 -190 113l102 84q29 -36 57 -54.5t61 -23.5l40 191q-91 11 -127.5 65.5t-19.5 135.5q18 85 78.5 139.5t151.5 68.5l13 58h109l-12 -56q49 -6 86.5 -29.5t75.5 -65.5l-101 -83q-21 24 -42.5 40t-46.5 21
l-40 -186q2 0 3 -0.5t3 -0.5q102 -23 137 -73t18 -131zM478 206q5 22 1.5 37t-12.5 25t-22.5 15.5t-28.5 8.5l-38 -176q38 10 65.5 33t34.5 57zM379 598q-35 -9 -57 -33t-30 -57q-6 -31 11 -50.5t40 -28.5z" />
    <glyph glyph-name="percent" unicode="%" horiz-adv-x="872" 
d="M420 470q-8 -34 -25.5 -62t-42 -47.5t-54 -30t-61.5 -10.5q-57 0 -90.5 30.5t-33.5 83.5q0 19 4 36l21 98q7 34 24.5 62t42 48t54 30.5t62.5 10.5q56 0 90 -30t34 -84q0 -20 -4 -37zM335 566q1 5 1.5 9.5t0.5 8.5q0 35 -37 35q-24 0 -38 -14t-19 -39l-20 -94
q-2 -5 -2 -9.5v-9.5q0 -35 36 -35q25 0 39 14.5t19 39.5zM818 145q-8 -35 -25 -63t-42 -47.5t-55 -30.5t-63 -11q-57 0 -90 30.5t-33 84.5q0 20 4 37l21 97q7 34 24.5 62.5t41.5 48t54 30.5t63 11q57 0 91 -31t34 -85q0 -8 -1 -17.5t-3 -18.5zM292 0h-114l485 712h114z
M732 240q1 5 1.5 10t0.5 9q0 36 -37 36q-46 0 -57 -55l-20 -94q-2 -5 -2 -9.5v-9.5q0 -34 36 -34q25 0 39 14.5t19 38.5z" />
    <glyph glyph-name="ampersand" unicode="&#x26;" horiz-adv-x="722" 
d="M523 0l-37 60q-16 -11 -37 -22.5t-47.5 -21t-57 -16t-64.5 -6.5q-54 0 -94.5 15.5t-65 44.5t-32.5 69t3 90q8 39 25 69t40 54t50.5 43t57.5 37q-16 29 -27 62t-2 75q7 35 26.5 65.5t47 52.5t61.5 34.5t71 12.5t65.5 -12.5t46.5 -35t24.5 -53t-0.5 -65.5
q-12 -56 -50.5 -91.5t-93.5 -65.5l94 -149q12 22 21.5 53t20.5 77h120q-16 -73 -40 -129.5t-61 -98.5q19 -30 42.5 -70t49.5 -78h-157zM320 330q-38 -23 -68.5 -50.5t-38.5 -65.5q-10 -47 15 -76t76 -29q29 0 59.5 8.5t66.5 31.5zM458 552q5 23 -6.5 38t-34.5 15
q-21 0 -37.5 -14t-21.5 -37q-3 -16 1 -31.5t21 -42.5l-5 -2l-7 -4l18 -4l-6 10q26 16 49.5 33.5t28.5 38.5z" />
    <glyph glyph-name="quotesingle" unicode="'" horiz-adv-x="207" 
d="M148 503l45 209h115l-45 -209h-115z" />
    <glyph glyph-name="parenleft" unicode="(" horiz-adv-x="260" 
d="M90 -257l-17 24q-23 28 -35.5 51t-17.5 44.5t-4 43.5t7 49l124 582q6 27 14 49.5t22.5 44t37 44t56.5 50.5l26 23l65 -82q-20 -16 -36.5 -30t-30 -29.5t-23 -33.5t-14.5 -42l-121 -571q-5 -24 -3 -42t8.5 -33t17 -29.5t23.5 -30.5z" />
    <glyph glyph-name="parenright" unicode=")" horiz-adv-x="260" 
d="M267 748l18 -24q22 -29 35 -51.5t18 -44t3.5 -43.5t-7.5 -49l-123 -582q-6 -27 -14.5 -49.5t-22.5 -44t-36.5 -44t-55.5 -50.5l-28 -23l-63 82q39 31 65.5 59.5t36.5 75.5l121 571q5 24 3.5 42t-8 33.5t-17 29.5t-23.5 30z" />
    <glyph glyph-name="asterisk" unicode="*" horiz-adv-x="468" 
d="M448 382l-77 55l-22 -107h-104l22 107q-25 -14 -52 -28.5t-49 -26.5l-34 92l101 50q-21 13 -41 26t-38 24l72 91l75 -54l23 106h103l-23 -108q26 14 53.5 29t50.5 27l33 -91l-101 -50l79 -50z" />
    <glyph glyph-name="plus" unicode="+" horiz-adv-x="546" 
d="M366 216l-34 -162h-115l34 162h-163l25 116h163l34 161h115l-34 -161h162l-25 -116h-162z" />
    <glyph glyph-name="comma" unicode="," horiz-adv-x="234" 
d="M50 62q7 31 33.5 53.5t58.5 22.5t48.5 -23.5t9.5 -57.5l-71 -167h-96l46 102q-17 10 -25.5 29t-3.5 41z" />
    <glyph glyph-name="hyphen" unicode="-" horiz-adv-x="402" 
d="M87 218l24 115h306l-24 -115h-306z" />
    <glyph glyph-name="period" unicode="." horiz-adv-x="222" 
d="M50 63q7 31 33.5 53.5t58.5 22.5t49 -22t10 -54t-33 -53.5t-58 -21.5t-49.5 21.5t-10.5 53.5z" />
    <glyph glyph-name="slash" unicode="/" horiz-adv-x="448" 
d="M107 -145h-119l463 851h119z" />
    <glyph glyph-name="zero" unicode="0" horiz-adv-x="540" 
d="M533 196q-10 -47 -36.5 -85.5t-63 -65.5t-80 -42t-86.5 -15q-44 0 -80.5 15t-61.5 42t-35.5 65.5t-0.5 85.5l66 309q10 47 36.5 85t63 65t79.5 42t87 15q43 0 80 -15t62 -42t35.5 -65t0.5 -85zM478 501q9 43 -14 71t-67 28t-79 -28t-44 -71l-64 -301q-9 -43 14 -71
t67 -28t79 28t44 71z" />
    <glyph glyph-name="one" unicode="1" horiz-adv-x="322" 
d="M146 0l116 546l-9 -7l-137 -103l32 148l165 122h103l-150 -706h-120z" />
    <glyph glyph-name="two" unicode="2" horiz-adv-x="512" 
d="M48 0l19 94l334 333q22 22 33.5 40t16.5 41q9 42 -8.5 67t-59.5 25q-35 0 -66.5 -21.5t-42.5 -71.5l-16 -78h-119l16 78q10 45 32.5 82.5t55.5 64.5t75 42.5t89 15.5q46 0 81.5 -14.5t57 -41t28.5 -64t-3 -84.5q-9 -44 -30 -77t-60 -72l-249 -247h255l-23 -112h-416z" />
    <glyph glyph-name="three" unicode="3" horiz-adv-x="538" 
d="M532 200q-11 -52 -36.5 -91.5t-61 -66.5t-78.5 -40.5t-89 -13.5q-44 0 -80.5 13.5t-60.5 41.5t-33.5 70.5t0.5 100.5h119q-4 -31 0.5 -52.5t16 -35t27.5 -20t35 -6.5q42 0 76.5 26.5t44.5 74.5q11 48 -7.5 76.5t-72.5 28.5h-56l23 112h56q91 0 110 88q10 47 -11 70.5
t-57 23.5q-41 0 -71.5 -29.5t-45.5 -80.5h-120q14 52 40.5 93.5t61 70t75.5 43.5t84 15q46 0 81 -14.5t56.5 -41.5t28.5 -65t-3 -84q-10 -48 -31.5 -82t-58.5 -58q34 -26 42.5 -67t-4.5 -100z" />
    <glyph glyph-name="four" unicode="4" horiz-adv-x="574" 
d="M470 149l-31 -149h-120l31 149h-271l22 104l340 452h138l-332 -444h127l40 188h120l-40 -188h87l-24 -112h-87z" />
    <glyph glyph-name="five" unicode="5" horiz-adv-x="543" 
d="M547 247q-9 -43 -29.5 -89t-54.5 -83.5t-82.5 -62t-114.5 -24.5q-50 0 -86 17t-58 46.5t-29.5 70t-0.5 87.5h119q-5 -50 16 -79t63 -29q31 0 54.5 14t40 35t26.5 46t15 48q9 39 5.5 67t-15 46t-29.5 26.5t-38 8.5q-29 0 -57.5 -20.5t-49.5 -58.5h-111l83 392h387
l-23 -112h-267l-25 -116q24 15 48.5 21.5t52.5 6.5q39 0 74.5 -14t59.5 -44.5t32.5 -80t-6.5 -119.5z" />
    <glyph glyph-name="six" unicode="6" horiz-adv-x="540" 
d="M508 705l-159 -241q5 1 13 1h12q45 0 81 -15t59.5 -42t32.5 -65t-1 -85l-13 -62q-10 -47 -36 -85.5t-62.5 -65.5t-79.5 -42t-86 -15q-44 0 -81 15t-62.5 42t-36 65.5t-0.5 85.5l13 62q1 6 5.5 18t11.5 27t15.5 31.5t17.5 30.5v-1l224 341h132zM425 254q9 42 -13 70.5
t-65 28.5q-22 0 -43 -7.5t-38 -21t-29 -31.5t-16 -39l-11 -54q-9 -43 14.5 -71t68.5 -28q43 0 77.5 28t43.5 71z" />
    <glyph glyph-name="seven" unicode="7" horiz-adv-x="491" 
d="M217 0h-125l356 599h-166l-22 -101h-119l44 207h419l-19 -89z" />
    <glyph glyph-name="eight" unicode="8" horiz-adv-x="538" 
d="M534 208q-10 -48 -35.5 -88t-61.5 -69.5t-80 -46t-90 -16.5q-47 0 -84 16.5t-60.5 46t-32 69.5t1.5 88q11 52 42.5 92.5t70.5 68.5q-26 24 -36.5 57.5t0.5 82.5q9 44 32.5 81.5t57.5 64.5t75.5 42t86.5 15t79.5 -15t56.5 -42t29.5 -64.5t-1.5 -81.5q-11 -49 -34.5 -82.5
t-60.5 -57.5q27 -28 41 -68.5t3 -92.5zM415 209q9 44 -14 73t-65 29q-22 0 -42.5 -8t-37 -21.5t-28.5 -32t-16 -40.5q-5 -22 -1.5 -41.5t14 -34.5t27.5 -23.5t39 -8.5q21 0 41 8.5t37 23.5t29 34.5t17 41.5zM465 508q9 41 -10.5 66.5t-57.5 25.5q-40 0 -70 -25.5t-39 -66.5
q-8 -40 11.5 -63t59.5 -23q38 0 68 23t38 63z" />
    <glyph glyph-name="nine" unicode="9" horiz-adv-x="540" 
d="M179 0l159 236q-8 -1 -14 -1h-11q-44 0 -80 15t-60 42t-33 65t1 85l14 62q10 47 36 85t62.5 65t80 42t87.5 15q43 0 80 -15t62 -42t35.5 -65t0.5 -85l-14 -62q-1 -6 -5.5 -18.5t-11.5 -27.5t-15 -31.5t-17 -29.5l-225 -335h-132zM262 446q-9 -43 13.5 -71t67.5 -28
q21 0 41.5 7.5t37 20.5t28 31.5t16.5 39.5l12 54q9 43 -14.5 71t-66.5 28q-45 0 -79.5 -28t-43.5 -71z" />
    <glyph glyph-name="colon" unicode=":" horiz-adv-x="222" 
d="M69 152q7 31 33.5 53.5t58.5 22.5t49 -22t10 -54t-33 -53.5t-58 -21.5t-49.5 21.5t-10.5 53.5zM128 431q3 15 12 29t21.5 24t27.5 16t31 6q32 0 49 -22t10 -53q-7 -32 -33 -54t-58 -22t-49.5 22t-10.5 54z" />
    <glyph glyph-name="semicolon" unicode=";" horiz-adv-x="222" 
d="M50 62q7 31 33.5 53.5t58.5 22.5t48.5 -23.5t9.5 -57.5l-71 -167h-96l46 102q-17 10 -25.5 29t-3.5 41zM128 431q3 15 12 29t21.5 24t27.5 16t31 6q32 0 49 -22t10 -53q-7 -32 -33 -54t-58 -22t-49.5 22t-10.5 54z" />
    <glyph glyph-name="less" unicode="&#x3c;" horiz-adv-x="459" 
d="M89 230l20 92l399 184l-28 -133l-220 -97l178 -98l-28 -132z" />
    <glyph glyph-name="equal" unicode="=" horiz-adv-x="546" 
d="M106 297l24 115h440l-24 -115h-440zM72 140l24 114h440l-24 -114h-440z" />
    <glyph glyph-name="greater" unicode="&#x3e;" horiz-adv-x="459" 
d="M50 46l28 132l218 98q-42 23 -88 49t-88 48l28 133l321 -184l-20 -92z" />
    <glyph glyph-name="question" unicode="?" horiz-adv-x="458" 
d="M533 517q-4 -18 -13.5 -37t-28.5 -44.5t-50 -61.5t-78 -88q-8 -8 -13.5 -19.5t-7.5 -18.5l-16 -74h-119l16 75q4 16 9.5 30t15.5 30t26 35.5t41 47.5q31 34 50 55t29.5 34t14.5 21t6 15q8 35 -10 58.5t-53 23.5q-19 0 -36 -8.5t-30.5 -23.5t-23.5 -35t-14 -42h-120
q10 46 33.5 86.5t57 70.5t74 47.5t83.5 17.5q42 0 75.5 -14.5t54.5 -40t28.5 -61.5t-1.5 -79zM164 0l27 131h133l-27 -131h-133z" />
    <glyph glyph-name="at" unicode="@" horiz-adv-x="697" 
d="M509 0l3 18q-22 -11 -48 -18t-55 -7q-46 0 -79 14t-51 45t-20.5 79t11.5 116q29 134 89 194t157 60q29 0 52 -7t40 -19l3 13q12 57 -11 86.5t-77 29.5h-121q-51 0 -87.5 -29.5t-48.5 -86.5l-66 -313q-4 -18 -4 -31.5t5 -25.5t15 -24t27 -27l-102 -84q-24 21 -39 40
t-22 41t-6 48.5t8 61.5l67 312q23 106 92.5 166.5t176.5 60.5h137q52 0 90 -15.5t60.5 -45t28.5 -71.5t-5 -95l-104 -487zM560 247q6 27 8.5 53t-2.5 46t-19.5 32t-42.5 12t-47.5 -12t-32.5 -32t-21 -46t-14 -53t-9 -53t1.5 -46.5t19 -32.5t42.5 -12t47.5 12t33 32.5
t22 46.5t14.5 53z" />
    <glyph glyph-name="A" unicode="A" horiz-adv-x="683" 
d="M445 524l-111 -199h139zM270 209l-118 -209h-120l397 706h109l98 -706h-121l-28 209h-217z" />
    <glyph glyph-name="B" unicode="B" horiz-adv-x="615" 
d="M292 599l-38 -176h165q46 0 75.5 26.5t37.5 61.5q8 36 -12 62t-63 26h-165zM232 318l-45 -213h182q23 0 43 9t35.5 23.5t26.5 33t15 37.5q10 47 -15 78.5t-76 31.5h-166zM194 705h289q47 0 82.5 -15t57.5 -41.5t30 -62t-1 -76.5q-8 -38 -34 -76t-61 -61q42 -27 53 -69
t0 -90q-9 -40 -31.5 -78.5t-56.5 -68.5t-77.5 -48.5t-94.5 -18.5h-305z" />
    <glyph glyph-name="C" unicode="C" horiz-adv-x="678" 
d="M339 -12q-69 0 -120 26t-80.5 74t-36.5 115t10 149q17 81 52.5 147t85.5 113.5t111.5 73.5t131.5 26q198 0 240 -228l-116 -48q-14 81 -49 122t-99 41q-44 0 -82 -18.5t-68.5 -51.5t-52.5 -78t-34 -99q-11 -53 -8.5 -99t19 -80t46.5 -53t74 -19q64 0 120 44.5t91 117.5
l99 -48q-69 -118 -151.5 -172.5t-182.5 -54.5z" />
    <glyph glyph-name="D" unicode="D" horiz-adv-x="650" 
d="M435 705q67 0 119 -26.5t83.5 -74t41.5 -112t-6 -140.5t-53 -140.5t-89 -111.5t-115 -73.5t-130 -26.5h-241l149 705h241zM553 352q10 49 5.5 94t-22.5 79t-49.5 54t-73.5 20h-121l-105 -494h121q43 0 83 20t72.5 54t55.5 79t34 94z" />
    <glyph glyph-name="E" unicode="E" horiz-adv-x="516" 
d="M641 705l-22 -106h-328l-35 -164h280l-24 -112h-280l-46 -218h328l-22 -105h-448l149 705h448z" />
    <glyph glyph-name="F" unicode="F" horiz-adv-x="508" 
d="M633 705l-21 -101h-328l-39 -181h281l-21 -100h-281l-68 -323h-120l149 705h448z" />
    <glyph glyph-name="G" unicode="G" horiz-adv-x="685" 
d="M441 390h273l-82 -390h-91l-1 53q-45 -32 -96 -48.5t-105 -16.5q-69 0 -120 26t-80.5 74t-36.5 115t10 149q17 81 52.5 147t85.5 113.5t111.5 73.5t131.5 26q196 0 239 -218l-114 -55q-16 80 -50.5 120t-97.5 40q-44 0 -82 -18.5t-69 -51.5t-53 -78t-34 -99
q-11 -53 -8 -98.5t19.5 -78.5t46.5 -51.5t74 -18.5q46 0 80.5 12t60.5 34.5t43.5 54t28.5 71.5h-203z" />
    <glyph glyph-name="H" unicode="H" horiz-adv-x="593" 
d="M313 705l-55 -260h252l55 260h120l-149 -705h-120l72 340h-252l-72 -340h-119l149 705h119z" />
    <glyph glyph-name="I" unicode="I" horiz-adv-x="205" 
d="M309 705l-149 -705h-120l149 705h120z" />
    <glyph glyph-name="J" unicode="J" horiz-adv-x="500" 
d="M235 -12q-97 0 -137.5 57.5t-15.5 175.5l132 52l-11 -48q-11 -55 0.5 -87.5t56.5 -32.5t73.5 32.5t39.5 87.5l103 481h120l-102 -477q-25 -118 -89.5 -179.5t-169.5 -61.5z" />
    <glyph glyph-name="K" unicode="K" horiz-adv-x="627" 
d="M285 354l-54 -41l-66 -313h-120l149 705h120l-52 -244l318 244h159l-351 -271l219 -434h-141z" />
    <glyph glyph-name="L" unicode="L" horiz-adv-x="439" 
d="M313 706l-128 -601h255l-22 -105h-375l150 706h120z" />
    <glyph glyph-name="M" unicode="M" horiz-adv-x="758" 
d="M403 174l316 532h127l-150 -706h-120l87 411l-242 -411h-108l-62 402l-85 -402h-120l150 706h118z" />
    <glyph glyph-name="N" unicode="N" horiz-adv-x="624" 
d="M316 705l176 -485l103 485h120l-149 -705h-129l-169 486l-103 -486h-120l149 705h122z" />
    <glyph glyph-name="O" unicode="O" horiz-adv-x="710" 
d="M369 105q45 0 84 19t70.5 52.5t54 78.5t33.5 97q12 54 8.5 99t-21 78t-48.5 51.5t-76 18.5q-44 0 -83 -18.5t-70.5 -51t-54 -78t-34.5 -99.5q-11 -53 -7.5 -98.5t20.5 -78.5t48.5 -51.5t75.5 -18.5zM112 352q18 82 54.5 148.5t87.5 113.5t113.5 72.5t130.5 25.5
q71 0 123 -25.5t82 -72.5t38 -113.5t-10 -148.5q-17 -83 -53.5 -150t-87.5 -114.5t-114 -73.5t-132 -26q-70 0 -121.5 26t-82 74t-38 115t9.5 149z" />
    <glyph glyph-name="P" unicode="P" horiz-adv-x="546" 
d="M436 705q44 0 79 -17.5t57.5 -47t30.5 -68t-1 -79.5t-33.5 -79t-59 -67.5t-77 -47.5t-86.5 -18h-123l-59 -281h-120l149 705h243zM246 387h123q21 0 39.5 10t34 25.5t26 35t14.5 39.5q4 19 1.5 37t-11.5 32.5t-24 23.5t-35 9h-123z" />
    <glyph glyph-name="Q" unicode="Q" horiz-adv-x="708" 
d="M498 247l43 -48q26 35 43 74.5t26 82.5q12 56 7.5 101t-23 76.5t-50 48.5t-74.5 17t-81 -18t-69 -50t-53 -76t-33 -97q-13 -59 -10 -106t20 -79.5t46.5 -50t69.5 -17.5q23 0 44 4t42 15l-74 75zM114 358q17 79 52.5 144.5t85 112t111.5 72t131 25.5q70 0 122 -26
t83 -73.5t39.5 -113t-8.5 -143.5q-14 -68 -46 -127.5t-72 -107.5q14 -15 31 -33t31 -31l-94 -83l-60 66q-45 -28 -91 -40t-94 -12q-66 0 -116 26.5t-79 74.5t-36.5 116.5t10.5 152.5z" />
    <glyph glyph-name="R" unicode="R" horiz-adv-x="587" 
d="M572 0h-129l-109 315h-103l-66 -315h-120l149 705h258q47 0 85 -14t62.5 -40t34 -62.5t-0.5 -80.5q-6 -29 -20.5 -57t-37 -52t-51.5 -43.5t-63 -29.5zM254 420h138q25 0 46 7.5t36.5 20t25.5 28.5t13 32q8 36 -13.5 63.5t-69.5 27.5h-138z" />
    <glyph glyph-name="S" unicode="S" horiz-adv-x="593" 
d="M437 712q44 0 83.5 -13.5t68 -40.5t42.5 -68.5t6 -97.5l-121 -58l12 56q5 23 -2 43t-23 34.5t-39.5 23t-52.5 8.5q-23 0 -45 -5t-40 -14.5t-31 -24.5t-17 -35q-6 -29 6 -47.5t36 -31.5t55.5 -22.5t64 -20.5t63.5 -25.5t52.5 -36.5t31 -54t-0.5 -78q-12 -54 -39.5 -94.5
t-67 -67.5t-88 -40.5t-102.5 -13.5q-45 0 -86.5 13t-71.5 39.5t-45.5 66.5t-7.5 95l132 68q-18 -87 8 -128t95 -41q66 0 105.5 29t47.5 69q6 27 -6.5 44.5t-36.5 29.5t-56 21t-65 20t-63.5 25.5t-52 38.5t-30 59t2.5 86q10 47 38 82.5t66.5 59t83.5 35.5t90 12z" />
    <glyph glyph-name="T" unicode="T" horiz-adv-x="583" 
d="M683 705l-22 -106h-184l-127 -599h-120l127 599h-193l22 106h497z" />
    <glyph glyph-name="U" unicode="U" horiz-adv-x="624" 
d="M314 705l-94 -446q-15 -71 11.5 -114.5t91.5 -43.5q31 0 60 11.5t52.5 32t40.5 49.5t25 65l94 446h120l-94 -444q-14 -63 -44.5 -113.5t-73.5 -86t-95 -54.5t-109 -19q-58 0 -101.5 19t-69.5 54.5t-34 86t6 113.5l94 444h120z" />
    <glyph glyph-name="V" unicode="V" horiz-adv-x="634" 
d="M278 706l70 -523l24 42q66 117 135 240.5t134 240.5h121l-397 -706h-109l-97 706h119z" />
    <glyph glyph-name="W" unicode="W" horiz-adv-x="865" 
d="M648 228l217 477h119l-325 -705h-117l-18 470l-218 -470h-117l-28 705h121l15 -479l217 479h117z" />
    <glyph glyph-name="X" unicode="X" horiz-adv-x="650" 
d="M633 705h135l-306 -340l173 -365h-135l-126 266l-238 -266h-135l327 366q-16 33 -31.5 65t-31.5 65l-99 209h135l114 -244z" />
    <glyph glyph-name="Y" unicode="Y" horiz-adv-x="628" 
d="M306 260q-18 53 -37.5 109.5t-39 113.5t-39 113t-37.5 109h130l104 -324l242 324h131l-334 -446l-55 -259h-120z" />
    <glyph glyph-name="Z" unicode="Z" horiz-adv-x="567" 
d="M677 706l-21 -96l-465 -505h372l-22 -105h-527l20 95l464 504h-341l23 107h497z" />
    <glyph glyph-name="bracketleft" unicode="[" horiz-adv-x="307" 
d="M416 705l-22 -106h-106l-139 -651h106l-22 -105h-225l183 862h225z" />
    <glyph glyph-name="backslash" unicode="\" horiz-adv-x="510" 
d="M300 706l188 -839h-119l-191 839h122z" />
    <glyph glyph-name="bracketright" unicode="]" horiz-adv-x="307" 
d="M0 -157l22 105h105l139 651h-105l22 106h225l-183 -862h-225z" />
    <glyph glyph-name="asciicircum" unicode="^" horiz-adv-x="491" 
d="M431 706l96 -301l-109 -56l-61 182l-137 -182l-84 56l224 301h71z" />
    <glyph glyph-name="underscore" unicode="_" horiz-adv-x="625" 
d="M555 -13l-19 -90h-514l19 90h514z" />
    <glyph glyph-name="grave" unicode="`" horiz-adv-x="302" 
d="M180 704h138l66 -173h-137z" />
    <glyph glyph-name="a" unicode="a" horiz-adv-x="573" 
d="M367 422q-94 0 -127 -88l-108 46q37 71 105.5 111t151.5 40q108 0 152.5 -47t26.5 -135l-44 -204q-5 -24 3 -30t37 -6l-23 -109h-47q-32 0 -53.5 10t-31.5 27q-36 -23 -82 -35.5t-92 -12.5q-42 0 -75.5 10t-55.5 29.5t-31 49.5t-3 69q4 22 19 47.5t39 48t57.5 40.5
t75.5 27q38 6 72.5 12.5t61.5 13.5t43.5 15.5t18.5 19.5q5 21 -19 36t-71 15zM429 236q-20 -8 -42.5 -14.5t-45 -11t-43 -7.5t-35.5 -5l-26 -4q-19 -8 -34 -20t-18 -26q-5 -24 16 -37t57 -13q25 0 51.5 5t49 16t38.5 28t21 41z" />
    <glyph glyph-name="b" unicode="b" horiz-adv-x="550" 
d="M311 693l-43 -201q29 20 60 30t63 10q47 0 82.5 -19.5t57 -55t27.5 -84.5t-6 -107q-14 -64 -41.5 -115.5t-65 -87.5t-82 -55.5t-91.5 -19.5q-35 0 -64.5 9.5t-51.5 29.5q-4 -7 -6.5 -14.5t-4.5 -12.5h-99l147 693h118zM361 421q-24 0 -47 -13.5t-42 -36t-33 -52
t-21 -62.5q-14 -69 6.5 -111t69.5 -42q24 0 46.5 11.5t40.5 32t31.5 48.5t20.5 61q7 34 6 64t-10 52.5t-26.5 35t-41.5 12.5z" />
    <glyph glyph-name="c" unicode="c" horiz-adv-x="522" 
d="M385 532q36 0 67.5 -11.5t55.5 -34t37.5 -55.5t12.5 -75l-116 -48q0 51 -22.5 82t-58.5 31q-28 0 -52.5 -13t-44.5 -35.5t-34 -52.5t-21 -63q-14 -69 7 -111t78 -42q37 0 71.5 23.5t63.5 80.5l85 -54q-21 -41 -49 -71.5t-60.5 -51.5t-67 -31.5t-68.5 -10.5
q-54 0 -93 20.5t-61.5 56.5t-28.5 85t6 106q13 59 40.5 109.5t66 87t86 57.5t100.5 21z" />
    <glyph glyph-name="d" unicode="d" horiz-adv-x="550" 
d="M635 693l-148 -697h-100v31q-29 -20 -62.5 -29.5t-68.5 -9.5q-47 0 -83 19.5t-58 55.5t-28.5 87.5t7.5 115.5q12 58 39 107t64 84.5t81 55t91 19.5q29 0 57.5 -10.5t48.5 -29.5l43 201h117zM351 421q-24 0 -46.5 -12.5t-41.5 -35t-33 -52.5t-21 -64q-7 -33 -5.5 -62
t11 -50t27 -33.5t41.5 -12.5t46.5 12t41.5 33t33 50t21 63q7 33 5.5 62.5t-11.5 52t-27 36t-41 13.5z" />
    <glyph glyph-name="e" unicode="e" horiz-adv-x="550" 
d="M205 209q-2 -54 21 -82t62 -28q32 0 69 21.5t69 69.5l92 -52q-51 -67 -116 -108.5t-129 -41.5q-49 0 -88.5 19.5t-64 55.5t-32.5 86t5 111q13 63 39.5 113.5t63.5 86t84 54t103 18.5q49 0 86.5 -20t60 -56t28.5 -86t-7 -110l-11 -51h-335zM356 421q-38 0 -75.5 -26.5
t-54.5 -76.5h218q3 24 -3.5 43t-19 32.5t-29.5 20.5t-36 7z" />
    <glyph glyph-name="f" unicode="f" horiz-adv-x="301" 
d="M180 520l5 24q15 71 57 110t113 39h65l-24 -112h-60q-12 0 -20.5 -8.5t-13.5 -32.5l-4 -20h85l-21 -99h-85l-89 -421h-118l89 421h-47l21 99h47z" />
    <glyph glyph-name="g" unicode="g" horiz-adv-x="550" 
d="M599 520l-117 -551q-8 -39 -31.5 -72.5t-57.5 -57.5t-76.5 -37.5t-90.5 -13.5q-39 0 -71 12t-55.5 33.5t-37.5 51t-17 65.5l118 48q1 -48 24.5 -77t62.5 -29q49 0 79 26.5t39 71.5l7 30q-27 -14 -58.5 -23t-60.5 -9q-47 0 -83.5 19.5t-58.5 55.5t-28.5 87.5t7.5 115.5
q12 58 39 107t64 84t81 54.5t91 19.5q29 0 58 -10.5t49 -28.5l6 28h118zM351 421q-24 0 -46.5 -12.5t-41.5 -35t-33 -52.5t-21 -64q-7 -33 -5.5 -62t11 -50t27 -33.5t41.5 -12.5t46.5 12t41.5 33t33 50t21 63q7 33 5.5 62.5t-11 52t-27 36t-41.5 13.5z" />
    <glyph glyph-name="h" unicode="h" horiz-adv-x="549" 
d="M310 693l-42 -199q53 38 124 38q44 0 79 -16.5t56.5 -45t29.5 -68.5t-2 -86l-67 -316h-117l63 299q12 55 -11.5 88.5t-70.5 33.5q-48 0 -81.5 -34t-44.5 -88l-63 -299h-117l147 693h117z" />
    <glyph glyph-name="i" unicode="i" horiz-adv-x="205" 
d="M268 520l-110 -520h-117l110 520h117zM181 663h117l-20 -97h-117z" />
    <glyph glyph-name="j" unicode="j" horiz-adv-x="324" 
d="M382 520l-122 -574q-15 -69 -63 -107.5t-115 -38.5h-56l-21 99h93q10 0 17.5 2.5t13 10.5t10.5 22.5t10 38.5l116 547h117zM295 663h117l-20 -97h-117z" />
    <glyph glyph-name="k" unicode="k" horiz-adv-x="511" 
d="M310 693l-72 -340l211 167h163l-281 -215l166 -305h-140l-122 227l-29 -24l-43 -203h-117l147 693h117z" />
    <glyph glyph-name="l" unicode="l" horiz-adv-x="204" 
d="M304 693l-147 -693h-116l147 693h116z" />
    <glyph glyph-name="m" unicode="m" horiz-adv-x="755" 
d="M159 0h-118l110 520h118l-3 -12q22 13 45 18.5t49 5.5q38 0 68 -16t47 -47q31 29 70.5 46t77.5 17q40 0 70 -16t48.5 -44t24 -66.5t-4.5 -84.5l-68 -321h-118l68 322q10 48 -7 73.5t-48 25.5q-32 0 -56.5 -26t-34.5 -73l-68 -322h-118l68 322q10 48 -6.5 73.5t-48.5 25.5
t-59 -25.5t-38 -73.5z" />
    <glyph glyph-name="n" unicode="n" horiz-adv-x="557" 
d="M273 520l-5 -25q29 17 63 27t68 10q45 0 79.5 -15.5t56.5 -44t30 -67.5t-2 -85l-68 -320h-117l64 302q11 56 -12 87.5t-70 31.5q-48 0 -85 -32.5t-48 -86.5l-64 -302h-117l110 520h117z" />
    <glyph glyph-name="o" unicode="o" 
d="M378 532q49 0 87.5 -19.5t62.5 -55.5t31 -86.5t-6 -113.5q-13 -62 -41 -112t-66.5 -85t-85.5 -53.5t-98 -18.5t-89 18.5t-60.5 53.5t-28 85t7.5 112t40.5 113t65.5 87t84 55.5t96 19.5zM435 257q16 75 -5.5 119.5t-75.5 44.5q-28 0 -51 -12.5t-41 -35t-31.5 -52.5
t-20.5 -64q-16 -75 3.5 -116.5t73.5 -41.5q55 0 94 43t54 115z" />
    <glyph glyph-name="p" unicode="p" horiz-adv-x="550" 
d="M5 -191l151 711h109l-6 -29q32 20 65 30.5t64 10.5q47 0 83 -19.5t58 -56t28 -88t-8 -115.5q-12 -59 -39 -107.5t-63.5 -83.5t-80.5 -54.5t-91 -19.5q-67 0 -106 39l-46 -218h-118zM293 99q24 0 46.5 12.5t41 34.5t32.5 52t21 64q7 33 5.5 62t-10.5 50.5t-26.5 34
t-41.5 12.5t-46.5 -12t-41.5 -33.5t-33 -50.5t-21 -63q-7 -33 -5.5 -62.5t11 -52t27 -35.5t41.5 -13z" />
    <glyph glyph-name="q" unicode="q" horiz-adv-x="542" 
d="M328 -200l48 227q-29 -20 -60.5 -29.5t-62.5 -9.5q-47 0 -83 19.5t-58 54.5t-28 83.5t6 107.5q14 64 42 115.5t66 88t82.5 56t91.5 19.5q31 0 59.5 -10.5t51.5 -30.5l6 29h109l-153 -720h-117zM283 99q24 0 46.5 13t41.5 35.5t33.5 52t21.5 62.5q7 34 5.5 63t-11.5 50.5
t-27.5 33.5t-41.5 12t-46.5 -12.5t-41 -34t-32.5 -50.5t-21 -62q-7 -34 -5.5 -64t10.5 -52t26.5 -34.5t41.5 -12.5z" />
    <glyph glyph-name="r" unicode="r" horiz-adv-x="344" 
d="M262 520l-9 -41q28 23 65.5 37.5t92.5 14.5l-23 -110q-41 0 -70.5 -7t-50.5 -22.5t-34 -40.5t-20 -60l-61 -291h-117l110 520h117z" />
    <glyph glyph-name="s" unicode="s" horiz-adv-x="522" 
d="M367 532q89 0 135.5 -46t41.5 -131l-124 -41q3 28 -2 49.5t-16 35t-26.5 20.5t-32.5 7q-29 0 -54 -13t-30 -39q-6 -27 22.5 -38.5t76.5 -21.5q50 -11 80.5 -26.5t46.5 -37t18 -49t-5 -61.5q-8 -36 -29.5 -64.5t-53.5 -48t-73 -29.5t-86 -10q-40 0 -75.5 10.5t-61.5 33
t-39 57t-7 83.5l121 36q-8 -51 14.5 -80t64.5 -29q50 0 77.5 11.5t32.5 38.5q3 13 -3.5 22t-18 15t-26 9.5t-27.5 6.5q-37 7 -71 18.5t-58 31.5t-35 51t-1 76q4 21 18 47.5t40.5 50t67 39.5t98.5 16z" />
    <glyph glyph-name="t" unicode="t" horiz-adv-x="344" 
d="M207 520l37 173h117l-37 -173h85l-21 -99h-85l-52 -243q-10 -47 -8.5 -63t18.5 -16h59l-21 -99h-67q-66 0 -92.5 39.5t-11.5 108.5l58 273h-62l21 99h62z" />
    <glyph glyph-name="u" unicode="u" horiz-adv-x="549" 
d="M373 0l6 30q-29 -19 -65.5 -30.5t-70.5 -11.5q-44 0 -77.5 15t-54 42.5t-27 66.5t3.5 86l68 322h116l-64 -302q-12 -55 8 -87t68 -32t84.5 31t48.5 88l64 302h116l-110 -520h-114z" />
    <glyph glyph-name="v" unicode="v" horiz-adv-x="573" 
d="M266 520l43 -375l203 375h123l-304 -520h-106l-83 520h124z" />
    <glyph glyph-name="w" unicode="w" horiz-adv-x="750" 
d="M244 520l16 -321q38 78 78.5 161t78.5 160h116l19 -325l154 325h119l-259 -520h-109l-22 335q-41 -83 -83 -168.5t-80 -166.5h-109l-39 520h120z" />
    <glyph glyph-name="x" unicode="x" horiz-adv-x="544" 
d="M138 0h-137l252 269q-29 59 -63.5 126.5t-63.5 124.5h138l76 -157q34 38 71.5 78.5t71.5 78.5h138l-232 -252q32 -62 69 -134t69 -134h-137l-91 173z" />
    <glyph glyph-name="y" unicode="y" horiz-adv-x="524" 
d="M110 -90q13 0 26 11.5t24 28t19.5 35t11.5 31.5q2 8 3 18t-1 20l-74 466h123l51 -337l200 337h117l-311 -533q-21 -36 -45.5 -69.5t-51.5 -59.5t-56 -42t-59 -16h-61l23 110h61z" />
    <glyph glyph-name="z" unicode="z" horiz-adv-x="459" 
d="M541 520l-18 -87l-345 -334h274l-21 -99h-417l19 91l341 330h-257l21 99h403z" />
    <glyph glyph-name="braceleft" unicode="{" horiz-adv-x="330" 
d="M93 278q14 5 27.5 15t24 23.5t18 28.5t10.5 30l41 190q29 140 138 140h86l-18 -85q-44 0 -64 -20.5t-28 -58.5l-39 -184q-14 -69 -52 -103q14 -16 15.5 -39.5t-7.5 -65.5l-43 -201q-4 -18 -0.5 -29.5t12 -17.5t22 -8t29.5 -2l-20 -94h-86q-109 0 -79 138l41 196
q7 31 -3.5 60t-35.5 39z" />
    <glyph glyph-name="bar" unicode="|" horiz-adv-x="200" 
d="M307 712l-180 -845h-119l180 845h119z" />
    <glyph glyph-name="braceright" unicode="}" horiz-adv-x="341" 
d="M337 230q-28 -10 -51 -39t-30 -60l-41 -196q-30 -138 -139 -138h-85l19 94q32 0 55.5 10t31.5 47l43 201q9 42 20.5 65.5t31.5 39.5q-22 32 -8 103l39 184q8 38 -3 58.5t-55 20.5l18 85h86q109 0 80 -140l-41 -190q-3 -15 -2 -30t6 -28.5t14 -23.5t22 -15z" />
    <glyph glyph-name="asciitilde" unicode="~" horiz-adv-x="608" 
d="M82 236q53 59 105.5 86t102.5 27q26 0 46 -10t38.5 -21.5t36.5 -21.5t39 -10q6 0 16.5 7.5t22 19t23 25.5t19.5 27l82 -71q-40 -56 -88 -89t-101 -33q-23 0 -45 9.5t-42 21.5t-39 21.5t-35 9.5q-12 0 -36.5 -18.5t-54.5 -54.5z" />
    <glyph glyph-name="exclamdown" unicode="&#xa1;" horiz-adv-x="214" 
d="M169 0h-121l112 528h110zM320 712l-28 -130h-132l28 130h132z" />
    <glyph glyph-name="cent" unicode="&#xa2;" horiz-adv-x="548" 
d="M471 633l-20 -93q31 -8 56 -25t41.5 -44t23 -63t-0.5 -81h-112q2 67 -34 91l-64 -305q42 23 76 88h109q-15 -43 -37.5 -78t-50 -61.5t-59 -44t-64.5 -24.5l-15 -72h-119l16 75q-39 11 -66.5 35.5t-42.5 59.5t-17.5 79t8.5 94q11 52 32.5 97t51.5 80.5t68 60.5t81 36
l20 95h119zM219 264q-11 -47 -5 -84.5t29 -57.5l62 289q-32 -23 -54 -62t-32 -85z" />
    <glyph glyph-name="sterling" unicode="&#xa3;" horiz-adv-x="555" 
d="M305 244l-30 -143h255l-21 -101h-375l51 244h-106l80 116h51l31 147q10 45 32.5 82.5t55.5 64.5t75 42.5t89 15.5q63 0 105.5 -31t63.5 -87l-117 -63q-9 32 -28 50t-48 18q-35 0 -66 -21t-42 -72l-31 -146h141l-78 -116h-88z" />
    <glyph glyph-name="currency" unicode="&#xa4;" horiz-adv-x="610" 
d="M59 121l104 86q-5 20 -6.5 44t3.5 47q5 22 16 45.5t25 44.5l-67 85l101 83l68 -86q43 20 92 20q46 0 85 -22l107 89l66 -84l-109 -90q11 -42 2 -85q-11 -47 -39 -86q17 -22 35.5 -46.5t35.5 -44.5l-101 -84l-70 89q-23 -10 -48 -16t-48 -6q-48 0 -81 20l-106 -87z
M304 361q-16 -13 -25 -29.5t-13 -33.5q-4 -18 -0.5 -33.5t13 -27.5t23.5 -19t32 -7t35.5 7t32.5 19t25.5 27.5t14.5 33.5t0 34t-13.5 28t-24 19t-32.5 7q-37 0 -68 -25z" />
    <glyph glyph-name="yen" unicode="&#xa5;" horiz-adv-x="631" 
d="M96 63l21 98h165l13 62h-165l21 99h122q-29 92 -61 192t-61 191h127l103 -341l247 341h127l-279 -383h116l-21 -99h-156l-13 -62h156l-21 -98h-156l-13 -63h-120l13 63h-165z" />
    <glyph glyph-name="brokenbar" unicode="&#xa6;" horiz-adv-x="244" 
d="M113 260h119l-97 -456h-119zM207 705h119l-90 -425h-119z" />
    <glyph glyph-name="section" unicode="&#xa7;" horiz-adv-x="534" 
d="M402 496q11 21 16.5 36t7.5 25q5 23 -7.5 37t-31.5 14q-17 0 -35.5 -13t-23.5 -39q-5 -23 3.5 -39.5t41.5 -43.5q43 -36 75 -63.5t50.5 -54.5t24.5 -56t-2 -66q-10 -47 -44.5 -89.5t-84.5 -62.5q18 -31 24.5 -68t-0.5 -69q-8 -34 -27 -63t-46.5 -50.5t-60.5 -33.5
t-68 -12q-42 0 -71.5 13t-47 33.5t-23.5 46.5t0 53q4 18 10.5 38t13.5 40h128q-11 -25 -18.5 -44.5t-10.5 -30.5q-4 -18 8 -30.5t32 -12.5q23 0 38 19.5t19 37.5q7 32 -12.5 58t-57.5 56q-29 22 -54.5 44t-43 47.5t-24.5 55.5t1 68q11 48 47.5 88.5t89.5 60.5
q-23 26 -32 59.5t-1 65.5q6 28 23 57t43.5 52t61 37.5t75.5 14.5q38 0 67 -13t47 -35t24.5 -52.5t-0.5 -64.5q-2 -11 -8 -24t-12 -27h-124zM223 275q-5 -25 3 -45.5t24 -35.5t35.5 -23t36.5 -8q23 0 45.5 19.5t29.5 52.5q5 22 -1.5 42.5t-19 36.5t-28.5 25t-31 9
q-33 0 -60 -20t-34 -53z" />
    <glyph glyph-name="dieresis" unicode="&#xa8;" horiz-adv-x="434" 
d="M355 607q6 32 32.5 54t58.5 22t49 -22t11 -54q-7 -31 -34 -53.5t-59 -22.5t-48.5 22.5t-9.5 53.5zM170 607q3 16 11.5 29.5t21 24t28 16.5t31.5 6q32 0 48.5 -22t10.5 -54q-7 -31 -33.5 -53.5t-58.5 -22.5t-49 22.5t-10 53.5z" />
    <glyph glyph-name="copyright" unicode="&#xa9;" horiz-adv-x="843" 
d="M124 317q15 72 54 133t93 106t119 70t133 25t122.5 -25t89.5 -70t47.5 -106t-2.5 -133t-54 -133t-93 -105.5t-119 -69.5t-133 -25t-122.5 25t-89.5 69.5t-47.5 105.5t2.5 133zM190 317q-12 -57 -2.5 -106.5t37.5 -86t71.5 -57t97.5 -20.5t106 20.5t95 57t74 86t43 106.5
t2 107t-37 86.5t-70 57.5t-97 21t-106.5 -21t-96 -57.5t-74.5 -86.5t-43 -107zM558 373q2 38 -21 59t-57 21q-27 0 -49.5 -11t-40.5 -30t-30.5 -45t-18.5 -56q-14 -63 5.5 -100.5t73.5 -37.5q34 0 64 16t52 59h83q-12 -36 -35.5 -64.5t-53.5 -48t-63 -30t-63 -10.5
q-42 0 -75.5 16.5t-54 45.5t-27.5 68.5t3 85.5q10 48 34 88t57 69.5t73 46t82 16.5q31 0 60.5 -10.5t51 -30.5t32.5 -49.5t5 -67.5h-87z" />
    <glyph glyph-name="guillemotleft" unicode="&#xab;" horiz-adv-x="558" 
d="M336 328l-107 -72q17 -17 38.5 -36t38.5 -34l-28 -134l-188 172l14 67l260 170zM588 461l-28 -135l-108 -69l78 -71l-28 -131l-188 167l15 70z" />
    <glyph glyph-name="logicalnot" unicode="&#xac;" horiz-adv-x="600" 
d="M634 411l-51 -241h-111l27 131h-405l24 110h516z" />
    <glyph glyph-name="softhyphen" unicode="&#xad;" horiz-adv-x="422" 
d="M126 340h298l-28 -131h-298z" />
    <glyph glyph-name="registered" unicode="&#xae;" horiz-adv-x="833" 
d="M124 317q15 72 54 133t93 106t119 70t133 25t122.5 -25t89.5 -70t47.5 -106t-2.5 -133t-54 -133t-93 -105.5t-119 -69.5t-133 -25t-122.5 25t-89.5 69.5t-47.5 105.5t2.5 133zM198 317q-12 -56 -2.5 -103.5t36.5 -83t69 -55.5t95 -20q49 0 96 17.5t87 49.5h-84l-78 143
h-46l-31 -143h-85l86 403h174q31 0 56 -11t41.5 -29.5t22.5 -43t0 -51.5q-8 -38 -40 -72.5t-81 -45.5l76 -141q42 35 72 82.5t42 103.5q12 55 2 103.5t-36.5 83.5t-68 55.5t-93.5 20.5q-53 0 -103.5 -20.5t-92.5 -55.5t-72 -83.5t-42 -103.5zM385 334h74q39 0 63 17.5
t29 39.5t-11.5 40.5t-55.5 18.5h-74z" />
    <glyph glyph-name="macron" unicode="&#xaf;" horiz-adv-x="448" 
 />
    <glyph glyph-name="degree" unicode="&#xb0;" horiz-adv-x="347" 
d="M314 692q-32 0 -40 -35q-8 -38 24 -38q15 0 26 10t15 28q4 17 -3 26t-22 9zM335 792q58 0 85 -37.5t14 -97.5q-13 -63 -53 -100t-104 -37q-63 0 -87.5 37t-11.5 100q13 60 56.5 97.5t100.5 37.5z" />
    <glyph glyph-name="plusminus" unicode="&#xb1;" horiz-adv-x="590" 
d="M305 455q7 32 33.5 54t58.5 22t49 -22t10 -54t-33 -53.5t-58 -21.5t-49.5 21.5t-10.5 53.5zM91 225l24 112h480l-24 -112h-480zM231 108q7 32 33.5 53.5t58.5 21.5t49 -21.5t10 -53.5q-6 -32 -32.5 -54t-58.5 -22t-49 22t-11 54z" />
    <glyph glyph-name="twosuperior" unicode="&#xb2;" horiz-adv-x="520" 
d="M120.837 332l10.2275 50.5342l179.781 179.021q11.8418 11.8262 18.0322 21.5039q6.19043 9.67578 8.88184 22.041q4.84375 22.5791 -4.57617 36.0195q-9.41895 13.4395 -32.0264 13.4395q-18.8398 0 -35.7949 -11.5586q-16.9561 -11.5586 -22.877 -38.4375
l-8.6123 -41.9336h-64.0537l8.6123 41.9336q5.38281 24.1914 17.4941 44.3516q12.1104 20.1602 29.874 34.6748q17.7627 14.5146 40.3701 22.8477t47.9053 8.33301q24.7607 0 43.8691 -7.79492t30.6816 -22.042q11.5723 -14.2461 15.3408 -34.4062
q3.76758 -20.1592 -1.61523 -45.4268q-4.84473 -23.6543 -16.1484 -41.3945q-11.3027 -17.7412 -32.2959 -38.707l-134.028 -132.787h137.258l-12.3799 -60.2109h-223.92z" />
    <glyph glyph-name="threesuperior" unicode="&#xb3;" horiz-adv-x="530" 
d="M355.093 441.166q-5.89453 -27.8633 -19.5596 -49.0283q-13.666 -21.166 -32.6895 -35.6328q-19.0244 -14.4678 -42.0674 -21.7012t-47.6943 -7.2334q-23.5791 0 -43.1387 7.2334q-19.5605 7.2334 -32.4219 22.2373q-12.8613 15.0029 -17.9521 37.7754t0.268555 53.8506
h63.7705q-2.14355 -16.6104 0.267578 -28.1309q2.41211 -11.5205 8.57422 -18.7539q6.16309 -7.2334 14.7373 -10.7168q8.57422 -3.48242 18.7559 -3.48242q22.5078 0 40.9961 14.1992t23.8467 39.9189q5.89453 25.7197 -4.01953 40.9912q-9.91309 15.2705 -38.8516 15.2705
h-30.0098l12.3252 60.0127h30.0098q48.7656 0 58.9482 47.1533q5.3584 25.1836 -5.89551 37.7754q-11.2529 12.5918 -30.5449 12.5918q-21.9717 0 -38.3164 -15.8066t-24.3828 -43.1338h-64.3066q7.50195 27.8633 21.7031 50.0996q14.2012 22.2373 32.6895 37.5078
q18.4883 15.2715 40.46 23.3086q21.9717 8.03809 45.0146 8.03809q24.6504 0 43.4062 -7.76953q18.7568 -7.76953 30.2783 -22.2373t15.2725 -34.8291q3.75195 -20.3613 -1.60742 -45.0088q-5.35938 -25.7197 -16.8809 -43.9385q-11.5215 -18.2178 -31.3496 -31.0781
q18.2207 -13.9316 22.7754 -35.9004q4.55566 -21.9688 -2.41113 -53.582z" />
    <glyph glyph-name="acute" unicode="&#xb4;" horiz-adv-x="325" 
d="M285 576h-97l116 144h115z" />
    <glyph glyph-name="mu" unicode="&#xb5;" horiz-adv-x="580" 
d="M161 -171h-134l148 695h134l-60 -284q-30 -140 52 -140t112 140l60 284h135l-82 -384q-7 -31 6 -31l37 1l-23 -108l-61 -5q-2 0 -3 -0.5t-3 -0.5q-32 0 -55 9t-36 23q-24 -20 -53.5 -33t-58.5 -13q-21 0 -41 6t-36 19z" />
    <glyph glyph-name="paragraph" unicode="&#xb6;" horiz-adv-x="544" 
d="M250 349q-28 7 -49 24.5t-33.5 41t-16 52t2.5 59.5q8 39 27.5 72t46.5 57t60.5 37.5t69.5 13.5h274l-25 -117h-49l-159 -746h-112l159 746h-33l-159 -746h-112z" />
    <glyph glyph-name="periodcentered" unicode="&#xb7;" horiz-adv-x="287" 
d="M125 413h201l-42 -200h-201z" />
    <glyph glyph-name="onesuperior" unicode="&#xb9;" horiz-adv-x="325" 
d="M181.013 327l74.6943 295.228l-5.79492 -3.78418l-88.2168 -55.6934l20.6055 80.0254l106.246 65.9658h66.3242l-96.5879 -381.741h-77.2705z" />
    <glyph glyph-name="ordmasculine" unicode="&#xba;" horiz-adv-x="579" 
d="M304.048 702.146q27.4883 0 49.0859 -10.9287q21.5967 -10.9287 35.0605 -31.1035q13.4639 -20.1758 17.3906 -48.4766q3.92676 -28.3018 -3.36621 -63.6084q-7.29297 -34.7461 -23 -62.7676t-37.3047 -47.6367q-21.5977 -19.6143 -47.9629 -29.9824
q-26.3662 -10.3672 -54.9756 -10.3672q-28.6104 0 -49.9268 10.3672q-21.3174 10.3682 -33.9395 29.9824q-12.6221 19.6152 -15.707 47.6367t4.20703 62.7676q7.29297 34.7461 22.7197 63.3281q15.4268 28.5811 36.7441 48.7568q21.3164 20.1748 47.1211 31.1035
q25.8057 10.9287 53.8535 10.9287zM336.023 548.029q8.97559 42.0312 -3.08496 66.9707q-12.0615 24.9385 -42.3535 24.9385q-15.707 0 -28.6094 -7.00488q-12.9033 -7.00586 -23 -19.6152q-10.0977 -12.6094 -17.6709 -29.4219t-11.5 -35.8672
q-8.97559 -42.0322 1.96289 -65.29q10.9395 -23.2568 41.2324 -23.2568q30.8535 0 52.7314 24.0977q21.8779 24.0986 30.292 64.4492z" />
    <glyph glyph-name="guillemotright" unicode="&#xbb;" horiz-adv-x="521" 
d="M329 293l-15 -71l-260 -167l28 131l107 71q-19 17 -39.5 34.5t-37.5 34.5l28 135zM364 461l188 -170l-14 -67l-260 -172l28 134l106 71l-76 71z" />
    <glyph glyph-name="onequarter" unicode="&#xbc;" horiz-adv-x="642" 
d="M187.625 335l61.6748 289.096l-4.78516 -3.70605l-72.8398 -54.5361l17.0137 78.3633l87.7266 64.5957h54.7627l-79.752 -373.812h-63.8008zM244.626 125.614h-75.21l292.625 536.342h75.21zM577.404 267.365l-16.5156 -79.3652h-63.9336l16.5166 79.3652h-144.383
l11.7217 55.3965l181.144 240.759h73.5234l-176.882 -236.498h67.6621l21.3115 100.139h63.9326l-21.3105 -100.139h46.3516l-12.7871 -59.6572h-46.3516z" />
    <glyph glyph-name="onehalf" unicode="&#xbd;" horiz-adv-x="1329" 
d="M407.96 150l10.2754 50.9297l180.639 180.423q11.8984 11.9199 18.1182 21.6719q6.21875 9.75293 8.92285 22.2148q4.86816 22.7559 -4.59668 36.3008q-9.46484 13.5459 -32.1797 13.5459q-18.9287 0 -35.9648 -11.6494q-17.0361 -11.6484 -22.9854 -38.7393
l-8.65332 -42.2607h-64.3594l8.65332 42.2607q5.4082 24.3809 17.5771 44.6992q12.1689 20.3174 30.0156 34.9463q17.8477 14.6289 40.5625 23.0273q22.7148 8.39746 48.1348 8.39746q24.8779 0 44.0771 -7.85547q19.2002 -7.85645 30.8281 -22.2148
q11.6279 -14.3574 15.4131 -34.6758q3.78613 -20.3174 -1.62207 -45.7822q-4.86719 -23.8398 -16.2246 -41.7197q-11.3584 -17.8799 -32.4502 -39.0098l-134.668 -133.827h137.913l-12.4395 -60.6826h-224.986zM187.625 335l61.6748 289.096l-4.78516 -3.70605
l-72.8398 -54.5361l17.0137 78.3633l87.7266 64.5957h54.7627l-79.752 -373.812h-63.8008zM243.626 120.614h-75.21l292.625 536.342h75.21z" />
    <glyph glyph-name="threequarters" unicode="&#xbe;" horiz-adv-x="738" 
d="M370.561 442.616q-5.84277 -27.7197 -19.3867 -48.7773q-13.5439 -21.0566 -32.3984 -35.4492q-18.8555 -14.3936 -41.6934 -21.5898q-22.8389 -7.19629 -47.2705 -7.19629q-23.3701 0 -42.7559 7.19629q-19.3867 7.19629 -32.1338 22.123
q-12.7471 14.9258 -17.793 37.582q-5.04492 22.6553 0.265625 53.5742h63.2051q-2.125 -16.5254 0.264648 -27.9863q2.39062 -11.4619 8.49805 -18.6582q6.1084 -7.19629 14.6064 -10.6611t18.5898 -3.46484q22.3066 0 40.6309 14.126q18.3242 14.127 23.6348 39.7148
q5.84277 25.5879 -3.9834 40.7803q-9.8252 15.1934 -38.5068 15.1934h-29.7422l12.2158 59.7051h29.7432q48.332 0 58.4238 46.9111q5.31152 25.0547 -5.84277 37.582q-11.1533 12.5273 -30.2744 12.5273q-21.7754 0 -37.9756 -15.7256q-16.1992 -15.7266 -24.166 -42.9131
h-63.7354q7.43555 27.7197 21.5107 49.8428t32.3984 37.3154q18.3242 15.1934 40.1006 23.1895t44.6143 7.99609q24.4326 0 43.0215 -7.72949q18.5898 -7.72949 30.0088 -22.123q11.4199 -14.3936 15.1377 -34.6504t-1.59375 -44.7783q-5.31152 -25.5879 -16.7305 -43.7129
t-31.0713 -30.9189q18.0586 -13.8604 22.5732 -35.7168q4.51465 -21.8555 -2.38965 -53.3076zM332.626 125.614h-75.21l292.625 536.342h75.21zM667.404 235.365l-16.5156 -79.3652h-63.9336l16.5166 79.3652h-144.383l11.7217 55.3965l181.144 240.759h73.5234
l-176.882 -236.498h67.6621l21.3115 100.139h63.9326l-21.3105 -100.139h46.3516l-12.7871 -59.6572h-46.3516z" />
    <glyph glyph-name="questiondown" unicode="&#xbf;" horiz-adv-x="503" 
d="M92.0322 -23.9688q4 17.999 13.499 36.998q9.5 18.999 28.499 44.4971q18.999 25.499 49.9971 61.4961q30.998 35.998 77.9951 87.9951q7.99902 7.99902 13.499 19.499q5.5 11.499 7.49902 18.499l15.999 73.9951h118.993l-15.999 -74.9951q-4 -15.999 -9.49902 -29.999
q-5.5 -13.999 -15.499 -29.998q-10 -15.999 -25.999 -35.4971q-15.999 -19.499 -40.9971 -47.498q-30.998 -33.9971 -49.9971 -54.9961t-29.498 -33.998q-10.5 -12.999 -14.499 -20.999q-4 -7.99902 -6 -14.999q-8 -34.998 9.99902 -58.4961q17.999 -23.499 52.9971 -23.499
q18.999 0 35.998 8.5q16.999 8.49902 30.498 23.498t23.498 34.998q10 19.999 14 41.998h119.992q-9.99902 -45.9971 -33.498 -86.4951q-23.498 -40.4971 -56.9961 -70.4961q-33.498 -29.998 -73.9961 -47.4971q-40.4971 -17.499 -83.4941 -17.499q-41.998 0 -75.4961 14.5
q-33.498 14.499 -54.4961 39.9971q-20.999 25.499 -28.499 61.4961q-7.49902 35.998 1.5 78.9951zM461.01 493l-26.998 -130.992h-132.992l26.999 130.992h132.991z" />
    <glyph glyph-name="Agrave" unicode="&#xc0;" horiz-adv-x="701" 
d="M449 524l-111 -199h139zM274 209l-118 -209h-120l397 706h109l98 -706h-121l-28 209h-217zM421 903h138l66 -173h-137z" />
    <glyph glyph-name="Aacute" unicode="&#xc1;" horiz-adv-x="701" 
d="M449 524l-111 -199h139zM274 209l-118 -209h-120l397 706h109l98 -706h-121l-28 209h-217zM502 759h-97l116 144h115z" />
    <glyph glyph-name="Acircumflex" unicode="&#xc2;" horiz-adv-x="701" 
d="M449 524l-111 -199h139zM274 209l-118 -209h-120l397 706h109l98 -706h-121l-28 209h-217zM573.861 909.253l80.7676 -154.024h-98.7158l-27.9199 60.3105l-53.8447 -60.3105h-99.7139l152.562 154.024h46.8652z" />
    <glyph glyph-name="Atilde" unicode="&#xc3;" horiz-adv-x="645" 
d="M421 524l-111 -199h139zM246 209l-118 -209h-120l397 706h109l98 -706h-121l-28 209h-217zM278.079 785.636q41.9922 38.0586 81.6934 62.0352q39.7012 23.9775 78.6396 23.9775q19.8506 0 36.2656 -7.6123q16.415 -7.61133 33.2119 -17.5068h-0.763672l3.05371 -2.2832
q12.9795 -7.61133 25.959 -14.082q12.9785 -6.46973 24.4316 -6.46973q4.58008 0 12.5977 5.70898q8.0166 5.70898 16.7959 14.4619q8.78027 8.75391 17.5605 19.4102t14.8877 20.5518l63.3701 -54.8047q-14.5068 -17.5068 -31.3027 -34.2529
q-16.7969 -16.7451 -35.1211 -29.6855q-18.3232 -12.9395 -38.1738 -20.5508q-19.8516 -7.6123 -40.4658 -7.6123q-17.5596 0 -34.3564 7.23145t-32.0664 16.3652t-29.7764 16.3652q-14.5059 7.23047 -26.7217 7.23047q-9.16211 0 -27.8672 -14.0811
q-18.7061 -14.082 -41.6104 -41.4844z" />
    <glyph glyph-name="Adieresis" unicode="&#xc4;" horiz-adv-x="701" 
d="M449 524l-111 -199h139zM274 209l-118 -209h-120l397 706h109l98 -706h-121l-28 209h-217zM535 832q6 32 32.5 54t58.5 22t49 -22t11 -54q-7 -31 -34 -53.5t-59 -22.5t-48.5 22.5t-9.5 53.5zM350 832q3 16 11.5 29.5t21 24t28 16.5t31.5 6q32 0 48.5 -22t10.5 -54
q-7 -31 -33.5 -53.5t-58.5 -22.5t-49 22.5t-10 53.5z" />
    <glyph glyph-name="Aring" unicode="&#xc5;" horiz-adv-x="645" 
d="M421 524l-111 -199h139zM246 209l-118 -209h-120l397 706h109l98 -706h-121l-28 209h-217zM455 826q-2 -13 5.5 -22.5t21.5 -9.5q12 0 23 9.5t13 22.5q3 13 -4 22t-19 9q-14 0 -25.5 -9t-14.5 -22zM377 826q5 23 18 43.5t31.5 35.5t40.5 23.5t45 8.5t41 -8.5t30 -23.5
t16 -35.5t-1 -43.5t-18 -43t-31 -35t-39.5 -24t-44.5 -9t-41.5 9t-30.5 24t-16.5 35t0.5 43z" />
    <glyph glyph-name="AE" unicode="&#xc6;" horiz-adv-x="1049" 
d="M1108 706l-23 -107h-326l-38 -176h278l-23 -112h-277l-45 -210h325l-21 -101h-457l44 209h-205q-45 -51 -91.5 -104.5t-90.5 -104.5h-130l622 706h458zM609 515l-167 -190h127z" />
    <glyph glyph-name="Egrave" unicode="&#xc8;" horiz-adv-x="555" 
d="M640 705l-22 -106h-328l-35 -164h280l-24 -112h-280l-46 -218h328l-22 -105h-448l149 705h448zM348 903h138l66 -173h-137z" />
    <glyph glyph-name="Eacute" unicode="&#xc9;" horiz-adv-x="555" 
d="M640 705l-22 -106h-328l-35 -164h280l-24 -112h-280l-46 -218h328l-22 -105h-448l149 705h448zM452 757h-97l116 144h115z" />
    <glyph glyph-name="Ecircumflex" unicode="&#xca;" horiz-adv-x="527" 
d="M640 705l-22 -106h-328l-35 -164h280l-24 -112h-280l-46 -218h328l-22 -105h-448l149 705h448zM480 924l81 -166h-99l-28 65l-54 -65h-100l153 166h47z" />
    <glyph glyph-name="Edieresis" unicode="&#xcb;" horiz-adv-x="527" 
d="M640 705l-22 -106h-328l-35 -164h280l-24 -112h-280l-46 -218h328l-22 -105h-448l149 705h448zM448 831q6 32 32.5 54t58.5 22t49 -22t11 -54q-7 -31 -34 -53.5t-59 -22.5t-48.5 22.5t-9.5 53.5zM263 831q3 16 11.5 29.5t21 24t28 16.5t31.5 6q32 0 48.5 -22t10.5 -54
q-7 -31 -33.5 -53.5t-58.5 -22.5t-49 22.5t-10 53.5z" />
    <glyph glyph-name="Igrave" unicode="&#xcc;" horiz-adv-x="192" 
d="M305 705l-149 -705h-120l149 705h120zM168 903h138l66 -173h-137z" />
    <glyph glyph-name="Iacute" unicode="&#xcd;" horiz-adv-x="192" 
d="M305 705l-149 -705h-120l149 705h120zM250 775h-97l116 144h115z" />
    <glyph glyph-name="Icircumflex" unicode="&#xce;" horiz-adv-x="200" 
d="M305 705l-149 -705h-120l149 705h120zM318 924l81 -166h-99l-28 65l-54 -65h-100l153 166h47z" />
    <glyph glyph-name="Idieresis" unicode="&#xcf;" horiz-adv-x="200" 
d="M305 705l-149 -705h-120l149 705h120zM277 786q6 32 32.5 54t58.5 22t49 -22t11 -54q-7 -31 -34 -53.5t-59 -22.5t-48.5 22.5t-9.5 53.5zM92 786q3 16 11.5 29.5t21 24t28 16.5t31.5 6q32 0 48.5 -22t10.5 -54q-7 -31 -33.5 -53.5t-58.5 -22.5t-49 22.5t-10 53.5z" />
    <glyph glyph-name="Ntilde" unicode="&#xd1;" horiz-adv-x="633" 
d="M315 705l176 -485l103 485h120l-149 -705h-129l-169 486l-103 -486h-120l149 705h122zM261.241 748.121q42.791 37.3145 83.248 60.8223q40.4561 23.5068 80.1348 23.5068q20.2285 0 36.9561 -7.46191q16.7275 -7.46289 33.8438 -17.165h-0.77832l3.1123 -2.23828
q13.2266 -7.46289 26.4521 -13.8066q13.2266 -6.34277 24.8965 -6.34277q4.66895 0 12.8379 5.59668t17.1162 14.1797q8.94727 8.58203 17.8945 19.0293q8.94727 10.4482 15.1709 20.1494l64.5752 -53.7314q-14.7822 -17.1641 -31.8984 -33.583
q-17.1162 -16.418 -35.7891 -29.1045q-18.6719 -12.6865 -38.9004 -20.1494t-41.2344 -7.46289q-17.8945 0 -35.0107 7.08984q-17.1172 7.08984 -32.6768 16.0449q-15.5605 8.95508 -30.3428 16.0449t-27.2305 7.08984q-9.33594 0 -28.3975 -13.8066
q-19.0615 -13.8057 -42.4023 -40.6719z" />
    <glyph glyph-name="Ograve" unicode="&#xd2;" horiz-adv-x="729" 
d="M377 105q45 0 84 19t70.5 52.5t54 78.5t33.5 97q12 54 8.5 99t-21 78t-48.5 51.5t-76 18.5q-44 0 -83 -18.5t-70.5 -51t-54 -78t-34.5 -99.5q-11 -53 -7.5 -98.5t20.5 -78.5t48.5 -51.5t75.5 -18.5zM120 352q18 82 54.5 148.5t87.5 113.5t113.5 72.5t130.5 25.5
q71 0 123 -25.5t82 -72.5t38 -113.5t-10 -148.5q-17 -83 -53.5 -150t-87.5 -114.5t-114 -73.5t-132 -26q-70 0 -121.5 26t-82 74t-38 115t9.5 149zM435 903h138l66 -173h-137z" />
    <glyph glyph-name="Oacute" unicode="&#xd3;" horiz-adv-x="729" 
d="M377 105q45 0 84 19t70.5 52.5t54 78.5t33.5 97q12 54 8.5 99t-21 78t-48.5 51.5t-76 18.5q-44 0 -83 -18.5t-70.5 -51t-54 -78t-34.5 -99.5q-11 -53 -7.5 -98.5t20.5 -78.5t48.5 -51.5t75.5 -18.5zM120 352q18 82 54.5 148.5t87.5 113.5t113.5 72.5t130.5 25.5
q71 0 123 -25.5t82 -72.5t38 -113.5t-10 -148.5q-17 -83 -53.5 -150t-87.5 -114.5t-114 -73.5t-132 -26q-70 0 -121.5 26t-82 74t-38 115t9.5 149zM523 757h-97l116 144h115z" />
    <glyph glyph-name="Ocircumflex" unicode="&#xd4;" horiz-adv-x="738" 
d="M377 105q45 0 84 19t70.5 52.5t54 78.5t33.5 97q12 54 8.5 99t-21 78t-48.5 51.5t-76 18.5q-44 0 -83 -18.5t-70.5 -51t-54 -78t-34.5 -99.5q-11 -53 -7.5 -98.5t20.5 -78.5t48.5 -51.5t75.5 -18.5zM120 352q18 82 54.5 148.5t87.5 113.5t113.5 72.5t130.5 25.5
q71 0 123 -25.5t82 -72.5t38 -113.5t-10 -148.5q-17 -83 -53.5 -150t-87.5 -114.5t-114 -73.5t-132 -26q-70 0 -121.5 26t-82 74t-38 115t9.5 149zM603 986l81 -166h-99l-28 65l-54 -65h-100l153 166h47z" />
    <glyph glyph-name="Otilde" unicode="&#xd5;" horiz-adv-x="738" 
d="M377 105q45 0 84 19t70.5 52.5t54 78.5t33.5 97q12 54 8.5 99t-21 78t-48.5 51.5t-76 18.5q-44 0 -83 -18.5t-70.5 -51t-54 -78t-34.5 -99.5q-11 -53 -7.5 -98.5t20.5 -78.5t48.5 -51.5t75.5 -18.5zM120 352q18 82 54.5 148.5t87.5 113.5t113.5 72.5t130.5 25.5
q71 0 123 -25.5t82 -72.5t38 -113.5t-10 -148.5q-17 -83 -53.5 -150t-87.5 -114.5t-114 -73.5t-132 -26q-70 0 -121.5 26t-82 74t-38 115t9.5 149zM273 776q55 50 107 81.5t103 31.5q26 0 47.5 -10t43.5 -23h-1l4 -3q17 -10 34 -18.5t32 -8.5q6 0 16.5 7.5t22 19t23 25.5
t19.5 27l83 -72q-19 -23 -41 -45t-46 -39t-50 -27t-53 -10q-23 0 -45 9.5t-42 21.5t-39 21.5t-35 9.5q-12 0 -36.5 -18.5t-54.5 -54.5z" />
    <glyph glyph-name="Odieresis" unicode="&#xd6;" horiz-adv-x="738" 
d="M377 105q45 0 84 19t70.5 52.5t54 78.5t33.5 97q12 54 8.5 99t-21 78t-48.5 51.5t-76 18.5q-44 0 -83 -18.5t-70.5 -51t-54 -78t-34.5 -99.5q-11 -53 -7.5 -98.5t20.5 -78.5t48.5 -51.5t75.5 -18.5zM120 352q18 82 54.5 148.5t87.5 113.5t113.5 72.5t130.5 25.5
q71 0 123 -25.5t82 -72.5t38 -113.5t-10 -148.5q-17 -83 -53.5 -150t-87.5 -114.5t-114 -73.5t-132 -26q-70 0 -121.5 26t-82 74t-38 115t9.5 149zM555 837q6 32 32.5 54t58.5 22t49 -22t11 -54q-7 -31 -34 -53.5t-59 -22.5t-48.5 22.5t-9.5 53.5zM370 837q3 16 11.5 29.5
t21 24t28 16.5t31.5 6q32 0 48.5 -22t10.5 -54q-7 -31 -33.5 -53.5t-58.5 -22.5t-49 22.5t-10 53.5z" />
    <glyph glyph-name="multiply" unicode="&#xd7;" horiz-adv-x="523" 
d="M223 297l-106 135l102 82l105 -134l163 134l65 -82l-163 -135l106 -134l-101 -84l-105 135l-163 -135l-66 84z" />
    <glyph glyph-name="Oslash" unicode="&#xd8;" horiz-adv-x="738" 
d="M377 105q45 0 84 19t70.5 52.5t54 78.5t33.5 97q12 54 8.5 99t-21 78t-48.5 51.5t-76 18.5q-44 0 -83 -18.5t-70.5 -51t-54 -78t-34.5 -99.5q-11 -53 -7.5 -98.5t20.5 -78.5t48.5 -51.5t75.5 -18.5zM120 352q18 82 54.5 148.5t87.5 113.5t113.5 72.5t130.5 25.5
q71 0 123 -25.5t82 -72.5t38 -113.5t-10 -148.5q-17 -83 -53.5 -150t-87.5 -114.5t-114 -73.5t-132 -26q-70 0 -121.5 26t-82 74t-38 115t9.5 149zM262 -46h-119l463 851h119z" />
    <glyph glyph-name="Ugrave" unicode="&#xd9;" horiz-adv-x="625" 
d="M313 705l-94 -446q-15 -71 11.5 -114.5t91.5 -43.5q31 0 60 11.5t52.5 32t40.5 49.5t25 65l94 446h120l-94 -444q-14 -63 -44.5 -113.5t-73.5 -86t-95 -54.5t-109 -19q-58 0 -101.5 19t-69.5 54.5t-34 86t6 113.5l94 444h120zM383 903h138l66 -173h-137z" />
    <glyph glyph-name="Uacute" unicode="&#xda;" horiz-adv-x="625" 
d="M313 705l-94 -446q-15 -71 11.5 -114.5t91.5 -43.5q31 0 60 11.5t52.5 32t40.5 49.5t25 65l94 446h120l-94 -444q-14 -63 -44.5 -113.5t-73.5 -86t-95 -54.5t-109 -19q-58 0 -101.5 19t-69.5 54.5t-34 86t6 113.5l94 444h120zM465 775h-97l116 144h115z" />
    <glyph glyph-name="Ucircumflex" unicode="&#xdb;" horiz-adv-x="633" 
d="M313 705l-94 -446q-15 -71 11.5 -114.5t91.5 -43.5q31 0 60 11.5t52.5 32t40.5 49.5t25 65l94 446h120l-94 -444q-14 -63 -44.5 -113.5t-73.5 -86t-95 -54.5t-109 -19q-58 0 -101.5 19t-69.5 54.5t-34 86t6 113.5l94 444h120zM533 924l81 -166h-99l-28 65l-54 -65h-100
l153 166h47z" />
    <glyph glyph-name="Udieresis" unicode="&#xdc;" horiz-adv-x="633" 
d="M313 705l-94 -446q-15 -71 11.5 -114.5t91.5 -43.5q31 0 60 11.5t52.5 32t40.5 49.5t25 65l94 446h120l-94 -444q-14 -63 -44.5 -113.5t-73.5 -86t-95 -54.5t-109 -19q-58 0 -101.5 19t-69.5 54.5t-34 86t6 113.5l94 444h120zM500 824q6 32 32.5 54t58.5 22t49 -22
t11 -54q-7 -31 -34 -53.5t-59 -22.5t-48.5 22.5t-9.5 53.5zM315 824q3 16 11.5 29.5t21 24t28 16.5t31.5 6q32 0 48.5 -22t10.5 -54q-7 -31 -33.5 -53.5t-58.5 -22.5t-49 22.5t-10 53.5z" />
    <glyph glyph-name="Yacute" unicode="&#xdd;" horiz-adv-x="687" 
d="M331 260q-18 53 -37.5 109.5t-39 113.5t-39 113t-37.5 109h130l104 -324l242 324h131l-334 -446l-55 -259h-120zM517 754h-97l116 144h115z" />
    <glyph glyph-name="agrave" unicode="&#xe0;" horiz-adv-x="628" 
d="M343 704h138l66 -173h-137z" />
    <glyph glyph-name="aacute" unicode="&#xe1;" horiz-adv-x="628" 
d="M425 576h-97l116 144h115z" />
    <glyph glyph-name="acircumflex" unicode="&#xe2;" horiz-adv-x="628" 
d="M492 745l81 -166h-99l-28 65l-54 -65h-100l153 166h47z" />
    <glyph glyph-name="atilde" unicode="&#xe3;" horiz-adv-x="628" 
d="M221.411 620.68q42.2197 39.5508 82.1377 64.4678q39.917 24.917 79.0664 24.917q19.959 0 36.4629 -7.91016t33.3926 -18.1934h-0.767578l3.07031 -2.37305q13.0498 -7.91016 26.0996 -14.6338t24.5645 -6.72363q4.60547 0 12.666 5.93262t16.8887 15.0293
q8.82715 9.09668 17.6553 20.1709t14.9688 21.3574l63.7139 -56.9531q-14.585 -18.1934 -31.4727 -35.5957q-16.8887 -17.4023 -35.3115 -30.8496q-18.4238 -13.4473 -38.3818 -21.3574q-19.959 -7.91016 -40.6855 -7.91016q-17.6553 0 -34.543 7.51465
q-16.8887 7.51465 -32.2412 17.0068t-29.9375 17.0068q-14.5859 7.51465 -26.8682 7.51465q-9.21094 0 -28.0186 -14.6338q-18.8066 -14.6338 -41.8359 -43.1104z" />
    <glyph glyph-name="adieresis" unicode="&#xe4;" horiz-adv-x="628" 
d="M452 607q6 32 32.5 54t58.5 22t49 -22t11 -54q-7 -31 -34 -53.5t-59 -22.5t-48.5 22.5t-9.5 53.5zM267 607q3 16 11.5 29.5t21 24t28 16.5t31.5 6q32 0 48.5 -22t10.5 -54q-7 -31 -33.5 -53.5t-58.5 -22.5t-49 22.5t-10 53.5z" />
    <glyph glyph-name="aring" unicode="&#xe5;" horiz-adv-x="628" 
d="M413 644q-2 -13 5.5 -22.5t21.5 -9.5q12 0 23 9.5t13 22.5q3 13 -4 22t-19 9q-14 0 -25.5 -9t-14.5 -22zM335 644q5 23 18 43.5t31.5 35.5t40.5 23.5t45 8.5t41 -8.5t30 -23.5t16 -35.5t-1 -43.5t-18 -43t-31 -35t-39.5 -24t-44.5 -9t-41.5 9t-30.5 24t-16.5 35t0.5 43z
" />
    <glyph glyph-name="egrave" unicode="&#xe8;" horiz-adv-x="571" 
d="M213 209q-2 -54 21 -82t62 -28q32 0 69 21.5t69 69.5l92 -52q-51 -67 -116 -108.5t-129 -41.5q-49 0 -88.5 19.5t-64 55.5t-32.5 86t5 111q13 63 39.5 113.5t63.5 86t84 54t103 18.5q49 0 86.5 -20t60 -56t28.5 -86t-7 -110l-11 -51h-335zM364 421q-38 0 -75.5 -26.5
t-54.5 -76.5h218q3 24 -3.5 43t-19 32.5t-29.5 20.5t-36 7zM314 704h138l66 -173h-137z" />
    <glyph glyph-name="eacute" unicode="&#xe9;" horiz-adv-x="571" 
d="M213 209q-2 -54 21 -82t62 -28q32 0 69 21.5t69 69.5l92 -52q-51 -67 -116 -108.5t-129 -41.5q-49 0 -88.5 19.5t-64 55.5t-32.5 86t5 111q13 63 39.5 113.5t63.5 86t84 54t103 18.5q49 0 86.5 -20t60 -56t28.5 -86t-7 -110l-11 -51h-335zM364 421q-38 0 -75.5 -26.5
t-54.5 -76.5h218q3 24 -3.5 43t-19 32.5t-29.5 20.5t-36 7zM396 576h-97l116 144h115z" />
    <glyph glyph-name="ecircumflex" unicode="&#xea;" horiz-adv-x="571" 
d="M213 209q-2 -54 21 -82t62 -28q32 0 69 21.5t69 69.5l92 -52q-51 -67 -116 -108.5t-129 -41.5q-49 0 -88.5 19.5t-64 55.5t-32.5 86t5 111q13 63 39.5 113.5t63.5 86t84 54t103 18.5q49 0 86.5 -20t60 -56t28.5 -86t-7 -110l-11 -51h-335zM364 421q-38 0 -75.5 -26.5
t-54.5 -76.5h218q3 24 -3.5 43t-19 32.5t-29.5 20.5t-36 7zM464 745l81 -166h-99l-28 65l-54 -65h-100l153 166h47z" />
    <glyph glyph-name="edieresis" unicode="&#xeb;" horiz-adv-x="571" 
d="M213 209q-2 -54 21 -82t62 -28q32 0 69 21.5t69 69.5l92 -52q-51 -67 -116 -108.5t-129 -41.5q-49 0 -88.5 19.5t-64 55.5t-32.5 86t5 111q13 63 39.5 113.5t63.5 86t84 54t103 18.5q49 0 86.5 -20t60 -56t28.5 -86t-7 -110l-11 -51h-335zM364 421q-38 0 -75.5 -26.5
t-54.5 -76.5h218q3 24 -3.5 43t-19 32.5t-29.5 20.5t-36 7zM438 658q6 32 32.5 54t58.5 22t49 -22t11 -54q-7 -31 -34 -53.5t-59 -22.5t-48.5 22.5t-9.5 53.5zM253 658q3 16 11.5 29.5t21 24t28 16.5t31.5 6q32 0 48.5 -22t10.5 -54q-7 -31 -33.5 -53.5t-58.5 -22.5
t-49 22.5t-10 53.5z" />
    <glyph glyph-name="igrave" unicode="&#xec;" horiz-adv-x="192" 
d="M263 520l-110 -520h-116l110 520h116zM141 729h138l66 -173h-137z" />
    <glyph glyph-name="iacute" unicode="&#xed;" horiz-adv-x="192" 
d="M264 520l-110 -520h-117l110 520h117zM229 601h-97l116 144h115z" />
    <glyph glyph-name="icircumflex" unicode="&#xee;" horiz-adv-x="192" 
d="M263 520l-110 -520h-116l110 520h116zM297 770l81 -166h-99l-28 65l-54 -65h-100l153 166h47z" />
    <glyph glyph-name="idieresis" unicode="&#xef;" horiz-adv-x="192" 
d="M263 520l-110 -520h-116l110 520h116zM256 632q6 32 32.5 54t58.5 22t49 -22t11 -54q-7 -31 -34 -53.5t-59 -22.5t-48.5 22.5t-9.5 53.5zM71 632q3 16 11.5 29.5t21 24t28 16.5t31.5 6q32 0 48.5 -22t10.5 -54q-7 -31 -33.5 -53.5t-58.5 -22.5t-49 22.5t-10 53.5z" />
    <glyph glyph-name="ntilde" unicode="&#xf1;" 
d="M265 520l-5 -25q29 17 63 27t68 10q45 0 79.5 -15.5t56.5 -44t30 -67.5t-2 -85l-68 -320h-117l64 302q11 56 -12 87.5t-70 31.5q-48 0 -85 -32.5t-48 -86.5l-64 -302h-117l110 520h117zM203.407 637.922q42.9053 39.1787 83.4697 63.8613t80.3496 24.6826
q20.2822 0 37.0537 -7.83594q16.7725 -7.83594 33.9346 -18.0225h-0.780273l3.12012 -2.35059q13.2617 -7.83496 26.5234 -14.4961q13.2607 -6.66016 24.9629 -6.66016q4.67969 0 12.8711 5.87695t17.1621 14.8877q8.9707 9.01172 17.9424 19.9814
q8.9707 10.9697 15.2109 21.1562l64.748 -56.417q-14.8223 -18.0225 -31.9834 -35.2607q-17.1621 -17.2383 -35.8848 -30.5596q-18.7217 -13.3203 -39.0039 -21.1562q-20.2832 -7.83594 -41.3457 -7.83594q-17.9414 0 -35.1035 7.44434t-32.7637 16.8467
q-15.6016 9.40332 -30.4238 16.8467q-14.8213 7.44434 -27.3027 7.44434q-9.36133 0 -28.4736 -14.4961t-42.5146 -42.7051z" />
    <glyph glyph-name="ograve" unicode="&#xf2;" horiz-adv-x="570" 
d="M385 532q49 0 87.5 -19.5t62.5 -55.5t31 -86.5t-6 -113.5q-13 -62 -41 -112t-66.5 -85t-85.5 -53.5t-98 -18.5t-89 18.5t-60.5 53.5t-28 85t7.5 112t40.5 113t65.5 87t84 55.5t96 19.5zM442 257q16 75 -5.5 119.5t-75.5 44.5q-28 0 -51 -12.5t-41 -35t-31.5 -52.5
t-20.5 -64q-16 -75 3.5 -116.5t73.5 -41.5q55 0 94 43t54 115zM314 704h138l66 -173h-137z" />
    <glyph glyph-name="oacute" unicode="&#xf3;" horiz-adv-x="570" 
d="M385 532q49 0 87.5 -19.5t62.5 -55.5t31 -86.5t-6 -113.5q-13 -62 -41 -112t-66.5 -85t-85.5 -53.5t-98 -18.5t-89 18.5t-60.5 53.5t-28 85t7.5 112t40.5 113t65.5 87t84 55.5t96 19.5zM442 257q16 75 -5.5 119.5t-75.5 44.5q-28 0 -51 -12.5t-41 -35t-31.5 -52.5
t-20.5 -64q-16 -75 3.5 -116.5t73.5 -41.5q55 0 94 43t54 115zM415 576h-97l116 144h115z" />
    <glyph glyph-name="ocircumflex" unicode="&#xf4;" horiz-adv-x="570" 
d="M385 532q49 0 87.5 -19.5t62.5 -55.5t31 -86.5t-6 -113.5q-13 -62 -41 -112t-66.5 -85t-85.5 -53.5t-98 -18.5t-89 18.5t-60.5 53.5t-28 85t7.5 112t40.5 113t65.5 87t84 55.5t96 19.5zM442 257q16 75 -5.5 119.5t-75.5 44.5q-28 0 -51 -12.5t-41 -35t-31.5 -52.5
t-20.5 -64q-16 -75 3.5 -116.5t73.5 -41.5q55 0 94 43t54 115zM473 796l81 -166h-99l-28 65l-54 -65h-100l153 166h47z" />
    <glyph glyph-name="otilde" unicode="&#xf5;" horiz-adv-x="579" 
d="M385 532q49 0 87.5 -19.5t62.5 -55.5t31 -86.5t-6 -113.5q-13 -62 -41 -112t-66.5 -85t-85.5 -53.5t-98 -18.5t-89 18.5t-60.5 53.5t-28 85t7.5 112t40.5 113t65.5 87t84 55.5t96 19.5zM442 257q16 75 -5.5 119.5t-75.5 44.5q-28 0 -51 -12.5t-41 -35t-31.5 -52.5
t-20.5 -64q-16 -75 3.5 -116.5t73.5 -41.5q55 0 94 43t54 115zM197.573 627.252q43.0195 41.791 83.6914 68.1191q40.6729 26.3281 80.5635 26.3281q20.3359 0 37.1523 -8.35742q16.8174 -8.3584 34.0244 -19.2246h-0.782227l3.12891 -2.50684
q13.2969 -8.3584 26.5938 -15.4629t25.0293 -7.10449q4.69336 0 12.9053 6.26855q8.21289 6.26855 17.208 15.8809t17.9902 21.3135q8.99414 11.7012 15.252 22.5664l64.9199 -60.1787q-14.8613 -19.2236 -32.0693 -37.6113q-17.207 -18.3877 -35.9795 -32.5967
q-18.7715 -14.209 -39.1084 -22.5674q-20.3359 -8.3584 -41.4541 -8.3584q-17.9902 0 -35.1982 7.94043q-17.207 7.94043 -32.8506 17.9707q-15.6436 10.0293 -30.5049 17.9697q-14.8604 7.94043 -27.375 7.94043q-9.38672 0 -28.5498 -15.4629t-42.6279 -45.5518z" />
    <glyph glyph-name="odieresis" unicode="&#xf6;" horiz-adv-x="579" 
d="M385 532q49 0 87.5 -19.5t62.5 -55.5t31 -86.5t-6 -113.5q-13 -62 -41 -112t-66.5 -85t-85.5 -53.5t-98 -18.5t-89 18.5t-60.5 53.5t-28 85t7.5 112t40.5 113t65.5 87t84 55.5t96 19.5zM442 257q16 75 -5.5 119.5t-75.5 44.5q-28 0 -51 -12.5t-41 -35t-31.5 -52.5
t-20.5 -64q-16 -75 3.5 -116.5t73.5 -41.5q55 0 94 43t54 115zM435 654q6 32 32.5 54t58.5 22t49 -22t11 -54q-7 -31 -34 -53.5t-59 -22.5t-48.5 22.5t-9.5 53.5zM250 654q3 16 11.5 29.5t21 24t28 16.5t31.5 6q32 0 48.5 -22t10.5 -54q-7 -31 -33.5 -53.5t-58.5 -22.5
t-49 22.5t-10 53.5z" />
    <glyph glyph-name="divide" unicode="&#xf7;" horiz-adv-x="418" 
d="M96 260h321l-24 -112h-321zM190 279l29 139h140l-29 -139h-140zM131 0l29 140h140l-29 -140h-140z" />
    <glyph glyph-name="oslash" unicode="&#xf8;" horiz-adv-x="579" 
d="M212 -85h-118l60 107q-42 33 -56.5 93.5t2.5 141.5q13 62 40 112.5t64.5 86.5t83 55.5t96.5 19.5q11 0 21 -0.5t22 -2.5l46 81h117l-72 -132q35 -36 45.5 -92t-5.5 -128q-14 -65 -42.5 -115t-68 -84.5t-87.5 -52t-101 -17.5q-1 0 -2.5 0.5t-3.5 0.5zM361 422
q-28 0 -51 -13t-41 -35t-31.5 -52.5t-20.5 -64.5q-8 -36 -8 -64t10 -50l152 279h-10zM441 257q11 49 6 87q-18 -32 -34 -62t-32 -59.5t-32.5 -59.5t-33.5 -63q46 8 79 50t47 107z" />
    <glyph glyph-name="ugrave" unicode="&#xf9;" 
d="M373 0l6 30q-29 -19 -65.5 -30.5t-70.5 -11.5q-44 0 -77.5 15t-54 42.5t-27 66.5t3.5 86l68 322h116l-64 -302q-12 -55 8 -87t68 -32t84.5 31t48.5 88l64 302h116l-110 -520h-114zM290 704h138l66 -173h-137z" />
    <glyph glyph-name="uacute" unicode="&#xfa;" 
d="M373 0l6 30q-29 -19 -65.5 -30.5t-70.5 -11.5q-44 0 -77.5 15t-54 42.5t-27 66.5t3.5 86l68 322h116l-64 -302q-12 -55 8 -87t68 -32t84.5 31t48.5 88l64 302h116l-110 -520h-114zM400 600h-97l116 144h115z" />
    <glyph glyph-name="ucircumflex" unicode="&#xfb;" 
d="M373 0l6 30q-29 -19 -65.5 -30.5t-70.5 -11.5q-44 0 -77.5 15t-54 42.5t-27 66.5t3.5 86l68 322h116l-64 -302q-12 -55 8 -87t68 -32t84.5 31t48.5 88l64 302h116l-110 -520h-114zM455 745l81 -166h-99l-28 65l-54 -65h-100l153 166h47z" />
    <glyph glyph-name="udieresis" unicode="&#xfc;" horiz-adv-x="561" 
d="M373 0l6 30q-29 -19 -65.5 -30.5t-70.5 -11.5q-44 0 -77.5 15t-54 42.5t-27 66.5t3.5 86l68 322h116l-64 -302q-12 -55 8 -87t68 -32t84.5 31t48.5 88l64 302h116l-110 -520h-114zM427 654q6 32 32.5 54t58.5 22t49 -22t11 -54q-7 -31 -34 -53.5t-59 -22.5t-48.5 22.5
t-9.5 53.5zM242 654q3 16 11.5 29.5t21 24t28 16.5t31.5 6q32 0 48.5 -22t10.5 -54q-7 -31 -33.5 -53.5t-58.5 -22.5t-49 22.5t-10 53.5z" />
    <glyph glyph-name="yacute" unicode="&#xfd;" horiz-adv-x="592" 
d="M138 -90q13 0 26 11.5t24 28t19.5 35t11.5 31.5q2 8 3 18t-1 20l-74 466h123l51 -337l200 337h117l-311 -533q-21 -36 -45.5 -69.5t-51.5 -59.5t-56 -42t-59 -16h-61l23 110h61zM437 576h-97l116 144h115z" />
    <glyph glyph-name="ydieresis" unicode="&#xff;" horiz-adv-x="548" 
d="M122 -90q13 0 26 11.5t24 28t19.5 35t11.5 31.5q2 8 3 18t-1 20l-74 466h123l51 -337l200 337h117l-311 -533q-21 -36 -45.5 -69.5t-51.5 -59.5t-56 -42t-59 -16h-61l23 110h61zM412 607q6 32 32.5 54t58.5 22t49 -22t11 -54q-7 -31 -34 -53.5t-59 -22.5t-48.5 22.5
t-9.5 53.5zM227 607q3 16 11.5 29.5t21 24t28 16.5t31.5 6q32 0 48.5 -22t10.5 -54q-7 -31 -33.5 -53.5t-58.5 -22.5t-49 22.5t-10 53.5z" />
    <glyph glyph-name="Abreve" unicode="&#x102;" horiz-adv-x="701" 
d="M449 524l-111 -199h139zM274 209l-118 -209h-120l397 706h109l98 -706h-121l-28 209h-217zM516 846q26 0 51.5 22.5t43.5 58.5h100q-38 -81 -93.5 -127t-121.5 -46q-63 0 -99.5 46t-39.5 127h99q3 -37 18.5 -59t41.5 -22z" />
    <glyph glyph-name="abreve" unicode="&#x103;" horiz-adv-x="628" 
d="M433 604q26 0 51.5 22.5t43.5 58.5h100q-38 -81 -93.5 -127t-121.5 -46q-63 0 -99.5 46t-39.5 127h99q3 -37 18.5 -59t41.5 -22z" />
    <glyph glyph-name="Cacute" unicode="&#x106;" horiz-adv-x="715" 
d="M347 -12q-69 0 -120 26t-80.5 74t-36.5 115t10 149q17 81 52.5 147t85.5 113.5t111.5 73.5t131.5 26q198 0 240 -228l-116 -48q-14 81 -49 122t-99 41q-44 0 -82 -18.5t-68.5 -51.5t-52.5 -78t-34 -99q-11 -53 -8.5 -99t19 -80t46.5 -53t74 -19q64 0 120 44.5t91 117.5
l99 -48q-69 -118 -151.5 -172.5t-182.5 -54.5zM537 758h-97l116 144h115z" />
    <glyph glyph-name="cacute" unicode="&#x107;" horiz-adv-x="564" 
d="M393 532q36 0 67.5 -11.5t55.5 -34t37.5 -55.5t12.5 -75l-116 -48q0 51 -22.5 82t-58.5 31q-28 0 -52.5 -13t-44.5 -35.5t-34 -52.5t-21 -63q-14 -69 7 -111t78 -42q37 0 71.5 23.5t63.5 80.5l85 -54q-21 -41 -49 -71.5t-60.5 -51.5t-67 -31.5t-68.5 -10.5
q-54 0 -93 20.5t-61.5 56.5t-28.5 85t6 106q13 59 40.5 109.5t66 87t86 57.5t100.5 21zM393 576h-97l116 144h115z" />
    <glyph glyph-name="Ccaron" unicode="&#x10c;" horiz-adv-x="715" 
d="M347 -12q-69 0 -120 26t-80.5 74t-36.5 115t10 149q17 81 52.5 147t85.5 113.5t111.5 73.5t131.5 26q198 0 240 -228l-116 -48q-14 81 -49 122t-99 41q-44 0 -82 -18.5t-68.5 -51.5t-52.5 -78t-34 -99q-11 -53 -8.5 -99t19 -80t46.5 -53t74 -19q64 0 120 44.5t91 117.5
l99 -48q-69 -118 -151.5 -172.5t-182.5 -54.5zM507 770l-85 176h105l27 -71l59 71h106l-162 -176h-50z" />
    <glyph glyph-name="ccaron" unicode="&#x10d;" horiz-adv-x="564" 
d="M393 532q36 0 67.5 -11.5t55.5 -34t37.5 -55.5t12.5 -75l-116 -48q0 51 -22.5 82t-58.5 31q-28 0 -52.5 -13t-44.5 -35.5t-34 -52.5t-21 -63q-14 -69 7 -111t78 -42q37 0 71.5 23.5t63.5 80.5l85 -54q-21 -41 -49 -71.5t-60.5 -51.5t-67 -31.5t-68.5 -10.5
q-54 0 -93 20.5t-61.5 56.5t-28.5 85t6 106q13 59 40.5 109.5t66 87t86 57.5t100.5 21zM389 571l-85 176h105l27 -71l59 71h106l-162 -176h-50z" />
    <glyph glyph-name="Dcaron" unicode="&#x10e;" horiz-adv-x="659" 
d="M435 705q67 0 119 -26.5t83.5 -74t41.5 -112t-6 -140.5t-53 -140.5t-89 -111.5t-115 -73.5t-130 -26.5h-241l149 705h241zM553 352q10 49 5.5 94t-22.5 79t-49.5 54t-73.5 20h-121l-105 -494h121q43 0 83 20t72.5 54t55.5 79t34 94zM424 768l-85 176h105l27 -71l59 71
h106l-162 -176h-50z" />
    <glyph glyph-name="Ecaron" unicode="&#x11a;" horiz-adv-x="555" 
d="M640 705l-22 -106h-328l-35 -164h280l-24 -112h-280l-46 -218h328l-22 -105h-448l149 705h448zM430 763l-85 176h105l27 -71l59 71h106l-162 -176h-50z" />
    <glyph glyph-name="ecaron" unicode="&#x11b;" horiz-adv-x="571" 
d="M213 209q-2 -54 21 -82t62 -28q32 0 69 21.5t69 69.5l92 -52q-51 -67 -116 -108.5t-129 -41.5q-49 0 -88.5 19.5t-64 55.5t-32.5 86t5 111q13 63 39.5 113.5t63.5 86t84 54t103 18.5q49 0 86.5 -20t60 -56t28.5 -86t-7 -110l-11 -51h-335zM364 421q-38 0 -75.5 -26.5
t-54.5 -76.5h218q3 24 -3.5 43t-19 32.5t-29.5 20.5t-36 7zM393 571l-85 176h105l27 -71l59 71h106l-162 -176h-50z" />
    <glyph glyph-name="Gbreve" unicode="&#x11e;" horiz-adv-x="715" 
d="M449 390h273l-82 -390h-91l-1 53q-45 -32 -96 -48.5t-105 -16.5q-69 0 -120 26t-80.5 74t-36.5 115t10 149q17 81 52.5 147t85.5 113.5t111.5 73.5t131.5 26q196 0 239 -218l-114 -55q-16 80 -50.5 120t-97.5 40q-44 0 -82 -18.5t-69 -51.5t-53 -78t-34 -99
q-11 -53 -8 -98.5t19.5 -78.5t46.5 -51.5t74 -18.5q46 0 80.5 12t60.5 34.5t43.5 54t28.5 71.5h-203zM514 783q26 0 51.5 22.5t43.5 58.5h100q-38 -81 -93.5 -127t-121.5 -46q-63 0 -99.5 46t-39.5 127h99q3 -37 18.5 -59t41.5 -22z" />
    <glyph glyph-name="gbreve" unicode="&#x11f;" 
d="M598 520l-117 -551q-8 -39 -31.5 -72.5t-57.5 -57.5t-76.5 -37.5t-90.5 -13.5q-39 0 -71 12t-55.5 33.5t-37.5 51t-17 65.5l118 48q1 -48 24.5 -77t62.5 -29q49 0 79 26.5t39 71.5l7 30q-27 -14 -58.5 -23t-60.5 -9q-47 0 -83.5 19.5t-58.5 55.5t-28.5 87.5t7.5 115.5
q12 58 39 107t64 84t81 54.5t91 19.5q29 0 58 -10.5t49 -28.5l6 28h118zM350 421q-24 0 -46.5 -12.5t-41.5 -35t-33 -52.5t-21 -64q-7 -33 -5.5 -62t11 -50t27 -33.5t41.5 -12.5t46.5 12t41.5 33t33 50t21 63q7 33 5.5 62.5t-11 52t-27 36t-41.5 13.5zM421 638
q26 0 51.5 22.5t43.5 58.5h100q-38 -81 -93.5 -127t-121.5 -46q-63 0 -99.5 46t-39.5 127h99q3 -37 18.5 -59t41.5 -22z" />
    <glyph glyph-name="Idotaccent" unicode="&#x130;" horiz-adv-x="200" 
d="M305 705l-149 -705h-120l149 705h120zM189 731q5 27 27 45.5t49 18.5q26 0 40.5 -18.5t9.5 -45.5q-6 -27 -28.5 -45t-48.5 -18q-27 0 -41 18t-8 45z" />
    <glyph glyph-name="dotlessi" unicode="&#x131;" horiz-adv-x="192" 
d="M264 520l-110 -520h-117l110 520h117z" />
    <glyph glyph-name="Lacute" unicode="&#x139;" horiz-adv-x="439" 
d="M313 706l-128 -601h255l-22 -105h-375l150 706h120zM434 660h-97l116 144h115z" />
    <glyph glyph-name="Lcaron" unicode="&#x13d;" horiz-adv-x="539" 
d="M311 706l-128 -601h255l-22 -105h-375l150 706h120zM373 835q7 31 33.5 53t58.5 22t48.5 -23t9.5 -57l-71 -168h-96l46 103q-18 9 -26 28t-3 42z" />
    <glyph glyph-name="lcaron" unicode="&#x13e;" horiz-adv-x="409" 
d="M300 693l-147 -693h-116l147 693h116zM364 636q7 31 33.5 53t58.5 22t48.5 -23t9.5 -57l-71 -168h-96l46 103q-18 9 -26 28t-3 42z" />
    <glyph glyph-name="Lslash" unicode="&#x141;" horiz-adv-x="439" 
d="M448 459l-25 -116l-429 -98l23 116zM312 704l-127 -599h255l-22 -105h-375l149 704h120z" />
    <glyph glyph-name="lslash" unicode="&#x142;" horiz-adv-x="448" 
d="M512 458l-25 -116l-423 -128l25 116zM435 693l-147 -693h-116l147 693h116z" />
    <glyph glyph-name="Nacute" unicode="&#x143;" horiz-adv-x="625" 
d="M315 705l176 -485l103 485h120l-149 -705h-129l-169 486l-103 -486h-120l149 705h122zM484 751h-97l116 144h115z" />
    <glyph glyph-name="nacute" unicode="&#x144;" 
d="M265 520l-5 -25q29 17 63 27t68 10q45 0 79.5 -15.5t56.5 -44t30 -67.5t-2 -85l-68 -320h-117l64 302q11 56 -12 87.5t-70 31.5q-48 0 -85 -32.5t-48 -86.5l-64 -302h-117l110 520h117zM387 576h-97l116 144h115z" />
    <glyph glyph-name="Ncaron" unicode="&#x147;" horiz-adv-x="625" 
d="M315 705l176 -485l103 485h120l-149 -705h-129l-169 486l-103 -486h-120l149 705h122zM463 758l-85 176h105l27 -71l59 71h106l-162 -176h-50z" />
    <glyph glyph-name="ncaron" unicode="&#x148;" 
d="M265 520l-5 -25q29 17 63 27t68 10q45 0 79.5 -15.5t56.5 -44t30 -67.5t-2 -85l-68 -320h-117l64 302q11 56 -12 87.5t-70 31.5q-48 0 -85 -32.5t-48 -86.5l-64 -302h-117l110 520h117zM360 578l-85 176h105l27 -71l59 71h106l-162 -176h-50z" />
    <glyph glyph-name="Ohungarumlaut" unicode="&#x150;" horiz-adv-x="738" 
d="M377 105q45 0 84 19t70.5 52.5t54 78.5t33.5 97q12 54 8.5 99t-21 78t-48.5 51.5t-76 18.5q-44 0 -83 -18.5t-70.5 -51t-54 -78t-34.5 -99.5q-11 -53 -7.5 -98.5t20.5 -78.5t48.5 -51.5t75.5 -18.5zM120 352q18 82 54.5 148.5t87.5 113.5t113.5 72.5t130.5 25.5
q71 0 123 -25.5t82 -72.5t38 -113.5t-10 -148.5q-17 -83 -53.5 -150t-87.5 -114.5t-114 -73.5t-132 -26q-70 0 -121.5 26t-82 74t-38 115t9.5 149zM504 756h-124l137 171h125zM691 756h-125l139 171h125z" />
    <glyph glyph-name="ohungarumlaut" unicode="&#x151;" horiz-adv-x="579" 
d="M385 532q49 0 87.5 -19.5t62.5 -55.5t31 -86.5t-6 -113.5q-13 -62 -41 -112t-66.5 -85t-85.5 -53.5t-98 -18.5t-89 18.5t-60.5 53.5t-28 85t7.5 112t40.5 113t65.5 87t84 55.5t96 19.5zM442 257q16 75 -5.5 119.5t-75.5 44.5q-28 0 -51 -12.5t-41 -35t-31.5 -52.5
t-20.5 -64q-16 -75 3.5 -116.5t73.5 -41.5q55 0 94 43t54 115zM360 592h-124l137 171h125zM547 592h-125l139 171h125z" />
    <glyph glyph-name="OE" unicode="&#x152;" horiz-adv-x="941" 
d="M510 712q25 0 45.5 -2.5t42.5 -9.5h406l-24 -112h-329l-36 -170h281l-24 -113h-281l-42 -199h329l-24 -112h-431q-30 -6 -67 -6q-70 0 -121.5 26t-82 74t-38 115t9.5 149q18 82 54.5 148.5t87.5 113.5t113 72.5t131 25.5zM380 101q14 0 25.5 0.5t23.5 3.5l104 489l-22 4
t-25 2q-44 0 -83 -18.5t-70.5 -51.5t-54 -78.5t-34.5 -99.5q-11 -53 -8 -99t20.5 -80t48.5 -53t75 -19z" />
    <glyph glyph-name="oe" unicode="&#x153;" horiz-adv-x="958" 
d="M393 531q51 0 90 -21.5t63 -59.5q37 36 86.5 58.5t103.5 22.5q49 0 86.5 -21t60 -58t29 -86t-5.5 -106l-11 -51h-334q0 -54 21.5 -82.5t58.5 -28.5q36 0 75.5 25t66.5 79h122q-24 -47 -56 -86t-68.5 -67.5t-75.5 -44t-77 -15.5q-52 0 -92.5 21t-64.5 61q-41 -40 -90 -61
t-103 -21q-103 0 -149 71.5t-20 196.5q13 62 40 112.5t64.5 86.5t83.5 55.5t96 19.5zM370 422q-28 0 -51 -13t-41 -35t-31.5 -52.5t-20.5 -64.5q-16 -75 3 -117t73 -42q29 0 53.5 13.5t43.5 35.5t32.5 50.5t19.5 58.5q7 31 6 61t-11 53t-28.5 37.5t-47.5 14.5zM710 422
q-36 0 -70 -27.5t-57 -75.5q28 0 53.5 -0.5t51.5 -0.5h107q-2 48 -25.5 76t-59.5 28z" />
    <glyph glyph-name="Racute" unicode="&#x154;" horiz-adv-x="620" 
d="M571 0h-129l-109 315h-103l-66 -315h-120l149 705h258q47 0 85 -14t62.5 -40t34 -62.5t-0.5 -80.5q-6 -29 -20.5 -57t-37 -52t-51.5 -43.5t-63 -29.5zM253 420h138q25 0 46 7.5t36.5 20t25.5 28.5t13 32q8 36 -13.5 63.5t-69.5 27.5h-138zM454 752h-97l116 144h115z" />
    <glyph glyph-name="racute" unicode="&#x155;" horiz-adv-x="364" 
d="M268 520l-9 -41q28 23 65.5 37.5t92.5 14.5l-23 -110q-41 0 -70.5 -7t-50.5 -22.5t-34 -40.5t-20 -60l-61 -291h-117l110 520h117zM293 576h-97l116 144h115z" />
    <glyph glyph-name="Rcaron" unicode="&#x158;" horiz-adv-x="620" 
d="M571 0h-129l-109 315h-103l-66 -315h-120l149 705h258q47 0 85 -14t62.5 -40t34 -62.5t-0.5 -80.5q-6 -29 -20.5 -57t-37 -52t-51.5 -43.5t-63 -29.5zM253 420h138q25 0 46 7.5t36.5 20t25.5 28.5t13 32q8 36 -13.5 63.5t-69.5 27.5h-138zM366 754l-85 176h105l27 -71
l59 71h106l-162 -176h-50z" />
    <glyph glyph-name="rcaron" unicode="&#x159;" horiz-adv-x="364" 
d="M268 520l-9 -41q28 23 65.5 37.5t92.5 14.5l-23 -110q-41 0 -70.5 -7t-50.5 -22.5t-34 -40.5t-20 -60l-61 -291h-117l110 520h117zM280 576l-85 176h105l27 -71l59 71h106l-162 -176h-50z" />
    <glyph glyph-name="Sacute" unicode="&#x15a;" horiz-adv-x="626" 
d="M448 712q44 0 83.5 -13.5t68 -40.5t42.5 -68.5t6 -97.5l-121 -58l12 56q5 23 -2 43t-23 34.5t-39.5 23t-52.5 8.5q-23 0 -45 -5t-40 -14.5t-31 -24.5t-17 -35q-6 -29 6 -47.5t36 -31.5t55.5 -22.5t64 -20.5t63.5 -25.5t52.5 -36.5t31 -54t-0.5 -78q-12 -54 -39.5 -94.5
t-67 -67.5t-88 -40.5t-102.5 -13.5q-45 0 -86.5 13t-71.5 39.5t-45.5 66.5t-7.5 95l132 68q-18 -87 8 -128t95 -41q66 0 105.5 29t47.5 69q6 27 -6.5 44.5t-36.5 29.5t-56 21t-65 20t-63.5 25.5t-52 38.5t-30 59t2.5 86q10 47 38 82.5t66.5 59t83.5 35.5t90 12zM493 789h-97
l116 144h115z" />
    <glyph glyph-name="sacute" unicode="&#x15b;" horiz-adv-x="537" 
d="M369 532q89 0 135.5 -46t41.5 -131l-124 -41q3 28 -2 49.5t-16 35t-26.5 20.5t-32.5 7q-29 0 -54 -13t-30 -39q-6 -27 22.5 -38.5t76.5 -21.5q50 -11 80.5 -26.5t46.5 -37t18 -49t-5 -61.5q-8 -36 -29.5 -64.5t-53.5 -48t-73 -29.5t-86 -10q-40 0 -75.5 10.5t-61.5 33
t-39 57t-7 83.5l121 36q-8 -51 14.5 -80t64.5 -29q50 0 77.5 11.5t32.5 38.5q3 13 -3.5 22t-18 15t-26 9.5t-27.5 6.5q-37 7 -71 18.5t-58 31.5t-35 51t-1 76q4 21 18 47.5t40.5 50t67 39.5t98.5 16zM379 576h-97l116 144h115z" />
    <glyph glyph-name="Scedilla" unicode="&#x15e;" horiz-adv-x="593" 
d="M437 712q44 0 83.5 -13.5t68 -40.5t42.5 -68.5t6 -97.5l-121 -58l12 56q5 23 -2 43t-23 34.5t-39.5 23t-52.5 8.5q-23 0 -45 -5t-40 -14.5t-31 -24.5t-17 -35q-6 -29 6 -47.5t36 -31.5t55.5 -22.5t64 -20.5t63.5 -25.5t52.5 -36.5t31 -54t-0.5 -78q-12 -54 -39.5 -94.5
t-67 -67.5t-88 -40.5t-102.5 -13.5q-45 0 -86.5 13t-71.5 39.5t-45.5 66.5t-7.5 95l132 68q-18 -87 8 -128t95 -41q66 0 105.5 29t47.5 69q6 27 -6.5 44.5t-36.5 29.5t-56 21t-65 20t-63.5 25.5t-52 38.5t-30 59t2.5 86q10 47 38 82.5t66.5 59t83.5 35.5t90 12z" />
    <glyph glyph-name="Scaron" unicode="&#x160;" horiz-adv-x="626" 
d="M448 712q44 0 83.5 -13.5t68 -40.5t42.5 -68.5t6 -97.5l-121 -58l12 56q5 23 -2 43t-23 34.5t-39.5 23t-52.5 8.5q-23 0 -45 -5t-40 -14.5t-31 -24.5t-17 -35q-6 -29 6 -47.5t36 -31.5t55.5 -22.5t64 -20.5t63.5 -25.5t52.5 -36.5t31 -54t-0.5 -78q-12 -54 -39.5 -94.5
t-67 -67.5t-88 -40.5t-102.5 -13.5q-45 0 -86.5 13t-71.5 39.5t-45.5 66.5t-7.5 95l132 68q-18 -87 8 -128t95 -41q66 0 105.5 29t47.5 69q6 27 -6.5 44.5t-36.5 29.5t-56 21t-65 20t-63.5 25.5t-52 38.5t-30 59t2.5 86q10 47 38 82.5t66.5 59t83.5 35.5t90 12zM447 762
l-85 176h105l27 -71l59 71h106l-162 -176h-50z" />
    <glyph glyph-name="scaron" unicode="&#x161;" horiz-adv-x="537" 
d="M369 532q89 0 135.5 -46t41.5 -131l-124 -41q3 28 -2 49.5t-16 35t-26.5 20.5t-32.5 7q-29 0 -54 -13t-30 -39q-6 -27 22.5 -38.5t76.5 -21.5q50 -11 80.5 -26.5t46.5 -37t18 -49t-5 -61.5q-8 -36 -29.5 -64.5t-53.5 -48t-73 -29.5t-86 -10q-40 0 -75.5 10.5t-61.5 33
t-39 57t-7 83.5l121 36q-8 -51 14.5 -80t64.5 -29q50 0 77.5 11.5t32.5 38.5q3 13 -3.5 22t-18 15t-26 9.5t-27.5 6.5q-37 7 -71 18.5t-58 31.5t-35 51t-1 76q4 21 18 47.5t40.5 50t67 39.5t98.5 16zM376 571l-85 176h105l27 -71l59 71h106l-162 -176h-50z" />
    <glyph glyph-name="Tcaron" unicode="&#x164;" horiz-adv-x="607" 
d="M690 705l-22 -106h-184l-127 -599h-120l127 599h-193l22 106h497zM461 760l-85 176h105l27 -71l59 71h106l-162 -176h-50z" />
    <glyph glyph-name="tcaron" unicode="&#x165;" horiz-adv-x="580" 
d="M213 520l37 173h117l-37 -173h85l-21 -99h-85l-52 -243q-10 -47 -8.5 -63t18.5 -16h59l-21 -99h-67q-66 0 -92.5 39.5t-11.5 108.5l58 273h-62l21 99h62zM535 636q7 31 33.5 53t58.5 22t48.5 -23t9.5 -57l-71 -168h-96l46 103q-18 9 -26 28t-3 42z" />
    <glyph glyph-name="Uring" unicode="&#x16e;" horiz-adv-x="633" 
d="M313 705l-94 -446q-15 -71 11.5 -114.5t91.5 -43.5q31 0 60 11.5t52.5 32t40.5 49.5t25 65l94 446h120l-94 -444q-14 -63 -44.5 -113.5t-73.5 -86t-95 -54.5t-109 -19q-58 0 -101.5 19t-69.5 54.5t-34 86t6 113.5l94 444h120z" />
    <glyph glyph-name="uring" unicode="&#x16f;" horiz-adv-x="561" 
d="M373 0l6 30q-29 -19 -65.5 -30.5t-70.5 -11.5q-44 0 -77.5 15t-54 42.5t-27 66.5t3.5 86l68 322h116l-64 -302q-12 -55 8 -87t68 -32t84.5 31t48.5 88l64 302h116l-110 -520h-114zM365 668q-2 -13 5.5 -22.5t21.5 -9.5q12 0 23 9.5t13 22.5q3 13 -4 22t-19 9
q-14 0 -25.5 -9t-14.5 -22zM287 668q5 23 18 43.5t31.5 35.5t40.5 23.5t45 8.5t41 -8.5t30 -23.5t16 -35.5t-1 -43.5t-18 -43t-31 -35t-39.5 -24t-44.5 -9t-41.5 9t-30.5 24t-16.5 35t0.5 43z" />
    <glyph glyph-name="Uhungarumlaut" unicode="&#x170;" horiz-adv-x="625" 
d="M313 705l-94 -446q-15 -71 11.5 -114.5t91.5 -43.5q31 0 60 11.5t52.5 32t40.5 49.5t25 65l94 446h120l-94 -444q-14 -63 -44.5 -113.5t-73.5 -86t-95 -54.5t-109 -19q-58 0 -101.5 19t-69.5 54.5t-34 86t6 113.5l94 444h120zM443.387 747.361h-114.093l126.055 126.997
h115.013zM615.446 747.361h-115.013l127.895 126.997h115.014z" />
    <glyph glyph-name="uhungarumlaut" unicode="&#x171;" horiz-adv-x="561" 
d="M373 0l6 30q-29 -19 -65.5 -30.5t-70.5 -11.5q-44 0 -77.5 15t-54 42.5t-27 66.5t3.5 86l68 322h116l-64 -302q-12 -55 8 -87t68 -32t84.5 31t48.5 88l64 302h116l-110 -520h-114zM348 598h-124l137 171h125zM535 598h-125l139 171h125z" />
    <glyph glyph-name="Ydieresis" unicode="&#x178;" horiz-adv-x="631" 
d="M303 260q-18 53 -37.5 109.5t-39 113.5t-39 113t-37.5 109h130l104 -324l242 324h131l-334 -446l-55 -259h-120zM491 786q6 32 32.5 54t58.5 22t49 -22t11 -54q-7 -31 -34 -53.5t-59 -22.5t-48.5 22.5t-9.5 53.5zM306 786q3 16 11.5 29.5t21 24t28 16.5t31.5 6
q32 0 48.5 -22t10.5 -54q-7 -31 -33.5 -53.5t-58.5 -22.5t-49 22.5t-10 53.5z" />
    <glyph glyph-name="Zacute" unicode="&#x179;" horiz-adv-x="641" 
d="M709 706l-21 -96l-465 -505h372l-22 -105h-527l20 95l464 504h-341l23 107h497zM487 765h-97l116 144h115z" />
    <glyph glyph-name="zacute" unicode="&#x17a;" horiz-adv-x="534" 
d="M573 520l-18 -87l-345 -334h274l-21 -99h-417l19 91l341 330h-257l21 99h403zM378 576h-97l116 144h115z" />
    <glyph glyph-name="Zdotaccent" unicode="&#x17b;" horiz-adv-x="567" 
d="M677 706l-21 -96l-465 -505h372l-22 -105h-527l20 95l464 504h-341l23 107h497z" />
    <glyph glyph-name="zdotaccent" unicode="&#x17c;" horiz-adv-x="502" 
d="M324 670q6 30 32 51.5t57 21.5t48 -21.5t11 -51.5q-7 -31 -33 -52t-57 -21t-48 21t-10 52zM573 545l-18 -87l-345 -334h274l-21 -99h-417l19 91l341 330h-257l21 99h403z" />
    <glyph glyph-name="Zcaron" unicode="&#x17d;" horiz-adv-x="641" 
d="M709 706l-21 -96l-465 -505h372l-22 -105h-527l20 95l464 504h-341l23 107h497zM466 752l-85 176h105l27 -71l59 71h106l-162 -176h-50z" />
    <glyph glyph-name="zcaron" unicode="&#x17e;" horiz-adv-x="534" 
d="M573 520l-18 -87l-345 -334h274l-21 -99h-417l19 91l341 330h-257l21 99h403zM374 571l-85 176h105l27 -71l59 71h106l-162 -176h-50z" />
    <glyph glyph-name="circumflex" unicode="&#x2c6;" horiz-adv-x="437" 
d="M397 745l81 -166h-99l-28 65l-54 -65h-100l153 166h47z" />
    <glyph glyph-name="caron" unicode="&#x2c7;" horiz-adv-x="437" 
d="M326 571l-85 176h105l27 -71l59 71h106l-162 -176h-50z" />
    <glyph glyph-name="breve" unicode="&#x2d8;" horiz-adv-x="434" 
d="M336 604q26 0 51.5 22.5t43.5 58.5h100q-38 -81 -93.5 -127t-121.5 -46q-63 0 -99.5 46t-39.5 127h99q3 -37 18.5 -59t41.5 -22z" />
    <glyph glyph-name="ring" unicode="&#x2da;" horiz-adv-x="334" 
d="M264 710q-2 -13 5.5 -22.5t21.5 -9.5q12 0 23 9.5t13 22.5q3 13 -4 22t-19 9q-14 0 -25.5 -9t-14.5 -22zM186 710q5 23 18 43.5t31.5 35.5t40.5 23.5t45 8.5t41 -8.5t30 -23.5t16 -35.5t-1 -43.5t-18 -43t-31 -35t-39.5 -24t-44.5 -9t-41.5 9t-30.5 24t-16.5 35t0.5 43z
" />
    <glyph glyph-name="tilde" unicode="&#x2dc;" horiz-adv-x="612" 
d="M80 236q55 50 107 81.5t103 31.5q26 0 47.5 -10t43.5 -23h-1l4 -3q17 -10 34 -18.5t32 -8.5q6 0 16.5 7.5t22 19t23 25.5t19.5 27l83 -72q-19 -23 -41 -45t-46 -39t-50 -27t-53 -10q-23 0 -45 9.5t-42 21.5t-39 21.5t-35 9.5q-12 0 -36.5 -18.5t-54.5 -54.5z" />
    <glyph glyph-name="hungarumlaut" unicode="&#x2dd;" horiz-adv-x="474" 
d="M258 531h-124l137 171h125zM445 531h-125l139 171h125z" />
    <glyph glyph-name="uni0405" unicode="&#x405;" horiz-adv-x="621" 
d="M448 712q44 0 83.5 -13.5t68 -40.5t42.5 -68.5t6 -97.5l-121 -58l12 56q5 23 -2 43t-23 34.5t-39.5 23t-52.5 8.5q-23 0 -45 -5t-40 -14.5t-31 -24.5t-17 -35q-6 -29 6 -47.5t36 -31.5t55.5 -22.5t64 -20.5t63.5 -25.5t52.5 -36.5t31 -54t-0.5 -78q-12 -54 -39.5 -94.5
t-67 -67.5t-88 -40.5t-102.5 -13.5q-45 0 -86.5 13t-71.5 39.5t-45.5 66.5t-7.5 95l132 68q-18 -87 8 -128t95 -41q66 0 105.5 29t47.5 69q6 27 -6.5 44.5t-36.5 29.5t-56 21t-65 20t-63.5 25.5t-52 38.5t-30 59t2.5 86q10 47 38 82.5t66.5 59t83.5 35.5t90 12z" />
    <glyph glyph-name="uni040E" unicode="&#x40e;" horiz-adv-x="665" 
d="M309 705l83 -372q59 93 120.5 187t118.5 185h129l-372 -565q-45 -69 -95 -104.5t-116 -35.5h-64l23 112h80q10 0 22 7.5t23 19.5t19.5 26.5t11.5 29.5q4 20 2 31l-115 479h130z" />
    <glyph glyph-name="uni0410" unicode="&#x410;" horiz-adv-x="669" 
d="M432 521q-28 -51 -54 -96.5t-56 -99.5h139zM258 209l-118 -209h-121l397 705h110l99 -705h-122l-28 209h-217z" />
    <glyph glyph-name="uni0411" unicode="&#x411;" horiz-adv-x="577" 
d="M45 0l149 705h433l-23 -112h-314l-38 -177h153q44 0 79 -16.5t57.5 -44t31.5 -64.5t0 -79q-9 -41 -33.5 -79.5t-59 -68t-77 -47t-86.5 -17.5h-272zM185 101h153q20 0 39 9.5t34 24.5t25.5 33.5t14.5 37.5t1.5 38.5t-11 35t-23 25.5t-35.5 10h-153z" />
    <glyph glyph-name="uni0412" unicode="&#x412;" horiz-adv-x="615" 
d="M291 593l-38 -177h169q22 0 41 8t34 20.5t24.5 29t13.5 34.5q8 36 -12.5 60.5t-62.5 24.5h-169zM231 315l-45 -214h185q23 0 43 9.5t36 25t27 34.5t15 38q10 47 -15.5 77t-76.5 30h-169zM195 706h289q47 0 82.5 -15t57 -41.5t29.5 -62.5t-1 -77q-8 -39 -31.5 -75
t-55.5 -61q32 -26 43 -70.5t0 -97.5q-9 -45 -33 -83t-58 -65.5t-77 -42.5t-90 -15h-305z" />
    <glyph glyph-name="uni0413" unicode="&#x413;" horiz-adv-x="452" 
d="M198 705h376l-23 -112h-256l-126 -593h-120z" />
    <glyph glyph-name="uni0414" unicode="&#x414;" horiz-adv-x="708" 
d="M158 0l-29 -133h-120l50 234h64q10 0 21.5 12.5t22.5 35t21 54t18 69.5l92 433h450l-128 -604h56l-50 -234h-120l29 133h-377zM395 593l-69 -321q-11 -52 -29 -95.5t-41 -75.5h245l105 492h-211z" />
    <glyph glyph-name="uni0415" unicode="&#x415;" horiz-adv-x="516" 
d="M641 705l-21 -101h-328l-39 -183h280l-21 -100h-280l-47 -220h328l-21 -101h-448l149 705h448z" />
    <glyph glyph-name="uni0416" unicode="&#x416;" horiz-adv-x="1040" 
d="M507 310l-42 52q-81 -89 -164.5 -181.5t-164.5 -180.5h-145l401 442l-246 263h184l211 -239l50 239h119l-50 -239l309 239h184l-357 -262l214 -443h-144l-177 362l-62 -50l-66 -312h-119z" />
    <glyph glyph-name="uni0417" unicode="&#x417;" horiz-adv-x="629" 
d="M426 604q-66 0 -114 -44.5t-73 -126.5l-112 51q45 118 130.5 173t191.5 55q116 0 171 -53.5t34 -150.5q-9 -46 -34.5 -80t-62.5 -58q36 -23 56.5 -62.5t9.5 -93.5q-11 -52 -40 -93.5t-71.5 -71t-98 -45.5t-118.5 -16q-55 0 -99 13t-74 40t-44 69t-9 99l125 59
q-2 -46 4 -77.5t21 -51.5t39.5 -29t60.5 -9q79 0 126 29.5t58 83.5q8 38 -14 65.5t-79 27.5h-127l21 101h111q22 0 42 8.5t36 22.5t26.5 32t14.5 37q10 43 -18.5 69.5t-89.5 26.5z" />
    <glyph glyph-name="uni0418" unicode="&#x418;" horiz-adv-x="632" 
d="M574 0h-120l103 487l-391 -487h-121l149 705h120l-105 -496q97 124 196.5 248.5t196.5 247.5h121z" />
    <glyph glyph-name="uni0419" unicode="&#x419;" horiz-adv-x="641" 
d="M574 0h-120l103 487l-391 -487h-121l149 705h120l-105 -496q97 124 196.5 248.5t196.5 247.5h121zM382 829h222l-17 -77h-222z" />
    <glyph glyph-name="uni041A" unicode="&#x41a;" horiz-adv-x="620" 
d="M285 354l-54 -41l-66 -313h-120l149 705h120l-52 -244l318 244h159l-351 -271l219 -434h-141z" />
    <glyph glyph-name="uni041B" unicode="&#x41b;" horiz-adv-x="658" 
d="M533 705l91 -705h-125l-67 521q-32 -57 -68 -122t-73 -132.5t-74.5 -135t-71.5 -131.5h-125l389 705h124z" />
    <glyph glyph-name="uni041C" unicode="&#x41c;" horiz-adv-x="758" 
d="M403 173l316 532h127l-150 -706h-120l87 411l-242 -411h-108l-62 402l-85 -402h-120l150 706h118z" />
    <glyph glyph-name="uni041D" unicode="&#x41d;" horiz-adv-x="593" 
d="M313 705l-55 -260h252l55 260h120l-149 -705h-120l72 340h-252l-72 -340h-119l149 705h119z" />
    <glyph glyph-name="uni041E" unicode="&#x41e;" horiz-adv-x="710" 
d="M369 105q45 0 84 19t70.5 52.5t54 78.5t33.5 97q12 54 8.5 99t-21 78t-48.5 51.5t-76 18.5q-44 0 -83 -18.5t-70.5 -51t-54 -78t-34.5 -99.5q-11 -53 -7.5 -98.5t20.5 -78.5t48.5 -51.5t75.5 -18.5zM112 352q18 82 54.5 148.5t87.5 113.5t113.5 72.5t130.5 25.5
q71 0 123 -25.5t82 -72.5t38 -113.5t-10 -148.5q-17 -83 -53.5 -150t-87.5 -114.5t-114 -73.5t-132 -26q-70 0 -121.5 26t-82 74t-38 115t9.5 149z" />
    <glyph glyph-name="uni041F" unicode="&#x41f;" horiz-adv-x="593" 
d="M685 705l-149 -705h-120l128 604h-252l-128 -604h-119l149 705h491z" />
    <glyph glyph-name="uni0420" unicode="&#x420;" 
d="M443 705q44 0 79 -17.5t57.5 -47t30.5 -68t-1 -79.5t-33.5 -79t-59 -67.5t-77 -47.5t-86.5 -18h-123l-59 -281h-120l149 705h243zM253 387h123q21 0 39.5 10t34 25.5t26 35t14.5 39.5q4 19 1.5 37t-11.5 32.5t-24 23.5t-35 9h-123z" />
    <glyph glyph-name="uni0421" unicode="&#x421;" horiz-adv-x="686" 
d="M347 -12q-69 0 -120 26t-80.5 74t-36.5 115t10 149q17 81 52.5 147t85.5 113.5t111.5 73.5t131.5 26q198 0 240 -228l-116 -48q-14 81 -49 122t-99 41q-44 0 -82 -18.5t-68.5 -51.5t-52.5 -78t-34 -99q-11 -53 -8.5 -99t19 -80t46.5 -53t74 -19q64 0 120 44.5t91 117.5
l99 -48q-69 -118 -151.5 -172.5t-182.5 -54.5z" />
    <glyph glyph-name="uni0422" unicode="&#x422;" horiz-adv-x="575" 
d="M674 705l-22 -106h-184l-127 -599h-120l127 599h-193l22 106h497z" />
    <glyph glyph-name="uni0423" unicode="&#x423;" horiz-adv-x="604" 
d="M284 705l83 -372q59 93 120.5 187t118.5 185h129l-372 -565q-45 -69 -95 -104.5t-116 -35.5h-64l23 112h80q10 0 22 7.5t23 19.5t19.5 26.5t11.5 29.5q4 20 2 31l-115 479h130z" />
    <glyph glyph-name="uni0424" unicode="&#x424;" horiz-adv-x="818" 
d="M345 0l29 138h-65q-52 0 -92 19t-65.5 52t-34.5 77t2 95q12 54 40.5 100t69.5 79t92 51.5t107 18.5h50l17 76h119l-17 -76h42q56 0 99 -18.5t69.5 -52t36 -79t-2.5 -99.5q-11 -51 -38 -95.5t-66 -77t-87 -51.5t-100 -19h-57l-29 -138h-119zM407 529q-31 0 -58.5 -11.5
t-49.5 -30.5t-37 -45t-21 -54q-6 -30 -2 -57t18 -48t36 -33t52 -12h50l62 291h-50zM514 238h42q29 0 56.5 12t50 32.5t39 48t22.5 57.5q6 29 1.5 55t-19 45t-37 30t-51.5 11h-42z" />
    <glyph glyph-name="uni0425" unicode="&#x425;" horiz-adv-x="665" 
d="M641 705h142l-305 -340q41 -87 85.5 -183t86.5 -182h-142l-126 266l-238 -266h-143l328 365l-162 340h142l114 -244z" />
    <glyph glyph-name="uni0426" unicode="&#x426;" horiz-adv-x="654" 
d="M314 705l-128 -604h282l128 604h119l-128 -604h48l-50 -235h-119l29 134h-450l149 705h120z" />
    <glyph glyph-name="uni0427" unicode="&#x427;" horiz-adv-x="582" 
d="M311 237q-111 0 -155 60t-18 181l49 228h119l-53 -245q-5 -23 -3 -45.5t10 -39.5t22 -27.5t34 -10.5h160l79 368h120l-150 -706h-120l50 237h-144z" />
    <glyph glyph-name="uni0428" unicode="&#x428;" horiz-adv-x="908" 
d="M317 705l-128 -604h217l128 604h120l-128 -604h216l128 604h120l-149 -705h-793l149 705h120z" />
    <glyph glyph-name="uni0429" unicode="&#x429;" horiz-adv-x="957" 
d="M317 705l-128 -604h219l128 604h119l-128 -604h217l128 604h120l-128 -604h76l-50 -234h-120l29 133h-750l149 705h119z" />
    <glyph glyph-name="uni042A" unicode="&#x42a;" horiz-adv-x="660" 
d="M396 705l-59 -280h130q49 0 88 -16.5t64 -45t34 -67t0 -82.5q-10 -46 -36 -85t-63 -67.5t-82.5 -45t-94.5 -16.5h-250l127 599h-113l22 106h233zM398 101q25 0 47.5 9.5t40.5 25t30 36t17 42.5t1 42t-15 35.5t-29.5 24.5t-43.5 9h-130l-48 -224h130z" />
    <glyph glyph-name="uni042B" unicode="&#x42b;" horiz-adv-x="729" 
d="M548 0l149 705h119l-149 -705h-119zM315 705l-62 -293h116q49 0 88.5 -14t64.5 -40t34.5 -62.5t0.5 -81.5q-10 -46 -35.5 -85t-62.5 -67.5t-82.5 -45t-94.5 -16.5h-236l149 705h120zM303 101q25 0 47 9t40 24t30 34.5t17 41.5q9 44 -15 72.5t-74 28.5h-116l-45 -210h116z
" />
    <glyph glyph-name="uni042C" unicode="&#x42c;" horiz-adv-x="574" 
d="M313 705l-61 -288h130q50 0 89 -15t64 -42t34.5 -64.5t0.5 -81.5q-10 -46 -35.5 -85t-62.5 -67.5t-83 -45t-95 -16.5h-250l149 705h120zM315 101q25 0 47.5 9.5t40.5 25t30 36t17 42.5q9 44 -15 73.5t-74 29.5h-130l-46 -216h130z" />
    <glyph glyph-name="uni042D" unicode="&#x42d;" horiz-adv-x="699" 
d="M341 418h265q-1 38 -11 71.5t-28.5 59t-45 40.5t-60.5 15q-63 0 -118.5 -45t-98.5 -118h-119q145 271 359 271q70 0 122 -27.5t82.5 -76.5t38.5 -116.5t-9 -148.5q-17 -82 -54 -148t-88 -112t-114 -70.5t-132 -24.5q-214 0 -239 272h124q1 -75 38.5 -117t100.5 -42
q38 0 74 15.5t66.5 43t54.5 64t39 78.5h-271z" />
    <glyph glyph-name="uni042E" unicode="&#x42e;" horiz-adv-x="907" 
d="M258 428h67q24 67 60.5 119t83.5 88t102.5 54.5t116.5 18.5q71 0 123 -25t82 -71.5t38 -112t-10 -147.5q-17 -83 -53.5 -150t-87.5 -114.5t-113.5 -73.5t-131.5 -26q-66 0 -115.5 23t-80.5 65t-42 101.5t0 133.5h-63l-66 -311h-120l150 706h120zM559 101q45 0 84.5 19.5
t71 53.5t54 80t33.5 98q12 54 8.5 99t-21 78t-48.5 51.5t-76 18.5q-44 0 -83 -18.5t-70.5 -51t-54 -78t-34.5 -99.5q-11 -53 -8 -99t20.5 -80t48.5 -53t75 -19z" />
    <glyph glyph-name="uni042F" unicode="&#x42f;" horiz-adv-x="595" 
d="M262 325q-30 10 -51 29.5t-33 44.5t-15.5 53t2.5 56q10 44 34.5 80.5t59.5 62.5t78.5 40t91.5 14h257l-149 -705h-119l66 311h-104l-241 -311h-128zM546 604h-138q-24 0 -45 -8t-37.5 -21.5t-27.5 -31t-15 -35.5q-3 -17 0 -34t13 -30.5t27.5 -22.5t43.5 -9h138z" />
    <glyph glyph-name="uni0430" unicode="&#x430;" horiz-adv-x="570" 
d="M367 422q-94 0 -127 -88l-108 46q37 71 105.5 111t151.5 40q108 0 152.5 -47t26.5 -135l-44 -204q-5 -24 3 -30t37 -6l-23 -109h-47q-32 0 -53.5 10t-31.5 27q-36 -23 -82 -35.5t-92 -12.5q-42 0 -75.5 10t-55.5 29.5t-31 49.5t-3 69q4 22 19 47.5t39 48t57.5 40.5
t75.5 27q38 6 72.5 12.5t61.5 13.5t43.5 15.5t18.5 19.5q5 21 -19 36t-71 15zM429 236q-20 -8 -42.5 -14.5t-45 -11t-43 -7.5t-35.5 -5l-26 -4q-19 -8 -34 -20t-18 -26q-5 -24 16 -37t57 -13q25 0 51.5 5t49 16t38.5 28t21 41z" />
    <glyph glyph-name="uni0431" unicode="&#x431;" horiz-adv-x="542" 
d="M611 646q-11 -34 -34.5 -47t-54.5 -16.5t-66 -3t-70 -5t-66.5 -23.5t-54.5 -59q29 19 59.5 29t58.5 10q46 0 82 -19.5t57.5 -54.5t27.5 -84t-6 -107q-14 -64 -41.5 -115.5t-65 -87.5t-82 -55t-91.5 -19q-15 0 -37.5 1t-46 8.5t-46 23.5t-36.5 45t-17.5 74t10.5 110
q25 116 49.5 190t57 120t75.5 70.5t105 42.5q21 6 43.5 10t51 7t66 4.5t89.5 2.5zM353 422q-24 0 -46.5 -13.5t-41.5 -36t-33.5 -52.5t-21.5 -63q-7 -34 -5.5 -63t11.5 -50.5t27 -33.5t41 -12t46.5 12.5t41 34t32.5 50.5t21 62q7 34 6 64.5t-10 52.5t-26.5 35t-41.5 13z" />
    <glyph glyph-name="uni0432" unicode="&#x432;" horiz-adv-x="541" 
d="M156 520h264q32 0 57 -12t41.5 -33t22.5 -49t-1 -60q-5 -27 -19.5 -51t-34.5 -42q24 -19 33 -48t1 -67q-7 -31 -24.5 -59.5t-42.5 -50.5t-55.5 -35t-62.5 -13h-289zM207 214l-22 -105h156q22 0 40.5 15.5t23.5 36.5t-7.5 37t-34.5 16h-156zM249 411l-19 -88h148
q18 0 34 12.5t20 30.5t-6.5 31.5t-28.5 13.5h-148z" />
    <glyph glyph-name="uni0433" unicode="&#x433;" horiz-adv-x="515" 
d="M196 320l-84 32q29 87 95 133t156 46q58 0 92 -16t51 -39t19.5 -49.5t-1.5 -47.5q-9 -42 -27 -70.5t-46 -48.5t-67.5 -33t-90.5 -24l-13 -2h3q-15 -3 -31 -7t-30 -10t-24 -14.5t-13 -21.5q-6 -27 16.5 -38.5t72.5 -11.5q42 0 76.5 28t49.5 77l99 -32q-16 -48 -42.5 -82.5
t-60.5 -56.5t-72.5 -32.5t-78.5 -10.5q-45 0 -81.5 10t-60.5 29t-34 47.5t-2 64.5q7 34 21 61t38.5 47.5t61.5 35.5t92 25q52 10 86 24t40 41q5 26 -15 37t-50 11q-17 0 -35.5 -5t-34.5 -15t-28.5 -25t-16.5 -35z" />
    <glyph glyph-name="uni0434" unicode="&#x434;" horiz-adv-x="668" 
d="M55 99h71l240 421h112l61 -421h82l-50 -232h-116l29 133h-333l-29 -133h-117zM245 99h177q-5 34 -9 64t-8.5 58.5t-9 59t-9.5 66.5z" />
    <glyph glyph-name="uni0435" unicode="&#x435;" horiz-adv-x="547" 
d="M197 209q-2 -54 21 -82t62 -28q32 0 69 21.5t69 69.5l92 -52q-51 -67 -116 -108.5t-129 -41.5q-49 0 -88.5 19.5t-64 55.5t-32.5 86t5 111q13 63 39.5 113.5t63.5 86t84 54t103 18.5q49 0 86.5 -20t60 -56t28.5 -86t-7 -110l-11 -51h-335zM348 421q-38 0 -75.5 -26.5
t-54.5 -76.5h218q3 24 -3.5 43t-19 32.5t-29.5 20.5t-36 7z" />
    <glyph glyph-name="uni0436" unicode="&#x436;" horiz-adv-x="848" 
d="M571 520l-35 -167l214 167h165l-276 -214l164 -306h-140l-123 228l-37 -26l-42 -202h-116l42 202q-8 8 -13 12t-14 14l-218 -228h-141l294 305l-184 215h165l144 -167l35 167h116z" />
    <glyph glyph-name="uni0437" unicode="&#x437;" horiz-adv-x="563" 
d="M344 421q-97 0 -140 -111l-102 39q15 43 43 77t63 57.5t76.5 36t83.5 12.5q50 0 87.5 -12.5t61 -34.5t32 -52.5t0.5 -66.5q-5 -26 -20 -52t-39 -46q14 -12 21 -27.5t10 -31.5t2 -32t-4 -29q-15 -72 -85.5 -116t-181.5 -44q-47 0 -84 11t-61.5 33t-36 54.5t-7.5 75.5
l123 42q-6 -28 -1 -48t18 -32.5t32 -18.5t42 -6q48 0 84 13.5t42 40.5q5 26 -9.5 41t-59.5 15h-98l23 109h98q38 0 55 15t22 35q5 23 -20 38t-70 15z" />
    <glyph glyph-name="uni0438" unicode="&#x438;" horiz-adv-x="541" 
d="M365 0l6 30q-29 -19 -65.5 -30.5t-70.5 -11.5q-44 0 -77.5 15t-54 42.5t-27 66.5t3.5 86l68 322h116l-64 -302q-12 -55 8 -87t68 -32t84.5 31t48.5 88l64 302h116l-110 -520h-114z" />
    <glyph glyph-name="uni0439" unicode="&#x439;" horiz-adv-x="537" 
d="M278 704h222v-99h-222v99zM371 15l6 30q-29 -19 -65.5 -30.5t-70.5 -11.5q-44 0 -77.5 15t-54 42.5t-27 66.5t3.5 86l68 322h116l-64 -302q-12 -55 8 -87t68 -32t84.5 31t48.5 88l64 302h116l-110 -520h-114z" />
    <glyph glyph-name="uni043A" unicode="&#x43a;" horiz-adv-x="507" 
d="M265 520l-35 -167l211 167h163l-281 -215q21 -41 45.5 -82.5t47.5 -84.5l73 -138h-140l-122 227l-29 -24l-43 -203h-117l110 520h117z" />
    <glyph glyph-name="uni043B" unicode="&#x43b;" horiz-adv-x="580" 
d="M25 99h71l253 420h110l84 -519h-123l-50 360q-52 -88 -107 -181t-105 -179h-154z" />
    <glyph glyph-name="uni043C" unicode="&#x43c;" horiz-adv-x="684" 
d="M604 520h123l-110 -520h-118l60 286l-94 -144t-92 -142h-89l-59 285l-60 -285h-117l110 520h126l78 -366z" />
    <glyph glyph-name="uni043D" unicode="&#x43d;" horiz-adv-x="549" 
d="M415 209h-209l-44 -209h-116l110 519h116l-43 -201h209l43 201h116l-110 -519h-116z" />
    <glyph glyph-name="uni043E" unicode="&#x43e;" 
d="M378 532q49 0 87.5 -19.5t62.5 -55.5t31 -86.5t-6 -113.5q-13 -62 -41 -112t-66.5 -85t-85.5 -53.5t-98 -18.5t-89 18.5t-60.5 53.5t-28 85t7.5 112t40.5 113t65.5 87t84 55.5t96 19.5zM435 257q16 75 -5.5 119.5t-75.5 44.5q-28 0 -51 -12.5t-41 -35t-31.5 -52.5
t-20.5 -64q-16 -75 3.5 -116.5t73.5 -41.5q55 0 94 43t54 115z" />
    <glyph glyph-name="uni043F" unicode="&#x43f;" horiz-adv-x="549" 
d="M273 520l-5 -25q29 17 63 27t68 10q45 0 79.5 -15.5t56.5 -44t30 -67.5t-2 -85l-68 -320h-117l64 302q11 56 -12 87.5t-70 31.5q-48 0 -85 -32.5t-48 -86.5l-64 -302h-117l110 520h117z" />
    <glyph glyph-name="uni0440" unicode="&#x440;" horiz-adv-x="550" 
d="M5 -191l151 711h109l-6 -29q32 20 65 30.5t64 10.5q47 0 83 -19.5t58 -56t28 -88t-8 -115.5q-12 -59 -39 -107.5t-63.5 -83.5t-80.5 -54.5t-91 -19.5q-67 0 -106 39l-46 -218h-118zM293 99q24 0 46.5 12.5t41 34.5t32.5 52t21 64q7 33 5.5 62t-10.5 50.5t-26.5 34
t-41.5 12.5t-46.5 -12t-41.5 -33.5t-33 -50.5t-21 -63q-7 -33 -5.5 -62.5t11 -52t27 -35.5t41.5 -13z" />
    <glyph glyph-name="uni0441" unicode="&#x441;" horiz-adv-x="528" 
d="M377 532q36 0 67.5 -11.5t55.5 -34t37.5 -55.5t12.5 -75l-116 -48q0 51 -22.5 82t-58.5 31q-28 0 -52.5 -13t-44.5 -35.5t-34 -52.5t-21 -63q-14 -69 7 -111t78 -42q37 0 71.5 23.5t63.5 80.5l85 -54q-21 -41 -49 -71.5t-60.5 -51.5t-67 -31.5t-68.5 -10.5
q-54 0 -93 20.5t-61.5 56.5t-28.5 85t6 106q13 59 40.5 109.5t66 87t86 57.5t100.5 21z" />
    <glyph glyph-name="uni0442" unicode="&#x442;" horiz-adv-x="772" 
d="M167 0h-118l110 520h118l-3 -12q22 13 45 18.5t49 5.5q38 0 68 -16t47 -47q31 29 70.5 46t77.5 17q40 0 70 -16t48.5 -44t24 -66.5t-4.5 -84.5l-68 -321h-118l68 322q10 48 -7 73.5t-48 25.5q-32 0 -56.5 -26t-34.5 -73l-68 -322h-118l68 322q10 48 -6.5 73.5t-48.5 25.5
t-59 -25.5t-38 -73.5z" />
    <glyph glyph-name="uni0443" unicode="&#x443;" horiz-adv-x="512" 
d="M98 -90q13 0 26 11.5t24 28t19.5 35t11.5 31.5q2 8 3 18t-1 20l-74 466h123l51 -337l200 337h117l-311 -533q-21 -36 -45.5 -69.5t-51.5 -59.5t-56 -42t-59 -16h-61l23 110h61z" />
    <glyph glyph-name="uni0444" unicode="&#x444;" horiz-adv-x="895" 
d="M335 -191l46 219q-29 -19 -61 -29t-62 -10q-47 0 -83 19.5t-57.5 54t-27.5 83t6 107.5q14 64 42 115.5t65 87.5t81.5 55.5t91.5 19.5q32 0 61 -10t51 -30l6 29h101l-6 -29q31 20 63.5 30t64.5 10q47 0 83.5 -19.5t58.5 -55.5t28 -87.5t-8 -115.5q-12 -59 -39 -107.5
t-63.5 -83t-81 -54t-91.5 -19.5q-32 0 -59 9t-47 29l-46 -218h-117zM623 99q24 0 46.5 12.5t41 34.5t32.5 52t21 64q7 33 5.5 62t-10.5 51t-26.5 34.5t-41.5 12.5t-46.5 -11t-41 -31t-32.5 -48t-21 -62l-4 -17q-7 -33 -4.5 -61t12.5 -48.5t27.5 -32.5t41.5 -12zM288 99
q24 0 46.5 12t41 33t32.5 49t21 60l4 17q7 33 4.5 60.5t-12.5 48t-27.5 32t-41.5 11.5t-46.5 -12.5t-41 -34.5t-32.5 -51t-21 -62q-7 -34 -5.5 -64t10.5 -52t26.5 -34.5t41.5 -12.5z" />
    <glyph glyph-name="uni0445" unicode="&#x445;" horiz-adv-x="535" 
d="M128 0h-137l252 269q-29 59 -63.5 126.5t-63.5 124.5h138l76 -157q34 38 71.5 78.5t71.5 78.5h138l-232 -252q32 -62 69 -134t69 -134h-137l-91 173z" />
    <glyph glyph-name="uni0446" unicode="&#x446;" horiz-adv-x="599" 
d="M426 0h-55l5 27q-28 -17 -63.5 -27.5t-68.5 -10.5q-44 0 -77.5 15t-54.5 42.5t-27.5 66t3.5 85.5l68 322h117l-64 -302q-12 -55 7.5 -87.5t67.5 -32.5t84.5 31.5t48.5 88.5l64 302h117l-87 -411h55l-50 -235h-117z" />
    <glyph glyph-name="uni0447" unicode="&#x447;" horiz-adv-x="533" 
d="M355 0l33 156q-59 -31 -118 -31q-45 0 -78.5 15t-53.5 43t-26 67t4 86l39 184h117l-39 -184q-9 -44 8 -72.5t63 -28.5q44 0 78 27.5t44 73.5l39 184h117l-110 -520h-117z" />
    <glyph glyph-name="uni0448" unicode="&#x448;" horiz-adv-x="808" 
d="M575 0l2 14q-21 -13 -45 -19t-50 -6q-38 0 -68 15t-47 44q-32 -29 -71.5 -44t-77.5 -15t-66 14.5t-45 41.5t-21.5 66t6.5 87l68 321h117l-68 -319q-10 -48 2.5 -75t43.5 -27q32 0 60 27t38 75l68 320h118l-68 -320q-10 -48 2.5 -75t45.5 -27q32 0 60 28t38 74l68 320h118
l-87 -411h50l-23 -109h-168z" />
    <glyph glyph-name="uni0449" unicode="&#x449;" horiz-adv-x="824" 
d="M621 0h-51l2 14q-21 -13 -45 -19t-50 -6q-38 0 -68 15t-47 44q-32 -29 -71.5 -44t-77.5 -15t-66 14.5t-45 41.5t-21.5 66t6.5 87l68 321h117l-68 -319q-10 -48 2.5 -75t43.5 -27q33 0 61 27t38 75l68 320h117l-68 -320q-10 -48 2.5 -75t45.5 -27q32 0 60 28t38 74l68 320
h118l-87 -411h51l-54 -254h-118z" />
    <glyph glyph-name="uni044A" unicode="&#x44a;" horiz-adv-x="530" 
d="M118 520h190l-34 -160h91q40 0 71.5 -14.5t51 -38.5t27 -55t0.5 -65q-8 -36 -29 -69.5t-51.5 -59.5t-68 -42t-77.5 -16h-208l89 421h-73zM310 99q18 0 33 8t26 20t18.5 26.5t10.5 26.5q3 13 1 27.5t-9 26.5t-18.5 19.5t-27.5 7.5h-91l-34 -162h91z" />
    <glyph glyph-name="uni044B" unicode="&#x44b;" horiz-adv-x="647" 
d="M464 0l110 520h117l-110 -520h-117zM276 99q18 0 33 8t26.5 20t19 26.5t10.5 26.5q3 13 1 27.5t-9 26.5t-18.5 19.5t-28.5 7.5h-91l-34 -162h91zM331 360q41 0 72.5 -14.5t51 -38.5t27 -55t0.5 -65q-8 -36 -29 -69.5t-52 -59.5t-68.5 -42t-77.5 -16h-208l110 520h117
l-34 -160h91z" />
    <glyph glyph-name="uni044C" unicode="&#x44c;" horiz-adv-x="492" 
d="M274 99q18 0 33 8t26.5 20t19 26.5t10.5 26.5q3 13 0.5 27.5t-9 26.5t-18.5 19.5t-28 7.5h-91l-34 -162h91zM329 360q40 0 71.5 -14.5t51.5 -38.5t27.5 -55t0.5 -65q-8 -36 -29 -69.5t-52 -59.5t-68.5 -42t-77.5 -16h-208l110 520h117l-34 -160h91z" />
    <glyph glyph-name="uni044D" unicode="&#x44d;" horiz-adv-x="516" 
d="M221 318h183q-2 46 -23.5 75t-65.5 29q-18 0 -36 -8.5t-35.5 -23.5t-32.5 -36t-25 -46l-94 50q17 42 44 74t60 54t69.5 33.5t72.5 11.5q53 0 91.5 -20.5t61.5 -57t29 -87t-7 -109.5q-12 -57 -38.5 -106t-64.5 -85t-85.5 -56.5t-101.5 -20.5q-35 0 -66.5 11t-55 33t-38 53
t-15.5 72l109 44q5 -54 29 -79t60 -25q48 0 82 28.5t54 82.5h-184z" />
    <glyph glyph-name="uni044E" unicode="&#x44e;" horiz-adv-x="696" 
d="M233 321h18q18 47 45.5 85.5t62 66.5t74 43t82.5 15q49 0 87.5 -19.5t62.5 -55t31 -86t-6 -113.5q-13 -62 -41 -112t-66 -84.5t-85 -53t-98 -18.5q-46 0 -81 15t-58.5 43t-33 69t-4.5 93h-14l-44 -209h-117l110 519h117zM573 257q16 75 -5.5 120t-75.5 45q-28 0 -51 -13
t-41 -35t-31.5 -52.5t-20.5 -64.5q-16 -75 2.5 -117t73.5 -42t94.5 43.5t54.5 115.5z" />
    <glyph glyph-name="uni044F" unicode="&#x44f;" horiz-adv-x="532" 
d="M194 197q-48 17 -67.5 57.5t-7.5 97.5q7 35 26.5 66t47 53.5t60.5 35.5t68 13h260l-110 -520h-118l39 187h-69q-43 -46 -88.5 -94t-87.5 -93h-135zM237 353q-6 -26 7.5 -47t39.5 -21h129l29 136h-129q-26 0 -48.5 -20.5t-27.5 -47.5z" />
    <glyph glyph-name="uni10D0" unicode="&#x10d0;" horiz-adv-x="518" 
d="M215 239q-29 -138 65 -138t123 138q12 56 2.5 114.5t-28.5 113.5t-42.5 104t-38.5 88l105 61l32 -73q17 -39 37 -88t35 -102t20.5 -109t-5.5 -109q-12 -58 -37 -104.5t-59.5 -79.5t-77 -50.5t-90.5 -17.5q-101 0 -142 67.5t-16 184.5q7 32 23 65t36 65h129
q-29 -38 -47 -71t-24 -59z" />
    <glyph glyph-name="uni10D1" unicode="&#x10d1;" horiz-adv-x="537" 
d="M540 242q-11 -50 -30.5 -96t-51.5 -81.5t-79 -56.5t-113 -21t-104.5 21t-55.5 56.5t-17.5 81.5t10.5 96q10 45 27 90.5t45 83.5t68.5 64.5t96.5 34.5l13 61h-3q-31 0 -55 2.5t-39 11.5t-20 26t1 46l12 54h119l-6 -28q-2 -5 0 -8.5t7 -3.5h187l23 -100h-108l-15 -70
q37 -15 59 -43t31 -63.5t8 -76t-10 -81.5zM420 242q6 28 9 57t-2.5 52.5t-22 38t-49.5 14.5t-56 -14.5t-39 -38t-25.5 -52.5t-15.5 -57t-8 -53.5t5 -45t24 -31t50 -11.5t55 11.5t36.5 31t23.5 45t15 53.5z" />
    <glyph glyph-name="uni10D2" unicode="&#x10d2;" horiz-adv-x="581" 
d="M425 712q46 0 77.5 -14t49.5 -38t23 -56.5t-3 -69.5q-5 -20 -12.5 -40.5t-21.5 -43.5q21 -16 33.5 -38.5t17.5 -49t3.5 -57t-8.5 -62.5q-11 -50 -34 -96t-60 -81.5t-87.5 -57t-114.5 -21.5q-65 0 -106.5 21.5t-63.5 57t-26 81.5t7 96q11 51 35 95.5t62 77.5t89 52.5
t116 19.5h17t15 -1q15 28 19 49q6 27 -5 45t-49 18q-19 0 -41.5 -3t-47.5 -12t-52.5 -25.5t-56.5 -44.5l25 121q102 77 200 77zM465 243q4 21 4 44.5t-9 43t-29 32.5t-54 13q-35 0 -61.5 -10.5t-46 -28.5t-32 -42t-18.5 -52t-5 -54t11.5 -45.5t31.5 -31t55 -11.5t59.5 11.5
t44.5 31t31 45.5t18 54z" />
    <glyph glyph-name="uni10D3" unicode="&#x10d3;" horiz-adv-x="827" 
d="M383 600q-29 0 -49 -11.5t-34 -33t-23.5 -53t-18.5 -70.5q-16 -74 -2 -134.5t54 -103.5t103.5 -66t147.5 -23h80l-22 -105h-82q-108 0 -191.5 29t-137 84.5t-72.5 136t3 182.5q14 65 34.5 117t51.5 88t75.5 55.5t106.5 19.5q58 0 89 -13.5t45 -41.5q29 28 70 41.5
t99 13.5q67 0 105 -20t55.5 -54.5t17 -79.5t-10.5 -96q-11 -50 -30 -95t-51 -79.5t-79 -54.5t-113 -20t-104.5 20t-56 54t-18 80t10.5 97q4 27 7.5 51.5t-0.5 43t-17.5 30t-42.5 11.5zM556 462q-6 -28 -7.5 -52.5t5 -43t24 -29.5t50.5 -11t55 11t36.5 29.5t23.5 43t15 52.5
t7.5 53t-5.5 44t-24.5 30t-50.5 11t-55 -11t-36.5 -30t-23 -44t-14.5 -53z" />
    <glyph glyph-name="uni10D4" unicode="&#x10d4;" horiz-adv-x="531" 
d="M258 -13q-98 0 -143 59t-23 162q7 32 27 81t49 98l95 -54q-17 -30 -31.5 -64.5t-20.5 -64.5q-11 -48 8.5 -75.5t61.5 -27.5q45 0 72.5 29.5t41.5 98.5l61 288q10 44 -13 63t-61 19q-21 0 -46 -7.5t-50 -19t-48.5 -26t-41.5 -28.5l25 118q100 76 197 76q41 0 75 -12
t56 -36t30 -60t-2 -84l-60 -284q-16 -74 -42 -122.5t-60 -76.5t-74 -39t-83 -11z" />
    <glyph glyph-name="uni10D5" unicode="&#x10d5;" horiz-adv-x="540" 
d="M341 475h46q26 0 50 10.5t32 46.5q4 21 0 34t-13.5 20.5t-24.5 10t-33 2.5t-40.5 -2t-48 -10t-53.5 -23.5t-57 -42.5l28 131q42 26 94.5 43t102.5 17q52 0 87 -15t55 -40t25 -57.5t-2 -67.5q-6 -29 -20.5 -57t-43.5 -51q25 -20 32 -51t-1 -69l-19 -89q-14 -64 -41 -107.5
t-62.5 -70.5t-76.5 -38.5t-82 -11.5q-52 0 -91 16.5t-63 45.5t-32 69t2 87q15 73 77 156l92 -59q-20 -24 -31.5 -47.5t-16.5 -44.5q-10 -47 11 -78t67 -31q19 0 38.5 5t36.5 17.5t30.5 35t20.5 57.5l19 86q2 10 0 20.5t-8.5 19.5t-18.5 14.5t-30 5.5h-61z" />
    <glyph glyph-name="uni10D6" unicode="&#x10d6;" horiz-adv-x="716" 
d="M152 490q12 57 38.5 99t61 69.5t73 40.5t75.5 13q34 0 63.5 -11t50 -32t29 -51.5t0.5 -69.5q-2 -8 -3.5 -15t-3.5 -15q5 1 10 1h12q66 0 104 -23t54.5 -60.5t15.5 -85.5t-11 -98q-11 -50 -30.5 -97.5t-52 -84.5t-80 -59.5t-113.5 -22.5t-104 22.5t-54.5 59.5t-16.5 84.5
t11 97.5q2 6 3.5 13t3.5 14q-5 -1 -9 -1h-9q-33 0 -59.5 13.5t-43.5 40.5t-21.5 66.5t6.5 91.5zM601 252q6 28 9 55.5t-2 49.5t-21 36t-47 14q-29 0 -52 -13.5t-40.5 -35t-29.5 -49.5t-18 -57q-6 -28 -8 -55t4.5 -48.5t23.5 -34.5t49 -13q33 0 55.5 13t37.5 34t24 48t15 56z
M413 515q6 28 4 45t-9 26t-18 11.5t-23 2.5q-13 0 -27 -5t-27 -17.5t-23.5 -33.5t-17.5 -54q-5 -20 -7 -38t1.5 -32t14 -22t31.5 -8q22 0 39 11.5t29.5 29.5t20 40.5t12.5 43.5z" />
    <glyph glyph-name="uni10D7" unicode="&#x10d7;" horiz-adv-x="839" 
d="M765 470q5 24 7.5 47.5t-3 41.5t-21 29t-45.5 11t-50.5 -12.5t-34.5 -33t-22.5 -46t-14.5 -51.5l-46 -219q-10 -48 -30.5 -92.5t-53 -79.5t-78.5 -56t-106 -21q-65 0 -101.5 22.5t-52.5 60t-15 85.5t12 99l42 197q10 49 29.5 96t51.5 84t78 59t110 22q57 0 89 -20t49 -53
q28 35 68 54t101 19q63 0 98.5 -21t51 -57t14 -83t-12.5 -98l-47 -220q-8 -40 -22.5 -78t-37 -71t-53.5 -59.5t-72 -41.5l-38 104q25 7 42.5 20.5t29.5 31t19 37.5t12 41zM467 466q5 24 6.5 48t-5 43t-23.5 30.5t-48 11.5t-52.5 -11t-36 -30t-23.5 -43t-14 -49l-49 -227
q-5 -26 -7 -50.5t4.5 -44t23 -31.5t48.5 -12t54 12t36.5 31.5t23 44t13.5 50.5z" />
    <glyph glyph-name="uni10D8" unicode="&#x10d8;" horiz-adv-x="555" 
d="M485 476q2 12 3.5 23.5t1.5 22.5q0 34 -18 55.5t-67 21.5q-32 0 -54 -9.5t-37.5 -26t-25 -39t-14.5 -47.5l-53 -251q-4 -16 -4 -35q0 -28 12 -53t40 -47l-86 -107q-46 30 -66 77t-20 101q0 35 8 73l49 229q10 50 31 95t54 79.5t80 54.5t110 20q49 0 83 -13t55 -35.5
t30 -53t9 -66.5q0 -40 -9 -83l-49 -227q-8 -37 -23 -73.5t-37.5 -69.5t-53.5 -61t-71 -47l-35 109q47 28 71.5 61.5t32.5 71.5z" />
    <glyph glyph-name="uni10D9" unicode="&#x10d9;" horiz-adv-x="547" 
d="M337 458h54q26 0 49.5 11.5t31.5 47.5q5 22 1 38.5t-14.5 27t-26.5 16t-34 5.5h-30l24 112q47 0 88.5 -12t70 -36t40.5 -61t2 -87q-9 -42 -28 -69.5t-45 -44.5q56 -38 40 -117l-16 -74q-14 -64 -42 -107.5t-65 -70.5t-79.5 -38.5t-83.5 -11.5q-49 0 -88 12t-64.5 37.5
t-34.5 66t3 96.5q7 32 22.5 65.5t41.5 72.5l94 -55q-17 -26 -26 -45t-13 -38q-6 -29 -1.5 -48t17 -30t30.5 -15.5t38 -4.5q19 0 39.5 5.5t38.5 19t31.5 35.5t20.5 55l16 73q5 20 -8 38t-49 18h-69z" />
    <glyph glyph-name="uni10DA" unicode="&#x10da;" horiz-adv-x="544" 
d="M254 438q-8 -35 -12 -68t-4 -63q0 -41 9.5 -76t31.5 -62t57.5 -45t88.5 -26l-24 -113q-81 9 -136 34.5t-89.5 65t-49.5 91.5t-15 112q0 40 6.5 86.5t21 94t38 91.5t57.5 77.5t79 54t103 20.5q48 0 81.5 -14.5t55 -39.5t31.5 -59t10 -72q0 -67 -27.5 -140t-70.5 -139h-131
q21 26 40.5 60.5t33.5 70.5t22.5 70t8.5 59q0 38 -17.5 64.5t-60.5 26.5q-20 0 -40.5 -10.5t-39.5 -30.5t-34.5 -50.5t-23.5 -69.5z" />
    <glyph glyph-name="uni10DB" unicode="&#x10db;" 
d="M542 252q-11 -50 -30.5 -97.5t-52.5 -85t-80 -60t-113 -22.5t-104 22.5t-55 60t-17 85t11 97.5q10 50 29.5 97.5t52 84.5t80 59.5t113.5 22.5q34 0 57 -6.5t40 -17.5l6 26q9 44 -13.5 62.5t-57.5 18.5q-20 0 -43.5 -3t-49.5 -12t-55 -26.5t-61 -47.5l28 134
q51 37 104 52.5t101 15.5q40 0 75 -12t59 -36t33.5 -60t-0.5 -84zM422 252q6 28 8.5 55.5t-3.5 49t-23 34.5t-50 13t-55.5 -13t-38 -34.5t-24.5 -49t-15 -55.5t-8 -55t4 -48.5t23 -34.5t50 -13t55.5 13t37.5 34t24 48t15 56z" />
    <glyph glyph-name="uni10DC" unicode="&#x10dc;" 
d="M174 520q10 48 35 82.5t58.5 57t73.5 33.5t80 11h191l-22 -105h-188q-37 0 -67 -15t-40 -60l-7 -33q23 12 48.5 18.5t59.5 6.5q66 0 103.5 -23t54 -60.5t15.5 -85.5t-12 -98t-30.5 -97t-52 -84t-80 -59t-113.5 -22t-104 22.5t-54.5 60t-16.5 85t11 97.5zM236 249
q-6 -29 -8.5 -55.5t4 -47t23.5 -33t50 -12.5t55.5 12.5t37.5 33.5t24 47.5t15 54.5t8.5 56t-3.5 50t-23 35.5t-50 13.5t-56 -13.5t-38 -35.5t-24 -50t-15 -56z" />
    <glyph glyph-name="uni10DD" unicode="&#x10dd;" horiz-adv-x="795" 
d="M438 470q5 24 7.5 47t-2 41.5t-18.5 29.5t-42 11q-30 0 -49.5 -11.5t-31.5 -30t-19 -43t-13 -49.5l-44 -210q-6 -26 -7 -53t9 -49.5t33.5 -37t67.5 -14.5l-57 -114q-64 3 -101 27t-54 61t-17.5 84t10.5 96l42 199q10 50 27.5 96.5t46.5 82.5t73 58t107 22q54 0 83.5 -20
t43.5 -49q27 31 64.5 50t94.5 19q63 0 97 -22.5t47.5 -59t11 -83.5t-12.5 -96l-42 -197q-11 -49 -30.5 -96t-52.5 -84t-80 -61t-113 -27l-8 114q44 0 73.5 14.5t48.5 37t29.5 49.5t16.5 53l45 211q5 25 8.5 49t-0.5 42.5t-18.5 30t-44.5 11.5q-28 0 -46.5 -11t-30.5 -29.5
t-19.5 -41.5t-12.5 -47l-37 -174h-120z" />
    <glyph glyph-name="uni10DE" unicode="&#x10de;" horiz-adv-x="540" 
d="M308 431h85q23 0 38.5 13.5t21.5 43.5q5 23 -8.5 34.5t-35.5 18t-48.5 12.5t-48 18t-32.5 34.5t-3 61.5l8 37h117l-3 -17q-3 -13 11.5 -20t37.5 -14t49 -17t47 -27.5t31 -46t0 -73.5q-8 -38 -23 -65.5t-35 -44.5q23 -19 31 -48t0 -63l-10 -48q-15 -73 -43.5 -118.5
t-65 -71t-79 -34.5t-85.5 -9q-55 0 -92 19t-58 50.5t-26 72t4 83.5q6 31 18.5 60.5t31.5 61.5l93 -60q-17 -34 -23 -62q-11 -52 7 -81.5t78 -29.5q58 0 83.5 33t36.5 86l10 48q2 10 -0.5 21t-10.5 20t-23 14.5t-38 5.5h-70z" />
    <glyph glyph-name="uni10DF" unicode="&#x10df;" horiz-adv-x="665" 
d="M143 449q3 17 17 47l103 -29q-2 -5 -3 -10.5t-3 -10.5q-6 -29 6 -45.5t46 -16.5q24 0 48.5 18t32.5 56q3 13 2 26.5t-6 25t-14.5 19t-23.5 8.5l-38 -5l23 110l317 61h100l-102 -479q-12 -57 -41 -101t-69 -74t-87 -45.5t-95 -15.5q-52 0 -103 18t-109 56l76 104
q28 -18 48.5 -30t37.5 -19.5t32.5 -11t34.5 -3.5q24 0 48.5 7t46 21t37 35.5t21.5 50.5l80 375l-111 -19q16 -27 17.5 -63.5t-4.5 -63.5q-8 -35 -27 -66.5t-46.5 -55t-61.5 -37.5t-71 -14q-60 0 -94 19t-50 46t-18 57.5t3 54.5z" />
    <glyph glyph-name="uni10E0" unicode="&#x10e0;" horiz-adv-x="842" 
d="M419 277q6 26 8 49t-3.5 40.5t-20 27.5t-42.5 10q-33 0 -56.5 -15.5t-39 -39.5t-25 -54t-15.5 -59q-4 -17 -4 -40t10 -44t33.5 -36t67.5 -15l-52 -114q-66 3 -105 28t-56.5 64t-17.5 87.5t11 99.5l8 38q21 98 54.5 166t74.5 112.5t88.5 69t96.5 36t98 14t93 2.5h114
l-22 -105h-156q-41 0 -80 -4t-73 -14.5t-60.5 -30t-41.5 -50.5q37 16 78 16q58 0 88 -19t44 -49q29 32 67.5 50t100.5 18q66 0 103 -20t53 -54.5t14.5 -79.5t-12.5 -96q-10 -48 -30.5 -96.5t-54.5 -88t-83.5 -65.5t-117.5 -29l-3 114q43 0 73 15t49.5 39t30.5 53t17 58
q6 28 9 53t-2 44t-21.5 30t-49.5 11q-29 0 -49.5 -10t-34 -27.5t-22 -40.5t-14.5 -49l-17 -83h-120z" />
    <glyph glyph-name="uni10E1" unicode="&#x10e1;" horiz-adv-x="552" 
d="M289 -13q-51 0 -89.5 16.5t-62 47.5t-30.5 76.5t5 102.5l101 474h121l-101 -474q-7 -33 -3 -57.5t15.5 -40.5t29 -23.5t36.5 -7.5q25 0 45 10t35 26.5t25 39t15 48.5q6 26 5 56.5t-8 62t-18.5 63t-27.5 59.5l120 63q17 -38 29.5 -77.5t19.5 -78.5t7.5 -75t-5.5 -66
q-14 -64 -41.5 -110t-63.5 -76t-77.5 -44.5t-81.5 -14.5z" />
    <glyph glyph-name="uni10E2" unicode="&#x10e2;" horiz-adv-x="755" 
d="M485 353l-30 -141h-117l68 322q9 42 30 75.5t50.5 56t64.5 34.5t71 12q37 0 67.5 -12t50 -34.5t26.5 -56t-2 -75.5q-3 -15 -11.5 -30.5t-21 -30t-27.5 -26.5t-31 -21q35 -17 54.5 -39.5t28 -47t8 -50t-5.5 -48.5q-12 -54 -43 -100.5t-78.5 -80.5t-108.5 -53.5t-132 -19.5
q-90 0 -150 29t-93 78t-40.5 113.5t7.5 135.5q17 79 59 165t105 170l99 -59q-25 -30 -48.5 -65.5t-43.5 -73.5t-35 -77.5t-23 -76.5q-10 -46 -6.5 -87t24 -71.5t60.5 -48.5t105 -18q39 0 77 11.5t69.5 31t53 46.5t27.5 58q4 18 -0.5 37t-18 34t-36 24.5t-54.5 9.5h-49z
M512 481h53q28 0 54 12.5t33 47.5q6 27 -10 42.5t-44 15.5q-26 0 -47 -16.5t-27 -42.5z" />
    <glyph glyph-name="uni10E3" unicode="&#x10e3;" horiz-adv-x="615" 
d="M594 207q-10 -49 -36.5 -89.5t-63.5 -69.5t-82.5 -45t-93.5 -16t-86.5 16t-64 45t-35 69.5t0.5 89.5q4 19 13.5 41t22.5 45t27.5 44.5t29.5 39.5l93 -62q-26 -26 -44 -55.5t-24 -58.5q-4 -21 -1.5 -39t13 -31.5t30 -21.5t49.5 -8q46 0 84 26t48 71l74 351q5 22 -7.5 36
t-33.5 14t-38.5 -13.5t-22.5 -34.5l-25 -115h-120l24 113q6 26 -4.5 38t-26.5 12h-119l22 105h141q32 0 47.5 -20t17.5 -53q26 41 65.5 61t78.5 20q28 0 54 -11t43 -32t24 -53t-2 -74z" />
    <glyph glyph-name="uni10E4" unicode="&#x10e4;" horiz-adv-x="852" 
d="M792 504q6 28 2.5 46.5t-13.5 30t-25.5 16t-32.5 4.5q-20 0 -41 -7.5t-39 -22t-32 -35t-19 -46.5l-9 -41q-12 -55 -33 -103t-54.5 -84t-80.5 -56.5t-109 -20.5q-66 0 -103.5 22.5t-54 59.5t-16.5 84.5t11 97.5q10 50 29.5 97.5t52 84.5t80 59.5t113.5 22.5
q61 0 94.5 -23.5t49.5 -58.5q38 40 88 60.5t101 20.5q38 0 72.5 -11t58 -36t32.5 -64.5t-3 -96.5q-12 -55 -31.5 -92t-59.5 -62q20 -17 32 -41.5t5 -54.5l-15 -75q-12 -54 -46 -90.5t-79.5 -59t-98 -32.5t-100.5 -10q-63 0 -124 21.5t-105 60.5l87 90q12 -12 30 -23
t39.5 -18.5t44.5 -12t44 -4.5q27 0 57.5 3t58 12t48 24.5t25.5 41.5l12 57q5 21 -13 37t-46 16h-51l23 110h52q42 0 61.5 26t30.5 76zM462 449q6 28 9 55.5t-3 49t-23 35t-50 13.5t-55.5 -13.5t-38 -35t-25 -49t-15.5 -55.5t-8 -55t4.5 -48.5t23.5 -34.5t49 -13
q33 0 55.5 13t37.5 34t24 48t15 56z" />
    <glyph glyph-name="uni10E5" unicode="&#x10e5;" horiz-adv-x="519" 
d="M252 -13q-48 0 -83 16t-55.5 45t-26 71t5.5 94q5 25 20 58.5t34 71.5l94 -48q-11 -23 -20.5 -46t-14.5 -45q-4 -18 -3.5 -36.5t8.5 -33.5t24.5 -24t44.5 -9q35 0 64 31t44 102l44 205q4 19 -3.5 32.5t-22 22.5t-34.5 13.5t-41 4.5q-49 0 -85.5 -22.5t-71.5 -60.5l28 131
q33 33 73 48t81 15q59 0 109 -28l23 109h116l-100 -470q-17 -78 -42.5 -126t-58 -75t-71 -36.5t-80.5 -9.5z" />
    <glyph glyph-name="uni10E6" unicode="&#x10e6;" horiz-adv-x="827" 
d="M430 359l24 114q5 25 6.5 48t-5 40.5t-22.5 28t-45 10.5q-34 0 -55.5 -14t-35.5 -37t-22.5 -53.5t-15.5 -63.5q-16 -74 -2 -134t54 -102t103.5 -65t147.5 -23h80l-22 -108h-82q-108 0 -192 29t-137.5 84.5t-72.5 136t3 182.5q13 63 34 115t53.5 88.5t77.5 56.5t107 20
q60 0 92 -17.5t47 -49.5q33 37 75.5 52t92.5 15q66 0 103 -22.5t52 -59.5t13 -84.5t-12 -97.5q-7 -31 -21.5 -66t-35 -71t-46.5 -70.5t-56 -62.5l-91 57q26 22 47.5 50t38.5 56.5t28 56t16 50.5q6 28 9.5 55.5t-1 49t-20.5 35t-49 13.5q-29 0 -49 -10.5t-34 -28.5t-22.5 -41
t-13.5 -48l-24 -114h-120z" />
    <glyph glyph-name="uni10E7" unicode="&#x10e7;" horiz-adv-x="544" 
d="M518 179q-11 -48 -35.5 -84t-58.5 -60t-74 -36t-80 -12q-48 0 -93.5 18.5t-80.5 57.5l31 145q35 -55 81 -81t83 -26t68 19.5t41 64.5l26 122q-23 -25 -56 -39.5t-65 -14.5q-57 0 -92 17.5t-52.5 47.5t-19.5 69.5t7 84.5q13 63 49 126t82 126l89 -59q-15 -21 -30.5 -45
t-29.5 -49t-25 -51t-16 -51q-5 -21 -4.5 -40t7.5 -33t22 -22.5t40 -8.5q17 0 37 6.5t38.5 20t33 33.5t20.5 47l49 232h119z" />
    <glyph glyph-name="uni10E8" unicode="&#x10e8;" horiz-adv-x="593" 
d="M309 574q3 17 -3.5 21t-21.5 4h-109l22 105h110q33 0 52.5 -12.5t30.5 -33.5q31 28 65 41t66 13q30 0 56.5 -11t44.5 -32t25 -50t-1 -65l-66 -310q-14 -65 -43.5 -113t-67.5 -80t-82 -48t-86 -16t-79 14.5t-62.5 45t-35 77.5t4.5 111q13 60 40.5 104t63.5 72.5t78 42.5
t84 14q29 0 56.5 -7.5t49.5 -26.5l26 122q4 20 -10 31.5t-33 11.5t-37 -11t-21 -26l-10 -46h-120zM458 235q7 35 4 58t-14 37t-29 20t-39 6t-41.5 -6t-38 -20t-31 -37t-20.5 -58q-14 -69 5.5 -101.5t71.5 -32.5q53 0 85.5 32.5t46.5 101.5z" />
    <glyph glyph-name="uni10E9" unicode="&#x10e9;" horiz-adv-x="560" 
d="M476 565q3 15 -15 24.5t-60 9.5q-36 0 -67 -17.5t-40 -61.5l-21 -99q98 29 145.5 65t57.5 79zM174 521q10 48 35.5 84t59.5 59.5t74.5 35.5t80.5 12q49 0 84.5 -11t56.5 -30.5t28.5 -45.5t1.5 -56q-8 -36 -39.5 -75.5t-91.5 -65.5q72 -18 92 -71.5t3 -134.5
q-7 -30 -23 -63t-39 -65.5t-51 -62.5t-59 -55l-67 79q21 15 40.5 35.5t36 43.5t27.5 45.5t15 41.5q7 31 3 54t-15.5 38t-28.5 22.5t-36 7.5t-39 -6t-37.5 -17.5t-30.5 -27.5t-17 -36l-54 -256h-120z" />
    <glyph glyph-name="uni10EA" unicode="&#x10ea;" horiz-adv-x="686" 
d="M432 474h112q30 0 52.5 15.5t26.5 35.5q3 15 -5.5 29t-25 27.5t-38.5 27t-46 27.5l68 87q23 -10 55 -27.5t59.5 -42t44 -56t8.5 -69.5q-7 -31 -27.5 -64.5t-55.5 -55.5q29 -32 34 -76t-6 -95q-13 -60 -46.5 -106.5t-79 -78.5t-98 -48.5t-102.5 -16.5q-78 0 -130.5 30
t-82 81.5t-35.5 120.5t11 147q17 77 63 166t124 186l94 -62q-63 -69 -105 -146t-56 -144q-14 -68 -8.5 -118t25 -82.5t50 -48.5t66.5 -16q42 0 75 12t57 31.5t38.5 45t20.5 51.5q5 23 2.5 45t-12 39t-26.5 27.5t-42 10.5h-82z" />
    <glyph glyph-name="uni10EB" unicode="&#x10eb;" 
d="M542 252q-11 -50 -30.5 -97.5t-52.5 -85t-80 -60t-113 -22.5t-104 22.5t-55 60t-17 85t11 97.5q10 50 30 97.5t52.5 84.5t80.5 59.5t114 22.5q30 0 53.5 -8.5t40.5 -22.5l10 48q5 27 -5.5 47.5t-30.5 34.5l52 108q57 -26 88 -72.5t16 -114.5zM422 252q6 28 8.5 55.5
t-3.5 49t-23 34.5t-50 13t-55.5 -13t-38 -34.5t-24.5 -49t-15 -55.5t-8 -55t4 -48.5t23 -34.5t50 -13t55.5 13t37.5 34t24 48t15 56z" />
    <glyph glyph-name="uni10EC" unicode="&#x10ec;" horiz-adv-x="593" 
d="M515 516h-120l11 51q3 15 -10.5 23.5t-32.5 8.5t-37.5 -9t-22.5 -29l-27 -127q29 19 60 26.5t60 7.5q42 0 77.5 -14t59.5 -42.5t33 -72.5t-4 -104q-14 -64 -43 -111t-66.5 -77.5t-81 -45t-85.5 -14.5t-79 16t-62 48t-34.5 80t4.5 113l66 310q8 37 28.5 66t48 49.5
t60 31.5t63.5 11q30 0 58.5 -12t42.5 -41q18 26 43.5 35.5t58.5 9.5h110l-22 -105h-109q-30 0 -37 -31zM233 235q-14 -69 4.5 -101.5t71.5 -32.5q52 0 85.5 32.5t47.5 101.5q7 35 4 58t-14.5 37t-29.5 20t-39 6t-41.5 -6t-37.5 -20t-30.5 -37t-20.5 -58z" />
    <glyph glyph-name="uni10ED" unicode="&#x10ed;" horiz-adv-x="587" 
d="M407 272q-11 -5 -27.5 -9.5t-34 -9t-33.5 -7t-26 -2.5q-36 0 -67 11.5t-52 33t-29.5 52.5t-0.5 71q7 34 25 67t47 59t69 42t92 16h106l23 108h117l-23 -108h94l-23 -109h-94l-61 -286q-10 -47 -37.5 -86t-66.5 -67.5t-87 -44.5t-97 -16q-29 0 -51.5 4.5t-42.5 14.5
t-38.5 25.5t-38.5 38.5l96 83q24 -26 44 -39t53 -13q25 0 50 8.5t46 23t35.5 34t19.5 42.5zM314 353q7 0 22.5 2t33 6t34 8.5t26.5 9.5l23 108h-94q-43 0 -71 -23t-34 -50q-5 -23 9 -42t51 -19z" />
    <glyph glyph-name="uni10EE" unicode="&#x10ee;" 
d="M213 704h120l-49 -232q23 19 52 31.5t61 12.5q67 0 104.5 -22.5t53.5 -60t14.5 -85t-11.5 -97.5q-11 -50 -30.5 -97.5t-52.5 -84.5t-80.5 -59.5t-113.5 -22.5t-104 22.5t-54.5 59.5t-16.5 84.5t11 97.5zM237 251q-6 -29 -8.5 -56t3.5 -48t23 -33.5t50 -12.5t55.5 13
t37.5 34t24.5 48t15.5 55t8.5 55.5t-4 49t-23.5 35t-50 13.5t-55.5 -13.5t-37.5 -35t-24 -49t-15 -55.5z" />
    <glyph glyph-name="uni10EF" unicode="&#x10ef;" horiz-adv-x="539" 
d="M223 615h123l19 89h121l-19 -89h123l-24 -112h-123l-12 -60q-3 -11 0.5 -18.5t11 -15.5t19.5 -17.5t26 -23.5q35 -37 45 -79.5t0 -86.5q-10 -47 -34 -86t-56.5 -68t-71.5 -45t-79 -16q-61 0 -103.5 17t-67.5 47.5t-31.5 73t4.5 93.5q5 20 16 50t31 67l100 -52
q-11 -18 -17.5 -34t-9.5 -31q-5 -24 -3.5 -45.5t11 -37t28 -25t47.5 -9.5q24 0 43.5 8.5t34.5 22t24.5 31t13.5 36.5q6 28 -1.5 47.5t-21.5 35t-31 29t-31 30.5t-20.5 39.5t0.5 56.5l14 66h-123z" />
    <glyph glyph-name="uni10F0" unicode="&#x10f0;" horiz-adv-x="524" 
d="M263 593l-4 111h204q30 0 54.5 -11t40 -29.5t21.5 -43.5t0 -52q-5 -20 -18 -40.5t-31 -37.5q13 -16 17 -37t-1 -41q-5 -21 -16.5 -41t-31.5 -36q17 -18 24 -50t-4 -83q-11 -54 -30.5 -94.5t-49.5 -67.5t-72.5 -40t-100.5 -13q-107 0 -151.5 56.5t-20.5 168.5
q5 24 15.5 52t27.5 61l109 -31q-19 -38 -30 -73t-8 -61.5t24.5 -42.5t66.5 -16q28 0 45.5 8.5t28.5 23.5t17.5 36t11.5 47q7 34 -2.5 48.5t-21.5 14.5h-75l23 111h75q8 0 15.5 6.5t9.5 15.5t-2.5 16t-12.5 7h-75l24 111h75q8 0 15 6.5t9 15.5t-2.5 17t-15.5 8h-177z" />
    <glyph glyph-name="uni10F1" unicode="&#x10f1;" horiz-adv-x="698" 
d="M185 424q12 41 31.5 91.5t49 94.5t68 74t88.5 30q23 0 43 -7.5t32.5 -23.5t17.5 -39.5t-2 -54.5q-9 -43 -32.5 -79t-55 -65t-69 -51.5t-76.5 -38.5q-9 -46 -10 -91.5t13.5 -81.5t46.5 -58.5t89 -22.5q63 0 105 18t50 54q4 17 -2.5 30t-21.5 22t-36.5 15.5t-47.5 11.5
l24 113q64 -16 75 -16t22.5 5t14.5 18q4 18 -23 31t-75 27l23 111q29 -10 49 -14t32 -4q15 0 18 15q2 11 -2 19t-17 17l-63 44l27 128l105 -75q37 -26 54 -61.5t9 -72.5q-5 -24 -14.5 -42t-27.5 -34q16 -20 19 -44t-2 -45t-19 -43.5t-31 -39.5q37 -46 22 -117
q-9 -42 -35.5 -76t-65 -58t-87.5 -37t-103 -13q-83 0 -133 28.5t-75.5 74t-30 103t3.5 116.5l-51 -19l24 113zM398 608q-9 0 -20 -9.5t-22 -27t-22 -41t-21 -51.5q74 46 88 113q3 16 -3 16z" />
    <glyph glyph-name="uni10F2" unicode="&#x10f2;" horiz-adv-x="464" 
d="M412 -17q-16 0 -39.5 3.5t-49.5 10t-51 16t-44 22.5q-36 -16 -85.5 -31.5t-99.5 -26.5l27 129q21 1 39.5 2t34.5 4q-20 35 -30 81t1 95l51 239q7 37 28 70.5t50.5 59t65.5 40.5t73 15t65.5 -15t47 -40.5t25 -58.5t0.5 -70l-47 -220q-13 -60 -43 -109t-72 -86
q15 -4 28.5 -5t22.5 -2h28zM225 290q-5 -23 -3.5 -43t7 -36.5t14 -30t17.5 -23.5q36 25 64 57.5t37 75.5l51 237q4 23 -11.5 42.5t-43.5 19.5q-29 0 -52.5 -19.5t-28.5 -42.5z" />
    <glyph glyph-name="uni10F3" unicode="&#x10f3;" horiz-adv-x="484" 
d="M415 479q29 -9 44.5 -34t20.5 -58.5t2 -71.5t-10 -73q-11 -51 -26.5 -97.5t-43 -81.5t-70 -55.5t-106.5 -20.5q-46 0 -77 14.5t-48 40t-21 60t5 73.5q15 75 78 135l62 -79q-23 -28 -30 -53q-3 -15 0 -28.5t11.5 -24.5t21 -17.5t28.5 -6.5q25 0 42.5 11t29.5 30t20.5 44.5
t14.5 55.5q5 24 6.5 46t-1.5 39t-10 27.5t-19 10.5q-20 0 -55 -29l-55 70l146 193h-164l22 105h352z" />
    <glyph glyph-name="uni10F4" unicode="&#x10f4;" horiz-adv-x="473" 
d="M303 575q-3 -14 11 -27t36.5 -26.5t48.5 -28t47.5 -31.5t34 -37t7.5 -45q-3 -13 -10 -27t-18 -26t-25 -21t-31 -12q31 -17 48 -51.5t9 -72.5q-18 -85 -80 -134t-154 -49q-44 0 -75.5 13.5t-49.5 36t-24 51.5t1 61q11 47 54 90l85 -55q-14 -12 -20.5 -22t-7.5 -15
q-3 -14 12.5 -30t47.5 -16q45 0 70 20.5t30 47.5q10 44 -11.5 59t-68.5 15h-25l25 119h29q33 0 54.5 2t23.5 10q2 9 -13 16t-38.5 15t-50 19.5t-47.5 30t-32 46t-2 67.5q8 37 27 64.5t45 45.5t56.5 26.5t60.5 8.5q32 0 57 -11t41 -29t22.5 -41t1.5 -46t-20.5 -46.5
t-42.5 -43.5l-83 50q16 6 25 12t12.5 12t4.5 10t1 6q1 4 -10 12t-33 8q-18 0 -36 -9.5t-20 -21.5z" />
    <glyph glyph-name="uni10F5" unicode="&#x10f5;" horiz-adv-x="547" 
d="M84 172q6 30 26 57.5t47 48.5t58 34t61 13h80l10 51h-78q-31 0 -57.5 12.5t-44 33.5t-25 48.5t-1.5 58.5q9 44 30 78t50 57.5t65 36t75 12.5q75 0 110 -47.5t18 -128.5l-15 -70h105l-20 -91h-105l-10 -51h105l-19 -89h-105l-16 -73q-9 -41 -28 -73.5t-45.5 -55t-59.5 -35
t-69 -12.5q-80 0 -120 49t-22 136zM298 236q-15 0 -31 -2t-31 -9t-26.5 -19.5t-15.5 -34.5q-6 -29 9 -49.5t47 -20.5q18 0 31 7t21.5 17t13 21t6.5 20l15 70h-39zM400 534q2 9 2 20.5t-4 21t-14 16.5t-28 7q-19 0 -34 -6.5t-25.5 -16.5t-17 -22t-9.5 -24q-5 -21 1 -33.5
t18 -19t27.5 -8.5t30.5 -2h39z" />
    <glyph glyph-name="uni10F6" unicode="&#x10f6;" horiz-adv-x="695" 
d="M409 545q5 25 -1.5 35t-24.5 10h-43l24 114h46q25 0 50 -2t42 -16t22.5 -45t-6.5 -89l-7 -32q16 11 34 18t34 7q39 0 69.5 -13.5t50 -38t26 -59.5t-2.5 -78q-10 -49 -31 -85.5t-49 -61t-61 -37t-67 -12.5q-20 0 -40.5 7t-31.5 30l-10 -49q-6 -28 1 -37.5t25 -9.5h34
l-21 -101h-38q-26 0 -50 3t-40.5 18.5t-22 47.5t6.5 89l9 42q-13 -14 -39.5 -27t-46.5 -13q-36 0 -64 12.5t-45.5 37.5t-22.5 61.5t5 84.5q21 99 79 144t134 45q17 0 36 -8.5t31 -19.5zM522 274q29 0 51 25t29 57t-5.5 53.5t-41.5 21.5q-27 0 -49 -18.5t-30 -56.5
q-8 -41 7.5 -61.5t38.5 -20.5zM290 274q11 0 23.5 5t23.5 15.5t19.5 26t12.5 35.5q8 38 -6 56.5t-40 18.5q-30 0 -51.5 -21.5t-28.5 -53.5q-7 -34 5.5 -58t41.5 -24z" />
    <glyph glyph-name="uni10F7" unicode="&#x10f7;" horiz-adv-x="479" 
d="M319 559q-2 -7 0 -17.5t9 -24.5l-89 -74q-41 50 -26 123q7 32 24 59t41 46.5t51.5 30.5t55.5 11t54 -8t43.5 -27t24 -49t-2.5 -74q-9 -45 -26.5 -77t-40 -56.5t-49 -43t-53.5 -35.5h1q-23 -15 -45 -30.5t-41 -33.5t-33 -40.5t-20 -51.5q-6 -30 9 -52.5t62 -22.5
q35 0 59 17t31 47q5 20 -3.5 44t-31.5 54l91 69q36 -33 50 -76.5t5 -85.5q-11 -49 -33.5 -85.5t-53.5 -60.5t-67.5 -35.5t-74.5 -11.5q-50 0 -83 16t-51.5 43.5t-22.5 63.5t4 76q12 56 37.5 96.5t57.5 71t67 53.5t65 44.5t52 44t28 52.5q1 6 1 13t-3 13t-10 10.5t-19 4.5
q-18 0 -29.5 -9.5t-14.5 -21.5z" />
    <glyph glyph-name="uni10F8" unicode="&#x10f8;" horiz-adv-x="473" 
d="M304 704l-18 -83q-6 -29 -4.5 -48.5t8.5 -31.5t18 -17t25 -5q32 0 51 16.5t24 39.5q5 25 -21 101l108 44q16 -47 22 -84t-1 -69q-9 -41 -29.5 -72.5t-49 -53.5t-62 -33t-67.5 -11q-19 0 -35 3t-31 12l-46 -217q-18 -83 62 -83q39 0 63.5 19t30.5 46q7 35 -45 93l90 77
q87 -66 63 -178q-9 -44 -31.5 -77.5t-53.5 -56.5t-68 -35t-75 -12q-187 0 -143 208l108 508h107z" />
    <glyph glyph-name="uni10F9" unicode="&#x10f9;" horiz-adv-x="0" 
 />
    <glyph glyph-name="uni10FA" unicode="&#x10fa;" horiz-adv-x="0" 
 />
    <glyph glyph-name="uni10FB" unicode="&#x10fb;" horiz-adv-x="417" 
d="M267 234q7 32 33.5 53.5t58.5 21.5q31 0 48.5 -21.5t10.5 -53.5t-33.5 -54t-57.5 -22q-32 0 -49.5 22t-10.5 54zM61 63q7 32 33 54t58 22t49 -22t10 -54t-33 -53.5t-58 -21.5t-49 21.5t-10 53.5zM133 404q7 32 33.5 54t58.5 22t48.5 -22t9.5 -54q-6 -31 -32.5 -53
t-58.5 -22t-48.5 22t-10.5 53z" />
    <glyph glyph-name="uni10FC" unicode="&#x10fc;" horiz-adv-x="0" 
 />
    <glyph glyph-name="uni10FD" unicode="&#x10fd;" horiz-adv-x="0" 
 />
    <glyph glyph-name="uni10FE" unicode="&#x10fe;" horiz-adv-x="0" 
 />
    <glyph glyph-name="uni10FF" unicode="&#x10ff;" horiz-adv-x="0" 
 />
    <glyph glyph-name="uni1C90" unicode="&#x1c90;" horiz-adv-x="518" 
d="M215 239q-29 -138 65 -138t123 138q12 56 2.5 114.5t-28.5 113.5t-42.5 104t-38.5 88l105 61l32 -73q17 -39 37 -88t35 -102t20.5 -109t-5.5 -109q-12 -58 -37 -104.5t-59.5 -79.5t-77 -50.5t-90.5 -17.5q-101 0 -142 67.5t-16 184.5q7 32 23 65t36 65h129
q-29 -38 -47 -71t-24 -59z" />
    <glyph glyph-name="uni1C91" unicode="&#x1c91;" horiz-adv-x="537" 
d="M540 242q-11 -50 -30.5 -96t-51.5 -81.5t-79 -56.5t-113 -21t-104.5 21t-55.5 56.5t-17.5 81.5t10.5 96q10 45 27 90.5t45 83.5t68.5 64.5t96.5 34.5l13 61h-3q-31 0 -55 2.5t-39 11.5t-20 26t1 46l12 54h119l-6 -28q-2 -5 0 -8.5t7 -3.5h187l23 -100h-108l-15 -70
q37 -15 59 -43t31 -63.5t8 -76t-10 -81.5zM420 242q6 28 9 57t-2.5 52.5t-22 38t-49.5 14.5t-56 -14.5t-39 -38t-25.5 -52.5t-15.5 -57t-8 -53.5t5 -45t24 -31t50 -11.5t55 11.5t36.5 31t23.5 45t15 53.5z" />
    <glyph glyph-name="uni1C92" unicode="&#x1c92;" horiz-adv-x="581" 
d="M425 712q46 0 77.5 -14t49.5 -38t23 -56.5t-3 -69.5q-5 -20 -12.5 -40.5t-21.5 -43.5q21 -16 33.5 -38.5t17.5 -49t3.5 -57t-8.5 -62.5q-11 -50 -34 -96t-60 -81.5t-87.5 -57t-114.5 -21.5q-65 0 -106.5 21.5t-63.5 57t-26 81.5t7 96q11 51 35 95.5t62 77.5t89 52.5
t116 19.5h17t15 -1q15 28 19 49q6 27 -5 45t-49 18q-19 0 -41.5 -3t-47.5 -12t-52.5 -25.5t-56.5 -44.5l25 121q102 77 200 77zM465 243q4 21 4 44.5t-9 43t-29 32.5t-54 13q-35 0 -61.5 -10.5t-46 -28.5t-32 -42t-18.5 -52t-5 -54t11.5 -45.5t31.5 -31t55 -11.5t59.5 11.5
t44.5 31t31 45.5t18 54z" />
    <glyph glyph-name="uni1C93" unicode="&#x1c93;" horiz-adv-x="827" 
d="M383 600q-29 0 -49 -11.5t-34 -33t-23.5 -53t-18.5 -70.5q-16 -74 -2 -134.5t54 -103.5t103.5 -66t147.5 -23h80l-22 -105h-82q-108 0 -191.5 29t-137 84.5t-72.5 136t3 182.5q14 65 34.5 117t51.5 88t75.5 55.5t106.5 19.5q58 0 89 -13.5t45 -41.5q29 28 70 41.5
t99 13.5q67 0 105 -20t55.5 -54.5t17 -79.5t-10.5 -96q-11 -50 -30 -95t-51 -79.5t-79 -54.5t-113 -20t-104.5 20t-56 54t-18 80t10.5 97q4 27 7.5 51.5t-0.5 43t-17.5 30t-42.5 11.5zM556 462q-6 -28 -7.5 -52.5t5 -43t24 -29.5t50.5 -11t55 11t36.5 29.5t23.5 43t15 52.5
t7.5 53t-5.5 44t-24.5 30t-50.5 11t-55 -11t-36.5 -30t-23 -44t-14.5 -53z" />
    <glyph glyph-name="uni1C94" unicode="&#x1c94;" horiz-adv-x="531" 
d="M258 -13q-98 0 -143 59t-23 162q7 32 27 81t49 98l95 -54q-17 -30 -31.5 -64.5t-20.5 -64.5q-11 -48 8.5 -75.5t61.5 -27.5q45 0 72.5 29.5t41.5 98.5l61 288q10 44 -13 63t-61 19q-21 0 -46 -7.5t-50 -19t-48.5 -26t-41.5 -28.5l25 118q100 76 197 76q41 0 75 -12
t56 -36t30 -60t-2 -84l-60 -284q-16 -74 -42 -122.5t-60 -76.5t-74 -39t-83 -11z" />
    <glyph glyph-name="uni1C95" unicode="&#x1c95;" horiz-adv-x="540" 
d="M341 475h46q26 0 50 10.5t32 46.5q4 21 0 34t-13.5 20.5t-24.5 10t-33 2.5t-40.5 -2t-48 -10t-53.5 -23.5t-57 -42.5l28 131q42 26 94.5 43t102.5 17q52 0 87 -15t55 -40t25 -57.5t-2 -67.5q-6 -29 -20.5 -57t-43.5 -51q25 -20 32 -51t-1 -69l-19 -89q-14 -64 -41 -107.5
t-62.5 -70.5t-76.5 -38.5t-82 -11.5q-52 0 -91 16.5t-63 45.5t-32 69t2 87q15 73 77 156l92 -59q-20 -24 -31.5 -47.5t-16.5 -44.5q-10 -47 11 -78t67 -31q19 0 38.5 5t36.5 17.5t30.5 35t20.5 57.5l19 86q2 10 0 20.5t-8.5 19.5t-18.5 14.5t-30 5.5h-61z" />
    <glyph glyph-name="uni1C96" unicode="&#x1c96;" horiz-adv-x="716" 
d="M152 490q12 57 38.5 99t61 69.5t73 40.5t75.5 13q34 0 63.5 -11t50 -32t29 -51.5t0.5 -69.5q-2 -8 -3.5 -15t-3.5 -15q5 1 10 1h12q66 0 104 -23t54.5 -60.5t15.5 -85.5t-11 -98q-11 -50 -30.5 -97.5t-52 -84.5t-80 -59.5t-113.5 -22.5t-104 22.5t-54.5 59.5t-16.5 84.5
t11 97.5q2 6 3.5 13t3.5 14q-5 -1 -9 -1h-9q-33 0 -59.5 13.5t-43.5 40.5t-21.5 66.5t6.5 91.5zM601 252q6 28 9 55.5t-2 49.5t-21 36t-47 14q-29 0 -52 -13.5t-40.5 -35t-29.5 -49.5t-18 -57q-6 -28 -8 -55t4.5 -48.5t23.5 -34.5t49 -13q33 0 55.5 13t37.5 34t24 48t15 56z
M413 515q6 28 4 45t-9 26t-18 11.5t-23 2.5q-13 0 -27 -5t-27 -17.5t-23.5 -33.5t-17.5 -54q-5 -20 -7 -38t1.5 -32t14 -22t31.5 -8q22 0 39 11.5t29.5 29.5t20 40.5t12.5 43.5z" />
    <glyph glyph-name="uni1C97" unicode="&#x1c97;" horiz-adv-x="839" 
d="M765 470q5 24 7.5 47.5t-3 41.5t-21 29t-45.5 11t-50.5 -12.5t-34.5 -33t-22.5 -46t-14.5 -51.5l-46 -219q-10 -48 -30.5 -92.5t-53 -79.5t-78.5 -56t-106 -21q-65 0 -101.5 22.5t-52.5 60t-15 85.5t12 99l42 197q10 49 29.5 96t51.5 84t78 59t110 22q57 0 89 -20t49 -53
q28 35 68 54t101 19q63 0 98.5 -21t51 -57t14 -83t-12.5 -98l-42 -199q-10 -46 -28 -90t-47.5 -80t-70.5 -61t-97 -33l-7 112q33 5 55.5 18t37.5 31.5t23 41t13 45.5zM467 466q5 24 6.5 48t-5 43t-23.5 30.5t-48 11.5t-52.5 -11t-36 -30t-23.5 -43t-14 -49l-49 -227
q-5 -26 -7 -50.5t4.5 -44t23 -31.5t48.5 -12t54 12t36.5 31.5t23 44t13.5 50.5z" />
    <glyph glyph-name="uni1C98" unicode="&#x1c98;" horiz-adv-x="555" 
d="M485 476q2 12 3.5 23.5t1.5 22.5q0 34 -18 55.5t-67 21.5q-32 0 -54 -9.5t-37.5 -26t-25 -39t-14.5 -47.5l-53 -251q-4 -16 -4 -35q0 -28 12 -53t40 -47l-86 -107q-46 30 -66 77t-20 101q0 35 8 73l49 229q10 50 31 95t54 79.5t80 54.5t110 20q49 0 83 -13t55 -35.5
t30 -53t9 -66.5q0 -40 -9 -83l-49 -227q-8 -37 -23 -73.5t-37.5 -69.5t-53.5 -61t-71 -47l-35 109q47 28 71.5 61.5t32.5 71.5z" />
    <glyph glyph-name="uni1C99" unicode="&#x1c99;" horiz-adv-x="555" 
d="M337 458h54q26 0 49.5 11.5t31.5 47.5q5 22 1 38.5t-14.5 27t-26.5 16t-34 5.5h-30l24 112q47 0 88.5 -12t70 -36t40.5 -61t2 -87q-9 -42 -28 -69.5t-45 -44.5q56 -38 40 -117l-16 -74q-14 -64 -42 -107.5t-65 -70.5t-79.5 -38.5t-83.5 -11.5q-49 0 -88 12t-64.5 37.5
t-34.5 66t3 96.5q7 32 22.5 65.5t41.5 72.5l94 -55q-17 -26 -26 -45t-13 -38q-6 -29 -1.5 -48t17 -30t30.5 -15.5t38 -4.5q19 0 39.5 5.5t38.5 19t31.5 35.5t20.5 55l16 73q5 20 -8 38t-49 18h-69z" />
    <glyph glyph-name="uni1C9A" unicode="&#x1c9a;" horiz-adv-x="544" 
d="M254 438q-8 -35 -12 -68t-4 -63q0 -41 9.5 -76t31.5 -62t57.5 -45t88.5 -26l-24 -113q-81 9 -136 34.5t-89.5 65t-49.5 91.5t-15 112q0 40 6.5 86.5t21 94t38 91.5t57.5 77.5t79 54t103 20.5q48 0 81.5 -14.5t55 -39.5t31.5 -59t10 -72q0 -67 -27.5 -140t-70.5 -139h-131
q21 26 40.5 60.5t33.5 70.5t22.5 70t8.5 59q0 38 -17.5 64.5t-60.5 26.5q-20 0 -40.5 -10.5t-39.5 -30.5t-34.5 -50.5t-23.5 -69.5z" />
    <glyph glyph-name="uni1C9B" unicode="&#x1c9b;" horiz-adv-x="545" 
d="M542 252q-11 -50 -30.5 -97.5t-52.5 -85t-80 -60t-113 -22.5t-104 22.5t-55 60t-17 85t11 97.5q10 50 29.5 97.5t52 84.5t80 59.5t113.5 22.5q34 0 57 -6.5t40 -17.5l6 26q9 44 -13.5 62.5t-57.5 18.5q-20 0 -43.5 -3t-49.5 -12t-55 -26.5t-61 -47.5l28 134
q51 37 104 52.5t101 15.5q40 0 75 -12t59 -36t33.5 -60t-0.5 -84zM422 252q6 28 8.5 55.5t-3.5 49t-23 34.5t-50 13t-55.5 -13t-38 -34.5t-24.5 -49t-15 -55.5t-8 -55t4 -48.5t23 -34.5t50 -13t55.5 13t37.5 34t24 48t15 56z" />
    <glyph glyph-name="uni1C9C" unicode="&#x1c9c;" horiz-adv-x="545" 
d="M166 520q10 48 35 82.5t58.5 57t73.5 33.5t80 11h191l-22 -105h-188q-37 0 -67 -15t-40 -60l-7 -33q23 12 48.5 18.5t59.5 6.5q66 0 103.5 -23t54 -60.5t15.5 -85.5t-12 -98t-30.5 -97t-52 -84t-80 -59t-113.5 -22t-104 22.5t-54.5 60t-16.5 85t11 97.5zM228 249
q-6 -29 -8.5 -55.5t4 -47t23.5 -33t50 -12.5t55.5 12.5t37.5 33.5t24 47.5t15 54.5t8.5 56t-3.5 50t-23 35.5t-50 13.5t-56 -13.5t-38 -35.5t-24 -50t-15 -56z" />
    <glyph glyph-name="uni1C9D" unicode="&#x1c9d;" horiz-adv-x="795" 
d="M438 470q5 24 7.5 47t-2 41.5t-18.5 29.5t-42 11q-30 0 -49.5 -11.5t-31.5 -30t-19 -43t-13 -49.5l-44 -210q-6 -26 -7 -53t9 -49.5t33.5 -37t67.5 -14.5l-57 -114q-64 3 -101 27t-54 61t-17.5 84t10.5 96l42 199q10 50 27.5 96.5t46.5 82.5t73 58t107 22q54 0 83.5 -20
t43.5 -49q27 31 64.5 50t94.5 19q63 0 97 -22.5t47.5 -59t11 -83.5t-12.5 -96l-42 -197q-11 -49 -30.5 -96t-52.5 -84t-80 -61t-113 -27l-8 114q44 0 73.5 14.5t48.5 37t29.5 49.5t16.5 53l45 211q5 25 8.5 49t-0.5 42.5t-18.5 30t-44.5 11.5q-28 0 -46.5 -11t-30.5 -29.5
t-19.5 -41.5t-12.5 -47l-37 -174h-120z" />
    <glyph glyph-name="uni1C9E" unicode="&#x1c9e;" horiz-adv-x="540" 
d="M308 431h85q23 0 38.5 13.5t21.5 43.5q5 23 -8.5 34.5t-35.5 18t-48.5 12.5t-48 18t-32.5 34.5t-3 61.5l8 37h117l-3 -17q-3 -13 11.5 -20t37.5 -14t49 -17t47 -27.5t31 -46t0 -73.5q-8 -38 -23 -65.5t-35 -44.5q23 -19 31 -48t0 -63l-10 -48q-15 -73 -43.5 -118.5
t-65 -71t-79 -34.5t-85.5 -9q-55 0 -92 19t-58 50.5t-26 72t4 83.5q6 31 18.5 60.5t31.5 61.5l93 -60q-17 -34 -23 -62q-11 -52 7 -81.5t78 -29.5q58 0 83.5 33t36.5 86l10 48q2 10 -0.5 21t-10.5 20t-23 14.5t-38 5.5h-70z" />
    <glyph glyph-name="uni1C9F" unicode="&#x1c9f;" horiz-adv-x="657" 
d="M143 449q3 17 17 47l103 -29q-2 -5 -3 -10.5t-3 -10.5q-6 -29 6 -45.5t46 -16.5q24 0 48.5 18t32.5 56q3 13 2 26.5t-6 25t-14.5 19t-23.5 8.5l-38 -5l23 110l317 61h100l-102 -479q-12 -57 -41 -101t-69 -74t-87 -45.5t-95 -15.5q-52 0 -103 18t-109 56l76 104
q28 -18 48.5 -30t37.5 -19.5t32.5 -11t34.5 -3.5q24 0 48.5 7t46 21t37 35.5t21.5 50.5l80 375l-111 -19q16 -27 17.5 -63.5t-4.5 -63.5q-8 -35 -27 -66.5t-46.5 -55t-61.5 -37.5t-71 -14q-60 0 -94 19t-50 46t-18 57.5t3 54.5z" />
    <glyph glyph-name="uni1CA0" unicode="&#x1ca0;" horiz-adv-x="842" 
d="M419 277q6 26 8 49t-3.5 40.5t-20 27.5t-42.5 10q-33 0 -56.5 -15.5t-39 -39.5t-25 -54t-15.5 -59q-4 -17 -4 -40t10 -44t33.5 -36t67.5 -15l-52 -114q-66 3 -105 28t-56.5 64t-17.5 87.5t11 99.5l8 38q21 98 54.5 166t74.5 112.5t88.5 69t96.5 36t98 14t93 2.5h114
l-22 -105h-156q-41 0 -80 -4t-73 -14.5t-60.5 -30t-41.5 -50.5q37 16 78 16q58 0 88 -19t44 -49q29 32 67.5 50t100.5 18q66 0 103 -20t53 -54.5t14.5 -79.5t-12.5 -96q-10 -48 -30.5 -96.5t-54.5 -88t-83.5 -65.5t-117.5 -29l-3 114q43 0 73 15t49.5 39t30.5 53t17 58
q6 28 9 53t-2 44t-21.5 30t-49.5 11q-29 0 -49.5 -10t-34 -27.5t-22 -40.5t-14.5 -49l-17 -83h-120z" />
    <glyph glyph-name="uni1CA1" unicode="&#x1ca1;" horiz-adv-x="544" 
d="M281 -13q-51 0 -89.5 16.5t-62 47.5t-30.5 76.5t5 102.5l101 474h121l-101 -474q-7 -33 -3 -57.5t15.5 -40.5t29 -23.5t36.5 -7.5q25 0 45 10t35 26.5t25 39t15 48.5q6 26 5 56.5t-8 62t-18.5 63t-27.5 59.5l120 63q17 -38 29.5 -77.5t19.5 -78.5t7.5 -75t-5.5 -66
q-14 -64 -41.5 -110t-63.5 -76t-77.5 -44.5t-81.5 -14.5z" />
    <glyph glyph-name="uni1CA2" unicode="&#x1ca2;" horiz-adv-x="755" 
d="M485 353l-30 -141h-117l68 322q9 42 30 75.5t50.5 56t64.5 34.5t71 12q37 0 67.5 -12t50 -34.5t26.5 -56t-2 -75.5q-3 -15 -11.5 -30.5t-21 -30t-27.5 -26.5t-31 -21q35 -17 54.5 -39.5t28 -47t8 -50t-5.5 -48.5q-12 -54 -43 -100.5t-78.5 -80.5t-108.5 -53.5t-132 -19.5
q-90 0 -150 29t-93 78t-40.5 113.5t7.5 135.5q17 79 59 165t105 170l92 -59q-25 -30 -47.5 -65.5t-41 -73.5t-32.5 -77.5t-22 -76.5q-10 -46 -6.5 -87t24 -71.5t60.5 -48.5t105 -18q39 0 77 11.5t69.5 31t53 46.5t27.5 58q4 18 -0.5 37t-18 34t-36 24.5t-54.5 9.5h-49z
M512 481h53q28 0 54 12.5t33 47.5q6 27 -10 42.5t-44 15.5q-26 0 -47 -16.5t-27 -42.5z" />
    <glyph glyph-name="uni1CA3" unicode="&#x1ca3;" horiz-adv-x="607" 
d="M594 207q-10 -49 -36.5 -89.5t-63.5 -69.5t-82.5 -45t-93.5 -16t-86.5 16t-64 45t-35 69.5t0.5 89.5q4 19 13.5 41t22.5 45t27.5 44.5t29.5 39.5l93 -62q-26 -26 -44 -55.5t-24 -58.5q-4 -21 -1.5 -39t13 -31.5t30 -21.5t49.5 -8q46 0 84 26t48 71l74 351q5 22 -7.5 36
t-33.5 14t-38.5 -13.5t-22.5 -34.5l-25 -115h-120l24 113q6 26 -4.5 38t-26.5 12h-119l22 105h141q32 0 47.5 -20t17.5 -53q26 41 65.5 61t78.5 20q28 0 54 -11t43 -32t24 -53t-2 -74z" />
    <glyph glyph-name="uni1CA4" unicode="&#x1ca4;" horiz-adv-x="852" 
d="M792 504q6 28 2.5 46.5t-13.5 30t-25.5 16t-32.5 4.5q-20 0 -41 -7.5t-39 -22t-32 -35t-19 -46.5l-9 -41q-12 -55 -33 -103t-54.5 -84t-80.5 -56.5t-109 -20.5q-66 0 -103.5 22.5t-54 59.5t-16.5 84.5t11 97.5q10 50 29.5 97.5t52 84.5t80 59.5t113.5 22.5
q61 0 94.5 -23.5t49.5 -58.5q38 40 88 60.5t101 20.5q38 0 72.5 -11t58 -36t32.5 -64.5t-3 -96.5q-12 -55 -31.5 -92t-59.5 -62q20 -17 32 -41.5t5 -54.5l-15 -75q-12 -54 -46 -90.5t-79.5 -59t-98 -32.5t-100.5 -10q-63 0 -124 21.5t-105 60.5l87 90q12 -12 30 -23
t39.5 -18.5t44.5 -12t44 -4.5q27 0 57.5 3t58 12t48 24.5t25.5 41.5l12 57q5 21 -13 37t-46 16h-51l23 110h52q42 0 61.5 26t30.5 76zM462 449q6 28 9 55.5t-3 49t-23 35t-50 13.5t-55.5 -13.5t-38 -35t-25 -49t-15.5 -55.5t-8 -55t4.5 -48.5t23.5 -34.5t49 -13
q33 0 55.5 13t37.5 34t24 48t15 56z" />
    <glyph glyph-name="uni1CA5" unicode="&#x1ca5;" horiz-adv-x="511" 
d="M252 -13q-48 0 -83 16t-55.5 45t-26 71t5.5 94q5 25 20 58.5t34 71.5l94 -48q-11 -23 -20.5 -46t-14.5 -45q-4 -18 -3.5 -36.5t8.5 -33.5t24.5 -24t44.5 -9q35 0 64 31t44 102l44 205q4 19 -3.5 32.5t-22 22.5t-34.5 13.5t-41 4.5q-49 0 -85.5 -22.5t-71.5 -60.5l28 131
q33 33 73 48t81 15q59 0 109 -28l23 109h116l-100 -470q-17 -78 -42.5 -126t-58 -75t-71 -36.5t-80.5 -9.5z" />
    <glyph glyph-name="uni1CA6" unicode="&#x1ca6;" horiz-adv-x="827" 
d="M430 359l24 114q5 25 6.5 48t-5 40.5t-22.5 28t-45 10.5q-34 0 -55.5 -14t-35.5 -37t-22.5 -53.5t-15.5 -63.5q-16 -74 -2 -134t54 -102t103.5 -65t147.5 -23h80l-22 -108h-82q-108 0 -192 29t-137.5 84.5t-72.5 136t3 182.5q13 63 34 115t53.5 88.5t77.5 56.5t107 20
q60 0 92 -17.5t47 -49.5q33 37 75.5 52t92.5 15q66 0 103 -22.5t52 -59.5t13 -84.5t-12 -97.5q-7 -31 -21.5 -66t-35 -71t-46.5 -70.5t-56 -62.5l-91 57q26 22 47.5 50t38.5 56.5t28 56t16 50.5q6 28 9.5 55.5t-1 49t-20.5 35t-49 13.5q-29 0 -49 -10.5t-34 -28.5t-22.5 -41
t-13.5 -48l-24 -114h-120z" />
    <glyph glyph-name="uni1CA7" unicode="&#x1ca7;" horiz-adv-x="536" 
d="M518 179q-11 -48 -35.5 -84t-58.5 -60t-74 -36t-80 -12q-48 0 -93.5 18.5t-80.5 57.5l31 145q35 -55 81 -81t83 -26t68 19.5t41 64.5l26 122q-23 -25 -56 -39.5t-65 -14.5q-57 0 -92 17.5t-52.5 47.5t-19.5 69.5t7 84.5q13 63 49 126t82 126l89 -59q-15 -21 -30.5 -45
t-29.5 -49t-25 -51t-16 -51q-5 -21 -4.5 -40t7.5 -33t22 -22.5t40 -8.5q17 0 37 6.5t38.5 20t33 33.5t20.5 47l49 232h119z" />
    <glyph glyph-name="uni1CA8" unicode="&#x1ca8;" horiz-adv-x="585" 
d="M309 574q3 17 -3.5 21t-21.5 4h-109l22 105h110q33 0 52.5 -12.5t30.5 -33.5q31 28 65 41t66 13q30 0 56.5 -11t44.5 -32t25 -50t-1 -65l-66 -310q-14 -65 -43.5 -113t-67.5 -80t-82 -48t-86 -16t-79 14.5t-62.5 45t-35 77.5t4.5 111q13 60 40.5 104t63.5 72.5t78 42.5
t84 14q29 0 56.5 -7.5t49.5 -26.5l26 122q4 20 -10 31.5t-33 11.5t-37 -11t-21 -26l-10 -46h-120zM458 235q7 35 4 58t-14 37t-29 20t-39 6t-41.5 -6t-38 -20t-31 -37t-20.5 -58q-14 -69 5.5 -101.5t71.5 -32.5q53 0 85.5 32.5t46.5 101.5z" />
    <glyph glyph-name="uni1CA9" unicode="&#x1ca9;" horiz-adv-x="552" 
d="M468 565q3 15 -15 24.5t-60 9.5q-36 0 -67 -17.5t-40 -61.5l-21 -99q98 29 145.5 65t57.5 79zM166 521q10 48 35.5 84t59.5 59.5t74.5 35.5t80.5 12q49 0 84.5 -11t56.5 -30.5t28.5 -45.5t1.5 -56q-8 -36 -39.5 -75.5t-91.5 -65.5q72 -18 92 -71.5t3 -134.5
q-7 -30 -23 -63t-39 -65.5t-51 -62.5t-59 -55l-67 79q21 15 40.5 35.5t36 43.5t27.5 45.5t15 41.5q7 31 3 54t-15.5 38t-28.5 22.5t-36 7.5t-39 -6t-37.5 -17.5t-30.5 -27.5t-17 -36l-54 -256h-120z" />
    <glyph glyph-name="uni1CAA" unicode="&#x1caa;" horiz-adv-x="686" 
d="M432 474h112q30 0 52.5 15.5t26.5 35.5q3 15 -5.5 29t-25 27.5t-38.5 27t-46 27.5l68 87q23 -10 55 -27.5t59.5 -42t44 -56t8.5 -69.5q-7 -31 -27.5 -64.5t-55.5 -55.5q29 -32 34 -76t-6 -95q-13 -60 -46.5 -106.5t-79 -78.5t-98 -48.5t-102.5 -16.5q-78 0 -130.5 30
t-82 81.5t-35.5 120.5t11 147q17 77 63 166t124 186l94 -62q-63 -69 -105 -146t-56 -144q-14 -68 -8.5 -118t25 -82.5t50 -48.5t66.5 -16q42 0 75 12t57 31.5t38.5 45t20.5 51.5q5 23 2.5 45t-12 39t-26.5 27.5t-42 10.5h-82z" />
    <glyph glyph-name="uni1CAB" unicode="&#x1cab;" horiz-adv-x="545" 
d="M542 252q-11 -50 -30.5 -97.5t-52.5 -85t-80 -60t-113 -22.5t-104 22.5t-55 60t-17 85t11 97.5q10 50 30 97.5t52.5 84.5t80.5 59.5t114 22.5q30 0 53.5 -8.5t40.5 -22.5l10 48q5 27 -5.5 47.5t-30.5 34.5l52 108q57 -26 88 -72.5t16 -114.5zM422 252q6 28 8.5 55.5
t-3.5 49t-23 34.5t-50 13t-55.5 -13t-38 -34.5t-24.5 -49t-15 -55.5t-8 -55t4 -48.5t23 -34.5t50 -13t55.5 13t37.5 34t24 48t15 56z" />
    <glyph glyph-name="uni1CAC" unicode="&#x1cac;" horiz-adv-x="585" 
d="M507 516h-120l11 51q3 15 -10.5 23.5t-32.5 8.5t-37.5 -9t-22.5 -29l-27 -127q29 19 60 26.5t60 7.5q42 0 77.5 -14t59.5 -42.5t33 -72.5t-4 -104q-14 -64 -43 -111t-66.5 -77.5t-81 -45t-85.5 -14.5t-79 16t-62 48t-34.5 80t4.5 113l66 310q8 37 28.5 66t48 49.5
t60 31.5t63.5 11q30 0 58.5 -12t42.5 -41q18 26 43.5 35.5t58.5 9.5h110l-22 -105h-109q-30 0 -37 -31zM225 235q-14 -69 4.5 -101.5t71.5 -32.5q52 0 85.5 32.5t47.5 101.5q7 35 4 58t-14.5 37t-29.5 20t-39 6t-41.5 -6t-37.5 -20t-30.5 -37t-20.5 -58z" />
    <glyph glyph-name="uni1CAD" unicode="&#x1cad;" horiz-adv-x="614" 
d="M419 272q-11 -5 -27.5 -9.5t-34 -9t-33.5 -7t-26 -2.5q-36 0 -67 11.5t-52 33t-29.5 52.5t-0.5 71q7 34 25 67t47 59t69 42t92 16h106l23 108h117l-23 -108h94l-23 -109h-94l-61 -286q-10 -47 -37.5 -86t-66.5 -67.5t-87 -44.5t-97 -16q-29 0 -51.5 4.5t-42.5 14.5
t-38.5 25.5t-38.5 38.5l96 83q24 -26 44 -39t53 -13q25 0 50 8.5t46 23t35.5 34t19.5 42.5zM326 353q7 0 22.5 2t33 6t34 8.5t26.5 9.5l23 108h-94q-43 0 -71 -23t-34 -50q-5 -23 9 -42t51 -19z" />
    <glyph glyph-name="uni1CAE" unicode="&#x1cae;" horiz-adv-x="545" 
d="M205 704h120l-49 -232q23 19 52 31.5t61 12.5q67 0 104.5 -22.5t53.5 -60t14.5 -85t-11.5 -97.5q-11 -50 -30.5 -97.5t-52.5 -84.5t-80.5 -59.5t-113.5 -22.5t-104 22.5t-54.5 59.5t-16.5 84.5t11 97.5zM229 251q-6 -29 -8.5 -56t3.5 -48t23 -33.5t50 -12.5t55.5 13
t37.5 34t24.5 48t15.5 55t8.5 55.5t-4 49t-23.5 35t-50 13.5t-55.5 -13.5t-37.5 -35t-24 -49t-15 -55.5z" />
    <glyph glyph-name="uni1CAF" unicode="&#x1caf;" horiz-adv-x="539" 
d="M223 615h123l19 89h121l-19 -89h123l-24 -112h-123l-12 -60q-3 -11 0.5 -18.5t11 -15.5t19.5 -17.5t26 -23.5q35 -37 45 -79.5t0 -86.5q-10 -47 -34 -86t-56.5 -68t-71.5 -45t-79 -16q-61 0 -103.5 17t-67.5 47.5t-31.5 73t4.5 93.5q5 20 16 50t31 67l100 -52
q-11 -18 -17.5 -34t-9.5 -31q-5 -24 -3.5 -45.5t11 -37t28 -25t47.5 -9.5q24 0 43.5 8.5t34.5 22t24.5 31t13.5 36.5q6 28 -1.5 47.5t-21.5 35t-31 29t-31 30.5t-20.5 39.5t0.5 56.5l14 66h-123z" />
    <glyph glyph-name="uni1CB0" unicode="&#x1cb0;" horiz-adv-x="532" 
d="M263 593l-4 111h204q30 0 54.5 -11t40 -29.5t21.5 -43.5t0 -52q-5 -20 -18 -40.5t-31 -37.5q13 -16 17 -37t-1 -41q-5 -21 -16.5 -41t-31.5 -36q17 -18 24 -50t-4 -83q-11 -54 -30.5 -94.5t-49.5 -67.5t-72.5 -40t-100.5 -13q-107 0 -151.5 56.5t-20.5 168.5
q5 24 15.5 52t27.5 61l109 -31q-19 -38 -30 -73t-8 -61.5t24.5 -42.5t66.5 -16q28 0 45.5 8.5t28.5 23.5t17.5 36t11.5 47q7 34 -2.5 48.5t-21.5 14.5h-75l23 111h75q8 0 15.5 6.5t9.5 15.5t-2.5 16t-12.5 7h-75l24 111h75q8 0 15 6.5t9 15.5t-2.5 17t-15.5 8h-177z" />
    <glyph glyph-name="uni1CB1" unicode="&#x1cb1;" horiz-adv-x="698" 
d="M185 424q12 41 31.5 91.5t49 94.5t68 74t88.5 30q23 0 43 -7.5t32.5 -23.5t17.5 -39.5t-2 -54.5q-9 -43 -32.5 -79t-55 -65t-69 -51.5t-76.5 -38.5q-9 -46 -10 -91.5t13.5 -81.5t46.5 -58.5t89 -22.5q63 0 105 18t50 54q4 17 -2.5 30t-21.5 22t-36.5 15.5t-47.5 11.5
l24 113q64 -16 75 -16t22.5 5t14.5 18q4 18 -23 31t-75 27l23 111q29 -10 49 -14t32 -4q15 0 18 15q2 11 -2 19t-17 17l-63 44l27 128l105 -75q37 -26 54 -61.5t9 -72.5q-5 -24 -14.5 -42t-27.5 -34q16 -20 19 -44t-2 -45t-19 -43.5t-31 -39.5q37 -46 22 -117
q-9 -42 -35.5 -76t-65 -58t-87.5 -37t-103 -13q-83 0 -133 28.5t-75.5 74t-30 103t3.5 116.5l-51 -19l24 113zM398 608q-9 0 -20 -9.5t-22 -27t-22 -41t-21 -51.5q74 46 88 113q3 16 -3 16z" />
    <glyph glyph-name="uni1CB2" unicode="&#x1cb2;" horiz-adv-x="464" 
d="M412 -17q-16 0 -39.5 3.5t-49.5 10t-51 16t-44 22.5q-36 -16 -85.5 -31.5t-99.5 -26.5l27 129q21 1 39.5 2t34.5 4q-20 35 -30 81t1 95l51 239q7 37 28 70.5t50.5 59t65.5 40.5t73 15t65.5 -15t47 -40.5t25 -58.5t0.5 -70l-47 -220q-13 -60 -43 -109t-72 -86
q15 -4 28.5 -5t22.5 -2h28zM225 290q-5 -23 -3.5 -43t7 -36.5t14 -30t17.5 -23.5q36 25 64 57.5t37 75.5l51 237q4 23 -11.5 42.5t-43.5 19.5q-29 0 -52.5 -19.5t-28.5 -42.5z" />
    <glyph glyph-name="uni1CB3" unicode="&#x1cb3;" horiz-adv-x="484" 
d="M415 479q29 -9 44.5 -34t20.5 -58.5t2 -71.5t-10 -73q-11 -51 -26.5 -97.5t-43 -81.5t-70 -55.5t-106.5 -20.5q-46 0 -77 14.5t-48 40t-21 60t5 73.5q15 75 78 135l62 -79q-23 -28 -30 -53q-3 -15 0 -28.5t11.5 -24.5t21 -17.5t28.5 -6.5q25 0 42.5 11t29.5 30t20.5 44.5
t14.5 55.5q5 24 6.5 46t-1.5 39t-10 27.5t-19 10.5q-20 0 -55 -29l-55 70l146 193h-164l22 105h352z" />
    <glyph glyph-name="uni1CB4" unicode="&#x1cb4;" horiz-adv-x="473" 
d="M303 575q-3 -14 11 -27t36.5 -26.5t48.5 -28t47.5 -31.5t34 -37t7.5 -45q-3 -13 -10 -27t-18 -26t-25 -21t-31 -12q31 -17 48 -51.5t9 -72.5q-18 -85 -80 -134t-154 -49q-44 0 -75.5 13.5t-49.5 36t-24 51.5t1 61q11 47 54 90l85 -55q-14 -12 -20.5 -22t-7.5 -15
q-3 -14 12.5 -30t47.5 -16q45 0 70 20.5t30 47.5q10 44 -11.5 59t-68.5 15h-25l25 119h29q33 0 54.5 2t23.5 10q2 9 -13 16t-38.5 15t-50 19.5t-47.5 30t-32 46t-2 67.5q8 37 27 64.5t45 45.5t56.5 26.5t60.5 8.5q32 0 57 -11t41 -29t22.5 -41t1.5 -46t-20.5 -46.5
t-42.5 -43.5l-83 50q16 6 25 12t12.5 12t4.5 10t1 6q1 4 -10 12t-33 8q-18 0 -36 -9.5t-20 -21.5z" />
    <glyph glyph-name="uni1CB5" unicode="&#x1cb5;" horiz-adv-x="547" 
d="M84 172q6 30 26 57.5t47 48.5t58 34t61 13h80l10 51h-78q-31 0 -57.5 12.5t-44 33.5t-25 48.5t-1.5 58.5q9 44 30 78t50 57.5t65 36t75 12.5q75 0 110 -47.5t18 -128.5l-15 -70h105l-20 -91h-105l-10 -51h105l-19 -89h-105l-16 -73q-9 -41 -28 -73.5t-45.5 -55t-59.5 -35
t-69 -12.5q-80 0 -120 49t-22 136zM298 236q-15 0 -31 -2t-31 -9t-26.5 -19.5t-15.5 -34.5q-6 -29 9 -49.5t47 -20.5q18 0 31 7t21.5 17t13 21t6.5 20l15 70h-39zM400 534q2 9 2 20.5t-4 21t-14 16.5t-28 7q-19 0 -34 -6.5t-25.5 -16.5t-17 -22t-9.5 -24q-5 -21 1 -33.5
t18 -19t27.5 -8.5t30.5 -2h39z" />
    <glyph glyph-name="uni1CB6" unicode="&#x1cb6;" horiz-adv-x="695" 
d="M409 545q5 25 -1.5 35t-24.5 10h-43l24 114h46q25 0 50 -2t42 -16t22.5 -45t-6.5 -89l-7 -32q16 11 34 18t34 7q39 0 69.5 -13.5t50 -38t26 -59.5t-2.5 -78q-10 -49 -31 -85.5t-49 -61t-61 -37t-67 -12.5q-20 0 -40.5 7t-31.5 30l-10 -49q-6 -28 1 -37.5t25 -9.5h34
l-21 -101h-38q-26 0 -50 3t-40.5 18.5t-22 47.5t6.5 89l9 42q-13 -14 -39.5 -27t-46.5 -13q-36 0 -64 12.5t-45.5 37.5t-22.5 61.5t5 84.5q21 99 79 144t134 45q17 0 36 -8.5t31 -19.5zM522 274q29 0 51 25t29 57t-5.5 53.5t-41.5 21.5q-27 0 -49 -18.5t-30 -56.5
q-8 -41 7.5 -61.5t38.5 -20.5zM290 274q11 0 23.5 5t23.5 15.5t19.5 26t12.5 35.5q8 38 -6 56.5t-40 18.5q-30 0 -51.5 -21.5t-28.5 -53.5q-7 -34 5.5 -58t41.5 -24z" />
    <glyph glyph-name="uni1CB7" unicode="&#x1cb7;" horiz-adv-x="479" 
d="M319 559q-2 -7 0 -17.5t9 -24.5l-89 -74q-41 50 -26 123q7 32 24 59t41 46.5t51.5 30.5t55.5 11t54 -8t43.5 -27t24 -49t-2.5 -74q-9 -45 -26.5 -77t-40 -56.5t-49 -43t-53.5 -35.5h1q-23 -15 -45 -30.5t-41 -33.5t-33 -40.5t-20 -51.5q-6 -30 9 -52.5t62 -22.5
q35 0 59 17t31 47q5 20 -3.5 44t-31.5 54l91 69q36 -33 50 -76.5t5 -85.5q-11 -49 -33.5 -85.5t-53.5 -60.5t-67.5 -35.5t-74.5 -11.5q-50 0 -83 16t-51.5 43.5t-22.5 63.5t4 76q12 56 37.5 96.5t57.5 71t67 53.5t65 44.5t52 44t28 52.5q1 6 1 13t-3 13t-10 10.5t-19 4.5
q-18 0 -29.5 -9.5t-14.5 -21.5z" />
    <glyph glyph-name="uni1CB8" unicode="&#x1cb8;" horiz-adv-x="473" 
d="M304 704l-18 -83q-6 -29 -4.5 -48.5t8.5 -31.5t18 -17t25 -5q32 0 51 16.5t24 39.5q5 25 -21 101l108 44q16 -47 22 -84t-1 -69q-9 -41 -29.5 -72.5t-49 -53.5t-62 -33t-67.5 -11q-19 0 -35 3t-31 12l-46 -217q-18 -83 62 -83q39 0 63.5 19t30.5 46q7 35 -45 93l90 77
q87 -66 63 -178q-9 -44 -31.5 -77.5t-53.5 -56.5t-68 -35t-75 -12q-187 0 -143 208l108 508h107z" />
    <glyph glyph-name="uni1CB9" unicode="&#x1cb9;" horiz-adv-x="0" 
 />
    <glyph glyph-name="uni1CBA" unicode="&#x1cba;" horiz-adv-x="0" 
 />
    <glyph glyph-name="uni1CBB" unicode="&#x1cbb;" horiz-adv-x="417" 
d="M267 234q7 32 33.5 53.5t58.5 21.5q31 0 48.5 -21.5t10.5 -53.5t-33.5 -54t-57.5 -22q-32 0 -49.5 22t-10.5 54zM61 63q7 32 33 54t58 22t49 -22t10 -54t-33 -53.5t-58 -21.5t-49 21.5t-10 53.5zM133 404q7 32 33.5 54t58.5 22t48.5 -22t9.5 -54q-6 -31 -32.5 -53
t-58.5 -22t-48.5 22t-10.5 53z" />
    <glyph glyph-name="uni1CBC" unicode="&#x1cbc;" horiz-adv-x="0" 
 />
    <glyph glyph-name="uni1CBD" unicode="&#x1cbd;" horiz-adv-x="0" 
 />
    <glyph glyph-name="uni1CBE" unicode="&#x1cbe;" horiz-adv-x="0" 
 />
    <glyph glyph-name="uni1CBF" unicode="&#x1cbf;" horiz-adv-x="0" 
 />
    <glyph glyph-name="endash" unicode="&#x2013;" horiz-adv-x="625" 
d="M627 325l-25 -116h-514l25 116h514z" />
    <glyph glyph-name="emdash" unicode="&#x2014;" horiz-adv-x="902" 
d="M888 325l-25 -116h-769l25 116h769z" />
    <glyph glyph-name="quoteleft" unicode="&#x2018;" horiz-adv-x="216" 
d="M301 533q-7 -32 -33 -53.5t-58 -21.5t-49.5 23t-9.5 57l71 168h95l-44 -103q17 -9 25 -28t3 -42z" />
    <glyph glyph-name="quoteright" unicode="&#x2019;" horiz-adv-x="217" 
d="M172 636q7 31 33.5 53t58.5 22t48.5 -23t9.5 -57l-71 -168h-96l46 103q-18 9 -26 28t-3 42z" />
    <glyph glyph-name="quotesinglbase" unicode="&#x201a;" horiz-adv-x="216" 
d="M50 62q7 31 33.5 53.5t58.5 22.5t48.5 -23.5t9.5 -57.5l-71 -167h-96l46 102q-17 10 -25.5 29t-3.5 41z" />
    <glyph glyph-name="quotedblleft" unicode="&#x201c;" horiz-adv-x="402" 
d="M460 532q-7 -32 -33.5 -53.5t-58.5 -21.5t-49 23t-9 57l71 169h95l-46 -105q20 -8 27.5 -27t2.5 -42zM304 532q-7 -32 -33.5 -53.5t-58.5 -21.5q-31 0 -48 23t-9 57l70 169h95l-46 -105q20 -8 27.5 -27t2.5 -42z" />
    <glyph glyph-name="quotedblright" unicode="&#x201d;" horiz-adv-x="402" 
d="M176 636q7 32 33 53.5t57 21.5q32 0 49 -23t10 -57l-72 -168h-93l45 104q-20 8 -27 27t-2 42zM331 636q7 32 33 53.5t58 21.5t49 -23t10 -57l-71 -168h-95l45 104q-20 8 -27 27t-2 42z" />
    <glyph glyph-name="quotedblbase" unicode="&#x201e;" horiz-adv-x="402" 
d="M54 62q7 32 33 54t57 22q32 0 49 -23.5t10 -57.5l-72 -167h-93l45 103q-19 9 -26.5 27.5t-2.5 41.5zM209 62q7 32 33 54t58 22t49 -23.5t10 -57.5l-71 -167h-95l45 103q-19 9 -26.5 27.5t-2.5 41.5z" />
    <glyph glyph-name="dagger" unicode="&#x2020;" horiz-adv-x="500" 
d="M453 702l-38 -178h171l-25 -116h-171l-123 -579h-127l123 579h-171l25 116h171l38 178h127z" />
    <glyph glyph-name="bullet" unicode="&#x2022;" horiz-adv-x="382" 
d="M386 275q-7 -33 -24.5 -61.5t-41.5 -48.5t-52.5 -31.5t-58.5 -11.5q-33 0 -57 12t-38.5 33t-19 48.5t2.5 59.5q6 31 22.5 58.5t39.5 48.5t52.5 33.5t62.5 12.5q31 0 55 -12.5t39 -34t19.5 -49t-1.5 -57.5z" />
    <glyph glyph-name="ellipsis" unicode="&#x2026;" horiz-adv-x="666" 
d="M58 63q7 32 33.5 54t58.5 22t49.5 -22t10.5 -54t-33.5 -53.5t-58.5 -21.5t-49.5 21.5t-10.5 53.5zM264 63q7 32 33.5 54t58.5 22q31 0 48.5 -22t10.5 -54t-33.5 -53.5t-57.5 -21.5q-32 0 -49.5 21.5t-10.5 53.5zM469 63q7 32 34 54t58 22q32 0 49 -22t10 -54t-33 -53.5
t-58 -21.5q-31 0 -49 21.5t-11 53.5z" />
    <glyph glyph-name="perthousand" unicode="&#x2030;" horiz-adv-x="1092" 
d="M307 364q-38 0 -67.5 15t-47.5 41t-24 59.5t2 71.5q8 40 30 74.5t52 59.5t65 39.5t70 14.5q33 0 61.5 -14.5t47 -39t26.5 -58t1 -72.5l122 168h126l-299 -412q24 14 49.5 22t53.5 8q52 0 88 -31t47 -80q32 48 81.5 79.5t103.5 31.5q37 0 66 -15t47.5 -40.5t24.5 -60
t-2 -73.5t-29.5 -72.5t-51 -59t-64.5 -40t-71 -14.5q-53 0 -89.5 30.5t-48.5 78.5q-15 -24 -35.5 -44t-44.5 -34.5t-50 -22.5t-52 -8q-36 0 -65 14.5t-48 40t-26 59.5t1 72l-123 -169h-126l297 409q-48 -28 -98 -28zM550 225q-31 0 -53 -22t-28 -51t6.5 -50.5t44.5 -21.5
q29 0 51 21.5t28 50.5q6 30 -7 51.5t-42 21.5zM362 624q-31 0 -52.5 -21.5t-27.5 -51.5q-6 -29 6 -50t44 -21q30 0 51.5 21t27.5 50q7 33 -7.5 53t-41.5 20zM870 225q-30 0 -51.5 -22t-27.5 -51t6 -50.5t43 -21.5q29 0 50.5 20.5t28.5 51.5t-6.5 52t-42.5 21z" />
    <glyph glyph-name="guilsinglleft" unicode="&#x2039;" horiz-adv-x="350" 
d="M240 36l-150 207l13 62l238 207l57 -81l-176 -157l110 -156z" />
    <glyph glyph-name="guilsinglright" unicode="&#x203a;" horiz-adv-x="350" 
d="M230 275l-110 156l93 81l148 -207l-13 -62l-236 -207l-58 82z" />
    <glyph glyph-name="Euro" unicode="&#x20ac;" horiz-adv-x="738" 
d="M299 239q-2 -77 28.5 -121.5t105.5 -44.5q55 0 95.5 25.5t72.5 73.5h100q-51 -100 -122.5 -142.5t-163.5 -42.5q-57 0 -97.5 17.5t-66 50.5t-36.5 79.5t-9 104.5h-127l83 87h54l10 46h-118l82 88h62q22 57 53 103.5t70.5 79.5t88 51t105.5 18q99 0 152.5 -49.5
t56.5 -166.5h-92q-1 70 -36 100.5t-99 30.5q-75 0 -125 -46t-80 -121h277l-81 -88h-223l-5 -20q-2 -7 -2.5 -10t-1.5 -7q-1 -2 -0.5 -4t-0.5 -5h286l-82 -87h-214z" />
    <glyph glyph-name="uni20BE" unicode="&#x20be;" horiz-adv-x="806" 
d="M717 427q6 30 10 56t-0.5 46t-21 32t-49.5 13l-52 -243l-114 -72l67 315h-62l-52 -243l-114 -72l67 315h-2q-37 0 -60 -11.5t-37 -32t-22 -47.5t-14 -57l-29 -135q-7 -32 0.5 -67t27.5 -64.5t51 -48.5t71 -19h318l-64 -92h-583l64 92h56q-33 37 -42 92t2 107l30 138
q10 49 26.5 92t44.5 75.5t71 51t107 18.5h3l7 32l114 72l-22 -104h62l7 32l114 72l-22 -104q61 -1 95 -20.5t47.5 -52t11.5 -75.5t-12 -91l-26 -124l-120 -94z" />
    <glyph glyph-name="trademark" unicode="&#x2122;" horiz-adv-x="832" 
d="M620 706l30 -245l135 245h119l-92 -429h-113l26 121l-69 -121h-92l-16 119l-26 -119h-113l67 312h-96l-67 -312h-111l67 312h-96l25 117h422z" />
    <glyph glyph-name="accent" horiz-adv-x="211" 
d="M174 646q5 27 27 45.5t49 18.5q26 0 40.5 -18.5t9.5 -45.5q-6 -27 -28.5 -45t-48.5 -18q-27 0 -41 18t-8 45z" />
    <glyph glyph-name="NULL" horiz-adv-x="0" 
 />
    </font>
</defs>
</svg>
