<?xml version="1.0" encoding="utf-8"?>
<!-- Generator: Adobe Illustrator 22.1.0, SVG Export Plug-In . SVG Version: 6.00 Build 0)  -->
<svg version="1.1" id="Isolation_Mode" xmlns="http://www.w3.org/2000/svg" xmlns:xlink="http://www.w3.org/1999/xlink" x="0px"
	 y="0px" viewBox="0 0 310.8 268.6" style="enable-background:new 0 0 310.8 268.6;" xml:space="preserve">
<style type="text/css">
	.st0{fill-rule:evenodd;clip-rule:evenodd;fill:#FFFFFF;}
	.st1{fill-rule:evenodd;clip-rule:evenodd;fill:#00AAAD;}
	.st2{fill-rule:evenodd;clip-rule:evenodd;fill:#2E3192;}
</style>
<polygon class="st0" points="32.4,174.9 32.4,101.3 115,101.3 115,22.1 191.9,22.1 191.9,101.3 274.5,101.3 274.5,174.9 
	191.9,174.9 191.9,254.2 115,254.2 115,174.9 "/>
<rect x="131.1" y="21.1" class="st1" width="8.2" height="233.2"/>
<rect x="31.9" y="151.8" class="st1" width="242.8" height="7.8"/>
<path class="st2" d="M191.8,261v3.5H115l-24.3,0.1C-31.6,265.2,70.8,203,152.3,138c17.8-14,147.2-121.4,41.4-123.4L115,14.7l0-3.5
	h78.7l24.3-0.1c122.4-0.6,19.9,61.6-61.6,126.7C138.6,152.2,9.2,259.1,115,261.2L191.8,261z"/>
</svg>
